%TF.GenerationSoftware,KiCad,Pcbnew,(6.0.6)*%
%TF.CreationDate,2022-12-02T11:59:31+05:30*%
%TF.ProjectId,exp6a,65787036-612e-46b6-9963-61645f706362,rev?*%
%TF.SameCoordinates,Original*%
%TF.FileFunction,Legend,Top*%
%TF.FilePolarity,Positive*%
%FSLAX46Y46*%
G04 Gerber Fmt 4.6, Leading zero omitted, Abs format (unit mm)*
G04 Created by KiCad (PCBNEW (6.0.6)) date 2022-12-02 11:59:31*
%MOMM*%
%LPD*%
G01*
G04 APERTURE LIST*
%ADD10C,0.150000*%
%ADD11C,0.120000*%
G04 APERTURE END LIST*
D10*
%TO.C,J1*%
X119892380Y-111733333D02*
X120606666Y-111733333D01*
X120749523Y-111780952D01*
X120844761Y-111876190D01*
X120892380Y-112019047D01*
X120892380Y-112114285D01*
X120892380Y-110733333D02*
X120892380Y-111304761D01*
X120892380Y-111019047D02*
X119892380Y-111019047D01*
X120035238Y-111114285D01*
X120130476Y-111209523D01*
X120178095Y-111304761D01*
%TO.C,H4*%
X161338095Y-111062380D02*
X161338095Y-110062380D01*
X161338095Y-110538571D02*
X161909523Y-110538571D01*
X161909523Y-111062380D02*
X161909523Y-110062380D01*
X162814285Y-110395714D02*
X162814285Y-111062380D01*
X162576190Y-110014761D02*
X162338095Y-110729047D01*
X162957142Y-110729047D01*
%TO.C,H3*%
X156058095Y-78022380D02*
X156058095Y-77022380D01*
X156058095Y-77498571D02*
X156629523Y-77498571D01*
X156629523Y-78022380D02*
X156629523Y-77022380D01*
X157010476Y-77022380D02*
X157629523Y-77022380D01*
X157296190Y-77403333D01*
X157439047Y-77403333D01*
X157534285Y-77450952D01*
X157581904Y-77498571D01*
X157629523Y-77593809D01*
X157629523Y-77831904D01*
X157581904Y-77927142D01*
X157534285Y-77974761D01*
X157439047Y-78022380D01*
X157153333Y-78022380D01*
X157058095Y-77974761D01*
X157010476Y-77927142D01*
%TO.C,U1*%
X129197380Y-108701904D02*
X130006904Y-108701904D01*
X130102142Y-108654285D01*
X130149761Y-108606666D01*
X130197380Y-108511428D01*
X130197380Y-108320952D01*
X130149761Y-108225714D01*
X130102142Y-108178095D01*
X130006904Y-108130476D01*
X129197380Y-108130476D01*
X130197380Y-107130476D02*
X130197380Y-107701904D01*
X130197380Y-107416190D02*
X129197380Y-107416190D01*
X129340238Y-107511428D01*
X129435476Y-107606666D01*
X129483095Y-107701904D01*
%TO.C,H2*%
X125258095Y-77892380D02*
X125258095Y-76892380D01*
X125258095Y-77368571D02*
X125829523Y-77368571D01*
X125829523Y-77892380D02*
X125829523Y-76892380D01*
X126258095Y-76987619D02*
X126305714Y-76940000D01*
X126400952Y-76892380D01*
X126639047Y-76892380D01*
X126734285Y-76940000D01*
X126781904Y-76987619D01*
X126829523Y-77082857D01*
X126829523Y-77178095D01*
X126781904Y-77320952D01*
X126210476Y-77892380D01*
X126829523Y-77892380D01*
%TO.C,U3*%
X155438095Y-107197380D02*
X155438095Y-108006904D01*
X155485714Y-108102142D01*
X155533333Y-108149761D01*
X155628571Y-108197380D01*
X155819047Y-108197380D01*
X155914285Y-108149761D01*
X155961904Y-108102142D01*
X156009523Y-108006904D01*
X156009523Y-107197380D01*
X156390476Y-107197380D02*
X157009523Y-107197380D01*
X156676190Y-107578333D01*
X156819047Y-107578333D01*
X156914285Y-107625952D01*
X156961904Y-107673571D01*
X157009523Y-107768809D01*
X157009523Y-108006904D01*
X156961904Y-108102142D01*
X156914285Y-108149761D01*
X156819047Y-108197380D01*
X156533333Y-108197380D01*
X156438095Y-108149761D01*
X156390476Y-108102142D01*
%TO.C,H1*%
X126598095Y-116642380D02*
X126598095Y-115642380D01*
X126598095Y-116118571D02*
X127169523Y-116118571D01*
X127169523Y-116642380D02*
X127169523Y-115642380D01*
X128169523Y-116642380D02*
X127598095Y-116642380D01*
X127883809Y-116642380D02*
X127883809Y-115642380D01*
X127788571Y-115785238D01*
X127693333Y-115880476D01*
X127598095Y-115928095D01*
%TO.C,U2*%
X129197380Y-87111904D02*
X130006904Y-87111904D01*
X130102142Y-87064285D01*
X130149761Y-87016666D01*
X130197380Y-86921428D01*
X130197380Y-86730952D01*
X130149761Y-86635714D01*
X130102142Y-86588095D01*
X130006904Y-86540476D01*
X129197380Y-86540476D01*
X129292619Y-86111904D02*
X129245000Y-86064285D01*
X129197380Y-85969047D01*
X129197380Y-85730952D01*
X129245000Y-85635714D01*
X129292619Y-85588095D01*
X129387857Y-85540476D01*
X129483095Y-85540476D01*
X129625952Y-85588095D01*
X130197380Y-86159523D01*
X130197380Y-85540476D01*
%TO.C,J2*%
X119922380Y-83933333D02*
X120636666Y-83933333D01*
X120779523Y-83980952D01*
X120874761Y-84076190D01*
X120922380Y-84219047D01*
X120922380Y-84314285D01*
X120017619Y-83504761D02*
X119970000Y-83457142D01*
X119922380Y-83361904D01*
X119922380Y-83123809D01*
X119970000Y-83028571D01*
X120017619Y-82980952D01*
X120112857Y-82933333D01*
X120208095Y-82933333D01*
X120350952Y-82980952D01*
X120922380Y-83552380D01*
X120922380Y-82933333D01*
D11*
%TO.C,J1*%
X121902500Y-99640000D02*
X125322500Y-99640000D01*
X121902500Y-105280000D02*
X121822500Y-104960000D01*
X125322500Y-99640000D02*
X125322500Y-99960000D01*
X125322500Y-99960000D02*
X125322500Y-100280000D01*
X121322500Y-98570000D02*
X126322500Y-98570000D01*
X126322500Y-103790000D02*
X126322500Y-103630000D01*
X121322500Y-97350000D02*
X121322500Y-98570000D01*
X121822500Y-102460000D02*
X121902500Y-102140000D01*
X128412500Y-107460000D02*
X129012500Y-107760000D01*
X121322500Y-108850000D02*
X126322500Y-108850000D01*
X120102500Y-97350000D02*
X128522500Y-97350000D01*
X121822500Y-107460000D02*
X121902500Y-107140000D01*
X125322500Y-105280000D02*
X121902500Y-105280000D01*
X125322500Y-107780000D02*
X121902500Y-107780000D01*
X126322500Y-108850000D02*
X128522500Y-108850000D01*
X129012500Y-107160000D02*
X128412500Y-107460000D01*
X128522500Y-98570000D02*
X126322500Y-98570000D01*
X125322500Y-100280000D02*
X121902500Y-100280000D01*
X121822500Y-99960000D02*
X121902500Y-99640000D01*
X121322500Y-110070000D02*
X121322500Y-108850000D01*
X129012500Y-107760000D02*
X129012500Y-107160000D01*
X121902500Y-102780000D02*
X121822500Y-102460000D01*
X126322500Y-101290000D02*
X126322500Y-101130000D01*
X128522500Y-97350000D02*
X128522500Y-98570000D01*
X125322500Y-107140000D02*
X125322500Y-107460000D01*
X125322500Y-102460000D02*
X125322500Y-102780000D01*
X125322500Y-102140000D02*
X125322500Y-102460000D01*
X121902500Y-104640000D02*
X125322500Y-104640000D01*
X121822500Y-104960000D02*
X121902500Y-104640000D01*
X125322500Y-107460000D02*
X125322500Y-107780000D01*
X126322500Y-106290000D02*
X126322500Y-106130000D01*
X120102500Y-110070000D02*
X120102500Y-97350000D01*
X125322500Y-102780000D02*
X121902500Y-102780000D01*
X125322500Y-104640000D02*
X125322500Y-104960000D01*
X125322500Y-104960000D02*
X125322500Y-105280000D01*
X128522500Y-110070000D02*
X120102500Y-110070000D01*
X121902500Y-102140000D02*
X125322500Y-102140000D01*
X128522500Y-108850000D02*
X128522500Y-110070000D01*
X121902500Y-107140000D02*
X125322500Y-107140000D01*
X126322500Y-108850000D02*
X126322500Y-110070000D01*
X121902500Y-107780000D02*
X121822500Y-107460000D01*
X126322500Y-98570000D02*
X126322500Y-97350000D01*
X121902500Y-100280000D02*
X121822500Y-99960000D01*
X125322500Y-108850000D02*
X125322500Y-98570000D01*
%TO.C,U1*%
X148645000Y-110590000D02*
X148645000Y-105290000D01*
X148705000Y-102800000D02*
X130685000Y-102800000D01*
X130685000Y-102800000D02*
X130685000Y-113080000D01*
X130745000Y-105290000D02*
X130745000Y-106940000D01*
X130745000Y-108940000D02*
X130745000Y-110590000D01*
X148645000Y-105290000D02*
X130745000Y-105290000D01*
X148705000Y-113080000D02*
X148705000Y-102800000D01*
X130685000Y-113080000D02*
X148705000Y-113080000D01*
X130745000Y-110590000D02*
X148645000Y-110590000D01*
X130745000Y-108940000D02*
G75*
G03*
X130745000Y-106940000I0J1000000D01*
G01*
%TO.C,U3*%
X158850000Y-106745000D02*
X158850000Y-88845000D01*
X157200000Y-106745000D02*
X158850000Y-106745000D01*
X161340000Y-88785000D02*
X151060000Y-88785000D01*
X153550000Y-88845000D02*
X153550000Y-106745000D01*
X158850000Y-88845000D02*
X153550000Y-88845000D01*
X151060000Y-106805000D02*
X161340000Y-106805000D01*
X161340000Y-106805000D02*
X161340000Y-88785000D01*
X151060000Y-88785000D02*
X151060000Y-106805000D01*
X153550000Y-106745000D02*
X155200000Y-106745000D01*
X157200000Y-106745000D02*
G75*
G03*
X155200000Y-106745000I-1000000J0D01*
G01*
%TO.C,U2*%
X148705000Y-81210000D02*
X130685000Y-81210000D01*
X130745000Y-89000000D02*
X148645000Y-89000000D01*
X130745000Y-87350000D02*
X130745000Y-89000000D01*
X130685000Y-81210000D02*
X130685000Y-91490000D01*
X148705000Y-91490000D02*
X148705000Y-81210000D01*
X148645000Y-83700000D02*
X130745000Y-83700000D01*
X130745000Y-83700000D02*
X130745000Y-85350000D01*
X130685000Y-91490000D02*
X148705000Y-91490000D01*
X148645000Y-89000000D02*
X148645000Y-83700000D01*
X130745000Y-87350000D02*
G75*
G03*
X130745000Y-85350000I0J1000000D01*
G01*
%TO.C,J2*%
X121902500Y-92670000D02*
X121982500Y-92350000D01*
X125402500Y-92350000D02*
X125402500Y-92670000D01*
X121402500Y-86280000D02*
X126402500Y-86280000D01*
X121402500Y-95280000D02*
X121402500Y-94060000D01*
X125402500Y-89850000D02*
X125402500Y-90170000D01*
X121402500Y-94060000D02*
X126402500Y-94060000D01*
X121982500Y-87350000D02*
X125402500Y-87350000D01*
X126402500Y-94060000D02*
X128602500Y-94060000D01*
X125402500Y-90490000D02*
X121982500Y-90490000D01*
X128492500Y-92670000D02*
X129092500Y-92970000D01*
X126402500Y-86280000D02*
X126402500Y-85060000D01*
X128602500Y-86280000D02*
X126402500Y-86280000D01*
X121982500Y-92990000D02*
X121902500Y-92670000D01*
X128602500Y-85060000D02*
X128602500Y-86280000D01*
X125402500Y-87990000D02*
X121982500Y-87990000D01*
X121982500Y-90490000D02*
X121902500Y-90170000D01*
X128602500Y-95280000D02*
X120182500Y-95280000D01*
X120182500Y-95280000D02*
X120182500Y-85060000D01*
X125402500Y-90170000D02*
X125402500Y-90490000D01*
X125402500Y-92670000D02*
X125402500Y-92990000D01*
X125402500Y-94060000D02*
X125402500Y-86280000D01*
X121902500Y-87670000D02*
X121982500Y-87350000D01*
X125402500Y-87670000D02*
X125402500Y-87990000D01*
X121982500Y-87990000D02*
X121902500Y-87670000D01*
X129092500Y-92370000D02*
X128492500Y-92670000D01*
X125402500Y-87350000D02*
X125402500Y-87670000D01*
X126402500Y-91500000D02*
X126402500Y-91340000D01*
X126402500Y-89000000D02*
X126402500Y-88840000D01*
X121902500Y-90170000D02*
X121982500Y-89850000D01*
X121982500Y-92350000D02*
X125402500Y-92350000D01*
X121982500Y-89850000D02*
X125402500Y-89850000D01*
X126402500Y-94060000D02*
X126402500Y-95280000D01*
X128602500Y-94060000D02*
X128602500Y-95280000D01*
X121402500Y-85060000D02*
X121402500Y-86280000D01*
X120182500Y-85060000D02*
X128602500Y-85060000D01*
X129092500Y-92970000D02*
X129092500Y-92370000D01*
X125402500Y-92990000D02*
X121982500Y-92990000D01*
%TD*%
M02*
