M48
; DRILL file {KiCad (6.0.6)} date Fri Nov 11 15:09:09 2022
; FORMAT={-:-/ absolute / inch / decimal}
; #@! TF.CreationDate,2022-11-11T15:09:09+05:30
; #@! TF.GenerationSoftware,Kicad,Pcbnew,(6.0.6)
; #@! TF.FileFunction,Plated,1,2,PTH
FMAT,2
INCH
; #@! TA.AperFunction,Plated,PTH,ComponentDrill
T1C0.0315
; #@! TA.AperFunction,Plated,PTH,ComponentDrill
T2C0.0374
%
G90
G05
T1
X5.1998Y-3.2496
X5.1998Y-3.5496
X5.1998Y-4.0996
X5.1998Y-4.3996
X5.2998Y-3.2496
X5.2998Y-3.5496
X5.2998Y-4.0996
X5.2998Y-4.3996
X5.3998Y-3.2496
X5.3998Y-3.5496
X5.3998Y-4.0996
X5.3998Y-4.3996
X5.4998Y-3.2496
X5.4998Y-3.5496
X5.4998Y-4.0996
X5.4998Y-4.3996
X5.5998Y-3.2496
X5.5998Y-3.5496
X5.5998Y-4.0996
X5.5998Y-4.3996
X5.6998Y-3.2496
X5.6998Y-3.5496
X5.6998Y-4.0996
X5.6998Y-4.3996
X5.7998Y-3.2496
X5.7998Y-3.5496
X5.7998Y-4.0996
X5.7998Y-4.3996
X5.9996Y-3.5502
X5.9996Y-3.6502
X5.9996Y-3.7502
X5.9996Y-3.8502
X5.9996Y-3.9502
X5.9996Y-4.0502
X5.9996Y-4.1502
X6.2996Y-3.5502
X6.2996Y-3.6502
X6.2996Y-3.7502
X6.2996Y-3.8502
X6.2996Y-3.9502
X6.2996Y-4.0502
X6.2996Y-4.1502
T2
X4.9966Y-3.9354
X4.9966Y-4.0339
X4.9966Y-4.1323
X4.9966Y-4.2307
X4.9997Y-3.4516
X4.9997Y-3.55
X4.9997Y-3.6484
T0
M30
