%TF.GenerationSoftware,KiCad,Pcbnew,(6.0.6)*%
%TF.CreationDate,2022-11-11T15:09:04+05:30*%
%TF.ProjectId,exp6a,65787036-612e-46b6-9963-61645f706362,rev?*%
%TF.SameCoordinates,Original*%
%TF.FileFunction,Soldermask,Top*%
%TF.FilePolarity,Negative*%
%FSLAX46Y46*%
G04 Gerber Fmt 4.6, Leading zero omitted, Abs format (unit mm)*
G04 Created by KiCad (PCBNEW (6.0.6)) date 2022-11-11 15:09:04*
%MOMM*%
%LPD*%
G01*
G04 APERTURE LIST*
G04 Aperture macros list*
%AMRoundRect*
0 Rectangle with rounded corners*
0 $1 Rounding radius*
0 $2 $3 $4 $5 $6 $7 $8 $9 X,Y pos of 4 corners*
0 Add a 4 corners polygon primitive as box body*
4,1,4,$2,$3,$4,$5,$6,$7,$8,$9,$2,$3,0*
0 Add four circle primitives for the rounded corners*
1,1,$1+$1,$2,$3*
1,1,$1+$1,$4,$5*
1,1,$1+$1,$6,$7*
1,1,$1+$1,$8,$9*
0 Add four rect primitives between the rounded corners*
20,1,$1+$1,$2,$3,$4,$5,0*
20,1,$1+$1,$4,$5,$6,$7,0*
20,1,$1+$1,$6,$7,$8,$9,0*
20,1,$1+$1,$8,$9,$2,$3,0*%
G04 Aperture macros list end*
%ADD10C,2.500000*%
%ADD11R,1.600000X1.600000*%
%ADD12O,1.600000X1.600000*%
%ADD13RoundRect,0.250000X0.725000X-0.600000X0.725000X0.600000X-0.725000X0.600000X-0.725000X-0.600000X0*%
%ADD14O,1.950000X1.700000*%
G04 APERTURE END LIST*
D10*
%TO.C,H4*%
X160020000Y-114300000D03*
%TD*%
%TO.C,H3*%
X160020000Y-80010000D03*
%TD*%
%TO.C,H2*%
X123190000Y-80010000D03*
%TD*%
%TO.C,H1*%
X123190000Y-114300000D03*
%TD*%
D11*
%TO.C,U3*%
X160010000Y-105415000D03*
D12*
X160010000Y-102875000D03*
X160010000Y-100335000D03*
X160010000Y-97795000D03*
X160010000Y-95255000D03*
X160010000Y-92715000D03*
X160010000Y-90175000D03*
X152390000Y-90175000D03*
X152390000Y-92715000D03*
X152390000Y-95255000D03*
X152390000Y-97795000D03*
X152390000Y-100335000D03*
X152390000Y-102875000D03*
X152390000Y-105415000D03*
%TD*%
D11*
%TO.C,U2*%
X132075000Y-90160000D03*
D12*
X134615000Y-90160000D03*
X137155000Y-90160000D03*
X139695000Y-90160000D03*
X142235000Y-90160000D03*
X144775000Y-90160000D03*
X147315000Y-90160000D03*
X147315000Y-82540000D03*
X144775000Y-82540000D03*
X142235000Y-82540000D03*
X139695000Y-82540000D03*
X137155000Y-82540000D03*
X134615000Y-82540000D03*
X132075000Y-82540000D03*
%TD*%
D11*
%TO.C,U1*%
X132075000Y-111750000D03*
D12*
X134615000Y-111750000D03*
X137155000Y-111750000D03*
X139695000Y-111750000D03*
X142235000Y-111750000D03*
X144775000Y-111750000D03*
X147315000Y-111750000D03*
X147315000Y-104130000D03*
X144775000Y-104130000D03*
X142235000Y-104130000D03*
X139695000Y-104130000D03*
X137155000Y-104130000D03*
X134615000Y-104130000D03*
X132075000Y-104130000D03*
%TD*%
D13*
%TO.C,J2*%
X126992500Y-92670000D03*
D14*
X126992500Y-90170000D03*
X126992500Y-87670000D03*
%TD*%
D13*
%TO.C,J1*%
X126912500Y-107460000D03*
D14*
X126912500Y-104960000D03*
X126912500Y-102460000D03*
X126912500Y-99960000D03*
%TD*%
M02*
