%TF.GenerationSoftware,KiCad,Pcbnew,(6.0.6)*%
%TF.CreationDate,2022-12-02T12:02:17+05:30*%
%TF.ProjectId,exp11,65787031-312e-46b6-9963-61645f706362,rev?*%
%TF.SameCoordinates,Original*%
%TF.FileFunction,Copper,L2,Bot*%
%TF.FilePolarity,Positive*%
%FSLAX46Y46*%
G04 Gerber Fmt 4.6, Leading zero omitted, Abs format (unit mm)*
G04 Created by KiCad (PCBNEW (6.0.6)) date 2022-12-02 12:02:17*
%MOMM*%
%LPD*%
G01*
G04 APERTURE LIST*
G04 Aperture macros list*
%AMRoundRect*
0 Rectangle with rounded corners*
0 $1 Rounding radius*
0 $2 $3 $4 $5 $6 $7 $8 $9 X,Y pos of 4 corners*
0 Add a 4 corners polygon primitive as box body*
4,1,4,$2,$3,$4,$5,$6,$7,$8,$9,$2,$3,0*
0 Add four circle primitives for the rounded corners*
1,1,$1+$1,$2,$3*
1,1,$1+$1,$4,$5*
1,1,$1+$1,$6,$7*
1,1,$1+$1,$8,$9*
0 Add four rect primitives between the rounded corners*
20,1,$1+$1,$2,$3,$4,$5,0*
20,1,$1+$1,$4,$5,$6,$7,0*
20,1,$1+$1,$6,$7,$8,$9,0*
20,1,$1+$1,$8,$9,$2,$3,0*%
G04 Aperture macros list end*
%ADD10C,0.250000*%
%TA.AperFunction,NonConductor*%
%ADD11C,0.250000*%
%TD*%
%TA.AperFunction,ComponentPad*%
%ADD12R,1.600000X1.600000*%
%TD*%
%TA.AperFunction,ComponentPad*%
%ADD13O,1.600000X1.600000*%
%TD*%
%TA.AperFunction,ComponentPad*%
%ADD14RoundRect,0.250000X0.725000X-0.600000X0.725000X0.600000X-0.725000X0.600000X-0.725000X-0.600000X0*%
%TD*%
%TA.AperFunction,ComponentPad*%
%ADD15O,1.950000X1.700000*%
%TD*%
%TA.AperFunction,ComponentPad*%
%ADD16RoundRect,0.250000X-0.725000X0.600000X-0.725000X-0.600000X0.725000X-0.600000X0.725000X0.600000X0*%
%TD*%
%TA.AperFunction,Conductor*%
%ADD17C,0.250000*%
%TD*%
G04 APERTURE END LIST*
D10*
D11*
X139565714Y-111728571D02*
X139565714Y-110228571D01*
X138994285Y-110228571D01*
X138851428Y-110300000D01*
X138780000Y-110371428D01*
X138708571Y-110514285D01*
X138708571Y-110728571D01*
X138780000Y-110871428D01*
X138851428Y-110942857D01*
X138994285Y-111014285D01*
X139565714Y-111014285D01*
X138280000Y-110228571D02*
X137780000Y-111728571D01*
X137280000Y-110228571D01*
D10*
D11*
X90633333Y-99652380D02*
X90633333Y-98652380D01*
X90300000Y-99366666D01*
X89966666Y-98652380D01*
X89966666Y-99652380D01*
X88919047Y-99557142D02*
X88966666Y-99604761D01*
X89109523Y-99652380D01*
X89204761Y-99652380D01*
X89347619Y-99604761D01*
X89442857Y-99509523D01*
X89490476Y-99414285D01*
X89538095Y-99223809D01*
X89538095Y-99080952D01*
X89490476Y-98890476D01*
X89442857Y-98795238D01*
X89347619Y-98700000D01*
X89204761Y-98652380D01*
X89109523Y-98652380D01*
X88966666Y-98700000D01*
X88919047Y-98747619D01*
D10*
D11*
X90435238Y-102087142D02*
X90482857Y-102134761D01*
X90625714Y-102182380D01*
X90720952Y-102182380D01*
X90863809Y-102134761D01*
X90959047Y-102039523D01*
X91006666Y-101944285D01*
X91054285Y-101753809D01*
X91054285Y-101610952D01*
X91006666Y-101420476D01*
X90959047Y-101325238D01*
X90863809Y-101230000D01*
X90720952Y-101182380D01*
X90625714Y-101182380D01*
X90482857Y-101230000D01*
X90435238Y-101277619D01*
X89530476Y-102182380D02*
X90006666Y-102182380D01*
X90006666Y-101182380D01*
X89197142Y-102182380D02*
X89197142Y-101182380D01*
X88625714Y-102182380D02*
X89054285Y-101610952D01*
X88625714Y-101182380D02*
X89197142Y-101753809D01*
D10*
D11*
X140170000Y-93578571D02*
X140170000Y-94292857D01*
X140598571Y-93435714D02*
X139098571Y-93935714D01*
X140598571Y-94435714D01*
X139812857Y-96578571D02*
X139884285Y-96792857D01*
X139955714Y-96864285D01*
X140098571Y-96935714D01*
X140312857Y-96935714D01*
X140455714Y-96864285D01*
X140527142Y-96792857D01*
X140598571Y-96650000D01*
X140598571Y-96078571D01*
X139098571Y-96078571D01*
X139098571Y-96578571D01*
X139170000Y-96721428D01*
X139241428Y-96792857D01*
X139384285Y-96864285D01*
X139527142Y-96864285D01*
X139670000Y-96792857D01*
X139741428Y-96721428D01*
X139812857Y-96578571D01*
X139812857Y-96078571D01*
X140455714Y-99578571D02*
X140527142Y-99507142D01*
X140598571Y-99292857D01*
X140598571Y-99150000D01*
X140527142Y-98935714D01*
X140384285Y-98792857D01*
X140241428Y-98721428D01*
X139955714Y-98650000D01*
X139741428Y-98650000D01*
X139455714Y-98721428D01*
X139312857Y-98792857D01*
X139170000Y-98935714D01*
X139098571Y-99150000D01*
X139098571Y-99292857D01*
X139170000Y-99507142D01*
X139241428Y-99578571D01*
X140598571Y-101364285D02*
X139098571Y-101364285D01*
X139098571Y-101721428D01*
X139170000Y-101935714D01*
X139312857Y-102078571D01*
X139455714Y-102150000D01*
X139741428Y-102221428D01*
X139955714Y-102221428D01*
X140241428Y-102150000D01*
X140384285Y-102078571D01*
X140527142Y-101935714D01*
X140598571Y-101721428D01*
X140598571Y-101364285D01*
D10*
D11*
X89911428Y-107197619D02*
X90006666Y-107150000D01*
X90101904Y-107054761D01*
X90244761Y-106911904D01*
X90340000Y-106864285D01*
X90435238Y-106864285D01*
X90387619Y-107102380D02*
X90482857Y-107054761D01*
X90578095Y-106959523D01*
X90625714Y-106769047D01*
X90625714Y-106435714D01*
X90578095Y-106245238D01*
X90482857Y-106150000D01*
X90387619Y-106102380D01*
X90197142Y-106102380D01*
X90101904Y-106150000D01*
X90006666Y-106245238D01*
X89959047Y-106435714D01*
X89959047Y-106769047D01*
X90006666Y-106959523D01*
X90101904Y-107054761D01*
X90197142Y-107102380D01*
X90387619Y-107102380D01*
X89101904Y-107102380D02*
X89101904Y-106578571D01*
X89149523Y-106483333D01*
X89244761Y-106435714D01*
X89435238Y-106435714D01*
X89530476Y-106483333D01*
X89101904Y-107054761D02*
X89197142Y-107102380D01*
X89435238Y-107102380D01*
X89530476Y-107054761D01*
X89578095Y-106959523D01*
X89578095Y-106864285D01*
X89530476Y-106769047D01*
X89435238Y-106721428D01*
X89197142Y-106721428D01*
X89101904Y-106673809D01*
D10*
D11*
X89961428Y-112157619D02*
X90056666Y-112110000D01*
X90151904Y-112014761D01*
X90294761Y-111871904D01*
X90390000Y-111824285D01*
X90485238Y-111824285D01*
X90437619Y-112062380D02*
X90532857Y-112014761D01*
X90628095Y-111919523D01*
X90675714Y-111729047D01*
X90675714Y-111395714D01*
X90628095Y-111205238D01*
X90532857Y-111110000D01*
X90437619Y-111062380D01*
X90247142Y-111062380D01*
X90151904Y-111110000D01*
X90056666Y-111205238D01*
X90009047Y-111395714D01*
X90009047Y-111729047D01*
X90056666Y-111919523D01*
X90151904Y-112014761D01*
X90247142Y-112062380D01*
X90437619Y-112062380D01*
X89151904Y-112062380D02*
X89151904Y-111062380D01*
X89151904Y-112014761D02*
X89247142Y-112062380D01*
X89437619Y-112062380D01*
X89532857Y-112014761D01*
X89580476Y-111967142D01*
X89628095Y-111871904D01*
X89628095Y-111586190D01*
X89580476Y-111490952D01*
X89532857Y-111443333D01*
X89437619Y-111395714D01*
X89247142Y-111395714D01*
X89151904Y-111443333D01*
D10*
D11*
X89871428Y-104697619D02*
X89966666Y-104650000D01*
X90061904Y-104554761D01*
X90204761Y-104411904D01*
X90300000Y-104364285D01*
X90395238Y-104364285D01*
X90347619Y-104602380D02*
X90442857Y-104554761D01*
X90538095Y-104459523D01*
X90585714Y-104269047D01*
X90585714Y-103935714D01*
X90538095Y-103745238D01*
X90442857Y-103650000D01*
X90347619Y-103602380D01*
X90157142Y-103602380D01*
X90061904Y-103650000D01*
X89966666Y-103745238D01*
X89919047Y-103935714D01*
X89919047Y-104269047D01*
X89966666Y-104459523D01*
X90061904Y-104554761D01*
X90157142Y-104602380D01*
X90347619Y-104602380D01*
X89490476Y-104602380D02*
X89490476Y-103602380D01*
X89490476Y-103983333D02*
X89395238Y-103935714D01*
X89204761Y-103935714D01*
X89109523Y-103983333D01*
X89061904Y-104030952D01*
X89014285Y-104126190D01*
X89014285Y-104411904D01*
X89061904Y-104507142D01*
X89109523Y-104554761D01*
X89204761Y-104602380D01*
X89395238Y-104602380D01*
X89490476Y-104554761D01*
D10*
D11*
X90642857Y-93710000D02*
X90738095Y-93662380D01*
X90880952Y-93662380D01*
X91023809Y-93710000D01*
X91119047Y-93805238D01*
X91166666Y-93900476D01*
X91214285Y-94090952D01*
X91214285Y-94233809D01*
X91166666Y-94424285D01*
X91119047Y-94519523D01*
X91023809Y-94614761D01*
X90880952Y-94662380D01*
X90785714Y-94662380D01*
X90642857Y-94614761D01*
X90595238Y-94567142D01*
X90595238Y-94233809D01*
X90785714Y-94233809D01*
X90166666Y-93995714D02*
X90166666Y-94662380D01*
X90166666Y-94090952D02*
X90119047Y-94043333D01*
X90023809Y-93995714D01*
X89880952Y-93995714D01*
X89785714Y-94043333D01*
X89738095Y-94138571D01*
X89738095Y-94662380D01*
X88833333Y-94662380D02*
X88833333Y-93662380D01*
X88833333Y-94614761D02*
X88928571Y-94662380D01*
X89119047Y-94662380D01*
X89214285Y-94614761D01*
X89261904Y-94567142D01*
X89309523Y-94471904D01*
X89309523Y-94186190D01*
X89261904Y-94090952D01*
X89214285Y-94043333D01*
X89119047Y-93995714D01*
X88928571Y-93995714D01*
X88833333Y-94043333D01*
D10*
D11*
X103922857Y-88452857D02*
X103422857Y-88452857D01*
X103208571Y-89238571D02*
X103922857Y-89238571D01*
X103922857Y-87738571D01*
X103208571Y-87738571D01*
X102708571Y-87738571D02*
X101708571Y-89238571D01*
X101708571Y-87738571D02*
X102708571Y-89238571D01*
X101137142Y-89238571D02*
X101137142Y-87738571D01*
X100565714Y-87738571D01*
X100422857Y-87810000D01*
X100351428Y-87881428D01*
X100280000Y-88024285D01*
X100280000Y-88238571D01*
X100351428Y-88381428D01*
X100422857Y-88452857D01*
X100565714Y-88524285D01*
X101137142Y-88524285D01*
X99637142Y-88667142D02*
X98494285Y-88667142D01*
X96994285Y-89238571D02*
X97851428Y-89238571D01*
X97422857Y-89238571D02*
X97422857Y-87738571D01*
X97565714Y-87952857D01*
X97708571Y-88095714D01*
X97851428Y-88167142D01*
X95565714Y-89238571D02*
X96422857Y-89238571D01*
X95994285Y-89238571D02*
X95994285Y-87738571D01*
X96137142Y-87952857D01*
X96280000Y-88095714D01*
X96422857Y-88167142D01*
D10*
D11*
X89797619Y-109647619D02*
X89892857Y-109600000D01*
X89988095Y-109504761D01*
X90130952Y-109361904D01*
X90226190Y-109314285D01*
X90321428Y-109314285D01*
X90273809Y-109552380D02*
X90369047Y-109504761D01*
X90464285Y-109409523D01*
X90511904Y-109219047D01*
X90511904Y-108885714D01*
X90464285Y-108695238D01*
X90369047Y-108600000D01*
X90273809Y-108552380D01*
X90083333Y-108552380D01*
X89988095Y-108600000D01*
X89892857Y-108695238D01*
X89845238Y-108885714D01*
X89845238Y-109219047D01*
X89892857Y-109409523D01*
X89988095Y-109504761D01*
X90083333Y-109552380D01*
X90273809Y-109552380D01*
X88988095Y-109504761D02*
X89083333Y-109552380D01*
X89273809Y-109552380D01*
X89369047Y-109504761D01*
X89416666Y-109457142D01*
X89464285Y-109361904D01*
X89464285Y-109076190D01*
X89416666Y-108980952D01*
X89369047Y-108933333D01*
X89273809Y-108885714D01*
X89083333Y-108885714D01*
X88988095Y-108933333D01*
D10*
D11*
X91180476Y-95922380D02*
X90847142Y-96922380D01*
X90513809Y-95922380D01*
X89751904Y-96874761D02*
X89847142Y-96922380D01*
X90037619Y-96922380D01*
X90132857Y-96874761D01*
X90180476Y-96827142D01*
X90228095Y-96731904D01*
X90228095Y-96446190D01*
X90180476Y-96350952D01*
X90132857Y-96303333D01*
X90037619Y-96255714D01*
X89847142Y-96255714D01*
X89751904Y-96303333D01*
X88894761Y-96874761D02*
X88990000Y-96922380D01*
X89180476Y-96922380D01*
X89275714Y-96874761D01*
X89323333Y-96827142D01*
X89370952Y-96731904D01*
X89370952Y-96446190D01*
X89323333Y-96350952D01*
X89275714Y-96303333D01*
X89180476Y-96255714D01*
X88990000Y-96255714D01*
X88894761Y-96303333D01*
D10*
%TO.C,U1*%
D11*
X128741904Y-117502380D02*
X128075238Y-117502380D01*
X128503809Y-118502380D01*
X127265714Y-117835714D02*
X127265714Y-118502380D01*
X127503809Y-117454761D02*
X127741904Y-118169047D01*
X127122857Y-118169047D01*
X126837142Y-117502380D02*
X126218095Y-117502380D01*
X126551428Y-117883333D01*
X126408571Y-117883333D01*
X126313333Y-117930952D01*
X126265714Y-117978571D01*
X126218095Y-118073809D01*
X126218095Y-118311904D01*
X126265714Y-118407142D01*
X126313333Y-118454761D01*
X126408571Y-118502380D01*
X126694285Y-118502380D01*
X126789523Y-118454761D01*
X126837142Y-118407142D01*
X125837142Y-117597619D02*
X125789523Y-117550000D01*
X125694285Y-117502380D01*
X125456190Y-117502380D01*
X125360952Y-117550000D01*
X125313333Y-117597619D01*
X125265714Y-117692857D01*
X125265714Y-117788095D01*
X125313333Y-117930952D01*
X125884761Y-118502380D01*
X125265714Y-118502380D01*
D10*
%TO.C,U4*%
D11*
X113071904Y-91422380D02*
X112405238Y-91422380D01*
X112833809Y-92422380D01*
X111595714Y-91755714D02*
X111595714Y-92422380D01*
X111833809Y-91374761D02*
X112071904Y-92089047D01*
X111452857Y-92089047D01*
X111024285Y-92422380D02*
X110833809Y-92422380D01*
X110738571Y-92374761D01*
X110690952Y-92327142D01*
X110595714Y-92184285D01*
X110548095Y-91993809D01*
X110548095Y-91612857D01*
X110595714Y-91517619D01*
X110643333Y-91470000D01*
X110738571Y-91422380D01*
X110929047Y-91422380D01*
X111024285Y-91470000D01*
X111071904Y-91517619D01*
X111119523Y-91612857D01*
X111119523Y-91850952D01*
X111071904Y-91946190D01*
X111024285Y-91993809D01*
X110929047Y-92041428D01*
X110738571Y-92041428D01*
X110643333Y-91993809D01*
X110595714Y-91946190D01*
X110548095Y-91850952D01*
X109643333Y-91422380D02*
X110119523Y-91422380D01*
X110167142Y-91898571D01*
X110119523Y-91850952D01*
X110024285Y-91803333D01*
X109786190Y-91803333D01*
X109690952Y-91850952D01*
X109643333Y-91898571D01*
X109595714Y-91993809D01*
X109595714Y-92231904D01*
X109643333Y-92327142D01*
X109690952Y-92374761D01*
X109786190Y-92422380D01*
X110024285Y-92422380D01*
X110119523Y-92374761D01*
X110167142Y-92327142D01*
D10*
%TO.C,U3*%
D11*
X106121904Y-117472380D02*
X105455238Y-117472380D01*
X105883809Y-118472380D01*
X104645714Y-117805714D02*
X104645714Y-118472380D01*
X104883809Y-117424761D02*
X105121904Y-118139047D01*
X104502857Y-118139047D01*
X103931428Y-117472380D02*
X103836190Y-117472380D01*
X103740952Y-117520000D01*
X103693333Y-117567619D01*
X103645714Y-117662857D01*
X103598095Y-117853333D01*
X103598095Y-118091428D01*
X103645714Y-118281904D01*
X103693333Y-118377142D01*
X103740952Y-118424761D01*
X103836190Y-118472380D01*
X103931428Y-118472380D01*
X104026666Y-118424761D01*
X104074285Y-118377142D01*
X104121904Y-118281904D01*
X104169523Y-118091428D01*
X104169523Y-117853333D01*
X104121904Y-117662857D01*
X104074285Y-117567619D01*
X104026666Y-117520000D01*
X103931428Y-117472380D01*
X102740952Y-117805714D02*
X102740952Y-118472380D01*
X102979047Y-117424761D02*
X103217142Y-118139047D01*
X102598095Y-118139047D01*
D10*
%TO.C,U2*%
D11*
X117321904Y-117472380D02*
X116655238Y-117472380D01*
X117083809Y-118472380D01*
X115845714Y-117805714D02*
X115845714Y-118472380D01*
X116083809Y-117424761D02*
X116321904Y-118139047D01*
X115702857Y-118139047D01*
X115131428Y-117472380D02*
X115036190Y-117472380D01*
X114940952Y-117520000D01*
X114893333Y-117567619D01*
X114845714Y-117662857D01*
X114798095Y-117853333D01*
X114798095Y-118091428D01*
X114845714Y-118281904D01*
X114893333Y-118377142D01*
X114940952Y-118424761D01*
X115036190Y-118472380D01*
X115131428Y-118472380D01*
X115226666Y-118424761D01*
X115274285Y-118377142D01*
X115321904Y-118281904D01*
X115369523Y-118091428D01*
X115369523Y-117853333D01*
X115321904Y-117662857D01*
X115274285Y-117567619D01*
X115226666Y-117520000D01*
X115131428Y-117472380D01*
X114226666Y-117900952D02*
X114321904Y-117853333D01*
X114369523Y-117805714D01*
X114417142Y-117710476D01*
X114417142Y-117662857D01*
X114369523Y-117567619D01*
X114321904Y-117520000D01*
X114226666Y-117472380D01*
X114036190Y-117472380D01*
X113940952Y-117520000D01*
X113893333Y-117567619D01*
X113845714Y-117662857D01*
X113845714Y-117710476D01*
X113893333Y-117805714D01*
X113940952Y-117853333D01*
X114036190Y-117900952D01*
X114226666Y-117900952D01*
X114321904Y-117948571D01*
X114369523Y-117996190D01*
X114417142Y-118091428D01*
X114417142Y-118281904D01*
X114369523Y-118377142D01*
X114321904Y-118424761D01*
X114226666Y-118472380D01*
X114036190Y-118472380D01*
X113940952Y-118424761D01*
X113893333Y-118377142D01*
X113845714Y-118281904D01*
X113845714Y-118091428D01*
X113893333Y-117996190D01*
X113940952Y-117948571D01*
X114036190Y-117900952D01*
%TD*%
D12*
%TO.P,U1,1*%
%TO.N,Net-(U1-Pad1)*%
X123200000Y-102865000D03*
D13*
%TO.P,U1,2*%
%TO.N,Net-(U2-Pad3)*%
X123200000Y-105405000D03*
%TO.P,U1,3*%
%TO.N,Net-(U1-Pad3)*%
X123200000Y-107945000D03*
%TO.P,U1,4*%
%TO.N,N/C*%
X123200000Y-110485000D03*
%TO.P,U1,5*%
X123200000Y-113025000D03*
%TO.P,U1,6*%
X123200000Y-115565000D03*
%TO.P,U1,7,Gnd*%
%TO.N,GND*%
X123200000Y-118105000D03*
%TO.P,U1,8*%
%TO.N,N/C*%
X130820000Y-118105000D03*
%TO.P,U1,9*%
X130820000Y-115565000D03*
%TO.P,U1,10*%
X130820000Y-113025000D03*
%TO.P,U1,11*%
X130820000Y-110485000D03*
%TO.P,U1,12*%
X130820000Y-107945000D03*
%TO.P,U1,13*%
X130820000Y-105405000D03*
%TO.P,U1,14,Vcc*%
%TO.N,VCC*%
X130820000Y-102865000D03*
%TD*%
D14*
%TO.P,J2,1,Pin_1*%
%TO.N,QD*%
X95250000Y-111620000D03*
D15*
%TO.P,J2,2,Pin_2*%
%TO.N,QC*%
X95250000Y-109120000D03*
%TO.P,J2,3,Pin_3*%
%TO.N,QA*%
X95250000Y-106620000D03*
%TO.P,J2,4,Pin_4*%
%TO.N,QB*%
X95250000Y-104120000D03*
%TO.P,J2,5,Pin_5*%
%TO.N,CLK*%
X95250000Y-101620000D03*
%TO.P,J2,6,Pin_6*%
%TO.N,MC*%
X95250000Y-99120000D03*
%TO.P,J2,7,Pin_7*%
%TO.N,VCC*%
X95250000Y-96620000D03*
%TO.P,J2,8,Pin_8*%
%TO.N,GND*%
X95250000Y-94120000D03*
%TD*%
D16*
%TO.P,J1,1,Pin_1*%
%TO.N,A*%
X135897500Y-94040000D03*
D15*
%TO.P,J1,2,Pin_2*%
%TO.N,B*%
X135897500Y-96540000D03*
%TO.P,J1,3,Pin_3*%
%TO.N,C*%
X135897500Y-99040000D03*
%TO.P,J1,4,Pin_4*%
%TO.N,D*%
X135897500Y-101540000D03*
%TD*%
D12*
%TO.P,U4,1,Ser*%
%TO.N,Net-(U1-Pad3)*%
X123195000Y-87640000D03*
D13*
%TO.P,U4,2,P0*%
%TO.N,A*%
X120655000Y-87640000D03*
%TO.P,U4,3,P1*%
%TO.N,B*%
X118115000Y-87640000D03*
%TO.P,U4,4,P2*%
%TO.N,C*%
X115575000Y-87640000D03*
%TO.P,U4,5,P3*%
%TO.N,D*%
X113035000Y-87640000D03*
%TO.P,U4,6,Mode*%
%TO.N,MC*%
X110495000Y-87640000D03*
%TO.P,U4,7,GND*%
%TO.N,GND*%
X107955000Y-87640000D03*
%TO.P,U4,8,~{CK2}*%
%TO.N,CLK*%
X107955000Y-95260000D03*
%TO.P,U4,9,~{CK1}*%
X110495000Y-95260000D03*
%TO.P,U4,10,Q3*%
%TO.N,QD*%
X113035000Y-95260000D03*
%TO.P,U4,11,Q2*%
%TO.N,QC*%
X115575000Y-95260000D03*
%TO.P,U4,12,Q1*%
%TO.N,QB*%
X118115000Y-95260000D03*
%TO.P,U4,13,Q0*%
%TO.N,QA*%
X120655000Y-95260000D03*
%TO.P,U4,14,VCC*%
%TO.N,VCC*%
X123195000Y-95260000D03*
%TD*%
D12*
%TO.P,U3,1*%
%TO.N,QA*%
X100340000Y-102865000D03*
D13*
%TO.P,U3,2*%
%TO.N,Net-(U2-Pad2)*%
X100340000Y-105405000D03*
%TO.P,U3,3*%
%TO.N,QC*%
X100340000Y-107945000D03*
%TO.P,U3,4*%
%TO.N,Net-(U2-Pad5)*%
X100340000Y-110485000D03*
%TO.P,U3,5*%
%TO.N,QD*%
X100340000Y-113025000D03*
%TO.P,U3,6*%
%TO.N,Net-(U2-Pad4)*%
X100340000Y-115565000D03*
%TO.P,U3,7,Gnd*%
%TO.N,GND*%
X100340000Y-118105000D03*
%TO.P,U3,8*%
%TO.N,N/C*%
X107960000Y-118105000D03*
%TO.P,U3,9*%
X107960000Y-115565000D03*
%TO.P,U3,10*%
X107960000Y-113025000D03*
%TO.P,U3,11*%
X107960000Y-110485000D03*
%TO.P,U3,12*%
X107960000Y-107945000D03*
%TO.P,U3,13*%
X107960000Y-105405000D03*
%TO.P,U3,14,Vcc*%
%TO.N,VCC*%
X107960000Y-102865000D03*
%TD*%
D12*
%TO.P,U2,1*%
%TO.N,QC*%
X111770000Y-102865000D03*
D13*
%TO.P,U2,2*%
%TO.N,Net-(U2-Pad2)*%
X111770000Y-105405000D03*
%TO.P,U2,3*%
%TO.N,Net-(U2-Pad3)*%
X111770000Y-107945000D03*
%TO.P,U2,4*%
%TO.N,Net-(U2-Pad4)*%
X111770000Y-110485000D03*
%TO.P,U2,5*%
%TO.N,Net-(U2-Pad5)*%
X111770000Y-113025000D03*
%TO.P,U2,6*%
%TO.N,Net-(U1-Pad1)*%
X111770000Y-115565000D03*
%TO.P,U2,7,Gnd*%
%TO.N,GND*%
X111770000Y-118105000D03*
%TO.P,U2,8*%
%TO.N,N/C*%
X119390000Y-118105000D03*
%TO.P,U2,9*%
X119390000Y-115565000D03*
%TO.P,U2,10*%
X119390000Y-113025000D03*
%TO.P,U2,11*%
X119390000Y-110485000D03*
%TO.P,U2,12*%
X119390000Y-107945000D03*
%TO.P,U2,13*%
X119390000Y-105405000D03*
%TO.P,U2,14,Vcc*%
%TO.N,VCC*%
X119390000Y-102865000D03*
%TD*%
D17*
%TO.N,D*%
X117255000Y-91860000D02*
X126217500Y-91860000D01*
X126217500Y-91860000D02*
X135897500Y-101540000D01*
X113035000Y-87640000D02*
X117255000Y-91860000D01*
%TO.N,C*%
X128017500Y-91160000D02*
X135897500Y-99040000D01*
X115575000Y-87640000D02*
X119095000Y-91160000D01*
X119095000Y-91160000D02*
X128017500Y-91160000D01*
%TO.N,B*%
X121640000Y-90590000D02*
X129660000Y-90590000D01*
X129660000Y-90590000D02*
X135610000Y-96540000D01*
X118690000Y-87640000D02*
X121640000Y-90590000D01*
X118115000Y-87640000D02*
X118690000Y-87640000D01*
X135610000Y-96540000D02*
X135897500Y-96540000D01*
%TO.N,A*%
X131997500Y-90140000D02*
X135897500Y-94040000D01*
X123155000Y-90140000D02*
X131997500Y-90140000D01*
X120655000Y-87640000D02*
X123155000Y-90140000D01*
%TO.N,CLK*%
X97390000Y-101620000D02*
X103750000Y-95260000D01*
X95250000Y-101620000D02*
X97390000Y-101620000D01*
X107955000Y-95260000D02*
X110495000Y-95260000D01*
X103750000Y-95260000D02*
X107955000Y-95260000D01*
%TO.N,MC*%
X99015000Y-99120000D02*
X110495000Y-87640000D01*
X95250000Y-99120000D02*
X99015000Y-99120000D01*
%TO.N,QA*%
X117890000Y-98270000D02*
X120655000Y-95505000D01*
X95250000Y-106620000D02*
X95920000Y-106620000D01*
X99675000Y-102865000D02*
X100340000Y-102865000D01*
X100340000Y-102865000D02*
X104935000Y-98270000D01*
X120655000Y-95505000D02*
X120655000Y-95260000D01*
X104935000Y-98270000D02*
X117890000Y-98270000D01*
X95920000Y-106620000D02*
X99675000Y-102865000D01*
%TO.N,QB*%
X113180000Y-96840000D02*
X113280000Y-96840000D01*
X114250000Y-95870000D02*
X114250000Y-94530000D01*
X114770000Y-94010000D02*
X116865000Y-94010000D01*
X96345000Y-104120000D02*
X103630000Y-96835000D01*
X113175000Y-96835000D02*
X113180000Y-96840000D01*
X113280000Y-96840000D02*
X114250000Y-95870000D01*
X116865000Y-94010000D02*
X118115000Y-95260000D01*
X103630000Y-96835000D02*
X113175000Y-96835000D01*
X95250000Y-104120000D02*
X96345000Y-104120000D01*
X114250000Y-94530000D02*
X114770000Y-94010000D01*
%TO.N,QC*%
X96540000Y-105360000D02*
X93790000Y-105360000D01*
X100340000Y-107945000D02*
X98825000Y-107945000D01*
X109825000Y-100920000D02*
X105650000Y-100920000D01*
X102470000Y-104100000D02*
X99540000Y-104100000D01*
X93820000Y-109120000D02*
X95250000Y-109120000D01*
X111770000Y-102865000D02*
X109825000Y-100920000D01*
X93120000Y-108420000D02*
X93820000Y-109120000D01*
X98340000Y-108430000D02*
X97650000Y-109120000D01*
X115575000Y-95260000D02*
X113155000Y-97680000D01*
X98340000Y-105300000D02*
X98340000Y-108430000D01*
X103421396Y-97680000D02*
X96710000Y-104391396D01*
X99540000Y-104100000D02*
X98340000Y-105300000D01*
X93790000Y-105360000D02*
X93120000Y-106030000D01*
X97650000Y-109120000D02*
X95250000Y-109120000D01*
X98825000Y-107945000D02*
X98340000Y-108430000D01*
X105650000Y-100920000D02*
X102470000Y-104100000D01*
X113155000Y-97680000D02*
X103421396Y-97680000D01*
X93120000Y-106030000D02*
X93120000Y-108420000D01*
X96710000Y-105190000D02*
X96540000Y-105360000D01*
X96710000Y-104391396D02*
X96710000Y-105190000D01*
%TO.N,QD*%
X92670000Y-103780000D02*
X92670000Y-109040000D01*
X96655000Y-113025000D02*
X100340000Y-113025000D01*
X93580000Y-102870000D02*
X92670000Y-103780000D01*
X103261396Y-96385000D02*
X96776396Y-102870000D01*
X95250000Y-111620000D02*
X96655000Y-113025000D01*
X96776396Y-102870000D02*
X93580000Y-102870000D01*
X92670000Y-109040000D02*
X95250000Y-111620000D01*
X113035000Y-95260000D02*
X111910000Y-96385000D01*
X111910000Y-96385000D02*
X103261396Y-96385000D01*
%TO.N,VCC*%
X115585000Y-106670000D02*
X110830000Y-106670000D01*
X102200000Y-113560000D02*
X102200000Y-112450000D01*
X98570000Y-111030000D02*
X98570000Y-109930000D01*
X95530000Y-114290000D02*
X101470000Y-114290000D01*
X95250000Y-96620000D02*
X92210000Y-99660000D01*
X108065000Y-102865000D02*
X107960000Y-102865000D01*
X99330000Y-111790000D02*
X98570000Y-111030000D01*
X127000000Y-102865000D02*
X130820000Y-102865000D01*
X99380000Y-109120000D02*
X101705000Y-109120000D01*
X98570000Y-109930000D02*
X99380000Y-109120000D01*
X123195000Y-99060000D02*
X119390000Y-102865000D01*
X92210000Y-110970000D02*
X95530000Y-114290000D01*
X101470000Y-114290000D02*
X102200000Y-113560000D01*
X119390000Y-102865000D02*
X115585000Y-106670000D01*
X101705000Y-109120000D02*
X107960000Y-102865000D01*
X110830000Y-106670000D02*
X109290000Y-105130000D01*
X123195000Y-95260000D02*
X123195000Y-99060000D01*
X109290000Y-105130000D02*
X109290000Y-104090000D01*
X101540000Y-111790000D02*
X99330000Y-111790000D01*
X92210000Y-99660000D02*
X92210000Y-110970000D01*
X102200000Y-112450000D02*
X101540000Y-111790000D01*
X123195000Y-99060000D02*
X127000000Y-102865000D01*
X109290000Y-104090000D02*
X108065000Y-102865000D01*
%TO.N,GND*%
X98455000Y-118105000D02*
X100340000Y-118105000D01*
X100340000Y-118270000D02*
X101690000Y-119620000D01*
X95250000Y-94120000D02*
X91760000Y-97610000D01*
X95250000Y-94120000D02*
X101475000Y-94120000D01*
X91760000Y-111410000D02*
X98455000Y-118105000D01*
X110290000Y-119585000D02*
X110290000Y-119620000D01*
X121685000Y-119620000D02*
X123200000Y-118105000D01*
X91760000Y-97610000D02*
X91760000Y-111410000D01*
X111770000Y-118105000D02*
X110290000Y-119585000D01*
X110290000Y-119620000D02*
X121685000Y-119620000D01*
X101475000Y-94120000D02*
X107955000Y-87640000D01*
X100340000Y-118105000D02*
X100340000Y-118270000D01*
X101690000Y-119620000D02*
X110290000Y-119620000D01*
%TO.N,Net-(U1-Pad1)*%
X121360000Y-108650000D02*
X121360000Y-107370000D01*
X116240000Y-111610000D02*
X118670000Y-109180000D01*
X111770000Y-115565000D02*
X113055000Y-115565000D01*
X122050000Y-106680000D02*
X124230000Y-106680000D01*
X118670000Y-109180000D02*
X120830000Y-109180000D01*
X121360000Y-107370000D02*
X122050000Y-106680000D01*
X120830000Y-109180000D02*
X121360000Y-108650000D01*
X124230000Y-106680000D02*
X124810000Y-106100000D01*
X116240000Y-112380000D02*
X116240000Y-111610000D01*
X124810000Y-104170000D02*
X123505000Y-102865000D01*
X124810000Y-106100000D02*
X124810000Y-104170000D01*
X123505000Y-102865000D02*
X123200000Y-102865000D01*
X113055000Y-115565000D02*
X116240000Y-112380000D01*
%TO.N,Net-(U1-Pad3)*%
X123195000Y-87640000D02*
X132110000Y-87640000D01*
X125425000Y-107945000D02*
X123200000Y-107945000D01*
X126680000Y-106690000D02*
X125425000Y-107945000D01*
X134370000Y-106690000D02*
X126680000Y-106690000D01*
X132110000Y-87640000D02*
X137560000Y-93090000D01*
X137560000Y-103500000D02*
X134370000Y-106690000D01*
X137560000Y-93090000D02*
X137560000Y-103500000D01*
%TO.N,Net-(U2-Pad2)*%
X100340000Y-105405000D02*
X102165000Y-105405000D01*
X110270000Y-102520000D02*
X110270000Y-103905000D01*
X102165000Y-105405000D02*
X106200000Y-101370000D01*
X110270000Y-103905000D02*
X111770000Y-105405000D01*
X109120000Y-101370000D02*
X110270000Y-102520000D01*
X106200000Y-101370000D02*
X109120000Y-101370000D01*
%TO.N,Net-(U2-Pad4)*%
X112605000Y-110485000D02*
X113790000Y-111670000D01*
X113060000Y-114250000D02*
X102460000Y-114250000D01*
X111770000Y-110485000D02*
X112605000Y-110485000D01*
X102460000Y-114250000D02*
X101145000Y-115565000D01*
X113790000Y-113520000D02*
X113060000Y-114250000D01*
X113790000Y-111670000D02*
X113790000Y-113520000D01*
X101145000Y-115565000D02*
X100340000Y-115565000D01*
%TO.N,Net-(U2-Pad5)*%
X107040000Y-111670000D02*
X110415000Y-111670000D01*
X105855000Y-110485000D02*
X107040000Y-111670000D01*
X110415000Y-111670000D02*
X111770000Y-113025000D01*
X100340000Y-110485000D02*
X105855000Y-110485000D01*
%TO.N,Net-(U2-Pad3)*%
X111770000Y-107945000D02*
X116285000Y-107945000D01*
X121060000Y-106630000D02*
X122285000Y-105405000D01*
X117600000Y-106630000D02*
X121060000Y-106630000D01*
X116285000Y-107945000D02*
X117600000Y-106630000D01*
X122285000Y-105405000D02*
X123200000Y-105405000D01*
%TD*%
%TA.AperFunction,NonConductor*%
G36*
X118915303Y-88766920D02*
G01*
X118940538Y-88786443D01*
X120465500Y-90311405D01*
X120499526Y-90373717D01*
X120494461Y-90444532D01*
X120451914Y-90501368D01*
X120385394Y-90526179D01*
X120376405Y-90526500D01*
X119409594Y-90526500D01*
X119341473Y-90506498D01*
X119320499Y-90489595D01*
X117997494Y-89166589D01*
X117963468Y-89104277D01*
X117968533Y-89033461D01*
X118011080Y-88976626D01*
X118077600Y-88951815D01*
X118097572Y-88951974D01*
X118109515Y-88953019D01*
X118109525Y-88953019D01*
X118115000Y-88953498D01*
X118343087Y-88933543D01*
X118348400Y-88932119D01*
X118348402Y-88932119D01*
X118558933Y-88875707D01*
X118558935Y-88875706D01*
X118564243Y-88874284D01*
X118569225Y-88871961D01*
X118766762Y-88779849D01*
X118766767Y-88779846D01*
X118771749Y-88777523D01*
X118779170Y-88772327D01*
X118780661Y-88771824D01*
X118781019Y-88771617D01*
X118781061Y-88771689D01*
X118846442Y-88749637D01*
X118915303Y-88766920D01*
G37*
%TD.AperFunction*%
%TA.AperFunction,NonConductor*%
G36*
X115937517Y-88918230D02*
G01*
X115988248Y-88949152D01*
X118050500Y-91011405D01*
X118084526Y-91073717D01*
X118079461Y-91144533D01*
X118036914Y-91201368D01*
X117970394Y-91226179D01*
X117961405Y-91226500D01*
X117569595Y-91226500D01*
X117501474Y-91206498D01*
X117480500Y-91189595D01*
X115457494Y-89166589D01*
X115423468Y-89104277D01*
X115428533Y-89033462D01*
X115471080Y-88976626D01*
X115537600Y-88951815D01*
X115557572Y-88951974D01*
X115569515Y-88953019D01*
X115569525Y-88953019D01*
X115575000Y-88953498D01*
X115803087Y-88933543D01*
X115808398Y-88932120D01*
X115808409Y-88932118D01*
X115866541Y-88916541D01*
X115937517Y-88918230D01*
G37*
%TD.AperFunction*%
%TA.AperFunction,NonConductor*%
G36*
X131863527Y-88293502D02*
G01*
X131884501Y-88310405D01*
X136040500Y-92466405D01*
X136074526Y-92528717D01*
X136069461Y-92599533D01*
X136026914Y-92656368D01*
X135960394Y-92681179D01*
X135951405Y-92681500D01*
X135487094Y-92681500D01*
X135418973Y-92661498D01*
X135397999Y-92644595D01*
X133959903Y-91206498D01*
X132501152Y-89747747D01*
X132493612Y-89739461D01*
X132489500Y-89732982D01*
X132439848Y-89686356D01*
X132437007Y-89683602D01*
X132417270Y-89663865D01*
X132414073Y-89661385D01*
X132405051Y-89653680D01*
X132378600Y-89628841D01*
X132372821Y-89623414D01*
X132365875Y-89619595D01*
X132365872Y-89619593D01*
X132355066Y-89613652D01*
X132338547Y-89602801D01*
X132334242Y-89599462D01*
X132322541Y-89590386D01*
X132315272Y-89587241D01*
X132315268Y-89587238D01*
X132281963Y-89572826D01*
X132271313Y-89567609D01*
X132232560Y-89546305D01*
X132212937Y-89541267D01*
X132194234Y-89534863D01*
X132182920Y-89529967D01*
X132182919Y-89529967D01*
X132175645Y-89526819D01*
X132167822Y-89525580D01*
X132167812Y-89525577D01*
X132131976Y-89519901D01*
X132120356Y-89517495D01*
X132085211Y-89508472D01*
X132085210Y-89508472D01*
X132077530Y-89506500D01*
X132057276Y-89506500D01*
X132037565Y-89504949D01*
X132025386Y-89503020D01*
X132017557Y-89501780D01*
X132009665Y-89502526D01*
X131973539Y-89505941D01*
X131961681Y-89506500D01*
X123469594Y-89506500D01*
X123401473Y-89486498D01*
X123380499Y-89469595D01*
X123074499Y-89163595D01*
X123040473Y-89101283D01*
X123045538Y-89030468D01*
X123088085Y-88973632D01*
X123154605Y-88948821D01*
X123163594Y-88948500D01*
X124043134Y-88948500D01*
X124105316Y-88941745D01*
X124241705Y-88890615D01*
X124358261Y-88803261D01*
X124445615Y-88686705D01*
X124496745Y-88550316D01*
X124503500Y-88488134D01*
X124503500Y-88399500D01*
X124523502Y-88331379D01*
X124577158Y-88284886D01*
X124629500Y-88273500D01*
X131795406Y-88273500D01*
X131863527Y-88293502D01*
G37*
%TD.AperFunction*%
%TA.AperFunction,NonConductor*%
G36*
X131751027Y-90793502D02*
G01*
X131772001Y-90810405D01*
X134377095Y-93415500D01*
X134411121Y-93477812D01*
X134414000Y-93504595D01*
X134414000Y-94143906D01*
X134393998Y-94212027D01*
X134340342Y-94258520D01*
X134270068Y-94268624D01*
X134205488Y-94239130D01*
X134198905Y-94233001D01*
X130954500Y-90988595D01*
X130920474Y-90926283D01*
X130925539Y-90855467D01*
X130968086Y-90798632D01*
X131034606Y-90773821D01*
X131043595Y-90773500D01*
X131682906Y-90773500D01*
X131751027Y-90793502D01*
G37*
%TD.AperFunction*%
%TA.AperFunction,NonConductor*%
G36*
X129413527Y-91243502D02*
G01*
X129434501Y-91260405D01*
X134394617Y-96220521D01*
X134428643Y-96282833D01*
X134430430Y-96326171D01*
X134422904Y-96382956D01*
X134394125Y-96447858D01*
X134334826Y-96486898D01*
X134263834Y-96487681D01*
X134208901Y-96455496D01*
X129192000Y-91438595D01*
X129157974Y-91376283D01*
X129163039Y-91305468D01*
X129205586Y-91248632D01*
X129272106Y-91223821D01*
X129281095Y-91223500D01*
X129345406Y-91223500D01*
X129413527Y-91243502D01*
G37*
%TD.AperFunction*%
%TA.AperFunction,NonConductor*%
G36*
X116913959Y-95825339D02*
G01*
X116959195Y-95877543D01*
X116975151Y-95911762D01*
X116975154Y-95911767D01*
X116977477Y-95916749D01*
X117108802Y-96104300D01*
X117270700Y-96266198D01*
X117275208Y-96269355D01*
X117275211Y-96269357D01*
X117275671Y-96269679D01*
X117458251Y-96397523D01*
X117463233Y-96399846D01*
X117463238Y-96399849D01*
X117660775Y-96491961D01*
X117665757Y-96494284D01*
X117671065Y-96495706D01*
X117671067Y-96495707D01*
X117881598Y-96552119D01*
X117881600Y-96552119D01*
X117886913Y-96553543D01*
X118115000Y-96573498D01*
X118343087Y-96553543D01*
X118348400Y-96552119D01*
X118348402Y-96552119D01*
X118390839Y-96540748D01*
X118461816Y-96542438D01*
X118520611Y-96582232D01*
X118548559Y-96647497D01*
X118536785Y-96717510D01*
X118512545Y-96751550D01*
X117664500Y-97599595D01*
X117602188Y-97633621D01*
X117575405Y-97636500D01*
X114398594Y-97636500D01*
X114330473Y-97616498D01*
X114283980Y-97562842D01*
X114273876Y-97492568D01*
X114303370Y-97427988D01*
X114309499Y-97421405D01*
X115161752Y-96569152D01*
X115224064Y-96535126D01*
X115283459Y-96536541D01*
X115341591Y-96552118D01*
X115341602Y-96552120D01*
X115346913Y-96553543D01*
X115575000Y-96573498D01*
X115803087Y-96553543D01*
X115808400Y-96552119D01*
X115808402Y-96552119D01*
X116018933Y-96495707D01*
X116018935Y-96495706D01*
X116024243Y-96494284D01*
X116029225Y-96491961D01*
X116226762Y-96399849D01*
X116226767Y-96399846D01*
X116231749Y-96397523D01*
X116414329Y-96269679D01*
X116414789Y-96269357D01*
X116414792Y-96269355D01*
X116419300Y-96266198D01*
X116581198Y-96104300D01*
X116712523Y-95916749D01*
X116714846Y-95911767D01*
X116714849Y-95911762D01*
X116730805Y-95877543D01*
X116777722Y-95824258D01*
X116845999Y-95804797D01*
X116913959Y-95825339D01*
G37*
%TD.AperFunction*%
%TA.AperFunction,NonConductor*%
G36*
X93690678Y-96679392D02*
G01*
X93747514Y-96721939D01*
X93771587Y-96781798D01*
X93771751Y-96786158D01*
X93819093Y-97011791D01*
X93821053Y-97016753D01*
X93829265Y-97037547D01*
X93835685Y-97108253D01*
X93801169Y-97172926D01*
X92608595Y-98365500D01*
X92546283Y-98399526D01*
X92475468Y-98394461D01*
X92418632Y-98351914D01*
X92393821Y-98285394D01*
X92393500Y-98276405D01*
X92393500Y-97924594D01*
X92413502Y-97856473D01*
X92430405Y-97835499D01*
X93557551Y-96708353D01*
X93619863Y-96674327D01*
X93690678Y-96679392D01*
G37*
%TD.AperFunction*%
%TA.AperFunction,NonConductor*%
G36*
X107663459Y-88916541D02*
G01*
X107721591Y-88932118D01*
X107721602Y-88932120D01*
X107726913Y-88933543D01*
X107955000Y-88953498D01*
X107960475Y-88953019D01*
X107960486Y-88953019D01*
X107972430Y-88951974D01*
X108042035Y-88965962D01*
X108093027Y-89015361D01*
X108109218Y-89084487D01*
X108085466Y-89151393D01*
X108072507Y-89166589D01*
X98789500Y-98449595D01*
X98727188Y-98483621D01*
X98700405Y-98486500D01*
X96650596Y-98486500D01*
X96582475Y-98466498D01*
X96542877Y-98425866D01*
X96526894Y-98399526D01*
X96476623Y-98316683D01*
X96325523Y-98142555D01*
X96283970Y-98108484D01*
X96151373Y-97999760D01*
X96151367Y-97999756D01*
X96147245Y-97996376D01*
X96115750Y-97978448D01*
X96066445Y-97927368D01*
X96052583Y-97857738D01*
X96078566Y-97791667D01*
X96107716Y-97764427D01*
X96156903Y-97731312D01*
X96229319Y-97682559D01*
X96396135Y-97523424D01*
X96533754Y-97338458D01*
X96638240Y-97132949D01*
X96645909Y-97108253D01*
X96705024Y-96917871D01*
X96706607Y-96912773D01*
X96723388Y-96786158D01*
X96736198Y-96689511D01*
X96736198Y-96689506D01*
X96736898Y-96684226D01*
X96736527Y-96674327D01*
X96731354Y-96536541D01*
X96728249Y-96453842D01*
X96680907Y-96228209D01*
X96596224Y-96013779D01*
X96534319Y-95911762D01*
X96479390Y-95821243D01*
X96476623Y-95816683D01*
X96390940Y-95717942D01*
X96329023Y-95646588D01*
X96329021Y-95646586D01*
X96325523Y-95642555D01*
X96283970Y-95608484D01*
X96151373Y-95499760D01*
X96151367Y-95499756D01*
X96147245Y-95496376D01*
X96115750Y-95478448D01*
X96066445Y-95427368D01*
X96052583Y-95357738D01*
X96078566Y-95291667D01*
X96107716Y-95264427D01*
X96123398Y-95253870D01*
X96229319Y-95182559D01*
X96396135Y-95023424D01*
X96533754Y-94838458D01*
X96536170Y-94833706D01*
X96536175Y-94833698D01*
X96541922Y-94822394D01*
X96590625Y-94770737D01*
X96654238Y-94753500D01*
X101396233Y-94753500D01*
X101407416Y-94754027D01*
X101414909Y-94755702D01*
X101422835Y-94755453D01*
X101422836Y-94755453D01*
X101482986Y-94753562D01*
X101486945Y-94753500D01*
X101514856Y-94753500D01*
X101518791Y-94753003D01*
X101518856Y-94752995D01*
X101530693Y-94752062D01*
X101562951Y-94751048D01*
X101566970Y-94750922D01*
X101574889Y-94750673D01*
X101594343Y-94745021D01*
X101613700Y-94741013D01*
X101625930Y-94739468D01*
X101625931Y-94739468D01*
X101633797Y-94738474D01*
X101641168Y-94735555D01*
X101641170Y-94735555D01*
X101674912Y-94722196D01*
X101686142Y-94718351D01*
X101720983Y-94708229D01*
X101720984Y-94708229D01*
X101728593Y-94706018D01*
X101735412Y-94701985D01*
X101735417Y-94701983D01*
X101746028Y-94695707D01*
X101763776Y-94687012D01*
X101782617Y-94679552D01*
X101818387Y-94653564D01*
X101828307Y-94647048D01*
X101859535Y-94628580D01*
X101859538Y-94628578D01*
X101866362Y-94624542D01*
X101880683Y-94610221D01*
X101895717Y-94597380D01*
X101905694Y-94590131D01*
X101912107Y-94585472D01*
X101940298Y-94551395D01*
X101948288Y-94542616D01*
X107541752Y-88949152D01*
X107604064Y-88915126D01*
X107663459Y-88916541D01*
G37*
%TD.AperFunction*%
%TA.AperFunction,NonConductor*%
G36*
X127771027Y-91813502D02*
G01*
X127792001Y-91830405D01*
X134450577Y-98488982D01*
X134484603Y-98551294D01*
X134481814Y-98615441D01*
X134440893Y-98747227D01*
X134440192Y-98752513D01*
X134440192Y-98752515D01*
X134422904Y-98882956D01*
X134394125Y-98947858D01*
X134334826Y-98986898D01*
X134263833Y-98987681D01*
X134208901Y-98955496D01*
X127262000Y-92008595D01*
X127227974Y-91946283D01*
X127233039Y-91875468D01*
X127275586Y-91818632D01*
X127342106Y-91793821D01*
X127351095Y-91793500D01*
X127702906Y-91793500D01*
X127771027Y-91813502D01*
G37*
%TD.AperFunction*%
%TA.AperFunction,NonConductor*%
G36*
X98124526Y-99773502D02*
G01*
X98171019Y-99827158D01*
X98181123Y-99897432D01*
X98151629Y-99962012D01*
X98145500Y-99968595D01*
X97164500Y-100949595D01*
X97102188Y-100983621D01*
X97075405Y-100986500D01*
X96650596Y-100986500D01*
X96582475Y-100966498D01*
X96542877Y-100925866D01*
X96525519Y-100897260D01*
X96476623Y-100816683D01*
X96389755Y-100716576D01*
X96329023Y-100646588D01*
X96329021Y-100646586D01*
X96325523Y-100642555D01*
X96283970Y-100608484D01*
X96151373Y-100499760D01*
X96151367Y-100499756D01*
X96147245Y-100496376D01*
X96115750Y-100478448D01*
X96066445Y-100427368D01*
X96052583Y-100357738D01*
X96078566Y-100291667D01*
X96107716Y-100264427D01*
X96156903Y-100231312D01*
X96229319Y-100182559D01*
X96396135Y-100023424D01*
X96533754Y-99838458D01*
X96536170Y-99833706D01*
X96536175Y-99833698D01*
X96541922Y-99822394D01*
X96590625Y-99770737D01*
X96654238Y-99753500D01*
X98056405Y-99753500D01*
X98124526Y-99773502D01*
G37*
%TD.AperFunction*%
%TA.AperFunction,NonConductor*%
G36*
X93690678Y-99179392D02*
G01*
X93747514Y-99221939D01*
X93771587Y-99281798D01*
X93771751Y-99286158D01*
X93819093Y-99511791D01*
X93903776Y-99726221D01*
X94023377Y-99923317D01*
X94026874Y-99927347D01*
X94113438Y-100027103D01*
X94174477Y-100097445D01*
X94178608Y-100100832D01*
X94348627Y-100240240D01*
X94348633Y-100240244D01*
X94352755Y-100243624D01*
X94384250Y-100261552D01*
X94433555Y-100312632D01*
X94447417Y-100382262D01*
X94421434Y-100448333D01*
X94392284Y-100475573D01*
X94270681Y-100557441D01*
X94103865Y-100716576D01*
X93966246Y-100901542D01*
X93963830Y-100906293D01*
X93963828Y-100906297D01*
X93933221Y-100966498D01*
X93861760Y-101107051D01*
X93860178Y-101112145D01*
X93860177Y-101112148D01*
X93798115Y-101312020D01*
X93793393Y-101327227D01*
X93792692Y-101332516D01*
X93765657Y-101536498D01*
X93763102Y-101555774D01*
X93763302Y-101561103D01*
X93763302Y-101561105D01*
X93765862Y-101629293D01*
X93771751Y-101786158D01*
X93819093Y-102011791D01*
X93839798Y-102064220D01*
X93846216Y-102134923D01*
X93813389Y-102197875D01*
X93751739Y-102233086D01*
X93722606Y-102236500D01*
X93658763Y-102236500D01*
X93647579Y-102235973D01*
X93640091Y-102234299D01*
X93632168Y-102234548D01*
X93572033Y-102236438D01*
X93568075Y-102236500D01*
X93540144Y-102236500D01*
X93536229Y-102236995D01*
X93536225Y-102236995D01*
X93536167Y-102237003D01*
X93536138Y-102237006D01*
X93524296Y-102237939D01*
X93480110Y-102239327D01*
X93462744Y-102244372D01*
X93460658Y-102244978D01*
X93441306Y-102248986D01*
X93434235Y-102249880D01*
X93421203Y-102251526D01*
X93413834Y-102254443D01*
X93413832Y-102254444D01*
X93380097Y-102267800D01*
X93368869Y-102271645D01*
X93326407Y-102283982D01*
X93319585Y-102288016D01*
X93319579Y-102288019D01*
X93308968Y-102294294D01*
X93291218Y-102302990D01*
X93279756Y-102307528D01*
X93279751Y-102307531D01*
X93272383Y-102310448D01*
X93265968Y-102315109D01*
X93236625Y-102336427D01*
X93226707Y-102342943D01*
X93226075Y-102343317D01*
X93188637Y-102365458D01*
X93174313Y-102379782D01*
X93159281Y-102392621D01*
X93142893Y-102404528D01*
X93133604Y-102415757D01*
X93114712Y-102438593D01*
X93106722Y-102447373D01*
X93058595Y-102495500D01*
X92996283Y-102529526D01*
X92925468Y-102524461D01*
X92868632Y-102481914D01*
X92843821Y-102415394D01*
X92843500Y-102406405D01*
X92843500Y-99974594D01*
X92863502Y-99906473D01*
X92880405Y-99885499D01*
X93557551Y-99208353D01*
X93619863Y-99174327D01*
X93690678Y-99179392D01*
G37*
%TD.AperFunction*%
%TA.AperFunction,NonConductor*%
G36*
X109460367Y-102608508D02*
G01*
X109475563Y-102621467D01*
X109599595Y-102745499D01*
X109633621Y-102807811D01*
X109636500Y-102834594D01*
X109636500Y-103236404D01*
X109616498Y-103304525D01*
X109562842Y-103351018D01*
X109492568Y-103361122D01*
X109427988Y-103331628D01*
X109421405Y-103325499D01*
X109289834Y-103193928D01*
X109255808Y-103131616D01*
X109255054Y-103093219D01*
X109253543Y-103093087D01*
X109273019Y-102870475D01*
X109273498Y-102865000D01*
X109260947Y-102721543D01*
X109274936Y-102651939D01*
X109324335Y-102600947D01*
X109393461Y-102584756D01*
X109460367Y-102608508D01*
G37*
%TD.AperFunction*%
%TA.AperFunction,NonConductor*%
G36*
X93705651Y-103744419D02*
G01*
X93762487Y-103786966D01*
X93787298Y-103853486D01*
X93786527Y-103879030D01*
X93767737Y-104020805D01*
X93763102Y-104055774D01*
X93763302Y-104061103D01*
X93763302Y-104061105D01*
X93765467Y-104118767D01*
X93771751Y-104286158D01*
X93819093Y-104511791D01*
X93836577Y-104556064D01*
X93842995Y-104626767D01*
X93810168Y-104689719D01*
X93748518Y-104724930D01*
X93723345Y-104728282D01*
X93698030Y-104729078D01*
X93690110Y-104729327D01*
X93675746Y-104733500D01*
X93670658Y-104734978D01*
X93651306Y-104738986D01*
X93644235Y-104739880D01*
X93631203Y-104741526D01*
X93623834Y-104744443D01*
X93623832Y-104744444D01*
X93590097Y-104757800D01*
X93578869Y-104761645D01*
X93536407Y-104773982D01*
X93529584Y-104778017D01*
X93529582Y-104778018D01*
X93518972Y-104784293D01*
X93501224Y-104792988D01*
X93482383Y-104800448D01*
X93481858Y-104799124D01*
X93420871Y-104812574D01*
X93354280Y-104787954D01*
X93311571Y-104731240D01*
X93303500Y-104686870D01*
X93303500Y-104094594D01*
X93323502Y-104026473D01*
X93340405Y-104005499D01*
X93572524Y-103773380D01*
X93634836Y-103739354D01*
X93705651Y-103744419D01*
G37*
%TD.AperFunction*%
%TA.AperFunction,NonConductor*%
G36*
X110132012Y-104663370D02*
G01*
X110138595Y-104669499D01*
X110460848Y-104991752D01*
X110494874Y-105054064D01*
X110493459Y-105113460D01*
X110481453Y-105158265D01*
X110444501Y-105218887D01*
X110380640Y-105249908D01*
X110310146Y-105241478D01*
X110270651Y-105214747D01*
X110169365Y-105113460D01*
X109960404Y-104904499D01*
X109926379Y-104842187D01*
X109923500Y-104815404D01*
X109923500Y-104758594D01*
X109943502Y-104690473D01*
X109997158Y-104643980D01*
X110067432Y-104633876D01*
X110132012Y-104663370D01*
G37*
%TD.AperFunction*%
%TA.AperFunction,NonConductor*%
G36*
X117996538Y-105258532D02*
G01*
X118053374Y-105301079D01*
X118078185Y-105367599D01*
X118078026Y-105387570D01*
X118076981Y-105399514D01*
X118076981Y-105399525D01*
X118076502Y-105405000D01*
X118096457Y-105633087D01*
X118097881Y-105638400D01*
X118097881Y-105638402D01*
X118151334Y-105837889D01*
X118149644Y-105908865D01*
X118109850Y-105967661D01*
X118044586Y-105995609D01*
X118029627Y-105996500D01*
X117678767Y-105996500D01*
X117667584Y-105995973D01*
X117660091Y-105994298D01*
X117652165Y-105994547D01*
X117652164Y-105994547D01*
X117592001Y-105996438D01*
X117588043Y-105996500D01*
X117560144Y-105996500D01*
X117556154Y-105997004D01*
X117544320Y-105997936D01*
X117500111Y-105999326D01*
X117492497Y-106001538D01*
X117492492Y-106001539D01*
X117480659Y-106004977D01*
X117461167Y-106009004D01*
X117460720Y-106009060D01*
X117390641Y-105997681D01*
X117337839Y-105950221D01*
X117319078Y-105881748D01*
X117340314Y-105814002D01*
X117355962Y-105794942D01*
X117863411Y-105287493D01*
X117925723Y-105253467D01*
X117996538Y-105258532D01*
G37*
%TD.AperFunction*%
%TA.AperFunction,NonConductor*%
G36*
X121993959Y-95825339D02*
G01*
X122039195Y-95877543D01*
X122055151Y-95911762D01*
X122055154Y-95911767D01*
X122057477Y-95916749D01*
X122188802Y-96104300D01*
X122350700Y-96266198D01*
X122355208Y-96269355D01*
X122355211Y-96269357D01*
X122507771Y-96376181D01*
X122552099Y-96431638D01*
X122561500Y-96479394D01*
X122561500Y-98745406D01*
X122541498Y-98813527D01*
X122524595Y-98834501D01*
X119803248Y-101555848D01*
X119740936Y-101589874D01*
X119681541Y-101588459D01*
X119623409Y-101572882D01*
X119623398Y-101572880D01*
X119618087Y-101571457D01*
X119390000Y-101551502D01*
X119161913Y-101571457D01*
X119156600Y-101572881D01*
X119156598Y-101572881D01*
X118946067Y-101629293D01*
X118946065Y-101629294D01*
X118940757Y-101630716D01*
X118935776Y-101633039D01*
X118935775Y-101633039D01*
X118738238Y-101725151D01*
X118738233Y-101725154D01*
X118733251Y-101727477D01*
X118657060Y-101780827D01*
X118550211Y-101855643D01*
X118550208Y-101855645D01*
X118545700Y-101858802D01*
X118383802Y-102020700D01*
X118380645Y-102025208D01*
X118380643Y-102025211D01*
X118325902Y-102103389D01*
X118252477Y-102208251D01*
X118250154Y-102213233D01*
X118250151Y-102213238D01*
X118166503Y-102392624D01*
X118155716Y-102415757D01*
X118154294Y-102421065D01*
X118154293Y-102421067D01*
X118106094Y-102600947D01*
X118096457Y-102636913D01*
X118076502Y-102865000D01*
X118096457Y-103093087D01*
X118097880Y-103098398D01*
X118097882Y-103098409D01*
X118113459Y-103156541D01*
X118111770Y-103227517D01*
X118080848Y-103278248D01*
X116715115Y-104643980D01*
X115359500Y-105999595D01*
X115297188Y-106033621D01*
X115270405Y-106036500D01*
X113117076Y-106036500D01*
X113048955Y-106016498D01*
X113002462Y-105962842D01*
X112992358Y-105892568D01*
X113000687Y-105864618D01*
X113000078Y-105864396D01*
X113001957Y-105859232D01*
X113004284Y-105854243D01*
X113063543Y-105633087D01*
X113083498Y-105405000D01*
X113063543Y-105176913D01*
X113046541Y-105113460D01*
X113005707Y-104961067D01*
X113005706Y-104961065D01*
X113004284Y-104955757D01*
X113001961Y-104950775D01*
X112909849Y-104753238D01*
X112909846Y-104753233D01*
X112907523Y-104748251D01*
X112776198Y-104560700D01*
X112614300Y-104398802D01*
X112609789Y-104395643D01*
X112605576Y-104392108D01*
X112606527Y-104390974D01*
X112566529Y-104340929D01*
X112559224Y-104270310D01*
X112591258Y-104206951D01*
X112652462Y-104170970D01*
X112669517Y-104167918D01*
X112680316Y-104166745D01*
X112816705Y-104115615D01*
X112933261Y-104028261D01*
X113020615Y-103911705D01*
X113071745Y-103775316D01*
X113078500Y-103713134D01*
X113078500Y-102016866D01*
X113071745Y-101954684D01*
X113020615Y-101818295D01*
X112933261Y-101701739D01*
X112816705Y-101614385D01*
X112680316Y-101563255D01*
X112618134Y-101556500D01*
X111409595Y-101556500D01*
X111341474Y-101536498D01*
X111320500Y-101519595D01*
X110328652Y-100527747D01*
X110321112Y-100519461D01*
X110317000Y-100512982D01*
X110267348Y-100466356D01*
X110264507Y-100463602D01*
X110244770Y-100443865D01*
X110241573Y-100441385D01*
X110232551Y-100433680D01*
X110227235Y-100428688D01*
X110200321Y-100403414D01*
X110193375Y-100399595D01*
X110193372Y-100399593D01*
X110182566Y-100393652D01*
X110166047Y-100382801D01*
X110165352Y-100382262D01*
X110150041Y-100370386D01*
X110142772Y-100367241D01*
X110142768Y-100367238D01*
X110109463Y-100352826D01*
X110098813Y-100347609D01*
X110060060Y-100326305D01*
X110040437Y-100321267D01*
X110021734Y-100314863D01*
X110010420Y-100309967D01*
X110010419Y-100309967D01*
X110003145Y-100306819D01*
X109995322Y-100305580D01*
X109995312Y-100305577D01*
X109959476Y-100299901D01*
X109947856Y-100297495D01*
X109912711Y-100288472D01*
X109912710Y-100288472D01*
X109905030Y-100286500D01*
X109884776Y-100286500D01*
X109865065Y-100284949D01*
X109852886Y-100283020D01*
X109845057Y-100281780D01*
X109815786Y-100284547D01*
X109801039Y-100285941D01*
X109789181Y-100286500D01*
X105728767Y-100286500D01*
X105717584Y-100285973D01*
X105710091Y-100284298D01*
X105702165Y-100284547D01*
X105702164Y-100284547D01*
X105642014Y-100286438D01*
X105638055Y-100286500D01*
X105610144Y-100286500D01*
X105606210Y-100286997D01*
X105606209Y-100286997D01*
X105606144Y-100287005D01*
X105594307Y-100287938D01*
X105562490Y-100288938D01*
X105558029Y-100289078D01*
X105550110Y-100289327D01*
X105532454Y-100294456D01*
X105530658Y-100294978D01*
X105511306Y-100298986D01*
X105504235Y-100299880D01*
X105491203Y-100301526D01*
X105483834Y-100304443D01*
X105483832Y-100304444D01*
X105450097Y-100317800D01*
X105438869Y-100321645D01*
X105396407Y-100333982D01*
X105389584Y-100338017D01*
X105389582Y-100338018D01*
X105378972Y-100344293D01*
X105361224Y-100352988D01*
X105342383Y-100360448D01*
X105335967Y-100365110D01*
X105335966Y-100365110D01*
X105306613Y-100386436D01*
X105296693Y-100392952D01*
X105265465Y-100411420D01*
X105265462Y-100411422D01*
X105258638Y-100415458D01*
X105244317Y-100429779D01*
X105229284Y-100442619D01*
X105212893Y-100454528D01*
X105204217Y-100465016D01*
X105184702Y-100488605D01*
X105176712Y-100497384D01*
X102244500Y-103429595D01*
X102182188Y-103463621D01*
X102155405Y-103466500D01*
X101774500Y-103466500D01*
X101706379Y-103446498D01*
X101659886Y-103392842D01*
X101648500Y-103340500D01*
X101648500Y-102504594D01*
X101668502Y-102436473D01*
X101685405Y-102415499D01*
X105160499Y-98940405D01*
X105222811Y-98906379D01*
X105249594Y-98903500D01*
X117811233Y-98903500D01*
X117822416Y-98904027D01*
X117829909Y-98905702D01*
X117837835Y-98905453D01*
X117837836Y-98905453D01*
X117897986Y-98903562D01*
X117901945Y-98903500D01*
X117929856Y-98903500D01*
X117933791Y-98903003D01*
X117933856Y-98902995D01*
X117945693Y-98902062D01*
X117977951Y-98901048D01*
X117981970Y-98900922D01*
X117989889Y-98900673D01*
X118009343Y-98895021D01*
X118028700Y-98891013D01*
X118040930Y-98889468D01*
X118040931Y-98889468D01*
X118048797Y-98888474D01*
X118056168Y-98885555D01*
X118056170Y-98885555D01*
X118089912Y-98872196D01*
X118101142Y-98868351D01*
X118135983Y-98858229D01*
X118135984Y-98858229D01*
X118143593Y-98856018D01*
X118150412Y-98851985D01*
X118150417Y-98851983D01*
X118161028Y-98845707D01*
X118178776Y-98837012D01*
X118197617Y-98829552D01*
X118233387Y-98803564D01*
X118243307Y-98797048D01*
X118274535Y-98778580D01*
X118274538Y-98778578D01*
X118281362Y-98774542D01*
X118295683Y-98760221D01*
X118310717Y-98747380D01*
X118320694Y-98740131D01*
X118327107Y-98735472D01*
X118355298Y-98701395D01*
X118363288Y-98692616D01*
X120454744Y-96601160D01*
X120517056Y-96567134D01*
X120554820Y-96564734D01*
X120649525Y-96573019D01*
X120655000Y-96573498D01*
X120883087Y-96553543D01*
X120888400Y-96552119D01*
X120888402Y-96552119D01*
X121098933Y-96495707D01*
X121098935Y-96495706D01*
X121104243Y-96494284D01*
X121109225Y-96491961D01*
X121306762Y-96399849D01*
X121306767Y-96399846D01*
X121311749Y-96397523D01*
X121494329Y-96269679D01*
X121494789Y-96269357D01*
X121494792Y-96269355D01*
X121499300Y-96266198D01*
X121661198Y-96104300D01*
X121792523Y-95916749D01*
X121794846Y-95911767D01*
X121794849Y-95911762D01*
X121810805Y-95877543D01*
X121857722Y-95824258D01*
X121925999Y-95804797D01*
X121993959Y-95825339D01*
G37*
%TD.AperFunction*%
%TA.AperFunction,NonConductor*%
G36*
X111833959Y-88205339D02*
G01*
X111879195Y-88257543D01*
X111895151Y-88291762D01*
X111895154Y-88291767D01*
X111897477Y-88296749D01*
X112028802Y-88484300D01*
X112190700Y-88646198D01*
X112195208Y-88649355D01*
X112195211Y-88649357D01*
X112236542Y-88678297D01*
X112378251Y-88777523D01*
X112383233Y-88779846D01*
X112383238Y-88779849D01*
X112580775Y-88871961D01*
X112585757Y-88874284D01*
X112591065Y-88875706D01*
X112591067Y-88875707D01*
X112801598Y-88932119D01*
X112801600Y-88932119D01*
X112806913Y-88933543D01*
X113035000Y-88953498D01*
X113263087Y-88933543D01*
X113268398Y-88932120D01*
X113268409Y-88932118D01*
X113326541Y-88916541D01*
X113397517Y-88918230D01*
X113448248Y-88949152D01*
X116751343Y-92252247D01*
X116758887Y-92260537D01*
X116763000Y-92267018D01*
X116768777Y-92272443D01*
X116812667Y-92313658D01*
X116815509Y-92316413D01*
X116835230Y-92336134D01*
X116838425Y-92338612D01*
X116847447Y-92346318D01*
X116879679Y-92376586D01*
X116886628Y-92380406D01*
X116897432Y-92386346D01*
X116913956Y-92397199D01*
X116929959Y-92409613D01*
X116970543Y-92427176D01*
X116981173Y-92432383D01*
X117019940Y-92453695D01*
X117027617Y-92455666D01*
X117027622Y-92455668D01*
X117039558Y-92458732D01*
X117058266Y-92465137D01*
X117076855Y-92473181D01*
X117084683Y-92474421D01*
X117084690Y-92474423D01*
X117120524Y-92480099D01*
X117132144Y-92482505D01*
X117167289Y-92491528D01*
X117174970Y-92493500D01*
X117195224Y-92493500D01*
X117214934Y-92495051D01*
X117234943Y-92498220D01*
X117242835Y-92497474D01*
X117278961Y-92494059D01*
X117290819Y-92493500D01*
X125902906Y-92493500D01*
X125971027Y-92513502D01*
X125992001Y-92530405D01*
X134450577Y-100988981D01*
X134484603Y-101051293D01*
X134481814Y-101115441D01*
X134440893Y-101247227D01*
X134410602Y-101475774D01*
X134419251Y-101706158D01*
X134420346Y-101711377D01*
X134434918Y-101780827D01*
X134466593Y-101931791D01*
X134468551Y-101936750D01*
X134468552Y-101936752D01*
X134524002Y-102077158D01*
X134551276Y-102146221D01*
X134554043Y-102150780D01*
X134554044Y-102150783D01*
X134634872Y-102283982D01*
X134670877Y-102343317D01*
X134674374Y-102347347D01*
X134810826Y-102504594D01*
X134821977Y-102517445D01*
X134826108Y-102520832D01*
X134996127Y-102660240D01*
X134996133Y-102660244D01*
X135000255Y-102663624D01*
X135004891Y-102666263D01*
X135004894Y-102666265D01*
X135061360Y-102698407D01*
X135200614Y-102777675D01*
X135417325Y-102856337D01*
X135422574Y-102857286D01*
X135422577Y-102857287D01*
X135640108Y-102896623D01*
X135640115Y-102896624D01*
X135644192Y-102897361D01*
X135661914Y-102898197D01*
X135666856Y-102898430D01*
X135666863Y-102898430D01*
X135668344Y-102898500D01*
X136080390Y-102898500D01*
X136147309Y-102892822D01*
X136246909Y-102884371D01*
X136246913Y-102884370D01*
X136252220Y-102883920D01*
X136257375Y-102882582D01*
X136257381Y-102882581D01*
X136470203Y-102827343D01*
X136470207Y-102827342D01*
X136475372Y-102826001D01*
X136480238Y-102823809D01*
X136480241Y-102823808D01*
X136680702Y-102733507D01*
X136685575Y-102731312D01*
X136730132Y-102701314D01*
X136797812Y-102679863D01*
X136866344Y-102698407D01*
X136913971Y-102751058D01*
X136926500Y-102805834D01*
X136926500Y-103185405D01*
X136906498Y-103253526D01*
X136889595Y-103274500D01*
X134144500Y-106019595D01*
X134082188Y-106053621D01*
X134055405Y-106056500D01*
X132157750Y-106056500D01*
X132089629Y-106036498D01*
X132043136Y-105982842D01*
X132033032Y-105912568D01*
X132043556Y-105877249D01*
X132051958Y-105859232D01*
X132051961Y-105859225D01*
X132054284Y-105854243D01*
X132113543Y-105633087D01*
X132133498Y-105405000D01*
X132113543Y-105176913D01*
X132096541Y-105113460D01*
X132055707Y-104961067D01*
X132055706Y-104961065D01*
X132054284Y-104955757D01*
X132051961Y-104950775D01*
X131959849Y-104753238D01*
X131959846Y-104753233D01*
X131957523Y-104748251D01*
X131826198Y-104560700D01*
X131664300Y-104398802D01*
X131659792Y-104395645D01*
X131659789Y-104395643D01*
X131581611Y-104340902D01*
X131476749Y-104267477D01*
X131471767Y-104265154D01*
X131471762Y-104265151D01*
X131437543Y-104249195D01*
X131384258Y-104202278D01*
X131364797Y-104134001D01*
X131385339Y-104066041D01*
X131437543Y-104020805D01*
X131471762Y-104004849D01*
X131471767Y-104004846D01*
X131476749Y-104002523D01*
X131636824Y-103890437D01*
X131659789Y-103874357D01*
X131659792Y-103874355D01*
X131664300Y-103871198D01*
X131826198Y-103709300D01*
X131878591Y-103634476D01*
X131930896Y-103559776D01*
X131957523Y-103521749D01*
X131959846Y-103516767D01*
X131959849Y-103516762D01*
X132051961Y-103319225D01*
X132051961Y-103319224D01*
X132054284Y-103314243D01*
X132067039Y-103266643D01*
X132112119Y-103098402D01*
X132112119Y-103098400D01*
X132113543Y-103093087D01*
X132133498Y-102865000D01*
X132113543Y-102636913D01*
X132103906Y-102600947D01*
X132055707Y-102421067D01*
X132055706Y-102421065D01*
X132054284Y-102415757D01*
X132043497Y-102392624D01*
X131959849Y-102213238D01*
X131959846Y-102213233D01*
X131957523Y-102208251D01*
X131884098Y-102103389D01*
X131829357Y-102025211D01*
X131829355Y-102025208D01*
X131826198Y-102020700D01*
X131664300Y-101858802D01*
X131659792Y-101855645D01*
X131659789Y-101855643D01*
X131552940Y-101780827D01*
X131476749Y-101727477D01*
X131471767Y-101725154D01*
X131471762Y-101725151D01*
X131274225Y-101633039D01*
X131274224Y-101633039D01*
X131269243Y-101630716D01*
X131263935Y-101629294D01*
X131263933Y-101629293D01*
X131053402Y-101572881D01*
X131053400Y-101572881D01*
X131048087Y-101571457D01*
X130820000Y-101551502D01*
X130591913Y-101571457D01*
X130586600Y-101572881D01*
X130586598Y-101572881D01*
X130376067Y-101629293D01*
X130376065Y-101629294D01*
X130370757Y-101630716D01*
X130365776Y-101633039D01*
X130365775Y-101633039D01*
X130168238Y-101725151D01*
X130168233Y-101725154D01*
X130163251Y-101727477D01*
X130087060Y-101780827D01*
X129980211Y-101855643D01*
X129980208Y-101855645D01*
X129975700Y-101858802D01*
X129813802Y-102020700D01*
X129810645Y-102025208D01*
X129810643Y-102025211D01*
X129703819Y-102177771D01*
X129648362Y-102222099D01*
X129600606Y-102231500D01*
X127314594Y-102231500D01*
X127246473Y-102211498D01*
X127225499Y-102194595D01*
X123865405Y-98834500D01*
X123831379Y-98772188D01*
X123828500Y-98745405D01*
X123828500Y-96479394D01*
X123848502Y-96411273D01*
X123882229Y-96376181D01*
X124034789Y-96269357D01*
X124034792Y-96269355D01*
X124039300Y-96266198D01*
X124201198Y-96104300D01*
X124332523Y-95916749D01*
X124334846Y-95911767D01*
X124334849Y-95911762D01*
X124426961Y-95714225D01*
X124426961Y-95714224D01*
X124429284Y-95709243D01*
X124432444Y-95697452D01*
X124487119Y-95493402D01*
X124487119Y-95493400D01*
X124488543Y-95488087D01*
X124508498Y-95260000D01*
X124488543Y-95031913D01*
X124487119Y-95026598D01*
X124430707Y-94816067D01*
X124430706Y-94816065D01*
X124429284Y-94810757D01*
X124426961Y-94805775D01*
X124334849Y-94608238D01*
X124334846Y-94608233D01*
X124332523Y-94603251D01*
X124201198Y-94415700D01*
X124039300Y-94253802D01*
X124034792Y-94250645D01*
X124034789Y-94250643D01*
X123956611Y-94195902D01*
X123851749Y-94122477D01*
X123846767Y-94120154D01*
X123846762Y-94120151D01*
X123649225Y-94028039D01*
X123649224Y-94028039D01*
X123644243Y-94025716D01*
X123638935Y-94024294D01*
X123638933Y-94024293D01*
X123428402Y-93967881D01*
X123428400Y-93967881D01*
X123423087Y-93966457D01*
X123195000Y-93946502D01*
X122966913Y-93966457D01*
X122961600Y-93967881D01*
X122961598Y-93967881D01*
X122751067Y-94024293D01*
X122751065Y-94024294D01*
X122745757Y-94025716D01*
X122740776Y-94028039D01*
X122740775Y-94028039D01*
X122543238Y-94120151D01*
X122543233Y-94120154D01*
X122538251Y-94122477D01*
X122433389Y-94195902D01*
X122355211Y-94250643D01*
X122355208Y-94250645D01*
X122350700Y-94253802D01*
X122188802Y-94415700D01*
X122057477Y-94603251D01*
X122055154Y-94608233D01*
X122055151Y-94608238D01*
X122039195Y-94642457D01*
X121992278Y-94695742D01*
X121924001Y-94715203D01*
X121856041Y-94694661D01*
X121810805Y-94642457D01*
X121794849Y-94608238D01*
X121794846Y-94608233D01*
X121792523Y-94603251D01*
X121661198Y-94415700D01*
X121499300Y-94253802D01*
X121494792Y-94250645D01*
X121494789Y-94250643D01*
X121416611Y-94195902D01*
X121311749Y-94122477D01*
X121306767Y-94120154D01*
X121306762Y-94120151D01*
X121109225Y-94028039D01*
X121109224Y-94028039D01*
X121104243Y-94025716D01*
X121098935Y-94024294D01*
X121098933Y-94024293D01*
X120888402Y-93967881D01*
X120888400Y-93967881D01*
X120883087Y-93966457D01*
X120655000Y-93946502D01*
X120426913Y-93966457D01*
X120421600Y-93967881D01*
X120421598Y-93967881D01*
X120211067Y-94024293D01*
X120211065Y-94024294D01*
X120205757Y-94025716D01*
X120200776Y-94028039D01*
X120200775Y-94028039D01*
X120003238Y-94120151D01*
X120003233Y-94120154D01*
X119998251Y-94122477D01*
X119893389Y-94195902D01*
X119815211Y-94250643D01*
X119815208Y-94250645D01*
X119810700Y-94253802D01*
X119648802Y-94415700D01*
X119517477Y-94603251D01*
X119515154Y-94608233D01*
X119515151Y-94608238D01*
X119499195Y-94642457D01*
X119452278Y-94695742D01*
X119384001Y-94715203D01*
X119316041Y-94694661D01*
X119270805Y-94642457D01*
X119254849Y-94608238D01*
X119254846Y-94608233D01*
X119252523Y-94603251D01*
X119121198Y-94415700D01*
X118959300Y-94253802D01*
X118954792Y-94250645D01*
X118954789Y-94250643D01*
X118876611Y-94195902D01*
X118771749Y-94122477D01*
X118766767Y-94120154D01*
X118766762Y-94120151D01*
X118569225Y-94028039D01*
X118569224Y-94028039D01*
X118564243Y-94025716D01*
X118558935Y-94024294D01*
X118558933Y-94024293D01*
X118348402Y-93967881D01*
X118348400Y-93967881D01*
X118343087Y-93966457D01*
X118115000Y-93946502D01*
X117886913Y-93966457D01*
X117881608Y-93967879D01*
X117881594Y-93967881D01*
X117823461Y-93983459D01*
X117752484Y-93981771D01*
X117701752Y-93950848D01*
X117368647Y-93617742D01*
X117361113Y-93609463D01*
X117357000Y-93602982D01*
X117307348Y-93556356D01*
X117304507Y-93553602D01*
X117284770Y-93533865D01*
X117281573Y-93531385D01*
X117272551Y-93523680D01*
X117259122Y-93511069D01*
X117240321Y-93493414D01*
X117233375Y-93489595D01*
X117233372Y-93489593D01*
X117222566Y-93483652D01*
X117206047Y-93472801D01*
X117203725Y-93471000D01*
X117190041Y-93460386D01*
X117182772Y-93457241D01*
X117182768Y-93457238D01*
X117149463Y-93442826D01*
X117138813Y-93437609D01*
X117100060Y-93416305D01*
X117080437Y-93411267D01*
X117061734Y-93404863D01*
X117050420Y-93399967D01*
X117050419Y-93399967D01*
X117043145Y-93396819D01*
X117035322Y-93395580D01*
X117035312Y-93395577D01*
X116999476Y-93389901D01*
X116987856Y-93387495D01*
X116952711Y-93378472D01*
X116952710Y-93378472D01*
X116945030Y-93376500D01*
X116924776Y-93376500D01*
X116905065Y-93374949D01*
X116892886Y-93373020D01*
X116885057Y-93371780D01*
X116855786Y-93374547D01*
X116841039Y-93375941D01*
X116829181Y-93376500D01*
X114848767Y-93376500D01*
X114837584Y-93375973D01*
X114830091Y-93374298D01*
X114822165Y-93374547D01*
X114822164Y-93374547D01*
X114762014Y-93376438D01*
X114758055Y-93376500D01*
X114730144Y-93376500D01*
X114726210Y-93376997D01*
X114726209Y-93376997D01*
X114726144Y-93377005D01*
X114714307Y-93377938D01*
X114682049Y-93378952D01*
X114678030Y-93379078D01*
X114670111Y-93379327D01*
X114650657Y-93384979D01*
X114631300Y-93388987D01*
X114619070Y-93390532D01*
X114619069Y-93390532D01*
X114611203Y-93391526D01*
X114603832Y-93394445D01*
X114603830Y-93394445D01*
X114570088Y-93407804D01*
X114558858Y-93411649D01*
X114524017Y-93421771D01*
X114524016Y-93421771D01*
X114516407Y-93423982D01*
X114509588Y-93428015D01*
X114509583Y-93428017D01*
X114498972Y-93434293D01*
X114481224Y-93442988D01*
X114462383Y-93450448D01*
X114455967Y-93455110D01*
X114455966Y-93455110D01*
X114426613Y-93476436D01*
X114416693Y-93482952D01*
X114385465Y-93501420D01*
X114385462Y-93501422D01*
X114378638Y-93505458D01*
X114364317Y-93519779D01*
X114349284Y-93532619D01*
X114332893Y-93544528D01*
X114306516Y-93576413D01*
X114304712Y-93578593D01*
X114296722Y-93587374D01*
X113857742Y-94026353D01*
X113849463Y-94033887D01*
X113842982Y-94038000D01*
X113837554Y-94043780D01*
X113837553Y-94043781D01*
X113804192Y-94079307D01*
X113742979Y-94115273D01*
X113672039Y-94112434D01*
X113659092Y-94107249D01*
X113489225Y-94028039D01*
X113489224Y-94028039D01*
X113484243Y-94025716D01*
X113478935Y-94024294D01*
X113478933Y-94024293D01*
X113268402Y-93967881D01*
X113268400Y-93967881D01*
X113263087Y-93966457D01*
X113035000Y-93946502D01*
X112806913Y-93966457D01*
X112801600Y-93967881D01*
X112801598Y-93967881D01*
X112591067Y-94024293D01*
X112591065Y-94024294D01*
X112585757Y-94025716D01*
X112580776Y-94028039D01*
X112580775Y-94028039D01*
X112383238Y-94120151D01*
X112383233Y-94120154D01*
X112378251Y-94122477D01*
X112273389Y-94195902D01*
X112195211Y-94250643D01*
X112195208Y-94250645D01*
X112190700Y-94253802D01*
X112028802Y-94415700D01*
X111897477Y-94603251D01*
X111895154Y-94608233D01*
X111895151Y-94608238D01*
X111879195Y-94642457D01*
X111832278Y-94695742D01*
X111764001Y-94715203D01*
X111696041Y-94694661D01*
X111650805Y-94642457D01*
X111634849Y-94608238D01*
X111634846Y-94608233D01*
X111632523Y-94603251D01*
X111501198Y-94415700D01*
X111339300Y-94253802D01*
X111334792Y-94250645D01*
X111334789Y-94250643D01*
X111256611Y-94195902D01*
X111151749Y-94122477D01*
X111146767Y-94120154D01*
X111146762Y-94120151D01*
X110949225Y-94028039D01*
X110949224Y-94028039D01*
X110944243Y-94025716D01*
X110938935Y-94024294D01*
X110938933Y-94024293D01*
X110728402Y-93967881D01*
X110728400Y-93967881D01*
X110723087Y-93966457D01*
X110495000Y-93946502D01*
X110266913Y-93966457D01*
X110261600Y-93967881D01*
X110261598Y-93967881D01*
X110051067Y-94024293D01*
X110051065Y-94024294D01*
X110045757Y-94025716D01*
X110040776Y-94028039D01*
X110040775Y-94028039D01*
X109843238Y-94120151D01*
X109843233Y-94120154D01*
X109838251Y-94122477D01*
X109733389Y-94195902D01*
X109655211Y-94250643D01*
X109655208Y-94250645D01*
X109650700Y-94253802D01*
X109488802Y-94415700D01*
X109485645Y-94420208D01*
X109485643Y-94420211D01*
X109378819Y-94572771D01*
X109323362Y-94617099D01*
X109275606Y-94626500D01*
X109174394Y-94626500D01*
X109106273Y-94606498D01*
X109071181Y-94572771D01*
X108964357Y-94420211D01*
X108964355Y-94420208D01*
X108961198Y-94415700D01*
X108799300Y-94253802D01*
X108794792Y-94250645D01*
X108794789Y-94250643D01*
X108716611Y-94195902D01*
X108611749Y-94122477D01*
X108606767Y-94120154D01*
X108606762Y-94120151D01*
X108409225Y-94028039D01*
X108409224Y-94028039D01*
X108404243Y-94025716D01*
X108398935Y-94024294D01*
X108398933Y-94024293D01*
X108188402Y-93967881D01*
X108188400Y-93967881D01*
X108183087Y-93966457D01*
X107955000Y-93946502D01*
X107726913Y-93966457D01*
X107721600Y-93967881D01*
X107721598Y-93967881D01*
X107511067Y-94024293D01*
X107511065Y-94024294D01*
X107505757Y-94025716D01*
X107500776Y-94028039D01*
X107500775Y-94028039D01*
X107303238Y-94120151D01*
X107303233Y-94120154D01*
X107298251Y-94122477D01*
X107193389Y-94195902D01*
X107115211Y-94250643D01*
X107115208Y-94250645D01*
X107110700Y-94253802D01*
X106948802Y-94415700D01*
X106945645Y-94420208D01*
X106945643Y-94420211D01*
X106838819Y-94572771D01*
X106783362Y-94617099D01*
X106735606Y-94626500D01*
X104708594Y-94626500D01*
X104640473Y-94606498D01*
X104593980Y-94552842D01*
X104583876Y-94482568D01*
X104613370Y-94417988D01*
X104619499Y-94411405D01*
X108556643Y-90474261D01*
X108618955Y-90440235D01*
X108689770Y-90445300D01*
X108746606Y-90487847D01*
X108771417Y-90554367D01*
X108771738Y-90563356D01*
X108771738Y-93471000D01*
X113848262Y-93471000D01*
X113848262Y-90469000D01*
X108866094Y-90469000D01*
X108797973Y-90448998D01*
X108751480Y-90395342D01*
X108741376Y-90325068D01*
X108770870Y-90260488D01*
X108776999Y-90253905D01*
X110081752Y-88949152D01*
X110144064Y-88915126D01*
X110203459Y-88916541D01*
X110261591Y-88932118D01*
X110261602Y-88932120D01*
X110266913Y-88933543D01*
X110495000Y-88953498D01*
X110723087Y-88933543D01*
X110728400Y-88932119D01*
X110728402Y-88932119D01*
X110938933Y-88875707D01*
X110938935Y-88875706D01*
X110944243Y-88874284D01*
X110949225Y-88871961D01*
X111146762Y-88779849D01*
X111146767Y-88779846D01*
X111151749Y-88777523D01*
X111293458Y-88678297D01*
X111334789Y-88649357D01*
X111334792Y-88649355D01*
X111339300Y-88646198D01*
X111501198Y-88484300D01*
X111632523Y-88296749D01*
X111634846Y-88291767D01*
X111634849Y-88291762D01*
X111650805Y-88257543D01*
X111697722Y-88204258D01*
X111765999Y-88184797D01*
X111833959Y-88205339D01*
G37*
%TD.AperFunction*%
%TA.AperFunction,NonConductor*%
G36*
X99182012Y-106039133D02*
G01*
X99202713Y-106062086D01*
X99315286Y-106222856D01*
X99333802Y-106249300D01*
X99495700Y-106411198D01*
X99500208Y-106414355D01*
X99500211Y-106414357D01*
X99561920Y-106457566D01*
X99683251Y-106542523D01*
X99688233Y-106544846D01*
X99688238Y-106544849D01*
X99722457Y-106560805D01*
X99775742Y-106607722D01*
X99795203Y-106675999D01*
X99774661Y-106743959D01*
X99722457Y-106789195D01*
X99688238Y-106805151D01*
X99688233Y-106805154D01*
X99683251Y-106807477D01*
X99578389Y-106880902D01*
X99500211Y-106935643D01*
X99500208Y-106935645D01*
X99495700Y-106938802D01*
X99333802Y-107100700D01*
X99330645Y-107105208D01*
X99330643Y-107105211D01*
X99223819Y-107257771D01*
X99168362Y-107302099D01*
X99120606Y-107311500D01*
X99099500Y-107311500D01*
X99031379Y-107291498D01*
X98984886Y-107237842D01*
X98973500Y-107185500D01*
X98973500Y-106134357D01*
X98993502Y-106066236D01*
X99047158Y-106019743D01*
X99117432Y-106009639D01*
X99182012Y-106039133D01*
G37*
%TD.AperFunction*%
%TA.AperFunction,NonConductor*%
G36*
X123239032Y-100016038D02*
G01*
X123284095Y-100044999D01*
X126496343Y-103257247D01*
X126503887Y-103265537D01*
X126508000Y-103272018D01*
X126513777Y-103277443D01*
X126557667Y-103318658D01*
X126560509Y-103321413D01*
X126580231Y-103341135D01*
X126583355Y-103343558D01*
X126583359Y-103343562D01*
X126583424Y-103343612D01*
X126592445Y-103351317D01*
X126624679Y-103381586D01*
X126631627Y-103385405D01*
X126631629Y-103385407D01*
X126642432Y-103391346D01*
X126658959Y-103402202D01*
X126668698Y-103409757D01*
X126668700Y-103409758D01*
X126674960Y-103414614D01*
X126715540Y-103432174D01*
X126726188Y-103437391D01*
X126742754Y-103446498D01*
X126764940Y-103458695D01*
X126772616Y-103460666D01*
X126772619Y-103460667D01*
X126781969Y-103463067D01*
X126784126Y-103463621D01*
X126784562Y-103463733D01*
X126803267Y-103470137D01*
X126821855Y-103478181D01*
X126829678Y-103479420D01*
X126829688Y-103479423D01*
X126865524Y-103485099D01*
X126877144Y-103487505D01*
X126912289Y-103496528D01*
X126919970Y-103498500D01*
X126940224Y-103498500D01*
X126959934Y-103500051D01*
X126979943Y-103503220D01*
X126987835Y-103502474D01*
X127023961Y-103499059D01*
X127035819Y-103498500D01*
X129600606Y-103498500D01*
X129668727Y-103518502D01*
X129703819Y-103552229D01*
X129791987Y-103678145D01*
X129813802Y-103709300D01*
X129975700Y-103871198D01*
X129980208Y-103874355D01*
X129980211Y-103874357D01*
X130003176Y-103890437D01*
X130163251Y-104002523D01*
X130168233Y-104004846D01*
X130168238Y-104004849D01*
X130202457Y-104020805D01*
X130255742Y-104067722D01*
X130275203Y-104135999D01*
X130254661Y-104203959D01*
X130202457Y-104249195D01*
X130168238Y-104265151D01*
X130168233Y-104265154D01*
X130163251Y-104267477D01*
X130058389Y-104340902D01*
X129980211Y-104395643D01*
X129980208Y-104395645D01*
X129975700Y-104398802D01*
X129813802Y-104560700D01*
X129682477Y-104748251D01*
X129680154Y-104753233D01*
X129680151Y-104753238D01*
X129588039Y-104950775D01*
X129585716Y-104955757D01*
X129584294Y-104961065D01*
X129584293Y-104961067D01*
X129543459Y-105113460D01*
X129526457Y-105176913D01*
X129506502Y-105405000D01*
X129526457Y-105633087D01*
X129585716Y-105854243D01*
X129588039Y-105859225D01*
X129588042Y-105859232D01*
X129596444Y-105877249D01*
X129607106Y-105947441D01*
X129578127Y-106012254D01*
X129518707Y-106051110D01*
X129482250Y-106056500D01*
X126758767Y-106056500D01*
X126747584Y-106055973D01*
X126740091Y-106054298D01*
X126732165Y-106054547D01*
X126732164Y-106054547D01*
X126672014Y-106056438D01*
X126668055Y-106056500D01*
X126640144Y-106056500D01*
X126636210Y-106056997D01*
X126636209Y-106056997D01*
X126636144Y-106057005D01*
X126624307Y-106057938D01*
X126592049Y-106058952D01*
X126588030Y-106059078D01*
X126580111Y-106059327D01*
X126560657Y-106064979D01*
X126541300Y-106068987D01*
X126529070Y-106070532D01*
X126529069Y-106070532D01*
X126521203Y-106071526D01*
X126513832Y-106074445D01*
X126513830Y-106074445D01*
X126480088Y-106087804D01*
X126468858Y-106091649D01*
X126434017Y-106101771D01*
X126434016Y-106101771D01*
X126426407Y-106103982D01*
X126419588Y-106108015D01*
X126419583Y-106108017D01*
X126408972Y-106114293D01*
X126391224Y-106122988D01*
X126372383Y-106130448D01*
X126365967Y-106135110D01*
X126365966Y-106135110D01*
X126336613Y-106156436D01*
X126326693Y-106162952D01*
X126295465Y-106181420D01*
X126295462Y-106181422D01*
X126288638Y-106185458D01*
X126274317Y-106199779D01*
X126259284Y-106212619D01*
X126242893Y-106224528D01*
X126226132Y-106244789D01*
X126214702Y-106258605D01*
X126206712Y-106267384D01*
X125199500Y-107274595D01*
X125137188Y-107308621D01*
X125110405Y-107311500D01*
X124798595Y-107311500D01*
X124730474Y-107291498D01*
X124683981Y-107237842D01*
X124673877Y-107167568D01*
X124703371Y-107102988D01*
X124709500Y-107096404D01*
X125202258Y-106603647D01*
X125210537Y-106596113D01*
X125217018Y-106592000D01*
X125263644Y-106542348D01*
X125266398Y-106539507D01*
X125286135Y-106519770D01*
X125288615Y-106516573D01*
X125296320Y-106507551D01*
X125321159Y-106481100D01*
X125326586Y-106475321D01*
X125330405Y-106468375D01*
X125330407Y-106468372D01*
X125336348Y-106457566D01*
X125347199Y-106441047D01*
X125354758Y-106431301D01*
X125359614Y-106425041D01*
X125362759Y-106417772D01*
X125362762Y-106417768D01*
X125377174Y-106384463D01*
X125382391Y-106373813D01*
X125403695Y-106335060D01*
X125408733Y-106315437D01*
X125415137Y-106296734D01*
X125420033Y-106285420D01*
X125420033Y-106285419D01*
X125423181Y-106278145D01*
X125424420Y-106270322D01*
X125424423Y-106270312D01*
X125430099Y-106234476D01*
X125432505Y-106222856D01*
X125441528Y-106187711D01*
X125441528Y-106187710D01*
X125443500Y-106180030D01*
X125443500Y-106159776D01*
X125445051Y-106140065D01*
X125446980Y-106127886D01*
X125448220Y-106120057D01*
X125444059Y-106076038D01*
X125443500Y-106064181D01*
X125443500Y-104248768D01*
X125444027Y-104237585D01*
X125445702Y-104230092D01*
X125443562Y-104162001D01*
X125443500Y-104158044D01*
X125443500Y-104130144D01*
X125442996Y-104126153D01*
X125442063Y-104114311D01*
X125441444Y-104094594D01*
X125440674Y-104070111D01*
X125438462Y-104062497D01*
X125438461Y-104062492D01*
X125435023Y-104050659D01*
X125431012Y-104031295D01*
X125429467Y-104019064D01*
X125428474Y-104011203D01*
X125425557Y-104003836D01*
X125425556Y-104003831D01*
X125412198Y-103970092D01*
X125408354Y-103958865D01*
X125406232Y-103951561D01*
X125396018Y-103916407D01*
X125385707Y-103898972D01*
X125377012Y-103881224D01*
X125369552Y-103862383D01*
X125343564Y-103826613D01*
X125337048Y-103816693D01*
X125318580Y-103785465D01*
X125318578Y-103785462D01*
X125314542Y-103778638D01*
X125300221Y-103764317D01*
X125287380Y-103749283D01*
X125280131Y-103739306D01*
X125275472Y-103732893D01*
X125269368Y-103727843D01*
X125269363Y-103727838D01*
X125241402Y-103704707D01*
X125232621Y-103696717D01*
X124545404Y-103009499D01*
X124511379Y-102947187D01*
X124508500Y-102920404D01*
X124508500Y-102016866D01*
X124501745Y-101954684D01*
X124450615Y-101818295D01*
X124363261Y-101701739D01*
X124246705Y-101614385D01*
X124110316Y-101563255D01*
X124048134Y-101556500D01*
X122351866Y-101556500D01*
X122289684Y-101563255D01*
X122153295Y-101614385D01*
X122036739Y-101701739D01*
X121949385Y-101818295D01*
X121898255Y-101954684D01*
X121891500Y-102016866D01*
X121891500Y-103713134D01*
X121898255Y-103775316D01*
X121949385Y-103911705D01*
X122036739Y-104028261D01*
X122153295Y-104115615D01*
X122289684Y-104166745D01*
X122300474Y-104167917D01*
X122302606Y-104168803D01*
X122305222Y-104169425D01*
X122305121Y-104169848D01*
X122366035Y-104195155D01*
X122406463Y-104253517D01*
X122408922Y-104324471D01*
X122372629Y-104385490D01*
X122363969Y-104392489D01*
X122360207Y-104395646D01*
X122355700Y-104398802D01*
X122193802Y-104560700D01*
X122062477Y-104748251D01*
X122060154Y-104753233D01*
X122060151Y-104753238D01*
X122047349Y-104780693D01*
X122000432Y-104833978D01*
X121991573Y-104838480D01*
X121991700Y-104838711D01*
X121984756Y-104842529D01*
X121977383Y-104845448D01*
X121952875Y-104863254D01*
X121941612Y-104871437D01*
X121931695Y-104877951D01*
X121893638Y-104900458D01*
X121879317Y-104914779D01*
X121864284Y-104927619D01*
X121847893Y-104939528D01*
X121819702Y-104973605D01*
X121811712Y-104982384D01*
X120841285Y-105952810D01*
X120778975Y-105986835D01*
X120708160Y-105981770D01*
X120651324Y-105939223D01*
X120626513Y-105872703D01*
X120630485Y-105831103D01*
X120682119Y-105638402D01*
X120682119Y-105638400D01*
X120683543Y-105633087D01*
X120703498Y-105405000D01*
X120683543Y-105176913D01*
X120666541Y-105113460D01*
X120625707Y-104961067D01*
X120625706Y-104961065D01*
X120624284Y-104955757D01*
X120621961Y-104950775D01*
X120529849Y-104753238D01*
X120529846Y-104753233D01*
X120527523Y-104748251D01*
X120396198Y-104560700D01*
X120234300Y-104398802D01*
X120229792Y-104395645D01*
X120229789Y-104395643D01*
X120151611Y-104340902D01*
X120046749Y-104267477D01*
X120041767Y-104265154D01*
X120041762Y-104265151D01*
X120007543Y-104249195D01*
X119954258Y-104202278D01*
X119934797Y-104134001D01*
X119955339Y-104066041D01*
X120007543Y-104020805D01*
X120041762Y-104004849D01*
X120041767Y-104004846D01*
X120046749Y-104002523D01*
X120206824Y-103890437D01*
X120229789Y-103874357D01*
X120229792Y-103874355D01*
X120234300Y-103871198D01*
X120396198Y-103709300D01*
X120448591Y-103634476D01*
X120500896Y-103559776D01*
X120527523Y-103521749D01*
X120529846Y-103516767D01*
X120529849Y-103516762D01*
X120621961Y-103319225D01*
X120621961Y-103319224D01*
X120624284Y-103314243D01*
X120637039Y-103266643D01*
X120682119Y-103098402D01*
X120682119Y-103098400D01*
X120683543Y-103093087D01*
X120703498Y-102865000D01*
X120683543Y-102636913D01*
X120682119Y-102631598D01*
X120682118Y-102631591D01*
X120666541Y-102573459D01*
X120668230Y-102502483D01*
X120699152Y-102451752D01*
X123105905Y-100044999D01*
X123168217Y-100010973D01*
X123239032Y-100016038D01*
G37*
%TD.AperFunction*%
%TA.AperFunction,NonConductor*%
G36*
X106791922Y-102023502D02*
G01*
X106838415Y-102077158D01*
X106848519Y-102147432D01*
X106828169Y-102198857D01*
X106828383Y-102198981D01*
X106827545Y-102200432D01*
X106827017Y-102201767D01*
X106825634Y-102203742D01*
X106825633Y-102203744D01*
X106822477Y-102208251D01*
X106820154Y-102213233D01*
X106820151Y-102213238D01*
X106736503Y-102392624D01*
X106725716Y-102415757D01*
X106724294Y-102421065D01*
X106724293Y-102421067D01*
X106676094Y-102600947D01*
X106666457Y-102636913D01*
X106646502Y-102865000D01*
X106666457Y-103093087D01*
X106667880Y-103098398D01*
X106667882Y-103098409D01*
X106683459Y-103156541D01*
X106681770Y-103227517D01*
X106650848Y-103278248D01*
X101866589Y-108062506D01*
X101804277Y-108096532D01*
X101733462Y-108091467D01*
X101676626Y-108048920D01*
X101651815Y-107982400D01*
X101651974Y-107962428D01*
X101653019Y-107950485D01*
X101653019Y-107950475D01*
X101653498Y-107945000D01*
X101633543Y-107716913D01*
X101624338Y-107682559D01*
X101575707Y-107501067D01*
X101575706Y-107501065D01*
X101574284Y-107495757D01*
X101510841Y-107359702D01*
X101479849Y-107293238D01*
X101479846Y-107293233D01*
X101477523Y-107288251D01*
X101382297Y-107152255D01*
X101349357Y-107105211D01*
X101349355Y-107105208D01*
X101346198Y-107100700D01*
X101184300Y-106938802D01*
X101179792Y-106935645D01*
X101179789Y-106935643D01*
X101101611Y-106880902D01*
X100996749Y-106807477D01*
X100991767Y-106805154D01*
X100991762Y-106805151D01*
X100957543Y-106789195D01*
X100904258Y-106742278D01*
X100884797Y-106674001D01*
X100905339Y-106606041D01*
X100957543Y-106560805D01*
X100991762Y-106544849D01*
X100991767Y-106544846D01*
X100996749Y-106542523D01*
X101118080Y-106457566D01*
X101179789Y-106414357D01*
X101179792Y-106414355D01*
X101184300Y-106411198D01*
X101346198Y-106249300D01*
X101363544Y-106224528D01*
X101456181Y-106092229D01*
X101511638Y-106047901D01*
X101559394Y-106038500D01*
X102086233Y-106038500D01*
X102097416Y-106039027D01*
X102104909Y-106040702D01*
X102112835Y-106040453D01*
X102112836Y-106040453D01*
X102172986Y-106038562D01*
X102176945Y-106038500D01*
X102204856Y-106038500D01*
X102208791Y-106038003D01*
X102208856Y-106037995D01*
X102220693Y-106037062D01*
X102252951Y-106036048D01*
X102256970Y-106035922D01*
X102264889Y-106035673D01*
X102284343Y-106030021D01*
X102303700Y-106026013D01*
X102315930Y-106024468D01*
X102315931Y-106024468D01*
X102323797Y-106023474D01*
X102331168Y-106020555D01*
X102331170Y-106020555D01*
X102364912Y-106007196D01*
X102376142Y-106003351D01*
X102410983Y-105993229D01*
X102410984Y-105993229D01*
X102418593Y-105991018D01*
X102425412Y-105986985D01*
X102425417Y-105986983D01*
X102436028Y-105980707D01*
X102453776Y-105972012D01*
X102472617Y-105964552D01*
X102508387Y-105938564D01*
X102518307Y-105932048D01*
X102549535Y-105913580D01*
X102549538Y-105913578D01*
X102556362Y-105909542D01*
X102570683Y-105895221D01*
X102585717Y-105882380D01*
X102595694Y-105875131D01*
X102602107Y-105870472D01*
X102630298Y-105836395D01*
X102638288Y-105827616D01*
X106425500Y-102040405D01*
X106487812Y-102006379D01*
X106514595Y-102003500D01*
X106723801Y-102003500D01*
X106791922Y-102023502D01*
G37*
%TD.AperFunction*%
%TA.AperFunction,NonConductor*%
G36*
X93962012Y-107333873D02*
G01*
X93987219Y-107363731D01*
X94023377Y-107423317D01*
X94026874Y-107427347D01*
X94113438Y-107527103D01*
X94174477Y-107597445D01*
X94178608Y-107600832D01*
X94348627Y-107740240D01*
X94348633Y-107740244D01*
X94352755Y-107743624D01*
X94384250Y-107761552D01*
X94433555Y-107812632D01*
X94447417Y-107882262D01*
X94421434Y-107948333D01*
X94392284Y-107975573D01*
X94270681Y-108057441D01*
X94266824Y-108061120D01*
X94266822Y-108061122D01*
X94229703Y-108096532D01*
X94103865Y-108216576D01*
X94100682Y-108220853D01*
X94100682Y-108220854D01*
X94066614Y-108266643D01*
X94009904Y-108309356D01*
X93939103Y-108314629D01*
X93876430Y-108280525D01*
X93790405Y-108194500D01*
X93756379Y-108132188D01*
X93753500Y-108105405D01*
X93753500Y-107429097D01*
X93773502Y-107360976D01*
X93827158Y-107314483D01*
X93897432Y-107304379D01*
X93962012Y-107333873D01*
G37*
%TD.AperFunction*%
%TA.AperFunction,NonConductor*%
G36*
X97624532Y-105915538D02*
G01*
X97681368Y-105958085D01*
X97706179Y-106024605D01*
X97706500Y-106033594D01*
X97706500Y-108115405D01*
X97686498Y-108183526D01*
X97669595Y-108204500D01*
X97424500Y-108449595D01*
X97362188Y-108483621D01*
X97335405Y-108486500D01*
X96650596Y-108486500D01*
X96582475Y-108466498D01*
X96542877Y-108425866D01*
X96529831Y-108404366D01*
X96476623Y-108316683D01*
X96389755Y-108216576D01*
X96329023Y-108146588D01*
X96329021Y-108146586D01*
X96325523Y-108142555D01*
X96263217Y-108091467D01*
X96151373Y-107999760D01*
X96151367Y-107999756D01*
X96147245Y-107996376D01*
X96115750Y-107978448D01*
X96066445Y-107927368D01*
X96052583Y-107857738D01*
X96078566Y-107791667D01*
X96107716Y-107764427D01*
X96178291Y-107716913D01*
X96229319Y-107682559D01*
X96396135Y-107523424D01*
X96533754Y-107338458D01*
X96539896Y-107326379D01*
X96600489Y-107207199D01*
X96638240Y-107132949D01*
X96640714Y-107124984D01*
X96705024Y-106917871D01*
X96706607Y-106912773D01*
X96707308Y-106907484D01*
X96729029Y-106743602D01*
X96757808Y-106678700D01*
X96764842Y-106671062D01*
X97491405Y-105944499D01*
X97553717Y-105910473D01*
X97624532Y-105915538D01*
G37*
%TD.AperFunction*%
%TA.AperFunction,NonConductor*%
G36*
X106566539Y-105258533D02*
G01*
X106623374Y-105301080D01*
X106648185Y-105367600D01*
X106648026Y-105387572D01*
X106646981Y-105399515D01*
X106646981Y-105399525D01*
X106646502Y-105405000D01*
X106666457Y-105633087D01*
X106667881Y-105638400D01*
X106667881Y-105638402D01*
X106720934Y-105836395D01*
X106725716Y-105854243D01*
X106728039Y-105859224D01*
X106728039Y-105859225D01*
X106820151Y-106056762D01*
X106820154Y-106056767D01*
X106822477Y-106061749D01*
X106867087Y-106125458D01*
X106935286Y-106222856D01*
X106953802Y-106249300D01*
X107115700Y-106411198D01*
X107120208Y-106414355D01*
X107120211Y-106414357D01*
X107181920Y-106457566D01*
X107303251Y-106542523D01*
X107308233Y-106544846D01*
X107308238Y-106544849D01*
X107342457Y-106560805D01*
X107395742Y-106607722D01*
X107415203Y-106675999D01*
X107394661Y-106743959D01*
X107342457Y-106789195D01*
X107308238Y-106805151D01*
X107308233Y-106805154D01*
X107303251Y-106807477D01*
X107198389Y-106880902D01*
X107120211Y-106935643D01*
X107120208Y-106935645D01*
X107115700Y-106938802D01*
X106953802Y-107100700D01*
X106950645Y-107105208D01*
X106950643Y-107105211D01*
X106917703Y-107152255D01*
X106822477Y-107288251D01*
X106820154Y-107293233D01*
X106820151Y-107293238D01*
X106789159Y-107359702D01*
X106725716Y-107495757D01*
X106724294Y-107501065D01*
X106724293Y-107501067D01*
X106675662Y-107682559D01*
X106666457Y-107716913D01*
X106646502Y-107945000D01*
X106666457Y-108173087D01*
X106667881Y-108178400D01*
X106667881Y-108178402D01*
X106723935Y-108387595D01*
X106725716Y-108394243D01*
X106728039Y-108399224D01*
X106728039Y-108399225D01*
X106820151Y-108596762D01*
X106820154Y-108596767D01*
X106822477Y-108601749D01*
X106860979Y-108656735D01*
X106928506Y-108753173D01*
X106953802Y-108789300D01*
X107115700Y-108951198D01*
X107120208Y-108954355D01*
X107120211Y-108954357D01*
X107172607Y-108991045D01*
X107303251Y-109082523D01*
X107308233Y-109084846D01*
X107308238Y-109084849D01*
X107342457Y-109100805D01*
X107395742Y-109147722D01*
X107415203Y-109215999D01*
X107394661Y-109283959D01*
X107342457Y-109329195D01*
X107308238Y-109345151D01*
X107308233Y-109345154D01*
X107303251Y-109347477D01*
X107198389Y-109420902D01*
X107120211Y-109475643D01*
X107120208Y-109475645D01*
X107115700Y-109478802D01*
X106953802Y-109640700D01*
X106950645Y-109645208D01*
X106950643Y-109645211D01*
X106938042Y-109663207D01*
X106822477Y-109828251D01*
X106820154Y-109833233D01*
X106820151Y-109833238D01*
X106739409Y-110006392D01*
X106725716Y-110035757D01*
X106724294Y-110041065D01*
X106724293Y-110041067D01*
X106692587Y-110159395D01*
X106655635Y-110220018D01*
X106591774Y-110251039D01*
X106521280Y-110242611D01*
X106481785Y-110215879D01*
X106358648Y-110092742D01*
X106351113Y-110084462D01*
X106347000Y-110077982D01*
X106341219Y-110072553D01*
X106297342Y-110031350D01*
X106294500Y-110028595D01*
X106274770Y-110008865D01*
X106271573Y-110006385D01*
X106262551Y-109998680D01*
X106236100Y-109973841D01*
X106230321Y-109968414D01*
X106223375Y-109964595D01*
X106223372Y-109964593D01*
X106212566Y-109958652D01*
X106196047Y-109947801D01*
X106195583Y-109947441D01*
X106180041Y-109935386D01*
X106172772Y-109932241D01*
X106172768Y-109932238D01*
X106139463Y-109917826D01*
X106128813Y-109912609D01*
X106090060Y-109891305D01*
X106070437Y-109886267D01*
X106051734Y-109879863D01*
X106040420Y-109874967D01*
X106040419Y-109874967D01*
X106033145Y-109871819D01*
X106025322Y-109870580D01*
X106025312Y-109870577D01*
X105989476Y-109864901D01*
X105977856Y-109862495D01*
X105942711Y-109853472D01*
X105942710Y-109853472D01*
X105935030Y-109851500D01*
X105914776Y-109851500D01*
X105895065Y-109849949D01*
X105882886Y-109848020D01*
X105875057Y-109846780D01*
X105867165Y-109847526D01*
X105831039Y-109850941D01*
X105819181Y-109851500D01*
X102170164Y-109851500D01*
X102102043Y-109831498D01*
X102055550Y-109777842D01*
X102045446Y-109707568D01*
X102074940Y-109642988D01*
X102091176Y-109627609D01*
X102096362Y-109624542D01*
X102110683Y-109610221D01*
X102125717Y-109597380D01*
X102135694Y-109590131D01*
X102142107Y-109585472D01*
X102170298Y-109551395D01*
X102178288Y-109542616D01*
X106433411Y-105287494D01*
X106495723Y-105253468D01*
X106566539Y-105258533D01*
G37*
%TD.AperFunction*%
%TA.AperFunction,NonConductor*%
G36*
X109285651Y-106022815D02*
G01*
X109296855Y-106032760D01*
X110326348Y-107062253D01*
X110333888Y-107070539D01*
X110338000Y-107077018D01*
X110343777Y-107082443D01*
X110387651Y-107123643D01*
X110390493Y-107126398D01*
X110410230Y-107146135D01*
X110413427Y-107148615D01*
X110422447Y-107156318D01*
X110454679Y-107186586D01*
X110461625Y-107190405D01*
X110461628Y-107190407D01*
X110472434Y-107196348D01*
X110488953Y-107207199D01*
X110504959Y-107219614D01*
X110518784Y-107225597D01*
X110573358Y-107271005D01*
X110594720Y-107338712D01*
X110582940Y-107394484D01*
X110535716Y-107495757D01*
X110534294Y-107501065D01*
X110534293Y-107501067D01*
X110485662Y-107682559D01*
X110476457Y-107716913D01*
X110456502Y-107945000D01*
X110476457Y-108173087D01*
X110477881Y-108178400D01*
X110477881Y-108178402D01*
X110533935Y-108387595D01*
X110535716Y-108394243D01*
X110538039Y-108399224D01*
X110538039Y-108399225D01*
X110630151Y-108596762D01*
X110630154Y-108596767D01*
X110632477Y-108601749D01*
X110670979Y-108656735D01*
X110738506Y-108753173D01*
X110763802Y-108789300D01*
X110925700Y-108951198D01*
X110930208Y-108954355D01*
X110930211Y-108954357D01*
X110982607Y-108991045D01*
X111113251Y-109082523D01*
X111118233Y-109084846D01*
X111118238Y-109084849D01*
X111152457Y-109100805D01*
X111205742Y-109147722D01*
X111225203Y-109215999D01*
X111204661Y-109283959D01*
X111152457Y-109329195D01*
X111118238Y-109345151D01*
X111118233Y-109345154D01*
X111113251Y-109347477D01*
X111008389Y-109420902D01*
X110930211Y-109475643D01*
X110930208Y-109475645D01*
X110925700Y-109478802D01*
X110763802Y-109640700D01*
X110760645Y-109645208D01*
X110760643Y-109645211D01*
X110748042Y-109663207D01*
X110632477Y-109828251D01*
X110630154Y-109833233D01*
X110630151Y-109833238D01*
X110549409Y-110006392D01*
X110535716Y-110035757D01*
X110476457Y-110256913D01*
X110456502Y-110485000D01*
X110476457Y-110713087D01*
X110477879Y-110718396D01*
X110477882Y-110718410D01*
X110520128Y-110876069D01*
X110518439Y-110947046D01*
X110478645Y-111005842D01*
X110410281Y-111034122D01*
X110391037Y-111035941D01*
X110379181Y-111036500D01*
X109331091Y-111036500D01*
X109262970Y-111016498D01*
X109216477Y-110962842D01*
X109206373Y-110892568D01*
X109209384Y-110877888D01*
X109253543Y-110713087D01*
X109273498Y-110485000D01*
X109253543Y-110256913D01*
X109194284Y-110035757D01*
X109180591Y-110006392D01*
X109099849Y-109833238D01*
X109099846Y-109833233D01*
X109097523Y-109828251D01*
X108981958Y-109663207D01*
X108969357Y-109645211D01*
X108969355Y-109645208D01*
X108966198Y-109640700D01*
X108804300Y-109478802D01*
X108799792Y-109475645D01*
X108799789Y-109475643D01*
X108721611Y-109420902D01*
X108616749Y-109347477D01*
X108611767Y-109345154D01*
X108611762Y-109345151D01*
X108577543Y-109329195D01*
X108524258Y-109282278D01*
X108504797Y-109214001D01*
X108525339Y-109146041D01*
X108577543Y-109100805D01*
X108611762Y-109084849D01*
X108611767Y-109084846D01*
X108616749Y-109082523D01*
X108747393Y-108991045D01*
X108799789Y-108954357D01*
X108799792Y-108954355D01*
X108804300Y-108951198D01*
X108966198Y-108789300D01*
X108991495Y-108753173D01*
X109059021Y-108656735D01*
X109097523Y-108601749D01*
X109099846Y-108596767D01*
X109099849Y-108596762D01*
X109191961Y-108399225D01*
X109191961Y-108399224D01*
X109194284Y-108394243D01*
X109196066Y-108387595D01*
X109252119Y-108178402D01*
X109252119Y-108178400D01*
X109253543Y-108173087D01*
X109273498Y-107945000D01*
X109253543Y-107716913D01*
X109244338Y-107682559D01*
X109195707Y-107501067D01*
X109195706Y-107501065D01*
X109194284Y-107495757D01*
X109130841Y-107359702D01*
X109099849Y-107293238D01*
X109099846Y-107293233D01*
X109097523Y-107288251D01*
X109002297Y-107152255D01*
X108969357Y-107105211D01*
X108969355Y-107105208D01*
X108966198Y-107100700D01*
X108804300Y-106938802D01*
X108799792Y-106935645D01*
X108799789Y-106935643D01*
X108721611Y-106880902D01*
X108616749Y-106807477D01*
X108611767Y-106805154D01*
X108611762Y-106805151D01*
X108577543Y-106789195D01*
X108524258Y-106742278D01*
X108504797Y-106674001D01*
X108525339Y-106606041D01*
X108577543Y-106560805D01*
X108611762Y-106544849D01*
X108611767Y-106544846D01*
X108616749Y-106542523D01*
X108738080Y-106457566D01*
X108799789Y-106414357D01*
X108799792Y-106414355D01*
X108804300Y-106411198D01*
X108966198Y-106249300D01*
X108983544Y-106224528D01*
X109094369Y-106066254D01*
X109094371Y-106066250D01*
X109097523Y-106061749D01*
X109099060Y-106058454D01*
X109150027Y-106009860D01*
X109219741Y-105996426D01*
X109285651Y-106022815D01*
G37*
%TD.AperFunction*%
%TA.AperFunction,NonConductor*%
G36*
X93052012Y-110318371D02*
G01*
X93058593Y-110324497D01*
X93416283Y-110682188D01*
X93729596Y-110995501D01*
X93763621Y-111057813D01*
X93766500Y-111084596D01*
X93766500Y-111326405D01*
X93746498Y-111394526D01*
X93692842Y-111441019D01*
X93622568Y-111451123D01*
X93557988Y-111421629D01*
X93551405Y-111415500D01*
X92880405Y-110744500D01*
X92846379Y-110682188D01*
X92843500Y-110655405D01*
X92843500Y-110413595D01*
X92863502Y-110345474D01*
X92917158Y-110298981D01*
X92987432Y-110288877D01*
X93052012Y-110318371D01*
G37*
%TD.AperFunction*%
%TA.AperFunction,NonConductor*%
G36*
X97864798Y-109751560D02*
G01*
X97917649Y-109798965D01*
X97936500Y-109865260D01*
X97936500Y-109870224D01*
X97934949Y-109889934D01*
X97931780Y-109909943D01*
X97932526Y-109917835D01*
X97935941Y-109953961D01*
X97936500Y-109965819D01*
X97936500Y-110951233D01*
X97935973Y-110962416D01*
X97934298Y-110969909D01*
X97934547Y-110977835D01*
X97934547Y-110977836D01*
X97936438Y-111037986D01*
X97936500Y-111041945D01*
X97936500Y-111069856D01*
X97936997Y-111073790D01*
X97936997Y-111073791D01*
X97937005Y-111073856D01*
X97937938Y-111085693D01*
X97939327Y-111129889D01*
X97944978Y-111149339D01*
X97948987Y-111168700D01*
X97949022Y-111168973D01*
X97951526Y-111188797D01*
X97954445Y-111196168D01*
X97954445Y-111196170D01*
X97967804Y-111229912D01*
X97971649Y-111241142D01*
X97983982Y-111283593D01*
X97988015Y-111290412D01*
X97988017Y-111290417D01*
X97994293Y-111301028D01*
X98002988Y-111318776D01*
X98010448Y-111337617D01*
X98015110Y-111344033D01*
X98015110Y-111344034D01*
X98036436Y-111373387D01*
X98042952Y-111383307D01*
X98058492Y-111409583D01*
X98065458Y-111421362D01*
X98079779Y-111435683D01*
X98092619Y-111450716D01*
X98104528Y-111467107D01*
X98133649Y-111491198D01*
X98138605Y-111495298D01*
X98147384Y-111503288D01*
X98820501Y-112176405D01*
X98854527Y-112238717D01*
X98849462Y-112309532D01*
X98806915Y-112366368D01*
X98740395Y-112391179D01*
X98731406Y-112391500D01*
X96969594Y-112391500D01*
X96901473Y-112371498D01*
X96880499Y-112354595D01*
X96770405Y-112244501D01*
X96736379Y-112182189D01*
X96733500Y-112155406D01*
X96733500Y-110969600D01*
X96732510Y-110960058D01*
X96723238Y-110870692D01*
X96723237Y-110870688D01*
X96722526Y-110863834D01*
X96666550Y-110696054D01*
X96573478Y-110545652D01*
X96448303Y-110420695D01*
X96302660Y-110330919D01*
X96255168Y-110278148D01*
X96243744Y-110208076D01*
X96272018Y-110142952D01*
X96281805Y-110132490D01*
X96377640Y-110041067D01*
X96396135Y-110023424D01*
X96533754Y-109838458D01*
X96536170Y-109833706D01*
X96536175Y-109833698D01*
X96541922Y-109822394D01*
X96590625Y-109770737D01*
X96654238Y-109753500D01*
X97571233Y-109753500D01*
X97582416Y-109754027D01*
X97589909Y-109755702D01*
X97597835Y-109755453D01*
X97597836Y-109755453D01*
X97657986Y-109753562D01*
X97661945Y-109753500D01*
X97689856Y-109753500D01*
X97693791Y-109753003D01*
X97693856Y-109752995D01*
X97705693Y-109752062D01*
X97737951Y-109751048D01*
X97741970Y-109750922D01*
X97749889Y-109750673D01*
X97769343Y-109745021D01*
X97788700Y-109741013D01*
X97794708Y-109740254D01*
X97864798Y-109751560D01*
G37*
%TD.AperFunction*%
%TA.AperFunction,NonConductor*%
G36*
X112723229Y-111504845D02*
G01*
X112748460Y-111524366D01*
X113119595Y-111895501D01*
X113153621Y-111957813D01*
X113156500Y-111984596D01*
X113156500Y-112333834D01*
X113136498Y-112401955D01*
X113082842Y-112448448D01*
X113012568Y-112458552D01*
X112947988Y-112429058D01*
X112916305Y-112387084D01*
X112909849Y-112373238D01*
X112909846Y-112373233D01*
X112907523Y-112368251D01*
X112820872Y-112244501D01*
X112779357Y-112185211D01*
X112779355Y-112185208D01*
X112776198Y-112180700D01*
X112614300Y-112018802D01*
X112609792Y-112015645D01*
X112609789Y-112015643D01*
X112527199Y-111957813D01*
X112426749Y-111887477D01*
X112421767Y-111885154D01*
X112421762Y-111885151D01*
X112387543Y-111869195D01*
X112334258Y-111822278D01*
X112314797Y-111754001D01*
X112335339Y-111686041D01*
X112387543Y-111640805D01*
X112421762Y-111624849D01*
X112421767Y-111624846D01*
X112426749Y-111622523D01*
X112587094Y-111510248D01*
X112654368Y-111487560D01*
X112723229Y-111504845D01*
G37*
%TD.AperFunction*%
%TA.AperFunction,NonConductor*%
G36*
X118134359Y-107283502D02*
G01*
X118180852Y-107337158D01*
X118190956Y-107407432D01*
X118180433Y-107442749D01*
X118158041Y-107490770D01*
X118155716Y-107495757D01*
X118154294Y-107501065D01*
X118154293Y-107501067D01*
X118105662Y-107682559D01*
X118096457Y-107716913D01*
X118076502Y-107945000D01*
X118096457Y-108173087D01*
X118097881Y-108178400D01*
X118097881Y-108178402D01*
X118153935Y-108387595D01*
X118155716Y-108394243D01*
X118158039Y-108399225D01*
X118158041Y-108399230D01*
X118245386Y-108586544D01*
X118256047Y-108656735D01*
X118228276Y-108720109D01*
X118204702Y-108748605D01*
X118196712Y-108757384D01*
X115847747Y-111106348D01*
X115839461Y-111113888D01*
X115832982Y-111118000D01*
X115827557Y-111123777D01*
X115786357Y-111167651D01*
X115783602Y-111170493D01*
X115763865Y-111190230D01*
X115761385Y-111193427D01*
X115753682Y-111202447D01*
X115723414Y-111234679D01*
X115719595Y-111241625D01*
X115719593Y-111241628D01*
X115713652Y-111252434D01*
X115702801Y-111268953D01*
X115690386Y-111284959D01*
X115687241Y-111292228D01*
X115687238Y-111292232D01*
X115672826Y-111325537D01*
X115667609Y-111336187D01*
X115646305Y-111374940D01*
X115644334Y-111382615D01*
X115644334Y-111382616D01*
X115641267Y-111394562D01*
X115634863Y-111413266D01*
X115626819Y-111431855D01*
X115625580Y-111439678D01*
X115625577Y-111439688D01*
X115619901Y-111475524D01*
X115617495Y-111487144D01*
X115608472Y-111522289D01*
X115606500Y-111529970D01*
X115606500Y-111550224D01*
X115604949Y-111569934D01*
X115601780Y-111589943D01*
X115602526Y-111597835D01*
X115605941Y-111633961D01*
X115606500Y-111645819D01*
X115606500Y-112065405D01*
X115586498Y-112133526D01*
X115569595Y-112154500D01*
X114638595Y-113085500D01*
X114576283Y-113119526D01*
X114505468Y-113114461D01*
X114448632Y-113071914D01*
X114423821Y-113005394D01*
X114423500Y-112996405D01*
X114423500Y-111748767D01*
X114424027Y-111737584D01*
X114425702Y-111730091D01*
X114423562Y-111662014D01*
X114423500Y-111658055D01*
X114423500Y-111630144D01*
X114422995Y-111626144D01*
X114422062Y-111614301D01*
X114421545Y-111597835D01*
X114420673Y-111570111D01*
X114415021Y-111550657D01*
X114411013Y-111531300D01*
X114409468Y-111519070D01*
X114409468Y-111519069D01*
X114408474Y-111511203D01*
X114401804Y-111494357D01*
X114392196Y-111470088D01*
X114388351Y-111458858D01*
X114378229Y-111424017D01*
X114378229Y-111424016D01*
X114376018Y-111416407D01*
X114371985Y-111409588D01*
X114371983Y-111409583D01*
X114365707Y-111398972D01*
X114357012Y-111381224D01*
X114349552Y-111362383D01*
X114328348Y-111333197D01*
X114323564Y-111326613D01*
X114317048Y-111316693D01*
X114298580Y-111285465D01*
X114298578Y-111285462D01*
X114294542Y-111278638D01*
X114280221Y-111264317D01*
X114267380Y-111249283D01*
X114260131Y-111239306D01*
X114255472Y-111232893D01*
X114221395Y-111204702D01*
X114212616Y-111196712D01*
X113108652Y-110092747D01*
X113101112Y-110084461D01*
X113097000Y-110077982D01*
X113091219Y-110072553D01*
X113047342Y-110031350D01*
X113044500Y-110028595D01*
X113024770Y-110008865D01*
X113021573Y-110006385D01*
X113012552Y-109998681D01*
X112984775Y-109972597D01*
X112956832Y-109933995D01*
X112909851Y-109833242D01*
X112909848Y-109833236D01*
X112907523Y-109828251D01*
X112791958Y-109663207D01*
X112779357Y-109645211D01*
X112779355Y-109645208D01*
X112776198Y-109640700D01*
X112614300Y-109478802D01*
X112609792Y-109475645D01*
X112609789Y-109475643D01*
X112531611Y-109420902D01*
X112426749Y-109347477D01*
X112421767Y-109345154D01*
X112421762Y-109345151D01*
X112387543Y-109329195D01*
X112334258Y-109282278D01*
X112314797Y-109214001D01*
X112335339Y-109146041D01*
X112387543Y-109100805D01*
X112421762Y-109084849D01*
X112421767Y-109084846D01*
X112426749Y-109082523D01*
X112557393Y-108991045D01*
X112609789Y-108954357D01*
X112609792Y-108954355D01*
X112614300Y-108951198D01*
X112776198Y-108789300D01*
X112783683Y-108778611D01*
X112886181Y-108632229D01*
X112941638Y-108587901D01*
X112989394Y-108578500D01*
X116206233Y-108578500D01*
X116217416Y-108579027D01*
X116224909Y-108580702D01*
X116232835Y-108580453D01*
X116232836Y-108580453D01*
X116292986Y-108578562D01*
X116296945Y-108578500D01*
X116324856Y-108578500D01*
X116328791Y-108578003D01*
X116328856Y-108577995D01*
X116340693Y-108577062D01*
X116372951Y-108576048D01*
X116376970Y-108575922D01*
X116384889Y-108575673D01*
X116404343Y-108570021D01*
X116423700Y-108566013D01*
X116435930Y-108564468D01*
X116435931Y-108564468D01*
X116443797Y-108563474D01*
X116451168Y-108560555D01*
X116451170Y-108560555D01*
X116484912Y-108547196D01*
X116496142Y-108543351D01*
X116530983Y-108533229D01*
X116530984Y-108533229D01*
X116538593Y-108531018D01*
X116545412Y-108526985D01*
X116545417Y-108526983D01*
X116556028Y-108520707D01*
X116573776Y-108512012D01*
X116592617Y-108504552D01*
X116628387Y-108478564D01*
X116638307Y-108472048D01*
X116669535Y-108453580D01*
X116669538Y-108453578D01*
X116676362Y-108449542D01*
X116690683Y-108435221D01*
X116705717Y-108422380D01*
X116715694Y-108415131D01*
X116722107Y-108410472D01*
X116750298Y-108376395D01*
X116758288Y-108367616D01*
X117825500Y-107300405D01*
X117887812Y-107266379D01*
X117914595Y-107263500D01*
X118066238Y-107263500D01*
X118134359Y-107283502D01*
G37*
%TD.AperFunction*%
%TA.AperFunction,NonConductor*%
G36*
X110168527Y-112323502D02*
G01*
X110189501Y-112340405D01*
X110460848Y-112611752D01*
X110494874Y-112674064D01*
X110493459Y-112733459D01*
X110477882Y-112791591D01*
X110477881Y-112791598D01*
X110476457Y-112796913D01*
X110456502Y-113025000D01*
X110476457Y-113253087D01*
X110477881Y-113258400D01*
X110477881Y-113258402D01*
X110531334Y-113457889D01*
X110529644Y-113528865D01*
X110489850Y-113587661D01*
X110424586Y-113615609D01*
X110409627Y-113616500D01*
X109320373Y-113616500D01*
X109252252Y-113596498D01*
X109205759Y-113542842D01*
X109195655Y-113472568D01*
X109198666Y-113457889D01*
X109252119Y-113258402D01*
X109252119Y-113258400D01*
X109253543Y-113253087D01*
X109273498Y-113025000D01*
X109253543Y-112796913D01*
X109243947Y-112761101D01*
X109195707Y-112581067D01*
X109195706Y-112581065D01*
X109194284Y-112575757D01*
X109150914Y-112482749D01*
X109140253Y-112412558D01*
X109169233Y-112347746D01*
X109228653Y-112308889D01*
X109265109Y-112303500D01*
X110100406Y-112303500D01*
X110168527Y-112323502D01*
G37*
%TD.AperFunction*%
%TA.AperFunction,NonConductor*%
G36*
X105608526Y-111138502D02*
G01*
X105629501Y-111155405D01*
X106088396Y-111614301D01*
X106536353Y-112062258D01*
X106543887Y-112070537D01*
X106548000Y-112077018D01*
X106597651Y-112123643D01*
X106600493Y-112126398D01*
X106620230Y-112146135D01*
X106623427Y-112148615D01*
X106632447Y-112156318D01*
X106664679Y-112186586D01*
X106671625Y-112190405D01*
X106671628Y-112190407D01*
X106682434Y-112196348D01*
X106698953Y-112207199D01*
X106714959Y-112219614D01*
X106743185Y-112231828D01*
X106797758Y-112277237D01*
X106819119Y-112344944D01*
X106807339Y-112400715D01*
X106801093Y-112414110D01*
X106733929Y-112558145D01*
X106725716Y-112575757D01*
X106724294Y-112581065D01*
X106724293Y-112581067D01*
X106676053Y-112761101D01*
X106666457Y-112796913D01*
X106646502Y-113025000D01*
X106666457Y-113253087D01*
X106667881Y-113258400D01*
X106667881Y-113258402D01*
X106721334Y-113457889D01*
X106719644Y-113528865D01*
X106679850Y-113587661D01*
X106614586Y-113615609D01*
X106599627Y-113616500D01*
X102959500Y-113616500D01*
X102891379Y-113596498D01*
X102844886Y-113542842D01*
X102833500Y-113490500D01*
X102833500Y-112528767D01*
X102834027Y-112517584D01*
X102835702Y-112510091D01*
X102833562Y-112442000D01*
X102833500Y-112438043D01*
X102833500Y-112410144D01*
X102832996Y-112406153D01*
X102832063Y-112394311D01*
X102831966Y-112391199D01*
X102830674Y-112350111D01*
X102828462Y-112342497D01*
X102828461Y-112342492D01*
X102825023Y-112330659D01*
X102821012Y-112311295D01*
X102819467Y-112299064D01*
X102818474Y-112291203D01*
X102815557Y-112283836D01*
X102815556Y-112283831D01*
X102802198Y-112250092D01*
X102798354Y-112238865D01*
X102793674Y-112222759D01*
X102786018Y-112196407D01*
X102775707Y-112178972D01*
X102767012Y-112161224D01*
X102759552Y-112142383D01*
X102747939Y-112126398D01*
X102733564Y-112106613D01*
X102727048Y-112096693D01*
X102708580Y-112065465D01*
X102708578Y-112065462D01*
X102704542Y-112058638D01*
X102690221Y-112044317D01*
X102677380Y-112029283D01*
X102672597Y-112022699D01*
X102665472Y-112012893D01*
X102631407Y-111984712D01*
X102622626Y-111976722D01*
X102043647Y-111397742D01*
X102036113Y-111389463D01*
X102032000Y-111382982D01*
X102023436Y-111374940D01*
X101982342Y-111336350D01*
X101946377Y-111275137D01*
X101949215Y-111204197D01*
X101989955Y-111146053D01*
X102055663Y-111119165D01*
X102068595Y-111118500D01*
X105540405Y-111118500D01*
X105608526Y-111138502D01*
G37*
%TD.AperFunction*%
%TA.AperFunction,NonConductor*%
G36*
X95728526Y-112998502D02*
G01*
X95749500Y-113015405D01*
X96151348Y-113417253D01*
X96158888Y-113425539D01*
X96163000Y-113432018D01*
X96168778Y-113437444D01*
X96168779Y-113437445D01*
X96170064Y-113438652D01*
X96170766Y-113439848D01*
X96173831Y-113443552D01*
X96173233Y-113444046D01*
X96206028Y-113499866D01*
X96203188Y-113570806D01*
X96162447Y-113628949D01*
X96096738Y-113655835D01*
X96083809Y-113656500D01*
X95844594Y-113656500D01*
X95776473Y-113636498D01*
X95755499Y-113619595D01*
X95329499Y-113193595D01*
X95295473Y-113131283D01*
X95300538Y-113060468D01*
X95343085Y-113003632D01*
X95409605Y-112978821D01*
X95418594Y-112978500D01*
X95660405Y-112978500D01*
X95728526Y-112998502D01*
G37*
%TD.AperFunction*%
%TA.AperFunction,NonConductor*%
G36*
X107106774Y-116562726D02*
G01*
X107110636Y-116566322D01*
X107111803Y-116567301D01*
X107115700Y-116571198D01*
X107120208Y-116574355D01*
X107120211Y-116574357D01*
X107198389Y-116629098D01*
X107303251Y-116702523D01*
X107308233Y-116704846D01*
X107308238Y-116704849D01*
X107342457Y-116720805D01*
X107395742Y-116767722D01*
X107415203Y-116835999D01*
X107394661Y-116903959D01*
X107342457Y-116949195D01*
X107308238Y-116965151D01*
X107308233Y-116965154D01*
X107303251Y-116967477D01*
X107226757Y-117021039D01*
X107120211Y-117095643D01*
X107120208Y-117095645D01*
X107115700Y-117098802D01*
X107111804Y-117102698D01*
X107107600Y-117106226D01*
X107106485Y-117104897D01*
X107051045Y-117135171D01*
X106980230Y-117130106D01*
X106923394Y-117087559D01*
X106898583Y-117021039D01*
X106898262Y-117012050D01*
X106898262Y-116657950D01*
X106918264Y-116589829D01*
X106971920Y-116543336D01*
X107042194Y-116533232D01*
X107106774Y-116562726D01*
G37*
%TD.AperFunction*%
%TA.AperFunction,NonConductor*%
G36*
X118061818Y-110788252D02*
G01*
X118118654Y-110830799D01*
X118139492Y-110873695D01*
X118155716Y-110934243D01*
X118158039Y-110939224D01*
X118158039Y-110939225D01*
X118250151Y-111136762D01*
X118250154Y-111136767D01*
X118252477Y-111141749D01*
X118318074Y-111235431D01*
X118376441Y-111318787D01*
X118383802Y-111329300D01*
X118545700Y-111491198D01*
X118550208Y-111494355D01*
X118550211Y-111494357D01*
X118601072Y-111529970D01*
X118733251Y-111622523D01*
X118738233Y-111624846D01*
X118738238Y-111624849D01*
X118772457Y-111640805D01*
X118825742Y-111687722D01*
X118845203Y-111755999D01*
X118824661Y-111823959D01*
X118772457Y-111869195D01*
X118738238Y-111885151D01*
X118738233Y-111885154D01*
X118733251Y-111887477D01*
X118632801Y-111957813D01*
X118550211Y-112015643D01*
X118550208Y-112015645D01*
X118545700Y-112018802D01*
X118383802Y-112180700D01*
X118380645Y-112185208D01*
X118380643Y-112185211D01*
X118339128Y-112244501D01*
X118252477Y-112368251D01*
X118250154Y-112373233D01*
X118250151Y-112373238D01*
X118160537Y-112565419D01*
X118155716Y-112575757D01*
X118154294Y-112581065D01*
X118154293Y-112581067D01*
X118106053Y-112761101D01*
X118096457Y-112796913D01*
X118076502Y-113025000D01*
X118096457Y-113253087D01*
X118155716Y-113474243D01*
X118158039Y-113479224D01*
X118158039Y-113479225D01*
X118250151Y-113676762D01*
X118250154Y-113676767D01*
X118252477Y-113681749D01*
X118383802Y-113869300D01*
X118545700Y-114031198D01*
X118550208Y-114034355D01*
X118550211Y-114034357D01*
X118628389Y-114089098D01*
X118733251Y-114162523D01*
X118738233Y-114164846D01*
X118738238Y-114164849D01*
X118772457Y-114180805D01*
X118825742Y-114227722D01*
X118845203Y-114295999D01*
X118824661Y-114363959D01*
X118772457Y-114409195D01*
X118738238Y-114425151D01*
X118738233Y-114425154D01*
X118733251Y-114427477D01*
X118628389Y-114500902D01*
X118550211Y-114555643D01*
X118550208Y-114555645D01*
X118545700Y-114558802D01*
X118383802Y-114720700D01*
X118252477Y-114908251D01*
X118250154Y-114913233D01*
X118250151Y-114913238D01*
X118211019Y-114997158D01*
X118155716Y-115115757D01*
X118154294Y-115121065D01*
X118154293Y-115121067D01*
X118097881Y-115331598D01*
X118096457Y-115336913D01*
X118076502Y-115565000D01*
X118096457Y-115793087D01*
X118097881Y-115798400D01*
X118097881Y-115798402D01*
X118150934Y-115996395D01*
X118155716Y-116014243D01*
X118158039Y-116019224D01*
X118158039Y-116019225D01*
X118250151Y-116216762D01*
X118250154Y-116216767D01*
X118252477Y-116221749D01*
X118255634Y-116226257D01*
X118368890Y-116388003D01*
X118383802Y-116409300D01*
X118545700Y-116571198D01*
X118550208Y-116574355D01*
X118550211Y-116574357D01*
X118628389Y-116629098D01*
X118733251Y-116702523D01*
X118738233Y-116704846D01*
X118738238Y-116704849D01*
X118772457Y-116720805D01*
X118825742Y-116767722D01*
X118845203Y-116835999D01*
X118824661Y-116903959D01*
X118772457Y-116949195D01*
X118738238Y-116965151D01*
X118738233Y-116965154D01*
X118733251Y-116967477D01*
X118656757Y-117021039D01*
X118550211Y-117095643D01*
X118550208Y-117095645D01*
X118545700Y-117098802D01*
X118383802Y-117260700D01*
X118380645Y-117265208D01*
X118380643Y-117265211D01*
X118327475Y-117341143D01*
X118272018Y-117385471D01*
X118201398Y-117392780D01*
X118138038Y-117360749D01*
X118102053Y-117299548D01*
X118098262Y-117268872D01*
X118098262Y-116519000D01*
X113021738Y-116519000D01*
X113021738Y-117211746D01*
X113001736Y-117279867D01*
X112948080Y-117326360D01*
X112877806Y-117336464D01*
X112813226Y-117306970D01*
X112792525Y-117284017D01*
X112779357Y-117265211D01*
X112779355Y-117265208D01*
X112776198Y-117260700D01*
X112614300Y-117098802D01*
X112609792Y-117095645D01*
X112609789Y-117095643D01*
X112503243Y-117021039D01*
X112426749Y-116967477D01*
X112421767Y-116965154D01*
X112421762Y-116965151D01*
X112387543Y-116949195D01*
X112334258Y-116902278D01*
X112314797Y-116834001D01*
X112335339Y-116766041D01*
X112387543Y-116720805D01*
X112421762Y-116704849D01*
X112421767Y-116704846D01*
X112426749Y-116702523D01*
X112531611Y-116629098D01*
X112609789Y-116574357D01*
X112609792Y-116574355D01*
X112614300Y-116571198D01*
X112776198Y-116409300D01*
X112791111Y-116388003D01*
X112885363Y-116253396D01*
X112940820Y-116209068D01*
X112994920Y-116201044D01*
X112994909Y-116200702D01*
X112997849Y-116200610D01*
X112997853Y-116200609D01*
X113002834Y-116200453D01*
X113002835Y-116200453D01*
X113062986Y-116198562D01*
X113066945Y-116198500D01*
X113094856Y-116198500D01*
X113098791Y-116198003D01*
X113098856Y-116197995D01*
X113110693Y-116197062D01*
X113142951Y-116196048D01*
X113146970Y-116195922D01*
X113154889Y-116195673D01*
X113174343Y-116190021D01*
X113193700Y-116186013D01*
X113205930Y-116184468D01*
X113205931Y-116184468D01*
X113213797Y-116183474D01*
X113221168Y-116180555D01*
X113221170Y-116180555D01*
X113254912Y-116167196D01*
X113266142Y-116163351D01*
X113300983Y-116153229D01*
X113300984Y-116153229D01*
X113308593Y-116151018D01*
X113315412Y-116146985D01*
X113315417Y-116146983D01*
X113326028Y-116140707D01*
X113343776Y-116132012D01*
X113362617Y-116124552D01*
X113398387Y-116098564D01*
X113408307Y-116092048D01*
X113439535Y-116073580D01*
X113439538Y-116073578D01*
X113446362Y-116069542D01*
X113460683Y-116055221D01*
X113475717Y-116042380D01*
X113485694Y-116035131D01*
X113492107Y-116030472D01*
X113520298Y-115996395D01*
X113528288Y-115987616D01*
X116632247Y-112883657D01*
X116640537Y-112876113D01*
X116647018Y-112872000D01*
X116693659Y-112822332D01*
X116696413Y-112819491D01*
X116716134Y-112799770D01*
X116718612Y-112796575D01*
X116726318Y-112787553D01*
X116751158Y-112761101D01*
X116756586Y-112755321D01*
X116766346Y-112737568D01*
X116777199Y-112721045D01*
X116784753Y-112711306D01*
X116789613Y-112705041D01*
X116807176Y-112664457D01*
X116812383Y-112653827D01*
X116833695Y-112615060D01*
X116835666Y-112607383D01*
X116835668Y-112607378D01*
X116838732Y-112595442D01*
X116845138Y-112576730D01*
X116850033Y-112565419D01*
X116853181Y-112558145D01*
X116854421Y-112550317D01*
X116854423Y-112550310D01*
X116860099Y-112514476D01*
X116862505Y-112502856D01*
X116871528Y-112467711D01*
X116871528Y-112467710D01*
X116873500Y-112460030D01*
X116873500Y-112439776D01*
X116875051Y-112420065D01*
X116876980Y-112407886D01*
X116878220Y-112400057D01*
X116874059Y-112356038D01*
X116873500Y-112344181D01*
X116873500Y-111924594D01*
X116893502Y-111856473D01*
X116910405Y-111835499D01*
X117928691Y-110817213D01*
X117991003Y-110783187D01*
X118061818Y-110788252D01*
G37*
%TD.AperFunction*%
%TA.AperFunction,NonConductor*%
G36*
X129537097Y-107343502D02*
G01*
X129583590Y-107397158D01*
X129593694Y-107467432D01*
X129587596Y-107491726D01*
X129585716Y-107495757D01*
X129584291Y-107501076D01*
X129536649Y-107678878D01*
X129526457Y-107716913D01*
X129506502Y-107945000D01*
X129526457Y-108173087D01*
X129527881Y-108178400D01*
X129527881Y-108178402D01*
X129583935Y-108387595D01*
X129585716Y-108394243D01*
X129588039Y-108399224D01*
X129588039Y-108399225D01*
X129680151Y-108596762D01*
X129680154Y-108596767D01*
X129682477Y-108601749D01*
X129720979Y-108656735D01*
X129788506Y-108753173D01*
X129813802Y-108789300D01*
X129975700Y-108951198D01*
X129980208Y-108954355D01*
X129980211Y-108954357D01*
X130032607Y-108991045D01*
X130163251Y-109082523D01*
X130168233Y-109084846D01*
X130168238Y-109084849D01*
X130202457Y-109100805D01*
X130255742Y-109147722D01*
X130275203Y-109215999D01*
X130254661Y-109283959D01*
X130202457Y-109329195D01*
X130168238Y-109345151D01*
X130168233Y-109345154D01*
X130163251Y-109347477D01*
X130058389Y-109420902D01*
X129980211Y-109475643D01*
X129980208Y-109475645D01*
X129975700Y-109478802D01*
X129813802Y-109640700D01*
X129810645Y-109645208D01*
X129810643Y-109645211D01*
X129798042Y-109663207D01*
X129682477Y-109828251D01*
X129680154Y-109833233D01*
X129680151Y-109833238D01*
X129599409Y-110006392D01*
X129585716Y-110035757D01*
X129526457Y-110256913D01*
X129506502Y-110485000D01*
X129526457Y-110713087D01*
X129527880Y-110718399D01*
X129527881Y-110718402D01*
X129570616Y-110877888D01*
X129585716Y-110934243D01*
X129588039Y-110939224D01*
X129588039Y-110939225D01*
X129680151Y-111136762D01*
X129680154Y-111136767D01*
X129682477Y-111141749D01*
X129748074Y-111235431D01*
X129806441Y-111318787D01*
X129813802Y-111329300D01*
X129975700Y-111491198D01*
X129980208Y-111494355D01*
X129980211Y-111494357D01*
X130031072Y-111529970D01*
X130163251Y-111622523D01*
X130168233Y-111624846D01*
X130168238Y-111624849D01*
X130202457Y-111640805D01*
X130255742Y-111687722D01*
X130275203Y-111755999D01*
X130254661Y-111823959D01*
X130202457Y-111869195D01*
X130168238Y-111885151D01*
X130168233Y-111885154D01*
X130163251Y-111887477D01*
X130062801Y-111957813D01*
X129980211Y-112015643D01*
X129980208Y-112015645D01*
X129975700Y-112018802D01*
X129813802Y-112180700D01*
X129810645Y-112185208D01*
X129810643Y-112185211D01*
X129769128Y-112244501D01*
X129682477Y-112368251D01*
X129680154Y-112373233D01*
X129680151Y-112373238D01*
X129590537Y-112565419D01*
X129585716Y-112575757D01*
X129584294Y-112581065D01*
X129584293Y-112581067D01*
X129536053Y-112761101D01*
X129526457Y-112796913D01*
X129506502Y-113025000D01*
X129526457Y-113253087D01*
X129585716Y-113474243D01*
X129588039Y-113479224D01*
X129588039Y-113479225D01*
X129680151Y-113676762D01*
X129680154Y-113676767D01*
X129682477Y-113681749D01*
X129813802Y-113869300D01*
X129975700Y-114031198D01*
X129980208Y-114034355D01*
X129980211Y-114034357D01*
X130058389Y-114089098D01*
X130163251Y-114162523D01*
X130168233Y-114164846D01*
X130168238Y-114164849D01*
X130202457Y-114180805D01*
X130255742Y-114227722D01*
X130275203Y-114295999D01*
X130254661Y-114363959D01*
X130202457Y-114409195D01*
X130168238Y-114425151D01*
X130168233Y-114425154D01*
X130163251Y-114427477D01*
X130058389Y-114500902D01*
X129980211Y-114555643D01*
X129980208Y-114555645D01*
X129975700Y-114558802D01*
X129813802Y-114720700D01*
X129682477Y-114908251D01*
X129680154Y-114913233D01*
X129680151Y-114913238D01*
X129641019Y-114997158D01*
X129585716Y-115115757D01*
X129584294Y-115121065D01*
X129584293Y-115121067D01*
X129527881Y-115331598D01*
X129526457Y-115336913D01*
X129506502Y-115565000D01*
X129526457Y-115793087D01*
X129527881Y-115798400D01*
X129527881Y-115798402D01*
X129580934Y-115996395D01*
X129585716Y-116014243D01*
X129588039Y-116019224D01*
X129588039Y-116019225D01*
X129680151Y-116216762D01*
X129680154Y-116216767D01*
X129682477Y-116221749D01*
X129685634Y-116226257D01*
X129798890Y-116388003D01*
X129813802Y-116409300D01*
X129975700Y-116571198D01*
X129980208Y-116574355D01*
X129980211Y-116574357D01*
X130058389Y-116629098D01*
X130163251Y-116702523D01*
X130168233Y-116704846D01*
X130168238Y-116704849D01*
X130202457Y-116720805D01*
X130255742Y-116767722D01*
X130275203Y-116835999D01*
X130254661Y-116903959D01*
X130202457Y-116949195D01*
X130168238Y-116965151D01*
X130168233Y-116965154D01*
X130163251Y-116967477D01*
X130086757Y-117021039D01*
X129980211Y-117095643D01*
X129980208Y-117095645D01*
X129975700Y-117098802D01*
X129813802Y-117260700D01*
X129810645Y-117265208D01*
X129810643Y-117265211D01*
X129800381Y-117279867D01*
X129760752Y-117336464D01*
X129747475Y-117355425D01*
X129692018Y-117399753D01*
X129621399Y-117407062D01*
X129558038Y-117375032D01*
X129522053Y-117313830D01*
X129518262Y-117283154D01*
X129518262Y-116549000D01*
X124441738Y-116549000D01*
X124441738Y-117197465D01*
X124421736Y-117265586D01*
X124368080Y-117312079D01*
X124297806Y-117322183D01*
X124233226Y-117292689D01*
X124212524Y-117269735D01*
X124209357Y-117265211D01*
X124206198Y-117260700D01*
X124044300Y-117098802D01*
X124039792Y-117095645D01*
X124039789Y-117095643D01*
X123933243Y-117021039D01*
X123856749Y-116967477D01*
X123851767Y-116965154D01*
X123851762Y-116965151D01*
X123817543Y-116949195D01*
X123764258Y-116902278D01*
X123744797Y-116834001D01*
X123765339Y-116766041D01*
X123817543Y-116720805D01*
X123851762Y-116704849D01*
X123851767Y-116704846D01*
X123856749Y-116702523D01*
X123961611Y-116629098D01*
X124039789Y-116574357D01*
X124039792Y-116574355D01*
X124044300Y-116571198D01*
X124206198Y-116409300D01*
X124221111Y-116388003D01*
X124334366Y-116226257D01*
X124337523Y-116221749D01*
X124339846Y-116216767D01*
X124339849Y-116216762D01*
X124431961Y-116019225D01*
X124431961Y-116019224D01*
X124434284Y-116014243D01*
X124439067Y-115996395D01*
X124492119Y-115798402D01*
X124492119Y-115798400D01*
X124493543Y-115793087D01*
X124513498Y-115565000D01*
X124493543Y-115336913D01*
X124492119Y-115331598D01*
X124435707Y-115121067D01*
X124435706Y-115121065D01*
X124434284Y-115115757D01*
X124378981Y-114997158D01*
X124339849Y-114913238D01*
X124339846Y-114913233D01*
X124337523Y-114908251D01*
X124206198Y-114720700D01*
X124044300Y-114558802D01*
X124039792Y-114555645D01*
X124039789Y-114555643D01*
X123961611Y-114500902D01*
X123856749Y-114427477D01*
X123851767Y-114425154D01*
X123851762Y-114425151D01*
X123817543Y-114409195D01*
X123764258Y-114362278D01*
X123744797Y-114294001D01*
X123765339Y-114226041D01*
X123817543Y-114180805D01*
X123851762Y-114164849D01*
X123851767Y-114164846D01*
X123856749Y-114162523D01*
X123961611Y-114089098D01*
X124039789Y-114034357D01*
X124039792Y-114034355D01*
X124044300Y-114031198D01*
X124206198Y-113869300D01*
X124337523Y-113681749D01*
X124339846Y-113676767D01*
X124339849Y-113676762D01*
X124431961Y-113479225D01*
X124431961Y-113479224D01*
X124434284Y-113474243D01*
X124493543Y-113253087D01*
X124513498Y-113025000D01*
X124493543Y-112796913D01*
X124483947Y-112761101D01*
X124435707Y-112581067D01*
X124435706Y-112581065D01*
X124434284Y-112575757D01*
X124429463Y-112565419D01*
X124339849Y-112373238D01*
X124339846Y-112373233D01*
X124337523Y-112368251D01*
X124250872Y-112244501D01*
X124209357Y-112185211D01*
X124209355Y-112185208D01*
X124206198Y-112180700D01*
X124044300Y-112018802D01*
X124039792Y-112015645D01*
X124039789Y-112015643D01*
X123957199Y-111957813D01*
X123856749Y-111887477D01*
X123851767Y-111885154D01*
X123851762Y-111885151D01*
X123817543Y-111869195D01*
X123764258Y-111822278D01*
X123744797Y-111754001D01*
X123765339Y-111686041D01*
X123817543Y-111640805D01*
X123851762Y-111624849D01*
X123851767Y-111624846D01*
X123856749Y-111622523D01*
X123988928Y-111529970D01*
X124039789Y-111494357D01*
X124039792Y-111494355D01*
X124044300Y-111491198D01*
X124206198Y-111329300D01*
X124213560Y-111318787D01*
X124271926Y-111235431D01*
X124337523Y-111141749D01*
X124339846Y-111136767D01*
X124339849Y-111136762D01*
X124431961Y-110939225D01*
X124431961Y-110939224D01*
X124434284Y-110934243D01*
X124449385Y-110877888D01*
X124492119Y-110718402D01*
X124492120Y-110718399D01*
X124493543Y-110713087D01*
X124513498Y-110485000D01*
X124493543Y-110256913D01*
X124434284Y-110035757D01*
X124420591Y-110006392D01*
X124339849Y-109833238D01*
X124339846Y-109833233D01*
X124337523Y-109828251D01*
X124221958Y-109663207D01*
X124209357Y-109645211D01*
X124209355Y-109645208D01*
X124206198Y-109640700D01*
X124044300Y-109478802D01*
X124039792Y-109475645D01*
X124039789Y-109475643D01*
X123961611Y-109420902D01*
X123856749Y-109347477D01*
X123851767Y-109345154D01*
X123851762Y-109345151D01*
X123817543Y-109329195D01*
X123764258Y-109282278D01*
X123744797Y-109214001D01*
X123765339Y-109146041D01*
X123817543Y-109100805D01*
X123851762Y-109084849D01*
X123851767Y-109084846D01*
X123856749Y-109082523D01*
X123987393Y-108991045D01*
X124039789Y-108954357D01*
X124039792Y-108954355D01*
X124044300Y-108951198D01*
X124206198Y-108789300D01*
X124213683Y-108778611D01*
X124316181Y-108632229D01*
X124371638Y-108587901D01*
X124419394Y-108578500D01*
X125346233Y-108578500D01*
X125357416Y-108579027D01*
X125364909Y-108580702D01*
X125372835Y-108580453D01*
X125372836Y-108580453D01*
X125432986Y-108578562D01*
X125436945Y-108578500D01*
X125464856Y-108578500D01*
X125468791Y-108578003D01*
X125468856Y-108577995D01*
X125480693Y-108577062D01*
X125512951Y-108576048D01*
X125516970Y-108575922D01*
X125524889Y-108575673D01*
X125544343Y-108570021D01*
X125563700Y-108566013D01*
X125575930Y-108564468D01*
X125575931Y-108564468D01*
X125583797Y-108563474D01*
X125591168Y-108560555D01*
X125591170Y-108560555D01*
X125624912Y-108547196D01*
X125636142Y-108543351D01*
X125670983Y-108533229D01*
X125670984Y-108533229D01*
X125678593Y-108531018D01*
X125685412Y-108526985D01*
X125685417Y-108526983D01*
X125696028Y-108520707D01*
X125713776Y-108512012D01*
X125732617Y-108504552D01*
X125768387Y-108478564D01*
X125778307Y-108472048D01*
X125809535Y-108453580D01*
X125809538Y-108453578D01*
X125816362Y-108449542D01*
X125830683Y-108435221D01*
X125845717Y-108422380D01*
X125855694Y-108415131D01*
X125862107Y-108410472D01*
X125890298Y-108376395D01*
X125898288Y-108367616D01*
X126905500Y-107360405D01*
X126967812Y-107326379D01*
X126994595Y-107323500D01*
X129468976Y-107323500D01*
X129537097Y-107343502D01*
G37*
%TD.AperFunction*%
%TA.AperFunction,NonConductor*%
G36*
X99065708Y-114943502D02*
G01*
X99112201Y-114997158D01*
X99122305Y-115067432D01*
X99111782Y-115102748D01*
X99105716Y-115115757D01*
X99046457Y-115336913D01*
X99026502Y-115565000D01*
X99046457Y-115793087D01*
X99047881Y-115798400D01*
X99047881Y-115798402D01*
X99100934Y-115996395D01*
X99105716Y-116014243D01*
X99108039Y-116019224D01*
X99108039Y-116019225D01*
X99200151Y-116216762D01*
X99200154Y-116216767D01*
X99202477Y-116221749D01*
X99205634Y-116226257D01*
X99318890Y-116388003D01*
X99333802Y-116409300D01*
X99495700Y-116571198D01*
X99500208Y-116574355D01*
X99500211Y-116574357D01*
X99578389Y-116629098D01*
X99683251Y-116702523D01*
X99688233Y-116704846D01*
X99688238Y-116704849D01*
X99722457Y-116720805D01*
X99775742Y-116767722D01*
X99795203Y-116835999D01*
X99774661Y-116903959D01*
X99722457Y-116949195D01*
X99688238Y-116965151D01*
X99688233Y-116965154D01*
X99683251Y-116967477D01*
X99606757Y-117021039D01*
X99500211Y-117095643D01*
X99500208Y-117095645D01*
X99495700Y-117098802D01*
X99333802Y-117260700D01*
X99330645Y-117265208D01*
X99330643Y-117265211D01*
X99223819Y-117417771D01*
X99168362Y-117462099D01*
X99120606Y-117471500D01*
X98769594Y-117471500D01*
X98701473Y-117451498D01*
X98680499Y-117434595D01*
X96384499Y-115138595D01*
X96350473Y-115076283D01*
X96355538Y-115005468D01*
X96398085Y-114948632D01*
X96464605Y-114923821D01*
X96473594Y-114923500D01*
X98997587Y-114923500D01*
X99065708Y-114943502D01*
G37*
%TD.AperFunction*%
%TA.AperFunction,NonConductor*%
G36*
X106704359Y-114903502D02*
G01*
X106750852Y-114957158D01*
X106760956Y-115027432D01*
X106750433Y-115062749D01*
X106731780Y-115102752D01*
X106725716Y-115115757D01*
X106724294Y-115121065D01*
X106724293Y-115121067D01*
X106667881Y-115331598D01*
X106666457Y-115336913D01*
X106646502Y-115565000D01*
X106666457Y-115793087D01*
X106667881Y-115798400D01*
X106667881Y-115798402D01*
X106720934Y-115996395D01*
X106725716Y-116014243D01*
X106728039Y-116019224D01*
X106728039Y-116019225D01*
X106820151Y-116216762D01*
X106820154Y-116216767D01*
X106822477Y-116221749D01*
X106825634Y-116226257D01*
X106891784Y-116320729D01*
X106914472Y-116388003D01*
X106897187Y-116456863D01*
X106845418Y-116505448D01*
X106788571Y-116519000D01*
X101821738Y-116519000D01*
X101821738Y-117622451D01*
X101801736Y-117690572D01*
X101748080Y-117737065D01*
X101677806Y-117747169D01*
X101613226Y-117717675D01*
X101577337Y-117665545D01*
X101575706Y-117661064D01*
X101574284Y-117655757D01*
X101541262Y-117584940D01*
X101479849Y-117453238D01*
X101479846Y-117453233D01*
X101477523Y-117448251D01*
X101359619Y-117279867D01*
X101349357Y-117265211D01*
X101349355Y-117265208D01*
X101346198Y-117260700D01*
X101184300Y-117098802D01*
X101179792Y-117095645D01*
X101179789Y-117095643D01*
X101073243Y-117021039D01*
X100996749Y-116967477D01*
X100991767Y-116965154D01*
X100991762Y-116965151D01*
X100957543Y-116949195D01*
X100904258Y-116902278D01*
X100884797Y-116834001D01*
X100905339Y-116766041D01*
X100957543Y-116720805D01*
X100991762Y-116704849D01*
X100991767Y-116704846D01*
X100996749Y-116702523D01*
X101101611Y-116629098D01*
X101179789Y-116574357D01*
X101179792Y-116574355D01*
X101184300Y-116571198D01*
X101346198Y-116409300D01*
X101361111Y-116388003D01*
X101474369Y-116226253D01*
X101477523Y-116221749D01*
X101545602Y-116075751D01*
X101573544Y-116037151D01*
X101575699Y-116035128D01*
X101582107Y-116030472D01*
X101587159Y-116024366D01*
X101610298Y-115996395D01*
X101618288Y-115987616D01*
X102685500Y-114920405D01*
X102747812Y-114886379D01*
X102774595Y-114883500D01*
X106636238Y-114883500D01*
X106704359Y-114903502D01*
G37*
%TD.AperFunction*%
%TA.AperFunction,NonConductor*%
G36*
X110514359Y-114903502D02*
G01*
X110560852Y-114957158D01*
X110570956Y-115027432D01*
X110560433Y-115062749D01*
X110541780Y-115102752D01*
X110535716Y-115115757D01*
X110534294Y-115121065D01*
X110534293Y-115121067D01*
X110477881Y-115331598D01*
X110476457Y-115336913D01*
X110456502Y-115565000D01*
X110476457Y-115793087D01*
X110477881Y-115798400D01*
X110477881Y-115798402D01*
X110530934Y-115996395D01*
X110535716Y-116014243D01*
X110538039Y-116019224D01*
X110538039Y-116019225D01*
X110630151Y-116216762D01*
X110630154Y-116216767D01*
X110632477Y-116221749D01*
X110635634Y-116226257D01*
X110748890Y-116388003D01*
X110763802Y-116409300D01*
X110925700Y-116571198D01*
X110930208Y-116574355D01*
X110930211Y-116574357D01*
X111008389Y-116629098D01*
X111113251Y-116702523D01*
X111118233Y-116704846D01*
X111118238Y-116704849D01*
X111152457Y-116720805D01*
X111205742Y-116767722D01*
X111225203Y-116835999D01*
X111204661Y-116903959D01*
X111152457Y-116949195D01*
X111118238Y-116965151D01*
X111118233Y-116965154D01*
X111113251Y-116967477D01*
X111036757Y-117021039D01*
X110930211Y-117095643D01*
X110930208Y-117095645D01*
X110925700Y-117098802D01*
X110763802Y-117260700D01*
X110760645Y-117265208D01*
X110760643Y-117265211D01*
X110750381Y-117279867D01*
X110632477Y-117448251D01*
X110630154Y-117453233D01*
X110630151Y-117453238D01*
X110551247Y-117622451D01*
X110535716Y-117655757D01*
X110476457Y-117876913D01*
X110456502Y-118105000D01*
X110476457Y-118333087D01*
X110477879Y-118338392D01*
X110477881Y-118338406D01*
X110493459Y-118396539D01*
X110491771Y-118467516D01*
X110460848Y-118518248D01*
X110242567Y-118736528D01*
X110029499Y-118949596D01*
X109967187Y-118983621D01*
X109940404Y-118986500D01*
X109182194Y-118986500D01*
X109114073Y-118966498D01*
X109067580Y-118912842D01*
X109057476Y-118842568D01*
X109078982Y-118788228D01*
X109094365Y-118766259D01*
X109094366Y-118766257D01*
X109097523Y-118761749D01*
X109099846Y-118756767D01*
X109099849Y-118756762D01*
X109191961Y-118559225D01*
X109191961Y-118559224D01*
X109194284Y-118554243D01*
X109215079Y-118476638D01*
X109252119Y-118338402D01*
X109252119Y-118338400D01*
X109253543Y-118333087D01*
X109273498Y-118105000D01*
X109253543Y-117876913D01*
X109194284Y-117655757D01*
X109178753Y-117622451D01*
X109099849Y-117453238D01*
X109099846Y-117453233D01*
X109097523Y-117448251D01*
X108979619Y-117279867D01*
X108969357Y-117265211D01*
X108969355Y-117265208D01*
X108966198Y-117260700D01*
X108804300Y-117098802D01*
X108799792Y-117095645D01*
X108799789Y-117095643D01*
X108693243Y-117021039D01*
X108616749Y-116967477D01*
X108611767Y-116965154D01*
X108611762Y-116965151D01*
X108577543Y-116949195D01*
X108524258Y-116902278D01*
X108504797Y-116834001D01*
X108525339Y-116766041D01*
X108577543Y-116720805D01*
X108611762Y-116704849D01*
X108611767Y-116704846D01*
X108616749Y-116702523D01*
X108721611Y-116629098D01*
X108799789Y-116574357D01*
X108799792Y-116574355D01*
X108804300Y-116571198D01*
X108966198Y-116409300D01*
X108981111Y-116388003D01*
X109094366Y-116226257D01*
X109097523Y-116221749D01*
X109099846Y-116216767D01*
X109099849Y-116216762D01*
X109191961Y-116019225D01*
X109191961Y-116019224D01*
X109194284Y-116014243D01*
X109199067Y-115996395D01*
X109252119Y-115798402D01*
X109252119Y-115798400D01*
X109253543Y-115793087D01*
X109273498Y-115565000D01*
X109253543Y-115336913D01*
X109252119Y-115331598D01*
X109195707Y-115121067D01*
X109195706Y-115121065D01*
X109194284Y-115115757D01*
X109188220Y-115102752D01*
X109169567Y-115062749D01*
X109158906Y-114992557D01*
X109187887Y-114927745D01*
X109247307Y-114888889D01*
X109283762Y-114883500D01*
X110446238Y-114883500D01*
X110514359Y-114903502D01*
G37*
%TD.AperFunction*%
%TA.AperFunction,NonConductor*%
G36*
X122144872Y-108749514D02*
G01*
X122189375Y-108783279D01*
X122190649Y-108784797D01*
X122193802Y-108789300D01*
X122355700Y-108951198D01*
X122360208Y-108954355D01*
X122360211Y-108954357D01*
X122412607Y-108991045D01*
X122543251Y-109082523D01*
X122548233Y-109084846D01*
X122548238Y-109084849D01*
X122582457Y-109100805D01*
X122635742Y-109147722D01*
X122655203Y-109215999D01*
X122634661Y-109283959D01*
X122582457Y-109329195D01*
X122548238Y-109345151D01*
X122548233Y-109345154D01*
X122543251Y-109347477D01*
X122438389Y-109420902D01*
X122360211Y-109475643D01*
X122360208Y-109475645D01*
X122355700Y-109478802D01*
X122193802Y-109640700D01*
X122190645Y-109645208D01*
X122190643Y-109645211D01*
X122178042Y-109663207D01*
X122062477Y-109828251D01*
X122060154Y-109833233D01*
X122060151Y-109833238D01*
X121979409Y-110006392D01*
X121965716Y-110035757D01*
X121906457Y-110256913D01*
X121886502Y-110485000D01*
X121906457Y-110713087D01*
X121907880Y-110718399D01*
X121907881Y-110718402D01*
X121950616Y-110877888D01*
X121965716Y-110934243D01*
X121968039Y-110939224D01*
X121968039Y-110939225D01*
X122060151Y-111136762D01*
X122060154Y-111136767D01*
X122062477Y-111141749D01*
X122128074Y-111235431D01*
X122186441Y-111318787D01*
X122193802Y-111329300D01*
X122355700Y-111491198D01*
X122360208Y-111494355D01*
X122360211Y-111494357D01*
X122411072Y-111529970D01*
X122543251Y-111622523D01*
X122548233Y-111624846D01*
X122548238Y-111624849D01*
X122582457Y-111640805D01*
X122635742Y-111687722D01*
X122655203Y-111755999D01*
X122634661Y-111823959D01*
X122582457Y-111869195D01*
X122548238Y-111885151D01*
X122548233Y-111885154D01*
X122543251Y-111887477D01*
X122442801Y-111957813D01*
X122360211Y-112015643D01*
X122360208Y-112015645D01*
X122355700Y-112018802D01*
X122193802Y-112180700D01*
X122190645Y-112185208D01*
X122190643Y-112185211D01*
X122149128Y-112244501D01*
X122062477Y-112368251D01*
X122060154Y-112373233D01*
X122060151Y-112373238D01*
X121970537Y-112565419D01*
X121965716Y-112575757D01*
X121964294Y-112581065D01*
X121964293Y-112581067D01*
X121916053Y-112761101D01*
X121906457Y-112796913D01*
X121886502Y-113025000D01*
X121906457Y-113253087D01*
X121965716Y-113474243D01*
X121968039Y-113479224D01*
X121968039Y-113479225D01*
X122060151Y-113676762D01*
X122060154Y-113676767D01*
X122062477Y-113681749D01*
X122193802Y-113869300D01*
X122355700Y-114031198D01*
X122360208Y-114034355D01*
X122360211Y-114034357D01*
X122438389Y-114089098D01*
X122543251Y-114162523D01*
X122548233Y-114164846D01*
X122548238Y-114164849D01*
X122582457Y-114180805D01*
X122635742Y-114227722D01*
X122655203Y-114295999D01*
X122634661Y-114363959D01*
X122582457Y-114409195D01*
X122548238Y-114425151D01*
X122548233Y-114425154D01*
X122543251Y-114427477D01*
X122438389Y-114500902D01*
X122360211Y-114555643D01*
X122360208Y-114555645D01*
X122355700Y-114558802D01*
X122193802Y-114720700D01*
X122062477Y-114908251D01*
X122060154Y-114913233D01*
X122060151Y-114913238D01*
X122021019Y-114997158D01*
X121965716Y-115115757D01*
X121964294Y-115121065D01*
X121964293Y-115121067D01*
X121907881Y-115331598D01*
X121906457Y-115336913D01*
X121886502Y-115565000D01*
X121906457Y-115793087D01*
X121907881Y-115798400D01*
X121907881Y-115798402D01*
X121960934Y-115996395D01*
X121965716Y-116014243D01*
X121968039Y-116019224D01*
X121968039Y-116019225D01*
X122060151Y-116216762D01*
X122060154Y-116216767D01*
X122062477Y-116221749D01*
X122065634Y-116226257D01*
X122178890Y-116388003D01*
X122193802Y-116409300D01*
X122355700Y-116571198D01*
X122360208Y-116574355D01*
X122360211Y-116574357D01*
X122438389Y-116629098D01*
X122543251Y-116702523D01*
X122548233Y-116704846D01*
X122548238Y-116704849D01*
X122582457Y-116720805D01*
X122635742Y-116767722D01*
X122655203Y-116835999D01*
X122634661Y-116903959D01*
X122582457Y-116949195D01*
X122548238Y-116965151D01*
X122548233Y-116965154D01*
X122543251Y-116967477D01*
X122466757Y-117021039D01*
X122360211Y-117095643D01*
X122360208Y-117095645D01*
X122355700Y-117098802D01*
X122193802Y-117260700D01*
X122190645Y-117265208D01*
X122190643Y-117265211D01*
X122180381Y-117279867D01*
X122062477Y-117448251D01*
X122060154Y-117453233D01*
X122060151Y-117453238D01*
X121981247Y-117622451D01*
X121965716Y-117655757D01*
X121906457Y-117876913D01*
X121886502Y-118105000D01*
X121906457Y-118333087D01*
X121907879Y-118338392D01*
X121907881Y-118338406D01*
X121923459Y-118396539D01*
X121921771Y-118467516D01*
X121890848Y-118518248D01*
X121672567Y-118736528D01*
X121459499Y-118949596D01*
X121397187Y-118983621D01*
X121370404Y-118986500D01*
X120612194Y-118986500D01*
X120544073Y-118966498D01*
X120497580Y-118912842D01*
X120487476Y-118842568D01*
X120508982Y-118788228D01*
X120524365Y-118766259D01*
X120524366Y-118766257D01*
X120527523Y-118761749D01*
X120529846Y-118756767D01*
X120529849Y-118756762D01*
X120621961Y-118559225D01*
X120621961Y-118559224D01*
X120624284Y-118554243D01*
X120645079Y-118476638D01*
X120682119Y-118338402D01*
X120682119Y-118338400D01*
X120683543Y-118333087D01*
X120703498Y-118105000D01*
X120683543Y-117876913D01*
X120624284Y-117655757D01*
X120608753Y-117622451D01*
X120529849Y-117453238D01*
X120529846Y-117453233D01*
X120527523Y-117448251D01*
X120409619Y-117279867D01*
X120399357Y-117265211D01*
X120399355Y-117265208D01*
X120396198Y-117260700D01*
X120234300Y-117098802D01*
X120229792Y-117095645D01*
X120229789Y-117095643D01*
X120123243Y-117021039D01*
X120046749Y-116967477D01*
X120041767Y-116965154D01*
X120041762Y-116965151D01*
X120007543Y-116949195D01*
X119954258Y-116902278D01*
X119934797Y-116834001D01*
X119955339Y-116766041D01*
X120007543Y-116720805D01*
X120041762Y-116704849D01*
X120041767Y-116704846D01*
X120046749Y-116702523D01*
X120151611Y-116629098D01*
X120229789Y-116574357D01*
X120229792Y-116574355D01*
X120234300Y-116571198D01*
X120396198Y-116409300D01*
X120411111Y-116388003D01*
X120524366Y-116226257D01*
X120527523Y-116221749D01*
X120529846Y-116216767D01*
X120529849Y-116216762D01*
X120621961Y-116019225D01*
X120621961Y-116019224D01*
X120624284Y-116014243D01*
X120629067Y-115996395D01*
X120682119Y-115798402D01*
X120682119Y-115798400D01*
X120683543Y-115793087D01*
X120703498Y-115565000D01*
X120683543Y-115336913D01*
X120682119Y-115331598D01*
X120625707Y-115121067D01*
X120625706Y-115121065D01*
X120624284Y-115115757D01*
X120568981Y-114997158D01*
X120529849Y-114913238D01*
X120529846Y-114913233D01*
X120527523Y-114908251D01*
X120396198Y-114720700D01*
X120234300Y-114558802D01*
X120229792Y-114555645D01*
X120229789Y-114555643D01*
X120151611Y-114500902D01*
X120046749Y-114427477D01*
X120041767Y-114425154D01*
X120041762Y-114425151D01*
X120007543Y-114409195D01*
X119954258Y-114362278D01*
X119934797Y-114294001D01*
X119955339Y-114226041D01*
X120007543Y-114180805D01*
X120041762Y-114164849D01*
X120041767Y-114164846D01*
X120046749Y-114162523D01*
X120151611Y-114089098D01*
X120229789Y-114034357D01*
X120229792Y-114034355D01*
X120234300Y-114031198D01*
X120396198Y-113869300D01*
X120527523Y-113681749D01*
X120529846Y-113676767D01*
X120529849Y-113676762D01*
X120621961Y-113479225D01*
X120621961Y-113479224D01*
X120624284Y-113474243D01*
X120683543Y-113253087D01*
X120703498Y-113025000D01*
X120683543Y-112796913D01*
X120673947Y-112761101D01*
X120625707Y-112581067D01*
X120625706Y-112581065D01*
X120624284Y-112575757D01*
X120619463Y-112565419D01*
X120529849Y-112373238D01*
X120529846Y-112373233D01*
X120527523Y-112368251D01*
X120440872Y-112244501D01*
X120399357Y-112185211D01*
X120399355Y-112185208D01*
X120396198Y-112180700D01*
X120234300Y-112018802D01*
X120229792Y-112015645D01*
X120229789Y-112015643D01*
X120147199Y-111957813D01*
X120046749Y-111887477D01*
X120041767Y-111885154D01*
X120041762Y-111885151D01*
X120007543Y-111869195D01*
X119954258Y-111822278D01*
X119934797Y-111754001D01*
X119955339Y-111686041D01*
X120007543Y-111640805D01*
X120041762Y-111624849D01*
X120041767Y-111624846D01*
X120046749Y-111622523D01*
X120178928Y-111529970D01*
X120229789Y-111494357D01*
X120229792Y-111494355D01*
X120234300Y-111491198D01*
X120396198Y-111329300D01*
X120403560Y-111318787D01*
X120461926Y-111235431D01*
X120527523Y-111141749D01*
X120529846Y-111136767D01*
X120529849Y-111136762D01*
X120621961Y-110939225D01*
X120621961Y-110939224D01*
X120624284Y-110934243D01*
X120639385Y-110877888D01*
X120682119Y-110718402D01*
X120682120Y-110718399D01*
X120683543Y-110713087D01*
X120703498Y-110485000D01*
X120683543Y-110256913D01*
X120624284Y-110035757D01*
X120621607Y-110030016D01*
X120604230Y-109992749D01*
X120593569Y-109922557D01*
X120622550Y-109857745D01*
X120681970Y-109818889D01*
X120718425Y-109813500D01*
X120751233Y-109813500D01*
X120762416Y-109814027D01*
X120769909Y-109815702D01*
X120777835Y-109815453D01*
X120777836Y-109815453D01*
X120837986Y-109813562D01*
X120841945Y-109813500D01*
X120869856Y-109813500D01*
X120873791Y-109813003D01*
X120873856Y-109812995D01*
X120885693Y-109812062D01*
X120917951Y-109811048D01*
X120921970Y-109810922D01*
X120929889Y-109810673D01*
X120949343Y-109805021D01*
X120968700Y-109801013D01*
X120980930Y-109799468D01*
X120980931Y-109799468D01*
X120988797Y-109798474D01*
X120996168Y-109795555D01*
X120996170Y-109795555D01*
X121029912Y-109782196D01*
X121041142Y-109778351D01*
X121075983Y-109768229D01*
X121075984Y-109768229D01*
X121083593Y-109766018D01*
X121090412Y-109761985D01*
X121090417Y-109761983D01*
X121101028Y-109755707D01*
X121118776Y-109747012D01*
X121137617Y-109739552D01*
X121173387Y-109713564D01*
X121183307Y-109707048D01*
X121214535Y-109688580D01*
X121214538Y-109688578D01*
X121221362Y-109684542D01*
X121235683Y-109670221D01*
X121250717Y-109657380D01*
X121267107Y-109645472D01*
X121295298Y-109611395D01*
X121303288Y-109602616D01*
X121752247Y-109153657D01*
X121760537Y-109146113D01*
X121767018Y-109142000D01*
X121813659Y-109092332D01*
X121816413Y-109089491D01*
X121836134Y-109069770D01*
X121838612Y-109066575D01*
X121846318Y-109057553D01*
X121871158Y-109031101D01*
X121876586Y-109025321D01*
X121886346Y-109007568D01*
X121897199Y-108991045D01*
X121904753Y-108981306D01*
X121909613Y-108975041D01*
X121927176Y-108934457D01*
X121932383Y-108923827D01*
X121953695Y-108885060D01*
X121955666Y-108877383D01*
X121955668Y-108877378D01*
X121958732Y-108865442D01*
X121965138Y-108846730D01*
X121970032Y-108835421D01*
X121973181Y-108828145D01*
X121973410Y-108826701D01*
X122010073Y-108769290D01*
X122074569Y-108739611D01*
X122144872Y-108749514D01*
G37*
%TD.AperFunction*%
%TA.AperFunction,NonConductor*%
G36*
X142943621Y-84348502D02*
G01*
X142990114Y-84402158D01*
X143001500Y-84454500D01*
X143001500Y-121285500D01*
X142981498Y-121353621D01*
X142927842Y-121400114D01*
X142875500Y-121411500D01*
X88264500Y-121411500D01*
X88196379Y-121391498D01*
X88149886Y-121337842D01*
X88138500Y-121285500D01*
X88138500Y-118217655D01*
X89679858Y-118217655D01*
X89715104Y-118476638D01*
X89716412Y-118481124D01*
X89716412Y-118481126D01*
X89729615Y-118526424D01*
X89788243Y-118727567D01*
X89897668Y-118964928D01*
X89900231Y-118968837D01*
X90038410Y-119179596D01*
X90038414Y-119179601D01*
X90040976Y-119183509D01*
X90215018Y-119378506D01*
X90415970Y-119545637D01*
X90422054Y-119549329D01*
X90635422Y-119678804D01*
X90635426Y-119678806D01*
X90639419Y-119681229D01*
X90880455Y-119782303D01*
X91133783Y-119846641D01*
X91138434Y-119847109D01*
X91138438Y-119847110D01*
X91331308Y-119866531D01*
X91350867Y-119868500D01*
X91506354Y-119868500D01*
X91508679Y-119868327D01*
X91508685Y-119868327D01*
X91696000Y-119854407D01*
X91696004Y-119854406D01*
X91700652Y-119854061D01*
X91705200Y-119853032D01*
X91705206Y-119853031D01*
X91891601Y-119810853D01*
X91955577Y-119796377D01*
X91991769Y-119782303D01*
X92194824Y-119703340D01*
X92194827Y-119703339D01*
X92199177Y-119701647D01*
X92426098Y-119571951D01*
X92631357Y-119410138D01*
X92810443Y-119219763D01*
X92959424Y-119005009D01*
X92968552Y-118986500D01*
X93072960Y-118774781D01*
X93072961Y-118774778D01*
X93075025Y-118770593D01*
X93088818Y-118727505D01*
X93153280Y-118526123D01*
X93154707Y-118521665D01*
X93196721Y-118263693D01*
X93200142Y-118002345D01*
X93164896Y-117743362D01*
X93150473Y-117693877D01*
X93140909Y-117661067D01*
X93091757Y-117492433D01*
X92982332Y-117255072D01*
X92944563Y-117197465D01*
X92841590Y-117040404D01*
X92841586Y-117040399D01*
X92839024Y-117036491D01*
X92664982Y-116841494D01*
X92464030Y-116674363D01*
X92299225Y-116574357D01*
X92244578Y-116541196D01*
X92244574Y-116541194D01*
X92240581Y-116538771D01*
X91999545Y-116437697D01*
X91746217Y-116373359D01*
X91741566Y-116372891D01*
X91741562Y-116372890D01*
X91532271Y-116351816D01*
X91529133Y-116351500D01*
X91373646Y-116351500D01*
X91371321Y-116351673D01*
X91371315Y-116351673D01*
X91184000Y-116365593D01*
X91183996Y-116365594D01*
X91179348Y-116365939D01*
X91174800Y-116366968D01*
X91174794Y-116366969D01*
X91007657Y-116404789D01*
X90924423Y-116423623D01*
X90920071Y-116425315D01*
X90920069Y-116425316D01*
X90685176Y-116516660D01*
X90685173Y-116516661D01*
X90680823Y-116518353D01*
X90453902Y-116648049D01*
X90248643Y-116809862D01*
X90069557Y-117000237D01*
X89920576Y-117214991D01*
X89918510Y-117219181D01*
X89918508Y-117219184D01*
X89829462Y-117399753D01*
X89804975Y-117449407D01*
X89803553Y-117453850D01*
X89803552Y-117453852D01*
X89735789Y-117665545D01*
X89725293Y-117698335D01*
X89683279Y-117956307D01*
X89679858Y-118217655D01*
X88138500Y-118217655D01*
X88138500Y-113233561D01*
X88158502Y-113165440D01*
X88212158Y-113118947D01*
X88280310Y-113109148D01*
X88280310Y-113111000D01*
X91499691Y-113111000D01*
X91499691Y-112349785D01*
X91519693Y-112281664D01*
X91573349Y-112235171D01*
X91643623Y-112225067D01*
X91708203Y-112254561D01*
X91714786Y-112260690D01*
X95013620Y-115559525D01*
X97951348Y-118497253D01*
X97958888Y-118505539D01*
X97963000Y-118512018D01*
X97968777Y-118517443D01*
X98012651Y-118558643D01*
X98015493Y-118561398D01*
X98035230Y-118581135D01*
X98038427Y-118583615D01*
X98047447Y-118591318D01*
X98079679Y-118621586D01*
X98086625Y-118625405D01*
X98086628Y-118625407D01*
X98097434Y-118631348D01*
X98113953Y-118642199D01*
X98129959Y-118654614D01*
X98137228Y-118657759D01*
X98137232Y-118657762D01*
X98170537Y-118672174D01*
X98181187Y-118677391D01*
X98219940Y-118698695D01*
X98227615Y-118700666D01*
X98227616Y-118700666D01*
X98239562Y-118703733D01*
X98258267Y-118710137D01*
X98276855Y-118718181D01*
X98284678Y-118719420D01*
X98284688Y-118719423D01*
X98320524Y-118725099D01*
X98332144Y-118727505D01*
X98367289Y-118736528D01*
X98374970Y-118738500D01*
X98395224Y-118738500D01*
X98414934Y-118740051D01*
X98434943Y-118743220D01*
X98442835Y-118742474D01*
X98478961Y-118739059D01*
X98490819Y-118738500D01*
X99120606Y-118738500D01*
X99188727Y-118758502D01*
X99223819Y-118792229D01*
X99330643Y-118944789D01*
X99333802Y-118949300D01*
X99495700Y-119111198D01*
X99500208Y-119114355D01*
X99500211Y-119114357D01*
X99578389Y-119169098D01*
X99683251Y-119242523D01*
X99688233Y-119244846D01*
X99688238Y-119244849D01*
X99885775Y-119336961D01*
X99890757Y-119339284D01*
X99896065Y-119340706D01*
X99896067Y-119340707D01*
X100106598Y-119397119D01*
X100106600Y-119397119D01*
X100111913Y-119398543D01*
X100340000Y-119418498D01*
X100345475Y-119418019D01*
X100345476Y-119418019D01*
X100513744Y-119403298D01*
X100583349Y-119417287D01*
X100613820Y-119439724D01*
X101186343Y-120012247D01*
X101193887Y-120020537D01*
X101198000Y-120027018D01*
X101203777Y-120032443D01*
X101247667Y-120073658D01*
X101250509Y-120076413D01*
X101270230Y-120096134D01*
X101273425Y-120098612D01*
X101282447Y-120106318D01*
X101314679Y-120136586D01*
X101321628Y-120140406D01*
X101332432Y-120146346D01*
X101348956Y-120157199D01*
X101364959Y-120169613D01*
X101405543Y-120187176D01*
X101416173Y-120192383D01*
X101454940Y-120213695D01*
X101462617Y-120215666D01*
X101462622Y-120215668D01*
X101474558Y-120218732D01*
X101493266Y-120225137D01*
X101511855Y-120233181D01*
X101519683Y-120234421D01*
X101519690Y-120234423D01*
X101555524Y-120240099D01*
X101567144Y-120242505D01*
X101598959Y-120250673D01*
X101609970Y-120253500D01*
X101630224Y-120253500D01*
X101649934Y-120255051D01*
X101669943Y-120258220D01*
X101677835Y-120257474D01*
X101689263Y-120256394D01*
X101713962Y-120254059D01*
X101725819Y-120253500D01*
X110218207Y-120253500D01*
X110241816Y-120255732D01*
X110242119Y-120255790D01*
X110242123Y-120255790D01*
X110249906Y-120257275D01*
X110305951Y-120253749D01*
X110313862Y-120253500D01*
X121606233Y-120253500D01*
X121617416Y-120254027D01*
X121624909Y-120255702D01*
X121632835Y-120255453D01*
X121632836Y-120255453D01*
X121692986Y-120253562D01*
X121696945Y-120253500D01*
X121724856Y-120253500D01*
X121728791Y-120253003D01*
X121728856Y-120252995D01*
X121740693Y-120252062D01*
X121772951Y-120251048D01*
X121776970Y-120250922D01*
X121784889Y-120250673D01*
X121804343Y-120245021D01*
X121823700Y-120241013D01*
X121835930Y-120239468D01*
X121835931Y-120239468D01*
X121843797Y-120238474D01*
X121851168Y-120235555D01*
X121851170Y-120235555D01*
X121884912Y-120222196D01*
X121896142Y-120218351D01*
X121930983Y-120208229D01*
X121930984Y-120208229D01*
X121938593Y-120206018D01*
X121945412Y-120201985D01*
X121945417Y-120201983D01*
X121956028Y-120195707D01*
X121973776Y-120187012D01*
X121992617Y-120179552D01*
X122012987Y-120164753D01*
X122028387Y-120153564D01*
X122038307Y-120147048D01*
X122069535Y-120128580D01*
X122069538Y-120128578D01*
X122076362Y-120124542D01*
X122090683Y-120110221D01*
X122105717Y-120097380D01*
X122107432Y-120096134D01*
X122122107Y-120085472D01*
X122150298Y-120051395D01*
X122158288Y-120042616D01*
X122786752Y-119414152D01*
X122849064Y-119380126D01*
X122908459Y-119381541D01*
X122966591Y-119397118D01*
X122966602Y-119397120D01*
X122971913Y-119398543D01*
X123200000Y-119418498D01*
X123428087Y-119398543D01*
X123433400Y-119397119D01*
X123433402Y-119397119D01*
X123643933Y-119340707D01*
X123643935Y-119340706D01*
X123649243Y-119339284D01*
X123654225Y-119336961D01*
X123851762Y-119244849D01*
X123851767Y-119244846D01*
X123856749Y-119242523D01*
X123961611Y-119169098D01*
X124039789Y-119114357D01*
X124039792Y-119114355D01*
X124044300Y-119111198D01*
X124206198Y-118949300D01*
X124212525Y-118940264D01*
X124267981Y-118895936D01*
X124338601Y-118888627D01*
X124401961Y-118920657D01*
X124437947Y-118981858D01*
X124441738Y-119012535D01*
X124441738Y-119551000D01*
X129518262Y-119551000D01*
X129518262Y-118926846D01*
X129538264Y-118858725D01*
X129591920Y-118812232D01*
X129662194Y-118802128D01*
X129726774Y-118831622D01*
X129747475Y-118854575D01*
X129807476Y-118940265D01*
X129813802Y-118949300D01*
X129975700Y-119111198D01*
X129980208Y-119114355D01*
X129980211Y-119114357D01*
X130058389Y-119169098D01*
X130163251Y-119242523D01*
X130168233Y-119244846D01*
X130168238Y-119244849D01*
X130365775Y-119336961D01*
X130370757Y-119339284D01*
X130376065Y-119340706D01*
X130376067Y-119340707D01*
X130586598Y-119397119D01*
X130586600Y-119397119D01*
X130591913Y-119398543D01*
X130820000Y-119418498D01*
X131048087Y-119398543D01*
X131053400Y-119397119D01*
X131053402Y-119397119D01*
X131263933Y-119340707D01*
X131263935Y-119340706D01*
X131269243Y-119339284D01*
X131274225Y-119336961D01*
X131471762Y-119244849D01*
X131471767Y-119244846D01*
X131476749Y-119242523D01*
X131581611Y-119169098D01*
X131659789Y-119114357D01*
X131659792Y-119114355D01*
X131664300Y-119111198D01*
X131826198Y-118949300D01*
X131832525Y-118940265D01*
X131929249Y-118802128D01*
X131957523Y-118761749D01*
X131959846Y-118756767D01*
X131959849Y-118756762D01*
X132051961Y-118559225D01*
X132051961Y-118559224D01*
X132054284Y-118554243D01*
X132075079Y-118476638D01*
X132112119Y-118338402D01*
X132112119Y-118338400D01*
X132113543Y-118333087D01*
X132123642Y-118217655D01*
X137939858Y-118217655D01*
X137975104Y-118476638D01*
X137976412Y-118481124D01*
X137976412Y-118481126D01*
X137989615Y-118526424D01*
X138048243Y-118727567D01*
X138157668Y-118964928D01*
X138160231Y-118968837D01*
X138298410Y-119179596D01*
X138298414Y-119179601D01*
X138300976Y-119183509D01*
X138475018Y-119378506D01*
X138675970Y-119545637D01*
X138682054Y-119549329D01*
X138895422Y-119678804D01*
X138895426Y-119678806D01*
X138899419Y-119681229D01*
X139140455Y-119782303D01*
X139393783Y-119846641D01*
X139398434Y-119847109D01*
X139398438Y-119847110D01*
X139591308Y-119866531D01*
X139610867Y-119868500D01*
X139766354Y-119868500D01*
X139768679Y-119868327D01*
X139768685Y-119868327D01*
X139956000Y-119854407D01*
X139956004Y-119854406D01*
X139960652Y-119854061D01*
X139965200Y-119853032D01*
X139965206Y-119853031D01*
X140151601Y-119810853D01*
X140215577Y-119796377D01*
X140251769Y-119782303D01*
X140454824Y-119703340D01*
X140454827Y-119703339D01*
X140459177Y-119701647D01*
X140686098Y-119571951D01*
X140891357Y-119410138D01*
X141070443Y-119219763D01*
X141219424Y-119005009D01*
X141228552Y-118986500D01*
X141332960Y-118774781D01*
X141332961Y-118774778D01*
X141335025Y-118770593D01*
X141348818Y-118727505D01*
X141413280Y-118526123D01*
X141414707Y-118521665D01*
X141456721Y-118263693D01*
X141460142Y-118002345D01*
X141424896Y-117743362D01*
X141410473Y-117693877D01*
X141400909Y-117661067D01*
X141351757Y-117492433D01*
X141242332Y-117255072D01*
X141204563Y-117197465D01*
X141101590Y-117040404D01*
X141101586Y-117040399D01*
X141099024Y-117036491D01*
X140924982Y-116841494D01*
X140724030Y-116674363D01*
X140559225Y-116574357D01*
X140504578Y-116541196D01*
X140504574Y-116541194D01*
X140500581Y-116538771D01*
X140259545Y-116437697D01*
X140006217Y-116373359D01*
X140001566Y-116372891D01*
X140001562Y-116372890D01*
X139792271Y-116351816D01*
X139789133Y-116351500D01*
X139633646Y-116351500D01*
X139631321Y-116351673D01*
X139631315Y-116351673D01*
X139444000Y-116365593D01*
X139443996Y-116365594D01*
X139439348Y-116365939D01*
X139434800Y-116366968D01*
X139434794Y-116366969D01*
X139267657Y-116404789D01*
X139184423Y-116423623D01*
X139180071Y-116425315D01*
X139180069Y-116425316D01*
X138945176Y-116516660D01*
X138945173Y-116516661D01*
X138940823Y-116518353D01*
X138713902Y-116648049D01*
X138508643Y-116809862D01*
X138329557Y-117000237D01*
X138180576Y-117214991D01*
X138178510Y-117219181D01*
X138178508Y-117219184D01*
X138089462Y-117399753D01*
X138064975Y-117449407D01*
X138063553Y-117453850D01*
X138063552Y-117453852D01*
X137995789Y-117665545D01*
X137985293Y-117698335D01*
X137943279Y-117956307D01*
X137939858Y-118217655D01*
X132123642Y-118217655D01*
X132133498Y-118105000D01*
X132113543Y-117876913D01*
X132054284Y-117655757D01*
X132038753Y-117622451D01*
X131959849Y-117453238D01*
X131959846Y-117453233D01*
X131957523Y-117448251D01*
X131839619Y-117279867D01*
X131829357Y-117265211D01*
X131829355Y-117265208D01*
X131826198Y-117260700D01*
X131664300Y-117098802D01*
X131659792Y-117095645D01*
X131659789Y-117095643D01*
X131553243Y-117021039D01*
X131476749Y-116967477D01*
X131471767Y-116965154D01*
X131471762Y-116965151D01*
X131437543Y-116949195D01*
X131384258Y-116902278D01*
X131364797Y-116834001D01*
X131385339Y-116766041D01*
X131437543Y-116720805D01*
X131471762Y-116704849D01*
X131471767Y-116704846D01*
X131476749Y-116702523D01*
X131581611Y-116629098D01*
X131659789Y-116574357D01*
X131659792Y-116574355D01*
X131664300Y-116571198D01*
X131826198Y-116409300D01*
X131841111Y-116388003D01*
X131954366Y-116226257D01*
X131957523Y-116221749D01*
X131959846Y-116216767D01*
X131959849Y-116216762D01*
X132051961Y-116019225D01*
X132051961Y-116019224D01*
X132054284Y-116014243D01*
X132059067Y-115996395D01*
X132112119Y-115798402D01*
X132112119Y-115798400D01*
X132113543Y-115793087D01*
X132133498Y-115565000D01*
X132113543Y-115336913D01*
X132112119Y-115331598D01*
X132055707Y-115121067D01*
X132055706Y-115121065D01*
X132054284Y-115115757D01*
X131998981Y-114997158D01*
X131959849Y-114913238D01*
X131959846Y-114913233D01*
X131957523Y-114908251D01*
X131826198Y-114720700D01*
X131664300Y-114558802D01*
X131659792Y-114555645D01*
X131659789Y-114555643D01*
X131581611Y-114500902D01*
X131476749Y-114427477D01*
X131471767Y-114425154D01*
X131471762Y-114425151D01*
X131437543Y-114409195D01*
X131384258Y-114362278D01*
X131364797Y-114294001D01*
X131385339Y-114226041D01*
X131437543Y-114180805D01*
X131471762Y-114164849D01*
X131471767Y-114164846D01*
X131476749Y-114162523D01*
X131581611Y-114089098D01*
X131659789Y-114034357D01*
X131659792Y-114034355D01*
X131664300Y-114031198D01*
X131826198Y-113869300D01*
X131957523Y-113681749D01*
X131959846Y-113676767D01*
X131959849Y-113676762D01*
X132051961Y-113479225D01*
X132051961Y-113479224D01*
X132054284Y-113474243D01*
X132113543Y-113253087D01*
X132133498Y-113025000D01*
X132127243Y-112953500D01*
X136503643Y-112953500D01*
X140556357Y-112953500D01*
X140556357Y-109146500D01*
X136503643Y-109146500D01*
X136503643Y-112953500D01*
X132127243Y-112953500D01*
X132113543Y-112796913D01*
X132103947Y-112761101D01*
X132055707Y-112581067D01*
X132055706Y-112581065D01*
X132054284Y-112575757D01*
X132049463Y-112565419D01*
X131959849Y-112373238D01*
X131959846Y-112373233D01*
X131957523Y-112368251D01*
X131870872Y-112244501D01*
X131829357Y-112185211D01*
X131829355Y-112185208D01*
X131826198Y-112180700D01*
X131664300Y-112018802D01*
X131659792Y-112015645D01*
X131659789Y-112015643D01*
X131577199Y-111957813D01*
X131476749Y-111887477D01*
X131471767Y-111885154D01*
X131471762Y-111885151D01*
X131437543Y-111869195D01*
X131384258Y-111822278D01*
X131364797Y-111754001D01*
X131385339Y-111686041D01*
X131437543Y-111640805D01*
X131471762Y-111624849D01*
X131471767Y-111624846D01*
X131476749Y-111622523D01*
X131608928Y-111529970D01*
X131659789Y-111494357D01*
X131659792Y-111494355D01*
X131664300Y-111491198D01*
X131826198Y-111329300D01*
X131833560Y-111318787D01*
X131891926Y-111235431D01*
X131957523Y-111141749D01*
X131959846Y-111136767D01*
X131959849Y-111136762D01*
X132051961Y-110939225D01*
X132051961Y-110939224D01*
X132054284Y-110934243D01*
X132069385Y-110877888D01*
X132112119Y-110718402D01*
X132112120Y-110718399D01*
X132113543Y-110713087D01*
X132133498Y-110485000D01*
X132113543Y-110256913D01*
X132054284Y-110035757D01*
X132040591Y-110006392D01*
X131959849Y-109833238D01*
X131959846Y-109833233D01*
X131957523Y-109828251D01*
X131841958Y-109663207D01*
X131829357Y-109645211D01*
X131829355Y-109645208D01*
X131826198Y-109640700D01*
X131664300Y-109478802D01*
X131659792Y-109475645D01*
X131659789Y-109475643D01*
X131581611Y-109420902D01*
X131476749Y-109347477D01*
X131471767Y-109345154D01*
X131471762Y-109345151D01*
X131437543Y-109329195D01*
X131384258Y-109282278D01*
X131364797Y-109214001D01*
X131385339Y-109146041D01*
X131437543Y-109100805D01*
X131471762Y-109084849D01*
X131471767Y-109084846D01*
X131476749Y-109082523D01*
X131607393Y-108991045D01*
X131659789Y-108954357D01*
X131659792Y-108954355D01*
X131664300Y-108951198D01*
X131826198Y-108789300D01*
X131851495Y-108753173D01*
X131919021Y-108656735D01*
X131957523Y-108601749D01*
X131959846Y-108596767D01*
X131959849Y-108596762D01*
X132051961Y-108399225D01*
X132051961Y-108399224D01*
X132054284Y-108394243D01*
X132056066Y-108387595D01*
X132112119Y-108178402D01*
X132112119Y-108178400D01*
X132113543Y-108173087D01*
X132133498Y-107945000D01*
X132113543Y-107716913D01*
X132103352Y-107678878D01*
X132055709Y-107501076D01*
X132054284Y-107495757D01*
X132052593Y-107492131D01*
X132048119Y-107421743D01*
X132082637Y-107359702D01*
X132145216Y-107326171D01*
X132171024Y-107323500D01*
X134291233Y-107323500D01*
X134302416Y-107324027D01*
X134309909Y-107325702D01*
X134317835Y-107325453D01*
X134317836Y-107325453D01*
X134377986Y-107323562D01*
X134381945Y-107323500D01*
X134409856Y-107323500D01*
X134413791Y-107323003D01*
X134413856Y-107322995D01*
X134425693Y-107322062D01*
X134457951Y-107321048D01*
X134461970Y-107320922D01*
X134469889Y-107320673D01*
X134489343Y-107315021D01*
X134508700Y-107311013D01*
X134520930Y-107309468D01*
X134520931Y-107309468D01*
X134528797Y-107308474D01*
X134536168Y-107305555D01*
X134536170Y-107305555D01*
X134569912Y-107292196D01*
X134581142Y-107288351D01*
X134615983Y-107278229D01*
X134615984Y-107278229D01*
X134623593Y-107276018D01*
X134630412Y-107271985D01*
X134630417Y-107271983D01*
X134641028Y-107265707D01*
X134658776Y-107257012D01*
X134677617Y-107249552D01*
X134689858Y-107240659D01*
X134713387Y-107223564D01*
X134723307Y-107217048D01*
X134754535Y-107198580D01*
X134754538Y-107198578D01*
X134761362Y-107194542D01*
X134775683Y-107180221D01*
X134790717Y-107167380D01*
X134807107Y-107155472D01*
X134835298Y-107121395D01*
X134843288Y-107112616D01*
X137952247Y-104003657D01*
X137960537Y-103996113D01*
X137967018Y-103992000D01*
X138013659Y-103942332D01*
X138016413Y-103939491D01*
X138036134Y-103919770D01*
X138038612Y-103916575D01*
X138046318Y-103907553D01*
X138071158Y-103881101D01*
X138076586Y-103875321D01*
X138086346Y-103857568D01*
X138097199Y-103841045D01*
X138104753Y-103831306D01*
X138109613Y-103825041D01*
X138127176Y-103784457D01*
X138132383Y-103773827D01*
X138153695Y-103735060D01*
X138155666Y-103727383D01*
X138155668Y-103727378D01*
X138158732Y-103715442D01*
X138165138Y-103696730D01*
X138170033Y-103685419D01*
X138173181Y-103678145D01*
X138174421Y-103670317D01*
X138174423Y-103670310D01*
X138180099Y-103634476D01*
X138182505Y-103622856D01*
X138191528Y-103587711D01*
X138191528Y-103587710D01*
X138193500Y-103580030D01*
X138193500Y-103559776D01*
X138195051Y-103540065D01*
X138196980Y-103527886D01*
X138198220Y-103520057D01*
X138194059Y-103476038D01*
X138193500Y-103464181D01*
X138193500Y-103266643D01*
X138213502Y-103198522D01*
X138267158Y-103152029D01*
X138319500Y-103140643D01*
X141823500Y-103140643D01*
X141823500Y-92659357D01*
X138078649Y-92659357D01*
X138010528Y-92639355D01*
X137998330Y-92630439D01*
X137991392Y-92624699D01*
X137982616Y-92616712D01*
X133103560Y-87737655D01*
X137939858Y-87737655D01*
X137975104Y-87996638D01*
X137976412Y-88001124D01*
X137976412Y-88001126D01*
X137991604Y-88053248D01*
X138048243Y-88247567D01*
X138157668Y-88484928D01*
X138160231Y-88488837D01*
X138298410Y-88699596D01*
X138298414Y-88699601D01*
X138300976Y-88703509D01*
X138475018Y-88898506D01*
X138675970Y-89065637D01*
X138679973Y-89068066D01*
X138895422Y-89198804D01*
X138895426Y-89198806D01*
X138899419Y-89201229D01*
X139140455Y-89302303D01*
X139393783Y-89366641D01*
X139398434Y-89367109D01*
X139398438Y-89367110D01*
X139591308Y-89386531D01*
X139610867Y-89388500D01*
X139766354Y-89388500D01*
X139768679Y-89388327D01*
X139768685Y-89388327D01*
X139956000Y-89374407D01*
X139956004Y-89374406D01*
X139960652Y-89374061D01*
X139965200Y-89373032D01*
X139965206Y-89373031D01*
X140151601Y-89330853D01*
X140215577Y-89316377D01*
X140251769Y-89302303D01*
X140454824Y-89223340D01*
X140454827Y-89223339D01*
X140459177Y-89221647D01*
X140686098Y-89091951D01*
X140891357Y-88930138D01*
X141070443Y-88739763D01*
X141219424Y-88525009D01*
X141221492Y-88520816D01*
X141332960Y-88294781D01*
X141332961Y-88294778D01*
X141335025Y-88290593D01*
X141340497Y-88273500D01*
X141413280Y-88046123D01*
X141414707Y-88041665D01*
X141456721Y-87783693D01*
X141460142Y-87522345D01*
X141424896Y-87263362D01*
X141410473Y-87213877D01*
X141395189Y-87161441D01*
X141351757Y-87012433D01*
X141242332Y-86775072D01*
X141207723Y-86722285D01*
X141101590Y-86560404D01*
X141101586Y-86560399D01*
X141099024Y-86556491D01*
X140924982Y-86361494D01*
X140724030Y-86194363D01*
X140676844Y-86165730D01*
X140504578Y-86061196D01*
X140504574Y-86061194D01*
X140500581Y-86058771D01*
X140259545Y-85957697D01*
X140006217Y-85893359D01*
X140001566Y-85892891D01*
X140001562Y-85892890D01*
X139792271Y-85871816D01*
X139789133Y-85871500D01*
X139633646Y-85871500D01*
X139631321Y-85871673D01*
X139631315Y-85871673D01*
X139444000Y-85885593D01*
X139443996Y-85885594D01*
X139439348Y-85885939D01*
X139434800Y-85886968D01*
X139434794Y-85886969D01*
X139248399Y-85929147D01*
X139184423Y-85943623D01*
X139180071Y-85945315D01*
X139180069Y-85945316D01*
X138945176Y-86036660D01*
X138945173Y-86036661D01*
X138940823Y-86038353D01*
X138713902Y-86168049D01*
X138508643Y-86329862D01*
X138329557Y-86520237D01*
X138233868Y-86658171D01*
X138184258Y-86729684D01*
X138180576Y-86734991D01*
X138178510Y-86739181D01*
X138178508Y-86739184D01*
X138124392Y-86848922D01*
X138064975Y-86969407D01*
X138063553Y-86973850D01*
X138063552Y-86973852D01*
X138020330Y-87108879D01*
X137985293Y-87218335D01*
X137943279Y-87476307D01*
X137939858Y-87737655D01*
X133103560Y-87737655D01*
X132613652Y-87247747D01*
X132606112Y-87239461D01*
X132602000Y-87232982D01*
X132552348Y-87186356D01*
X132549507Y-87183602D01*
X132529770Y-87163865D01*
X132526573Y-87161385D01*
X132517551Y-87153680D01*
X132491100Y-87128841D01*
X132485321Y-87123414D01*
X132478375Y-87119595D01*
X132478372Y-87119593D01*
X132467566Y-87113652D01*
X132451047Y-87102801D01*
X132450583Y-87102441D01*
X132435041Y-87090386D01*
X132427772Y-87087241D01*
X132427768Y-87087238D01*
X132394463Y-87072826D01*
X132383813Y-87067609D01*
X132345060Y-87046305D01*
X132325437Y-87041267D01*
X132306734Y-87034863D01*
X132295420Y-87029967D01*
X132295419Y-87029967D01*
X132288145Y-87026819D01*
X132280322Y-87025580D01*
X132280312Y-87025577D01*
X132244476Y-87019901D01*
X132232856Y-87017495D01*
X132197711Y-87008472D01*
X132197710Y-87008472D01*
X132190030Y-87006500D01*
X132169776Y-87006500D01*
X132150065Y-87004949D01*
X132137886Y-87003020D01*
X132130057Y-87001780D01*
X132122165Y-87002526D01*
X132086039Y-87005941D01*
X132074181Y-87006500D01*
X124629500Y-87006500D01*
X124561379Y-86986498D01*
X124514886Y-86932842D01*
X124503500Y-86880500D01*
X124503500Y-86791866D01*
X124496745Y-86729684D01*
X124445615Y-86593295D01*
X124358261Y-86476739D01*
X124241705Y-86389385D01*
X124105316Y-86338255D01*
X124043134Y-86331500D01*
X122346866Y-86331500D01*
X122284684Y-86338255D01*
X122148295Y-86389385D01*
X122031739Y-86476739D01*
X121944385Y-86593295D01*
X121893255Y-86729684D01*
X121892083Y-86740474D01*
X121891197Y-86742606D01*
X121890575Y-86745222D01*
X121890152Y-86745121D01*
X121864845Y-86806035D01*
X121806483Y-86846463D01*
X121735529Y-86848922D01*
X121674510Y-86812629D01*
X121667511Y-86803969D01*
X121664354Y-86800207D01*
X121661198Y-86795700D01*
X121499300Y-86633802D01*
X121494792Y-86630645D01*
X121494789Y-86630643D01*
X121388889Y-86556491D01*
X121311749Y-86502477D01*
X121306767Y-86500154D01*
X121306762Y-86500151D01*
X121109225Y-86408039D01*
X121109224Y-86408039D01*
X121104243Y-86405716D01*
X121098935Y-86404294D01*
X121098933Y-86404293D01*
X120888402Y-86347881D01*
X120888400Y-86347881D01*
X120883087Y-86346457D01*
X120655000Y-86326502D01*
X120426913Y-86346457D01*
X120421600Y-86347881D01*
X120421598Y-86347881D01*
X120211067Y-86404293D01*
X120211065Y-86404294D01*
X120205757Y-86405716D01*
X120200776Y-86408039D01*
X120200775Y-86408039D01*
X120003238Y-86500151D01*
X120003233Y-86500154D01*
X119998251Y-86502477D01*
X119921111Y-86556491D01*
X119815211Y-86630643D01*
X119815208Y-86630645D01*
X119810700Y-86633802D01*
X119648802Y-86795700D01*
X119517477Y-86983251D01*
X119515154Y-86988233D01*
X119515151Y-86988238D01*
X119499195Y-87022457D01*
X119452278Y-87075742D01*
X119384001Y-87095203D01*
X119316041Y-87074661D01*
X119270805Y-87022457D01*
X119254849Y-86988238D01*
X119254846Y-86988233D01*
X119252523Y-86983251D01*
X119121198Y-86795700D01*
X118959300Y-86633802D01*
X118954792Y-86630645D01*
X118954789Y-86630643D01*
X118848889Y-86556491D01*
X118771749Y-86502477D01*
X118766767Y-86500154D01*
X118766762Y-86500151D01*
X118569225Y-86408039D01*
X118569224Y-86408039D01*
X118564243Y-86405716D01*
X118558935Y-86404294D01*
X118558933Y-86404293D01*
X118348402Y-86347881D01*
X118348400Y-86347881D01*
X118343087Y-86346457D01*
X118115000Y-86326502D01*
X117886913Y-86346457D01*
X117881600Y-86347881D01*
X117881598Y-86347881D01*
X117671067Y-86404293D01*
X117671065Y-86404294D01*
X117665757Y-86405716D01*
X117660776Y-86408039D01*
X117660775Y-86408039D01*
X117463238Y-86500151D01*
X117463233Y-86500154D01*
X117458251Y-86502477D01*
X117381111Y-86556491D01*
X117275211Y-86630643D01*
X117275208Y-86630645D01*
X117270700Y-86633802D01*
X117108802Y-86795700D01*
X116977477Y-86983251D01*
X116975154Y-86988233D01*
X116975151Y-86988238D01*
X116959195Y-87022457D01*
X116912278Y-87075742D01*
X116844001Y-87095203D01*
X116776041Y-87074661D01*
X116730805Y-87022457D01*
X116714849Y-86988238D01*
X116714846Y-86988233D01*
X116712523Y-86983251D01*
X116581198Y-86795700D01*
X116419300Y-86633802D01*
X116414792Y-86630645D01*
X116414789Y-86630643D01*
X116308889Y-86556491D01*
X116231749Y-86502477D01*
X116226767Y-86500154D01*
X116226762Y-86500151D01*
X116029225Y-86408039D01*
X116029224Y-86408039D01*
X116024243Y-86405716D01*
X116018935Y-86404294D01*
X116018933Y-86404293D01*
X115808402Y-86347881D01*
X115808400Y-86347881D01*
X115803087Y-86346457D01*
X115575000Y-86326502D01*
X115346913Y-86346457D01*
X115341600Y-86347881D01*
X115341598Y-86347881D01*
X115131067Y-86404293D01*
X115131065Y-86404294D01*
X115125757Y-86405716D01*
X115120776Y-86408039D01*
X115120775Y-86408039D01*
X114923238Y-86500151D01*
X114923233Y-86500154D01*
X114918251Y-86502477D01*
X114841111Y-86556491D01*
X114735211Y-86630643D01*
X114735208Y-86630645D01*
X114730700Y-86633802D01*
X114568802Y-86795700D01*
X114437477Y-86983251D01*
X114435154Y-86988233D01*
X114435151Y-86988238D01*
X114419195Y-87022457D01*
X114372278Y-87075742D01*
X114304001Y-87095203D01*
X114236041Y-87074661D01*
X114190805Y-87022457D01*
X114174849Y-86988238D01*
X114174846Y-86988233D01*
X114172523Y-86983251D01*
X114041198Y-86795700D01*
X113879300Y-86633802D01*
X113874792Y-86630645D01*
X113874789Y-86630643D01*
X113768889Y-86556491D01*
X113691749Y-86502477D01*
X113686767Y-86500154D01*
X113686762Y-86500151D01*
X113489225Y-86408039D01*
X113489224Y-86408039D01*
X113484243Y-86405716D01*
X113478935Y-86404294D01*
X113478933Y-86404293D01*
X113268402Y-86347881D01*
X113268400Y-86347881D01*
X113263087Y-86346457D01*
X113035000Y-86326502D01*
X112806913Y-86346457D01*
X112801600Y-86347881D01*
X112801598Y-86347881D01*
X112591067Y-86404293D01*
X112591065Y-86404294D01*
X112585757Y-86405716D01*
X112580776Y-86408039D01*
X112580775Y-86408039D01*
X112383238Y-86500151D01*
X112383233Y-86500154D01*
X112378251Y-86502477D01*
X112301111Y-86556491D01*
X112195211Y-86630643D01*
X112195208Y-86630645D01*
X112190700Y-86633802D01*
X112028802Y-86795700D01*
X111897477Y-86983251D01*
X111895154Y-86988233D01*
X111895151Y-86988238D01*
X111879195Y-87022457D01*
X111832278Y-87075742D01*
X111764001Y-87095203D01*
X111696041Y-87074661D01*
X111650805Y-87022457D01*
X111634849Y-86988238D01*
X111634846Y-86988233D01*
X111632523Y-86983251D01*
X111501198Y-86795700D01*
X111339300Y-86633802D01*
X111334792Y-86630645D01*
X111334789Y-86630643D01*
X111228889Y-86556491D01*
X111151749Y-86502477D01*
X111146767Y-86500154D01*
X111146762Y-86500151D01*
X110949225Y-86408039D01*
X110949224Y-86408039D01*
X110944243Y-86405716D01*
X110938935Y-86404294D01*
X110938933Y-86404293D01*
X110728402Y-86347881D01*
X110728400Y-86347881D01*
X110723087Y-86346457D01*
X110495000Y-86326502D01*
X110266913Y-86346457D01*
X110261600Y-86347881D01*
X110261598Y-86347881D01*
X110051067Y-86404293D01*
X110051065Y-86404294D01*
X110045757Y-86405716D01*
X110040776Y-86408039D01*
X110040775Y-86408039D01*
X109843238Y-86500151D01*
X109843233Y-86500154D01*
X109838251Y-86502477D01*
X109761111Y-86556491D01*
X109655211Y-86630643D01*
X109655208Y-86630645D01*
X109650700Y-86633802D01*
X109488802Y-86795700D01*
X109357477Y-86983251D01*
X109355154Y-86988233D01*
X109355151Y-86988238D01*
X109339195Y-87022457D01*
X109292278Y-87075742D01*
X109224001Y-87095203D01*
X109156041Y-87074661D01*
X109110805Y-87022457D01*
X109094849Y-86988238D01*
X109094846Y-86988233D01*
X109092523Y-86983251D01*
X108961198Y-86795700D01*
X108799300Y-86633802D01*
X108794792Y-86630645D01*
X108794789Y-86630643D01*
X108688889Y-86556491D01*
X108611749Y-86502477D01*
X108606767Y-86500154D01*
X108606762Y-86500151D01*
X108409225Y-86408039D01*
X108409224Y-86408039D01*
X108404243Y-86405716D01*
X108398935Y-86404294D01*
X108398933Y-86404293D01*
X108188402Y-86347881D01*
X108188400Y-86347881D01*
X108183087Y-86346457D01*
X107955000Y-86326502D01*
X107726913Y-86346457D01*
X107721600Y-86347881D01*
X107721598Y-86347881D01*
X107511067Y-86404293D01*
X107511065Y-86404294D01*
X107505757Y-86405716D01*
X107500776Y-86408039D01*
X107500775Y-86408039D01*
X107303238Y-86500151D01*
X107303233Y-86500154D01*
X107298251Y-86502477D01*
X107221111Y-86556491D01*
X107115211Y-86630643D01*
X107115208Y-86630645D01*
X107110700Y-86633802D01*
X106948802Y-86795700D01*
X106817477Y-86983251D01*
X106815154Y-86988233D01*
X106815151Y-86988238D01*
X106734409Y-87161392D01*
X106720716Y-87190757D01*
X106719294Y-87196065D01*
X106719293Y-87196067D01*
X106685000Y-87324050D01*
X106661457Y-87411913D01*
X106641502Y-87640000D01*
X106661457Y-87868087D01*
X106662880Y-87873398D01*
X106662882Y-87873409D01*
X106678459Y-87931541D01*
X106676770Y-88002517D01*
X106645848Y-88053248D01*
X105128595Y-89570501D01*
X105066283Y-89604527D01*
X104995468Y-89599462D01*
X104938632Y-89556915D01*
X104913821Y-89490395D01*
X104913500Y-89481406D01*
X104913500Y-86656500D01*
X94646500Y-86656500D01*
X94646500Y-90463500D01*
X103931405Y-90463500D01*
X103999526Y-90483502D01*
X104046019Y-90537158D01*
X104056123Y-90607432D01*
X104026629Y-90672012D01*
X104020500Y-90678595D01*
X101249500Y-93449595D01*
X101187188Y-93483621D01*
X101160405Y-93486500D01*
X96650596Y-93486500D01*
X96582475Y-93466498D01*
X96542877Y-93425866D01*
X96525519Y-93397260D01*
X96476623Y-93316683D01*
X96389755Y-93216576D01*
X96329023Y-93146588D01*
X96329021Y-93146586D01*
X96325523Y-93142555D01*
X96283970Y-93108484D01*
X96151373Y-92999760D01*
X96151367Y-92999756D01*
X96147245Y-92996376D01*
X96142609Y-92993737D01*
X96142606Y-92993735D01*
X95951529Y-92884968D01*
X95946886Y-92882325D01*
X95730175Y-92803663D01*
X95724926Y-92802714D01*
X95724923Y-92802713D01*
X95507392Y-92763377D01*
X95507385Y-92763376D01*
X95503308Y-92762639D01*
X95485586Y-92761803D01*
X95480644Y-92761570D01*
X95480637Y-92761570D01*
X95479156Y-92761500D01*
X95067110Y-92761500D01*
X95000191Y-92767178D01*
X94900591Y-92775629D01*
X94900587Y-92775630D01*
X94895280Y-92776080D01*
X94890125Y-92777418D01*
X94890119Y-92777419D01*
X94677297Y-92832657D01*
X94677293Y-92832658D01*
X94672128Y-92833999D01*
X94667262Y-92836191D01*
X94667259Y-92836192D01*
X94558980Y-92884968D01*
X94461925Y-92928688D01*
X94270681Y-93057441D01*
X94103865Y-93216576D01*
X93966246Y-93401542D01*
X93963830Y-93406293D01*
X93963828Y-93406297D01*
X93937929Y-93457238D01*
X93861760Y-93607051D01*
X93793393Y-93827227D01*
X93792692Y-93832516D01*
X93764692Y-94043781D01*
X93763102Y-94055774D01*
X93771751Y-94286158D01*
X93819093Y-94511791D01*
X93821053Y-94516753D01*
X93829265Y-94537547D01*
X93835685Y-94608253D01*
X93801169Y-94672926D01*
X92124310Y-96349785D01*
X92061998Y-96383811D01*
X91991183Y-96378746D01*
X91934347Y-96336199D01*
X91909536Y-96269679D01*
X91909215Y-96260690D01*
X91909215Y-95837000D01*
X91929217Y-95768879D01*
X91982873Y-95722386D01*
X92003304Y-95717942D01*
X92002764Y-95716104D01*
X92020146Y-95711000D01*
X92038262Y-95711000D01*
X92038262Y-92709000D01*
X88264500Y-92709000D01*
X88196379Y-92688998D01*
X88149886Y-92635342D01*
X88138500Y-92583000D01*
X88138500Y-87737655D01*
X89679858Y-87737655D01*
X89715104Y-87996638D01*
X89716412Y-88001124D01*
X89716412Y-88001126D01*
X89731604Y-88053248D01*
X89788243Y-88247567D01*
X89897668Y-88484928D01*
X89900231Y-88488837D01*
X90038410Y-88699596D01*
X90038414Y-88699601D01*
X90040976Y-88703509D01*
X90215018Y-88898506D01*
X90415970Y-89065637D01*
X90419973Y-89068066D01*
X90635422Y-89198804D01*
X90635426Y-89198806D01*
X90639419Y-89201229D01*
X90880455Y-89302303D01*
X91133783Y-89366641D01*
X91138434Y-89367109D01*
X91138438Y-89367110D01*
X91331308Y-89386531D01*
X91350867Y-89388500D01*
X91506354Y-89388500D01*
X91508679Y-89388327D01*
X91508685Y-89388327D01*
X91696000Y-89374407D01*
X91696004Y-89374406D01*
X91700652Y-89374061D01*
X91705200Y-89373032D01*
X91705206Y-89373031D01*
X91891601Y-89330853D01*
X91955577Y-89316377D01*
X91991769Y-89302303D01*
X92194824Y-89223340D01*
X92194827Y-89223339D01*
X92199177Y-89221647D01*
X92426098Y-89091951D01*
X92631357Y-88930138D01*
X92810443Y-88739763D01*
X92959424Y-88525009D01*
X92961492Y-88520816D01*
X93072960Y-88294781D01*
X93072961Y-88294778D01*
X93075025Y-88290593D01*
X93080497Y-88273500D01*
X93153280Y-88046123D01*
X93154707Y-88041665D01*
X93196721Y-87783693D01*
X93200142Y-87522345D01*
X93164896Y-87263362D01*
X93150473Y-87213877D01*
X93135189Y-87161441D01*
X93091757Y-87012433D01*
X92982332Y-86775072D01*
X92947723Y-86722285D01*
X92841590Y-86560404D01*
X92841586Y-86560399D01*
X92839024Y-86556491D01*
X92664982Y-86361494D01*
X92464030Y-86194363D01*
X92416844Y-86165730D01*
X92244578Y-86061196D01*
X92244574Y-86061194D01*
X92240581Y-86058771D01*
X91999545Y-85957697D01*
X91746217Y-85893359D01*
X91741566Y-85892891D01*
X91741562Y-85892890D01*
X91532271Y-85871816D01*
X91529133Y-85871500D01*
X91373646Y-85871500D01*
X91371321Y-85871673D01*
X91371315Y-85871673D01*
X91184000Y-85885593D01*
X91183996Y-85885594D01*
X91179348Y-85885939D01*
X91174800Y-85886968D01*
X91174794Y-85886969D01*
X90988399Y-85929147D01*
X90924423Y-85943623D01*
X90920071Y-85945315D01*
X90920069Y-85945316D01*
X90685176Y-86036660D01*
X90685173Y-86036661D01*
X90680823Y-86038353D01*
X90453902Y-86168049D01*
X90248643Y-86329862D01*
X90069557Y-86520237D01*
X89973868Y-86658171D01*
X89924258Y-86729684D01*
X89920576Y-86734991D01*
X89918510Y-86739181D01*
X89918508Y-86739184D01*
X89864392Y-86848922D01*
X89804975Y-86969407D01*
X89803553Y-86973850D01*
X89803552Y-86973852D01*
X89760330Y-87108879D01*
X89725293Y-87218335D01*
X89683279Y-87476307D01*
X89679858Y-87737655D01*
X88138500Y-87737655D01*
X88138500Y-84454500D01*
X88158502Y-84386379D01*
X88212158Y-84339886D01*
X88264500Y-84328500D01*
X142875500Y-84328500D01*
X142943621Y-84348502D01*
G37*
%TD.AperFunction*%
M02*
