%TF.GenerationSoftware,KiCad,Pcbnew,(6.0.6)*%
%TF.CreationDate,2022-12-02T12:02:17+05:30*%
%TF.ProjectId,exp11,65787031-312e-46b6-9963-61645f706362,rev?*%
%TF.SameCoordinates,Original*%
%TF.FileFunction,Copper,L1,Top*%
%TF.FilePolarity,Positive*%
%FSLAX46Y46*%
G04 Gerber Fmt 4.6, Leading zero omitted, Abs format (unit mm)*
G04 Created by KiCad (PCBNEW (6.0.6)) date 2022-12-02 12:02:17*
%MOMM*%
%LPD*%
G01*
G04 APERTURE LIST*
G04 Aperture macros list*
%AMRoundRect*
0 Rectangle with rounded corners*
0 $1 Rounding radius*
0 $2 $3 $4 $5 $6 $7 $8 $9 X,Y pos of 4 corners*
0 Add a 4 corners polygon primitive as box body*
4,1,4,$2,$3,$4,$5,$6,$7,$8,$9,$2,$3,0*
0 Add four circle primitives for the rounded corners*
1,1,$1+$1,$2,$3*
1,1,$1+$1,$4,$5*
1,1,$1+$1,$6,$7*
1,1,$1+$1,$8,$9*
0 Add four rect primitives between the rounded corners*
20,1,$1+$1,$2,$3,$4,$5,0*
20,1,$1+$1,$4,$5,$6,$7,0*
20,1,$1+$1,$6,$7,$8,$9,0*
20,1,$1+$1,$8,$9,$2,$3,0*%
G04 Aperture macros list end*
%TA.AperFunction,ComponentPad*%
%ADD10R,1.600000X1.600000*%
%TD*%
%TA.AperFunction,ComponentPad*%
%ADD11O,1.600000X1.600000*%
%TD*%
%TA.AperFunction,ComponentPad*%
%ADD12RoundRect,0.250000X0.725000X-0.600000X0.725000X0.600000X-0.725000X0.600000X-0.725000X-0.600000X0*%
%TD*%
%TA.AperFunction,ComponentPad*%
%ADD13O,1.950000X1.700000*%
%TD*%
%TA.AperFunction,ComponentPad*%
%ADD14RoundRect,0.250000X-0.725000X0.600000X-0.725000X-0.600000X0.725000X-0.600000X0.725000X0.600000X0*%
%TD*%
G04 APERTURE END LIST*
D10*
%TO.P,U1,1*%
%TO.N,Net-(U1-Pad1)*%
X123200000Y-102865000D03*
D11*
%TO.P,U1,2*%
%TO.N,Net-(U2-Pad3)*%
X123200000Y-105405000D03*
%TO.P,U1,3*%
%TO.N,Net-(U1-Pad3)*%
X123200000Y-107945000D03*
%TO.P,U1,4*%
%TO.N,N/C*%
X123200000Y-110485000D03*
%TO.P,U1,5*%
X123200000Y-113025000D03*
%TO.P,U1,6*%
X123200000Y-115565000D03*
%TO.P,U1,7,Gnd*%
%TO.N,GND*%
X123200000Y-118105000D03*
%TO.P,U1,8*%
%TO.N,N/C*%
X130820000Y-118105000D03*
%TO.P,U1,9*%
X130820000Y-115565000D03*
%TO.P,U1,10*%
X130820000Y-113025000D03*
%TO.P,U1,11*%
X130820000Y-110485000D03*
%TO.P,U1,12*%
X130820000Y-107945000D03*
%TO.P,U1,13*%
X130820000Y-105405000D03*
%TO.P,U1,14,Vcc*%
%TO.N,VCC*%
X130820000Y-102865000D03*
%TD*%
D12*
%TO.P,J2,1,Pin_1*%
%TO.N,QD*%
X95250000Y-111620000D03*
D13*
%TO.P,J2,2,Pin_2*%
%TO.N,QC*%
X95250000Y-109120000D03*
%TO.P,J2,3,Pin_3*%
%TO.N,QA*%
X95250000Y-106620000D03*
%TO.P,J2,4,Pin_4*%
%TO.N,QB*%
X95250000Y-104120000D03*
%TO.P,J2,5,Pin_5*%
%TO.N,CLK*%
X95250000Y-101620000D03*
%TO.P,J2,6,Pin_6*%
%TO.N,MC*%
X95250000Y-99120000D03*
%TO.P,J2,7,Pin_7*%
%TO.N,VCC*%
X95250000Y-96620000D03*
%TO.P,J2,8,Pin_8*%
%TO.N,GND*%
X95250000Y-94120000D03*
%TD*%
D14*
%TO.P,J1,1,Pin_1*%
%TO.N,A*%
X135897500Y-94040000D03*
D13*
%TO.P,J1,2,Pin_2*%
%TO.N,B*%
X135897500Y-96540000D03*
%TO.P,J1,3,Pin_3*%
%TO.N,C*%
X135897500Y-99040000D03*
%TO.P,J1,4,Pin_4*%
%TO.N,D*%
X135897500Y-101540000D03*
%TD*%
D10*
%TO.P,U4,1,Ser*%
%TO.N,Net-(U1-Pad3)*%
X123195000Y-87640000D03*
D11*
%TO.P,U4,2,P0*%
%TO.N,A*%
X120655000Y-87640000D03*
%TO.P,U4,3,P1*%
%TO.N,B*%
X118115000Y-87640000D03*
%TO.P,U4,4,P2*%
%TO.N,C*%
X115575000Y-87640000D03*
%TO.P,U4,5,P3*%
%TO.N,D*%
X113035000Y-87640000D03*
%TO.P,U4,6,Mode*%
%TO.N,MC*%
X110495000Y-87640000D03*
%TO.P,U4,7,GND*%
%TO.N,GND*%
X107955000Y-87640000D03*
%TO.P,U4,8,~{CK2}*%
%TO.N,CLK*%
X107955000Y-95260000D03*
%TO.P,U4,9,~{CK1}*%
X110495000Y-95260000D03*
%TO.P,U4,10,Q3*%
%TO.N,QD*%
X113035000Y-95260000D03*
%TO.P,U4,11,Q2*%
%TO.N,QC*%
X115575000Y-95260000D03*
%TO.P,U4,12,Q1*%
%TO.N,QB*%
X118115000Y-95260000D03*
%TO.P,U4,13,Q0*%
%TO.N,QA*%
X120655000Y-95260000D03*
%TO.P,U4,14,VCC*%
%TO.N,VCC*%
X123195000Y-95260000D03*
%TD*%
D10*
%TO.P,U3,1*%
%TO.N,QA*%
X100340000Y-102865000D03*
D11*
%TO.P,U3,2*%
%TO.N,Net-(U2-Pad2)*%
X100340000Y-105405000D03*
%TO.P,U3,3*%
%TO.N,QC*%
X100340000Y-107945000D03*
%TO.P,U3,4*%
%TO.N,Net-(U2-Pad5)*%
X100340000Y-110485000D03*
%TO.P,U3,5*%
%TO.N,QD*%
X100340000Y-113025000D03*
%TO.P,U3,6*%
%TO.N,Net-(U2-Pad4)*%
X100340000Y-115565000D03*
%TO.P,U3,7,Gnd*%
%TO.N,GND*%
X100340000Y-118105000D03*
%TO.P,U3,8*%
%TO.N,N/C*%
X107960000Y-118105000D03*
%TO.P,U3,9*%
X107960000Y-115565000D03*
%TO.P,U3,10*%
X107960000Y-113025000D03*
%TO.P,U3,11*%
X107960000Y-110485000D03*
%TO.P,U3,12*%
X107960000Y-107945000D03*
%TO.P,U3,13*%
X107960000Y-105405000D03*
%TO.P,U3,14,Vcc*%
%TO.N,VCC*%
X107960000Y-102865000D03*
%TD*%
D10*
%TO.P,U2,1*%
%TO.N,QC*%
X111770000Y-102865000D03*
D11*
%TO.P,U2,2*%
%TO.N,Net-(U2-Pad2)*%
X111770000Y-105405000D03*
%TO.P,U2,3*%
%TO.N,Net-(U2-Pad3)*%
X111770000Y-107945000D03*
%TO.P,U2,4*%
%TO.N,Net-(U2-Pad4)*%
X111770000Y-110485000D03*
%TO.P,U2,5*%
%TO.N,Net-(U2-Pad5)*%
X111770000Y-113025000D03*
%TO.P,U2,6*%
%TO.N,Net-(U1-Pad1)*%
X111770000Y-115565000D03*
%TO.P,U2,7,Gnd*%
%TO.N,GND*%
X111770000Y-118105000D03*
%TO.P,U2,8*%
%TO.N,N/C*%
X119390000Y-118105000D03*
%TO.P,U2,9*%
X119390000Y-115565000D03*
%TO.P,U2,10*%
X119390000Y-113025000D03*
%TO.P,U2,11*%
X119390000Y-110485000D03*
%TO.P,U2,12*%
X119390000Y-107945000D03*
%TO.P,U2,13*%
X119390000Y-105405000D03*
%TO.P,U2,14,Vcc*%
%TO.N,VCC*%
X119390000Y-102865000D03*
%TD*%
M02*
