M48
; DRILL file {KiCad (6.0.6)} date Fri Dec  2 12:02:20 2022
; FORMAT={-:-/ absolute / inch / decimal}
; #@! TF.CreationDate,2022-12-02T12:02:20+05:30
; #@! TF.GenerationSoftware,Kicad,Pcbnew,(6.0.6)
; #@! TF.FileFunction,Plated,1,2,PTH
FMAT,2
INCH
; #@! TA.AperFunction,Plated,PTH,ComponentDrill
T1C0.0315
; #@! TA.AperFunction,Plated,PTH,ComponentDrill
T2C0.0472
%
G90
G05
T1
X3.9504Y-4.0498
X3.9504Y-4.1498
X3.9504Y-4.2498
X3.9504Y-4.3498
X3.9504Y-4.4498
X3.9504Y-4.5498
X3.9504Y-4.6498
X4.2502Y-3.4504
X4.2502Y-3.7504
X4.2504Y-4.0498
X4.2504Y-4.1498
X4.2504Y-4.2498
X4.2504Y-4.3498
X4.2504Y-4.4498
X4.2504Y-4.5498
X4.2504Y-4.6498
X4.3502Y-3.4504
X4.3502Y-3.7504
X4.4004Y-4.0498
X4.4004Y-4.1498
X4.4004Y-4.2498
X4.4004Y-4.3498
X4.4004Y-4.4498
X4.4004Y-4.5498
X4.4004Y-4.6498
X4.4502Y-3.4504
X4.4502Y-3.7504
X4.5502Y-3.4504
X4.5502Y-3.7504
X4.6502Y-3.4504
X4.6502Y-3.7504
X4.7004Y-4.0498
X4.7004Y-4.1498
X4.7004Y-4.2498
X4.7004Y-4.3498
X4.7004Y-4.4498
X4.7004Y-4.5498
X4.7004Y-4.6498
X4.7502Y-3.4504
X4.7502Y-3.7504
X4.8502Y-3.4504
X4.8502Y-3.7504
X4.8504Y-4.0498
X4.8504Y-4.1498
X4.8504Y-4.2498
X4.8504Y-4.3498
X4.8504Y-4.4498
X4.8504Y-4.5498
X4.8504Y-4.6498
X5.1504Y-4.0498
X5.1504Y-4.1498
X5.1504Y-4.2498
X5.1504Y-4.3498
X5.1504Y-4.4498
X5.1504Y-4.5498
X5.1504Y-4.6498
T2
X3.75Y-3.7055
X3.75Y-3.8039
X3.75Y-3.9024
X3.75Y-4.0008
X3.75Y-4.0992
X3.75Y-4.1976
X3.75Y-4.2961
X3.75Y-4.3945
X5.3503Y-3.7024
X5.3503Y-3.8008
X5.3503Y-3.8992
X5.3503Y-3.9976
T0
M30
