%TF.GenerationSoftware,KiCad,Pcbnew,(6.0.6)*%
%TF.CreationDate,2022-12-02T12:02:17+05:30*%
%TF.ProjectId,exp11,65787031-312e-46b6-9963-61645f706362,rev?*%
%TF.SameCoordinates,Original*%
%TF.FileFunction,Soldermask,Top*%
%TF.FilePolarity,Negative*%
%FSLAX46Y46*%
G04 Gerber Fmt 4.6, Leading zero omitted, Abs format (unit mm)*
G04 Created by KiCad (PCBNEW (6.0.6)) date 2022-12-02 12:02:17*
%MOMM*%
%LPD*%
G01*
G04 APERTURE LIST*
G04 Aperture macros list*
%AMRoundRect*
0 Rectangle with rounded corners*
0 $1 Rounding radius*
0 $2 $3 $4 $5 $6 $7 $8 $9 X,Y pos of 4 corners*
0 Add a 4 corners polygon primitive as box body*
4,1,4,$2,$3,$4,$5,$6,$7,$8,$9,$2,$3,0*
0 Add four circle primitives for the rounded corners*
1,1,$1+$1,$2,$3*
1,1,$1+$1,$4,$5*
1,1,$1+$1,$6,$7*
1,1,$1+$1,$8,$9*
0 Add four rect primitives between the rounded corners*
20,1,$1+$1,$2,$3,$4,$5,0*
20,1,$1+$1,$4,$5,$6,$7,0*
20,1,$1+$1,$6,$7,$8,$9,0*
20,1,$1+$1,$8,$9,$2,$3,0*%
G04 Aperture macros list end*
%ADD10R,1.600000X1.600000*%
%ADD11O,1.600000X1.600000*%
%ADD12RoundRect,0.250000X0.725000X-0.600000X0.725000X0.600000X-0.725000X0.600000X-0.725000X-0.600000X0*%
%ADD13O,1.950000X1.700000*%
%ADD14RoundRect,0.250000X-0.725000X0.600000X-0.725000X-0.600000X0.725000X-0.600000X0.725000X0.600000X0*%
%ADD15C,2.500000*%
G04 APERTURE END LIST*
D10*
%TO.C,U1*%
X123200000Y-102865000D03*
D11*
X123200000Y-105405000D03*
X123200000Y-107945000D03*
X123200000Y-110485000D03*
X123200000Y-113025000D03*
X123200000Y-115565000D03*
X123200000Y-118105000D03*
X130820000Y-118105000D03*
X130820000Y-115565000D03*
X130820000Y-113025000D03*
X130820000Y-110485000D03*
X130820000Y-107945000D03*
X130820000Y-105405000D03*
X130820000Y-102865000D03*
%TD*%
D12*
%TO.C,J2*%
X95250000Y-111620000D03*
D13*
X95250000Y-109120000D03*
X95250000Y-106620000D03*
X95250000Y-104120000D03*
X95250000Y-101620000D03*
X95250000Y-99120000D03*
X95250000Y-96620000D03*
X95250000Y-94120000D03*
%TD*%
D14*
%TO.C,J1*%
X135897500Y-94040000D03*
D13*
X135897500Y-96540000D03*
X135897500Y-99040000D03*
X135897500Y-101540000D03*
%TD*%
D10*
%TO.C,U4*%
X123195000Y-87640000D03*
D11*
X120655000Y-87640000D03*
X118115000Y-87640000D03*
X115575000Y-87640000D03*
X113035000Y-87640000D03*
X110495000Y-87640000D03*
X107955000Y-87640000D03*
X107955000Y-95260000D03*
X110495000Y-95260000D03*
X113035000Y-95260000D03*
X115575000Y-95260000D03*
X118115000Y-95260000D03*
X120655000Y-95260000D03*
X123195000Y-95260000D03*
%TD*%
D15*
%TO.C,H2*%
X91440000Y-87630000D03*
%TD*%
D10*
%TO.C,U3*%
X100340000Y-102865000D03*
D11*
X100340000Y-105405000D03*
X100340000Y-107945000D03*
X100340000Y-110485000D03*
X100340000Y-113025000D03*
X100340000Y-115565000D03*
X100340000Y-118105000D03*
X107960000Y-118105000D03*
X107960000Y-115565000D03*
X107960000Y-113025000D03*
X107960000Y-110485000D03*
X107960000Y-107945000D03*
X107960000Y-105405000D03*
X107960000Y-102865000D03*
%TD*%
D15*
%TO.C,H4*%
X139700000Y-87630000D03*
%TD*%
%TO.C,H3*%
X91440000Y-118110000D03*
%TD*%
%TO.C,H1*%
X139700000Y-118110000D03*
%TD*%
D10*
%TO.C,U2*%
X111770000Y-102865000D03*
D11*
X111770000Y-105405000D03*
X111770000Y-107945000D03*
X111770000Y-110485000D03*
X111770000Y-113025000D03*
X111770000Y-115565000D03*
X111770000Y-118105000D03*
X119390000Y-118105000D03*
X119390000Y-115565000D03*
X119390000Y-113025000D03*
X119390000Y-110485000D03*
X119390000Y-107945000D03*
X119390000Y-105405000D03*
X119390000Y-102865000D03*
%TD*%
M02*
