%TF.GenerationSoftware,KiCad,Pcbnew,(6.0.6)*%
%TF.CreationDate,2022-10-10T23:24:50+05:30*%
%TF.ProjectId,exp2,65787032-2e6b-4696-9361-645f70636258,rev?*%
%TF.SameCoordinates,Original*%
%TF.FileFunction,Legend,Top*%
%TF.FilePolarity,Positive*%
%FSLAX46Y46*%
G04 Gerber Fmt 4.6, Leading zero omitted, Abs format (unit mm)*
G04 Created by KiCad (PCBNEW (6.0.6)) date 2022-10-10 23:24:50*
%MOMM*%
%LPD*%
G01*
G04 APERTURE LIST*
%ADD10C,0.300000*%
%ADD11C,0.125000*%
%ADD12C,0.150000*%
%ADD13C,0.254000*%
%ADD14C,0.120000*%
G04 APERTURE END LIST*
D10*
X134730000Y-83568571D02*
X134730000Y-83925714D01*
X134372857Y-83782857D02*
X134730000Y-83925714D01*
X135087142Y-83782857D01*
X134515714Y-84211428D02*
X134730000Y-83925714D01*
X134944285Y-84211428D01*
X114160000Y-97638571D02*
X114160000Y-97995714D01*
X113802857Y-97852857D02*
X114160000Y-97995714D01*
X114517142Y-97852857D01*
X113945714Y-98281428D02*
X114160000Y-97995714D01*
X114374285Y-98281428D01*
D11*
X136742380Y-111832380D02*
X137456666Y-111832380D01*
X137599523Y-111880000D01*
X137694761Y-111975238D01*
X137742380Y-112118095D01*
X137742380Y-112213333D01*
X137694761Y-111403809D02*
X137742380Y-111260952D01*
X137742380Y-111022857D01*
X137694761Y-110927619D01*
X137647142Y-110880000D01*
X137551904Y-110832380D01*
X137456666Y-110832380D01*
X137361428Y-110880000D01*
X137313809Y-110927619D01*
X137266190Y-111022857D01*
X137218571Y-111213333D01*
X137170952Y-111308571D01*
X137123333Y-111356190D01*
X137028095Y-111403809D01*
X136932857Y-111403809D01*
X136837619Y-111356190D01*
X136790000Y-111308571D01*
X136742380Y-111213333D01*
X136742380Y-110975238D01*
X136790000Y-110832380D01*
X136742380Y-110546666D02*
X136742380Y-109975238D01*
X137742380Y-110260952D02*
X136742380Y-110260952D01*
X136742380Y-108451428D02*
X136742380Y-108641904D01*
X136790000Y-108737142D01*
X136837619Y-108784761D01*
X136980476Y-108880000D01*
X137170952Y-108927619D01*
X137551904Y-108927619D01*
X137647142Y-108880000D01*
X137694761Y-108832380D01*
X137742380Y-108737142D01*
X137742380Y-108546666D01*
X137694761Y-108451428D01*
X137647142Y-108403809D01*
X137551904Y-108356190D01*
X137313809Y-108356190D01*
X137218571Y-108403809D01*
X137170952Y-108451428D01*
X137123333Y-108546666D01*
X137123333Y-108737142D01*
X137170952Y-108832380D01*
X137218571Y-108880000D01*
X137313809Y-108927619D01*
X137742380Y-107927619D02*
X136742380Y-107927619D01*
X136742380Y-107546666D01*
X136790000Y-107451428D01*
X136837619Y-107403809D01*
X136932857Y-107356190D01*
X137075714Y-107356190D01*
X137170952Y-107403809D01*
X137218571Y-107451428D01*
X137266190Y-107546666D01*
X137266190Y-107927619D01*
X137742380Y-106927619D02*
X136742380Y-106927619D01*
X137742380Y-106451428D02*
X136742380Y-106451428D01*
X137742380Y-105880000D01*
X136742380Y-105880000D01*
X137218571Y-104308571D02*
X137218571Y-104641904D01*
X137742380Y-104641904D02*
X136742380Y-104641904D01*
X136742380Y-104165714D01*
X137218571Y-103784761D02*
X137218571Y-103451428D01*
X137742380Y-103308571D02*
X137742380Y-103784761D01*
X136742380Y-103784761D01*
X136742380Y-103308571D01*
X137742380Y-102880000D02*
X136742380Y-102880000D01*
X137456666Y-102546666D01*
X136742380Y-102213333D01*
X137742380Y-102213333D01*
X137456666Y-101784761D02*
X137456666Y-101308571D01*
X137742380Y-101880000D02*
X136742380Y-101546666D01*
X137742380Y-101213333D01*
X137742380Y-100403809D02*
X137742380Y-100880000D01*
X136742380Y-100880000D01*
X137218571Y-100070476D02*
X137218571Y-99737142D01*
X137742380Y-99594285D02*
X137742380Y-100070476D01*
X136742380Y-100070476D01*
X136742380Y-99594285D01*
D10*
X113792857Y-79795714D02*
X114792857Y-79795714D01*
X115221428Y-81367142D02*
X113792857Y-81367142D01*
X113792857Y-78367142D01*
X115221428Y-78367142D01*
X116221428Y-78367142D02*
X118221428Y-81367142D01*
X118221428Y-78367142D02*
X116221428Y-81367142D01*
X119364285Y-81367142D02*
X119364285Y-78367142D01*
X120507142Y-78367142D01*
X120792857Y-78510000D01*
X120935714Y-78652857D01*
X121078571Y-78938571D01*
X121078571Y-79367142D01*
X120935714Y-79652857D01*
X120792857Y-79795714D01*
X120507142Y-79938571D01*
X119364285Y-79938571D01*
X122364285Y-80224285D02*
X124650000Y-80224285D01*
X125935714Y-78652857D02*
X126078571Y-78510000D01*
X126364285Y-78367142D01*
X127078571Y-78367142D01*
X127364285Y-78510000D01*
X127507142Y-78652857D01*
X127650000Y-78938571D01*
X127650000Y-79224285D01*
X127507142Y-79652857D01*
X125792857Y-81367142D01*
X127650000Y-81367142D01*
D12*
X119959523Y-121102380D02*
X119959523Y-120102380D01*
X120340476Y-120102380D01*
X120435714Y-120150000D01*
X120483333Y-120197619D01*
X120530952Y-120292857D01*
X120530952Y-120435714D01*
X120483333Y-120530952D01*
X120435714Y-120578571D01*
X120340476Y-120626190D01*
X119959523Y-120626190D01*
X120816666Y-120102380D02*
X121150000Y-121102380D01*
X121483333Y-120102380D01*
D13*
X101228571Y-109822857D02*
X102300000Y-109822857D01*
X102514285Y-109894285D01*
X102657142Y-110037142D01*
X102728571Y-110251428D01*
X102728571Y-110394285D01*
X102657142Y-109180000D02*
X102728571Y-108965714D01*
X102728571Y-108608571D01*
X102657142Y-108465714D01*
X102585714Y-108394285D01*
X102442857Y-108322857D01*
X102300000Y-108322857D01*
X102157142Y-108394285D01*
X102085714Y-108465714D01*
X102014285Y-108608571D01*
X101942857Y-108894285D01*
X101871428Y-109037142D01*
X101800000Y-109108571D01*
X101657142Y-109180000D01*
X101514285Y-109180000D01*
X101371428Y-109108571D01*
X101300000Y-109037142D01*
X101228571Y-108894285D01*
X101228571Y-108537142D01*
X101300000Y-108322857D01*
X101228571Y-107894285D02*
X101228571Y-107037142D01*
X102728571Y-107465714D02*
X101228571Y-107465714D01*
X102728571Y-104608571D02*
X102728571Y-105465714D01*
X102728571Y-105037142D02*
X101228571Y-105037142D01*
X101442857Y-105180000D01*
X101585714Y-105322857D01*
X101657142Y-105465714D01*
X102728571Y-103180000D02*
X102728571Y-104037142D01*
X102728571Y-103608571D02*
X101228571Y-103608571D01*
X101442857Y-103751428D01*
X101585714Y-103894285D01*
X101657142Y-104037142D01*
X102728571Y-102537142D02*
X101228571Y-102537142D01*
X101228571Y-101965714D01*
X101300000Y-101822857D01*
X101371428Y-101751428D01*
X101514285Y-101680000D01*
X101728571Y-101680000D01*
X101871428Y-101751428D01*
X101942857Y-101822857D01*
X102014285Y-101965714D01*
X102014285Y-102537142D01*
X102728571Y-101037142D02*
X101228571Y-101037142D01*
X102728571Y-100322857D02*
X101228571Y-100322857D01*
X102728571Y-99465714D01*
X101228571Y-99465714D01*
X101942857Y-97108571D02*
X101942857Y-97608571D01*
X102728571Y-97608571D02*
X101228571Y-97608571D01*
X101228571Y-96894285D01*
X101942857Y-96322857D02*
X101942857Y-95822857D01*
X102728571Y-95608571D02*
X102728571Y-96322857D01*
X101228571Y-96322857D01*
X101228571Y-95608571D01*
X102728571Y-94965714D02*
X101228571Y-94965714D01*
X102300000Y-94465714D01*
X101228571Y-93965714D01*
X102728571Y-93965714D01*
X102300000Y-93322857D02*
X102300000Y-92608571D01*
X102728571Y-93465714D02*
X101228571Y-92965714D01*
X102728571Y-92465714D01*
X102728571Y-91251428D02*
X102728571Y-91965714D01*
X101228571Y-91965714D01*
X101942857Y-90751428D02*
X101942857Y-90251428D01*
X102728571Y-90037142D02*
X102728571Y-90751428D01*
X101228571Y-90751428D01*
X101228571Y-90037142D01*
D12*
%TO.C,H4*%
X105918095Y-121102380D02*
X105918095Y-120102380D01*
X105918095Y-120578571D02*
X106489523Y-120578571D01*
X106489523Y-121102380D02*
X106489523Y-120102380D01*
X107394285Y-120435714D02*
X107394285Y-121102380D01*
X107156190Y-120054761D02*
X106918095Y-120769047D01*
X107537142Y-120769047D01*
%TO.C,H3*%
X104648095Y-77922380D02*
X104648095Y-76922380D01*
X104648095Y-77398571D02*
X105219523Y-77398571D01*
X105219523Y-77922380D02*
X105219523Y-76922380D01*
X105600476Y-76922380D02*
X106219523Y-76922380D01*
X105886190Y-77303333D01*
X106029047Y-77303333D01*
X106124285Y-77350952D01*
X106171904Y-77398571D01*
X106219523Y-77493809D01*
X106219523Y-77731904D01*
X106171904Y-77827142D01*
X106124285Y-77874761D01*
X106029047Y-77922380D01*
X105743333Y-77922380D01*
X105648095Y-77874761D01*
X105600476Y-77827142D01*
%TO.C,H2*%
X133858095Y-77922380D02*
X133858095Y-76922380D01*
X133858095Y-77398571D02*
X134429523Y-77398571D01*
X134429523Y-77922380D02*
X134429523Y-76922380D01*
X134858095Y-77017619D02*
X134905714Y-76970000D01*
X135000952Y-76922380D01*
X135239047Y-76922380D01*
X135334285Y-76970000D01*
X135381904Y-77017619D01*
X135429523Y-77112857D01*
X135429523Y-77208095D01*
X135381904Y-77350952D01*
X134810476Y-77922380D01*
X135429523Y-77922380D01*
%TO.C,H1*%
X132588095Y-121102380D02*
X132588095Y-120102380D01*
X132588095Y-120578571D02*
X133159523Y-120578571D01*
X133159523Y-121102380D02*
X133159523Y-120102380D01*
X134159523Y-121102380D02*
X133588095Y-121102380D01*
X133873809Y-121102380D02*
X133873809Y-120102380D01*
X133778571Y-120245238D01*
X133683333Y-120340476D01*
X133588095Y-120388095D01*
%TO.C,U2*%
X136402380Y-90931904D02*
X137211904Y-90931904D01*
X137307142Y-90884285D01*
X137354761Y-90836666D01*
X137402380Y-90741428D01*
X137402380Y-90550952D01*
X137354761Y-90455714D01*
X137307142Y-90408095D01*
X137211904Y-90360476D01*
X136402380Y-90360476D01*
X136497619Y-89931904D02*
X136450000Y-89884285D01*
X136402380Y-89789047D01*
X136402380Y-89550952D01*
X136450000Y-89455714D01*
X136497619Y-89408095D01*
X136592857Y-89360476D01*
X136688095Y-89360476D01*
X136830952Y-89408095D01*
X137402380Y-89979523D01*
X137402380Y-89360476D01*
X118807142Y-83058571D02*
X119807142Y-83058571D01*
X119164285Y-84558571D01*
X121021428Y-83558571D02*
X121021428Y-84558571D01*
X120664285Y-82987142D02*
X120307142Y-84058571D01*
X121235714Y-84058571D01*
X122021428Y-83701428D02*
X121878571Y-83630000D01*
X121807142Y-83558571D01*
X121735714Y-83415714D01*
X121735714Y-83344285D01*
X121807142Y-83201428D01*
X121878571Y-83130000D01*
X122021428Y-83058571D01*
X122307142Y-83058571D01*
X122450000Y-83130000D01*
X122521428Y-83201428D01*
X122592857Y-83344285D01*
X122592857Y-83415714D01*
X122521428Y-83558571D01*
X122450000Y-83630000D01*
X122307142Y-83701428D01*
X122021428Y-83701428D01*
X121878571Y-83772857D01*
X121807142Y-83844285D01*
X121735714Y-83987142D01*
X121735714Y-84272857D01*
X121807142Y-84415714D01*
X121878571Y-84487142D01*
X122021428Y-84558571D01*
X122307142Y-84558571D01*
X122450000Y-84487142D01*
X122521428Y-84415714D01*
X122592857Y-84272857D01*
X122592857Y-83987142D01*
X122521428Y-83844285D01*
X122450000Y-83772857D01*
X122307142Y-83701428D01*
X123092857Y-83058571D02*
X124021428Y-83058571D01*
X123521428Y-83630000D01*
X123735714Y-83630000D01*
X123878571Y-83701428D01*
X123950000Y-83772857D01*
X124021428Y-83915714D01*
X124021428Y-84272857D01*
X123950000Y-84415714D01*
X123878571Y-84487142D01*
X123735714Y-84558571D01*
X123307142Y-84558571D01*
X123164285Y-84487142D01*
X123092857Y-84415714D01*
%TO.C,U1*%
X119778095Y-98112380D02*
X119778095Y-98921904D01*
X119825714Y-99017142D01*
X119873333Y-99064761D01*
X119968571Y-99112380D01*
X120159047Y-99112380D01*
X120254285Y-99064761D01*
X120301904Y-99017142D01*
X120349523Y-98921904D01*
X120349523Y-98112380D01*
X121349523Y-99112380D02*
X120778095Y-99112380D01*
X121063809Y-99112380D02*
X121063809Y-98112380D01*
X120968571Y-98255238D01*
X120873333Y-98350476D01*
X120778095Y-98398095D01*
X116081428Y-115108571D02*
X117081428Y-115108571D01*
X116438571Y-116608571D01*
X118295714Y-115608571D02*
X118295714Y-116608571D01*
X117938571Y-115037142D02*
X117581428Y-116108571D01*
X118510000Y-116108571D01*
X119081428Y-116608571D02*
X119081428Y-115108571D01*
X119081428Y-115822857D02*
X119938571Y-115822857D01*
X119938571Y-116608571D02*
X119938571Y-115108571D01*
X121510000Y-116465714D02*
X121438571Y-116537142D01*
X121224285Y-116608571D01*
X121081428Y-116608571D01*
X120867142Y-116537142D01*
X120724285Y-116394285D01*
X120652857Y-116251428D01*
X120581428Y-115965714D01*
X120581428Y-115751428D01*
X120652857Y-115465714D01*
X120724285Y-115322857D01*
X120867142Y-115180000D01*
X121081428Y-115108571D01*
X121224285Y-115108571D01*
X121438571Y-115180000D01*
X121510000Y-115251428D01*
X122367142Y-115751428D02*
X122224285Y-115680000D01*
X122152857Y-115608571D01*
X122081428Y-115465714D01*
X122081428Y-115394285D01*
X122152857Y-115251428D01*
X122224285Y-115180000D01*
X122367142Y-115108571D01*
X122652857Y-115108571D01*
X122795714Y-115180000D01*
X122867142Y-115251428D01*
X122938571Y-115394285D01*
X122938571Y-115465714D01*
X122867142Y-115608571D01*
X122795714Y-115680000D01*
X122652857Y-115751428D01*
X122367142Y-115751428D01*
X122224285Y-115822857D01*
X122152857Y-115894285D01*
X122081428Y-116037142D01*
X122081428Y-116322857D01*
X122152857Y-116465714D01*
X122224285Y-116537142D01*
X122367142Y-116608571D01*
X122652857Y-116608571D01*
X122795714Y-116537142D01*
X122867142Y-116465714D01*
X122938571Y-116322857D01*
X122938571Y-116037142D01*
X122867142Y-115894285D01*
X122795714Y-115822857D01*
X122652857Y-115751428D01*
X124224285Y-115108571D02*
X123938571Y-115108571D01*
X123795714Y-115180000D01*
X123724285Y-115251428D01*
X123581428Y-115465714D01*
X123510000Y-115751428D01*
X123510000Y-116322857D01*
X123581428Y-116465714D01*
X123652857Y-116537142D01*
X123795714Y-116608571D01*
X124081428Y-116608571D01*
X124224285Y-116537142D01*
X124295714Y-116465714D01*
X124367142Y-116322857D01*
X124367142Y-115965714D01*
X124295714Y-115822857D01*
X124224285Y-115751428D01*
X124081428Y-115680000D01*
X123795714Y-115680000D01*
X123652857Y-115751428D01*
X123581428Y-115822857D01*
X123510000Y-115965714D01*
D14*
%TO.C,J2*%
X134137500Y-111640000D02*
X134217500Y-111960000D01*
X134137500Y-109780000D02*
X130717500Y-109780000D01*
X130717500Y-112280000D02*
X130717500Y-111960000D01*
X134717500Y-96850000D02*
X134717500Y-98070000D01*
X130717500Y-106640000D02*
X134137500Y-106640000D01*
X130717500Y-104780000D02*
X130717500Y-104460000D01*
X135937500Y-114570000D02*
X127517500Y-114570000D01*
X127027500Y-99160000D02*
X127027500Y-99760000D01*
X134137500Y-99140000D02*
X134217500Y-99460000D01*
X130717500Y-99140000D02*
X134137500Y-99140000D01*
X130717500Y-102280000D02*
X130717500Y-101960000D01*
X134217500Y-101960000D02*
X134137500Y-102280000D01*
X134717500Y-98070000D02*
X129717500Y-98070000D01*
X134217500Y-106960000D02*
X134137500Y-107280000D01*
X134717500Y-113350000D02*
X129717500Y-113350000D01*
X130717500Y-101960000D02*
X130717500Y-101640000D01*
X130717500Y-99460000D02*
X130717500Y-99140000D01*
X134137500Y-106640000D02*
X134217500Y-106960000D01*
X129717500Y-98070000D02*
X127517500Y-98070000D01*
X127517500Y-96850000D02*
X135937500Y-96850000D01*
X130717500Y-109780000D02*
X130717500Y-109460000D01*
X134137500Y-99780000D02*
X130717500Y-99780000D01*
X134137500Y-101640000D02*
X134217500Y-101960000D01*
X134137500Y-104780000D02*
X130717500Y-104780000D01*
X129717500Y-113350000D02*
X129717500Y-114570000D01*
X127517500Y-113350000D02*
X129717500Y-113350000D01*
X130717500Y-109140000D02*
X134137500Y-109140000D01*
X134137500Y-102280000D02*
X130717500Y-102280000D01*
X127517500Y-114570000D02*
X127517500Y-113350000D01*
X130717500Y-101640000D02*
X134137500Y-101640000D01*
X129717500Y-103130000D02*
X129717500Y-103290000D01*
X129717500Y-108130000D02*
X129717500Y-108290000D01*
X134137500Y-112280000D02*
X130717500Y-112280000D01*
X134137500Y-107280000D02*
X130717500Y-107280000D01*
X129717500Y-105630000D02*
X129717500Y-105790000D01*
X134717500Y-114570000D02*
X134717500Y-113350000D01*
X130717500Y-106960000D02*
X130717500Y-106640000D01*
X130717500Y-107280000D02*
X130717500Y-106960000D01*
X130717500Y-111640000D02*
X134137500Y-111640000D01*
X130717500Y-99780000D02*
X130717500Y-99460000D01*
X127627500Y-99460000D02*
X127027500Y-99160000D01*
X130717500Y-111960000D02*
X130717500Y-111640000D01*
X134137500Y-109140000D02*
X134217500Y-109460000D01*
X129717500Y-100630000D02*
X129717500Y-100790000D01*
X134217500Y-109460000D02*
X134137500Y-109780000D01*
X130717500Y-98070000D02*
X130717500Y-113350000D01*
X130717500Y-104460000D02*
X130717500Y-104140000D01*
X129717500Y-110630000D02*
X129717500Y-110790000D01*
X127027500Y-99760000D02*
X127627500Y-99460000D01*
X135937500Y-96850000D02*
X135937500Y-114570000D01*
X129717500Y-98070000D02*
X129717500Y-96850000D01*
X134217500Y-99460000D02*
X134137500Y-99780000D01*
X130717500Y-104140000D02*
X134137500Y-104140000D01*
X130717500Y-109460000D02*
X130717500Y-109140000D01*
X134217500Y-104460000D02*
X134137500Y-104780000D01*
X134137500Y-104140000D02*
X134217500Y-104460000D01*
X127517500Y-98070000D02*
X127517500Y-96850000D01*
X134217500Y-111960000D02*
X134137500Y-112280000D01*
%TO.C,U2*%
X135950000Y-89170000D02*
X135950000Y-87520000D01*
X115510000Y-87520000D02*
X115510000Y-92820000D01*
X136010000Y-95310000D02*
X136010000Y-85030000D01*
X135950000Y-92820000D02*
X135950000Y-91170000D01*
X136010000Y-85030000D02*
X115450000Y-85030000D01*
X115450000Y-85030000D02*
X115450000Y-95310000D01*
X115450000Y-95310000D02*
X136010000Y-95310000D01*
X135950000Y-87520000D02*
X115510000Y-87520000D01*
X115510000Y-92820000D02*
X135950000Y-92820000D01*
X135950000Y-89170000D02*
G75*
G03*
X135950000Y-91170000I0J-1000000D01*
G01*
%TO.C,J1*%
X110650000Y-95810000D02*
X110650000Y-95650000D01*
X113340000Y-112280000D02*
X113340000Y-111680000D01*
X106230000Y-86660000D02*
X109650000Y-86660000D01*
X109650000Y-106980000D02*
X109650000Y-107300000D01*
X109650000Y-86660000D02*
X109650000Y-86980000D01*
X112850000Y-84370000D02*
X112850000Y-85590000D01*
X109650000Y-97300000D02*
X106230000Y-97300000D01*
X106230000Y-89800000D02*
X106150000Y-89480000D01*
X109650000Y-109800000D02*
X106230000Y-109800000D01*
X110650000Y-110810000D02*
X110650000Y-110650000D01*
X109650000Y-99160000D02*
X109650000Y-99480000D01*
X106150000Y-99480000D02*
X106230000Y-99160000D01*
X106230000Y-92300000D02*
X106150000Y-91980000D01*
X106150000Y-109480000D02*
X106230000Y-109160000D01*
X112740000Y-111980000D02*
X113340000Y-112280000D01*
X112850000Y-114590000D02*
X104430000Y-114590000D01*
X106230000Y-104160000D02*
X109650000Y-104160000D01*
X110650000Y-105810000D02*
X110650000Y-105650000D01*
X109650000Y-106660000D02*
X109650000Y-106980000D01*
X110650000Y-100810000D02*
X110650000Y-100650000D01*
X109650000Y-96660000D02*
X109650000Y-96980000D01*
X109650000Y-89160000D02*
X109650000Y-89480000D01*
X106230000Y-111660000D02*
X109650000Y-111660000D01*
X109650000Y-113370000D02*
X109650000Y-85590000D01*
X106150000Y-86980000D02*
X106230000Y-86660000D01*
X106230000Y-97300000D02*
X106150000Y-96980000D01*
X106230000Y-89160000D02*
X109650000Y-89160000D01*
X109650000Y-96980000D02*
X109650000Y-97300000D01*
X110650000Y-103310000D02*
X110650000Y-103150000D01*
X112850000Y-113370000D02*
X112850000Y-114590000D01*
X106230000Y-104800000D02*
X106150000Y-104480000D01*
X109650000Y-94800000D02*
X106230000Y-94800000D01*
X106150000Y-106980000D02*
X106230000Y-106660000D01*
X106230000Y-112300000D02*
X106150000Y-111980000D01*
X106150000Y-104480000D02*
X106230000Y-104160000D01*
X109650000Y-111660000D02*
X109650000Y-111980000D01*
X110650000Y-90810000D02*
X110650000Y-90650000D01*
X110650000Y-85590000D02*
X110650000Y-84370000D01*
X106230000Y-99800000D02*
X106150000Y-99480000D01*
X109650000Y-111980000D02*
X109650000Y-112300000D01*
X109650000Y-94480000D02*
X109650000Y-94800000D01*
X109650000Y-102300000D02*
X106230000Y-102300000D01*
X106150000Y-96980000D02*
X106230000Y-96660000D01*
X106230000Y-87300000D02*
X106150000Y-86980000D01*
X109650000Y-101660000D02*
X109650000Y-101980000D01*
X106230000Y-109800000D02*
X106150000Y-109480000D01*
X109650000Y-89800000D02*
X106230000Y-89800000D01*
X106230000Y-107300000D02*
X106150000Y-106980000D01*
X109650000Y-94160000D02*
X109650000Y-94480000D01*
X104430000Y-84370000D02*
X112850000Y-84370000D01*
X106230000Y-96660000D02*
X109650000Y-96660000D01*
X113340000Y-111680000D02*
X112740000Y-111980000D01*
X106230000Y-94800000D02*
X106150000Y-94480000D01*
X110650000Y-113370000D02*
X110650000Y-114590000D01*
X106230000Y-109160000D02*
X109650000Y-109160000D01*
X109650000Y-87300000D02*
X106230000Y-87300000D01*
X110650000Y-113370000D02*
X112850000Y-113370000D01*
X109650000Y-89480000D02*
X109650000Y-89800000D01*
X106150000Y-94480000D02*
X106230000Y-94160000D01*
X109650000Y-99800000D02*
X106230000Y-99800000D01*
X106150000Y-89480000D02*
X106230000Y-89160000D01*
X109650000Y-109160000D02*
X109650000Y-109480000D01*
X109650000Y-104800000D02*
X106230000Y-104800000D01*
X109650000Y-101980000D02*
X109650000Y-102300000D01*
X104430000Y-114590000D02*
X104430000Y-84370000D01*
X106150000Y-91980000D02*
X106230000Y-91660000D01*
X109650000Y-91660000D02*
X109650000Y-91980000D01*
X105650000Y-85590000D02*
X110650000Y-85590000D01*
X109650000Y-104160000D02*
X109650000Y-104480000D01*
X109650000Y-86980000D02*
X109650000Y-87300000D01*
X105650000Y-84370000D02*
X105650000Y-85590000D01*
X106230000Y-91660000D02*
X109650000Y-91660000D01*
X106150000Y-111980000D02*
X106230000Y-111660000D01*
X109650000Y-112300000D02*
X106230000Y-112300000D01*
X110650000Y-88310000D02*
X110650000Y-88150000D01*
X105650000Y-114590000D02*
X105650000Y-113370000D01*
X110650000Y-108310000D02*
X110650000Y-108150000D01*
X110650000Y-98310000D02*
X110650000Y-98150000D01*
X109650000Y-107300000D02*
X106230000Y-107300000D01*
X106230000Y-106660000D02*
X109650000Y-106660000D01*
X109650000Y-91980000D02*
X109650000Y-92300000D01*
X110650000Y-93310000D02*
X110650000Y-93150000D01*
X109650000Y-92300000D02*
X106230000Y-92300000D01*
X109650000Y-104480000D02*
X109650000Y-104800000D01*
X105650000Y-113370000D02*
X110650000Y-113370000D01*
X112850000Y-85590000D02*
X110650000Y-85590000D01*
X106230000Y-101660000D02*
X109650000Y-101660000D01*
X106230000Y-94160000D02*
X109650000Y-94160000D01*
X106230000Y-102300000D02*
X106150000Y-101980000D01*
X106150000Y-101980000D02*
X106230000Y-101660000D01*
X106230000Y-99160000D02*
X109650000Y-99160000D01*
X109650000Y-99480000D02*
X109650000Y-99800000D01*
X109650000Y-109480000D02*
X109650000Y-109800000D01*
%TO.C,U1*%
X117670000Y-114635000D02*
X122970000Y-114635000D01*
X117670000Y-96735000D02*
X117670000Y-114635000D01*
X125460000Y-96675000D02*
X115180000Y-96675000D01*
X115180000Y-114695000D02*
X125460000Y-114695000D01*
X122970000Y-114635000D02*
X122970000Y-96735000D01*
X125460000Y-114695000D02*
X125460000Y-96675000D01*
X122970000Y-96735000D02*
X121320000Y-96735000D01*
X119320000Y-96735000D02*
X117670000Y-96735000D01*
X115180000Y-96675000D02*
X115180000Y-114695000D01*
X119320000Y-96735000D02*
G75*
G03*
X121320000Y-96735000I1000000J0D01*
G01*
%TD*%
M02*
