%TF.GenerationSoftware,KiCad,Pcbnew,(6.0.6)*%
%TF.CreationDate,2022-10-14T10:27:47+05:30*%
%TF.ProjectId,exp2,65787032-2e6b-4696-9361-645f70636258,rev?*%
%TF.SameCoordinates,Original*%
%TF.FileFunction,Copper,L1,Top*%
%TF.FilePolarity,Positive*%
%FSLAX46Y46*%
G04 Gerber Fmt 4.6, Leading zero omitted, Abs format (unit mm)*
G04 Created by KiCad (PCBNEW (6.0.6)) date 2022-10-14 10:27:47*
%MOMM*%
%LPD*%
G01*
G04 APERTURE LIST*
G04 Aperture macros list*
%AMRoundRect*
0 Rectangle with rounded corners*
0 $1 Rounding radius*
0 $2 $3 $4 $5 $6 $7 $8 $9 X,Y pos of 4 corners*
0 Add a 4 corners polygon primitive as box body*
4,1,4,$2,$3,$4,$5,$6,$7,$8,$9,$2,$3,0*
0 Add four circle primitives for the rounded corners*
1,1,$1+$1,$2,$3*
1,1,$1+$1,$4,$5*
1,1,$1+$1,$6,$7*
1,1,$1+$1,$8,$9*
0 Add four rect primitives between the rounded corners*
20,1,$1+$1,$2,$3,$4,$5,0*
20,1,$1+$1,$4,$5,$6,$7,0*
20,1,$1+$1,$6,$7,$8,$9,0*
20,1,$1+$1,$8,$9,$2,$3,0*%
G04 Aperture macros list end*
%TA.AperFunction,ComponentPad*%
%ADD10RoundRect,0.250000X0.725000X-0.600000X0.725000X0.600000X-0.725000X0.600000X-0.725000X-0.600000X0*%
%TD*%
%TA.AperFunction,ComponentPad*%
%ADD11O,1.950000X1.700000*%
%TD*%
%TA.AperFunction,ComponentPad*%
%ADD12R,1.600000X1.600000*%
%TD*%
%TA.AperFunction,ComponentPad*%
%ADD13O,1.600000X1.600000*%
%TD*%
%TA.AperFunction,ComponentPad*%
%ADD14RoundRect,0.250000X-0.725000X0.600000X-0.725000X-0.600000X0.725000X-0.600000X0.725000X0.600000X0*%
%TD*%
G04 APERTURE END LIST*
D10*
%TO.P,J1,1,Pin_1*%
%TO.N,Cin*%
X110482500Y-112830000D03*
D11*
%TO.P,J1,2,Pin_2*%
%TO.N,B0*%
X110482500Y-110330000D03*
%TO.P,J1,3,Pin_3*%
%TO.N,B1*%
X110482500Y-107830000D03*
%TO.P,J1,4,Pin_4*%
%TO.N,B2*%
X110482500Y-105330000D03*
%TO.P,J1,5,Pin_5*%
%TO.N,B3*%
X110482500Y-102830000D03*
%TO.P,J1,6,Pin_6*%
%TO.N,A0*%
X110482500Y-100330000D03*
%TO.P,J1,7,Pin_7*%
%TO.N,A1*%
X110482500Y-97830000D03*
%TO.P,J1,8,Pin_8*%
%TO.N,A2*%
X110482500Y-95330000D03*
%TO.P,J1,9,Pin_9*%
%TO.N,A3*%
X110482500Y-92830000D03*
%TO.P,J1,10,Pin_10*%
%TO.N,GND*%
X110482500Y-90330000D03*
%TO.P,J1,11,Pin_11*%
%TO.N,VCC*%
X110482500Y-87830000D03*
%TD*%
D12*
%TO.P,U2,1,A4*%
%TO.N,A3*%
X127010000Y-86350000D03*
D13*
%TO.P,U2,2,S3*%
%TO.N,S2*%
X127010000Y-88890000D03*
%TO.P,U2,3,A3*%
%TO.N,A2*%
X127010000Y-91430000D03*
%TO.P,U2,4,B3*%
%TO.N,Net-(U1-Pad11)*%
X127010000Y-93970000D03*
%TO.P,U2,5,VCC*%
%TO.N,VCC*%
X127010000Y-96510000D03*
%TO.P,U2,6,S2*%
%TO.N,S1*%
X127010000Y-99050000D03*
%TO.P,U2,7,B2*%
%TO.N,Net-(U1-Pad8)*%
X127010000Y-101590000D03*
%TO.P,U2,8,A2*%
%TO.N,A1*%
X127010000Y-104130000D03*
%TO.P,U2,9,S1*%
%TO.N,S0*%
X134630000Y-104130000D03*
%TO.P,U2,10,A1*%
%TO.N,A0*%
X134630000Y-101590000D03*
%TO.P,U2,11,B1*%
%TO.N,Net-(U1-Pad6)*%
X134630000Y-99050000D03*
%TO.P,U2,12,GND*%
%TO.N,GND*%
X134630000Y-96510000D03*
%TO.P,U2,13,C0*%
%TO.N,Cin*%
X134630000Y-93970000D03*
%TO.P,U2,14,C4*%
%TO.N,CO*%
X134630000Y-91430000D03*
%TO.P,U2,15,S4*%
%TO.N,S3*%
X134630000Y-88890000D03*
%TO.P,U2,16,B4*%
%TO.N,Net-(U1-Pad3)*%
X134630000Y-86350000D03*
%TD*%
D14*
%TO.P,J2,1,Pin_1*%
%TO.N,CO*%
X139707500Y-95350000D03*
D11*
%TO.P,J2,2,Pin_2*%
%TO.N,S3*%
X139707500Y-97850000D03*
%TO.P,J2,3,Pin_3*%
%TO.N,S2*%
X139707500Y-100350000D03*
%TO.P,J2,4,Pin_4*%
%TO.N,S1*%
X139707500Y-102850000D03*
%TO.P,J2,5,Pin_5*%
%TO.N,S0*%
X139707500Y-105350000D03*
%TO.P,J2,6,Pin_6*%
%TO.N,GND*%
X139707500Y-107850000D03*
%TD*%
D12*
%TO.P,U1,1*%
%TO.N,Cin*%
X115580000Y-99055000D03*
D13*
%TO.P,U1,2*%
%TO.N,B3*%
X115580000Y-101595000D03*
%TO.P,U1,3*%
%TO.N,Net-(U1-Pad3)*%
X115580000Y-104135000D03*
%TO.P,U1,4*%
%TO.N,B0*%
X115580000Y-106675000D03*
%TO.P,U1,5*%
%TO.N,Cin*%
X115580000Y-109215000D03*
%TO.P,U1,6*%
%TO.N,Net-(U1-Pad6)*%
X115580000Y-111755000D03*
%TO.P,U1,7,GND*%
%TO.N,GND*%
X115580000Y-114295000D03*
%TO.P,U1,8*%
%TO.N,Net-(U1-Pad8)*%
X123200000Y-114295000D03*
%TO.P,U1,9*%
%TO.N,Cin*%
X123200000Y-111755000D03*
%TO.P,U1,10*%
%TO.N,B1*%
X123200000Y-109215000D03*
%TO.P,U1,11*%
%TO.N,Net-(U1-Pad11)*%
X123200000Y-106675000D03*
%TO.P,U1,12*%
%TO.N,Cin*%
X123200000Y-104135000D03*
%TO.P,U1,13*%
%TO.N,B2*%
X123200000Y-101595000D03*
%TO.P,U1,14,VCC*%
%TO.N,VCC*%
X123200000Y-99055000D03*
%TD*%
M02*
