M48
; DRILL file {KiCad (6.0.6)} date Mon Oct 10 23:25:01 2022
; FORMAT={-:-/ absolute / inch / decimal}
; #@! TF.CreationDate,2022-10-10T23:25:01+05:30
; #@! TF.GenerationSoftware,Kicad,Pcbnew,(6.0.6)
; #@! TF.FileFunction,Plated,1,2,PTH
FMAT,2
INCH
; #@! TA.AperFunction,Plated,PTH,ComponentDrill
T1C0.0315
; #@! TA.AperFunction,Plated,PTH,ComponentDrill
T2C0.0374
%
G90
G05
T1
X4.587Y-3.8608
X4.587Y-3.9608
X4.587Y-4.0608
X4.587Y-4.1608
X4.587Y-4.2608
X4.587Y-4.3608
X4.587Y-4.4608
X4.6Y-3.4
X4.6Y-3.7
X4.7Y-3.4
X4.7Y-3.7
X4.8Y-3.4
X4.8Y-3.7
X4.887Y-3.8608
X4.887Y-3.9608
X4.887Y-4.0608
X4.887Y-4.1608
X4.887Y-4.2608
X4.887Y-4.3608
X4.887Y-4.4608
X4.9Y-3.4
X4.9Y-3.7
X5.0Y-3.4
X5.0Y-3.7
X5.1Y-3.4
X5.1Y-3.7
X5.2Y-3.4
X5.2Y-3.7
X5.3Y-3.4
X5.3Y-3.7
T2
X4.3795Y-3.4244
X4.3795Y-3.5228
X4.3795Y-3.6213
X4.3795Y-3.7197
X4.3795Y-3.8181
X4.3795Y-3.9165
X4.3795Y-4.015
X4.3795Y-4.1134
X4.3795Y-4.2118
X4.3795Y-4.3102
X4.3795Y-4.4087
X5.0838Y-3.9157
X5.0838Y-4.0142
X5.0838Y-4.1126
X5.0838Y-4.211
X5.0838Y-4.3094
X5.0838Y-4.4079
T0
M30
