%TF.GenerationSoftware,KiCad,Pcbnew,(6.0.6)*%
%TF.CreationDate,2022-10-10T23:24:50+05:30*%
%TF.ProjectId,exp2,65787032-2e6b-4696-9361-645f70636258,rev?*%
%TF.SameCoordinates,Original*%
%TF.FileFunction,Soldermask,Bot*%
%TF.FilePolarity,Negative*%
%FSLAX46Y46*%
G04 Gerber Fmt 4.6, Leading zero omitted, Abs format (unit mm)*
G04 Created by KiCad (PCBNEW (6.0.6)) date 2022-10-10 23:24:50*
%MOMM*%
%LPD*%
G01*
G04 APERTURE LIST*
G04 Aperture macros list*
%AMRoundRect*
0 Rectangle with rounded corners*
0 $1 Rounding radius*
0 $2 $3 $4 $5 $6 $7 $8 $9 X,Y pos of 4 corners*
0 Add a 4 corners polygon primitive as box body*
4,1,4,$2,$3,$4,$5,$6,$7,$8,$9,$2,$3,0*
0 Add four circle primitives for the rounded corners*
1,1,$1+$1,$2,$3*
1,1,$1+$1,$4,$5*
1,1,$1+$1,$6,$7*
1,1,$1+$1,$8,$9*
0 Add four rect primitives between the rounded corners*
20,1,$1+$1,$2,$3,$4,$5,0*
20,1,$1+$1,$4,$5,$6,$7,0*
20,1,$1+$1,$6,$7,$8,$9,0*
20,1,$1+$1,$8,$9,$2,$3,0*%
G04 Aperture macros list end*
%ADD10C,2.500000*%
%ADD11RoundRect,0.250000X-0.725000X0.600000X-0.725000X-0.600000X0.725000X-0.600000X0.725000X0.600000X0*%
%ADD12O,1.950000X1.700000*%
%ADD13R,1.600000X1.600000*%
%ADD14O,1.600000X1.600000*%
%ADD15RoundRect,0.250000X0.725000X-0.600000X0.725000X0.600000X-0.725000X0.600000X-0.725000X-0.600000X0*%
G04 APERTURE END LIST*
D10*
%TO.C,H4*%
X101600000Y-119380000D03*
%TD*%
%TO.C,H3*%
X101600000Y-80010000D03*
%TD*%
%TO.C,H2*%
X138430000Y-80010000D03*
%TD*%
%TO.C,H1*%
X138430000Y-119380000D03*
%TD*%
D11*
%TO.C,J2*%
X129127500Y-99460000D03*
D12*
X129127500Y-101960000D03*
X129127500Y-104460000D03*
X129127500Y-106960000D03*
X129127500Y-109460000D03*
X129127500Y-111960000D03*
%TD*%
D13*
%TO.C,U2*%
X134620000Y-86360000D03*
D14*
X132080000Y-86360000D03*
X129540000Y-86360000D03*
X127000000Y-86360000D03*
X124460000Y-86360000D03*
X121920000Y-86360000D03*
X119380000Y-86360000D03*
X116840000Y-86360000D03*
X116840000Y-93980000D03*
X119380000Y-93980000D03*
X121920000Y-93980000D03*
X124460000Y-93980000D03*
X127000000Y-93980000D03*
X129540000Y-93980000D03*
X132080000Y-93980000D03*
X134620000Y-93980000D03*
%TD*%
D15*
%TO.C,J1*%
X111240000Y-111980000D03*
D12*
X111240000Y-109480000D03*
X111240000Y-106980000D03*
X111240000Y-104480000D03*
X111240000Y-101980000D03*
X111240000Y-99480000D03*
X111240000Y-96980000D03*
X111240000Y-94480000D03*
X111240000Y-91980000D03*
X111240000Y-89480000D03*
X111240000Y-86980000D03*
%TD*%
D13*
%TO.C,U1*%
X116510000Y-98065000D03*
D14*
X116510000Y-100605000D03*
X116510000Y-103145000D03*
X116510000Y-105685000D03*
X116510000Y-108225000D03*
X116510000Y-110765000D03*
X116510000Y-113305000D03*
X124130000Y-113305000D03*
X124130000Y-110765000D03*
X124130000Y-108225000D03*
X124130000Y-105685000D03*
X124130000Y-103145000D03*
X124130000Y-100605000D03*
X124130000Y-98065000D03*
%TD*%
M02*
