%TF.GenerationSoftware,KiCad,Pcbnew,(6.0.6)*%
%TF.CreationDate,2022-10-14T10:27:47+05:30*%
%TF.ProjectId,exp2,65787032-2e6b-4696-9361-645f70636258,rev?*%
%TF.SameCoordinates,Original*%
%TF.FileFunction,Legend,Top*%
%TF.FilePolarity,Positive*%
%FSLAX46Y46*%
G04 Gerber Fmt 4.6, Leading zero omitted, Abs format (unit mm)*
G04 Created by KiCad (PCBNEW (6.0.6)) date 2022-10-14 10:27:47*
%MOMM*%
%LPD*%
G01*
G04 APERTURE LIST*
%ADD10C,0.300000*%
%ADD11C,0.125000*%
%ADD12C,0.150000*%
%ADD13C,0.254000*%
%ADD14C,0.120000*%
G04 APERTURE END LIST*
D10*
X124430000Y-85988571D02*
X124430000Y-86345714D01*
X124072857Y-86202857D02*
X124430000Y-86345714D01*
X124787142Y-86202857D01*
X124215714Y-86631428D02*
X124430000Y-86345714D01*
X124644285Y-86631428D01*
X113480000Y-98698571D02*
X113480000Y-99055714D01*
X113122857Y-98912857D02*
X113480000Y-99055714D01*
X113837142Y-98912857D01*
X113265714Y-99341428D02*
X113480000Y-99055714D01*
X113694285Y-99341428D01*
D11*
X147322380Y-107392380D02*
X148036666Y-107392380D01*
X148179523Y-107440000D01*
X148274761Y-107535238D01*
X148322380Y-107678095D01*
X148322380Y-107773333D01*
X148274761Y-106963809D02*
X148322380Y-106820952D01*
X148322380Y-106582857D01*
X148274761Y-106487619D01*
X148227142Y-106440000D01*
X148131904Y-106392380D01*
X148036666Y-106392380D01*
X147941428Y-106440000D01*
X147893809Y-106487619D01*
X147846190Y-106582857D01*
X147798571Y-106773333D01*
X147750952Y-106868571D01*
X147703333Y-106916190D01*
X147608095Y-106963809D01*
X147512857Y-106963809D01*
X147417619Y-106916190D01*
X147370000Y-106868571D01*
X147322380Y-106773333D01*
X147322380Y-106535238D01*
X147370000Y-106392380D01*
X147322380Y-106106666D02*
X147322380Y-105535238D01*
X148322380Y-105820952D02*
X147322380Y-105820952D01*
X147322380Y-104011428D02*
X147322380Y-104201904D01*
X147370000Y-104297142D01*
X147417619Y-104344761D01*
X147560476Y-104440000D01*
X147750952Y-104487619D01*
X148131904Y-104487619D01*
X148227142Y-104440000D01*
X148274761Y-104392380D01*
X148322380Y-104297142D01*
X148322380Y-104106666D01*
X148274761Y-104011428D01*
X148227142Y-103963809D01*
X148131904Y-103916190D01*
X147893809Y-103916190D01*
X147798571Y-103963809D01*
X147750952Y-104011428D01*
X147703333Y-104106666D01*
X147703333Y-104297142D01*
X147750952Y-104392380D01*
X147798571Y-104440000D01*
X147893809Y-104487619D01*
X148322380Y-103487619D02*
X147322380Y-103487619D01*
X147322380Y-103106666D01*
X147370000Y-103011428D01*
X147417619Y-102963809D01*
X147512857Y-102916190D01*
X147655714Y-102916190D01*
X147750952Y-102963809D01*
X147798571Y-103011428D01*
X147846190Y-103106666D01*
X147846190Y-103487619D01*
X148322380Y-102487619D02*
X147322380Y-102487619D01*
X148322380Y-102011428D02*
X147322380Y-102011428D01*
X148322380Y-101440000D01*
X147322380Y-101440000D01*
X147798571Y-99868571D02*
X147798571Y-100201904D01*
X148322380Y-100201904D02*
X147322380Y-100201904D01*
X147322380Y-99725714D01*
X147798571Y-99344761D02*
X147798571Y-99011428D01*
X148322380Y-98868571D02*
X148322380Y-99344761D01*
X147322380Y-99344761D01*
X147322380Y-98868571D01*
X148322380Y-98440000D02*
X147322380Y-98440000D01*
X148036666Y-98106666D01*
X147322380Y-97773333D01*
X148322380Y-97773333D01*
X148036666Y-97344761D02*
X148036666Y-96868571D01*
X148322380Y-97440000D02*
X147322380Y-97106666D01*
X148322380Y-96773333D01*
X148322380Y-95963809D02*
X148322380Y-96440000D01*
X147322380Y-96440000D01*
X147798571Y-95630476D02*
X147798571Y-95297142D01*
X148322380Y-95154285D02*
X148322380Y-95630476D01*
X147322380Y-95630476D01*
X147322380Y-95154285D01*
D10*
X117472857Y-79765714D02*
X118472857Y-79765714D01*
X118901428Y-81337142D02*
X117472857Y-81337142D01*
X117472857Y-78337142D01*
X118901428Y-78337142D01*
X119901428Y-78337142D02*
X121901428Y-81337142D01*
X121901428Y-78337142D02*
X119901428Y-81337142D01*
X123044285Y-81337142D02*
X123044285Y-78337142D01*
X124187142Y-78337142D01*
X124472857Y-78480000D01*
X124615714Y-78622857D01*
X124758571Y-78908571D01*
X124758571Y-79337142D01*
X124615714Y-79622857D01*
X124472857Y-79765714D01*
X124187142Y-79908571D01*
X123044285Y-79908571D01*
X126044285Y-80194285D02*
X128330000Y-80194285D01*
X129615714Y-78622857D02*
X129758571Y-78480000D01*
X130044285Y-78337142D01*
X130758571Y-78337142D01*
X131044285Y-78480000D01*
X131187142Y-78622857D01*
X131330000Y-78908571D01*
X131330000Y-79194285D01*
X131187142Y-79622857D01*
X129472857Y-81337142D01*
X131330000Y-81337142D01*
D12*
X124249523Y-121662380D02*
X124249523Y-120662380D01*
X124630476Y-120662380D01*
X124725714Y-120710000D01*
X124773333Y-120757619D01*
X124820952Y-120852857D01*
X124820952Y-120995714D01*
X124773333Y-121090952D01*
X124725714Y-121138571D01*
X124630476Y-121186190D01*
X124249523Y-121186190D01*
X125106666Y-120662380D02*
X125440000Y-121662380D01*
X125773333Y-120662380D01*
D13*
X101228571Y-109822857D02*
X102300000Y-109822857D01*
X102514285Y-109894285D01*
X102657142Y-110037142D01*
X102728571Y-110251428D01*
X102728571Y-110394285D01*
X102657142Y-109180000D02*
X102728571Y-108965714D01*
X102728571Y-108608571D01*
X102657142Y-108465714D01*
X102585714Y-108394285D01*
X102442857Y-108322857D01*
X102300000Y-108322857D01*
X102157142Y-108394285D01*
X102085714Y-108465714D01*
X102014285Y-108608571D01*
X101942857Y-108894285D01*
X101871428Y-109037142D01*
X101800000Y-109108571D01*
X101657142Y-109180000D01*
X101514285Y-109180000D01*
X101371428Y-109108571D01*
X101300000Y-109037142D01*
X101228571Y-108894285D01*
X101228571Y-108537142D01*
X101300000Y-108322857D01*
X101228571Y-107894285D02*
X101228571Y-107037142D01*
X102728571Y-107465714D02*
X101228571Y-107465714D01*
X102728571Y-104608571D02*
X102728571Y-105465714D01*
X102728571Y-105037142D02*
X101228571Y-105037142D01*
X101442857Y-105180000D01*
X101585714Y-105322857D01*
X101657142Y-105465714D01*
X102728571Y-103180000D02*
X102728571Y-104037142D01*
X102728571Y-103608571D02*
X101228571Y-103608571D01*
X101442857Y-103751428D01*
X101585714Y-103894285D01*
X101657142Y-104037142D01*
X102728571Y-102537142D02*
X101228571Y-102537142D01*
X101228571Y-101965714D01*
X101300000Y-101822857D01*
X101371428Y-101751428D01*
X101514285Y-101680000D01*
X101728571Y-101680000D01*
X101871428Y-101751428D01*
X101942857Y-101822857D01*
X102014285Y-101965714D01*
X102014285Y-102537142D01*
X102728571Y-101037142D02*
X101228571Y-101037142D01*
X102728571Y-100322857D02*
X101228571Y-100322857D01*
X102728571Y-99465714D01*
X101228571Y-99465714D01*
X101942857Y-97108571D02*
X101942857Y-97608571D01*
X102728571Y-97608571D02*
X101228571Y-97608571D01*
X101228571Y-96894285D01*
X101942857Y-96322857D02*
X101942857Y-95822857D01*
X102728571Y-95608571D02*
X102728571Y-96322857D01*
X101228571Y-96322857D01*
X101228571Y-95608571D01*
X102728571Y-94965714D02*
X101228571Y-94965714D01*
X102300000Y-94465714D01*
X101228571Y-93965714D01*
X102728571Y-93965714D01*
X102300000Y-93322857D02*
X102300000Y-92608571D01*
X102728571Y-93465714D02*
X101228571Y-92965714D01*
X102728571Y-92465714D01*
X102728571Y-91251428D02*
X102728571Y-91965714D01*
X101228571Y-91965714D01*
X101942857Y-90751428D02*
X101942857Y-90251428D01*
X102728571Y-90037142D02*
X102728571Y-90751428D01*
X101228571Y-90751428D01*
X101228571Y-90037142D01*
D12*
%TO.C,H3*%
X104638095Y-78532380D02*
X104638095Y-77532380D01*
X104638095Y-78008571D02*
X105209523Y-78008571D01*
X105209523Y-78532380D02*
X105209523Y-77532380D01*
X105590476Y-77532380D02*
X106209523Y-77532380D01*
X105876190Y-77913333D01*
X106019047Y-77913333D01*
X106114285Y-77960952D01*
X106161904Y-78008571D01*
X106209523Y-78103809D01*
X106209523Y-78341904D01*
X106161904Y-78437142D01*
X106114285Y-78484761D01*
X106019047Y-78532380D01*
X105733333Y-78532380D01*
X105638095Y-78484761D01*
X105590476Y-78437142D01*
%TO.C,H2*%
X143918095Y-78572380D02*
X143918095Y-77572380D01*
X143918095Y-78048571D02*
X144489523Y-78048571D01*
X144489523Y-78572380D02*
X144489523Y-77572380D01*
X144918095Y-77667619D02*
X144965714Y-77620000D01*
X145060952Y-77572380D01*
X145299047Y-77572380D01*
X145394285Y-77620000D01*
X145441904Y-77667619D01*
X145489523Y-77762857D01*
X145489523Y-77858095D01*
X145441904Y-78000952D01*
X144870476Y-78572380D01*
X145489523Y-78572380D01*
%TO.C,U2*%
X130058095Y-83472380D02*
X130058095Y-84281904D01*
X130105714Y-84377142D01*
X130153333Y-84424761D01*
X130248571Y-84472380D01*
X130439047Y-84472380D01*
X130534285Y-84424761D01*
X130581904Y-84377142D01*
X130629523Y-84281904D01*
X130629523Y-83472380D01*
X131058095Y-83567619D02*
X131105714Y-83520000D01*
X131200952Y-83472380D01*
X131439047Y-83472380D01*
X131534285Y-83520000D01*
X131581904Y-83567619D01*
X131629523Y-83662857D01*
X131629523Y-83758095D01*
X131581904Y-83900952D01*
X131010476Y-84472380D01*
X131629523Y-84472380D01*
X127256190Y-106064761D02*
X128589523Y-106064761D01*
X127732380Y-108064761D01*
X130208571Y-106731428D02*
X130208571Y-108064761D01*
X129732380Y-105969523D02*
X129256190Y-107398095D01*
X130494285Y-107398095D01*
X131541904Y-106921904D02*
X131351428Y-106826666D01*
X131256190Y-106731428D01*
X131160952Y-106540952D01*
X131160952Y-106445714D01*
X131256190Y-106255238D01*
X131351428Y-106160000D01*
X131541904Y-106064761D01*
X131922857Y-106064761D01*
X132113333Y-106160000D01*
X132208571Y-106255238D01*
X132303809Y-106445714D01*
X132303809Y-106540952D01*
X132208571Y-106731428D01*
X132113333Y-106826666D01*
X131922857Y-106921904D01*
X131541904Y-106921904D01*
X131351428Y-107017142D01*
X131256190Y-107112380D01*
X131160952Y-107302857D01*
X131160952Y-107683809D01*
X131256190Y-107874285D01*
X131351428Y-107969523D01*
X131541904Y-108064761D01*
X131922857Y-108064761D01*
X132113333Y-107969523D01*
X132208571Y-107874285D01*
X132303809Y-107683809D01*
X132303809Y-107302857D01*
X132208571Y-107112380D01*
X132113333Y-107017142D01*
X131922857Y-106921904D01*
X132970476Y-106064761D02*
X134208571Y-106064761D01*
X133541904Y-106826666D01*
X133827619Y-106826666D01*
X134018095Y-106921904D01*
X134113333Y-107017142D01*
X134208571Y-107207619D01*
X134208571Y-107683809D01*
X134113333Y-107874285D01*
X134018095Y-107969523D01*
X133827619Y-108064761D01*
X133256190Y-108064761D01*
X133065714Y-107969523D01*
X132970476Y-107874285D01*
%TO.C,H4*%
X105918095Y-121102380D02*
X105918095Y-120102380D01*
X105918095Y-120578571D02*
X106489523Y-120578571D01*
X106489523Y-121102380D02*
X106489523Y-120102380D01*
X107394285Y-120435714D02*
X107394285Y-121102380D01*
X107156190Y-120054761D02*
X106918095Y-120769047D01*
X107537142Y-120769047D01*
%TO.C,H1*%
X142748095Y-121102380D02*
X142748095Y-120102380D01*
X142748095Y-120578571D02*
X143319523Y-120578571D01*
X143319523Y-121102380D02*
X143319523Y-120102380D01*
X144319523Y-121102380D02*
X143748095Y-121102380D01*
X144033809Y-121102380D02*
X144033809Y-120102380D01*
X143938571Y-120245238D01*
X143843333Y-120340476D01*
X143748095Y-120388095D01*
%TO.C,U1*%
X118628095Y-96177380D02*
X118628095Y-96986904D01*
X118675714Y-97082142D01*
X118723333Y-97129761D01*
X118818571Y-97177380D01*
X119009047Y-97177380D01*
X119104285Y-97129761D01*
X119151904Y-97082142D01*
X119199523Y-96986904D01*
X119199523Y-96177380D01*
X120199523Y-97177380D02*
X119628095Y-97177380D01*
X119913809Y-97177380D02*
X119913809Y-96177380D01*
X119818571Y-96320238D01*
X119723333Y-96415476D01*
X119628095Y-96463095D01*
X113918571Y-116104761D02*
X115251904Y-116104761D01*
X114394761Y-118104761D01*
X116870952Y-116771428D02*
X116870952Y-118104761D01*
X116394761Y-116009523D02*
X115918571Y-117438095D01*
X117156666Y-117438095D01*
X117918571Y-118104761D02*
X117918571Y-116104761D01*
X117918571Y-117057142D02*
X119061428Y-117057142D01*
X119061428Y-118104761D02*
X119061428Y-116104761D01*
X121156666Y-117914285D02*
X121061428Y-118009523D01*
X120775714Y-118104761D01*
X120585238Y-118104761D01*
X120299523Y-118009523D01*
X120109047Y-117819047D01*
X120013809Y-117628571D01*
X119918571Y-117247619D01*
X119918571Y-116961904D01*
X120013809Y-116580952D01*
X120109047Y-116390476D01*
X120299523Y-116200000D01*
X120585238Y-116104761D01*
X120775714Y-116104761D01*
X121061428Y-116200000D01*
X121156666Y-116295238D01*
X122299523Y-116961904D02*
X122109047Y-116866666D01*
X122013809Y-116771428D01*
X121918571Y-116580952D01*
X121918571Y-116485714D01*
X122013809Y-116295238D01*
X122109047Y-116200000D01*
X122299523Y-116104761D01*
X122680476Y-116104761D01*
X122870952Y-116200000D01*
X122966190Y-116295238D01*
X123061428Y-116485714D01*
X123061428Y-116580952D01*
X122966190Y-116771428D01*
X122870952Y-116866666D01*
X122680476Y-116961904D01*
X122299523Y-116961904D01*
X122109047Y-117057142D01*
X122013809Y-117152380D01*
X121918571Y-117342857D01*
X121918571Y-117723809D01*
X122013809Y-117914285D01*
X122109047Y-118009523D01*
X122299523Y-118104761D01*
X122680476Y-118104761D01*
X122870952Y-118009523D01*
X122966190Y-117914285D01*
X123061428Y-117723809D01*
X123061428Y-117342857D01*
X122966190Y-117152380D01*
X122870952Y-117057142D01*
X122680476Y-116961904D01*
X124775714Y-116104761D02*
X124394761Y-116104761D01*
X124204285Y-116200000D01*
X124109047Y-116295238D01*
X123918571Y-116580952D01*
X123823333Y-116961904D01*
X123823333Y-117723809D01*
X123918571Y-117914285D01*
X124013809Y-118009523D01*
X124204285Y-118104761D01*
X124585238Y-118104761D01*
X124775714Y-118009523D01*
X124870952Y-117914285D01*
X124966190Y-117723809D01*
X124966190Y-117247619D01*
X124870952Y-117057142D01*
X124775714Y-116961904D01*
X124585238Y-116866666D01*
X124204285Y-116866666D01*
X124013809Y-116961904D01*
X123918571Y-117057142D01*
X123823333Y-117247619D01*
D14*
%TO.C,J1*%
X108892500Y-100650000D02*
X105472500Y-100650000D01*
X105472500Y-95650000D02*
X105392500Y-95330000D01*
X104892500Y-115440000D02*
X104892500Y-114220000D01*
X105472500Y-95010000D02*
X108892500Y-95010000D01*
X108892500Y-90010000D02*
X108892500Y-90330000D01*
X109892500Y-91660000D02*
X109892500Y-91500000D01*
X112582500Y-113130000D02*
X112582500Y-112530000D01*
X105472500Y-105010000D02*
X108892500Y-105010000D01*
X108892500Y-95010000D02*
X108892500Y-95330000D01*
X105472500Y-105650000D02*
X105392500Y-105330000D01*
X105392500Y-105330000D02*
X105472500Y-105010000D01*
X108892500Y-114220000D02*
X108892500Y-86440000D01*
X103672500Y-115440000D02*
X103672500Y-85220000D01*
X104892500Y-85220000D02*
X104892500Y-86440000D01*
X105472500Y-108150000D02*
X105392500Y-107830000D01*
X112092500Y-115440000D02*
X103672500Y-115440000D01*
X105392500Y-110330000D02*
X105472500Y-110010000D01*
X105392500Y-95330000D02*
X105472500Y-95010000D01*
X108892500Y-112830000D02*
X108892500Y-113150000D01*
X105392500Y-92830000D02*
X105472500Y-92510000D01*
X108892500Y-97510000D02*
X108892500Y-97830000D01*
X108892500Y-88150000D02*
X105472500Y-88150000D01*
X105472500Y-102510000D02*
X108892500Y-102510000D01*
X105472500Y-107510000D02*
X108892500Y-107510000D01*
X105472500Y-90010000D02*
X108892500Y-90010000D01*
X108892500Y-93150000D02*
X105472500Y-93150000D01*
X109892500Y-106660000D02*
X109892500Y-106500000D01*
X105472500Y-93150000D02*
X105392500Y-92830000D01*
X109892500Y-96660000D02*
X109892500Y-96500000D01*
X108892500Y-92830000D02*
X108892500Y-93150000D01*
X109892500Y-104160000D02*
X109892500Y-104000000D01*
X105472500Y-103150000D02*
X105392500Y-102830000D01*
X108892500Y-98150000D02*
X105472500Y-98150000D01*
X108892500Y-112510000D02*
X108892500Y-112830000D01*
X112092500Y-86440000D02*
X109892500Y-86440000D01*
X105472500Y-100010000D02*
X108892500Y-100010000D01*
X104892500Y-86440000D02*
X109892500Y-86440000D01*
X108892500Y-95330000D02*
X108892500Y-95650000D01*
X108892500Y-90330000D02*
X108892500Y-90650000D01*
X103672500Y-85220000D02*
X112092500Y-85220000D01*
X108892500Y-92510000D02*
X108892500Y-92830000D01*
X105472500Y-112510000D02*
X108892500Y-112510000D01*
X105472500Y-92510000D02*
X108892500Y-92510000D01*
X109892500Y-89160000D02*
X109892500Y-89000000D01*
X109892500Y-114220000D02*
X109892500Y-115440000D01*
X108892500Y-107830000D02*
X108892500Y-108150000D01*
X105392500Y-112830000D02*
X105472500Y-112510000D01*
X108892500Y-105330000D02*
X108892500Y-105650000D01*
X108892500Y-100010000D02*
X108892500Y-100330000D01*
X108892500Y-97830000D02*
X108892500Y-98150000D01*
X105472500Y-110010000D02*
X108892500Y-110010000D01*
X109892500Y-99160000D02*
X109892500Y-99000000D01*
X108892500Y-113150000D02*
X105472500Y-113150000D01*
X109892500Y-111660000D02*
X109892500Y-111500000D01*
X105392500Y-102830000D02*
X105472500Y-102510000D01*
X105392500Y-107830000D02*
X105472500Y-107510000D01*
X105472500Y-88150000D02*
X105392500Y-87830000D01*
X105472500Y-98150000D02*
X105392500Y-97830000D01*
X108892500Y-110330000D02*
X108892500Y-110650000D01*
X108892500Y-108150000D02*
X105472500Y-108150000D01*
X108892500Y-110010000D02*
X108892500Y-110330000D01*
X112582500Y-112530000D02*
X111982500Y-112830000D01*
X105472500Y-90650000D02*
X105392500Y-90330000D01*
X108892500Y-110650000D02*
X105472500Y-110650000D01*
X111982500Y-112830000D02*
X112582500Y-113130000D01*
X109892500Y-86440000D02*
X109892500Y-85220000D01*
X112092500Y-114220000D02*
X112092500Y-115440000D01*
X105392500Y-100330000D02*
X105472500Y-100010000D01*
X105392500Y-90330000D02*
X105472500Y-90010000D01*
X105472500Y-113150000D02*
X105392500Y-112830000D01*
X108892500Y-103150000D02*
X105472500Y-103150000D01*
X108892500Y-87510000D02*
X108892500Y-87830000D01*
X105472500Y-97510000D02*
X108892500Y-97510000D01*
X105472500Y-110650000D02*
X105392500Y-110330000D01*
X108892500Y-107510000D02*
X108892500Y-107830000D01*
X108892500Y-105010000D02*
X108892500Y-105330000D01*
X112092500Y-85220000D02*
X112092500Y-86440000D01*
X108892500Y-105650000D02*
X105472500Y-105650000D01*
X105392500Y-97830000D02*
X105472500Y-97510000D01*
X104892500Y-114220000D02*
X109892500Y-114220000D01*
X109892500Y-101660000D02*
X109892500Y-101500000D01*
X109892500Y-109160000D02*
X109892500Y-109000000D01*
X108892500Y-102830000D02*
X108892500Y-103150000D01*
X108892500Y-95650000D02*
X105472500Y-95650000D01*
X108892500Y-100330000D02*
X108892500Y-100650000D01*
X105472500Y-87510000D02*
X108892500Y-87510000D01*
X109892500Y-94160000D02*
X109892500Y-94000000D01*
X108892500Y-102510000D02*
X108892500Y-102830000D01*
X105392500Y-87830000D02*
X105472500Y-87510000D01*
X109892500Y-114220000D02*
X112092500Y-114220000D01*
X108892500Y-87830000D02*
X108892500Y-88150000D01*
X108892500Y-90650000D02*
X105472500Y-90650000D01*
X105472500Y-100650000D02*
X105392500Y-100330000D01*
%TO.C,U2*%
X129820000Y-85020000D02*
X128170000Y-85020000D01*
X135960000Y-84960000D02*
X125680000Y-84960000D01*
X133470000Y-105460000D02*
X133470000Y-85020000D01*
X125680000Y-84960000D02*
X125680000Y-105520000D01*
X125680000Y-105520000D02*
X135960000Y-105520000D01*
X128170000Y-105460000D02*
X133470000Y-105460000D01*
X135960000Y-105520000D02*
X135960000Y-84960000D01*
X133470000Y-85020000D02*
X131820000Y-85020000D01*
X128170000Y-85020000D02*
X128170000Y-105460000D01*
X129820000Y-85020000D02*
G75*
G03*
X131820000Y-85020000I1000000J0D01*
G01*
%TO.C,J2*%
X140297500Y-99020000D02*
X140297500Y-99180000D01*
X141297500Y-97850000D02*
X141297500Y-97530000D01*
X141297500Y-102850000D02*
X141297500Y-102530000D01*
X138097500Y-92740000D02*
X146517500Y-92740000D01*
X140297500Y-93960000D02*
X140297500Y-92740000D01*
X144717500Y-102530000D02*
X144797500Y-102850000D01*
X144717500Y-100030000D02*
X144797500Y-100350000D01*
X144797500Y-97850000D02*
X144717500Y-98170000D01*
X141297500Y-95030000D02*
X144717500Y-95030000D01*
X144717500Y-107530000D02*
X144797500Y-107850000D01*
X141297500Y-95670000D02*
X141297500Y-95350000D01*
X141297500Y-98170000D02*
X141297500Y-97850000D01*
X141297500Y-105350000D02*
X141297500Y-105030000D01*
X140297500Y-101520000D02*
X140297500Y-101680000D01*
X140297500Y-106520000D02*
X140297500Y-106680000D01*
X145297500Y-92740000D02*
X145297500Y-93960000D01*
X141297500Y-107850000D02*
X141297500Y-107530000D01*
X144717500Y-105670000D02*
X141297500Y-105670000D01*
X144797500Y-102850000D02*
X144717500Y-103170000D01*
X144717500Y-100670000D02*
X141297500Y-100670000D01*
X144717500Y-95030000D02*
X144797500Y-95350000D01*
X138097500Y-109240000D02*
X140297500Y-109240000D01*
X144717500Y-98170000D02*
X141297500Y-98170000D01*
X145297500Y-93960000D02*
X140297500Y-93960000D01*
X141297500Y-93960000D02*
X141297500Y-109240000D01*
X137607500Y-95050000D02*
X137607500Y-95650000D01*
X144717500Y-95670000D02*
X141297500Y-95670000D01*
X141297500Y-105670000D02*
X141297500Y-105350000D01*
X144797500Y-107850000D02*
X144717500Y-108170000D01*
X141297500Y-100670000D02*
X141297500Y-100350000D01*
X144717500Y-103170000D02*
X141297500Y-103170000D01*
X141297500Y-102530000D02*
X144717500Y-102530000D01*
X140297500Y-109240000D02*
X140297500Y-110460000D01*
X144717500Y-105030000D02*
X144797500Y-105350000D01*
X145297500Y-110460000D02*
X145297500Y-109240000D01*
X146517500Y-110460000D02*
X138097500Y-110460000D01*
X138097500Y-110460000D02*
X138097500Y-109240000D01*
X141297500Y-95350000D02*
X141297500Y-95030000D01*
X146517500Y-92740000D02*
X146517500Y-110460000D01*
X138207500Y-95350000D02*
X137607500Y-95050000D01*
X141297500Y-103170000D02*
X141297500Y-102850000D01*
X144797500Y-105350000D02*
X144717500Y-105670000D01*
X141297500Y-97530000D02*
X144717500Y-97530000D01*
X141297500Y-100350000D02*
X141297500Y-100030000D01*
X141297500Y-107530000D02*
X144717500Y-107530000D01*
X141297500Y-108170000D02*
X141297500Y-107850000D01*
X144797500Y-95350000D02*
X144717500Y-95670000D01*
X144797500Y-100350000D02*
X144717500Y-100670000D01*
X144717500Y-108170000D02*
X141297500Y-108170000D01*
X141297500Y-105030000D02*
X144717500Y-105030000D01*
X140297500Y-93960000D02*
X138097500Y-93960000D01*
X141297500Y-100030000D02*
X144717500Y-100030000D01*
X138097500Y-93960000D02*
X138097500Y-92740000D01*
X145297500Y-109240000D02*
X140297500Y-109240000D01*
X137607500Y-95650000D02*
X138207500Y-95350000D01*
X140297500Y-96520000D02*
X140297500Y-96680000D01*
X140297500Y-104020000D02*
X140297500Y-104180000D01*
X144717500Y-97530000D02*
X144797500Y-97850000D01*
%TO.C,U1*%
X114250000Y-97665000D02*
X114250000Y-115685000D01*
X116740000Y-97725000D02*
X116740000Y-115625000D01*
X118390000Y-97725000D02*
X116740000Y-97725000D01*
X124530000Y-97665000D02*
X114250000Y-97665000D01*
X122040000Y-97725000D02*
X120390000Y-97725000D01*
X114250000Y-115685000D02*
X124530000Y-115685000D01*
X122040000Y-115625000D02*
X122040000Y-97725000D01*
X116740000Y-115625000D02*
X122040000Y-115625000D01*
X124530000Y-115685000D02*
X124530000Y-97665000D01*
X118390000Y-97725000D02*
G75*
G03*
X120390000Y-97725000I1000000J0D01*
G01*
%TD*%
M02*
