M48
; DRILL file {KiCad (6.0.6)} date Fri Oct 14 10:27:51 2022
; FORMAT={-:-/ absolute / inch / decimal}
; #@! TF.CreationDate,2022-10-14T10:27:51+05:30
; #@! TF.GenerationSoftware,Kicad,Pcbnew,(6.0.6)
; #@! TF.FileFunction,Plated,1,2,PTH
FMAT,2
INCH
; #@! TA.AperFunction,Plated,PTH,ComponentDrill
T1C0.0315
; #@! TA.AperFunction,Plated,PTH,ComponentDrill
T2C0.0374
%
G90
G05
T1
X4.5504Y-3.8998
X4.5504Y-3.9998
X4.5504Y-4.0998
X4.5504Y-4.1998
X4.5504Y-4.2998
X4.5504Y-4.3998
X4.5504Y-4.4998
X4.8504Y-3.8998
X4.8504Y-3.9998
X4.8504Y-4.0998
X4.8504Y-4.1998
X4.8504Y-4.2998
X4.8504Y-4.3998
X4.8504Y-4.4998
X5.0004Y-3.3996
X5.0004Y-3.4996
X5.0004Y-3.5996
X5.0004Y-3.6996
X5.0004Y-3.7996
X5.0004Y-3.8996
X5.0004Y-3.9996
X5.0004Y-4.0996
X5.3004Y-3.3996
X5.3004Y-3.4996
X5.3004Y-3.5996
X5.3004Y-3.6996
X5.3004Y-3.7996
X5.3004Y-3.8996
X5.3004Y-3.9996
X5.3004Y-4.0996
T2
X4.3497Y-3.4579
X4.3497Y-3.5563
X4.3497Y-3.6547
X4.3497Y-3.7531
X4.3497Y-3.8516
X4.3497Y-3.95
X4.3497Y-4.0484
X4.3497Y-4.1469
X4.3497Y-4.2453
X4.3497Y-4.3437
X4.3497Y-4.4421
X5.5003Y-3.7539
X5.5003Y-3.8524
X5.5003Y-3.9508
X5.5003Y-4.0492
X5.5003Y-4.1476
X5.5003Y-4.2461
T0
M30
