%TF.GenerationSoftware,KiCad,Pcbnew,(6.0.6)*%
%TF.CreationDate,2022-10-10T23:24:50+05:30*%
%TF.ProjectId,exp2,65787032-2e6b-4696-9361-645f70636258,rev?*%
%TF.SameCoordinates,Original*%
%TF.FileFunction,Copper,L2,Bot*%
%TF.FilePolarity,Positive*%
%FSLAX46Y46*%
G04 Gerber Fmt 4.6, Leading zero omitted, Abs format (unit mm)*
G04 Created by KiCad (PCBNEW (6.0.6)) date 2022-10-10 23:24:50*
%MOMM*%
%LPD*%
G01*
G04 APERTURE LIST*
G04 Aperture macros list*
%AMRoundRect*
0 Rectangle with rounded corners*
0 $1 Rounding radius*
0 $2 $3 $4 $5 $6 $7 $8 $9 X,Y pos of 4 corners*
0 Add a 4 corners polygon primitive as box body*
4,1,4,$2,$3,$4,$5,$6,$7,$8,$9,$2,$3,0*
0 Add four circle primitives for the rounded corners*
1,1,$1+$1,$2,$3*
1,1,$1+$1,$4,$5*
1,1,$1+$1,$6,$7*
1,1,$1+$1,$8,$9*
0 Add four rect primitives between the rounded corners*
20,1,$1+$1,$2,$3,$4,$5,0*
20,1,$1+$1,$4,$5,$6,$7,0*
20,1,$1+$1,$6,$7,$8,$9,0*
20,1,$1+$1,$8,$9,$2,$3,0*%
G04 Aperture macros list end*
%TA.AperFunction,ComponentPad*%
%ADD10RoundRect,0.250000X-0.725000X0.600000X-0.725000X-0.600000X0.725000X-0.600000X0.725000X0.600000X0*%
%TD*%
%TA.AperFunction,ComponentPad*%
%ADD11O,1.950000X1.700000*%
%TD*%
%TA.AperFunction,ComponentPad*%
%ADD12R,1.600000X1.600000*%
%TD*%
%TA.AperFunction,ComponentPad*%
%ADD13O,1.600000X1.600000*%
%TD*%
%TA.AperFunction,ComponentPad*%
%ADD14RoundRect,0.250000X0.725000X-0.600000X0.725000X0.600000X-0.725000X0.600000X-0.725000X-0.600000X0*%
%TD*%
%TA.AperFunction,Conductor*%
%ADD15C,0.508000*%
%TD*%
G04 APERTURE END LIST*
D10*
%TO.P,J2,1,Pin_1*%
%TO.N,CO*%
X129127500Y-99460000D03*
D11*
%TO.P,J2,2,Pin_2*%
%TO.N,S3*%
X129127500Y-101960000D03*
%TO.P,J2,3,Pin_3*%
%TO.N,S2*%
X129127500Y-104460000D03*
%TO.P,J2,4,Pin_4*%
%TO.N,S1*%
X129127500Y-106960000D03*
%TO.P,J2,5,Pin_5*%
%TO.N,S0*%
X129127500Y-109460000D03*
%TO.P,J2,6,Pin_6*%
%TO.N,GND*%
X129127500Y-111960000D03*
%TD*%
D12*
%TO.P,U2,1,A4*%
%TO.N,A3*%
X134620000Y-86360000D03*
D13*
%TO.P,U2,2,S3*%
%TO.N,S2*%
X132080000Y-86360000D03*
%TO.P,U2,3,A3*%
%TO.N,A2*%
X129540000Y-86360000D03*
%TO.P,U2,4,B3*%
%TO.N,Net-(U1-Pad11)*%
X127000000Y-86360000D03*
%TO.P,U2,5,VCC*%
%TO.N,VCC*%
X124460000Y-86360000D03*
%TO.P,U2,6,S2*%
%TO.N,S1*%
X121920000Y-86360000D03*
%TO.P,U2,7,B2*%
%TO.N,Net-(U1-Pad8)*%
X119380000Y-86360000D03*
%TO.P,U2,8,A2*%
%TO.N,A1*%
X116840000Y-86360000D03*
%TO.P,U2,9,S1*%
%TO.N,S0*%
X116840000Y-93980000D03*
%TO.P,U2,10,A1*%
%TO.N,A0*%
X119380000Y-93980000D03*
%TO.P,U2,11,B1*%
%TO.N,Net-(U1-Pad6)*%
X121920000Y-93980000D03*
%TO.P,U2,12,GND*%
%TO.N,GND*%
X124460000Y-93980000D03*
%TO.P,U2,13,C0*%
%TO.N,Cin*%
X127000000Y-93980000D03*
%TO.P,U2,14,C4*%
%TO.N,CO*%
X129540000Y-93980000D03*
%TO.P,U2,15,S4*%
%TO.N,S3*%
X132080000Y-93980000D03*
%TO.P,U2,16,B4*%
%TO.N,Net-(U1-Pad3)*%
X134620000Y-93980000D03*
%TD*%
D14*
%TO.P,J1,1,Pin_1*%
%TO.N,Cin*%
X111240000Y-111980000D03*
D11*
%TO.P,J1,2,Pin_2*%
%TO.N,B0*%
X111240000Y-109480000D03*
%TO.P,J1,3,Pin_3*%
%TO.N,B1*%
X111240000Y-106980000D03*
%TO.P,J1,4,Pin_4*%
%TO.N,B2*%
X111240000Y-104480000D03*
%TO.P,J1,5,Pin_5*%
%TO.N,B3*%
X111240000Y-101980000D03*
%TO.P,J1,6,Pin_6*%
%TO.N,A0*%
X111240000Y-99480000D03*
%TO.P,J1,7,Pin_7*%
%TO.N,A1*%
X111240000Y-96980000D03*
%TO.P,J1,8,Pin_8*%
%TO.N,A2*%
X111240000Y-94480000D03*
%TO.P,J1,9,Pin_9*%
%TO.N,A3*%
X111240000Y-91980000D03*
%TO.P,J1,10,Pin_10*%
%TO.N,GND*%
X111240000Y-89480000D03*
%TO.P,J1,11,Pin_11*%
%TO.N,VCC*%
X111240000Y-86980000D03*
%TD*%
D12*
%TO.P,U1,1*%
%TO.N,Cin*%
X116510000Y-98065000D03*
D13*
%TO.P,U1,2*%
%TO.N,B3*%
X116510000Y-100605000D03*
%TO.P,U1,3*%
%TO.N,Net-(U1-Pad3)*%
X116510000Y-103145000D03*
%TO.P,U1,4*%
%TO.N,Cin*%
X116510000Y-105685000D03*
%TO.P,U1,5*%
%TO.N,B0*%
X116510000Y-108225000D03*
%TO.P,U1,6*%
%TO.N,Net-(U1-Pad6)*%
X116510000Y-110765000D03*
%TO.P,U1,7,GND*%
%TO.N,GND*%
X116510000Y-113305000D03*
%TO.P,U1,8*%
%TO.N,Net-(U1-Pad8)*%
X124130000Y-113305000D03*
%TO.P,U1,9*%
%TO.N,Cin*%
X124130000Y-110765000D03*
%TO.P,U1,10*%
%TO.N,B1*%
X124130000Y-108225000D03*
%TO.P,U1,11*%
%TO.N,Net-(U1-Pad11)*%
X124130000Y-105685000D03*
%TO.P,U1,12*%
%TO.N,Cin*%
X124130000Y-103145000D03*
%TO.P,U1,13*%
%TO.N,B2*%
X124130000Y-100605000D03*
%TO.P,U1,14,VCC*%
%TO.N,VCC*%
X124130000Y-98065000D03*
%TD*%
D15*
%TO.N,Net-(U1-Pad6)*%
X121920000Y-105355000D02*
X121920000Y-93980000D01*
X116510000Y-110765000D02*
X121920000Y-105355000D01*
%TO.N,S0*%
X126600000Y-113330000D02*
X126600000Y-112010000D01*
X115780000Y-115270000D02*
X124660000Y-115270000D01*
X113980000Y-113470000D02*
X115780000Y-115270000D01*
X124660000Y-115270000D02*
X126600000Y-113330000D01*
X113980000Y-96840000D02*
X113980000Y-113470000D01*
X116840000Y-93980000D02*
X113980000Y-96840000D01*
X126600000Y-112010000D02*
X129127500Y-109482500D01*
%TO.N,Net-(U1-Pad8)*%
X123190000Y-95970000D02*
X123190000Y-90170000D01*
X122630000Y-96530000D02*
X123190000Y-95970000D01*
X122630000Y-111805000D02*
X122630000Y-96530000D01*
X124130000Y-113305000D02*
X122630000Y-111805000D01*
X123190000Y-90170000D02*
X119380000Y-86360000D01*
%TO.N,Cin*%
X125880000Y-95100000D02*
X127000000Y-93980000D01*
X125880000Y-101395000D02*
X125880000Y-95100000D01*
X124130000Y-103145000D02*
X125880000Y-101395000D01*
%TO.N,Net-(U1-Pad11)*%
X128254000Y-87614000D02*
X127000000Y-86360000D01*
X128254000Y-95896000D02*
X128254000Y-87614000D01*
X127370000Y-102445000D02*
X127370000Y-96780000D01*
X127370000Y-96780000D02*
X128254000Y-95896000D01*
X124130000Y-105685000D02*
X127370000Y-102445000D01*
%TO.N,CO*%
X129127500Y-97052500D02*
X129127500Y-99460000D01*
X129540000Y-96640000D02*
X129127500Y-97052500D01*
X129540000Y-93980000D02*
X129540000Y-96640000D01*
%TO.N,S1*%
X129140000Y-106960000D02*
X129127500Y-106960000D01*
X137670000Y-98430000D02*
X129140000Y-106960000D01*
X137206000Y-91406000D02*
X137670000Y-91870000D01*
X137206000Y-91400000D02*
X137206000Y-91406000D01*
X133340000Y-85600000D02*
X133340000Y-87534000D01*
X137670000Y-91870000D02*
X137670000Y-98430000D01*
X132618000Y-84878000D02*
X133340000Y-85600000D01*
X121920000Y-86360000D02*
X123402000Y-84878000D01*
X123402000Y-84878000D02*
X132618000Y-84878000D01*
X133340000Y-87534000D02*
X137206000Y-91400000D01*
%TO.N,A3*%
X114000000Y-86090000D02*
X115920000Y-84170000D01*
X114000000Y-89250000D02*
X114000000Y-86090000D01*
X115920000Y-84170000D02*
X133320000Y-84170000D01*
X134620000Y-85470000D02*
X134620000Y-86360000D01*
X111240000Y-91980000D02*
X111270000Y-91980000D01*
X111270000Y-91980000D02*
X114000000Y-89250000D01*
X133320000Y-84170000D02*
X134620000Y-85470000D01*
%TO.N,Cin*%
X114820532Y-103995532D02*
X114820532Y-99754468D01*
X116510000Y-105685000D02*
X114820532Y-103995532D01*
X114820532Y-99754468D02*
X116510000Y-98065000D01*
%TO.N,A1*%
X111240000Y-96980000D02*
X111490000Y-96980000D01*
X111490000Y-96980000D02*
X116840000Y-91630000D01*
X116840000Y-91630000D02*
X116840000Y-86360000D01*
%TO.N,S3*%
X129127500Y-101960000D02*
X132080000Y-99007500D01*
X132080000Y-99007500D02*
X132080000Y-93980000D01*
%TO.N,S2*%
X129180000Y-104460000D02*
X136190000Y-97450000D01*
X129127500Y-104460000D02*
X129180000Y-104460000D01*
X136190000Y-92090000D02*
X132080000Y-87980000D01*
X132080000Y-87980000D02*
X132080000Y-86360000D01*
X136190000Y-97450000D02*
X136190000Y-92090000D01*
%TD*%
%TA.AperFunction,NonConductor*%
G36*
X121384881Y-84952502D02*
G01*
X121431374Y-85006158D01*
X121441478Y-85076432D01*
X121411984Y-85141012D01*
X121370009Y-85172695D01*
X121268242Y-85220149D01*
X121268236Y-85220153D01*
X121263251Y-85222477D01*
X121158389Y-85295902D01*
X121080211Y-85350643D01*
X121080208Y-85350645D01*
X121075700Y-85353802D01*
X120913802Y-85515700D01*
X120910645Y-85520208D01*
X120910643Y-85520211D01*
X120865140Y-85585196D01*
X120782477Y-85703251D01*
X120780154Y-85708233D01*
X120780151Y-85708238D01*
X120764195Y-85742457D01*
X120717278Y-85795742D01*
X120649001Y-85815203D01*
X120581041Y-85794661D01*
X120535805Y-85742457D01*
X120519849Y-85708238D01*
X120519846Y-85708233D01*
X120517523Y-85703251D01*
X120434860Y-85585196D01*
X120389357Y-85520211D01*
X120389355Y-85520208D01*
X120386198Y-85515700D01*
X120224300Y-85353802D01*
X120219792Y-85350645D01*
X120219789Y-85350643D01*
X120141611Y-85295902D01*
X120036749Y-85222477D01*
X120031764Y-85220153D01*
X120031758Y-85220149D01*
X119929991Y-85172695D01*
X119876705Y-85125778D01*
X119857244Y-85057501D01*
X119877786Y-84989541D01*
X119931808Y-84943475D01*
X119983240Y-84932500D01*
X121316760Y-84932500D01*
X121384881Y-84952502D01*
G37*
%TD.AperFunction*%
%TA.AperFunction,NonConductor*%
G36*
X118844881Y-84952502D02*
G01*
X118891374Y-85006158D01*
X118901478Y-85076432D01*
X118871984Y-85141012D01*
X118830009Y-85172695D01*
X118728242Y-85220149D01*
X118728236Y-85220153D01*
X118723251Y-85222477D01*
X118618389Y-85295902D01*
X118540211Y-85350643D01*
X118540208Y-85350645D01*
X118535700Y-85353802D01*
X118373802Y-85515700D01*
X118370645Y-85520208D01*
X118370643Y-85520211D01*
X118325140Y-85585196D01*
X118242477Y-85703251D01*
X118240154Y-85708233D01*
X118240151Y-85708238D01*
X118224195Y-85742457D01*
X118177278Y-85795742D01*
X118109001Y-85815203D01*
X118041041Y-85794661D01*
X117995805Y-85742457D01*
X117979849Y-85708238D01*
X117979846Y-85708233D01*
X117977523Y-85703251D01*
X117894860Y-85585196D01*
X117849357Y-85520211D01*
X117849355Y-85520208D01*
X117846198Y-85515700D01*
X117684300Y-85353802D01*
X117679792Y-85350645D01*
X117679789Y-85350643D01*
X117601611Y-85295902D01*
X117496749Y-85222477D01*
X117491764Y-85220153D01*
X117491758Y-85220149D01*
X117389991Y-85172695D01*
X117336705Y-85125778D01*
X117317244Y-85057501D01*
X117337786Y-84989541D01*
X117391808Y-84943475D01*
X117443240Y-84932500D01*
X118776760Y-84932500D01*
X118844881Y-84952502D01*
G37*
%TD.AperFunction*%
%TA.AperFunction,NonConductor*%
G36*
X118178959Y-86925339D02*
G01*
X118224195Y-86977543D01*
X118240151Y-87011762D01*
X118240154Y-87011767D01*
X118242477Y-87016749D01*
X118373802Y-87204300D01*
X118535700Y-87366198D01*
X118540208Y-87369355D01*
X118540211Y-87369357D01*
X118563773Y-87385855D01*
X118723251Y-87497523D01*
X118728233Y-87499846D01*
X118728238Y-87499849D01*
X118923249Y-87590783D01*
X118930757Y-87594284D01*
X118936065Y-87595706D01*
X118936067Y-87595707D01*
X119146598Y-87652119D01*
X119146600Y-87652119D01*
X119151913Y-87653543D01*
X119380000Y-87673498D01*
X119385475Y-87673019D01*
X119537711Y-87659700D01*
X119607316Y-87673689D01*
X119637788Y-87696126D01*
X122390595Y-90448933D01*
X122424621Y-90511245D01*
X122427500Y-90538028D01*
X122427500Y-92597119D01*
X122407498Y-92665240D01*
X122353842Y-92711733D01*
X122283568Y-92721837D01*
X122268889Y-92718826D01*
X122153402Y-92687881D01*
X122153400Y-92687881D01*
X122148087Y-92686457D01*
X121920000Y-92666502D01*
X121691913Y-92686457D01*
X121686600Y-92687881D01*
X121686598Y-92687881D01*
X121476067Y-92744293D01*
X121476065Y-92744294D01*
X121470757Y-92745716D01*
X121465776Y-92748039D01*
X121465775Y-92748039D01*
X121268238Y-92840151D01*
X121268233Y-92840154D01*
X121263251Y-92842477D01*
X121204773Y-92883424D01*
X121080211Y-92970643D01*
X121080208Y-92970645D01*
X121075700Y-92973802D01*
X120913802Y-93135700D01*
X120910645Y-93140208D01*
X120910643Y-93140211D01*
X120888866Y-93171312D01*
X120782477Y-93323251D01*
X120780154Y-93328233D01*
X120780151Y-93328238D01*
X120764195Y-93362457D01*
X120717278Y-93415742D01*
X120649001Y-93435203D01*
X120581041Y-93414661D01*
X120535805Y-93362457D01*
X120519849Y-93328238D01*
X120519846Y-93328233D01*
X120517523Y-93323251D01*
X120411134Y-93171312D01*
X120389357Y-93140211D01*
X120389355Y-93140208D01*
X120386198Y-93135700D01*
X120224300Y-92973802D01*
X120219792Y-92970645D01*
X120219789Y-92970643D01*
X120095227Y-92883424D01*
X120036749Y-92842477D01*
X120031767Y-92840154D01*
X120031762Y-92840151D01*
X119834225Y-92748039D01*
X119834224Y-92748039D01*
X119829243Y-92745716D01*
X119823935Y-92744294D01*
X119823933Y-92744293D01*
X119613402Y-92687881D01*
X119613400Y-92687881D01*
X119608087Y-92686457D01*
X119380000Y-92666502D01*
X119151913Y-92686457D01*
X119146600Y-92687881D01*
X119146598Y-92687881D01*
X118936067Y-92744293D01*
X118936065Y-92744294D01*
X118930757Y-92745716D01*
X118925776Y-92748039D01*
X118925775Y-92748039D01*
X118728238Y-92840151D01*
X118728233Y-92840154D01*
X118723251Y-92842477D01*
X118664773Y-92883424D01*
X118540211Y-92970643D01*
X118540208Y-92970645D01*
X118535700Y-92973802D01*
X118373802Y-93135700D01*
X118370645Y-93140208D01*
X118370643Y-93140211D01*
X118348866Y-93171312D01*
X118242477Y-93323251D01*
X118240154Y-93328233D01*
X118240151Y-93328238D01*
X118224195Y-93362457D01*
X118177278Y-93415742D01*
X118109001Y-93435203D01*
X118041041Y-93414661D01*
X117995805Y-93362457D01*
X117979849Y-93328238D01*
X117979846Y-93328233D01*
X117977523Y-93323251D01*
X117871134Y-93171312D01*
X117849357Y-93140211D01*
X117849355Y-93140208D01*
X117846198Y-93135700D01*
X117684300Y-92973802D01*
X117679792Y-92970645D01*
X117679789Y-92970643D01*
X117555227Y-92883424D01*
X117496749Y-92842477D01*
X117491767Y-92840154D01*
X117491762Y-92840151D01*
X117294225Y-92748039D01*
X117294224Y-92748039D01*
X117289243Y-92745716D01*
X117283935Y-92744294D01*
X117283933Y-92744293D01*
X117184127Y-92717550D01*
X117116258Y-92699365D01*
X117055636Y-92662413D01*
X117024615Y-92598553D01*
X117033043Y-92528058D01*
X117059775Y-92488563D01*
X117331528Y-92216810D01*
X117345941Y-92204423D01*
X117357665Y-92195795D01*
X117363564Y-92191454D01*
X117397979Y-92150945D01*
X117404909Y-92143429D01*
X117410653Y-92137685D01*
X117412932Y-92134805D01*
X117428384Y-92115275D01*
X117431171Y-92111876D01*
X117473943Y-92061529D01*
X117478684Y-92055949D01*
X117482013Y-92049430D01*
X117485426Y-92044312D01*
X117488623Y-92039135D01*
X117493161Y-92033400D01*
X117524241Y-91966899D01*
X117526173Y-91962947D01*
X117556213Y-91904118D01*
X117556214Y-91904116D01*
X117559543Y-91897596D01*
X117561284Y-91890480D01*
X117563420Y-91884736D01*
X117565344Y-91878954D01*
X117568444Y-91872320D01*
X117583395Y-91800440D01*
X117584365Y-91796156D01*
X117601804Y-91724888D01*
X117602500Y-91713670D01*
X117602537Y-91713672D01*
X117602773Y-91709773D01*
X117603163Y-91705402D01*
X117604652Y-91698243D01*
X117602546Y-91620423D01*
X117602500Y-91617014D01*
X117602500Y-87489067D01*
X117622502Y-87420946D01*
X117656228Y-87385855D01*
X117679786Y-87369359D01*
X117679788Y-87369357D01*
X117684300Y-87366198D01*
X117846198Y-87204300D01*
X117977523Y-87016749D01*
X117979846Y-87011767D01*
X117979849Y-87011762D01*
X117995805Y-86977543D01*
X118042722Y-86924258D01*
X118110999Y-86904797D01*
X118178959Y-86925339D01*
G37*
%TD.AperFunction*%
%TA.AperFunction,NonConductor*%
G36*
X125798959Y-86925339D02*
G01*
X125844195Y-86977543D01*
X125860151Y-87011762D01*
X125860154Y-87011767D01*
X125862477Y-87016749D01*
X125993802Y-87204300D01*
X126155700Y-87366198D01*
X126160208Y-87369355D01*
X126160211Y-87369357D01*
X126183773Y-87385855D01*
X126343251Y-87497523D01*
X126348233Y-87499846D01*
X126348238Y-87499849D01*
X126543249Y-87590783D01*
X126550757Y-87594284D01*
X126556065Y-87595706D01*
X126556067Y-87595707D01*
X126766598Y-87652119D01*
X126766600Y-87652119D01*
X126771913Y-87653543D01*
X127000000Y-87673498D01*
X127005475Y-87673019D01*
X127157711Y-87659700D01*
X127227316Y-87673689D01*
X127257788Y-87696126D01*
X127454595Y-87892933D01*
X127488621Y-87955245D01*
X127491500Y-87982028D01*
X127491500Y-92592832D01*
X127471498Y-92660953D01*
X127417842Y-92707446D01*
X127347568Y-92717550D01*
X127332895Y-92714540D01*
X127228087Y-92686457D01*
X127000000Y-92666502D01*
X126771913Y-92686457D01*
X126766600Y-92687881D01*
X126766598Y-92687881D01*
X126556067Y-92744293D01*
X126556065Y-92744294D01*
X126550757Y-92745716D01*
X126545776Y-92748039D01*
X126545775Y-92748039D01*
X126348238Y-92840151D01*
X126348233Y-92840154D01*
X126343251Y-92842477D01*
X126284773Y-92883424D01*
X126160211Y-92970643D01*
X126160208Y-92970645D01*
X126155700Y-92973802D01*
X125993802Y-93135700D01*
X125990645Y-93140208D01*
X125990643Y-93140211D01*
X125968866Y-93171312D01*
X125862477Y-93323251D01*
X125860154Y-93328233D01*
X125860151Y-93328238D01*
X125844195Y-93362457D01*
X125797278Y-93415742D01*
X125729001Y-93435203D01*
X125661041Y-93414661D01*
X125615805Y-93362457D01*
X125599849Y-93328238D01*
X125599846Y-93328233D01*
X125597523Y-93323251D01*
X125491134Y-93171312D01*
X125469357Y-93140211D01*
X125469355Y-93140208D01*
X125466198Y-93135700D01*
X125304300Y-92973802D01*
X125299792Y-92970645D01*
X125299789Y-92970643D01*
X125175227Y-92883424D01*
X125116749Y-92842477D01*
X125111767Y-92840154D01*
X125111762Y-92840151D01*
X124914225Y-92748039D01*
X124914224Y-92748039D01*
X124909243Y-92745716D01*
X124903935Y-92744294D01*
X124903933Y-92744293D01*
X124693402Y-92687881D01*
X124693400Y-92687881D01*
X124688087Y-92686457D01*
X124460000Y-92666502D01*
X124231913Y-92686457D01*
X124226600Y-92687881D01*
X124226598Y-92687881D01*
X124111111Y-92718826D01*
X124040135Y-92717136D01*
X123981339Y-92677342D01*
X123953391Y-92612078D01*
X123952500Y-92597119D01*
X123952500Y-90237377D01*
X123953933Y-90218427D01*
X123956124Y-90204028D01*
X123956124Y-90204022D01*
X123957224Y-90196793D01*
X123952915Y-90143818D01*
X123952500Y-90133603D01*
X123952500Y-90125475D01*
X123952078Y-90121853D01*
X123952077Y-90121840D01*
X123949191Y-90097086D01*
X123948758Y-90092710D01*
X123948602Y-90090783D01*
X123942809Y-90019574D01*
X123940553Y-90012612D01*
X123939357Y-90006624D01*
X123937949Y-90000667D01*
X123937101Y-89993393D01*
X123934603Y-89986511D01*
X123934602Y-89986507D01*
X123912055Y-89924393D01*
X123910645Y-89920289D01*
X123888013Y-89850425D01*
X123884213Y-89844162D01*
X123881675Y-89838620D01*
X123878933Y-89833144D01*
X123876434Y-89826259D01*
X123840169Y-89770945D01*
X123836185Y-89764868D01*
X123833870Y-89761200D01*
X123795773Y-89698419D01*
X123788333Y-89689995D01*
X123788362Y-89689969D01*
X123785762Y-89687038D01*
X123782958Y-89683684D01*
X123778946Y-89677565D01*
X123722413Y-89624011D01*
X123719972Y-89621634D01*
X121974822Y-87876484D01*
X121940796Y-87814172D01*
X121945861Y-87743357D01*
X121988408Y-87686521D01*
X122052935Y-87661868D01*
X122088684Y-87658740D01*
X122148087Y-87653543D01*
X122153400Y-87652119D01*
X122153402Y-87652119D01*
X122363933Y-87595707D01*
X122363935Y-87595706D01*
X122369243Y-87594284D01*
X122376751Y-87590783D01*
X122571762Y-87499849D01*
X122571767Y-87499846D01*
X122576749Y-87497523D01*
X122736227Y-87385855D01*
X122759789Y-87369357D01*
X122759792Y-87369355D01*
X122764300Y-87366198D01*
X122926198Y-87204300D01*
X123057523Y-87016749D01*
X123059846Y-87011767D01*
X123059849Y-87011762D01*
X123075805Y-86977543D01*
X123122722Y-86924258D01*
X123190999Y-86904797D01*
X123258959Y-86925339D01*
X123304195Y-86977543D01*
X123320151Y-87011762D01*
X123320154Y-87011767D01*
X123322477Y-87016749D01*
X123453802Y-87204300D01*
X123615700Y-87366198D01*
X123620208Y-87369355D01*
X123620211Y-87369357D01*
X123643773Y-87385855D01*
X123803251Y-87497523D01*
X123808233Y-87499846D01*
X123808238Y-87499849D01*
X124003249Y-87590783D01*
X124010757Y-87594284D01*
X124016065Y-87595706D01*
X124016067Y-87595707D01*
X124226598Y-87652119D01*
X124226600Y-87652119D01*
X124231913Y-87653543D01*
X124460000Y-87673498D01*
X124688087Y-87653543D01*
X124693400Y-87652119D01*
X124693402Y-87652119D01*
X124903933Y-87595707D01*
X124903935Y-87595706D01*
X124909243Y-87594284D01*
X124916751Y-87590783D01*
X125111762Y-87499849D01*
X125111767Y-87499846D01*
X125116749Y-87497523D01*
X125276227Y-87385855D01*
X125299789Y-87369357D01*
X125299792Y-87369355D01*
X125304300Y-87366198D01*
X125466198Y-87204300D01*
X125597523Y-87016749D01*
X125599846Y-87011767D01*
X125599849Y-87011762D01*
X125615805Y-86977543D01*
X125662722Y-86924258D01*
X125730999Y-86904797D01*
X125798959Y-86925339D01*
G37*
%TD.AperFunction*%
%TA.AperFunction,NonConductor*%
G36*
X130878959Y-86925339D02*
G01*
X130924195Y-86977543D01*
X130940151Y-87011762D01*
X130940154Y-87011767D01*
X130942477Y-87016749D01*
X131073802Y-87204300D01*
X131235700Y-87366198D01*
X131240212Y-87369357D01*
X131240214Y-87369359D01*
X131263772Y-87385855D01*
X131308100Y-87441312D01*
X131317500Y-87489067D01*
X131317500Y-87912624D01*
X131316067Y-87931574D01*
X131313876Y-87945973D01*
X131313876Y-87945979D01*
X131312776Y-87953208D01*
X131313369Y-87960500D01*
X131313369Y-87960503D01*
X131317085Y-88006183D01*
X131317500Y-88016398D01*
X131317500Y-88024525D01*
X131320811Y-88052924D01*
X131321238Y-88057244D01*
X131327191Y-88130426D01*
X131329447Y-88137388D01*
X131330643Y-88143376D01*
X131332051Y-88149333D01*
X131332899Y-88156607D01*
X131335397Y-88163489D01*
X131335398Y-88163493D01*
X131357945Y-88225607D01*
X131359355Y-88229711D01*
X131381987Y-88299575D01*
X131385787Y-88305838D01*
X131388325Y-88311380D01*
X131391067Y-88316856D01*
X131393566Y-88323741D01*
X131397581Y-88329865D01*
X131433815Y-88385132D01*
X131436130Y-88388800D01*
X131474227Y-88451581D01*
X131477941Y-88455786D01*
X131477943Y-88455789D01*
X131481667Y-88460005D01*
X131481638Y-88460031D01*
X131484238Y-88462962D01*
X131487042Y-88466316D01*
X131491054Y-88472435D01*
X131527107Y-88506588D01*
X131547586Y-88525988D01*
X131550028Y-88528366D01*
X135390595Y-92368933D01*
X135424621Y-92431245D01*
X135427500Y-92458028D01*
X135427500Y-92714993D01*
X135407498Y-92783114D01*
X135353842Y-92829607D01*
X135283568Y-92839711D01*
X135248250Y-92829188D01*
X135158522Y-92787347D01*
X135069243Y-92745716D01*
X135063935Y-92744294D01*
X135063933Y-92744293D01*
X134853402Y-92687881D01*
X134853400Y-92687881D01*
X134848087Y-92686457D01*
X134620000Y-92666502D01*
X134391913Y-92686457D01*
X134386600Y-92687881D01*
X134386598Y-92687881D01*
X134176067Y-92744293D01*
X134176065Y-92744294D01*
X134170757Y-92745716D01*
X134165776Y-92748039D01*
X134165775Y-92748039D01*
X133968238Y-92840151D01*
X133968233Y-92840154D01*
X133963251Y-92842477D01*
X133904773Y-92883424D01*
X133780211Y-92970643D01*
X133780208Y-92970645D01*
X133775700Y-92973802D01*
X133613802Y-93135700D01*
X133610645Y-93140208D01*
X133610643Y-93140211D01*
X133588866Y-93171312D01*
X133482477Y-93323251D01*
X133480154Y-93328233D01*
X133480151Y-93328238D01*
X133464195Y-93362457D01*
X133417278Y-93415742D01*
X133349001Y-93435203D01*
X133281041Y-93414661D01*
X133235805Y-93362457D01*
X133219849Y-93328238D01*
X133219846Y-93328233D01*
X133217523Y-93323251D01*
X133111134Y-93171312D01*
X133089357Y-93140211D01*
X133089355Y-93140208D01*
X133086198Y-93135700D01*
X132924300Y-92973802D01*
X132919792Y-92970645D01*
X132919789Y-92970643D01*
X132795227Y-92883424D01*
X132736749Y-92842477D01*
X132731767Y-92840154D01*
X132731762Y-92840151D01*
X132534225Y-92748039D01*
X132534224Y-92748039D01*
X132529243Y-92745716D01*
X132523935Y-92744294D01*
X132523933Y-92744293D01*
X132313402Y-92687881D01*
X132313400Y-92687881D01*
X132308087Y-92686457D01*
X132080000Y-92666502D01*
X131851913Y-92686457D01*
X131846600Y-92687881D01*
X131846598Y-92687881D01*
X131636067Y-92744293D01*
X131636065Y-92744294D01*
X131630757Y-92745716D01*
X131625776Y-92748039D01*
X131625775Y-92748039D01*
X131428238Y-92840151D01*
X131428233Y-92840154D01*
X131423251Y-92842477D01*
X131364773Y-92883424D01*
X131240211Y-92970643D01*
X131240208Y-92970645D01*
X131235700Y-92973802D01*
X131073802Y-93135700D01*
X131070645Y-93140208D01*
X131070643Y-93140211D01*
X131048866Y-93171312D01*
X130942477Y-93323251D01*
X130940154Y-93328233D01*
X130940151Y-93328238D01*
X130924195Y-93362457D01*
X130877278Y-93415742D01*
X130809001Y-93435203D01*
X130741041Y-93414661D01*
X130695805Y-93362457D01*
X130679849Y-93328238D01*
X130679846Y-93328233D01*
X130677523Y-93323251D01*
X130571134Y-93171312D01*
X130549357Y-93140211D01*
X130549355Y-93140208D01*
X130546198Y-93135700D01*
X130384300Y-92973802D01*
X130379792Y-92970645D01*
X130379789Y-92970643D01*
X130255227Y-92883424D01*
X130196749Y-92842477D01*
X130191767Y-92840154D01*
X130191762Y-92840151D01*
X129994225Y-92748039D01*
X129994224Y-92748039D01*
X129989243Y-92745716D01*
X129983935Y-92744294D01*
X129983933Y-92744293D01*
X129773402Y-92687881D01*
X129773400Y-92687881D01*
X129768087Y-92686457D01*
X129540000Y-92666502D01*
X129311913Y-92686457D01*
X129306600Y-92687881D01*
X129306598Y-92687881D01*
X129175111Y-92723113D01*
X129104135Y-92721423D01*
X129045339Y-92681629D01*
X129017391Y-92616365D01*
X129016500Y-92601406D01*
X129016500Y-87738594D01*
X129036502Y-87670473D01*
X129090158Y-87623980D01*
X129160432Y-87613876D01*
X129175111Y-87616887D01*
X129306598Y-87652119D01*
X129306600Y-87652119D01*
X129311913Y-87653543D01*
X129540000Y-87673498D01*
X129768087Y-87653543D01*
X129773400Y-87652119D01*
X129773402Y-87652119D01*
X129983933Y-87595707D01*
X129983935Y-87595706D01*
X129989243Y-87594284D01*
X129996751Y-87590783D01*
X130191762Y-87499849D01*
X130191767Y-87499846D01*
X130196749Y-87497523D01*
X130356227Y-87385855D01*
X130379789Y-87369357D01*
X130379792Y-87369355D01*
X130384300Y-87366198D01*
X130546198Y-87204300D01*
X130677523Y-87016749D01*
X130679846Y-87011767D01*
X130679849Y-87011762D01*
X130695805Y-86977543D01*
X130742722Y-86924258D01*
X130810999Y-86904797D01*
X130878959Y-86925339D01*
G37*
%TD.AperFunction*%
%TA.AperFunction,NonConductor*%
G36*
X115537737Y-85734767D02*
G01*
X115594573Y-85777314D01*
X115619384Y-85843834D01*
X115608974Y-85900257D01*
X115609922Y-85900602D01*
X115608039Y-85905775D01*
X115605716Y-85910757D01*
X115604294Y-85916065D01*
X115604293Y-85916067D01*
X115560138Y-86080854D01*
X115546457Y-86131913D01*
X115526502Y-86360000D01*
X115546457Y-86588087D01*
X115547881Y-86593400D01*
X115547881Y-86593402D01*
X115571656Y-86682129D01*
X115605716Y-86809243D01*
X115608039Y-86814224D01*
X115608039Y-86814225D01*
X115700151Y-87011762D01*
X115700154Y-87011767D01*
X115702477Y-87016749D01*
X115833802Y-87204300D01*
X115995700Y-87366198D01*
X116000212Y-87369357D01*
X116000214Y-87369359D01*
X116023772Y-87385855D01*
X116068100Y-87441312D01*
X116077500Y-87489067D01*
X116077500Y-91261972D01*
X116057498Y-91330093D01*
X116040595Y-91351067D01*
X112935433Y-94456229D01*
X112873121Y-94490255D01*
X112802306Y-94485190D01*
X112745470Y-94442643D01*
X112720427Y-94371861D01*
X112718449Y-94319173D01*
X112718249Y-94313842D01*
X112670907Y-94088209D01*
X112586224Y-93873779D01*
X112466623Y-93676683D01*
X112379755Y-93576576D01*
X112319023Y-93506588D01*
X112319021Y-93506586D01*
X112315523Y-93502555D01*
X112273970Y-93468484D01*
X112141373Y-93359760D01*
X112141367Y-93359756D01*
X112137245Y-93356376D01*
X112105750Y-93338448D01*
X112056445Y-93287368D01*
X112042583Y-93217738D01*
X112068566Y-93151667D01*
X112097716Y-93124427D01*
X112133642Y-93100240D01*
X112219319Y-93042559D01*
X112386135Y-92883424D01*
X112418659Y-92839711D01*
X112506359Y-92721837D01*
X112523754Y-92698458D01*
X112530100Y-92685978D01*
X112583342Y-92581256D01*
X112628240Y-92492949D01*
X112639084Y-92458028D01*
X112695024Y-92277871D01*
X112696607Y-92272773D01*
X112705666Y-92204423D01*
X112726198Y-92049511D01*
X112726198Y-92049506D01*
X112726898Y-92044226D01*
X112718249Y-91813842D01*
X112696916Y-91712170D01*
X112702503Y-91641395D01*
X112731136Y-91597202D01*
X114491528Y-89836810D01*
X114505941Y-89824423D01*
X114517665Y-89815795D01*
X114523564Y-89811454D01*
X114557979Y-89770945D01*
X114564909Y-89763429D01*
X114570653Y-89757685D01*
X114572927Y-89754811D01*
X114572933Y-89754804D01*
X114588372Y-89735289D01*
X114591163Y-89731885D01*
X114633945Y-89681528D01*
X114633948Y-89681524D01*
X114638684Y-89675949D01*
X114642012Y-89669432D01*
X114645389Y-89664368D01*
X114648616Y-89659144D01*
X114653160Y-89653400D01*
X114667433Y-89622861D01*
X114684232Y-89586918D01*
X114686163Y-89582967D01*
X114716213Y-89524117D01*
X114719543Y-89517596D01*
X114721284Y-89510481D01*
X114723421Y-89504735D01*
X114725345Y-89498952D01*
X114728444Y-89492321D01*
X114743394Y-89420443D01*
X114744363Y-89416162D01*
X114760470Y-89350339D01*
X114761804Y-89344888D01*
X114762500Y-89333670D01*
X114762539Y-89333672D01*
X114762772Y-89329771D01*
X114763161Y-89325412D01*
X114764652Y-89318244D01*
X114762546Y-89240423D01*
X114762500Y-89237014D01*
X114762500Y-86458028D01*
X114782502Y-86389907D01*
X114799405Y-86368933D01*
X115404610Y-85763728D01*
X115466922Y-85729702D01*
X115537737Y-85734767D01*
G37*
%TD.AperFunction*%
%TA.AperFunction,NonConductor*%
G36*
X127403865Y-95247151D02*
G01*
X127462661Y-95286945D01*
X127490609Y-95352209D01*
X127491500Y-95367168D01*
X127491500Y-95527972D01*
X127471498Y-95596093D01*
X127454595Y-95617067D01*
X126878472Y-96193190D01*
X126864059Y-96205577D01*
X126846436Y-96218546D01*
X126845208Y-96216877D01*
X126790962Y-96244080D01*
X126720367Y-96236542D01*
X126665053Y-96192034D01*
X126642500Y-96120098D01*
X126642500Y-95468028D01*
X126662502Y-95399907D01*
X126679405Y-95378933D01*
X126742212Y-95316126D01*
X126804524Y-95282100D01*
X126842289Y-95279700D01*
X126994525Y-95293019D01*
X127000000Y-95293498D01*
X127228087Y-95273543D01*
X127332890Y-95245461D01*
X127403865Y-95247151D01*
G37*
%TD.AperFunction*%
%TA.AperFunction,NonConductor*%
G36*
X125073255Y-95219077D02*
G01*
X125112111Y-95278497D01*
X125117500Y-95314953D01*
X125117500Y-96917028D01*
X125097498Y-96985149D01*
X125043842Y-97031642D01*
X124973568Y-97041746D01*
X124919229Y-97020241D01*
X124916450Y-97018295D01*
X124786749Y-96927477D01*
X124781767Y-96925154D01*
X124781762Y-96925151D01*
X124584225Y-96833039D01*
X124584224Y-96833039D01*
X124579243Y-96830716D01*
X124573935Y-96829294D01*
X124573933Y-96829293D01*
X124363402Y-96772881D01*
X124363400Y-96772881D01*
X124358087Y-96771457D01*
X124130000Y-96751502D01*
X123901913Y-96771457D01*
X123761861Y-96808984D01*
X123690886Y-96807294D01*
X123632090Y-96767500D01*
X123604142Y-96702236D01*
X123615915Y-96632222D01*
X123640156Y-96598182D01*
X123681528Y-96556810D01*
X123695941Y-96544423D01*
X123707665Y-96535795D01*
X123713564Y-96531454D01*
X123747979Y-96490945D01*
X123754909Y-96483429D01*
X123760653Y-96477685D01*
X123762927Y-96474811D01*
X123762933Y-96474804D01*
X123778372Y-96455289D01*
X123781163Y-96451885D01*
X123823945Y-96401528D01*
X123823948Y-96401524D01*
X123828684Y-96395949D01*
X123832012Y-96389432D01*
X123835389Y-96384368D01*
X123838616Y-96379144D01*
X123843160Y-96373400D01*
X123874242Y-96306896D01*
X123876147Y-96302999D01*
X123909543Y-96237596D01*
X123911284Y-96230482D01*
X123913416Y-96224748D01*
X123915344Y-96218952D01*
X123918444Y-96212320D01*
X123933395Y-96140440D01*
X123934365Y-96136156D01*
X123950469Y-96070342D01*
X123951804Y-96064888D01*
X123952500Y-96053670D01*
X123952537Y-96053672D01*
X123952773Y-96049773D01*
X123953163Y-96045402D01*
X123954652Y-96038243D01*
X123952546Y-95960423D01*
X123952500Y-95957014D01*
X123952500Y-95362881D01*
X123972502Y-95294760D01*
X124026158Y-95248267D01*
X124096432Y-95238163D01*
X124111111Y-95241174D01*
X124226598Y-95272119D01*
X124226600Y-95272119D01*
X124231913Y-95273543D01*
X124460000Y-95293498D01*
X124688087Y-95273543D01*
X124693400Y-95272119D01*
X124693402Y-95272119D01*
X124903933Y-95215707D01*
X124903935Y-95215706D01*
X124909243Y-95214284D01*
X124914225Y-95211961D01*
X124914230Y-95211959D01*
X124938251Y-95200758D01*
X125008442Y-95190097D01*
X125073255Y-95219077D01*
G37*
%TD.AperFunction*%
%TA.AperFunction,NonConductor*%
G36*
X130878959Y-94545339D02*
G01*
X130924195Y-94597543D01*
X130940151Y-94631762D01*
X130940154Y-94631767D01*
X130942477Y-94636749D01*
X131073802Y-94824300D01*
X131235700Y-94986198D01*
X131240212Y-94989357D01*
X131240214Y-94989359D01*
X131263772Y-95005855D01*
X131308100Y-95061312D01*
X131317500Y-95109067D01*
X131317500Y-98639472D01*
X131297498Y-98707593D01*
X131280595Y-98728567D01*
X130826095Y-99183067D01*
X130763783Y-99217093D01*
X130692968Y-99212028D01*
X130636132Y-99169481D01*
X130611321Y-99102961D01*
X130611000Y-99093972D01*
X130611000Y-98809600D01*
X130606014Y-98761542D01*
X130600738Y-98710692D01*
X130600737Y-98710688D01*
X130600026Y-98703834D01*
X130593659Y-98684748D01*
X130546368Y-98543002D01*
X130544050Y-98536054D01*
X130450978Y-98385652D01*
X130325803Y-98260695D01*
X130297051Y-98242972D01*
X130181468Y-98171725D01*
X130181466Y-98171724D01*
X130175238Y-98167885D01*
X130095495Y-98141436D01*
X130013889Y-98114368D01*
X130013887Y-98114368D01*
X130007361Y-98112203D01*
X130000522Y-98111502D01*
X129993790Y-98110059D01*
X129994206Y-98108118D01*
X129937424Y-98084926D01*
X129896646Y-98026808D01*
X129890000Y-97986428D01*
X129890000Y-97420528D01*
X129910002Y-97352407D01*
X129926905Y-97331433D01*
X130031528Y-97226810D01*
X130045941Y-97214423D01*
X130057665Y-97205795D01*
X130063564Y-97201454D01*
X130097979Y-97160945D01*
X130104909Y-97153429D01*
X130110653Y-97147685D01*
X130112927Y-97144811D01*
X130112933Y-97144804D01*
X130128372Y-97125289D01*
X130131163Y-97121885D01*
X130173945Y-97071528D01*
X130173948Y-97071524D01*
X130178684Y-97065949D01*
X130182012Y-97059432D01*
X130185389Y-97054368D01*
X130188616Y-97049144D01*
X130193160Y-97043400D01*
X130220802Y-96984256D01*
X130224232Y-96976918D01*
X130226163Y-96972967D01*
X130256213Y-96914117D01*
X130259543Y-96907596D01*
X130261284Y-96900481D01*
X130263421Y-96894735D01*
X130265345Y-96888952D01*
X130268444Y-96882321D01*
X130283394Y-96810443D01*
X130284363Y-96806162D01*
X130292856Y-96771457D01*
X130301804Y-96734888D01*
X130302500Y-96723670D01*
X130302539Y-96723672D01*
X130302772Y-96719771D01*
X130303161Y-96715412D01*
X130304652Y-96708244D01*
X130302546Y-96630423D01*
X130302500Y-96627014D01*
X130302500Y-95109067D01*
X130322502Y-95040946D01*
X130356228Y-95005855D01*
X130379786Y-94989359D01*
X130379788Y-94989357D01*
X130384300Y-94986198D01*
X130546198Y-94824300D01*
X130677523Y-94636749D01*
X130679846Y-94631767D01*
X130679849Y-94631762D01*
X130695805Y-94597543D01*
X130742722Y-94544258D01*
X130810999Y-94524797D01*
X130878959Y-94545339D01*
G37*
%TD.AperFunction*%
%TA.AperFunction,NonConductor*%
G36*
X125055363Y-99104356D02*
G01*
X125103948Y-99156125D01*
X125117500Y-99212972D01*
X125117500Y-99457028D01*
X125097498Y-99525149D01*
X125043842Y-99571642D01*
X124973568Y-99581746D01*
X124919229Y-99560241D01*
X124903905Y-99549511D01*
X124786749Y-99467477D01*
X124781767Y-99465154D01*
X124781762Y-99465151D01*
X124747543Y-99449195D01*
X124694258Y-99402278D01*
X124674797Y-99334001D01*
X124695339Y-99266041D01*
X124747543Y-99220805D01*
X124781762Y-99204849D01*
X124781767Y-99204846D01*
X124786749Y-99202523D01*
X124919230Y-99109759D01*
X124986503Y-99087071D01*
X125055363Y-99104356D01*
G37*
%TD.AperFunction*%
%TA.AperFunction,NonConductor*%
G36*
X133418959Y-94545339D02*
G01*
X133464195Y-94597543D01*
X133480151Y-94631762D01*
X133480154Y-94631767D01*
X133482477Y-94636749D01*
X133613802Y-94824300D01*
X133775700Y-94986198D01*
X133780208Y-94989355D01*
X133780214Y-94989359D01*
X133963251Y-95117523D01*
X133968233Y-95119846D01*
X133968238Y-95119849D01*
X134118887Y-95190097D01*
X134170757Y-95214284D01*
X134176065Y-95215706D01*
X134176067Y-95215707D01*
X134386598Y-95272119D01*
X134386600Y-95272119D01*
X134391913Y-95273543D01*
X134620000Y-95293498D01*
X134848087Y-95273543D01*
X134853400Y-95272119D01*
X134853402Y-95272119D01*
X135063933Y-95215707D01*
X135063935Y-95215706D01*
X135069243Y-95214284D01*
X135248251Y-95130812D01*
X135318442Y-95120151D01*
X135383255Y-95149131D01*
X135422111Y-95208551D01*
X135427500Y-95245007D01*
X135427500Y-97081973D01*
X135407498Y-97150094D01*
X135390595Y-97171068D01*
X130798464Y-101763198D01*
X130736152Y-101797224D01*
X130665337Y-101792159D01*
X130608501Y-101749612D01*
X130586054Y-101699978D01*
X130579213Y-101667373D01*
X130584800Y-101596598D01*
X130613433Y-101552405D01*
X132571528Y-99594310D01*
X132585941Y-99581923D01*
X132597665Y-99573295D01*
X132603564Y-99568954D01*
X132637979Y-99528445D01*
X132644909Y-99520929D01*
X132650653Y-99515185D01*
X132652932Y-99512305D01*
X132668384Y-99492775D01*
X132671171Y-99489376D01*
X132713943Y-99439029D01*
X132718684Y-99433449D01*
X132722013Y-99426930D01*
X132725426Y-99421812D01*
X132728623Y-99416635D01*
X132733161Y-99410900D01*
X132739115Y-99398162D01*
X132764241Y-99344399D01*
X132766173Y-99340447D01*
X132796213Y-99281618D01*
X132796214Y-99281616D01*
X132799543Y-99275096D01*
X132801284Y-99267980D01*
X132803420Y-99262236D01*
X132805344Y-99256454D01*
X132808444Y-99249820D01*
X132823395Y-99177940D01*
X132824365Y-99173656D01*
X132831137Y-99145980D01*
X132841804Y-99102388D01*
X132842500Y-99091170D01*
X132842537Y-99091172D01*
X132842773Y-99087273D01*
X132843163Y-99082902D01*
X132844652Y-99075743D01*
X132842546Y-98997923D01*
X132842500Y-98994514D01*
X132842500Y-95109067D01*
X132862502Y-95040946D01*
X132896228Y-95005855D01*
X132919786Y-94989359D01*
X132919788Y-94989357D01*
X132924300Y-94986198D01*
X133086198Y-94824300D01*
X133217523Y-94636749D01*
X133219846Y-94631767D01*
X133219849Y-94631762D01*
X133235805Y-94597543D01*
X133282722Y-94544258D01*
X133350999Y-94524797D01*
X133418959Y-94545339D01*
G37*
%TD.AperFunction*%
%TA.AperFunction,NonConductor*%
G36*
X126529633Y-101938458D02*
G01*
X126584947Y-101982966D01*
X126607500Y-102054902D01*
X126607500Y-102076972D01*
X126587498Y-102145093D01*
X126570595Y-102166067D01*
X125646484Y-103090178D01*
X125584172Y-103124204D01*
X125513357Y-103119139D01*
X125456521Y-103076592D01*
X125431869Y-103012067D01*
X125429701Y-102987291D01*
X125443688Y-102917686D01*
X125466126Y-102887212D01*
X126371528Y-101981810D01*
X126385941Y-101969423D01*
X126403564Y-101956454D01*
X126404792Y-101958123D01*
X126459038Y-101930920D01*
X126529633Y-101938458D01*
G37*
%TD.AperFunction*%
%TA.AperFunction,NonConductor*%
G36*
X120718959Y-94545339D02*
G01*
X120764195Y-94597543D01*
X120780151Y-94631762D01*
X120780154Y-94631767D01*
X120782477Y-94636749D01*
X120913802Y-94824300D01*
X121075700Y-94986198D01*
X121080212Y-94989357D01*
X121080214Y-94989359D01*
X121103772Y-95005855D01*
X121148100Y-95061312D01*
X121157500Y-95109067D01*
X121157500Y-104986972D01*
X121137498Y-105055093D01*
X121120595Y-105076067D01*
X118026484Y-108170178D01*
X117964172Y-108204204D01*
X117893357Y-108199139D01*
X117836521Y-108156592D01*
X117811868Y-108092065D01*
X117807797Y-108045539D01*
X117803543Y-107996913D01*
X117788516Y-107940832D01*
X117745707Y-107781067D01*
X117745706Y-107781065D01*
X117744284Y-107775757D01*
X117741961Y-107770775D01*
X117649849Y-107573238D01*
X117649846Y-107573233D01*
X117647523Y-107568251D01*
X117516198Y-107380700D01*
X117354300Y-107218802D01*
X117349792Y-107215645D01*
X117349789Y-107215643D01*
X117250554Y-107146158D01*
X117166749Y-107087477D01*
X117161767Y-107085154D01*
X117161762Y-107085151D01*
X117127543Y-107069195D01*
X117074258Y-107022278D01*
X117054797Y-106954001D01*
X117075339Y-106886041D01*
X117127543Y-106840805D01*
X117161762Y-106824849D01*
X117161767Y-106824846D01*
X117166749Y-106822523D01*
X117271611Y-106749098D01*
X117349789Y-106694357D01*
X117349792Y-106694355D01*
X117354300Y-106691198D01*
X117516198Y-106529300D01*
X117647523Y-106341749D01*
X117649846Y-106336767D01*
X117649849Y-106336762D01*
X117741961Y-106139225D01*
X117741961Y-106139224D01*
X117744284Y-106134243D01*
X117780478Y-105999168D01*
X117802119Y-105918402D01*
X117802119Y-105918400D01*
X117803543Y-105913087D01*
X117823498Y-105685000D01*
X117803543Y-105456913D01*
X117782705Y-105379146D01*
X117745707Y-105241067D01*
X117745706Y-105241065D01*
X117744284Y-105235757D01*
X117741961Y-105230775D01*
X117649849Y-105033238D01*
X117649846Y-105033233D01*
X117647523Y-105028251D01*
X117516198Y-104840700D01*
X117354300Y-104678802D01*
X117349792Y-104675645D01*
X117349789Y-104675643D01*
X117271503Y-104620827D01*
X117166749Y-104547477D01*
X117161767Y-104545154D01*
X117161762Y-104545151D01*
X117127543Y-104529195D01*
X117074258Y-104482278D01*
X117054797Y-104414001D01*
X117075339Y-104346041D01*
X117127543Y-104300805D01*
X117161762Y-104284849D01*
X117161767Y-104284846D01*
X117166749Y-104282523D01*
X117295292Y-104192516D01*
X117349789Y-104154357D01*
X117349792Y-104154355D01*
X117354300Y-104151198D01*
X117516198Y-103989300D01*
X117535107Y-103962296D01*
X117644366Y-103806257D01*
X117647523Y-103801749D01*
X117649846Y-103796767D01*
X117649849Y-103796762D01*
X117741961Y-103599225D01*
X117741961Y-103599224D01*
X117744284Y-103594243D01*
X117769760Y-103499168D01*
X117802119Y-103378402D01*
X117802119Y-103378400D01*
X117803543Y-103373087D01*
X117823498Y-103145000D01*
X117803543Y-102916913D01*
X117795585Y-102887212D01*
X117745707Y-102701067D01*
X117745706Y-102701065D01*
X117744284Y-102695757D01*
X117690892Y-102581256D01*
X117649849Y-102493238D01*
X117649846Y-102493233D01*
X117647523Y-102488251D01*
X117516198Y-102300700D01*
X117354300Y-102138802D01*
X117349792Y-102135645D01*
X117349789Y-102135643D01*
X117265998Y-102076972D01*
X117166749Y-102007477D01*
X117161767Y-102005154D01*
X117161762Y-102005151D01*
X117127543Y-101989195D01*
X117074258Y-101942278D01*
X117054797Y-101874001D01*
X117075339Y-101806041D01*
X117127543Y-101760805D01*
X117161762Y-101744849D01*
X117161767Y-101744846D01*
X117166749Y-101742523D01*
X117314109Y-101639340D01*
X117349789Y-101614357D01*
X117349792Y-101614355D01*
X117354300Y-101611198D01*
X117516198Y-101449300D01*
X117647523Y-101261749D01*
X117649846Y-101256767D01*
X117649849Y-101256762D01*
X117741961Y-101059225D01*
X117741961Y-101059224D01*
X117744284Y-101054243D01*
X117759042Y-100999168D01*
X117802119Y-100838402D01*
X117802119Y-100838400D01*
X117803543Y-100833087D01*
X117823498Y-100605000D01*
X117803543Y-100376913D01*
X117744284Y-100155757D01*
X117741961Y-100150775D01*
X117649849Y-99953238D01*
X117649846Y-99953233D01*
X117647523Y-99948251D01*
X117574098Y-99843389D01*
X117519357Y-99765211D01*
X117519355Y-99765208D01*
X117516198Y-99760700D01*
X117354300Y-99598802D01*
X117349789Y-99595643D01*
X117345576Y-99592108D01*
X117346527Y-99590974D01*
X117306529Y-99540929D01*
X117299224Y-99470310D01*
X117331258Y-99406951D01*
X117392462Y-99370970D01*
X117409517Y-99367918D01*
X117420316Y-99366745D01*
X117556705Y-99315615D01*
X117673261Y-99228261D01*
X117760615Y-99111705D01*
X117811745Y-98975316D01*
X117818500Y-98913134D01*
X117818500Y-97216866D01*
X117811745Y-97154684D01*
X117760615Y-97018295D01*
X117673261Y-96901739D01*
X117556705Y-96814385D01*
X117420316Y-96763255D01*
X117358134Y-96756500D01*
X115661866Y-96756500D01*
X115599684Y-96763255D01*
X115463295Y-96814385D01*
X115414070Y-96851277D01*
X115364465Y-96888454D01*
X115345085Y-96895695D01*
X115343216Y-96904285D01*
X115333454Y-96919465D01*
X115259385Y-97018295D01*
X115208255Y-97154684D01*
X115201500Y-97216866D01*
X115201500Y-98242972D01*
X115181498Y-98311093D01*
X115164595Y-98332067D01*
X114957595Y-98539067D01*
X114895283Y-98573093D01*
X114824468Y-98568028D01*
X114767632Y-98525481D01*
X114742821Y-98458961D01*
X114742500Y-98449972D01*
X114742500Y-97208028D01*
X114762502Y-97139907D01*
X114779405Y-97118933D01*
X115143533Y-96754805D01*
X115179412Y-96735213D01*
X115187990Y-96712175D01*
X115199805Y-96698533D01*
X116582212Y-95316126D01*
X116644524Y-95282100D01*
X116682289Y-95279700D01*
X116834525Y-95293019D01*
X116840000Y-95293498D01*
X117068087Y-95273543D01*
X117073400Y-95272119D01*
X117073402Y-95272119D01*
X117283933Y-95215707D01*
X117283935Y-95215706D01*
X117289243Y-95214284D01*
X117341113Y-95190097D01*
X117491762Y-95119849D01*
X117491767Y-95119846D01*
X117496749Y-95117523D01*
X117679786Y-94989359D01*
X117679792Y-94989355D01*
X117684300Y-94986198D01*
X117846198Y-94824300D01*
X117977523Y-94636749D01*
X117979846Y-94631767D01*
X117979849Y-94631762D01*
X117995805Y-94597543D01*
X118042722Y-94544258D01*
X118110999Y-94524797D01*
X118178959Y-94545339D01*
X118224195Y-94597543D01*
X118240151Y-94631762D01*
X118240154Y-94631767D01*
X118242477Y-94636749D01*
X118373802Y-94824300D01*
X118535700Y-94986198D01*
X118540208Y-94989355D01*
X118540214Y-94989359D01*
X118723251Y-95117523D01*
X118728233Y-95119846D01*
X118728238Y-95119849D01*
X118878887Y-95190097D01*
X118930757Y-95214284D01*
X118936065Y-95215706D01*
X118936067Y-95215707D01*
X119146598Y-95272119D01*
X119146600Y-95272119D01*
X119151913Y-95273543D01*
X119380000Y-95293498D01*
X119608087Y-95273543D01*
X119613400Y-95272119D01*
X119613402Y-95272119D01*
X119823933Y-95215707D01*
X119823935Y-95215706D01*
X119829243Y-95214284D01*
X119881113Y-95190097D01*
X120031762Y-95119849D01*
X120031767Y-95119846D01*
X120036749Y-95117523D01*
X120219786Y-94989359D01*
X120219792Y-94989355D01*
X120224300Y-94986198D01*
X120386198Y-94824300D01*
X120517523Y-94636749D01*
X120519846Y-94631767D01*
X120519849Y-94631762D01*
X120535805Y-94597543D01*
X120582722Y-94544258D01*
X120650999Y-94524797D01*
X120718959Y-94545339D01*
G37*
%TD.AperFunction*%
%TA.AperFunction,NonConductor*%
G36*
X128088910Y-102967728D02*
G01*
X128226127Y-103080240D01*
X128226133Y-103080244D01*
X128230255Y-103083624D01*
X128261750Y-103101552D01*
X128311055Y-103152632D01*
X128324917Y-103222262D01*
X128298934Y-103288333D01*
X128269784Y-103315573D01*
X128148181Y-103397441D01*
X128144324Y-103401120D01*
X128144322Y-103401122D01*
X128123357Y-103421122D01*
X127981365Y-103556576D01*
X127978182Y-103560854D01*
X127963302Y-103580854D01*
X127843746Y-103741542D01*
X127841330Y-103746293D01*
X127841328Y-103746297D01*
X127833577Y-103761542D01*
X127739260Y-103947051D01*
X127737678Y-103952145D01*
X127737677Y-103952148D01*
X127731467Y-103972148D01*
X127670893Y-104167227D01*
X127670192Y-104172516D01*
X127642788Y-104379284D01*
X127640602Y-104395774D01*
X127640802Y-104401103D01*
X127640802Y-104401105D01*
X127644926Y-104510966D01*
X127649251Y-104626158D01*
X127696593Y-104851791D01*
X127698551Y-104856750D01*
X127698552Y-104856752D01*
X127764501Y-105023743D01*
X127781276Y-105066221D01*
X127784043Y-105070780D01*
X127784044Y-105070783D01*
X127864118Y-105202740D01*
X127900877Y-105263317D01*
X127904374Y-105267347D01*
X128008293Y-105387103D01*
X128051977Y-105437445D01*
X128082403Y-105462393D01*
X128226127Y-105580240D01*
X128226133Y-105580244D01*
X128230255Y-105583624D01*
X128261750Y-105601552D01*
X128311055Y-105652632D01*
X128324917Y-105722262D01*
X128298934Y-105788333D01*
X128269784Y-105815573D01*
X128148181Y-105897441D01*
X128144324Y-105901120D01*
X128144322Y-105901122D01*
X128126208Y-105918402D01*
X127981365Y-106056576D01*
X127978182Y-106060854D01*
X127963302Y-106080854D01*
X127843746Y-106241542D01*
X127841330Y-106246293D01*
X127841328Y-106246297D01*
X127833577Y-106261542D01*
X127739260Y-106447051D01*
X127737678Y-106452145D01*
X127737677Y-106452148D01*
X127713721Y-106529300D01*
X127670893Y-106667227D01*
X127670192Y-106672516D01*
X127652153Y-106808623D01*
X127640602Y-106895774D01*
X127640802Y-106901103D01*
X127640802Y-106901105D01*
X127641553Y-106921105D01*
X127649251Y-107126158D01*
X127696593Y-107351791D01*
X127698551Y-107356750D01*
X127698552Y-107356752D01*
X127706451Y-107376752D01*
X127781276Y-107566221D01*
X127784043Y-107570780D01*
X127784044Y-107570783D01*
X127864118Y-107702740D01*
X127900877Y-107763317D01*
X127904374Y-107767347D01*
X128008293Y-107887103D01*
X128051977Y-107937445D01*
X128093530Y-107971516D01*
X128226127Y-108080240D01*
X128226133Y-108080244D01*
X128230255Y-108083624D01*
X128261750Y-108101552D01*
X128311055Y-108152632D01*
X128324917Y-108222262D01*
X128298934Y-108288333D01*
X128269784Y-108315573D01*
X128148181Y-108397441D01*
X128144324Y-108401120D01*
X128144322Y-108401122D01*
X128123357Y-108421122D01*
X127981365Y-108556576D01*
X127978182Y-108560854D01*
X127963302Y-108580854D01*
X127843746Y-108741542D01*
X127841330Y-108746293D01*
X127841328Y-108746297D01*
X127833577Y-108761542D01*
X127739260Y-108947051D01*
X127737678Y-108952145D01*
X127737677Y-108952148D01*
X127696969Y-109083248D01*
X127670893Y-109167227D01*
X127670192Y-109172516D01*
X127644701Y-109364849D01*
X127640602Y-109395774D01*
X127649251Y-109626158D01*
X127677083Y-109758802D01*
X127679689Y-109771224D01*
X127674102Y-109842000D01*
X127645469Y-109886193D01*
X126108472Y-111423190D01*
X126094059Y-111435577D01*
X126076436Y-111448546D01*
X126071692Y-111454129D01*
X126071693Y-111454129D01*
X126042021Y-111489055D01*
X126035091Y-111496571D01*
X126029347Y-111502315D01*
X126027073Y-111505189D01*
X126027067Y-111505196D01*
X126011628Y-111524711D01*
X126008837Y-111528115D01*
X125966055Y-111578472D01*
X125966052Y-111578476D01*
X125961316Y-111584051D01*
X125957988Y-111590568D01*
X125954611Y-111595632D01*
X125951384Y-111600856D01*
X125946840Y-111606600D01*
X125943741Y-111613231D01*
X125915768Y-111673082D01*
X125913837Y-111677033D01*
X125880457Y-111742404D01*
X125878716Y-111749519D01*
X125876579Y-111755265D01*
X125874655Y-111761048D01*
X125871556Y-111767679D01*
X125858348Y-111831183D01*
X125856608Y-111839547D01*
X125855639Y-111843829D01*
X125838196Y-111915112D01*
X125837849Y-111920711D01*
X125837848Y-111920715D01*
X125837500Y-111926328D01*
X125837500Y-111926330D01*
X125837461Y-111926328D01*
X125837228Y-111930229D01*
X125836839Y-111934588D01*
X125835348Y-111941756D01*
X125835546Y-111949073D01*
X125837454Y-112019577D01*
X125837500Y-112022986D01*
X125837500Y-112961972D01*
X125817498Y-113030093D01*
X125800595Y-113051067D01*
X125642863Y-113208799D01*
X125580551Y-113242825D01*
X125509736Y-113237760D01*
X125452900Y-113195213D01*
X125428247Y-113130684D01*
X125428079Y-113128755D01*
X125426396Y-113109524D01*
X125424023Y-113082394D01*
X125424022Y-113082389D01*
X125423543Y-113076913D01*
X125408979Y-113022559D01*
X125365707Y-112861067D01*
X125365706Y-112861065D01*
X125364284Y-112855757D01*
X125321179Y-112763317D01*
X125269849Y-112653238D01*
X125269846Y-112653233D01*
X125267523Y-112648251D01*
X125194098Y-112543389D01*
X125139357Y-112465211D01*
X125139355Y-112465208D01*
X125136198Y-112460700D01*
X124974300Y-112298802D01*
X124969792Y-112295645D01*
X124969789Y-112295643D01*
X124860038Y-112218795D01*
X124786749Y-112167477D01*
X124781767Y-112165154D01*
X124781762Y-112165151D01*
X124747543Y-112149195D01*
X124694258Y-112102278D01*
X124674797Y-112034001D01*
X124695339Y-111966041D01*
X124747543Y-111920805D01*
X124781762Y-111904849D01*
X124781767Y-111904846D01*
X124786749Y-111902523D01*
X124949415Y-111788623D01*
X124969789Y-111774357D01*
X124969792Y-111774355D01*
X124974300Y-111771198D01*
X125136198Y-111609300D01*
X125145482Y-111596042D01*
X125251799Y-111444205D01*
X125267523Y-111421749D01*
X125269846Y-111416767D01*
X125269849Y-111416762D01*
X125361961Y-111219225D01*
X125361961Y-111219224D01*
X125364284Y-111214243D01*
X125378486Y-111161243D01*
X125422119Y-110998402D01*
X125422119Y-110998400D01*
X125423543Y-110993087D01*
X125443498Y-110765000D01*
X125423543Y-110536913D01*
X125410080Y-110486669D01*
X125365707Y-110321067D01*
X125365706Y-110321065D01*
X125364284Y-110315757D01*
X125298044Y-110173703D01*
X125269849Y-110113238D01*
X125269846Y-110113233D01*
X125267523Y-110108251D01*
X125186787Y-109992949D01*
X125139357Y-109925211D01*
X125139355Y-109925208D01*
X125136198Y-109920700D01*
X124974300Y-109758802D01*
X124969792Y-109755645D01*
X124969789Y-109755643D01*
X124891611Y-109700902D01*
X124786749Y-109627477D01*
X124781767Y-109625154D01*
X124781762Y-109625151D01*
X124747543Y-109609195D01*
X124694258Y-109562278D01*
X124674797Y-109494001D01*
X124695339Y-109426041D01*
X124747543Y-109380805D01*
X124781762Y-109364849D01*
X124781767Y-109364846D01*
X124786749Y-109362523D01*
X124892289Y-109288623D01*
X124969789Y-109234357D01*
X124969792Y-109234355D01*
X124974300Y-109231198D01*
X125136198Y-109069300D01*
X125267523Y-108881749D01*
X125269846Y-108876767D01*
X125269849Y-108876762D01*
X125361961Y-108679225D01*
X125361961Y-108679224D01*
X125364284Y-108674243D01*
X125367768Y-108661243D01*
X125422119Y-108458402D01*
X125422119Y-108458400D01*
X125423543Y-108453087D01*
X125443498Y-108225000D01*
X125423543Y-107996913D01*
X125408516Y-107940832D01*
X125365707Y-107781067D01*
X125365706Y-107781065D01*
X125364284Y-107775757D01*
X125361961Y-107770775D01*
X125269849Y-107573238D01*
X125269846Y-107573233D01*
X125267523Y-107568251D01*
X125136198Y-107380700D01*
X124974300Y-107218802D01*
X124969792Y-107215645D01*
X124969789Y-107215643D01*
X124870554Y-107146158D01*
X124786749Y-107087477D01*
X124781767Y-107085154D01*
X124781762Y-107085151D01*
X124747543Y-107069195D01*
X124694258Y-107022278D01*
X124674797Y-106954001D01*
X124695339Y-106886041D01*
X124747543Y-106840805D01*
X124781762Y-106824849D01*
X124781767Y-106824846D01*
X124786749Y-106822523D01*
X124891611Y-106749098D01*
X124969789Y-106694357D01*
X124969792Y-106694355D01*
X124974300Y-106691198D01*
X125136198Y-106529300D01*
X125267523Y-106341749D01*
X125269846Y-106336767D01*
X125269849Y-106336762D01*
X125361961Y-106139225D01*
X125361961Y-106139224D01*
X125364284Y-106134243D01*
X125400478Y-105999168D01*
X125422119Y-105918402D01*
X125422119Y-105918400D01*
X125423543Y-105913087D01*
X125443498Y-105685000D01*
X125440582Y-105651667D01*
X125429700Y-105527289D01*
X125443689Y-105457684D01*
X125466126Y-105427212D01*
X127861528Y-103031810D01*
X127875941Y-103019423D01*
X127887665Y-103010795D01*
X127893564Y-103006454D01*
X127912994Y-102983583D01*
X127972342Y-102944618D01*
X128043335Y-102943925D01*
X128088910Y-102967728D01*
G37*
%TD.AperFunction*%
%TA.AperFunction,NonConductor*%
G36*
X114951012Y-105204804D02*
G01*
X114957595Y-105210933D01*
X115173874Y-105427212D01*
X115207900Y-105489524D01*
X115210300Y-105527289D01*
X115199418Y-105651667D01*
X115196502Y-105685000D01*
X115216457Y-105913087D01*
X115217881Y-105918400D01*
X115217881Y-105918402D01*
X115239523Y-105999168D01*
X115275716Y-106134243D01*
X115278039Y-106139224D01*
X115278039Y-106139225D01*
X115370151Y-106336762D01*
X115370154Y-106336767D01*
X115372477Y-106341749D01*
X115503802Y-106529300D01*
X115665700Y-106691198D01*
X115670208Y-106694355D01*
X115670211Y-106694357D01*
X115748389Y-106749098D01*
X115853251Y-106822523D01*
X115858233Y-106824846D01*
X115858238Y-106824849D01*
X115892457Y-106840805D01*
X115945742Y-106887722D01*
X115965203Y-106955999D01*
X115944661Y-107023959D01*
X115892457Y-107069195D01*
X115858238Y-107085151D01*
X115858233Y-107085154D01*
X115853251Y-107087477D01*
X115769446Y-107146158D01*
X115670211Y-107215643D01*
X115670208Y-107215645D01*
X115665700Y-107218802D01*
X115503802Y-107380700D01*
X115372477Y-107568251D01*
X115370154Y-107573233D01*
X115370151Y-107573238D01*
X115278039Y-107770775D01*
X115275716Y-107775757D01*
X115274294Y-107781065D01*
X115274293Y-107781067D01*
X115231484Y-107940832D01*
X115216457Y-107996913D01*
X115196502Y-108225000D01*
X115216457Y-108453087D01*
X115217881Y-108458400D01*
X115217881Y-108458402D01*
X115272233Y-108661243D01*
X115275716Y-108674243D01*
X115278039Y-108679224D01*
X115278039Y-108679225D01*
X115370151Y-108876762D01*
X115370154Y-108876767D01*
X115372477Y-108881749D01*
X115503802Y-109069300D01*
X115665700Y-109231198D01*
X115670208Y-109234355D01*
X115670211Y-109234357D01*
X115747711Y-109288623D01*
X115853251Y-109362523D01*
X115858233Y-109364846D01*
X115858238Y-109364849D01*
X115892457Y-109380805D01*
X115945742Y-109427722D01*
X115965203Y-109495999D01*
X115944661Y-109563959D01*
X115892457Y-109609195D01*
X115858238Y-109625151D01*
X115858233Y-109625154D01*
X115853251Y-109627477D01*
X115748389Y-109700902D01*
X115670211Y-109755643D01*
X115670208Y-109755645D01*
X115665700Y-109758802D01*
X115503802Y-109920700D01*
X115500645Y-109925208D01*
X115500643Y-109925211D01*
X115453213Y-109992949D01*
X115372477Y-110108251D01*
X115370154Y-110113233D01*
X115370151Y-110113238D01*
X115341956Y-110173703D01*
X115275716Y-110315757D01*
X115274294Y-110321065D01*
X115274293Y-110321067D01*
X115229920Y-110486669D01*
X115216457Y-110536913D01*
X115196502Y-110765000D01*
X115216457Y-110993087D01*
X115217881Y-110998400D01*
X115217881Y-110998402D01*
X115261515Y-111161243D01*
X115275716Y-111214243D01*
X115278039Y-111219224D01*
X115278039Y-111219225D01*
X115370151Y-111416762D01*
X115370154Y-111416767D01*
X115372477Y-111421749D01*
X115388201Y-111444205D01*
X115494519Y-111596042D01*
X115503802Y-111609300D01*
X115665700Y-111771198D01*
X115670208Y-111774355D01*
X115670211Y-111774357D01*
X115690585Y-111788623D01*
X115853251Y-111902523D01*
X115858233Y-111904846D01*
X115858238Y-111904849D01*
X115892457Y-111920805D01*
X115945742Y-111967722D01*
X115965203Y-112035999D01*
X115944661Y-112103959D01*
X115892457Y-112149195D01*
X115858238Y-112165151D01*
X115858233Y-112165154D01*
X115853251Y-112167477D01*
X115779962Y-112218795D01*
X115670211Y-112295643D01*
X115670208Y-112295645D01*
X115665700Y-112298802D01*
X115503802Y-112460700D01*
X115500645Y-112465208D01*
X115500643Y-112465211D01*
X115445902Y-112543389D01*
X115372477Y-112648251D01*
X115370154Y-112653233D01*
X115370151Y-112653238D01*
X115318821Y-112763317D01*
X115275716Y-112855757D01*
X115274294Y-112861065D01*
X115274293Y-112861067D01*
X115231021Y-113022559D01*
X115216457Y-113076913D01*
X115196502Y-113305000D01*
X115196575Y-113305835D01*
X115176979Y-113372574D01*
X115123323Y-113419067D01*
X115053049Y-113429171D01*
X114988469Y-113399677D01*
X114981886Y-113393548D01*
X114779405Y-113191067D01*
X114745379Y-113128755D01*
X114742500Y-113101972D01*
X114742500Y-105300028D01*
X114762502Y-105231907D01*
X114816158Y-105185414D01*
X114886432Y-105175310D01*
X114951012Y-105204804D01*
G37*
%TD.AperFunction*%
%TA.AperFunction,NonConductor*%
G36*
X121785532Y-106671972D02*
G01*
X121842368Y-106714519D01*
X121867179Y-106781039D01*
X121867500Y-106790028D01*
X121867500Y-111737624D01*
X121866067Y-111756574D01*
X121863876Y-111770973D01*
X121863876Y-111770979D01*
X121862776Y-111778208D01*
X121863369Y-111785500D01*
X121863369Y-111785503D01*
X121867085Y-111831183D01*
X121867500Y-111841398D01*
X121867500Y-111849525D01*
X121870811Y-111877924D01*
X121871238Y-111882244D01*
X121877191Y-111955426D01*
X121879447Y-111962388D01*
X121880643Y-111968376D01*
X121882051Y-111974333D01*
X121882899Y-111981607D01*
X121885397Y-111988489D01*
X121885398Y-111988493D01*
X121907945Y-112050607D01*
X121909355Y-112054711D01*
X121931987Y-112124575D01*
X121935787Y-112130838D01*
X121938325Y-112136380D01*
X121941067Y-112141856D01*
X121943566Y-112148741D01*
X121947581Y-112154865D01*
X121983815Y-112210132D01*
X121986130Y-112213800D01*
X122024227Y-112276581D01*
X122027941Y-112280786D01*
X122027943Y-112280789D01*
X122031667Y-112285005D01*
X122031638Y-112285031D01*
X122034238Y-112287962D01*
X122037042Y-112291316D01*
X122041054Y-112297435D01*
X122046366Y-112302467D01*
X122097586Y-112350988D01*
X122100028Y-112353366D01*
X122793874Y-113047212D01*
X122827900Y-113109524D01*
X122830300Y-113147289D01*
X122827571Y-113178478D01*
X122816502Y-113305000D01*
X122836457Y-113533087D01*
X122837881Y-113538400D01*
X122837881Y-113538402D01*
X122871782Y-113664919D01*
X122895716Y-113754243D01*
X122898039Y-113759224D01*
X122898039Y-113759225D01*
X122990151Y-113956762D01*
X122990154Y-113956767D01*
X122992477Y-113961749D01*
X123123802Y-114149300D01*
X123266907Y-114292405D01*
X123300933Y-114354717D01*
X123295868Y-114425532D01*
X123253321Y-114482368D01*
X123186801Y-114507179D01*
X123177812Y-114507500D01*
X117462188Y-114507500D01*
X117394067Y-114487498D01*
X117347574Y-114433842D01*
X117337470Y-114363568D01*
X117366964Y-114298988D01*
X117373093Y-114292405D01*
X117516198Y-114149300D01*
X117647523Y-113961749D01*
X117649846Y-113956767D01*
X117649849Y-113956762D01*
X117741961Y-113759225D01*
X117741961Y-113759224D01*
X117744284Y-113754243D01*
X117768219Y-113664919D01*
X117802119Y-113538402D01*
X117802119Y-113538400D01*
X117803543Y-113533087D01*
X117823498Y-113305000D01*
X117803543Y-113076913D01*
X117788979Y-113022559D01*
X117745707Y-112861067D01*
X117745706Y-112861065D01*
X117744284Y-112855757D01*
X117701179Y-112763317D01*
X117649849Y-112653238D01*
X117649846Y-112653233D01*
X117647523Y-112648251D01*
X117574098Y-112543389D01*
X117519357Y-112465211D01*
X117519355Y-112465208D01*
X117516198Y-112460700D01*
X117354300Y-112298802D01*
X117349792Y-112295645D01*
X117349789Y-112295643D01*
X117240038Y-112218795D01*
X117166749Y-112167477D01*
X117161767Y-112165154D01*
X117161762Y-112165151D01*
X117127543Y-112149195D01*
X117074258Y-112102278D01*
X117054797Y-112034001D01*
X117075339Y-111966041D01*
X117127543Y-111920805D01*
X117161762Y-111904849D01*
X117161767Y-111904846D01*
X117166749Y-111902523D01*
X117329415Y-111788623D01*
X117349789Y-111774357D01*
X117349792Y-111774355D01*
X117354300Y-111771198D01*
X117516198Y-111609300D01*
X117525482Y-111596042D01*
X117631799Y-111444205D01*
X117647523Y-111421749D01*
X117649846Y-111416767D01*
X117649849Y-111416762D01*
X117741961Y-111219225D01*
X117741961Y-111219224D01*
X117744284Y-111214243D01*
X117758486Y-111161243D01*
X117802119Y-110998402D01*
X117802119Y-110998400D01*
X117803543Y-110993087D01*
X117823498Y-110765000D01*
X117817613Y-110697738D01*
X117809700Y-110607289D01*
X117823689Y-110537684D01*
X117846126Y-110507212D01*
X121652405Y-106700933D01*
X121714717Y-106666907D01*
X121785532Y-106671972D01*
G37*
%TD.AperFunction*%
%TA.AperFunction,NonConductor*%
G36*
X141673621Y-76728502D02*
G01*
X141720114Y-76782158D01*
X141731500Y-76834500D01*
X141731500Y-122555500D01*
X141711498Y-122623621D01*
X141657842Y-122670114D01*
X141605500Y-122681500D01*
X98424500Y-122681500D01*
X98356379Y-122661498D01*
X98309886Y-122607842D01*
X98298500Y-122555500D01*
X98298500Y-119487655D01*
X99839858Y-119487655D01*
X99875104Y-119746638D01*
X99876412Y-119751124D01*
X99876412Y-119751126D01*
X99896098Y-119818664D01*
X99948243Y-119997567D01*
X100057668Y-120234928D01*
X100060231Y-120238837D01*
X100198410Y-120449596D01*
X100198414Y-120449601D01*
X100200976Y-120453509D01*
X100375018Y-120648506D01*
X100575970Y-120815637D01*
X100579973Y-120818066D01*
X100795422Y-120948804D01*
X100795426Y-120948806D01*
X100799419Y-120951229D01*
X101040455Y-121052303D01*
X101293783Y-121116641D01*
X101298434Y-121117109D01*
X101298438Y-121117110D01*
X101491308Y-121136531D01*
X101510867Y-121138500D01*
X101666354Y-121138500D01*
X101668679Y-121138327D01*
X101668685Y-121138327D01*
X101856000Y-121124407D01*
X101856004Y-121124406D01*
X101860652Y-121124061D01*
X101865200Y-121123032D01*
X101865206Y-121123031D01*
X102051601Y-121080853D01*
X102115577Y-121066377D01*
X102151769Y-121052303D01*
X102354824Y-120973340D01*
X102354827Y-120973339D01*
X102359177Y-120971647D01*
X102586098Y-120841951D01*
X102791357Y-120680138D01*
X102970443Y-120489763D01*
X103119424Y-120275009D01*
X103235025Y-120040593D01*
X103314707Y-119791665D01*
X103356721Y-119533693D01*
X103357324Y-119487655D01*
X136669858Y-119487655D01*
X136705104Y-119746638D01*
X136706412Y-119751124D01*
X136706412Y-119751126D01*
X136726098Y-119818664D01*
X136778243Y-119997567D01*
X136887668Y-120234928D01*
X136890231Y-120238837D01*
X137028410Y-120449596D01*
X137028414Y-120449601D01*
X137030976Y-120453509D01*
X137205018Y-120648506D01*
X137405970Y-120815637D01*
X137409973Y-120818066D01*
X137625422Y-120948804D01*
X137625426Y-120948806D01*
X137629419Y-120951229D01*
X137870455Y-121052303D01*
X138123783Y-121116641D01*
X138128434Y-121117109D01*
X138128438Y-121117110D01*
X138321308Y-121136531D01*
X138340867Y-121138500D01*
X138496354Y-121138500D01*
X138498679Y-121138327D01*
X138498685Y-121138327D01*
X138686000Y-121124407D01*
X138686004Y-121124406D01*
X138690652Y-121124061D01*
X138695200Y-121123032D01*
X138695206Y-121123031D01*
X138881601Y-121080853D01*
X138945577Y-121066377D01*
X138981769Y-121052303D01*
X139184824Y-120973340D01*
X139184827Y-120973339D01*
X139189177Y-120971647D01*
X139416098Y-120841951D01*
X139621357Y-120680138D01*
X139800443Y-120489763D01*
X139949424Y-120275009D01*
X140065025Y-120040593D01*
X140144707Y-119791665D01*
X140186721Y-119533693D01*
X140190142Y-119272345D01*
X140154896Y-119013362D01*
X140140473Y-118963877D01*
X140083068Y-118766932D01*
X140081757Y-118762433D01*
X139972332Y-118525072D01*
X139939519Y-118475024D01*
X139831590Y-118310404D01*
X139831586Y-118310399D01*
X139829024Y-118306491D01*
X139654982Y-118111494D01*
X139454030Y-117944363D01*
X139406844Y-117915730D01*
X139234578Y-117811196D01*
X139234574Y-117811194D01*
X139230581Y-117808771D01*
X138989545Y-117707697D01*
X138736217Y-117643359D01*
X138731566Y-117642891D01*
X138731562Y-117642890D01*
X138522271Y-117621816D01*
X138519133Y-117621500D01*
X138363646Y-117621500D01*
X138361321Y-117621673D01*
X138361315Y-117621673D01*
X138174000Y-117635593D01*
X138173996Y-117635594D01*
X138169348Y-117635939D01*
X138164800Y-117636968D01*
X138164794Y-117636969D01*
X137978399Y-117679147D01*
X137914423Y-117693623D01*
X137910071Y-117695315D01*
X137910069Y-117695316D01*
X137675176Y-117786660D01*
X137675173Y-117786661D01*
X137670823Y-117788353D01*
X137443902Y-117918049D01*
X137238643Y-118079862D01*
X137059557Y-118270237D01*
X136910576Y-118484991D01*
X136794975Y-118719407D01*
X136715293Y-118968335D01*
X136673279Y-119226307D01*
X136669858Y-119487655D01*
X103357324Y-119487655D01*
X103360142Y-119272345D01*
X103324896Y-119013362D01*
X103310473Y-118963877D01*
X103253068Y-118766932D01*
X103251757Y-118762433D01*
X103142332Y-118525072D01*
X103109519Y-118475024D01*
X103001590Y-118310404D01*
X103001586Y-118310399D01*
X102999024Y-118306491D01*
X102824982Y-118111494D01*
X102624030Y-117944363D01*
X102576844Y-117915730D01*
X102404578Y-117811196D01*
X102404574Y-117811194D01*
X102400581Y-117808771D01*
X102159545Y-117707697D01*
X101906217Y-117643359D01*
X101901566Y-117642891D01*
X101901562Y-117642890D01*
X101692271Y-117621816D01*
X101689133Y-117621500D01*
X101533646Y-117621500D01*
X101531321Y-117621673D01*
X101531315Y-117621673D01*
X101344000Y-117635593D01*
X101343996Y-117635594D01*
X101339348Y-117635939D01*
X101334800Y-117636968D01*
X101334794Y-117636969D01*
X101148399Y-117679147D01*
X101084423Y-117693623D01*
X101080071Y-117695315D01*
X101080069Y-117695316D01*
X100845176Y-117786660D01*
X100845173Y-117786661D01*
X100840823Y-117788353D01*
X100613902Y-117918049D01*
X100408643Y-118079862D01*
X100229557Y-118270237D01*
X100080576Y-118484991D01*
X99964975Y-118719407D01*
X99885293Y-118968335D01*
X99843279Y-119226307D01*
X99839858Y-119487655D01*
X98298500Y-119487655D01*
X98298500Y-109415774D01*
X109753102Y-109415774D01*
X109753302Y-109421103D01*
X109753302Y-109421105D01*
X109754735Y-109459284D01*
X109761751Y-109646158D01*
X109809093Y-109871791D01*
X109811051Y-109876750D01*
X109811052Y-109876752D01*
X109847030Y-109967852D01*
X109893776Y-110086221D01*
X109896543Y-110090780D01*
X109896544Y-110090783D01*
X109907144Y-110108251D01*
X110013377Y-110283317D01*
X110016874Y-110287347D01*
X110103438Y-110387103D01*
X110164477Y-110457445D01*
X110200120Y-110486670D01*
X110240114Y-110545329D01*
X110242046Y-110616299D01*
X110205302Y-110677048D01*
X110186532Y-110691248D01*
X110058504Y-110770475D01*
X110040652Y-110781522D01*
X109915695Y-110906697D01*
X109822885Y-111057262D01*
X109767203Y-111225139D01*
X109756500Y-111329600D01*
X109756500Y-112630400D01*
X109756837Y-112633646D01*
X109756837Y-112633650D01*
X109761931Y-112682740D01*
X109767474Y-112736166D01*
X109823450Y-112903946D01*
X109916522Y-113054348D01*
X110041697Y-113179305D01*
X110047927Y-113183145D01*
X110047928Y-113183146D01*
X110185090Y-113267694D01*
X110192262Y-113272115D01*
X110272005Y-113298564D01*
X110353611Y-113325632D01*
X110353613Y-113325632D01*
X110360139Y-113327797D01*
X110366975Y-113328497D01*
X110366978Y-113328498D01*
X110410031Y-113332909D01*
X110464600Y-113338500D01*
X112015400Y-113338500D01*
X112018646Y-113338163D01*
X112018650Y-113338163D01*
X112114308Y-113328238D01*
X112114312Y-113328237D01*
X112121166Y-113327526D01*
X112127702Y-113325345D01*
X112127704Y-113325345D01*
X112280056Y-113274516D01*
X112288946Y-113271550D01*
X112439348Y-113178478D01*
X112469447Y-113148327D01*
X112559134Y-113058483D01*
X112564305Y-113053303D01*
X112588432Y-113014162D01*
X112653275Y-112908968D01*
X112653276Y-112908966D01*
X112657115Y-112902738D01*
X112712797Y-112734861D01*
X112723500Y-112630400D01*
X112723500Y-111329600D01*
X112712526Y-111223834D01*
X112656550Y-111056054D01*
X112563478Y-110905652D01*
X112438303Y-110780695D01*
X112292660Y-110690919D01*
X112245168Y-110638148D01*
X112233744Y-110568076D01*
X112262018Y-110502952D01*
X112271805Y-110492490D01*
X112382278Y-110387103D01*
X112386135Y-110383424D01*
X112401016Y-110363424D01*
X112520568Y-110202740D01*
X112523754Y-110198458D01*
X112531746Y-110182740D01*
X112625822Y-109997704D01*
X112628240Y-109992949D01*
X112634451Y-109972949D01*
X112695024Y-109777871D01*
X112696607Y-109772773D01*
X112708370Y-109684020D01*
X112726198Y-109549511D01*
X112726198Y-109549506D01*
X112726898Y-109544226D01*
X112725088Y-109495999D01*
X112720164Y-109364849D01*
X112718249Y-109313842D01*
X112670907Y-109088209D01*
X112665070Y-109073428D01*
X112588185Y-108878744D01*
X112588184Y-108878742D01*
X112586224Y-108873779D01*
X112571320Y-108849217D01*
X112469390Y-108681243D01*
X112466623Y-108676683D01*
X112379755Y-108576576D01*
X112319023Y-108506588D01*
X112319021Y-108506586D01*
X112315523Y-108502555D01*
X112261675Y-108458402D01*
X112141373Y-108359760D01*
X112141367Y-108359756D01*
X112137245Y-108356376D01*
X112105750Y-108338448D01*
X112056445Y-108287368D01*
X112042583Y-108217738D01*
X112068566Y-108151667D01*
X112097716Y-108124427D01*
X112145785Y-108092065D01*
X112219319Y-108042559D01*
X112240285Y-108022559D01*
X112325956Y-107940832D01*
X112386135Y-107883424D01*
X112401016Y-107863424D01*
X112520568Y-107702740D01*
X112523754Y-107698458D01*
X112531746Y-107682740D01*
X112588667Y-107570783D01*
X112628240Y-107492949D01*
X112634451Y-107472949D01*
X112695024Y-107277871D01*
X112696607Y-107272773D01*
X112704179Y-107215643D01*
X112726198Y-107049511D01*
X112726198Y-107049506D01*
X112726898Y-107044226D01*
X112718249Y-106813842D01*
X112670907Y-106588209D01*
X112645861Y-106524789D01*
X112588185Y-106378744D01*
X112588184Y-106378742D01*
X112586224Y-106373779D01*
X112563762Y-106336762D01*
X112469390Y-106181243D01*
X112466623Y-106176683D01*
X112379755Y-106076576D01*
X112319023Y-106006588D01*
X112319021Y-106006586D01*
X112315523Y-106002555D01*
X112273970Y-105968484D01*
X112141373Y-105859760D01*
X112141367Y-105859756D01*
X112137245Y-105856376D01*
X112105750Y-105838448D01*
X112056445Y-105787368D01*
X112042583Y-105717738D01*
X112068566Y-105651667D01*
X112097716Y-105624427D01*
X112133642Y-105600240D01*
X112219319Y-105542559D01*
X112386135Y-105383424D01*
X112523754Y-105198458D01*
X112628240Y-104992949D01*
X112664321Y-104876752D01*
X112695024Y-104777871D01*
X112696607Y-104772773D01*
X112709062Y-104678802D01*
X112726198Y-104549511D01*
X112726198Y-104549506D01*
X112726898Y-104544226D01*
X112723388Y-104450716D01*
X112718449Y-104319173D01*
X112718249Y-104313842D01*
X112670907Y-104088209D01*
X112586224Y-103873779D01*
X112505981Y-103741542D01*
X112469390Y-103681243D01*
X112466623Y-103676683D01*
X112399409Y-103599225D01*
X112319023Y-103506588D01*
X112319021Y-103506586D01*
X112315523Y-103502555D01*
X112273970Y-103468484D01*
X112141373Y-103359760D01*
X112141367Y-103359756D01*
X112137245Y-103356376D01*
X112105750Y-103338448D01*
X112056445Y-103287368D01*
X112042583Y-103217738D01*
X112068566Y-103151667D01*
X112097716Y-103124427D01*
X112148588Y-103090178D01*
X112219319Y-103042559D01*
X112386135Y-102883424D01*
X112523754Y-102698458D01*
X112527661Y-102690775D01*
X112625822Y-102497704D01*
X112628240Y-102492949D01*
X112664321Y-102376752D01*
X112695024Y-102277871D01*
X112696607Y-102272773D01*
X112710750Y-102166067D01*
X112726198Y-102049511D01*
X112726198Y-102049506D01*
X112726898Y-102044226D01*
X112718249Y-101813842D01*
X112670907Y-101588209D01*
X112656767Y-101552405D01*
X112588185Y-101378744D01*
X112588184Y-101378742D01*
X112586224Y-101373779D01*
X112466623Y-101176683D01*
X112379755Y-101076576D01*
X112319023Y-101006588D01*
X112319021Y-101006586D01*
X112315523Y-101002555D01*
X112273970Y-100968484D01*
X112141373Y-100859760D01*
X112141367Y-100859756D01*
X112137245Y-100856376D01*
X112105750Y-100838448D01*
X112056445Y-100787368D01*
X112042583Y-100717738D01*
X112068566Y-100651667D01*
X112097716Y-100624427D01*
X112134704Y-100599525D01*
X112219319Y-100542559D01*
X112386135Y-100383424D01*
X112523754Y-100198458D01*
X112545465Y-100155757D01*
X112625822Y-99997704D01*
X112628240Y-99992949D01*
X112664321Y-99876752D01*
X112695024Y-99777871D01*
X112696607Y-99772773D01*
X112700685Y-99742002D01*
X112726198Y-99549511D01*
X112726198Y-99549506D01*
X112726898Y-99544226D01*
X112726140Y-99524020D01*
X112721569Y-99402278D01*
X112718249Y-99313842D01*
X112715195Y-99299284D01*
X112672002Y-99093428D01*
X112670907Y-99088209D01*
X112633905Y-98994514D01*
X112588185Y-98878744D01*
X112588184Y-98878742D01*
X112586224Y-98873779D01*
X112575405Y-98855949D01*
X112469390Y-98681243D01*
X112466623Y-98676683D01*
X112398611Y-98598306D01*
X112319023Y-98506588D01*
X112319021Y-98506586D01*
X112315523Y-98502555D01*
X112262356Y-98458961D01*
X112141373Y-98359760D01*
X112141367Y-98359756D01*
X112137245Y-98356376D01*
X112105750Y-98338448D01*
X112056445Y-98287368D01*
X112042583Y-98217738D01*
X112068566Y-98151667D01*
X112097716Y-98124427D01*
X112156389Y-98084926D01*
X112219319Y-98042559D01*
X112235831Y-98026808D01*
X112382278Y-97887103D01*
X112386135Y-97883424D01*
X112523754Y-97698458D01*
X112628240Y-97492949D01*
X112650728Y-97420528D01*
X112695024Y-97277871D01*
X112696607Y-97272773D01*
X112705987Y-97202002D01*
X112726198Y-97049511D01*
X112726198Y-97049506D01*
X112726898Y-97044226D01*
X112724296Y-96974919D01*
X112720900Y-96884444D01*
X112738332Y-96815620D01*
X112757716Y-96790622D01*
X113032191Y-96516147D01*
X113094503Y-96482121D01*
X113165318Y-96487186D01*
X113222154Y-96529733D01*
X113246965Y-96596253D01*
X113244646Y-96630899D01*
X113236608Y-96669546D01*
X113235639Y-96673829D01*
X113218196Y-96745112D01*
X113217849Y-96750711D01*
X113217848Y-96750715D01*
X113217770Y-96751981D01*
X113217500Y-96756330D01*
X113217461Y-96756328D01*
X113217228Y-96760229D01*
X113216839Y-96764588D01*
X113215348Y-96771756D01*
X113215546Y-96779073D01*
X113217454Y-96849577D01*
X113217500Y-96852986D01*
X113217500Y-113402624D01*
X113216067Y-113421574D01*
X113213876Y-113435973D01*
X113213876Y-113435979D01*
X113212776Y-113443208D01*
X113213369Y-113450500D01*
X113213369Y-113450503D01*
X113217085Y-113496183D01*
X113217500Y-113506398D01*
X113217500Y-113514525D01*
X113220811Y-113542924D01*
X113221238Y-113547244D01*
X113227191Y-113620426D01*
X113229447Y-113627388D01*
X113230643Y-113633376D01*
X113232051Y-113639333D01*
X113232899Y-113646607D01*
X113235397Y-113653489D01*
X113235398Y-113653493D01*
X113257945Y-113715607D01*
X113259355Y-113719711D01*
X113281987Y-113789575D01*
X113285787Y-113795838D01*
X113288325Y-113801380D01*
X113291067Y-113806856D01*
X113293566Y-113813741D01*
X113297581Y-113819865D01*
X113333815Y-113875132D01*
X113336130Y-113878800D01*
X113374227Y-113941581D01*
X113377941Y-113945786D01*
X113377943Y-113945789D01*
X113381667Y-113950005D01*
X113381638Y-113950031D01*
X113384238Y-113952962D01*
X113387042Y-113956316D01*
X113391054Y-113962435D01*
X113396366Y-113967467D01*
X113447586Y-114015988D01*
X113450028Y-114018366D01*
X115193190Y-115761528D01*
X115205577Y-115775941D01*
X115218546Y-115793564D01*
X115224129Y-115798307D01*
X115259055Y-115827979D01*
X115266571Y-115834909D01*
X115272315Y-115840653D01*
X115275189Y-115842927D01*
X115275196Y-115842933D01*
X115294711Y-115858372D01*
X115298115Y-115861163D01*
X115348472Y-115903945D01*
X115348476Y-115903948D01*
X115354051Y-115908684D01*
X115360566Y-115912011D01*
X115365636Y-115915392D01*
X115370858Y-115918617D01*
X115376600Y-115923160D01*
X115443112Y-115954246D01*
X115447006Y-115956149D01*
X115512404Y-115989543D01*
X115519521Y-115991284D01*
X115525239Y-115993411D01*
X115531045Y-115995342D01*
X115537679Y-115998443D01*
X115544847Y-115999934D01*
X115544850Y-115999935D01*
X115589867Y-116009299D01*
X115609539Y-116013391D01*
X115613797Y-116014354D01*
X115685112Y-116031804D01*
X115690718Y-116032152D01*
X115690719Y-116032152D01*
X115696330Y-116032500D01*
X115696328Y-116032539D01*
X115700229Y-116032772D01*
X115704588Y-116033161D01*
X115711756Y-116034652D01*
X115719073Y-116034454D01*
X115789576Y-116032546D01*
X115792985Y-116032500D01*
X124592624Y-116032500D01*
X124611574Y-116033933D01*
X124625973Y-116036124D01*
X124625979Y-116036124D01*
X124633208Y-116037224D01*
X124640500Y-116036631D01*
X124640503Y-116036631D01*
X124686183Y-116032915D01*
X124696398Y-116032500D01*
X124704525Y-116032500D01*
X124708161Y-116032076D01*
X124708163Y-116032076D01*
X124711615Y-116031673D01*
X124732924Y-116029189D01*
X124737244Y-116028762D01*
X124810426Y-116022809D01*
X124817388Y-116020553D01*
X124823376Y-116019357D01*
X124829333Y-116017949D01*
X124836607Y-116017101D01*
X124843489Y-116014603D01*
X124843493Y-116014602D01*
X124905607Y-115992055D01*
X124909711Y-115990645D01*
X124979575Y-115968013D01*
X124985838Y-115964213D01*
X124991380Y-115961675D01*
X124996856Y-115958933D01*
X125003741Y-115956434D01*
X125065132Y-115916185D01*
X125068800Y-115913870D01*
X125131581Y-115875773D01*
X125135786Y-115872059D01*
X125135789Y-115872057D01*
X125140005Y-115868333D01*
X125140031Y-115868362D01*
X125142962Y-115865762D01*
X125146316Y-115862958D01*
X125152435Y-115858946D01*
X125205989Y-115802413D01*
X125208366Y-115799972D01*
X127091528Y-113916810D01*
X127105941Y-113904423D01*
X127117665Y-113895795D01*
X127123564Y-113891454D01*
X127157979Y-113850945D01*
X127164909Y-113843429D01*
X127170653Y-113837685D01*
X127172927Y-113834811D01*
X127172933Y-113834804D01*
X127188372Y-113815289D01*
X127191163Y-113811885D01*
X127233945Y-113761528D01*
X127233948Y-113761524D01*
X127238684Y-113755949D01*
X127242012Y-113749432D01*
X127245389Y-113744368D01*
X127248616Y-113739144D01*
X127253160Y-113733400D01*
X127284232Y-113666918D01*
X127286163Y-113662967D01*
X127316213Y-113604117D01*
X127319543Y-113597596D01*
X127321284Y-113590481D01*
X127323421Y-113584735D01*
X127325345Y-113578952D01*
X127328444Y-113572321D01*
X127343394Y-113500443D01*
X127344363Y-113496162D01*
X127360470Y-113430339D01*
X127361804Y-113424888D01*
X127362166Y-113419067D01*
X127362500Y-113413670D01*
X127362539Y-113413672D01*
X127362772Y-113409771D01*
X127363161Y-113405412D01*
X127364652Y-113398244D01*
X127362546Y-113320423D01*
X127362500Y-113317014D01*
X127362500Y-112378028D01*
X127382502Y-112309907D01*
X127399405Y-112288933D01*
X127469543Y-112218795D01*
X127531855Y-112184769D01*
X127602670Y-112189834D01*
X127659506Y-112232381D01*
X127681953Y-112282016D01*
X127696593Y-112351791D01*
X127698551Y-112356750D01*
X127698552Y-112356752D01*
X127706955Y-112378028D01*
X127781276Y-112566221D01*
X127784043Y-112570780D01*
X127784044Y-112570783D01*
X127831053Y-112648251D01*
X127900877Y-112763317D01*
X127904374Y-112767347D01*
X128015832Y-112895791D01*
X128051977Y-112937445D01*
X128056108Y-112940832D01*
X128226127Y-113080240D01*
X128226133Y-113080244D01*
X128230255Y-113083624D01*
X128234891Y-113086263D01*
X128234894Y-113086265D01*
X128387786Y-113173296D01*
X128430614Y-113197675D01*
X128647325Y-113276337D01*
X128652574Y-113277286D01*
X128652577Y-113277287D01*
X128870108Y-113316623D01*
X128870115Y-113316624D01*
X128874192Y-113317361D01*
X128891914Y-113318197D01*
X128896856Y-113318430D01*
X128896863Y-113318430D01*
X128898344Y-113318500D01*
X129310390Y-113318500D01*
X129377309Y-113312822D01*
X129476909Y-113304371D01*
X129476913Y-113304370D01*
X129482220Y-113303920D01*
X129487375Y-113302582D01*
X129487381Y-113302581D01*
X129700203Y-113247343D01*
X129700207Y-113247342D01*
X129705372Y-113246001D01*
X129710238Y-113243809D01*
X129710241Y-113243808D01*
X129910702Y-113153507D01*
X129915575Y-113151312D01*
X130106819Y-113022559D01*
X130115622Y-113014162D01*
X130238440Y-112896998D01*
X130273635Y-112863424D01*
X130411254Y-112678458D01*
X130424077Y-112653238D01*
X130513322Y-112477704D01*
X130515740Y-112472949D01*
X130519544Y-112460700D01*
X130582524Y-112257871D01*
X130584107Y-112252773D01*
X130593120Y-112184769D01*
X130613698Y-112029511D01*
X130613698Y-112029506D01*
X130614398Y-112024226D01*
X130605749Y-111793842D01*
X130597930Y-111756574D01*
X130559502Y-111573428D01*
X130558407Y-111568209D01*
X130542573Y-111528115D01*
X130475685Y-111358744D01*
X130475684Y-111358742D01*
X130473724Y-111353779D01*
X130392075Y-111219225D01*
X130356890Y-111161243D01*
X130354123Y-111156683D01*
X130350626Y-111152653D01*
X130206523Y-110986588D01*
X130206521Y-110986586D01*
X130203023Y-110982555D01*
X130109233Y-110905652D01*
X130028873Y-110839760D01*
X130028867Y-110839756D01*
X130024745Y-110836376D01*
X129993250Y-110818448D01*
X129943945Y-110767368D01*
X129930083Y-110697738D01*
X129956066Y-110631667D01*
X129985216Y-110604427D01*
X130039210Y-110568076D01*
X130106819Y-110522559D01*
X130127373Y-110502952D01*
X130248813Y-110387103D01*
X130273635Y-110363424D01*
X130411254Y-110178458D01*
X130515740Y-109972949D01*
X130584107Y-109752773D01*
X130597546Y-109651377D01*
X130613698Y-109529511D01*
X130613698Y-109529506D01*
X130614398Y-109524226D01*
X130605749Y-109293842D01*
X130558407Y-109068209D01*
X130556448Y-109063248D01*
X130475685Y-108858744D01*
X130475684Y-108858742D01*
X130473724Y-108853779D01*
X130354123Y-108656683D01*
X130284610Y-108576576D01*
X130206523Y-108486588D01*
X130206521Y-108486586D01*
X130203023Y-108482555D01*
X130123611Y-108417441D01*
X130028873Y-108339760D01*
X130028867Y-108339756D01*
X130024745Y-108336376D01*
X129993250Y-108318448D01*
X129943945Y-108267368D01*
X129930083Y-108197738D01*
X129956066Y-108131667D01*
X129985216Y-108104427D01*
X130021142Y-108080240D01*
X130106819Y-108022559D01*
X130127959Y-108002393D01*
X130248813Y-107887103D01*
X130273635Y-107863424D01*
X130411254Y-107678458D01*
X130515740Y-107472949D01*
X130545595Y-107376803D01*
X130582524Y-107257871D01*
X130584107Y-107252773D01*
X130597546Y-107151377D01*
X130613698Y-107029511D01*
X130613698Y-107029506D01*
X130614398Y-107024226D01*
X130605749Y-106793842D01*
X130581381Y-106677705D01*
X130586968Y-106606930D01*
X130615601Y-106562737D01*
X138161528Y-99016810D01*
X138175941Y-99004423D01*
X138193564Y-98991454D01*
X138227979Y-98950945D01*
X138234909Y-98943429D01*
X138240653Y-98937685D01*
X138242927Y-98934811D01*
X138242933Y-98934804D01*
X138258372Y-98915289D01*
X138261163Y-98911885D01*
X138303945Y-98861528D01*
X138303948Y-98861524D01*
X138308684Y-98855949D01*
X138312012Y-98849432D01*
X138315389Y-98844368D01*
X138318616Y-98839144D01*
X138323160Y-98833400D01*
X138354242Y-98766896D01*
X138356147Y-98762999D01*
X138389543Y-98697596D01*
X138391284Y-98690482D01*
X138393416Y-98684748D01*
X138395344Y-98678952D01*
X138398444Y-98672320D01*
X138413395Y-98600440D01*
X138414365Y-98596156D01*
X138421248Y-98568028D01*
X138431804Y-98524888D01*
X138432500Y-98513670D01*
X138432537Y-98513672D01*
X138432773Y-98509773D01*
X138433163Y-98505402D01*
X138434652Y-98498243D01*
X138432546Y-98420423D01*
X138432500Y-98417014D01*
X138432500Y-91937376D01*
X138433933Y-91918426D01*
X138436124Y-91904027D01*
X138436124Y-91904021D01*
X138437224Y-91896792D01*
X138436244Y-91884736D01*
X138432915Y-91843817D01*
X138432500Y-91833602D01*
X138432500Y-91825475D01*
X138429189Y-91797076D01*
X138428760Y-91792736D01*
X138423402Y-91726867D01*
X138422809Y-91719574D01*
X138420553Y-91712612D01*
X138419357Y-91706624D01*
X138417949Y-91700667D01*
X138417101Y-91693393D01*
X138414603Y-91686511D01*
X138414602Y-91686507D01*
X138392055Y-91624393D01*
X138390645Y-91620289D01*
X138368013Y-91550425D01*
X138364213Y-91544162D01*
X138361675Y-91538620D01*
X138358933Y-91533144D01*
X138356434Y-91526259D01*
X138316185Y-91464868D01*
X138313870Y-91461200D01*
X138275773Y-91398419D01*
X138272057Y-91394212D01*
X138272054Y-91394208D01*
X138268332Y-91389995D01*
X138268360Y-91389970D01*
X138265768Y-91387045D01*
X138262958Y-91383685D01*
X138258946Y-91377565D01*
X138202417Y-91324014D01*
X138199975Y-91321637D01*
X137830148Y-90951810D01*
X137817763Y-90937399D01*
X137814681Y-90933212D01*
X137811773Y-90928419D01*
X137804333Y-90919995D01*
X137804362Y-90919969D01*
X137801762Y-90917038D01*
X137798958Y-90913684D01*
X137794946Y-90907565D01*
X137738413Y-90854011D01*
X137735972Y-90851634D01*
X134767933Y-87883595D01*
X134733907Y-87821283D01*
X134738972Y-87750468D01*
X134781519Y-87693632D01*
X134848039Y-87668821D01*
X134857028Y-87668500D01*
X135468134Y-87668500D01*
X135530316Y-87661745D01*
X135666705Y-87610615D01*
X135783261Y-87523261D01*
X135870615Y-87406705D01*
X135921745Y-87270316D01*
X135928500Y-87208134D01*
X135928500Y-85511866D01*
X135921745Y-85449684D01*
X135870615Y-85313295D01*
X135783261Y-85196739D01*
X135666705Y-85109385D01*
X135530316Y-85058255D01*
X135468134Y-85051500D01*
X135327933Y-85051500D01*
X135259812Y-85031498D01*
X135227363Y-85001039D01*
X135225773Y-84998419D01*
X135218333Y-84989995D01*
X135218362Y-84989969D01*
X135215762Y-84987038D01*
X135212958Y-84983684D01*
X135208946Y-84977565D01*
X135152413Y-84924011D01*
X135149972Y-84921634D01*
X133906810Y-83678472D01*
X133894423Y-83664059D01*
X133885795Y-83652335D01*
X133881454Y-83646436D01*
X133840945Y-83612021D01*
X133833429Y-83605091D01*
X133827685Y-83599347D01*
X133824811Y-83597073D01*
X133824804Y-83597067D01*
X133805289Y-83581628D01*
X133801885Y-83578837D01*
X133751528Y-83536055D01*
X133751524Y-83536052D01*
X133745949Y-83531316D01*
X133739432Y-83527988D01*
X133734368Y-83524611D01*
X133729144Y-83521384D01*
X133723400Y-83516840D01*
X133660797Y-83487581D01*
X133656918Y-83485768D01*
X133652967Y-83483837D01*
X133594117Y-83453787D01*
X133587596Y-83450457D01*
X133580481Y-83448716D01*
X133574735Y-83446579D01*
X133568952Y-83444655D01*
X133562321Y-83441556D01*
X133490443Y-83426606D01*
X133486171Y-83425639D01*
X133414888Y-83408196D01*
X133409289Y-83407849D01*
X133409285Y-83407848D01*
X133403670Y-83407500D01*
X133403672Y-83407461D01*
X133399771Y-83407228D01*
X133395412Y-83406839D01*
X133388244Y-83405348D01*
X133380927Y-83405546D01*
X133310423Y-83407454D01*
X133307014Y-83407500D01*
X115987376Y-83407500D01*
X115968426Y-83406067D01*
X115954027Y-83403876D01*
X115954021Y-83403876D01*
X115946792Y-83402776D01*
X115939500Y-83403369D01*
X115939497Y-83403369D01*
X115893817Y-83407085D01*
X115883602Y-83407500D01*
X115875475Y-83407500D01*
X115871839Y-83407924D01*
X115871837Y-83407924D01*
X115868385Y-83408327D01*
X115847076Y-83410811D01*
X115842756Y-83411238D01*
X115769574Y-83417191D01*
X115762612Y-83419447D01*
X115756624Y-83420643D01*
X115750667Y-83422051D01*
X115743393Y-83422899D01*
X115736511Y-83425397D01*
X115736507Y-83425398D01*
X115674393Y-83447945D01*
X115670289Y-83449355D01*
X115600425Y-83471987D01*
X115594162Y-83475787D01*
X115588620Y-83478325D01*
X115583144Y-83481067D01*
X115576259Y-83483566D01*
X115570135Y-83487581D01*
X115514868Y-83523815D01*
X115511200Y-83526130D01*
X115448419Y-83564227D01*
X115444214Y-83567941D01*
X115444211Y-83567943D01*
X115439995Y-83571667D01*
X115439969Y-83571638D01*
X115437038Y-83574238D01*
X115433684Y-83577042D01*
X115427565Y-83581054D01*
X115398230Y-83612021D01*
X115374012Y-83637586D01*
X115371634Y-83640028D01*
X113508472Y-85503190D01*
X113494059Y-85515577D01*
X113476436Y-85528546D01*
X113471692Y-85534129D01*
X113471693Y-85534129D01*
X113442021Y-85569055D01*
X113435091Y-85576571D01*
X113429347Y-85582315D01*
X113427073Y-85585189D01*
X113427067Y-85585196D01*
X113411628Y-85604711D01*
X113408837Y-85608115D01*
X113366055Y-85658472D01*
X113366052Y-85658476D01*
X113361316Y-85664051D01*
X113357988Y-85670568D01*
X113354611Y-85675632D01*
X113351384Y-85680856D01*
X113346840Y-85686600D01*
X113343741Y-85693231D01*
X113315768Y-85753082D01*
X113313837Y-85757033D01*
X113303481Y-85777314D01*
X113280457Y-85822404D01*
X113278716Y-85829519D01*
X113276579Y-85835265D01*
X113274655Y-85841048D01*
X113271556Y-85847679D01*
X113270066Y-85854843D01*
X113256608Y-85919547D01*
X113255639Y-85923829D01*
X113238196Y-85995112D01*
X113237500Y-86006330D01*
X113237461Y-86006328D01*
X113237228Y-86010229D01*
X113236839Y-86014588D01*
X113235348Y-86021756D01*
X113235546Y-86029073D01*
X113237454Y-86099577D01*
X113237500Y-86102986D01*
X113237500Y-88881972D01*
X113217498Y-88950093D01*
X113200595Y-88971067D01*
X112907062Y-89264600D01*
X112844750Y-89298626D01*
X112773935Y-89293561D01*
X112717099Y-89251014D01*
X112694652Y-89201379D01*
X112692793Y-89192516D01*
X112670907Y-89088209D01*
X112586224Y-88873779D01*
X112466623Y-88676683D01*
X112379755Y-88576576D01*
X112319023Y-88506588D01*
X112319021Y-88506586D01*
X112315523Y-88502555D01*
X112247510Y-88446788D01*
X112141373Y-88359760D01*
X112141367Y-88359756D01*
X112137245Y-88356376D01*
X112105750Y-88338448D01*
X112056445Y-88287368D01*
X112042583Y-88217738D01*
X112068566Y-88151667D01*
X112097716Y-88124427D01*
X112133642Y-88100240D01*
X112219319Y-88042559D01*
X112238224Y-88024525D01*
X112337481Y-87929838D01*
X112386135Y-87883424D01*
X112523754Y-87698458D01*
X112536348Y-87673689D01*
X112594611Y-87559093D01*
X112628240Y-87492949D01*
X112649813Y-87423475D01*
X112695024Y-87277871D01*
X112696607Y-87272773D01*
X112706280Y-87199789D01*
X112726198Y-87049511D01*
X112726198Y-87049506D01*
X112726898Y-87044226D01*
X112725867Y-87016749D01*
X112718449Y-86819173D01*
X112718249Y-86813842D01*
X112670907Y-86588209D01*
X112598885Y-86405838D01*
X112588185Y-86378744D01*
X112588184Y-86378742D01*
X112586224Y-86373779D01*
X112583284Y-86368933D01*
X112469390Y-86181243D01*
X112466623Y-86176683D01*
X112379755Y-86076576D01*
X112319023Y-86006588D01*
X112319021Y-86006586D01*
X112315523Y-86002555D01*
X112219521Y-85923838D01*
X112141373Y-85859760D01*
X112141367Y-85859756D01*
X112137245Y-85856376D01*
X112132609Y-85853737D01*
X112132606Y-85853735D01*
X111941529Y-85744968D01*
X111936886Y-85742325D01*
X111720175Y-85663663D01*
X111714926Y-85662714D01*
X111714923Y-85662713D01*
X111497392Y-85623377D01*
X111497385Y-85623376D01*
X111493308Y-85622639D01*
X111475586Y-85621803D01*
X111470644Y-85621570D01*
X111470637Y-85621570D01*
X111469156Y-85621500D01*
X111057110Y-85621500D01*
X110990191Y-85627178D01*
X110890591Y-85635629D01*
X110890587Y-85635630D01*
X110885280Y-85636080D01*
X110880125Y-85637418D01*
X110880119Y-85637419D01*
X110667297Y-85692657D01*
X110667293Y-85692658D01*
X110662128Y-85693999D01*
X110657262Y-85696191D01*
X110657259Y-85696192D01*
X110548980Y-85744968D01*
X110451925Y-85788688D01*
X110260681Y-85917441D01*
X110093865Y-86076576D01*
X109956246Y-86261542D01*
X109851760Y-86467051D01*
X109850178Y-86472145D01*
X109850177Y-86472148D01*
X109788115Y-86672020D01*
X109783393Y-86687227D01*
X109782692Y-86692516D01*
X109754557Y-86904797D01*
X109753102Y-86915774D01*
X109753302Y-86921103D01*
X109753302Y-86921105D01*
X109753461Y-86925339D01*
X109761751Y-87146158D01*
X109809093Y-87371791D01*
X109811051Y-87376750D01*
X109811052Y-87376752D01*
X109887163Y-87569475D01*
X109893776Y-87586221D01*
X109896543Y-87590780D01*
X109896544Y-87590783D01*
X109933764Y-87652119D01*
X110013377Y-87783317D01*
X110016874Y-87787347D01*
X110108497Y-87892933D01*
X110164477Y-87957445D01*
X110168608Y-87960832D01*
X110338627Y-88100240D01*
X110338633Y-88100244D01*
X110342755Y-88103624D01*
X110374250Y-88121552D01*
X110423555Y-88172632D01*
X110437417Y-88242262D01*
X110411434Y-88308333D01*
X110382284Y-88335573D01*
X110260681Y-88417441D01*
X110256824Y-88421120D01*
X110256822Y-88421122D01*
X110216035Y-88460031D01*
X110093865Y-88576576D01*
X109956246Y-88761542D01*
X109851760Y-88967051D01*
X109850178Y-88972145D01*
X109850177Y-88972148D01*
X109788115Y-89172020D01*
X109783393Y-89187227D01*
X109782692Y-89192516D01*
X109761775Y-89350339D01*
X109753102Y-89415774D01*
X109761751Y-89646158D01*
X109762846Y-89651377D01*
X109765486Y-89663958D01*
X109809093Y-89871791D01*
X109811051Y-89876750D01*
X109811052Y-89876752D01*
X109867456Y-90019574D01*
X109893776Y-90086221D01*
X109896543Y-90090780D01*
X109896544Y-90090783D01*
X109899054Y-90094919D01*
X110013377Y-90283317D01*
X110016874Y-90287347D01*
X110157091Y-90448933D01*
X110164477Y-90457445D01*
X110168608Y-90460832D01*
X110338627Y-90600240D01*
X110338633Y-90600244D01*
X110342755Y-90603624D01*
X110374250Y-90621552D01*
X110423555Y-90672632D01*
X110437417Y-90742262D01*
X110411434Y-90808333D01*
X110382284Y-90835573D01*
X110260681Y-90917441D01*
X110256824Y-90921120D01*
X110256822Y-90921122D01*
X110235799Y-90941177D01*
X110093865Y-91076576D01*
X109956246Y-91261542D01*
X109953830Y-91266293D01*
X109953828Y-91266297D01*
X109921393Y-91330093D01*
X109851760Y-91467051D01*
X109783393Y-91687227D01*
X109782692Y-91692516D01*
X109754647Y-91904118D01*
X109753102Y-91915774D01*
X109761751Y-92146158D01*
X109762846Y-92151377D01*
X109771255Y-92191454D01*
X109809093Y-92371791D01*
X109811051Y-92376750D01*
X109811052Y-92376752D01*
X109832573Y-92431245D01*
X109893776Y-92586221D01*
X109896543Y-92590780D01*
X109896544Y-92590783D01*
X109974243Y-92718826D01*
X110013377Y-92783317D01*
X110016874Y-92787347D01*
X110156311Y-92948034D01*
X110164477Y-92957445D01*
X110168608Y-92960832D01*
X110338627Y-93100240D01*
X110338633Y-93100244D01*
X110342755Y-93103624D01*
X110374250Y-93121552D01*
X110423555Y-93172632D01*
X110437417Y-93242262D01*
X110411434Y-93308333D01*
X110382284Y-93335573D01*
X110260681Y-93417441D01*
X110256824Y-93421120D01*
X110256822Y-93421122D01*
X110187464Y-93487287D01*
X110093865Y-93576576D01*
X109956246Y-93761542D01*
X109851760Y-93967051D01*
X109850178Y-93972145D01*
X109850177Y-93972148D01*
X109788115Y-94172020D01*
X109783393Y-94187227D01*
X109782692Y-94192516D01*
X109767304Y-94308623D01*
X109753102Y-94415774D01*
X109761751Y-94646158D01*
X109809093Y-94871791D01*
X109811051Y-94876750D01*
X109811052Y-94876752D01*
X109876895Y-95043475D01*
X109893776Y-95086221D01*
X109896543Y-95090780D01*
X109896544Y-95090783D01*
X109931951Y-95149131D01*
X110013377Y-95283317D01*
X110164477Y-95457445D01*
X110168608Y-95460832D01*
X110338627Y-95600240D01*
X110338633Y-95600244D01*
X110342755Y-95603624D01*
X110374250Y-95621552D01*
X110423555Y-95672632D01*
X110437417Y-95742262D01*
X110411434Y-95808333D01*
X110382284Y-95835573D01*
X110260681Y-95917441D01*
X110093865Y-96076576D01*
X109956246Y-96261542D01*
X109953830Y-96266293D01*
X109953828Y-96266297D01*
X109920263Y-96332315D01*
X109851760Y-96467051D01*
X109850178Y-96472145D01*
X109850177Y-96472148D01*
X109811042Y-96598182D01*
X109783393Y-96687227D01*
X109782692Y-96692516D01*
X109754011Y-96908919D01*
X109753102Y-96915774D01*
X109753302Y-96921103D01*
X109753302Y-96921105D01*
X109755322Y-96974919D01*
X109761751Y-97146158D01*
X109809093Y-97371791D01*
X109893776Y-97586221D01*
X110013377Y-97783317D01*
X110016874Y-97787347D01*
X110103438Y-97887103D01*
X110164477Y-97957445D01*
X110168608Y-97960832D01*
X110338627Y-98100240D01*
X110338633Y-98100244D01*
X110342755Y-98103624D01*
X110374250Y-98121552D01*
X110423555Y-98172632D01*
X110437417Y-98242262D01*
X110411434Y-98308333D01*
X110382284Y-98335573D01*
X110260681Y-98417441D01*
X110093865Y-98576576D01*
X109956246Y-98761542D01*
X109953830Y-98766293D01*
X109953828Y-98766297D01*
X109914344Y-98843958D01*
X109851760Y-98967051D01*
X109850178Y-98972145D01*
X109850177Y-98972148D01*
X109788903Y-99169481D01*
X109783393Y-99187227D01*
X109782692Y-99192516D01*
X109754891Y-99402278D01*
X109753102Y-99415774D01*
X109753302Y-99421103D01*
X109753302Y-99421105D01*
X109755865Y-99489376D01*
X109761751Y-99646158D01*
X109809093Y-99871791D01*
X109811051Y-99876750D01*
X109811052Y-99876752D01*
X109839289Y-99948251D01*
X109893776Y-100086221D01*
X109896543Y-100090780D01*
X109896544Y-100090783D01*
X109939194Y-100161067D01*
X110013377Y-100283317D01*
X110016874Y-100287347D01*
X110103438Y-100387103D01*
X110164477Y-100457445D01*
X110168608Y-100460832D01*
X110338627Y-100600240D01*
X110338633Y-100600244D01*
X110342755Y-100603624D01*
X110374250Y-100621552D01*
X110423555Y-100672632D01*
X110437417Y-100742262D01*
X110411434Y-100808333D01*
X110382284Y-100835573D01*
X110260681Y-100917441D01*
X110093865Y-101076576D01*
X109956246Y-101261542D01*
X109851760Y-101467051D01*
X109850178Y-101472145D01*
X109850177Y-101472148D01*
X109808211Y-101607301D01*
X109783393Y-101687227D01*
X109782692Y-101692516D01*
X109754837Y-101902685D01*
X109753102Y-101915774D01*
X109753302Y-101921103D01*
X109753302Y-101921105D01*
X109754097Y-101942278D01*
X109761751Y-102146158D01*
X109809093Y-102371791D01*
X109811051Y-102376750D01*
X109811052Y-102376752D01*
X109855086Y-102488251D01*
X109893776Y-102586221D01*
X110013377Y-102783317D01*
X110016874Y-102787347D01*
X110139585Y-102928759D01*
X110164477Y-102957445D01*
X110168608Y-102960832D01*
X110338627Y-103100240D01*
X110338633Y-103100244D01*
X110342755Y-103103624D01*
X110374250Y-103121552D01*
X110423555Y-103172632D01*
X110437417Y-103242262D01*
X110411434Y-103308333D01*
X110382284Y-103335573D01*
X110260681Y-103417441D01*
X110093865Y-103576576D01*
X109956246Y-103761542D01*
X109953830Y-103766293D01*
X109953828Y-103766297D01*
X109904003Y-103864296D01*
X109851760Y-103967051D01*
X109850178Y-103972145D01*
X109850177Y-103972148D01*
X109796808Y-104144024D01*
X109783393Y-104187227D01*
X109782692Y-104192516D01*
X109755753Y-104395774D01*
X109753102Y-104415774D01*
X109761751Y-104646158D01*
X109762846Y-104651377D01*
X109768600Y-104678802D01*
X109809093Y-104871791D01*
X109811051Y-104876750D01*
X109811052Y-104876752D01*
X109885878Y-105066221D01*
X109893776Y-105086221D01*
X110013377Y-105283317D01*
X110016874Y-105287347D01*
X110103438Y-105387103D01*
X110164477Y-105457445D01*
X110203600Y-105489524D01*
X110338627Y-105600240D01*
X110338633Y-105600244D01*
X110342755Y-105603624D01*
X110374250Y-105621552D01*
X110423555Y-105672632D01*
X110437417Y-105742262D01*
X110411434Y-105808333D01*
X110382284Y-105835573D01*
X110260681Y-105917441D01*
X110093865Y-106076576D01*
X109956246Y-106261542D01*
X109851760Y-106467051D01*
X109850178Y-106472145D01*
X109850177Y-106472148D01*
X109808326Y-106606930D01*
X109783393Y-106687227D01*
X109782692Y-106692516D01*
X109755753Y-106895774D01*
X109753102Y-106915774D01*
X109761751Y-107146158D01*
X109809093Y-107371791D01*
X109811051Y-107376750D01*
X109811052Y-107376752D01*
X109885878Y-107566221D01*
X109893776Y-107586221D01*
X110013377Y-107783317D01*
X110016874Y-107787347D01*
X110103438Y-107887103D01*
X110164477Y-107957445D01*
X110168608Y-107960832D01*
X110338627Y-108100240D01*
X110338633Y-108100244D01*
X110342755Y-108103624D01*
X110374250Y-108121552D01*
X110423555Y-108172632D01*
X110437417Y-108242262D01*
X110411434Y-108308333D01*
X110382284Y-108335573D01*
X110260681Y-108417441D01*
X110093865Y-108576576D01*
X109956246Y-108761542D01*
X109851760Y-108967051D01*
X109850178Y-108972145D01*
X109850177Y-108972148D01*
X109791186Y-109162129D01*
X109783393Y-109187227D01*
X109782692Y-109192516D01*
X109755753Y-109395774D01*
X109753102Y-109415774D01*
X98298500Y-109415774D01*
X98298500Y-80117655D01*
X99839858Y-80117655D01*
X99875104Y-80376638D01*
X99876412Y-80381124D01*
X99876412Y-80381126D01*
X99896098Y-80448664D01*
X99948243Y-80627567D01*
X100057668Y-80864928D01*
X100060231Y-80868837D01*
X100198410Y-81079596D01*
X100198414Y-81079601D01*
X100200976Y-81083509D01*
X100375018Y-81278506D01*
X100575970Y-81445637D01*
X100579973Y-81448066D01*
X100795422Y-81578804D01*
X100795426Y-81578806D01*
X100799419Y-81581229D01*
X101040455Y-81682303D01*
X101293783Y-81746641D01*
X101298434Y-81747109D01*
X101298438Y-81747110D01*
X101491308Y-81766531D01*
X101510867Y-81768500D01*
X101666354Y-81768500D01*
X101668679Y-81768327D01*
X101668685Y-81768327D01*
X101856000Y-81754407D01*
X101856004Y-81754406D01*
X101860652Y-81754061D01*
X101865200Y-81753032D01*
X101865206Y-81753031D01*
X102051601Y-81710853D01*
X102115577Y-81696377D01*
X102151769Y-81682303D01*
X102354824Y-81603340D01*
X102354827Y-81603339D01*
X102359177Y-81601647D01*
X102586098Y-81471951D01*
X102791357Y-81310138D01*
X102970443Y-81119763D01*
X103119424Y-80905009D01*
X103235025Y-80670593D01*
X103314707Y-80421665D01*
X103356721Y-80163693D01*
X103357324Y-80117655D01*
X136669858Y-80117655D01*
X136705104Y-80376638D01*
X136706412Y-80381124D01*
X136706412Y-80381126D01*
X136726098Y-80448664D01*
X136778243Y-80627567D01*
X136887668Y-80864928D01*
X136890231Y-80868837D01*
X137028410Y-81079596D01*
X137028414Y-81079601D01*
X137030976Y-81083509D01*
X137205018Y-81278506D01*
X137405970Y-81445637D01*
X137409973Y-81448066D01*
X137625422Y-81578804D01*
X137625426Y-81578806D01*
X137629419Y-81581229D01*
X137870455Y-81682303D01*
X138123783Y-81746641D01*
X138128434Y-81747109D01*
X138128438Y-81747110D01*
X138321308Y-81766531D01*
X138340867Y-81768500D01*
X138496354Y-81768500D01*
X138498679Y-81768327D01*
X138498685Y-81768327D01*
X138686000Y-81754407D01*
X138686004Y-81754406D01*
X138690652Y-81754061D01*
X138695200Y-81753032D01*
X138695206Y-81753031D01*
X138881601Y-81710853D01*
X138945577Y-81696377D01*
X138981769Y-81682303D01*
X139184824Y-81603340D01*
X139184827Y-81603339D01*
X139189177Y-81601647D01*
X139416098Y-81471951D01*
X139621357Y-81310138D01*
X139800443Y-81119763D01*
X139949424Y-80905009D01*
X140065025Y-80670593D01*
X140144707Y-80421665D01*
X140186721Y-80163693D01*
X140190142Y-79902345D01*
X140154896Y-79643362D01*
X140140473Y-79593877D01*
X140083068Y-79396932D01*
X140081757Y-79392433D01*
X139972332Y-79155072D01*
X139939519Y-79105024D01*
X139831590Y-78940404D01*
X139831586Y-78940399D01*
X139829024Y-78936491D01*
X139654982Y-78741494D01*
X139454030Y-78574363D01*
X139406844Y-78545730D01*
X139234578Y-78441196D01*
X139234574Y-78441194D01*
X139230581Y-78438771D01*
X138989545Y-78337697D01*
X138736217Y-78273359D01*
X138731566Y-78272891D01*
X138731562Y-78272890D01*
X138522271Y-78251816D01*
X138519133Y-78251500D01*
X138363646Y-78251500D01*
X138361321Y-78251673D01*
X138361315Y-78251673D01*
X138174000Y-78265593D01*
X138173996Y-78265594D01*
X138169348Y-78265939D01*
X138164800Y-78266968D01*
X138164794Y-78266969D01*
X137978399Y-78309147D01*
X137914423Y-78323623D01*
X137910071Y-78325315D01*
X137910069Y-78325316D01*
X137675176Y-78416660D01*
X137675173Y-78416661D01*
X137670823Y-78418353D01*
X137443902Y-78548049D01*
X137238643Y-78709862D01*
X137059557Y-78900237D01*
X136910576Y-79114991D01*
X136794975Y-79349407D01*
X136715293Y-79598335D01*
X136673279Y-79856307D01*
X136669858Y-80117655D01*
X103357324Y-80117655D01*
X103360142Y-79902345D01*
X103324896Y-79643362D01*
X103310473Y-79593877D01*
X103253068Y-79396932D01*
X103251757Y-79392433D01*
X103142332Y-79155072D01*
X103109519Y-79105024D01*
X103001590Y-78940404D01*
X103001586Y-78940399D01*
X102999024Y-78936491D01*
X102824982Y-78741494D01*
X102624030Y-78574363D01*
X102576844Y-78545730D01*
X102404578Y-78441196D01*
X102404574Y-78441194D01*
X102400581Y-78438771D01*
X102159545Y-78337697D01*
X101906217Y-78273359D01*
X101901566Y-78272891D01*
X101901562Y-78272890D01*
X101692271Y-78251816D01*
X101689133Y-78251500D01*
X101533646Y-78251500D01*
X101531321Y-78251673D01*
X101531315Y-78251673D01*
X101344000Y-78265593D01*
X101343996Y-78265594D01*
X101339348Y-78265939D01*
X101334800Y-78266968D01*
X101334794Y-78266969D01*
X101148399Y-78309147D01*
X101084423Y-78323623D01*
X101080071Y-78325315D01*
X101080069Y-78325316D01*
X100845176Y-78416660D01*
X100845173Y-78416661D01*
X100840823Y-78418353D01*
X100613902Y-78548049D01*
X100408643Y-78709862D01*
X100229557Y-78900237D01*
X100080576Y-79114991D01*
X99964975Y-79349407D01*
X99885293Y-79598335D01*
X99843279Y-79856307D01*
X99839858Y-80117655D01*
X98298500Y-80117655D01*
X98298500Y-76834500D01*
X98318502Y-76766379D01*
X98372158Y-76719886D01*
X98424500Y-76708500D01*
X141605500Y-76708500D01*
X141673621Y-76728502D01*
G37*
%TD.AperFunction*%
M02*
