%TF.GenerationSoftware,KiCad,Pcbnew,(6.0.6)*%
%TF.CreationDate,2022-10-14T10:27:47+05:30*%
%TF.ProjectId,exp2,65787032-2e6b-4696-9361-645f70636258,rev?*%
%TF.SameCoordinates,Original*%
%TF.FileFunction,Soldermask,Top*%
%TF.FilePolarity,Negative*%
%FSLAX46Y46*%
G04 Gerber Fmt 4.6, Leading zero omitted, Abs format (unit mm)*
G04 Created by KiCad (PCBNEW (6.0.6)) date 2022-10-14 10:27:47*
%MOMM*%
%LPD*%
G01*
G04 APERTURE LIST*
G04 Aperture macros list*
%AMRoundRect*
0 Rectangle with rounded corners*
0 $1 Rounding radius*
0 $2 $3 $4 $5 $6 $7 $8 $9 X,Y pos of 4 corners*
0 Add a 4 corners polygon primitive as box body*
4,1,4,$2,$3,$4,$5,$6,$7,$8,$9,$2,$3,0*
0 Add four circle primitives for the rounded corners*
1,1,$1+$1,$2,$3*
1,1,$1+$1,$4,$5*
1,1,$1+$1,$6,$7*
1,1,$1+$1,$8,$9*
0 Add four rect primitives between the rounded corners*
20,1,$1+$1,$2,$3,$4,$5,0*
20,1,$1+$1,$4,$5,$6,$7,0*
20,1,$1+$1,$6,$7,$8,$9,0*
20,1,$1+$1,$8,$9,$2,$3,0*%
G04 Aperture macros list end*
%ADD10RoundRect,0.250000X0.725000X-0.600000X0.725000X0.600000X-0.725000X0.600000X-0.725000X-0.600000X0*%
%ADD11O,1.950000X1.700000*%
%ADD12C,2.500000*%
%ADD13R,1.600000X1.600000*%
%ADD14O,1.600000X1.600000*%
%ADD15RoundRect,0.250000X-0.725000X0.600000X-0.725000X-0.600000X0.725000X-0.600000X0.725000X0.600000X0*%
G04 APERTURE END LIST*
D10*
%TO.C,J1*%
X110482500Y-112830000D03*
D11*
X110482500Y-110330000D03*
X110482500Y-107830000D03*
X110482500Y-105330000D03*
X110482500Y-102830000D03*
X110482500Y-100330000D03*
X110482500Y-97830000D03*
X110482500Y-95330000D03*
X110482500Y-92830000D03*
X110482500Y-90330000D03*
X110482500Y-87830000D03*
%TD*%
D12*
%TO.C,H3*%
X101600000Y-80010000D03*
%TD*%
%TO.C,H2*%
X148590000Y-80010000D03*
%TD*%
D13*
%TO.C,U2*%
X127010000Y-86350000D03*
D14*
X127010000Y-88890000D03*
X127010000Y-91430000D03*
X127010000Y-93970000D03*
X127010000Y-96510000D03*
X127010000Y-99050000D03*
X127010000Y-101590000D03*
X127010000Y-104130000D03*
X134630000Y-104130000D03*
X134630000Y-101590000D03*
X134630000Y-99050000D03*
X134630000Y-96510000D03*
X134630000Y-93970000D03*
X134630000Y-91430000D03*
X134630000Y-88890000D03*
X134630000Y-86350000D03*
%TD*%
D15*
%TO.C,J2*%
X139707500Y-95350000D03*
D11*
X139707500Y-97850000D03*
X139707500Y-100350000D03*
X139707500Y-102850000D03*
X139707500Y-105350000D03*
X139707500Y-107850000D03*
%TD*%
D12*
%TO.C,H4*%
X101600000Y-119380000D03*
%TD*%
%TO.C,H1*%
X148590000Y-119380000D03*
%TD*%
D13*
%TO.C,U1*%
X115580000Y-99055000D03*
D14*
X115580000Y-101595000D03*
X115580000Y-104135000D03*
X115580000Y-106675000D03*
X115580000Y-109215000D03*
X115580000Y-111755000D03*
X115580000Y-114295000D03*
X123200000Y-114295000D03*
X123200000Y-111755000D03*
X123200000Y-109215000D03*
X123200000Y-106675000D03*
X123200000Y-104135000D03*
X123200000Y-101595000D03*
X123200000Y-99055000D03*
%TD*%
M02*
