M48
; DRILL file {KiCad (6.0.6)} date Mon Oct 10 23:46:30 2022
; FORMAT={-:-/ absolute / inch / decimal}
; #@! TF.CreationDate,2022-10-10T23:46:30+05:30
; #@! TF.GenerationSoftware,Kicad,Pcbnew,(6.0.6)
; #@! TF.FileFunction,Plated,1,2,PTH
FMAT,2
INCH
; #@! TA.AperFunction,Plated,PTH,ComponentDrill
T1C0.0315
; #@! TA.AperFunction,Plated,PTH,ComponentDrill
T2C0.0374
; #@! TA.AperFunction,Plated,PTH,ComponentDrill
T3C0.0394
%
G90
G05
T1
X5.0498Y-2.3996
X5.0498Y-2.6996
X5.05Y-2.85
X5.05Y-3.15
X5.1498Y-2.3996
X5.1498Y-2.6996
X5.15Y-2.85
X5.15Y-3.15
X5.2498Y-2.3996
X5.2498Y-2.6996
X5.25Y-2.85
X5.25Y-3.15
X5.3498Y-2.3996
X5.3498Y-2.6996
X5.35Y-2.85
X5.35Y-3.15
X5.4498Y-2.3996
X5.4498Y-2.6996
X5.45Y-2.85
X5.45Y-3.15
X5.5498Y-2.3996
X5.5498Y-2.6996
X5.55Y-2.85
X5.55Y-3.15
X5.6498Y-2.3996
X5.6498Y-2.6996
X5.65Y-2.85
X5.65Y-3.15
T2
X4.8497Y-2.7531
X4.8497Y-2.8516
X4.8497Y-2.95
X4.8497Y-3.0484
X4.8497Y-3.1469
T3
X4.8497Y-2.4008
X4.8497Y-2.4992
T0
M30
