%TF.GenerationSoftware,KiCad,Pcbnew,(6.0.6)*%
%TF.CreationDate,2022-10-11T00:14:44+05:30*%
%TF.ProjectId,exp3,65787033-2e6b-4696-9361-645f70636258,rev?*%
%TF.SameCoordinates,Original*%
%TF.FileFunction,Legend,Top*%
%TF.FilePolarity,Positive*%
%FSLAX46Y46*%
G04 Gerber Fmt 4.6, Leading zero omitted, Abs format (unit mm)*
G04 Created by KiCad (PCBNEW (6.0.6)) date 2022-10-11 00:14:44*
%MOMM*%
%LPD*%
G01*
G04 APERTURE LIST*
%ADD10C,0.150000*%
%ADD11C,0.125000*%
%ADD12C,0.300000*%
%ADD13C,0.120000*%
G04 APERTURE END LIST*
D10*
X133870000Y-84512380D02*
X133870000Y-84750476D01*
X133631904Y-84655238D02*
X133870000Y-84750476D01*
X134108095Y-84655238D01*
X133727142Y-84940952D02*
X133870000Y-84750476D01*
X134012857Y-84940952D01*
X122380000Y-87412380D02*
X122380000Y-87650476D01*
X122141904Y-87555238D02*
X122380000Y-87650476D01*
X122618095Y-87555238D01*
X122237142Y-87840952D02*
X122380000Y-87650476D01*
X122522857Y-87840952D01*
D11*
X156052857Y-103562857D02*
X156910000Y-103562857D01*
X157081428Y-103620000D01*
X157195714Y-103734285D01*
X157252857Y-103905714D01*
X157252857Y-104020000D01*
X157195714Y-103048571D02*
X157252857Y-102877142D01*
X157252857Y-102591428D01*
X157195714Y-102477142D01*
X157138571Y-102420000D01*
X157024285Y-102362857D01*
X156910000Y-102362857D01*
X156795714Y-102420000D01*
X156738571Y-102477142D01*
X156681428Y-102591428D01*
X156624285Y-102820000D01*
X156567142Y-102934285D01*
X156510000Y-102991428D01*
X156395714Y-103048571D01*
X156281428Y-103048571D01*
X156167142Y-102991428D01*
X156110000Y-102934285D01*
X156052857Y-102820000D01*
X156052857Y-102534285D01*
X156110000Y-102362857D01*
X156052857Y-102020000D02*
X156052857Y-101334285D01*
X157252857Y-101677142D02*
X156052857Y-101677142D01*
X156052857Y-99505714D02*
X156052857Y-99734285D01*
X156110000Y-99848571D01*
X156167142Y-99905714D01*
X156338571Y-100020000D01*
X156567142Y-100077142D01*
X157024285Y-100077142D01*
X157138571Y-100020000D01*
X157195714Y-99962857D01*
X157252857Y-99848571D01*
X157252857Y-99620000D01*
X157195714Y-99505714D01*
X157138571Y-99448571D01*
X157024285Y-99391428D01*
X156738571Y-99391428D01*
X156624285Y-99448571D01*
X156567142Y-99505714D01*
X156510000Y-99620000D01*
X156510000Y-99848571D01*
X156567142Y-99962857D01*
X156624285Y-100020000D01*
X156738571Y-100077142D01*
X157252857Y-98877142D02*
X156052857Y-98877142D01*
X156052857Y-98420000D01*
X156110000Y-98305714D01*
X156167142Y-98248571D01*
X156281428Y-98191428D01*
X156452857Y-98191428D01*
X156567142Y-98248571D01*
X156624285Y-98305714D01*
X156681428Y-98420000D01*
X156681428Y-98877142D01*
X157252857Y-97677142D02*
X156052857Y-97677142D01*
X157252857Y-97105714D02*
X156052857Y-97105714D01*
X157252857Y-96420000D01*
X156052857Y-96420000D01*
X156624285Y-94534285D02*
X156624285Y-94934285D01*
X157252857Y-94934285D02*
X156052857Y-94934285D01*
X156052857Y-94362857D01*
X156624285Y-93905714D02*
X156624285Y-93505714D01*
X157252857Y-93334285D02*
X157252857Y-93905714D01*
X156052857Y-93905714D01*
X156052857Y-93334285D01*
X157252857Y-92820000D02*
X156052857Y-92820000D01*
X156910000Y-92420000D01*
X156052857Y-92020000D01*
X157252857Y-92020000D01*
X156910000Y-91505714D02*
X156910000Y-90934285D01*
X157252857Y-91620000D02*
X156052857Y-91220000D01*
X157252857Y-90820000D01*
X157252857Y-89848571D02*
X157252857Y-90420000D01*
X156052857Y-90420000D01*
X156624285Y-89448571D02*
X156624285Y-89048571D01*
X157252857Y-88877142D02*
X157252857Y-89448571D01*
X156052857Y-89448571D01*
X156052857Y-88877142D01*
X110148571Y-104410000D02*
X111220000Y-104410000D01*
X111434285Y-104481428D01*
X111577142Y-104624285D01*
X111648571Y-104838571D01*
X111648571Y-104981428D01*
X111577142Y-103767142D02*
X111648571Y-103552857D01*
X111648571Y-103195714D01*
X111577142Y-103052857D01*
X111505714Y-102981428D01*
X111362857Y-102910000D01*
X111220000Y-102910000D01*
X111077142Y-102981428D01*
X111005714Y-103052857D01*
X110934285Y-103195714D01*
X110862857Y-103481428D01*
X110791428Y-103624285D01*
X110720000Y-103695714D01*
X110577142Y-103767142D01*
X110434285Y-103767142D01*
X110291428Y-103695714D01*
X110220000Y-103624285D01*
X110148571Y-103481428D01*
X110148571Y-103124285D01*
X110220000Y-102910000D01*
X110148571Y-102481428D02*
X110148571Y-101624285D01*
X111648571Y-102052857D02*
X110148571Y-102052857D01*
X110148571Y-100124285D02*
X110148571Y-99124285D01*
X111648571Y-99767142D01*
X111648571Y-98552857D02*
X110148571Y-98552857D01*
X110148571Y-97981428D01*
X110220000Y-97838571D01*
X110291428Y-97767142D01*
X110434285Y-97695714D01*
X110648571Y-97695714D01*
X110791428Y-97767142D01*
X110862857Y-97838571D01*
X110934285Y-97981428D01*
X110934285Y-98552857D01*
X111648571Y-97052857D02*
X110148571Y-97052857D01*
X111648571Y-96338571D02*
X110148571Y-96338571D01*
X111648571Y-95481428D01*
X110148571Y-95481428D01*
X110862857Y-93124285D02*
X110862857Y-93624285D01*
X111648571Y-93624285D02*
X110148571Y-93624285D01*
X110148571Y-92910000D01*
X110862857Y-92338571D02*
X110862857Y-91838571D01*
X111648571Y-91624285D02*
X111648571Y-92338571D01*
X110148571Y-92338571D01*
X110148571Y-91624285D01*
X111648571Y-90981428D02*
X110148571Y-90981428D01*
X111220000Y-90481428D01*
X110148571Y-89981428D01*
X111648571Y-89981428D01*
X111220000Y-89338571D02*
X111220000Y-88624285D01*
X111648571Y-89481428D02*
X110148571Y-88981428D01*
X111648571Y-88481428D01*
X111648571Y-87267142D02*
X111648571Y-87981428D01*
X110148571Y-87981428D01*
X110862857Y-86767142D02*
X110862857Y-86267142D01*
X111648571Y-86052857D02*
X111648571Y-86767142D01*
X110148571Y-86767142D01*
X110148571Y-86052857D01*
D12*
X124242857Y-81025714D02*
X125242857Y-81025714D01*
X125671428Y-82597142D02*
X124242857Y-82597142D01*
X124242857Y-79597142D01*
X125671428Y-79597142D01*
X126671428Y-79597142D02*
X128671428Y-82597142D01*
X128671428Y-79597142D02*
X126671428Y-82597142D01*
X129814285Y-82597142D02*
X129814285Y-79597142D01*
X130957142Y-79597142D01*
X131242857Y-79740000D01*
X131385714Y-79882857D01*
X131528571Y-80168571D01*
X131528571Y-80597142D01*
X131385714Y-80882857D01*
X131242857Y-81025714D01*
X130957142Y-81168571D01*
X129814285Y-81168571D01*
X132814285Y-81454285D02*
X135100000Y-81454285D01*
X136242857Y-79597142D02*
X138100000Y-79597142D01*
X137100000Y-80740000D01*
X137528571Y-80740000D01*
X137814285Y-80882857D01*
X137957142Y-81025714D01*
X138100000Y-81311428D01*
X138100000Y-82025714D01*
X137957142Y-82311428D01*
X137814285Y-82454285D01*
X137528571Y-82597142D01*
X136671428Y-82597142D01*
X136385714Y-82454285D01*
X136242857Y-82311428D01*
D10*
X132659523Y-110942380D02*
X132659523Y-109942380D01*
X133040476Y-109942380D01*
X133135714Y-109990000D01*
X133183333Y-110037619D01*
X133230952Y-110132857D01*
X133230952Y-110275714D01*
X133183333Y-110370952D01*
X133135714Y-110418571D01*
X133040476Y-110466190D01*
X132659523Y-110466190D01*
X133516666Y-109942380D02*
X133850000Y-110942380D01*
X134183333Y-109942380D01*
%TO.C,U2*%
X138938095Y-83482380D02*
X138938095Y-84291904D01*
X138985714Y-84387142D01*
X139033333Y-84434761D01*
X139128571Y-84482380D01*
X139319047Y-84482380D01*
X139414285Y-84434761D01*
X139461904Y-84387142D01*
X139509523Y-84291904D01*
X139509523Y-83482380D01*
X139938095Y-83577619D02*
X139985714Y-83530000D01*
X140080952Y-83482380D01*
X140319047Y-83482380D01*
X140414285Y-83530000D01*
X140461904Y-83577619D01*
X140509523Y-83672857D01*
X140509523Y-83768095D01*
X140461904Y-83910952D01*
X139890476Y-84482380D01*
X140509523Y-84482380D01*
X137037142Y-106258571D02*
X138037142Y-106258571D01*
X137394285Y-107758571D01*
X139251428Y-106758571D02*
X139251428Y-107758571D01*
X138894285Y-106187142D02*
X138537142Y-107258571D01*
X139465714Y-107258571D01*
X140251428Y-106901428D02*
X140108571Y-106830000D01*
X140037142Y-106758571D01*
X139965714Y-106615714D01*
X139965714Y-106544285D01*
X140037142Y-106401428D01*
X140108571Y-106330000D01*
X140251428Y-106258571D01*
X140537142Y-106258571D01*
X140680000Y-106330000D01*
X140751428Y-106401428D01*
X140822857Y-106544285D01*
X140822857Y-106615714D01*
X140751428Y-106758571D01*
X140680000Y-106830000D01*
X140537142Y-106901428D01*
X140251428Y-106901428D01*
X140108571Y-106972857D01*
X140037142Y-107044285D01*
X139965714Y-107187142D01*
X139965714Y-107472857D01*
X140037142Y-107615714D01*
X140108571Y-107687142D01*
X140251428Y-107758571D01*
X140537142Y-107758571D01*
X140680000Y-107687142D01*
X140751428Y-107615714D01*
X140822857Y-107472857D01*
X140822857Y-107187142D01*
X140751428Y-107044285D01*
X140680000Y-106972857D01*
X140537142Y-106901428D01*
X141322857Y-106258571D02*
X142251428Y-106258571D01*
X141751428Y-106830000D01*
X141965714Y-106830000D01*
X142108571Y-106901428D01*
X142180000Y-106972857D01*
X142251428Y-107115714D01*
X142251428Y-107472857D01*
X142180000Y-107615714D01*
X142108571Y-107687142D01*
X141965714Y-107758571D01*
X141537142Y-107758571D01*
X141394285Y-107687142D01*
X141322857Y-107615714D01*
%TO.C,U1*%
X127518095Y-84747380D02*
X127518095Y-85556904D01*
X127565714Y-85652142D01*
X127613333Y-85699761D01*
X127708571Y-85747380D01*
X127899047Y-85747380D01*
X127994285Y-85699761D01*
X128041904Y-85652142D01*
X128089523Y-85556904D01*
X128089523Y-84747380D01*
X129089523Y-85747380D02*
X128518095Y-85747380D01*
X128803809Y-85747380D02*
X128803809Y-84747380D01*
X128708571Y-84890238D01*
X128613333Y-84985476D01*
X128518095Y-85033095D01*
X124051428Y-104958571D02*
X125051428Y-104958571D01*
X124408571Y-106458571D01*
X126265714Y-105458571D02*
X126265714Y-106458571D01*
X125908571Y-104887142D02*
X125551428Y-105958571D01*
X126480000Y-105958571D01*
X127051428Y-106458571D02*
X127051428Y-104958571D01*
X127051428Y-105672857D02*
X127908571Y-105672857D01*
X127908571Y-106458571D02*
X127908571Y-104958571D01*
X129480000Y-106315714D02*
X129408571Y-106387142D01*
X129194285Y-106458571D01*
X129051428Y-106458571D01*
X128837142Y-106387142D01*
X128694285Y-106244285D01*
X128622857Y-106101428D01*
X128551428Y-105815714D01*
X128551428Y-105601428D01*
X128622857Y-105315714D01*
X128694285Y-105172857D01*
X128837142Y-105030000D01*
X129051428Y-104958571D01*
X129194285Y-104958571D01*
X129408571Y-105030000D01*
X129480000Y-105101428D01*
X130337142Y-105601428D02*
X130194285Y-105530000D01*
X130122857Y-105458571D01*
X130051428Y-105315714D01*
X130051428Y-105244285D01*
X130122857Y-105101428D01*
X130194285Y-105030000D01*
X130337142Y-104958571D01*
X130622857Y-104958571D01*
X130765714Y-105030000D01*
X130837142Y-105101428D01*
X130908571Y-105244285D01*
X130908571Y-105315714D01*
X130837142Y-105458571D01*
X130765714Y-105530000D01*
X130622857Y-105601428D01*
X130337142Y-105601428D01*
X130194285Y-105672857D01*
X130122857Y-105744285D01*
X130051428Y-105887142D01*
X130051428Y-106172857D01*
X130122857Y-106315714D01*
X130194285Y-106387142D01*
X130337142Y-106458571D01*
X130622857Y-106458571D01*
X130765714Y-106387142D01*
X130837142Y-106315714D01*
X130908571Y-106172857D01*
X130908571Y-105887142D01*
X130837142Y-105744285D01*
X130765714Y-105672857D01*
X130622857Y-105601428D01*
X132194285Y-104958571D02*
X131908571Y-104958571D01*
X131765714Y-105030000D01*
X131694285Y-105101428D01*
X131551428Y-105315714D01*
X131480000Y-105601428D01*
X131480000Y-106172857D01*
X131551428Y-106315714D01*
X131622857Y-106387142D01*
X131765714Y-106458571D01*
X132051428Y-106458571D01*
X132194285Y-106387142D01*
X132265714Y-106315714D01*
X132337142Y-106172857D01*
X132337142Y-105815714D01*
X132265714Y-105672857D01*
X132194285Y-105601428D01*
X132051428Y-105530000D01*
X131765714Y-105530000D01*
X131622857Y-105601428D01*
X131551428Y-105672857D01*
X131480000Y-105815714D01*
%TO.C,H4*%
X150368095Y-110942380D02*
X150368095Y-109942380D01*
X150368095Y-110418571D02*
X150939523Y-110418571D01*
X150939523Y-110942380D02*
X150939523Y-109942380D01*
X151844285Y-110275714D02*
X151844285Y-110942380D01*
X151606190Y-109894761D02*
X151368095Y-110609047D01*
X151987142Y-110609047D01*
%TO.C,H1*%
X113538095Y-110942380D02*
X113538095Y-109942380D01*
X113538095Y-110418571D02*
X114109523Y-110418571D01*
X114109523Y-110942380D02*
X114109523Y-109942380D01*
X115109523Y-110942380D02*
X114538095Y-110942380D01*
X114823809Y-110942380D02*
X114823809Y-109942380D01*
X114728571Y-110085238D01*
X114633333Y-110180476D01*
X114538095Y-110228095D01*
%TO.C,H2*%
X150368095Y-80462380D02*
X150368095Y-79462380D01*
X150368095Y-79938571D02*
X150939523Y-79938571D01*
X150939523Y-80462380D02*
X150939523Y-79462380D01*
X151368095Y-79557619D02*
X151415714Y-79510000D01*
X151510952Y-79462380D01*
X151749047Y-79462380D01*
X151844285Y-79510000D01*
X151891904Y-79557619D01*
X151939523Y-79652857D01*
X151939523Y-79748095D01*
X151891904Y-79890952D01*
X151320476Y-80462380D01*
X151939523Y-80462380D01*
%TO.C,H3*%
X113538095Y-80462380D02*
X113538095Y-79462380D01*
X113538095Y-79938571D02*
X114109523Y-79938571D01*
X114109523Y-80462380D02*
X114109523Y-79462380D01*
X114490476Y-79462380D02*
X115109523Y-79462380D01*
X114776190Y-79843333D01*
X114919047Y-79843333D01*
X115014285Y-79890952D01*
X115061904Y-79938571D01*
X115109523Y-80033809D01*
X115109523Y-80271904D01*
X115061904Y-80367142D01*
X115014285Y-80414761D01*
X114919047Y-80462380D01*
X114633333Y-80462380D01*
X114538095Y-80414761D01*
X114490476Y-80367142D01*
D13*
%TO.C,U2*%
X138700000Y-85030000D02*
G75*
G03*
X140700000Y-85030000I1000000J0D01*
G01*
X134560000Y-105530000D02*
X144840000Y-105530000D01*
X134560000Y-84970000D02*
X134560000Y-105530000D01*
X144840000Y-105530000D02*
X144840000Y-84970000D01*
X137050000Y-85030000D02*
X137050000Y-105470000D01*
X142350000Y-85030000D02*
X140700000Y-85030000D01*
X138700000Y-85030000D02*
X137050000Y-85030000D01*
X142350000Y-105470000D02*
X142350000Y-85030000D01*
X144840000Y-84970000D02*
X134560000Y-84970000D01*
X137050000Y-105470000D02*
X142350000Y-105470000D01*
%TO.C,U1*%
X133420000Y-86235000D02*
X123140000Y-86235000D01*
X133420000Y-104255000D02*
X133420000Y-86235000D01*
X123140000Y-104255000D02*
X133420000Y-104255000D01*
X130930000Y-86295000D02*
X129280000Y-86295000D01*
X125630000Y-86295000D02*
X125630000Y-104195000D01*
X125630000Y-104195000D02*
X130930000Y-104195000D01*
X127280000Y-86295000D02*
X125630000Y-86295000D01*
X123140000Y-86235000D02*
X123140000Y-104255000D01*
X130930000Y-104195000D02*
X130930000Y-86295000D01*
X127280000Y-86295000D02*
G75*
G03*
X129280000Y-86295000I1000000J0D01*
G01*
%TO.C,J2*%
X149187500Y-91440000D02*
X149187500Y-91600000D01*
X149187500Y-88880000D02*
X149187500Y-87660000D01*
X153687500Y-100270000D02*
X153607500Y-100590000D01*
X149187500Y-93940000D02*
X149187500Y-94100000D01*
X150187500Y-90590000D02*
X150187500Y-90270000D01*
X150187500Y-88880000D02*
X150187500Y-104160000D01*
X153607500Y-100590000D02*
X150187500Y-100590000D01*
X153607500Y-99950000D02*
X153687500Y-100270000D01*
X146497500Y-90570000D02*
X147097500Y-90270000D01*
X150187500Y-89950000D02*
X153607500Y-89950000D01*
X149187500Y-96440000D02*
X149187500Y-96600000D01*
X153607500Y-98090000D02*
X150187500Y-98090000D01*
X149187500Y-101440000D02*
X149187500Y-101600000D01*
X150187500Y-97450000D02*
X153607500Y-97450000D01*
X146987500Y-104160000D02*
X149187500Y-104160000D01*
X150187500Y-94950000D02*
X153607500Y-94950000D01*
X150187500Y-95590000D02*
X150187500Y-95270000D01*
X150187500Y-102450000D02*
X153607500Y-102450000D01*
X153607500Y-97450000D02*
X153687500Y-97770000D01*
X149187500Y-88880000D02*
X146987500Y-88880000D01*
X150187500Y-98090000D02*
X150187500Y-97770000D01*
X150187500Y-92770000D02*
X150187500Y-92450000D01*
X147097500Y-90270000D02*
X146497500Y-89970000D01*
X150187500Y-93090000D02*
X150187500Y-92770000D01*
X153607500Y-92450000D02*
X153687500Y-92770000D01*
X146987500Y-88880000D02*
X146987500Y-87660000D01*
X153607500Y-90590000D02*
X150187500Y-90590000D01*
X150187500Y-103090000D02*
X150187500Y-102770000D01*
X153687500Y-92770000D02*
X153607500Y-93090000D01*
X153687500Y-102770000D02*
X153607500Y-103090000D01*
X150187500Y-97770000D02*
X150187500Y-97450000D01*
X155407500Y-87660000D02*
X155407500Y-105380000D01*
X153687500Y-95270000D02*
X153607500Y-95590000D01*
X146987500Y-87660000D02*
X155407500Y-87660000D01*
X153607500Y-102450000D02*
X153687500Y-102770000D01*
X153607500Y-94950000D02*
X153687500Y-95270000D01*
X149187500Y-98940000D02*
X149187500Y-99100000D01*
X154187500Y-87660000D02*
X154187500Y-88880000D01*
X150187500Y-102770000D02*
X150187500Y-102450000D01*
X153607500Y-95590000D02*
X150187500Y-95590000D01*
X149187500Y-104160000D02*
X149187500Y-105380000D01*
X153607500Y-103090000D02*
X150187500Y-103090000D01*
X150187500Y-100270000D02*
X150187500Y-99950000D01*
X150187500Y-92450000D02*
X153607500Y-92450000D01*
X155407500Y-105380000D02*
X146987500Y-105380000D01*
X154187500Y-88880000D02*
X149187500Y-88880000D01*
X146497500Y-89970000D02*
X146497500Y-90570000D01*
X153687500Y-97770000D02*
X153607500Y-98090000D01*
X154187500Y-105380000D02*
X154187500Y-104160000D01*
X146987500Y-105380000D02*
X146987500Y-104160000D01*
X150187500Y-95270000D02*
X150187500Y-94950000D01*
X150187500Y-90270000D02*
X150187500Y-89950000D01*
X154187500Y-104160000D02*
X149187500Y-104160000D01*
X153607500Y-89950000D02*
X153687500Y-90270000D01*
X150187500Y-100590000D02*
X150187500Y-100270000D01*
X153607500Y-93090000D02*
X150187500Y-93090000D01*
X153687500Y-90270000D02*
X153607500Y-90590000D01*
X150187500Y-99950000D02*
X153607500Y-99950000D01*
%TO.C,J1*%
X113782500Y-86360000D02*
X118782500Y-86360000D01*
X114362500Y-98070000D02*
X114282500Y-97750000D01*
X114282500Y-102750000D02*
X114362500Y-102430000D01*
X120872500Y-102750000D02*
X121472500Y-103050000D01*
X114362500Y-87430000D02*
X117782500Y-87430000D01*
X112562500Y-105360000D02*
X112562500Y-85140000D01*
X117782500Y-104140000D02*
X117782500Y-86360000D01*
X120982500Y-85140000D02*
X120982500Y-86360000D01*
X117782500Y-100570000D02*
X114362500Y-100570000D01*
X120982500Y-86360000D02*
X118782500Y-86360000D01*
X114362500Y-89930000D02*
X117782500Y-89930000D01*
X114362500Y-102430000D02*
X117782500Y-102430000D01*
X117782500Y-89930000D02*
X117782500Y-90250000D01*
X117782500Y-102430000D02*
X117782500Y-102750000D01*
X114362500Y-94930000D02*
X117782500Y-94930000D01*
X117782500Y-88070000D02*
X114362500Y-88070000D01*
X117782500Y-90250000D02*
X117782500Y-90570000D01*
X117782500Y-97430000D02*
X117782500Y-97750000D01*
X114362500Y-97430000D02*
X117782500Y-97430000D01*
X114362500Y-95570000D02*
X114282500Y-95250000D01*
X117782500Y-97750000D02*
X117782500Y-98070000D01*
X121472500Y-102450000D02*
X120872500Y-102750000D01*
X117782500Y-94930000D02*
X117782500Y-95250000D01*
X117782500Y-102750000D02*
X117782500Y-103070000D01*
X118782500Y-89080000D02*
X118782500Y-88920000D01*
X117782500Y-87750000D02*
X117782500Y-88070000D01*
X117782500Y-93070000D02*
X114362500Y-93070000D01*
X118782500Y-86360000D02*
X118782500Y-85140000D01*
X113782500Y-85140000D02*
X113782500Y-86360000D01*
X114282500Y-87750000D02*
X114362500Y-87430000D01*
X117782500Y-95250000D02*
X117782500Y-95570000D01*
X114282500Y-92750000D02*
X114362500Y-92430000D01*
X118782500Y-94080000D02*
X118782500Y-93920000D01*
X117782500Y-87430000D02*
X117782500Y-87750000D01*
X114282500Y-95250000D02*
X114362500Y-94930000D01*
X118782500Y-99080000D02*
X118782500Y-98920000D01*
X118782500Y-91580000D02*
X118782500Y-91420000D01*
X117782500Y-98070000D02*
X114362500Y-98070000D01*
X117782500Y-92750000D02*
X117782500Y-93070000D01*
X113782500Y-104140000D02*
X118782500Y-104140000D01*
X114362500Y-90570000D02*
X114282500Y-90250000D01*
X114282500Y-100250000D02*
X114362500Y-99930000D01*
X114282500Y-90250000D02*
X114362500Y-89930000D01*
X117782500Y-95570000D02*
X114362500Y-95570000D01*
X117782500Y-99930000D02*
X117782500Y-100250000D01*
X114362500Y-103070000D02*
X114282500Y-102750000D01*
X112562500Y-85140000D02*
X120982500Y-85140000D01*
X120982500Y-105360000D02*
X112562500Y-105360000D01*
X117782500Y-103070000D02*
X114362500Y-103070000D01*
X118782500Y-104140000D02*
X120982500Y-104140000D01*
X118782500Y-96580000D02*
X118782500Y-96420000D01*
X113782500Y-105360000D02*
X113782500Y-104140000D01*
X114362500Y-100570000D02*
X114282500Y-100250000D01*
X118782500Y-104140000D02*
X118782500Y-105360000D01*
X117782500Y-100250000D02*
X117782500Y-100570000D01*
X114362500Y-99930000D02*
X117782500Y-99930000D01*
X114282500Y-97750000D02*
X114362500Y-97430000D01*
X114362500Y-93070000D02*
X114282500Y-92750000D01*
X114362500Y-88070000D02*
X114282500Y-87750000D01*
X117782500Y-90570000D02*
X114362500Y-90570000D01*
X118782500Y-101580000D02*
X118782500Y-101420000D01*
X114362500Y-92430000D02*
X117782500Y-92430000D01*
X121472500Y-103050000D02*
X121472500Y-102450000D01*
X120982500Y-104140000D02*
X120982500Y-105360000D01*
X117782500Y-92430000D02*
X117782500Y-92750000D01*
%TD*%
M02*
