%TF.GenerationSoftware,KiCad,Pcbnew,(6.0.6)*%
%TF.CreationDate,2022-12-02T11:51:27+05:30*%
%TF.ProjectId,exp3,65787033-2e6b-4696-9361-645f70636258,rev?*%
%TF.SameCoordinates,Original*%
%TF.FileFunction,Soldermask,Top*%
%TF.FilePolarity,Negative*%
%FSLAX46Y46*%
G04 Gerber Fmt 4.6, Leading zero omitted, Abs format (unit mm)*
G04 Created by KiCad (PCBNEW (6.0.6)) date 2022-12-02 11:51:27*
%MOMM*%
%LPD*%
G01*
G04 APERTURE LIST*
G04 Aperture macros list*
%AMRoundRect*
0 Rectangle with rounded corners*
0 $1 Rounding radius*
0 $2 $3 $4 $5 $6 $7 $8 $9 X,Y pos of 4 corners*
0 Add a 4 corners polygon primitive as box body*
4,1,4,$2,$3,$4,$5,$6,$7,$8,$9,$2,$3,0*
0 Add four circle primitives for the rounded corners*
1,1,$1+$1,$2,$3*
1,1,$1+$1,$4,$5*
1,1,$1+$1,$6,$7*
1,1,$1+$1,$8,$9*
0 Add four rect primitives between the rounded corners*
20,1,$1+$1,$2,$3,$4,$5,0*
20,1,$1+$1,$4,$5,$6,$7,0*
20,1,$1+$1,$6,$7,$8,$9,0*
20,1,$1+$1,$8,$9,$2,$3,0*%
G04 Aperture macros list end*
%ADD10RoundRect,0.250000X0.725000X-0.600000X0.725000X0.600000X-0.725000X0.600000X-0.725000X-0.600000X0*%
%ADD11O,1.950000X1.700000*%
%ADD12C,2.500000*%
%ADD13RoundRect,0.250000X-0.725000X0.600000X-0.725000X-0.600000X0.725000X-0.600000X0.725000X0.600000X0*%
%ADD14R,1.600000X1.600000*%
%ADD15O,1.600000X1.600000*%
G04 APERTURE END LIST*
D10*
%TO.C,J1*%
X116832500Y-102750000D03*
D11*
X116832500Y-100250000D03*
X116832500Y-97750000D03*
X116832500Y-95250000D03*
X116832500Y-92750000D03*
X116832500Y-90250000D03*
X116832500Y-87750000D03*
%TD*%
D12*
%TO.C,H4*%
X153035000Y-109855000D03*
%TD*%
D13*
%TO.C,J2*%
X148597500Y-90270000D03*
D11*
X148597500Y-92770000D03*
X148597500Y-95270000D03*
X148597500Y-97770000D03*
X148597500Y-100270000D03*
X148597500Y-102770000D03*
%TD*%
D12*
%TO.C,H1*%
X112395000Y-109855000D03*
%TD*%
%TO.C,H2*%
X153035000Y-80645000D03*
%TD*%
D14*
%TO.C,U1*%
X135900000Y-88900000D03*
D15*
X135900000Y-91440000D03*
X135900000Y-93980000D03*
X135900000Y-96520000D03*
X135900000Y-99060000D03*
X135900000Y-101600000D03*
X135900000Y-104140000D03*
X143520000Y-104140000D03*
X143520000Y-101600000D03*
X143520000Y-99060000D03*
X143520000Y-96520000D03*
X143520000Y-93980000D03*
X143520000Y-91440000D03*
X143520000Y-88900000D03*
%TD*%
D12*
%TO.C,H3*%
X112395000Y-80645000D03*
%TD*%
D14*
%TO.C,U2*%
X121930000Y-86350000D03*
D15*
X121930000Y-88890000D03*
X121930000Y-91430000D03*
X121930000Y-93970000D03*
X121930000Y-96510000D03*
X121930000Y-99050000D03*
X121930000Y-101590000D03*
X121930000Y-104130000D03*
X129550000Y-104130000D03*
X129550000Y-101590000D03*
X129550000Y-99050000D03*
X129550000Y-96510000D03*
X129550000Y-93970000D03*
X129550000Y-91430000D03*
X129550000Y-88890000D03*
X129550000Y-86350000D03*
%TD*%
M02*
