M48
; DRILL file {KiCad (6.0.6)} date Tue Oct 11 00:14:47 2022
; FORMAT={-:-/ absolute / inch / decimal}
; #@! TF.CreationDate,2022-10-11T00:14:47+05:30
; #@! TF.GenerationSoftware,Kicad,Pcbnew,(6.0.6)
; #@! TF.FileFunction,Plated,1,2,PTH
FMAT,2
INCH
; #@! TA.AperFunction,Plated,PTH,ComponentDrill
T1C0.0315
; #@! TA.AperFunction,Plated,PTH,ComponentDrill
T2C0.0374
%
G90
G05
T1
X4.9004Y-3.4498
X4.9004Y-3.5498
X4.9004Y-3.6498
X4.9004Y-3.7498
X4.9004Y-3.8498
X4.9004Y-3.9498
X4.9004Y-4.0498
X5.2004Y-3.4498
X5.2004Y-3.5498
X5.2004Y-3.6498
X5.2004Y-3.7498
X5.2004Y-3.8498
X5.2004Y-3.9498
X5.2004Y-4.0498
X5.35Y-3.4
X5.35Y-3.5
X5.35Y-3.6
X5.35Y-3.7
X5.35Y-3.8
X5.35Y-3.9
X5.35Y-4.0
X5.35Y-4.1
X5.65Y-3.4
X5.65Y-3.5
X5.65Y-3.6
X5.65Y-3.7
X5.65Y-3.8
X5.65Y-3.9
X5.65Y-4.0
X5.65Y-4.1
T2
X4.6997Y-3.4547
X4.6997Y-3.5531
X4.6997Y-3.6516
X4.6997Y-3.75
X4.6997Y-3.8484
X4.6997Y-3.9469
X4.6997Y-4.0453
X5.8503Y-3.5539
X5.8503Y-3.6524
X5.8503Y-3.7508
X5.8503Y-3.8492
X5.8503Y-3.9476
X5.8503Y-4.0461
T0
M30
