%TF.GenerationSoftware,KiCad,Pcbnew,(6.0.6)*%
%TF.CreationDate,2022-10-11T00:14:44+05:30*%
%TF.ProjectId,exp3,65787033-2e6b-4696-9361-645f70636258,rev?*%
%TF.SameCoordinates,Original*%
%TF.FileFunction,Soldermask,Bot*%
%TF.FilePolarity,Negative*%
%FSLAX46Y46*%
G04 Gerber Fmt 4.6, Leading zero omitted, Abs format (unit mm)*
G04 Created by KiCad (PCBNEW (6.0.6)) date 2022-10-11 00:14:44*
%MOMM*%
%LPD*%
G01*
G04 APERTURE LIST*
G04 Aperture macros list*
%AMRoundRect*
0 Rectangle with rounded corners*
0 $1 Rounding radius*
0 $2 $3 $4 $5 $6 $7 $8 $9 X,Y pos of 4 corners*
0 Add a 4 corners polygon primitive as box body*
4,1,4,$2,$3,$4,$5,$6,$7,$8,$9,$2,$3,0*
0 Add four circle primitives for the rounded corners*
1,1,$1+$1,$2,$3*
1,1,$1+$1,$4,$5*
1,1,$1+$1,$6,$7*
1,1,$1+$1,$8,$9*
0 Add four rect primitives between the rounded corners*
20,1,$1+$1,$2,$3,$4,$5,0*
20,1,$1+$1,$4,$5,$6,$7,0*
20,1,$1+$1,$6,$7,$8,$9,0*
20,1,$1+$1,$8,$9,$2,$3,0*%
G04 Aperture macros list end*
%ADD10O,1.600000X1.600000*%
%ADD11R,1.600000X1.600000*%
%ADD12O,1.950000X1.700000*%
%ADD13RoundRect,0.250000X-0.725000X0.600000X-0.725000X-0.600000X0.725000X-0.600000X0.725000X0.600000X0*%
%ADD14RoundRect,0.250000X0.725000X-0.600000X0.725000X0.600000X-0.725000X0.600000X-0.725000X-0.600000X0*%
%ADD15C,2.500000*%
G04 APERTURE END LIST*
D10*
%TO.C,U2*%
X143510000Y-86360000D03*
X143510000Y-88900000D03*
X143510000Y-91440000D03*
X143510000Y-93980000D03*
X143510000Y-96520000D03*
X143510000Y-99060000D03*
X143510000Y-101600000D03*
X143510000Y-104140000D03*
X135890000Y-104140000D03*
X135890000Y-101600000D03*
X135890000Y-99060000D03*
X135890000Y-96520000D03*
X135890000Y-93980000D03*
X135890000Y-91440000D03*
X135890000Y-88900000D03*
D11*
X135890000Y-86360000D03*
%TD*%
%TO.C,U1*%
X124470000Y-87625000D03*
D10*
X124470000Y-90165000D03*
X124470000Y-92705000D03*
X124470000Y-95245000D03*
X124470000Y-97785000D03*
X124470000Y-100325000D03*
X124470000Y-102865000D03*
X132090000Y-102865000D03*
X132090000Y-100325000D03*
X132090000Y-97785000D03*
X132090000Y-95245000D03*
X132090000Y-92705000D03*
X132090000Y-90165000D03*
X132090000Y-87625000D03*
%TD*%
D12*
%TO.C,J2*%
X148597500Y-102770000D03*
X148597500Y-100270000D03*
X148597500Y-97770000D03*
X148597500Y-95270000D03*
X148597500Y-92770000D03*
D13*
X148597500Y-90270000D03*
%TD*%
D12*
%TO.C,J1*%
X119372500Y-87750000D03*
X119372500Y-90250000D03*
X119372500Y-92750000D03*
X119372500Y-95250000D03*
X119372500Y-97750000D03*
X119372500Y-100250000D03*
D14*
X119372500Y-102750000D03*
%TD*%
D15*
%TO.C,H4*%
X154940000Y-109220000D03*
%TD*%
%TO.C,H1*%
X110490000Y-109220000D03*
%TD*%
%TO.C,H2*%
X154940000Y-81280000D03*
%TD*%
%TO.C,H3*%
X110490000Y-81280000D03*
%TD*%
M02*
