%TF.GenerationSoftware,KiCad,Pcbnew,(6.0.6)*%
%TF.CreationDate,2022-11-10T14:52:31+05:30*%
%TF.ProjectId,exp3,65787033-2e6b-4696-9361-645f70636258,rev?*%
%TF.SameCoordinates,Original*%
%TF.FileFunction,Copper,L2,Bot*%
%TF.FilePolarity,Positive*%
%FSLAX46Y46*%
G04 Gerber Fmt 4.6, Leading zero omitted, Abs format (unit mm)*
G04 Created by KiCad (PCBNEW (6.0.6)) date 2022-11-10 14:52:31*
%MOMM*%
%LPD*%
G01*
G04 APERTURE LIST*
G04 Aperture macros list*
%AMRoundRect*
0 Rectangle with rounded corners*
0 $1 Rounding radius*
0 $2 $3 $4 $5 $6 $7 $8 $9 X,Y pos of 4 corners*
0 Add a 4 corners polygon primitive as box body*
4,1,4,$2,$3,$4,$5,$6,$7,$8,$9,$2,$3,0*
0 Add four circle primitives for the rounded corners*
1,1,$1+$1,$2,$3*
1,1,$1+$1,$4,$5*
1,1,$1+$1,$6,$7*
1,1,$1+$1,$8,$9*
0 Add four rect primitives between the rounded corners*
20,1,$1+$1,$2,$3,$4,$5,0*
20,1,$1+$1,$4,$5,$6,$7,0*
20,1,$1+$1,$6,$7,$8,$9,0*
20,1,$1+$1,$8,$9,$2,$3,0*%
G04 Aperture macros list end*
%ADD10C,0.250000*%
%TA.AperFunction,NonConductor*%
%ADD11C,0.250000*%
%TD*%
%ADD12C,0.300000*%
%TA.AperFunction,NonConductor*%
%ADD13C,0.300000*%
%TD*%
%TA.AperFunction,ComponentPad*%
%ADD14RoundRect,0.250000X0.725000X-0.600000X0.725000X0.600000X-0.725000X0.600000X-0.725000X-0.600000X0*%
%TD*%
%TA.AperFunction,ComponentPad*%
%ADD15O,1.950000X1.700000*%
%TD*%
%TA.AperFunction,ComponentPad*%
%ADD16RoundRect,0.250000X-0.725000X0.600000X-0.725000X-0.600000X0.725000X-0.600000X0.725000X0.600000X0*%
%TD*%
%TA.AperFunction,ComponentPad*%
%ADD17O,1.600000X1.600000*%
%TD*%
%TA.AperFunction,ComponentPad*%
%ADD18R,1.600000X1.600000*%
%TD*%
%TA.AperFunction,Conductor*%
%ADD19C,0.250000*%
%TD*%
G04 APERTURE END LIST*
D10*
D11*
X154282857Y-89377142D02*
X155140000Y-89377142D01*
X155311428Y-89320000D01*
X155425714Y-89205714D01*
X155482857Y-89034285D01*
X155482857Y-88920000D01*
X155425714Y-89891428D02*
X155482857Y-90062857D01*
X155482857Y-90348571D01*
X155425714Y-90462857D01*
X155368571Y-90520000D01*
X155254285Y-90577142D01*
X155140000Y-90577142D01*
X155025714Y-90520000D01*
X154968571Y-90462857D01*
X154911428Y-90348571D01*
X154854285Y-90120000D01*
X154797142Y-90005714D01*
X154740000Y-89948571D01*
X154625714Y-89891428D01*
X154511428Y-89891428D01*
X154397142Y-89948571D01*
X154340000Y-90005714D01*
X154282857Y-90120000D01*
X154282857Y-90405714D01*
X154340000Y-90577142D01*
X154282857Y-90920000D02*
X154282857Y-91605714D01*
X155482857Y-91262857D02*
X154282857Y-91262857D01*
X154282857Y-93434285D02*
X154282857Y-93205714D01*
X154340000Y-93091428D01*
X154397142Y-93034285D01*
X154568571Y-92920000D01*
X154797142Y-92862857D01*
X155254285Y-92862857D01*
X155368571Y-92920000D01*
X155425714Y-92977142D01*
X155482857Y-93091428D01*
X155482857Y-93320000D01*
X155425714Y-93434285D01*
X155368571Y-93491428D01*
X155254285Y-93548571D01*
X154968571Y-93548571D01*
X154854285Y-93491428D01*
X154797142Y-93434285D01*
X154740000Y-93320000D01*
X154740000Y-93091428D01*
X154797142Y-92977142D01*
X154854285Y-92920000D01*
X154968571Y-92862857D01*
X155482857Y-94062857D02*
X154282857Y-94062857D01*
X154282857Y-94520000D01*
X154340000Y-94634285D01*
X154397142Y-94691428D01*
X154511428Y-94748571D01*
X154682857Y-94748571D01*
X154797142Y-94691428D01*
X154854285Y-94634285D01*
X154911428Y-94520000D01*
X154911428Y-94062857D01*
X155482857Y-95262857D02*
X154282857Y-95262857D01*
X155482857Y-95834285D02*
X154282857Y-95834285D01*
X155482857Y-96520000D01*
X154282857Y-96520000D01*
X154854285Y-98405714D02*
X154854285Y-98005714D01*
X155482857Y-98005714D02*
X154282857Y-98005714D01*
X154282857Y-98577142D01*
X154854285Y-99034285D02*
X154854285Y-99434285D01*
X155482857Y-99605714D02*
X155482857Y-99034285D01*
X154282857Y-99034285D01*
X154282857Y-99605714D01*
X155482857Y-100120000D02*
X154282857Y-100120000D01*
X155140000Y-100520000D01*
X154282857Y-100920000D01*
X155482857Y-100920000D01*
X155140000Y-101434285D02*
X155140000Y-102005714D01*
X155482857Y-101320000D02*
X154282857Y-101720000D01*
X155482857Y-102120000D01*
X155482857Y-103091428D02*
X155482857Y-102520000D01*
X154282857Y-102520000D01*
X154854285Y-103491428D02*
X154854285Y-103891428D01*
X155482857Y-104062857D02*
X155482857Y-103491428D01*
X154282857Y-103491428D01*
X154282857Y-104062857D01*
D10*
D11*
X110788571Y-86350000D02*
X111860000Y-86350000D01*
X112074285Y-86278571D01*
X112217142Y-86135714D01*
X112288571Y-85921428D01*
X112288571Y-85778571D01*
X112217142Y-86992857D02*
X112288571Y-87207142D01*
X112288571Y-87564285D01*
X112217142Y-87707142D01*
X112145714Y-87778571D01*
X112002857Y-87850000D01*
X111860000Y-87850000D01*
X111717142Y-87778571D01*
X111645714Y-87707142D01*
X111574285Y-87564285D01*
X111502857Y-87278571D01*
X111431428Y-87135714D01*
X111360000Y-87064285D01*
X111217142Y-86992857D01*
X111074285Y-86992857D01*
X110931428Y-87064285D01*
X110860000Y-87135714D01*
X110788571Y-87278571D01*
X110788571Y-87635714D01*
X110860000Y-87850000D01*
X110788571Y-88278571D02*
X110788571Y-89135714D01*
X112288571Y-88707142D02*
X110788571Y-88707142D01*
X110788571Y-90635714D02*
X110788571Y-91635714D01*
X112288571Y-90992857D01*
X112288571Y-92207142D02*
X110788571Y-92207142D01*
X110788571Y-92778571D01*
X110860000Y-92921428D01*
X110931428Y-92992857D01*
X111074285Y-93064285D01*
X111288571Y-93064285D01*
X111431428Y-92992857D01*
X111502857Y-92921428D01*
X111574285Y-92778571D01*
X111574285Y-92207142D01*
X112288571Y-93707142D02*
X110788571Y-93707142D01*
X112288571Y-94421428D02*
X110788571Y-94421428D01*
X112288571Y-95278571D01*
X110788571Y-95278571D01*
X111502857Y-97635714D02*
X111502857Y-97135714D01*
X112288571Y-97135714D02*
X110788571Y-97135714D01*
X110788571Y-97850000D01*
X111502857Y-98421428D02*
X111502857Y-98921428D01*
X112288571Y-99135714D02*
X112288571Y-98421428D01*
X110788571Y-98421428D01*
X110788571Y-99135714D01*
X112288571Y-99778571D02*
X110788571Y-99778571D01*
X111860000Y-100278571D01*
X110788571Y-100778571D01*
X112288571Y-100778571D01*
X111860000Y-101421428D02*
X111860000Y-102135714D01*
X112288571Y-101278571D02*
X110788571Y-101778571D01*
X112288571Y-102278571D01*
X112288571Y-103492857D02*
X112288571Y-102778571D01*
X110788571Y-102778571D01*
X111502857Y-103992857D02*
X111502857Y-104492857D01*
X112288571Y-104707142D02*
X112288571Y-103992857D01*
X110788571Y-103992857D01*
X110788571Y-104707142D01*
D12*
D13*
X138987142Y-80525714D02*
X137987142Y-80525714D01*
X137558571Y-82097142D02*
X138987142Y-82097142D01*
X138987142Y-79097142D01*
X137558571Y-79097142D01*
X136558571Y-79097142D02*
X134558571Y-82097142D01*
X134558571Y-79097142D02*
X136558571Y-82097142D01*
X133415714Y-82097142D02*
X133415714Y-79097142D01*
X132272857Y-79097142D01*
X131987142Y-79240000D01*
X131844285Y-79382857D01*
X131701428Y-79668571D01*
X131701428Y-80097142D01*
X131844285Y-80382857D01*
X131987142Y-80525714D01*
X132272857Y-80668571D01*
X133415714Y-80668571D01*
X130415714Y-80954285D02*
X128130000Y-80954285D01*
X126987142Y-79097142D02*
X125130000Y-79097142D01*
X126130000Y-80240000D01*
X125701428Y-80240000D01*
X125415714Y-80382857D01*
X125272857Y-80525714D01*
X125130000Y-80811428D01*
X125130000Y-81525714D01*
X125272857Y-81811428D01*
X125415714Y-81954285D01*
X125701428Y-82097142D01*
X126558571Y-82097142D01*
X126844285Y-81954285D01*
X126987142Y-81811428D01*
D10*
D11*
X134070476Y-111682380D02*
X134070476Y-110682380D01*
X133689523Y-110682380D01*
X133594285Y-110730000D01*
X133546666Y-110777619D01*
X133499047Y-110872857D01*
X133499047Y-111015714D01*
X133546666Y-111110952D01*
X133594285Y-111158571D01*
X133689523Y-111206190D01*
X134070476Y-111206190D01*
X133213333Y-110682380D02*
X132880000Y-111682380D01*
X132546666Y-110682380D01*
D10*
%TO.C,U1*%
D11*
X138092380Y-98404285D02*
X138092380Y-99070952D01*
X139092380Y-98642380D01*
X138425714Y-99880476D02*
X139092380Y-99880476D01*
X138044761Y-99642380D02*
X138759047Y-99404285D01*
X138759047Y-100023333D01*
X139092380Y-100404285D02*
X138092380Y-100404285D01*
X138568571Y-100404285D02*
X138568571Y-100975714D01*
X139092380Y-100975714D02*
X138092380Y-100975714D01*
X138997142Y-102023333D02*
X139044761Y-101975714D01*
X139092380Y-101832857D01*
X139092380Y-101737619D01*
X139044761Y-101594761D01*
X138949523Y-101499523D01*
X138854285Y-101451904D01*
X138663809Y-101404285D01*
X138520952Y-101404285D01*
X138330476Y-101451904D01*
X138235238Y-101499523D01*
X138140000Y-101594761D01*
X138092380Y-101737619D01*
X138092380Y-101832857D01*
X138140000Y-101975714D01*
X138187619Y-102023333D01*
X138520952Y-102594761D02*
X138473333Y-102499523D01*
X138425714Y-102451904D01*
X138330476Y-102404285D01*
X138282857Y-102404285D01*
X138187619Y-102451904D01*
X138140000Y-102499523D01*
X138092380Y-102594761D01*
X138092380Y-102785238D01*
X138140000Y-102880476D01*
X138187619Y-102928095D01*
X138282857Y-102975714D01*
X138330476Y-102975714D01*
X138425714Y-102928095D01*
X138473333Y-102880476D01*
X138520952Y-102785238D01*
X138520952Y-102594761D01*
X138568571Y-102499523D01*
X138616190Y-102451904D01*
X138711428Y-102404285D01*
X138901904Y-102404285D01*
X138997142Y-102451904D01*
X139044761Y-102499523D01*
X139092380Y-102594761D01*
X139092380Y-102785238D01*
X139044761Y-102880476D01*
X138997142Y-102928095D01*
X138901904Y-102975714D01*
X138711428Y-102975714D01*
X138616190Y-102928095D01*
X138568571Y-102880476D01*
X138520952Y-102785238D01*
X138092380Y-103832857D02*
X138092380Y-103642380D01*
X138140000Y-103547142D01*
X138187619Y-103499523D01*
X138330476Y-103404285D01*
X138520952Y-103356666D01*
X138901904Y-103356666D01*
X138997142Y-103404285D01*
X139044761Y-103451904D01*
X139092380Y-103547142D01*
X139092380Y-103737619D01*
X139044761Y-103832857D01*
X138997142Y-103880476D01*
X138901904Y-103928095D01*
X138663809Y-103928095D01*
X138568571Y-103880476D01*
X138520952Y-103832857D01*
X138473333Y-103737619D01*
X138473333Y-103547142D01*
X138520952Y-103451904D01*
X138568571Y-103404285D01*
X138663809Y-103356666D01*
D10*
%TO.C,U2*%
D11*
X128362857Y-106248571D02*
X127362857Y-106248571D01*
X128005714Y-107748571D01*
X126148571Y-106748571D02*
X126148571Y-107748571D01*
X126505714Y-106177142D02*
X126862857Y-107248571D01*
X125934285Y-107248571D01*
X125148571Y-106891428D02*
X125291428Y-106820000D01*
X125362857Y-106748571D01*
X125434285Y-106605714D01*
X125434285Y-106534285D01*
X125362857Y-106391428D01*
X125291428Y-106320000D01*
X125148571Y-106248571D01*
X124862857Y-106248571D01*
X124720000Y-106320000D01*
X124648571Y-106391428D01*
X124577142Y-106534285D01*
X124577142Y-106605714D01*
X124648571Y-106748571D01*
X124720000Y-106820000D01*
X124862857Y-106891428D01*
X125148571Y-106891428D01*
X125291428Y-106962857D01*
X125362857Y-107034285D01*
X125434285Y-107177142D01*
X125434285Y-107462857D01*
X125362857Y-107605714D01*
X125291428Y-107677142D01*
X125148571Y-107748571D01*
X124862857Y-107748571D01*
X124720000Y-107677142D01*
X124648571Y-107605714D01*
X124577142Y-107462857D01*
X124577142Y-107177142D01*
X124648571Y-107034285D01*
X124720000Y-106962857D01*
X124862857Y-106891428D01*
X124077142Y-106248571D02*
X123148571Y-106248571D01*
X123648571Y-106820000D01*
X123434285Y-106820000D01*
X123291428Y-106891428D01*
X123220000Y-106962857D01*
X123148571Y-107105714D01*
X123148571Y-107462857D01*
X123220000Y-107605714D01*
X123291428Y-107677142D01*
X123434285Y-107748571D01*
X123862857Y-107748571D01*
X124005714Y-107677142D01*
X124077142Y-107605714D01*
%TD*%
D14*
%TO.P,J1,1,Pin_1*%
%TO.N,A1*%
X116832500Y-102750000D03*
D15*
%TO.P,J1,2,Pin_2*%
%TO.N,A0*%
X116832500Y-100250000D03*
%TO.P,J1,3,Pin_3*%
%TO.N,VCC*%
X116832500Y-97750000D03*
%TO.P,J1,4,Pin_4*%
%TO.N,GND*%
X116832500Y-95250000D03*
%TO.P,J1,5,Pin_5*%
%TO.N,Cin*%
X116832500Y-92750000D03*
%TO.P,J1,6,Pin_6*%
%TO.N,A2*%
X116832500Y-90250000D03*
%TO.P,J1,7,Pin_7*%
%TO.N,A3*%
X116832500Y-87750000D03*
%TD*%
%TO.P,J2,6,Pin_6*%
%TO.N,GND*%
X148597500Y-102770000D03*
%TO.P,J2,5,Pin_5*%
%TO.N,S0*%
X148597500Y-100270000D03*
%TO.P,J2,4,Pin_4*%
%TO.N,S1*%
X148597500Y-97770000D03*
%TO.P,J2,3,Pin_3*%
%TO.N,CO*%
X148597500Y-95270000D03*
%TO.P,J2,2,Pin_2*%
%TO.N,S2*%
X148597500Y-92770000D03*
D16*
%TO.P,J2,1,Pin_1*%
%TO.N,S3*%
X148597500Y-90270000D03*
%TD*%
D17*
%TO.P,U1,14,VCC*%
%TO.N,VCC*%
X143520000Y-88900000D03*
%TO.P,U1,13*%
X143520000Y-91440000D03*
%TO.P,U1,12*%
%TO.N,Cin*%
X143520000Y-93980000D03*
%TO.P,U1,11*%
%TO.N,Net-(U1-Pad11)*%
X143520000Y-96520000D03*
%TO.P,U1,10*%
%TO.N,VCC*%
X143520000Y-99060000D03*
%TO.P,U1,9*%
%TO.N,Cin*%
X143520000Y-101600000D03*
%TO.P,U1,8*%
%TO.N,Net-(U1-Pad8)*%
X143520000Y-104140000D03*
%TO.P,U1,7,GND*%
%TO.N,GND*%
X135900000Y-104140000D03*
%TO.P,U1,6*%
%TO.N,Net-(U1-Pad6)*%
X135900000Y-101600000D03*
%TO.P,U1,5*%
%TO.N,Cin*%
X135900000Y-99060000D03*
%TO.P,U1,4*%
%TO.N,GND*%
X135900000Y-96520000D03*
%TO.P,U1,3*%
%TO.N,Net-(U1-Pad3)*%
X135900000Y-93980000D03*
%TO.P,U1,2*%
%TO.N,GND*%
X135900000Y-91440000D03*
D18*
%TO.P,U1,1*%
%TO.N,Cin*%
X135900000Y-88900000D03*
%TD*%
%TO.P,U2,1,A4*%
%TO.N,A3*%
X121930000Y-86350000D03*
D17*
%TO.P,U2,2,S3*%
%TO.N,S2*%
X121930000Y-88890000D03*
%TO.P,U2,3,A3*%
%TO.N,A2*%
X121930000Y-91430000D03*
%TO.P,U2,4,B3*%
%TO.N,Net-(U1-Pad6)*%
X121930000Y-93970000D03*
%TO.P,U2,5,VCC*%
%TO.N,VCC*%
X121930000Y-96510000D03*
%TO.P,U2,6,S2*%
%TO.N,S1*%
X121930000Y-99050000D03*
%TO.P,U2,7,B2*%
%TO.N,Net-(U1-Pad8)*%
X121930000Y-101590000D03*
%TO.P,U2,8,A2*%
%TO.N,A1*%
X121930000Y-104130000D03*
%TO.P,U2,9,S1*%
%TO.N,S0*%
X129550000Y-104130000D03*
%TO.P,U2,10,A1*%
%TO.N,A0*%
X129550000Y-101590000D03*
%TO.P,U2,11,B1*%
%TO.N,Net-(U1-Pad11)*%
X129550000Y-99050000D03*
%TO.P,U2,12,GND*%
%TO.N,GND*%
X129550000Y-96510000D03*
%TO.P,U2,13,C0*%
%TO.N,Cin*%
X129550000Y-93970000D03*
%TO.P,U2,14,C4*%
%TO.N,CO*%
X129550000Y-91430000D03*
%TO.P,U2,15,S4*%
%TO.N,S3*%
X129550000Y-88890000D03*
%TO.P,U2,16,B4*%
%TO.N,Net-(U1-Pad3)*%
X129550000Y-86350000D03*
%TD*%
D19*
%TO.N,S1*%
X145780000Y-100587500D02*
X148597500Y-97770000D01*
X145780000Y-101300000D02*
X145780000Y-100587500D01*
X144190000Y-102890000D02*
X145780000Y-101300000D01*
X142750000Y-102890000D02*
X144190000Y-102890000D01*
X135500000Y-107270000D02*
X138370000Y-107270000D01*
X132540000Y-104310000D02*
X135500000Y-107270000D01*
X132540000Y-102676396D02*
X132540000Y-104310000D01*
X130163604Y-100300000D02*
X132540000Y-102676396D01*
X138370000Y-107270000D02*
X142750000Y-102890000D01*
X125770000Y-99050000D02*
X127020000Y-100300000D01*
X121930000Y-99050000D02*
X125770000Y-99050000D01*
X127020000Y-100300000D02*
X130163604Y-100300000D01*
%TO.N,GND*%
X150680000Y-100687500D02*
X148597500Y-102770000D01*
X150680000Y-97510000D02*
X150680000Y-100687500D01*
X146750000Y-95340000D02*
X147930000Y-96520000D01*
X145020000Y-86600000D02*
X146750000Y-88330000D01*
X142470000Y-86600000D02*
X145020000Y-86600000D01*
X146750000Y-88330000D02*
X146750000Y-95340000D01*
X141120000Y-87950000D02*
X142470000Y-86600000D01*
X141120000Y-91300000D02*
X141120000Y-87950000D01*
X149690000Y-96520000D02*
X150680000Y-97510000D01*
X135900000Y-96520000D02*
X141120000Y-91300000D01*
X147930000Y-96520000D02*
X149690000Y-96520000D01*
X148597500Y-105056000D02*
X148597500Y-102770000D01*
X144993500Y-108660000D02*
X148597500Y-105056000D01*
%TO.N,S0*%
X148040000Y-100270000D02*
X148597500Y-100270000D01*
X146620000Y-101690000D02*
X148040000Y-100270000D01*
X143230000Y-108170000D02*
X146620000Y-104780000D01*
X146620000Y-104780000D02*
X146620000Y-101690000D01*
X133590000Y-108170000D02*
X143230000Y-108170000D01*
X129550000Y-104130000D02*
X133590000Y-108170000D01*
%TO.N,GND*%
X115070000Y-97012500D02*
X116832500Y-95250000D01*
X115070000Y-103980000D02*
X115070000Y-97012500D01*
X119750000Y-108660000D02*
X115070000Y-103980000D01*
X144993500Y-108660000D02*
X119750000Y-108660000D01*
%TO.N,CO*%
X151137500Y-92730000D02*
X148597500Y-95270000D01*
X151137500Y-86917500D02*
X151137500Y-92730000D01*
X148520000Y-84300000D02*
X151137500Y-86917500D01*
X120260000Y-88150000D02*
X120770000Y-87640000D01*
X120260000Y-89617200D02*
X120260000Y-88150000D01*
X126600000Y-84300000D02*
X148520000Y-84300000D01*
X123691400Y-90098600D02*
X120741400Y-90098600D01*
X123260000Y-87640000D02*
X126600000Y-84300000D01*
X125022800Y-91430000D02*
X123691400Y-90098600D01*
X129550000Y-91430000D02*
X125022800Y-91430000D01*
X120741400Y-90098600D02*
X120260000Y-89617200D01*
X120770000Y-87640000D02*
X123260000Y-87640000D01*
%TO.N,S2*%
X150620000Y-87440000D02*
X148280000Y-85100000D01*
X150620000Y-91510000D02*
X150620000Y-87440000D01*
X148280000Y-85100000D02*
X147640000Y-85100000D01*
X147640000Y-85100000D02*
X127780000Y-85100000D01*
X148597500Y-92770000D02*
X149360000Y-92770000D01*
X149360000Y-92770000D02*
X150620000Y-91510000D01*
%TO.N,S3*%
X148597500Y-88817500D02*
X145430000Y-85650000D01*
X148597500Y-90270000D02*
X148597500Y-88817500D01*
%TO.N,A3*%
X118232500Y-86350000D02*
X121930000Y-86350000D01*
X116832500Y-87750000D02*
X118232500Y-86350000D01*
%TO.N,A2*%
X118012500Y-91430000D02*
X121930000Y-91430000D01*
X116832500Y-90250000D02*
X118012500Y-91430000D01*
%TO.N,Cin*%
X128330000Y-92750000D02*
X116832500Y-92750000D01*
%TO.N,GND*%
X126020000Y-95250000D02*
X116832500Y-95250000D01*
%TO.N,VCC*%
X120690000Y-97750000D02*
X116832500Y-97750000D01*
%TO.N,A0*%
X123290000Y-100250000D02*
X116832500Y-100250000D01*
%TO.N,A1*%
X118212500Y-104130000D02*
X121930000Y-104130000D01*
X116832500Y-102750000D02*
X118212500Y-104130000D01*
%TO.N,Net-(U1-Pad8)*%
X139940000Y-107720000D02*
X143520000Y-104140000D01*
X130160000Y-102850000D02*
X135030000Y-107720000D01*
X121930000Y-101590000D02*
X123190000Y-102850000D01*
X123190000Y-102850000D02*
X130160000Y-102850000D01*
X135030000Y-107720000D02*
X139940000Y-107720000D01*
%TO.N,Net-(U1-Pad3)*%
X137480000Y-92400000D02*
X135900000Y-93980000D01*
X137480000Y-87580000D02*
X137480000Y-92400000D01*
X131950000Y-90120000D02*
X135120000Y-86950000D01*
X136850000Y-86950000D02*
X137480000Y-87580000D01*
X127010000Y-88930000D02*
X128200000Y-90120000D01*
X135120000Y-86950000D02*
X136850000Y-86950000D01*
X127010000Y-87180000D02*
X127010000Y-88930000D01*
X127840000Y-86350000D02*
X127010000Y-87180000D01*
X128200000Y-90120000D02*
X131950000Y-90120000D01*
X129550000Y-86350000D02*
X127840000Y-86350000D01*
%TO.N,S2*%
X127780000Y-85100000D02*
X123990000Y-88890000D01*
X123990000Y-88890000D02*
X121930000Y-88890000D01*
%TO.N,GND*%
X134340000Y-93000000D02*
X135900000Y-91440000D01*
X134340000Y-94960000D02*
X134340000Y-93000000D01*
X135900000Y-96520000D02*
X134340000Y-94960000D01*
%TO.N,VCC*%
X144500000Y-95270000D02*
X145020000Y-95790000D01*
X140930000Y-96790000D02*
X142450000Y-95270000D01*
X140930000Y-103253604D02*
X140930000Y-96790000D01*
X137813604Y-106370000D02*
X140930000Y-103253604D01*
X136182792Y-106370000D02*
X137813604Y-106370000D01*
X127220000Y-97810000D02*
X130170000Y-97810000D01*
X125920000Y-96510000D02*
X127220000Y-97810000D01*
X133440000Y-101080000D02*
X133440000Y-103627208D01*
X142450000Y-95270000D02*
X144500000Y-95270000D01*
X133440000Y-103627208D02*
X136182792Y-106370000D01*
X121930000Y-96510000D02*
X125920000Y-96510000D01*
X130170000Y-97810000D02*
X133440000Y-101080000D01*
X145020000Y-97560000D02*
X145020000Y-95790000D01*
X145020000Y-95790000D02*
X145020000Y-92940000D01*
X143520000Y-99060000D02*
X145020000Y-97560000D01*
X145020000Y-92940000D02*
X143520000Y-91440000D01*
%TO.N,Cin*%
X141830000Y-87980000D02*
X141830000Y-93130000D01*
X141830000Y-93130000D02*
X140955000Y-94005000D01*
X144780000Y-87050000D02*
X142760000Y-87050000D01*
X142760000Y-87050000D02*
X141830000Y-87980000D01*
X146200000Y-88470000D02*
X144780000Y-87050000D01*
X146200000Y-98920000D02*
X146200000Y-88470000D01*
X143520000Y-101600000D02*
X146200000Y-98920000D01*
X140980000Y-93980000D02*
X140955000Y-94005000D01*
X143520000Y-93980000D02*
X140980000Y-93980000D01*
X140955000Y-94005000D02*
X135900000Y-99060000D01*
%TO.N,Net-(U1-Pad6)*%
X132970000Y-97420000D02*
X132970000Y-98670000D01*
X130810000Y-95260000D02*
X132970000Y-97420000D01*
X132970000Y-98670000D02*
X135900000Y-101600000D01*
X127070000Y-93970000D02*
X128360000Y-95260000D01*
X121930000Y-93970000D02*
X127070000Y-93970000D01*
X128360000Y-95260000D02*
X130810000Y-95260000D01*
%TO.N,GND*%
X133890000Y-100850000D02*
X133890000Y-102130000D01*
X129550000Y-96510000D02*
X133890000Y-100850000D01*
X133890000Y-102130000D02*
X135900000Y-104140000D01*
%TO.N,Net-(U1-Pad11)*%
X141790000Y-98250000D02*
X143520000Y-96520000D01*
X138000000Y-106820000D02*
X141790000Y-103030000D01*
X135996396Y-106820000D02*
X138000000Y-106820000D01*
X141790000Y-103030000D02*
X141790000Y-98250000D01*
X132990000Y-103813604D02*
X135996396Y-106820000D01*
X132990000Y-102490000D02*
X132990000Y-103813604D01*
X129550000Y-99050000D02*
X132990000Y-102490000D01*
%TO.N,A0*%
X123290000Y-100250000D02*
X124630000Y-101590000D01*
X124630000Y-101590000D02*
X129550000Y-101590000D01*
%TO.N,S3*%
X131230000Y-88890000D02*
X129550000Y-88890000D01*
X145430000Y-85650000D02*
X134470000Y-85650000D01*
X134470000Y-85650000D02*
X131230000Y-88890000D01*
%TO.N,Cin*%
X130830000Y-94030000D02*
X130830000Y-93970000D01*
X130930000Y-94130000D02*
X130830000Y-94030000D01*
X130970000Y-94130000D02*
X130930000Y-94130000D01*
X135900000Y-99060000D02*
X130970000Y-94130000D01*
X130830000Y-93970000D02*
X135900000Y-88900000D01*
X129550000Y-93970000D02*
X130830000Y-93970000D01*
%TO.N,VCC*%
X143520000Y-91440000D02*
X143520000Y-88900000D01*
X120690000Y-97750000D02*
X121930000Y-96510000D01*
%TO.N,GND*%
X127280000Y-96510000D02*
X129550000Y-96510000D01*
X126020000Y-95250000D02*
X127280000Y-96510000D01*
%TO.N,Cin*%
X128330000Y-92750000D02*
X129550000Y-93970000D01*
%TD*%
%TA.AperFunction,NonConductor*%
G36*
X133254527Y-85753502D02*
G01*
X133301020Y-85807158D01*
X133311124Y-85877432D01*
X133281630Y-85942012D01*
X133275502Y-85948594D01*
X132117373Y-87106722D01*
X131004500Y-88219595D01*
X130942188Y-88253621D01*
X130915405Y-88256500D01*
X130769394Y-88256500D01*
X130701273Y-88236498D01*
X130666181Y-88202771D01*
X130559357Y-88050211D01*
X130559355Y-88050208D01*
X130556198Y-88045700D01*
X130394300Y-87883802D01*
X130389792Y-87880645D01*
X130389789Y-87880643D01*
X130302483Y-87819511D01*
X130206749Y-87752477D01*
X130201767Y-87750154D01*
X130201762Y-87750151D01*
X130167543Y-87734195D01*
X130114258Y-87687278D01*
X130094797Y-87619001D01*
X130115339Y-87551041D01*
X130167543Y-87505805D01*
X130201762Y-87489849D01*
X130201767Y-87489846D01*
X130206749Y-87487523D01*
X130332596Y-87399404D01*
X130389789Y-87359357D01*
X130389792Y-87359355D01*
X130394300Y-87356198D01*
X130556198Y-87194300D01*
X130570191Y-87174317D01*
X130654450Y-87053982D01*
X130687523Y-87006749D01*
X130689846Y-87001767D01*
X130689849Y-87001762D01*
X130781961Y-86804225D01*
X130781961Y-86804224D01*
X130784284Y-86799243D01*
X130787126Y-86788639D01*
X130842119Y-86583402D01*
X130842119Y-86583400D01*
X130843543Y-86578087D01*
X130863498Y-86350000D01*
X130843543Y-86121913D01*
X130784284Y-85900757D01*
X130784325Y-85900746D01*
X130779940Y-85831742D01*
X130814457Y-85769702D01*
X130877037Y-85736171D01*
X130902844Y-85733500D01*
X133186406Y-85733500D01*
X133254527Y-85753502D01*
G37*
%TD.AperFunction*%
%TA.AperFunction,NonConductor*%
G36*
X148033527Y-85753502D02*
G01*
X148054501Y-85770405D01*
X149949595Y-87665500D01*
X149983621Y-87727812D01*
X149986500Y-87754595D01*
X149986500Y-88962560D01*
X149966498Y-89030681D01*
X149912842Y-89077174D01*
X149842568Y-89087278D01*
X149794384Y-89069820D01*
X149651468Y-88981725D01*
X149651466Y-88981724D01*
X149645238Y-88977885D01*
X149524946Y-88937986D01*
X149483889Y-88924368D01*
X149483887Y-88924368D01*
X149477361Y-88922203D01*
X149470525Y-88921503D01*
X149470522Y-88921502D01*
X149427469Y-88917091D01*
X149372900Y-88911500D01*
X149357000Y-88911500D01*
X149288879Y-88891498D01*
X149242386Y-88837842D01*
X149231000Y-88785500D01*
X149231000Y-88777644D01*
X149230494Y-88773638D01*
X149229561Y-88761792D01*
X149228422Y-88725537D01*
X149228173Y-88717610D01*
X149222522Y-88698158D01*
X149218514Y-88678806D01*
X149216968Y-88666568D01*
X149216967Y-88666566D01*
X149215974Y-88658703D01*
X149199694Y-88617586D01*
X149195859Y-88606385D01*
X149183518Y-88563906D01*
X149179485Y-88557087D01*
X149179483Y-88557082D01*
X149173207Y-88546471D01*
X149164510Y-88528721D01*
X149157052Y-88509883D01*
X149131071Y-88474123D01*
X149124553Y-88464201D01*
X149106078Y-88432960D01*
X149106074Y-88432955D01*
X149102042Y-88426137D01*
X149087718Y-88411813D01*
X149074876Y-88396778D01*
X149062972Y-88380393D01*
X149028906Y-88352211D01*
X149020127Y-88344222D01*
X146624500Y-85948595D01*
X146590474Y-85886283D01*
X146595539Y-85815468D01*
X146638086Y-85758632D01*
X146704606Y-85733821D01*
X146713595Y-85733500D01*
X147965406Y-85733500D01*
X148033527Y-85753502D01*
G37*
%TD.AperFunction*%
%TA.AperFunction,NonConductor*%
G36*
X128398727Y-87003502D02*
G01*
X128433819Y-87037229D01*
X128529957Y-87174528D01*
X128543802Y-87194300D01*
X128705700Y-87356198D01*
X128710208Y-87359355D01*
X128710211Y-87359357D01*
X128767404Y-87399404D01*
X128893251Y-87487523D01*
X128898233Y-87489846D01*
X128898238Y-87489849D01*
X128932457Y-87505805D01*
X128985742Y-87552722D01*
X129005203Y-87620999D01*
X128984661Y-87688959D01*
X128932457Y-87734195D01*
X128898238Y-87750151D01*
X128898233Y-87750154D01*
X128893251Y-87752477D01*
X128797517Y-87819511D01*
X128710211Y-87880643D01*
X128710208Y-87880645D01*
X128705700Y-87883802D01*
X128543802Y-88045700D01*
X128540645Y-88050208D01*
X128540643Y-88050211D01*
X128526808Y-88069970D01*
X128412477Y-88233251D01*
X128410154Y-88238233D01*
X128410151Y-88238238D01*
X128332483Y-88404799D01*
X128315716Y-88440757D01*
X128314294Y-88446065D01*
X128314293Y-88446067D01*
X128257881Y-88656598D01*
X128256457Y-88661913D01*
X128236502Y-88890000D01*
X128236981Y-88895475D01*
X128236981Y-88895486D01*
X128241861Y-88951263D01*
X128227873Y-89020868D01*
X128178474Y-89071860D01*
X128109348Y-89088051D01*
X128042442Y-89064299D01*
X128027246Y-89051340D01*
X127680405Y-88704499D01*
X127646379Y-88642187D01*
X127643500Y-88615404D01*
X127643500Y-87494594D01*
X127663502Y-87426473D01*
X127680405Y-87405499D01*
X128065499Y-87020405D01*
X128127811Y-86986379D01*
X128154594Y-86983500D01*
X128330606Y-86983500D01*
X128398727Y-87003502D01*
G37*
%TD.AperFunction*%
%TA.AperFunction,NonConductor*%
G36*
X142670496Y-89901204D02*
G01*
X142671802Y-89902300D01*
X142675700Y-89906198D01*
X142680208Y-89909355D01*
X142680211Y-89909357D01*
X142832771Y-90016181D01*
X142877099Y-90071638D01*
X142886500Y-90119394D01*
X142886500Y-90220606D01*
X142866498Y-90288727D01*
X142832771Y-90323819D01*
X142680211Y-90430643D01*
X142680208Y-90430645D01*
X142675700Y-90433802D01*
X142671803Y-90437699D01*
X142670496Y-90438796D01*
X142605457Y-90467264D01*
X142535352Y-90456049D01*
X142482438Y-90408714D01*
X142463500Y-90342278D01*
X142463500Y-89997722D01*
X142483502Y-89929601D01*
X142537158Y-89883108D01*
X142607432Y-89873004D01*
X142670496Y-89901204D01*
G37*
%TD.AperFunction*%
%TA.AperFunction,NonConductor*%
G36*
X120291283Y-87003502D02*
G01*
X120337776Y-87057158D01*
X120347880Y-87127432D01*
X120320245Y-87189817D01*
X120304710Y-87208595D01*
X120296722Y-87217374D01*
X119867742Y-87646353D01*
X119859463Y-87653887D01*
X119852982Y-87658000D01*
X119823910Y-87688959D01*
X119806357Y-87707651D01*
X119803602Y-87710493D01*
X119783865Y-87730230D01*
X119781385Y-87733427D01*
X119773682Y-87742447D01*
X119743414Y-87774679D01*
X119739595Y-87781625D01*
X119739593Y-87781628D01*
X119733652Y-87792434D01*
X119722801Y-87808953D01*
X119710386Y-87824959D01*
X119707241Y-87832228D01*
X119707238Y-87832232D01*
X119692826Y-87865537D01*
X119687609Y-87876187D01*
X119666305Y-87914940D01*
X119664334Y-87922615D01*
X119664334Y-87922616D01*
X119661267Y-87934562D01*
X119654863Y-87953266D01*
X119646819Y-87971855D01*
X119645580Y-87979678D01*
X119645577Y-87979688D01*
X119639901Y-88015524D01*
X119637495Y-88027144D01*
X119628472Y-88062289D01*
X119626500Y-88069970D01*
X119626500Y-88090224D01*
X119624949Y-88109934D01*
X119621780Y-88129943D01*
X119622526Y-88137835D01*
X119625941Y-88173961D01*
X119626500Y-88185819D01*
X119626500Y-89538433D01*
X119625973Y-89549616D01*
X119624298Y-89557109D01*
X119624547Y-89565035D01*
X119624547Y-89565036D01*
X119626438Y-89625186D01*
X119626500Y-89629145D01*
X119626500Y-89657056D01*
X119626997Y-89660990D01*
X119626997Y-89660991D01*
X119627005Y-89661056D01*
X119627938Y-89672893D01*
X119629327Y-89717089D01*
X119633745Y-89732296D01*
X119634978Y-89736539D01*
X119638987Y-89755900D01*
X119641526Y-89775997D01*
X119644445Y-89783368D01*
X119644445Y-89783370D01*
X119657804Y-89817112D01*
X119661649Y-89828342D01*
X119673982Y-89870793D01*
X119678015Y-89877612D01*
X119678017Y-89877617D01*
X119684293Y-89888228D01*
X119692988Y-89905976D01*
X119700448Y-89924817D01*
X119705110Y-89931233D01*
X119705110Y-89931234D01*
X119726436Y-89960587D01*
X119732952Y-89970507D01*
X119755458Y-90008562D01*
X119769779Y-90022883D01*
X119782619Y-90037916D01*
X119794528Y-90054307D01*
X119800634Y-90059358D01*
X119828605Y-90082498D01*
X119837384Y-90090488D01*
X120237743Y-90490847D01*
X120245287Y-90499137D01*
X120249400Y-90505618D01*
X120293284Y-90546827D01*
X120299067Y-90552258D01*
X120301909Y-90555013D01*
X120321630Y-90574734D01*
X120323605Y-90576266D01*
X120361299Y-90636045D01*
X120360687Y-90707039D01*
X120321790Y-90766432D01*
X120256957Y-90795367D01*
X120240101Y-90796500D01*
X118381381Y-90796500D01*
X118313260Y-90776498D01*
X118266767Y-90722842D01*
X118256663Y-90652568D01*
X118261048Y-90633136D01*
X118268164Y-90610221D01*
X118289107Y-90542773D01*
X118303550Y-90433802D01*
X118318698Y-90319511D01*
X118318698Y-90319506D01*
X118319398Y-90314226D01*
X118310749Y-90083842D01*
X118263407Y-89858209D01*
X118251612Y-89828342D01*
X118180685Y-89648744D01*
X118180684Y-89648742D01*
X118178724Y-89643779D01*
X118167442Y-89625186D01*
X118061890Y-89451243D01*
X118059123Y-89446683D01*
X118055626Y-89442653D01*
X117911523Y-89276588D01*
X117911521Y-89276586D01*
X117908023Y-89272555D01*
X117865413Y-89237617D01*
X117733873Y-89129760D01*
X117733867Y-89129756D01*
X117729745Y-89126376D01*
X117698250Y-89108448D01*
X117648945Y-89057368D01*
X117635083Y-88987738D01*
X117661066Y-88921667D01*
X117690216Y-88894427D01*
X117754374Y-88851233D01*
X117811819Y-88812559D01*
X117817060Y-88807560D01*
X117911351Y-88717610D01*
X117978635Y-88653424D01*
X118116254Y-88468458D01*
X118127639Y-88446067D01*
X118218322Y-88267704D01*
X118220740Y-88262949D01*
X118222743Y-88256500D01*
X118287524Y-88047871D01*
X118289107Y-88042773D01*
X118298506Y-87971855D01*
X118318698Y-87819511D01*
X118318698Y-87819506D01*
X118319398Y-87814226D01*
X118317110Y-87753266D01*
X118313330Y-87652593D01*
X118310749Y-87583842D01*
X118302413Y-87544110D01*
X118264502Y-87363428D01*
X118263407Y-87358209D01*
X118253235Y-87332452D01*
X118246815Y-87261747D01*
X118281331Y-87197074D01*
X118458000Y-87020405D01*
X118520312Y-86986379D01*
X118547095Y-86983500D01*
X120223162Y-86983500D01*
X120291283Y-87003502D01*
G37*
%TD.AperFunction*%
%TA.AperFunction,NonConductor*%
G36*
X126294532Y-87585538D02*
G01*
X126351368Y-87628085D01*
X126376179Y-87694605D01*
X126376500Y-87703594D01*
X126376500Y-88851233D01*
X126375973Y-88862416D01*
X126374298Y-88869909D01*
X126374547Y-88877835D01*
X126374547Y-88877836D01*
X126376438Y-88937986D01*
X126376500Y-88941945D01*
X126376500Y-88969856D01*
X126376997Y-88973790D01*
X126376997Y-88973791D01*
X126377005Y-88973856D01*
X126377938Y-88985693D01*
X126379327Y-89029889D01*
X126384978Y-89049339D01*
X126388987Y-89068700D01*
X126389344Y-89071522D01*
X126391526Y-89088797D01*
X126394445Y-89096168D01*
X126394445Y-89096170D01*
X126407804Y-89129912D01*
X126411649Y-89141142D01*
X126423982Y-89183593D01*
X126428015Y-89190412D01*
X126428017Y-89190417D01*
X126434293Y-89201028D01*
X126442988Y-89218776D01*
X126450448Y-89237617D01*
X126455110Y-89244033D01*
X126455110Y-89244034D01*
X126476436Y-89273387D01*
X126482952Y-89283307D01*
X126500286Y-89312616D01*
X126505458Y-89321362D01*
X126519779Y-89335683D01*
X126532619Y-89350716D01*
X126544528Y-89367107D01*
X126550634Y-89372158D01*
X126578605Y-89395298D01*
X126587384Y-89403288D01*
X127696343Y-90512247D01*
X127703887Y-90520537D01*
X127708000Y-90527018D01*
X127713777Y-90532443D01*
X127757667Y-90573658D01*
X127760509Y-90576413D01*
X127765501Y-90581405D01*
X127799527Y-90643717D01*
X127794462Y-90714532D01*
X127751915Y-90771368D01*
X127685395Y-90796179D01*
X127676406Y-90796500D01*
X125337394Y-90796500D01*
X125269273Y-90776498D01*
X125248299Y-90759595D01*
X124195052Y-89706347D01*
X124187512Y-89698061D01*
X124183400Y-89691582D01*
X124177623Y-89686157D01*
X124172569Y-89680048D01*
X124175182Y-89677886D01*
X124147186Y-89629552D01*
X124150464Y-89558631D01*
X124191565Y-89500741D01*
X124228793Y-89481582D01*
X124228705Y-89481378D01*
X124231756Y-89480058D01*
X124234437Y-89478678D01*
X124243593Y-89476018D01*
X124250412Y-89471985D01*
X124250417Y-89471983D01*
X124261028Y-89465707D01*
X124278776Y-89457012D01*
X124297617Y-89449552D01*
X124333387Y-89423564D01*
X124343307Y-89417048D01*
X124374535Y-89398580D01*
X124374538Y-89398578D01*
X124381362Y-89394542D01*
X124395683Y-89380221D01*
X124410717Y-89367380D01*
X124411093Y-89367107D01*
X124427107Y-89355472D01*
X124455298Y-89321395D01*
X124463288Y-89312616D01*
X126161405Y-87614499D01*
X126223717Y-87580473D01*
X126294532Y-87585538D01*
G37*
%TD.AperFunction*%
%TA.AperFunction,NonConductor*%
G36*
X123444927Y-90752102D02*
G01*
X123465901Y-90769005D01*
X124019389Y-91322494D01*
X124519148Y-91822253D01*
X124526688Y-91830539D01*
X124530800Y-91837018D01*
X124536577Y-91842443D01*
X124580451Y-91883643D01*
X124583293Y-91886398D01*
X124598300Y-91901405D01*
X124632326Y-91963717D01*
X124627261Y-92034532D01*
X124584714Y-92091368D01*
X124518194Y-92116179D01*
X124509205Y-92116500D01*
X123251430Y-92116500D01*
X123183309Y-92096498D01*
X123136816Y-92042842D01*
X123126712Y-91972568D01*
X123137235Y-91937250D01*
X123161961Y-91884225D01*
X123161961Y-91884224D01*
X123164284Y-91879243D01*
X123219441Y-91673398D01*
X123222119Y-91663402D01*
X123222119Y-91663400D01*
X123223543Y-91658087D01*
X123243498Y-91430000D01*
X123223543Y-91201913D01*
X123189403Y-91074501D01*
X123165707Y-90986067D01*
X123165706Y-90986065D01*
X123164284Y-90980757D01*
X123131919Y-90911349D01*
X123121258Y-90841158D01*
X123150238Y-90776346D01*
X123209658Y-90737489D01*
X123246114Y-90732100D01*
X123376806Y-90732100D01*
X123444927Y-90752102D01*
G37*
%TD.AperFunction*%
%TA.AperFunction,NonConductor*%
G36*
X144533527Y-87703502D02*
G01*
X144554501Y-87720405D01*
X145529595Y-88695499D01*
X145563621Y-88757811D01*
X145566500Y-88784594D01*
X145566500Y-92286405D01*
X145546498Y-92354526D01*
X145492842Y-92401019D01*
X145422568Y-92411123D01*
X145357988Y-92381629D01*
X145351405Y-92375500D01*
X144829152Y-91853247D01*
X144795126Y-91790935D01*
X144796540Y-91731541D01*
X144813543Y-91668087D01*
X144833498Y-91440000D01*
X144813543Y-91211913D01*
X144812119Y-91206598D01*
X144755707Y-90996067D01*
X144755706Y-90996065D01*
X144754284Y-90990757D01*
X144717256Y-90911350D01*
X144659849Y-90788238D01*
X144659846Y-90788233D01*
X144657523Y-90783251D01*
X144565006Y-90651123D01*
X144529357Y-90600211D01*
X144529355Y-90600208D01*
X144526198Y-90595700D01*
X144364300Y-90433802D01*
X144359792Y-90430645D01*
X144359789Y-90430643D01*
X144207229Y-90323819D01*
X144162901Y-90268362D01*
X144153500Y-90220606D01*
X144153500Y-90119394D01*
X144173502Y-90051273D01*
X144207229Y-90016181D01*
X144359789Y-89909357D01*
X144359792Y-89909355D01*
X144364300Y-89906198D01*
X144526198Y-89744300D01*
X144531633Y-89736539D01*
X144599778Y-89639217D01*
X144657523Y-89556749D01*
X144659846Y-89551767D01*
X144659849Y-89551762D01*
X144751961Y-89354225D01*
X144751961Y-89354224D01*
X144754284Y-89349243D01*
X144755985Y-89342897D01*
X144812119Y-89133402D01*
X144812119Y-89133400D01*
X144813543Y-89128087D01*
X144833498Y-88900000D01*
X144813543Y-88671913D01*
X144812111Y-88666568D01*
X144755707Y-88456067D01*
X144755706Y-88456065D01*
X144754284Y-88450757D01*
X144742804Y-88426137D01*
X144659849Y-88248238D01*
X144659846Y-88248233D01*
X144657523Y-88243251D01*
X144536190Y-88069970D01*
X144529357Y-88060211D01*
X144529355Y-88060208D01*
X144526198Y-88055700D01*
X144369093Y-87898595D01*
X144335067Y-87836283D01*
X144340132Y-87765468D01*
X144382679Y-87708632D01*
X144449199Y-87683821D01*
X144458188Y-87683500D01*
X144465406Y-87683500D01*
X144533527Y-87703502D01*
G37*
%TD.AperFunction*%
%TA.AperFunction,NonConductor*%
G36*
X142670496Y-92441204D02*
G01*
X142671801Y-92442299D01*
X142675700Y-92446198D01*
X142863251Y-92577523D01*
X142868233Y-92579846D01*
X142868238Y-92579849D01*
X142902457Y-92595805D01*
X142955742Y-92642722D01*
X142975203Y-92710999D01*
X142954661Y-92778959D01*
X142902457Y-92824195D01*
X142868238Y-92840151D01*
X142868233Y-92840154D01*
X142863251Y-92842477D01*
X142675700Y-92973802D01*
X142671801Y-92977701D01*
X142670496Y-92978796D01*
X142605457Y-93007264D01*
X142535352Y-92996049D01*
X142482438Y-92948714D01*
X142463500Y-92882278D01*
X142463500Y-92537722D01*
X142483502Y-92469601D01*
X142537158Y-92423108D01*
X142607432Y-92413004D01*
X142670496Y-92441204D01*
G37*
%TD.AperFunction*%
%TA.AperFunction,NonConductor*%
G36*
X134509533Y-88560539D02*
G01*
X134566368Y-88603086D01*
X134591179Y-88669606D01*
X134591500Y-88678595D01*
X134591500Y-89260406D01*
X134571498Y-89328527D01*
X134554595Y-89349501D01*
X130753887Y-93150208D01*
X130691575Y-93184234D01*
X130620759Y-93179169D01*
X130562906Y-93134412D01*
X130562892Y-93134424D01*
X130562839Y-93134360D01*
X130561583Y-93133389D01*
X130559362Y-93130217D01*
X130559355Y-93130209D01*
X130556198Y-93125700D01*
X130394300Y-92963802D01*
X130389792Y-92960645D01*
X130389789Y-92960643D01*
X130256904Y-92867596D01*
X130206749Y-92832477D01*
X130201767Y-92830154D01*
X130201762Y-92830151D01*
X130167543Y-92814195D01*
X130114258Y-92767278D01*
X130094797Y-92699001D01*
X130115339Y-92631041D01*
X130167543Y-92585805D01*
X130201762Y-92569849D01*
X130201767Y-92569846D01*
X130206749Y-92567523D01*
X130331702Y-92480030D01*
X130389789Y-92439357D01*
X130389792Y-92439355D01*
X130394300Y-92436198D01*
X130556198Y-92274300D01*
X130687523Y-92086749D01*
X130689846Y-92081767D01*
X130689849Y-92081762D01*
X130781961Y-91884225D01*
X130781961Y-91884224D01*
X130784284Y-91879243D01*
X130839441Y-91673398D01*
X130842119Y-91663402D01*
X130842119Y-91663400D01*
X130843543Y-91658087D01*
X130863498Y-91430000D01*
X130843543Y-91201913D01*
X130809403Y-91074501D01*
X130785707Y-90986067D01*
X130785706Y-90986065D01*
X130784284Y-90980757D01*
X130761898Y-90932750D01*
X130751237Y-90862558D01*
X130780217Y-90797746D01*
X130839637Y-90758889D01*
X130876093Y-90753500D01*
X131871233Y-90753500D01*
X131882416Y-90754027D01*
X131889909Y-90755702D01*
X131897835Y-90755453D01*
X131897836Y-90755453D01*
X131957986Y-90753562D01*
X131961945Y-90753500D01*
X131989856Y-90753500D01*
X131993791Y-90753003D01*
X131993856Y-90752995D01*
X132005693Y-90752062D01*
X132037951Y-90751048D01*
X132041970Y-90750922D01*
X132049889Y-90750673D01*
X132069343Y-90745021D01*
X132088700Y-90741013D01*
X132100930Y-90739468D01*
X132100931Y-90739468D01*
X132108797Y-90738474D01*
X132116168Y-90735555D01*
X132116170Y-90735555D01*
X132149912Y-90722196D01*
X132161142Y-90718351D01*
X132195983Y-90708229D01*
X132195984Y-90708229D01*
X132203593Y-90706018D01*
X132210412Y-90701985D01*
X132210417Y-90701983D01*
X132221028Y-90695707D01*
X132238776Y-90687012D01*
X132257617Y-90679552D01*
X132293387Y-90653564D01*
X132303307Y-90647048D01*
X132334535Y-90628580D01*
X132334538Y-90628578D01*
X132341362Y-90624542D01*
X132355683Y-90610221D01*
X132370717Y-90597380D01*
X132380694Y-90590131D01*
X132387107Y-90585472D01*
X132415298Y-90551395D01*
X132423288Y-90542616D01*
X134376405Y-88589500D01*
X134438717Y-88555474D01*
X134509533Y-88560539D01*
G37*
%TD.AperFunction*%
%TA.AperFunction,NonConductor*%
G36*
X128083527Y-93403502D02*
G01*
X128104501Y-93420405D01*
X128240848Y-93556752D01*
X128274874Y-93619064D01*
X128273459Y-93678459D01*
X128257882Y-93736591D01*
X128257881Y-93736598D01*
X128256457Y-93741913D01*
X128238897Y-93942632D01*
X128238283Y-93949648D01*
X128212420Y-94015767D01*
X128154916Y-94057406D01*
X128084029Y-94061347D01*
X128023667Y-94027762D01*
X127594500Y-93598595D01*
X127560474Y-93536283D01*
X127565539Y-93465468D01*
X127608086Y-93408632D01*
X127674606Y-93383821D01*
X127683595Y-93383500D01*
X128015406Y-93383500D01*
X128083527Y-93403502D01*
G37*
%TD.AperFunction*%
%TA.AperFunction,NonConductor*%
G36*
X141654526Y-86303502D02*
G01*
X141701019Y-86357158D01*
X141711123Y-86427432D01*
X141681629Y-86492012D01*
X141675500Y-86498595D01*
X140727747Y-87446348D01*
X140719461Y-87453888D01*
X140712982Y-87458000D01*
X140707557Y-87463777D01*
X140666357Y-87507651D01*
X140663602Y-87510493D01*
X140643865Y-87530230D01*
X140641385Y-87533427D01*
X140633682Y-87542447D01*
X140603414Y-87574679D01*
X140599595Y-87581625D01*
X140599593Y-87581628D01*
X140593652Y-87592434D01*
X140582801Y-87608953D01*
X140570386Y-87624959D01*
X140567241Y-87632228D01*
X140567238Y-87632232D01*
X140552826Y-87665537D01*
X140547609Y-87676187D01*
X140526305Y-87714940D01*
X140524334Y-87722615D01*
X140524334Y-87722616D01*
X140521267Y-87734562D01*
X140514863Y-87753266D01*
X140506819Y-87771855D01*
X140505580Y-87779678D01*
X140505577Y-87779688D01*
X140499901Y-87815524D01*
X140497495Y-87827144D01*
X140486500Y-87869970D01*
X140486500Y-87890224D01*
X140484949Y-87909934D01*
X140481780Y-87929943D01*
X140482526Y-87937835D01*
X140485941Y-87973961D01*
X140486500Y-87985819D01*
X140486500Y-90985406D01*
X140466498Y-91053527D01*
X140449595Y-91074501D01*
X137426589Y-94097506D01*
X137364277Y-94131532D01*
X137293461Y-94126467D01*
X137236626Y-94083920D01*
X137211815Y-94017400D01*
X137211974Y-93997428D01*
X137213019Y-93985485D01*
X137213019Y-93985475D01*
X137213498Y-93980000D01*
X137193543Y-93751913D01*
X137192120Y-93746602D01*
X137192118Y-93746591D01*
X137176541Y-93688459D01*
X137178230Y-93617483D01*
X137209152Y-93566752D01*
X137872247Y-92903657D01*
X137880537Y-92896113D01*
X137887018Y-92892000D01*
X137896148Y-92882278D01*
X137933658Y-92842333D01*
X137936413Y-92839491D01*
X137956134Y-92819770D01*
X137958612Y-92816575D01*
X137966318Y-92807553D01*
X137991158Y-92781101D01*
X137996586Y-92775321D01*
X138006109Y-92757999D01*
X138006346Y-92757568D01*
X138017199Y-92741045D01*
X138018356Y-92739553D01*
X138029613Y-92725041D01*
X138047176Y-92684457D01*
X138052383Y-92673827D01*
X138073695Y-92635060D01*
X138075666Y-92627383D01*
X138075668Y-92627378D01*
X138078732Y-92615442D01*
X138085138Y-92596730D01*
X138085539Y-92595805D01*
X138093181Y-92578145D01*
X138094864Y-92567523D01*
X138100097Y-92534481D01*
X138102504Y-92522860D01*
X138111528Y-92487711D01*
X138111528Y-92487710D01*
X138113500Y-92480030D01*
X138113500Y-92459769D01*
X138115051Y-92440058D01*
X138115663Y-92436198D01*
X138118219Y-92420057D01*
X138114059Y-92376046D01*
X138113500Y-92364189D01*
X138113500Y-87658768D01*
X138114027Y-87647585D01*
X138115702Y-87640092D01*
X138115227Y-87624959D01*
X138113562Y-87572002D01*
X138113500Y-87568044D01*
X138113500Y-87540144D01*
X138112996Y-87536153D01*
X138112063Y-87524311D01*
X138111585Y-87509079D01*
X138110674Y-87480111D01*
X138108461Y-87472493D01*
X138105021Y-87460652D01*
X138101012Y-87441293D01*
X138100846Y-87439983D01*
X138098474Y-87421203D01*
X138095558Y-87413837D01*
X138095556Y-87413831D01*
X138082200Y-87380098D01*
X138078355Y-87368868D01*
X138068230Y-87334017D01*
X138068230Y-87334016D01*
X138066019Y-87326407D01*
X138055705Y-87308966D01*
X138047008Y-87291213D01*
X138042472Y-87279758D01*
X138039552Y-87272383D01*
X138013563Y-87236612D01*
X138007047Y-87226692D01*
X137984542Y-87188638D01*
X137970221Y-87174317D01*
X137957380Y-87159283D01*
X137950132Y-87149307D01*
X137945472Y-87142893D01*
X137911407Y-87114712D01*
X137902626Y-87106722D01*
X137353647Y-86557742D01*
X137346113Y-86549463D01*
X137342000Y-86542982D01*
X137336222Y-86537556D01*
X137336216Y-86537549D01*
X137297667Y-86501350D01*
X137261701Y-86440138D01*
X137264538Y-86369198D01*
X137305278Y-86311054D01*
X137370986Y-86284165D01*
X137383919Y-86283500D01*
X141586405Y-86283500D01*
X141654526Y-86303502D01*
G37*
%TD.AperFunction*%
%TA.AperFunction,NonConductor*%
G36*
X147589391Y-93802721D02*
G01*
X147696127Y-93890240D01*
X147696133Y-93890244D01*
X147700255Y-93893624D01*
X147731750Y-93911552D01*
X147781055Y-93962632D01*
X147794917Y-94032262D01*
X147768934Y-94098333D01*
X147739784Y-94125573D01*
X147618181Y-94207441D01*
X147614324Y-94211120D01*
X147614322Y-94211122D01*
X147596471Y-94228151D01*
X147533374Y-94260698D01*
X147462697Y-94253965D01*
X147406880Y-94210091D01*
X147383500Y-94136980D01*
X147383500Y-93900155D01*
X147403502Y-93832034D01*
X147457158Y-93785541D01*
X147527432Y-93775437D01*
X147589391Y-93802721D01*
G37*
%TD.AperFunction*%
%TA.AperFunction,NonConductor*%
G36*
X120636408Y-93403502D02*
G01*
X120682901Y-93457158D01*
X120693005Y-93527432D01*
X120689994Y-93542111D01*
X120650780Y-93688459D01*
X120636457Y-93741913D01*
X120616502Y-93970000D01*
X120636457Y-94198087D01*
X120637881Y-94203400D01*
X120637881Y-94203402D01*
X120651430Y-94253965D01*
X120695716Y-94419243D01*
X120698039Y-94424225D01*
X120698041Y-94424230D01*
X120704112Y-94437249D01*
X120714774Y-94507441D01*
X120685795Y-94572254D01*
X120626375Y-94611110D01*
X120589918Y-94616500D01*
X118233096Y-94616500D01*
X118164975Y-94596498D01*
X118125377Y-94555866D01*
X118108019Y-94527260D01*
X118059123Y-94446683D01*
X117972255Y-94346576D01*
X117911523Y-94276588D01*
X117911521Y-94276586D01*
X117908023Y-94272555D01*
X117866470Y-94238484D01*
X117733873Y-94129760D01*
X117733867Y-94129756D01*
X117729745Y-94126376D01*
X117698250Y-94108448D01*
X117648945Y-94057368D01*
X117635083Y-93987738D01*
X117661066Y-93921667D01*
X117690216Y-93894427D01*
X117726142Y-93870240D01*
X117811819Y-93812559D01*
X117978635Y-93653424D01*
X118116254Y-93468458D01*
X118118670Y-93463706D01*
X118118675Y-93463698D01*
X118124422Y-93452394D01*
X118173125Y-93400737D01*
X118236738Y-93383500D01*
X120568287Y-93383500D01*
X120636408Y-93403502D01*
G37*
%TD.AperFunction*%
%TA.AperFunction,NonConductor*%
G36*
X126823527Y-94623502D02*
G01*
X126844501Y-94640405D01*
X127856343Y-95652247D01*
X127863889Y-95660540D01*
X127868000Y-95667018D01*
X127872271Y-95671028D01*
X127899919Y-95735424D01*
X127888211Y-95805448D01*
X127840504Y-95858027D01*
X127774824Y-95876500D01*
X127594594Y-95876500D01*
X127526473Y-95856498D01*
X127505499Y-95839595D01*
X127022878Y-95356973D01*
X126523652Y-94857747D01*
X126516112Y-94849461D01*
X126512000Y-94842982D01*
X126488965Y-94821351D01*
X126452999Y-94760138D01*
X126455836Y-94689198D01*
X126496576Y-94631054D01*
X126562284Y-94604165D01*
X126575217Y-94603500D01*
X126755406Y-94603500D01*
X126823527Y-94623502D01*
G37*
%TD.AperFunction*%
%TA.AperFunction,NonConductor*%
G36*
X141114533Y-92305539D02*
G01*
X141171368Y-92348086D01*
X141196179Y-92414606D01*
X141196500Y-92423595D01*
X141196500Y-92815405D01*
X141176498Y-92883526D01*
X141159595Y-92904501D01*
X140856557Y-93207538D01*
X140574310Y-93489785D01*
X140559276Y-93502625D01*
X140542893Y-93514528D01*
X140514712Y-93548593D01*
X140506722Y-93557373D01*
X140478865Y-93585230D01*
X140478862Y-93585234D01*
X137426589Y-96637506D01*
X137364277Y-96671532D01*
X137293461Y-96666467D01*
X137236626Y-96623920D01*
X137211815Y-96557400D01*
X137211974Y-96537428D01*
X137213019Y-96525485D01*
X137213019Y-96525475D01*
X137213498Y-96520000D01*
X137193543Y-96291913D01*
X137192120Y-96286602D01*
X137192118Y-96286591D01*
X137176541Y-96228459D01*
X137178230Y-96157483D01*
X137209152Y-96106752D01*
X140981405Y-92334500D01*
X141043717Y-92300474D01*
X141114533Y-92305539D01*
G37*
%TD.AperFunction*%
%TA.AperFunction,NonConductor*%
G36*
X134506538Y-91293533D02*
G01*
X134563374Y-91336080D01*
X134588185Y-91402600D01*
X134588026Y-91422572D01*
X134586981Y-91434515D01*
X134586981Y-91434525D01*
X134586502Y-91440000D01*
X134606457Y-91668087D01*
X134623460Y-91731541D01*
X134621770Y-91802518D01*
X134590848Y-91853247D01*
X133947747Y-92496348D01*
X133939461Y-92503888D01*
X133932982Y-92508000D01*
X133927557Y-92513777D01*
X133886357Y-92557651D01*
X133883602Y-92560493D01*
X133863865Y-92580230D01*
X133861385Y-92583427D01*
X133853682Y-92592447D01*
X133823414Y-92624679D01*
X133819595Y-92631625D01*
X133819593Y-92631628D01*
X133813652Y-92642434D01*
X133802801Y-92658953D01*
X133790386Y-92674959D01*
X133787241Y-92682228D01*
X133787238Y-92682232D01*
X133772826Y-92715537D01*
X133767609Y-92726187D01*
X133746305Y-92764940D01*
X133744334Y-92772615D01*
X133744334Y-92772616D01*
X133741267Y-92784562D01*
X133734863Y-92803266D01*
X133726819Y-92821855D01*
X133725580Y-92829678D01*
X133725577Y-92829688D01*
X133719901Y-92865524D01*
X133717495Y-92877144D01*
X133709536Y-92908145D01*
X133706500Y-92919970D01*
X133706500Y-92940224D01*
X133704949Y-92959934D01*
X133701780Y-92979943D01*
X133702526Y-92987835D01*
X133705941Y-93023961D01*
X133706500Y-93035819D01*
X133706500Y-94881233D01*
X133705973Y-94892416D01*
X133704298Y-94899909D01*
X133704547Y-94907835D01*
X133704547Y-94907836D01*
X133706438Y-94967986D01*
X133706500Y-94971945D01*
X133706500Y-94999856D01*
X133706997Y-95003790D01*
X133706997Y-95003791D01*
X133707005Y-95003856D01*
X133707938Y-95015693D01*
X133709327Y-95059889D01*
X133714978Y-95079339D01*
X133718987Y-95098700D01*
X133721526Y-95118797D01*
X133724445Y-95126168D01*
X133724445Y-95126170D01*
X133737804Y-95159912D01*
X133741649Y-95171142D01*
X133745900Y-95185774D01*
X133753982Y-95213593D01*
X133758015Y-95220412D01*
X133758017Y-95220417D01*
X133764293Y-95231028D01*
X133772988Y-95248776D01*
X133780448Y-95267617D01*
X133785110Y-95274033D01*
X133785110Y-95274034D01*
X133806436Y-95303387D01*
X133812952Y-95313307D01*
X133825324Y-95334226D01*
X133835458Y-95351362D01*
X133849779Y-95365683D01*
X133862619Y-95380716D01*
X133874528Y-95397107D01*
X133880634Y-95402158D01*
X133908605Y-95425298D01*
X133917384Y-95433288D01*
X134590848Y-96106752D01*
X134624874Y-96169064D01*
X134623459Y-96228459D01*
X134607882Y-96286591D01*
X134607880Y-96286602D01*
X134606457Y-96291913D01*
X134586502Y-96520000D01*
X134586981Y-96525475D01*
X134586981Y-96525486D01*
X134588026Y-96537430D01*
X134574038Y-96607035D01*
X134524639Y-96658027D01*
X134455513Y-96674218D01*
X134388607Y-96650466D01*
X134373411Y-96637507D01*
X133169193Y-95433288D01*
X131805000Y-94069095D01*
X131770974Y-94006783D01*
X131776039Y-93935967D01*
X131805000Y-93890905D01*
X134373411Y-91322494D01*
X134435723Y-91288468D01*
X134506538Y-91293533D01*
G37*
%TD.AperFunction*%
%TA.AperFunction,NonConductor*%
G36*
X120648917Y-95903502D02*
G01*
X120695410Y-95957158D01*
X120705514Y-96027432D01*
X120699196Y-96052597D01*
X120698040Y-96055773D01*
X120695716Y-96060757D01*
X120636457Y-96281913D01*
X120616502Y-96510000D01*
X120636457Y-96738087D01*
X120637879Y-96743392D01*
X120637881Y-96743406D01*
X120653459Y-96801539D01*
X120651771Y-96872516D01*
X120620848Y-96923247D01*
X120529811Y-97014285D01*
X120464499Y-97079596D01*
X120402187Y-97113621D01*
X120375404Y-97116500D01*
X118233096Y-97116500D01*
X118164975Y-97096498D01*
X118125377Y-97055866D01*
X118120798Y-97048319D01*
X118059123Y-96946683D01*
X118046790Y-96932470D01*
X117911523Y-96776588D01*
X117911521Y-96776586D01*
X117908023Y-96772555D01*
X117856397Y-96730224D01*
X117733873Y-96629760D01*
X117733867Y-96629756D01*
X117729745Y-96626376D01*
X117698250Y-96608448D01*
X117648945Y-96557368D01*
X117635083Y-96487738D01*
X117661066Y-96421667D01*
X117690216Y-96394427D01*
X117730322Y-96367426D01*
X117811819Y-96312559D01*
X117839041Y-96286591D01*
X117962240Y-96169064D01*
X117978635Y-96153424D01*
X118116254Y-95968458D01*
X118118670Y-95963706D01*
X118118675Y-95963698D01*
X118124422Y-95952394D01*
X118173125Y-95900737D01*
X118236738Y-95883500D01*
X120580796Y-95883500D01*
X120648917Y-95903502D01*
G37*
%TD.AperFunction*%
%TA.AperFunction,NonConductor*%
G36*
X142139665Y-96580405D02*
G01*
X142196501Y-96622952D01*
X142221153Y-96687478D01*
X142225976Y-96742597D01*
X142225977Y-96742605D01*
X142226457Y-96748087D01*
X142242154Y-96806666D01*
X142243460Y-96811541D01*
X142241770Y-96882518D01*
X142210848Y-96933247D01*
X141778595Y-97365500D01*
X141716283Y-97399526D01*
X141645468Y-97394461D01*
X141588632Y-97351914D01*
X141563821Y-97285394D01*
X141563500Y-97276405D01*
X141563500Y-97104594D01*
X141583502Y-97036473D01*
X141600405Y-97015499D01*
X142006538Y-96609366D01*
X142068850Y-96575340D01*
X142139665Y-96580405D01*
G37*
%TD.AperFunction*%
%TA.AperFunction,NonConductor*%
G36*
X141971282Y-94633502D02*
G01*
X142017775Y-94687158D01*
X142027879Y-94757432D01*
X142000245Y-94819817D01*
X141984701Y-94838606D01*
X141976712Y-94847384D01*
X140537747Y-96286348D01*
X140529461Y-96293888D01*
X140522982Y-96298000D01*
X140517557Y-96303777D01*
X140476357Y-96347651D01*
X140473602Y-96350493D01*
X140453865Y-96370230D01*
X140451385Y-96373427D01*
X140443682Y-96382447D01*
X140413414Y-96414679D01*
X140409595Y-96421625D01*
X140409593Y-96421628D01*
X140403652Y-96432434D01*
X140392801Y-96448953D01*
X140380386Y-96464959D01*
X140377241Y-96472228D01*
X140377238Y-96472232D01*
X140362826Y-96505537D01*
X140357609Y-96516187D01*
X140336305Y-96554940D01*
X140334334Y-96562615D01*
X140334334Y-96562616D01*
X140331267Y-96574562D01*
X140324863Y-96593266D01*
X140316819Y-96611855D01*
X140315580Y-96619678D01*
X140315577Y-96619688D01*
X140309901Y-96655524D01*
X140307495Y-96667144D01*
X140302275Y-96687478D01*
X140296500Y-96709970D01*
X140296500Y-96730224D01*
X140294949Y-96749934D01*
X140291780Y-96769943D01*
X140292526Y-96777835D01*
X140295941Y-96813961D01*
X140296500Y-96825819D01*
X140296500Y-97508345D01*
X140276498Y-97576466D01*
X140222842Y-97622959D01*
X140152568Y-97633063D01*
X140143718Y-97631466D01*
X140141000Y-97630875D01*
X140141000Y-97627928D01*
X138532166Y-97627928D01*
X138464045Y-97607926D01*
X138417552Y-97554270D01*
X138407448Y-97483996D01*
X138436942Y-97419416D01*
X138443071Y-97412833D01*
X141205499Y-94650405D01*
X141267811Y-94616379D01*
X141294594Y-94613500D01*
X141903161Y-94613500D01*
X141971282Y-94633502D01*
G37*
%TD.AperFunction*%
%TA.AperFunction,NonConductor*%
G36*
X131071531Y-96417889D02*
G01*
X131078114Y-96424018D01*
X132299595Y-97645499D01*
X132333621Y-97707811D01*
X132336500Y-97734594D01*
X132336500Y-98096406D01*
X132316498Y-98164527D01*
X132262842Y-98211020D01*
X132192568Y-98221124D01*
X132127988Y-98191630D01*
X132121405Y-98185501D01*
X130859152Y-96923248D01*
X130825126Y-96860936D01*
X130826541Y-96801541D01*
X130842118Y-96743409D01*
X130842120Y-96743398D01*
X130843543Y-96738087D01*
X130863498Y-96510000D01*
X130863922Y-96510037D01*
X130883021Y-96444992D01*
X130936677Y-96398499D01*
X131006951Y-96388395D01*
X131071531Y-96417889D01*
G37*
%TD.AperFunction*%
%TA.AperFunction,NonConductor*%
G36*
X147042012Y-96528371D02*
G01*
X147048591Y-96534495D01*
X147201554Y-96687459D01*
X147344233Y-96830138D01*
X147378258Y-96892450D01*
X147373193Y-96963266D01*
X147356227Y-96994445D01*
X147313746Y-97051542D01*
X147311330Y-97056293D01*
X147311328Y-97056297D01*
X147294560Y-97089278D01*
X147209260Y-97257051D01*
X147207678Y-97262145D01*
X147207677Y-97262148D01*
X147160888Y-97412833D01*
X147140893Y-97477227D01*
X147140192Y-97482516D01*
X147116748Y-97659405D01*
X147110602Y-97705774D01*
X147119251Y-97936158D01*
X147166593Y-98161791D01*
X147168552Y-98166751D01*
X147176766Y-98187551D01*
X147183183Y-98258257D01*
X147148668Y-98322926D01*
X147048595Y-98422999D01*
X146986283Y-98457025D01*
X146915468Y-98451960D01*
X146858632Y-98409413D01*
X146833821Y-98342893D01*
X146833500Y-98333904D01*
X146833500Y-96623595D01*
X146853502Y-96555474D01*
X146907158Y-96508981D01*
X146977432Y-96498877D01*
X147042012Y-96528371D01*
G37*
%TD.AperFunction*%
%TA.AperFunction,NonConductor*%
G36*
X145484532Y-98095538D02*
G01*
X145541368Y-98138085D01*
X145566179Y-98204605D01*
X145566500Y-98213594D01*
X145566500Y-98605405D01*
X145546498Y-98673526D01*
X145529595Y-98694500D01*
X145046589Y-99177506D01*
X144984277Y-99211532D01*
X144913462Y-99206467D01*
X144856626Y-99163920D01*
X144831815Y-99097400D01*
X144831974Y-99077428D01*
X144833019Y-99065485D01*
X144833019Y-99065475D01*
X144833498Y-99060000D01*
X144813543Y-98831913D01*
X144812120Y-98826602D01*
X144812118Y-98826591D01*
X144796541Y-98768459D01*
X144798230Y-98697483D01*
X144829152Y-98646752D01*
X145351405Y-98124499D01*
X145413717Y-98090473D01*
X145484532Y-98095538D01*
G37*
%TD.AperFunction*%
%TA.AperFunction,NonConductor*%
G36*
X133812012Y-97868371D02*
G01*
X133818584Y-97874488D01*
X134590849Y-98646753D01*
X134624873Y-98709064D01*
X134623459Y-98768459D01*
X134607882Y-98826591D01*
X134607880Y-98826602D01*
X134606457Y-98831913D01*
X134586502Y-99060000D01*
X134586981Y-99065475D01*
X134586981Y-99065485D01*
X134588026Y-99077428D01*
X134574038Y-99147033D01*
X134524639Y-99198026D01*
X134455514Y-99214217D01*
X134388608Y-99190465D01*
X134373411Y-99177506D01*
X133640405Y-98444500D01*
X133606379Y-98382188D01*
X133603500Y-98355405D01*
X133603500Y-97963595D01*
X133623502Y-97895474D01*
X133677158Y-97848981D01*
X133747432Y-97838877D01*
X133812012Y-97868371D01*
G37*
%TD.AperFunction*%
%TA.AperFunction,NonConductor*%
G36*
X150009334Y-98557435D02*
G01*
X150043541Y-98619647D01*
X150046500Y-98646791D01*
X150046500Y-99385764D01*
X150026498Y-99453885D01*
X149972842Y-99500378D01*
X149902568Y-99510482D01*
X149837988Y-99480988D01*
X149824520Y-99466339D01*
X149824123Y-99466683D01*
X149676523Y-99296588D01*
X149676521Y-99296586D01*
X149673023Y-99292555D01*
X149577483Y-99214217D01*
X149498873Y-99149760D01*
X149498867Y-99149756D01*
X149494745Y-99146376D01*
X149463250Y-99128448D01*
X149413945Y-99077368D01*
X149400083Y-99007738D01*
X149426066Y-98941667D01*
X149455216Y-98914427D01*
X149515823Y-98873624D01*
X149576819Y-98832559D01*
X149582235Y-98827393D01*
X149650036Y-98762713D01*
X149743635Y-98673424D01*
X149755778Y-98657103D01*
X149819411Y-98571578D01*
X149876122Y-98528865D01*
X149946922Y-98523592D01*
X150009334Y-98557435D01*
G37*
%TD.AperFunction*%
%TA.AperFunction,NonConductor*%
G36*
X120667365Y-98403502D02*
G01*
X120713858Y-98457158D01*
X120723962Y-98527432D01*
X120713439Y-98562750D01*
X120701930Y-98587432D01*
X120695716Y-98600757D01*
X120694294Y-98606065D01*
X120694293Y-98606067D01*
X120683381Y-98646791D01*
X120636457Y-98821913D01*
X120616502Y-99050000D01*
X120636457Y-99278087D01*
X120637881Y-99283400D01*
X120637881Y-99283402D01*
X120684635Y-99457889D01*
X120682945Y-99528865D01*
X120643151Y-99587661D01*
X120577887Y-99615609D01*
X120562928Y-99616500D01*
X118233096Y-99616500D01*
X118164975Y-99596498D01*
X118125377Y-99555866D01*
X118108993Y-99528865D01*
X118059123Y-99446683D01*
X118028860Y-99411808D01*
X117911523Y-99276588D01*
X117911521Y-99276586D01*
X117908023Y-99272555D01*
X117827423Y-99206467D01*
X117733873Y-99129760D01*
X117733867Y-99129756D01*
X117729745Y-99126376D01*
X117698250Y-99108448D01*
X117648945Y-99057368D01*
X117635083Y-98987738D01*
X117661066Y-98921667D01*
X117690216Y-98894427D01*
X117721116Y-98873624D01*
X117811819Y-98812559D01*
X117978635Y-98653424D01*
X118116254Y-98468458D01*
X118118670Y-98463706D01*
X118118675Y-98463698D01*
X118124422Y-98452394D01*
X118173125Y-98400737D01*
X118236738Y-98383500D01*
X120599244Y-98383500D01*
X120667365Y-98403502D01*
G37*
%TD.AperFunction*%
%TA.AperFunction,NonConductor*%
G36*
X125673527Y-97163502D02*
G01*
X125694501Y-97180405D01*
X126716343Y-98202247D01*
X126723887Y-98210537D01*
X126728000Y-98217018D01*
X126733777Y-98222443D01*
X126777667Y-98263658D01*
X126780509Y-98266413D01*
X126800231Y-98286135D01*
X126803355Y-98288558D01*
X126803359Y-98288562D01*
X126803424Y-98288612D01*
X126812445Y-98296317D01*
X126844679Y-98326586D01*
X126851627Y-98330405D01*
X126851629Y-98330407D01*
X126862432Y-98336346D01*
X126878959Y-98347202D01*
X126888698Y-98354757D01*
X126888700Y-98354758D01*
X126894960Y-98359614D01*
X126935540Y-98377174D01*
X126946188Y-98382391D01*
X126971849Y-98396498D01*
X126984940Y-98403695D01*
X126992616Y-98405666D01*
X126992619Y-98405667D01*
X127004562Y-98408733D01*
X127023267Y-98415137D01*
X127041855Y-98423181D01*
X127049678Y-98424420D01*
X127049688Y-98424423D01*
X127085524Y-98430099D01*
X127097144Y-98432505D01*
X127126209Y-98439967D01*
X127139970Y-98443500D01*
X127160224Y-98443500D01*
X127179934Y-98445051D01*
X127199943Y-98448220D01*
X127207835Y-98447474D01*
X127243961Y-98444059D01*
X127255819Y-98443500D01*
X128193646Y-98443500D01*
X128261767Y-98463502D01*
X128308260Y-98517158D01*
X128318364Y-98587432D01*
X128315353Y-98602111D01*
X128303381Y-98646791D01*
X128256457Y-98821913D01*
X128236502Y-99050000D01*
X128256457Y-99278087D01*
X128257881Y-99283400D01*
X128257881Y-99283402D01*
X128259426Y-99289168D01*
X128315661Y-99499037D01*
X128315716Y-99499243D01*
X128315675Y-99499254D01*
X128320060Y-99568258D01*
X128285543Y-99630298D01*
X128222963Y-99663829D01*
X128197156Y-99666500D01*
X127334594Y-99666500D01*
X127266473Y-99646498D01*
X127245503Y-99629599D01*
X126273641Y-98657736D01*
X126266112Y-98649462D01*
X126262000Y-98642982D01*
X126212348Y-98596356D01*
X126209507Y-98593602D01*
X126189770Y-98573865D01*
X126186573Y-98571385D01*
X126177551Y-98563680D01*
X126151100Y-98538841D01*
X126145321Y-98533414D01*
X126138375Y-98529595D01*
X126138372Y-98529593D01*
X126127566Y-98523652D01*
X126111047Y-98512801D01*
X126110583Y-98512441D01*
X126095041Y-98500386D01*
X126087772Y-98497241D01*
X126087768Y-98497238D01*
X126054463Y-98482826D01*
X126043813Y-98477609D01*
X126005060Y-98456305D01*
X125985437Y-98451267D01*
X125966734Y-98444863D01*
X125955420Y-98439967D01*
X125955419Y-98439967D01*
X125948145Y-98436819D01*
X125940322Y-98435580D01*
X125940312Y-98435577D01*
X125904476Y-98429901D01*
X125892856Y-98427495D01*
X125857711Y-98418472D01*
X125857710Y-98418472D01*
X125850030Y-98416500D01*
X125829776Y-98416500D01*
X125810065Y-98414949D01*
X125797886Y-98413020D01*
X125790057Y-98411780D01*
X125782165Y-98412526D01*
X125746039Y-98415941D01*
X125734181Y-98416500D01*
X123149394Y-98416500D01*
X123081273Y-98396498D01*
X123046181Y-98362771D01*
X122939357Y-98210211D01*
X122939355Y-98210208D01*
X122936198Y-98205700D01*
X122774300Y-98043802D01*
X122769792Y-98040645D01*
X122769789Y-98040643D01*
X122682853Y-97979770D01*
X122586749Y-97912477D01*
X122581767Y-97910154D01*
X122581762Y-97910151D01*
X122547543Y-97894195D01*
X122494258Y-97847278D01*
X122474797Y-97779001D01*
X122495339Y-97711041D01*
X122547543Y-97665805D01*
X122581762Y-97649849D01*
X122581767Y-97649846D01*
X122586749Y-97647523D01*
X122719928Y-97554270D01*
X122769789Y-97519357D01*
X122769792Y-97519355D01*
X122774300Y-97516198D01*
X122936198Y-97354300D01*
X122943527Y-97343833D01*
X123046181Y-97197229D01*
X123101638Y-97152901D01*
X123149394Y-97143500D01*
X125605406Y-97143500D01*
X125673527Y-97163502D01*
G37*
%TD.AperFunction*%
%TA.AperFunction,NonConductor*%
G36*
X142632012Y-100022964D02*
G01*
X142638595Y-100029093D01*
X142675700Y-100066198D01*
X142680208Y-100069355D01*
X142680211Y-100069357D01*
X142749949Y-100118188D01*
X142863251Y-100197523D01*
X142868233Y-100199846D01*
X142868238Y-100199849D01*
X142902457Y-100215805D01*
X142955742Y-100262722D01*
X142975203Y-100330999D01*
X142954661Y-100398959D01*
X142902457Y-100444195D01*
X142868238Y-100460151D01*
X142868233Y-100460154D01*
X142863251Y-100462477D01*
X142758389Y-100535902D01*
X142680211Y-100590643D01*
X142680208Y-100590645D01*
X142675700Y-100593802D01*
X142638595Y-100630907D01*
X142576283Y-100664933D01*
X142505468Y-100659868D01*
X142448632Y-100617321D01*
X142423821Y-100550801D01*
X142423500Y-100541812D01*
X142423500Y-100118188D01*
X142443502Y-100050067D01*
X142497158Y-100003574D01*
X142567432Y-99993470D01*
X142632012Y-100022964D01*
G37*
%TD.AperFunction*%
%TA.AperFunction,NonConductor*%
G36*
X137099221Y-99879565D02*
G01*
X137135208Y-99940765D01*
X137139000Y-99971445D01*
X137139000Y-100688555D01*
X137118998Y-100756676D01*
X137065342Y-100803169D01*
X136995068Y-100813273D01*
X136930488Y-100783779D01*
X136912972Y-100764357D01*
X136912892Y-100764424D01*
X136911012Y-100762183D01*
X136909784Y-100760822D01*
X136906198Y-100755700D01*
X136744300Y-100593802D01*
X136739792Y-100590645D01*
X136739789Y-100590643D01*
X136661611Y-100535902D01*
X136556749Y-100462477D01*
X136551767Y-100460154D01*
X136551762Y-100460151D01*
X136517543Y-100444195D01*
X136464258Y-100397278D01*
X136444797Y-100329001D01*
X136465339Y-100261041D01*
X136517543Y-100215805D01*
X136551762Y-100199849D01*
X136551767Y-100199846D01*
X136556749Y-100197523D01*
X136670051Y-100118188D01*
X136739789Y-100069357D01*
X136739792Y-100069355D01*
X136744300Y-100066198D01*
X136906198Y-99904300D01*
X136909785Y-99899177D01*
X136910043Y-99898971D01*
X136912892Y-99895576D01*
X136913574Y-99896148D01*
X136965240Y-99854847D01*
X137035859Y-99847536D01*
X137099221Y-99879565D01*
G37*
%TD.AperFunction*%
%TA.AperFunction,NonConductor*%
G36*
X125523527Y-99703502D02*
G01*
X125544497Y-99720401D01*
X126516359Y-100692264D01*
X126523888Y-100700538D01*
X126528000Y-100707018D01*
X126533780Y-100712446D01*
X126533781Y-100712447D01*
X126561684Y-100738650D01*
X126597650Y-100799862D01*
X126594813Y-100870802D01*
X126554073Y-100928946D01*
X126488365Y-100955835D01*
X126475432Y-100956500D01*
X124944595Y-100956500D01*
X124876474Y-100936498D01*
X124855500Y-100919595D01*
X123834500Y-99898595D01*
X123800474Y-99836283D01*
X123805539Y-99765468D01*
X123848086Y-99708632D01*
X123914606Y-99683821D01*
X123923595Y-99683500D01*
X125455406Y-99683500D01*
X125523527Y-99703502D01*
G37*
%TD.AperFunction*%
%TA.AperFunction,NonConductor*%
G36*
X123426053Y-101284195D02*
G01*
X123441249Y-101297153D01*
X124126343Y-101982247D01*
X124133887Y-101990537D01*
X124138000Y-101997018D01*
X124143777Y-102002443D01*
X124148831Y-102008552D01*
X124146626Y-102010376D01*
X124175703Y-102059859D01*
X124172867Y-102130799D01*
X124132128Y-102188944D01*
X124066420Y-102215834D01*
X124053485Y-102216500D01*
X123504594Y-102216500D01*
X123436473Y-102196498D01*
X123415499Y-102179595D01*
X123239152Y-102003248D01*
X123205126Y-101940936D01*
X123206541Y-101881541D01*
X123222118Y-101823409D01*
X123222120Y-101823398D01*
X123223543Y-101818087D01*
X123243498Y-101590000D01*
X123231989Y-101458450D01*
X123226633Y-101397230D01*
X123240622Y-101327625D01*
X123290022Y-101276632D01*
X123359148Y-101260442D01*
X123426053Y-101284195D01*
G37*
%TD.AperFunction*%
%TA.AperFunction,NonConductor*%
G36*
X137099221Y-102419565D02*
G01*
X137135208Y-102480765D01*
X137139000Y-102511445D01*
X137139000Y-103228555D01*
X137118998Y-103296676D01*
X137065342Y-103343169D01*
X136995068Y-103353273D01*
X136930488Y-103323779D01*
X136912972Y-103304357D01*
X136912892Y-103304424D01*
X136911012Y-103302183D01*
X136909784Y-103300822D01*
X136906198Y-103295700D01*
X136744300Y-103133802D01*
X136739792Y-103130645D01*
X136739789Y-103130643D01*
X136635307Y-103057484D01*
X136556749Y-103002477D01*
X136551767Y-103000154D01*
X136551762Y-103000151D01*
X136517543Y-102984195D01*
X136464258Y-102937278D01*
X136444797Y-102869001D01*
X136465339Y-102801041D01*
X136517543Y-102755805D01*
X136551762Y-102739849D01*
X136551767Y-102739846D01*
X136556749Y-102737523D01*
X136661611Y-102664098D01*
X136739789Y-102609357D01*
X136739792Y-102609355D01*
X136744300Y-102606198D01*
X136906198Y-102444300D01*
X136909785Y-102439177D01*
X136910043Y-102438971D01*
X136912892Y-102435576D01*
X136913574Y-102436148D01*
X136965240Y-102394847D01*
X137035859Y-102387536D01*
X137099221Y-102419565D01*
G37*
%TD.AperFunction*%
%TA.AperFunction,NonConductor*%
G36*
X120686017Y-100903502D02*
G01*
X120732510Y-100957158D01*
X120742614Y-101027432D01*
X120732091Y-101062750D01*
X120705673Y-101119405D01*
X120695716Y-101140757D01*
X120694294Y-101146065D01*
X120694293Y-101146067D01*
X120642844Y-101338076D01*
X120636457Y-101361913D01*
X120616502Y-101590000D01*
X120636457Y-101818087D01*
X120637881Y-101823400D01*
X120637881Y-101823402D01*
X120693680Y-102031643D01*
X120695716Y-102039243D01*
X120698039Y-102044224D01*
X120698039Y-102044225D01*
X120790151Y-102241762D01*
X120790154Y-102241767D01*
X120792477Y-102246749D01*
X120828562Y-102298283D01*
X120896177Y-102394847D01*
X120923802Y-102434300D01*
X121085700Y-102596198D01*
X121090208Y-102599355D01*
X121090211Y-102599357D01*
X121099981Y-102606198D01*
X121273251Y-102727523D01*
X121278233Y-102729846D01*
X121278238Y-102729849D01*
X121312457Y-102745805D01*
X121365742Y-102792722D01*
X121385203Y-102860999D01*
X121364661Y-102928959D01*
X121312457Y-102974195D01*
X121278238Y-102990151D01*
X121278233Y-102990154D01*
X121273251Y-102992477D01*
X121258970Y-103002477D01*
X121090211Y-103120643D01*
X121090208Y-103120645D01*
X121085700Y-103123802D01*
X120923802Y-103285700D01*
X120920645Y-103290208D01*
X120920643Y-103290211D01*
X120813819Y-103442771D01*
X120758362Y-103487099D01*
X120710606Y-103496500D01*
X118527094Y-103496500D01*
X118458973Y-103476498D01*
X118437999Y-103459595D01*
X118352905Y-103374501D01*
X118318879Y-103312189D01*
X118316000Y-103285406D01*
X118316000Y-102099600D01*
X118311014Y-102051542D01*
X118305738Y-102000692D01*
X118305737Y-102000688D01*
X118305026Y-101993834D01*
X118301161Y-101982247D01*
X118251368Y-101833002D01*
X118249050Y-101826054D01*
X118155978Y-101675652D01*
X118030803Y-101550695D01*
X117885160Y-101460919D01*
X117837668Y-101408148D01*
X117826244Y-101338076D01*
X117854518Y-101272952D01*
X117864305Y-101262490D01*
X117945632Y-101184907D01*
X117978635Y-101153424D01*
X118116254Y-100968458D01*
X118118670Y-100963706D01*
X118118675Y-100963698D01*
X118124422Y-100952394D01*
X118173125Y-100900737D01*
X118236738Y-100883500D01*
X120617896Y-100883500D01*
X120686017Y-100903502D01*
G37*
%TD.AperFunction*%
%TA.AperFunction,NonConductor*%
G36*
X130962198Y-101998274D02*
G01*
X130982334Y-102014634D01*
X131869595Y-102901895D01*
X131903621Y-102964207D01*
X131906500Y-102990990D01*
X131906500Y-103396405D01*
X131886498Y-103464526D01*
X131832842Y-103511019D01*
X131762568Y-103521123D01*
X131697988Y-103491629D01*
X131691405Y-103485500D01*
X130665555Y-102459650D01*
X130631529Y-102397338D01*
X130636594Y-102326523D01*
X130651438Y-102298283D01*
X130654722Y-102293594D01*
X130687523Y-102246749D01*
X130689847Y-102241764D01*
X130689851Y-102241758D01*
X130779044Y-102050480D01*
X130825961Y-101997194D01*
X130894238Y-101977733D01*
X130962198Y-101998274D01*
G37*
%TD.AperFunction*%
%TA.AperFunction,NonConductor*%
G36*
X128278039Y-103503502D02*
G01*
X128324532Y-103557158D01*
X128334636Y-103627432D01*
X128324112Y-103662751D01*
X128315716Y-103680757D01*
X128314294Y-103686065D01*
X128314293Y-103686067D01*
X128257881Y-103896598D01*
X128256457Y-103901913D01*
X128236502Y-104130000D01*
X128256457Y-104358087D01*
X128257881Y-104363400D01*
X128257881Y-104363402D01*
X128313680Y-104571643D01*
X128315716Y-104579243D01*
X128318039Y-104584224D01*
X128318039Y-104584225D01*
X128410151Y-104781762D01*
X128410154Y-104781767D01*
X128412477Y-104786749D01*
X128508061Y-104923257D01*
X128539551Y-104968229D01*
X128562239Y-105035503D01*
X128544954Y-105104364D01*
X128493184Y-105152948D01*
X128436338Y-105166500D01*
X123043662Y-105166500D01*
X122975541Y-105146498D01*
X122929048Y-105092842D01*
X122918944Y-105022568D01*
X122940449Y-104968229D01*
X122971939Y-104923257D01*
X123067523Y-104786749D01*
X123069846Y-104781767D01*
X123069849Y-104781762D01*
X123161961Y-104584225D01*
X123161961Y-104584224D01*
X123164284Y-104579243D01*
X123166321Y-104571643D01*
X123222119Y-104363402D01*
X123222119Y-104363400D01*
X123223543Y-104358087D01*
X123243498Y-104130000D01*
X123223543Y-103901913D01*
X123222119Y-103896598D01*
X123165707Y-103686067D01*
X123165706Y-103686065D01*
X123164284Y-103680757D01*
X123155888Y-103662751D01*
X123145226Y-103592559D01*
X123174205Y-103527746D01*
X123233625Y-103488890D01*
X123270082Y-103483500D01*
X128209918Y-103483500D01*
X128278039Y-103503502D01*
G37*
%TD.AperFunction*%
%TA.AperFunction,NonConductor*%
G36*
X138299559Y-104772073D02*
G01*
X138346052Y-104825729D01*
X138356156Y-104896003D01*
X138326662Y-104960583D01*
X138320533Y-104967166D01*
X137588104Y-105699595D01*
X137525792Y-105733621D01*
X137499009Y-105736500D01*
X136497386Y-105736500D01*
X136429265Y-105716498D01*
X136408291Y-105699595D01*
X136293509Y-105584813D01*
X136259483Y-105522501D01*
X136264548Y-105451686D01*
X136307095Y-105394850D01*
X136339509Y-105377317D01*
X136343935Y-105375706D01*
X136349243Y-105374284D01*
X136354220Y-105371963D01*
X136354226Y-105371961D01*
X136551762Y-105279849D01*
X136551767Y-105279846D01*
X136556749Y-105277523D01*
X136663787Y-105202574D01*
X136739789Y-105149357D01*
X136739792Y-105149355D01*
X136744300Y-105146198D01*
X136906198Y-104984300D01*
X136910472Y-104978197D01*
X137031794Y-104804931D01*
X137087251Y-104760603D01*
X137139000Y-104756078D01*
X137139000Y-104752071D01*
X138231438Y-104752071D01*
X138299559Y-104772073D01*
G37*
%TD.AperFunction*%
%TA.AperFunction,NonConductor*%
G36*
X145904532Y-102175538D02*
G01*
X145961368Y-102218085D01*
X145986179Y-102284605D01*
X145986500Y-102293594D01*
X145986500Y-104465406D01*
X145966498Y-104533527D01*
X145949595Y-104554501D01*
X143004500Y-107499595D01*
X142942188Y-107533621D01*
X142915405Y-107536500D01*
X141323594Y-107536500D01*
X141255473Y-107516498D01*
X141208980Y-107462842D01*
X141198876Y-107392568D01*
X141228370Y-107327988D01*
X141234499Y-107321405D01*
X143106752Y-105449152D01*
X143169064Y-105415126D01*
X143228459Y-105416541D01*
X143286591Y-105432118D01*
X143286602Y-105432120D01*
X143291913Y-105433543D01*
X143520000Y-105453498D01*
X143748087Y-105433543D01*
X143753400Y-105432119D01*
X143753402Y-105432119D01*
X143963933Y-105375707D01*
X143963935Y-105375706D01*
X143969243Y-105374284D01*
X143987637Y-105365707D01*
X144171762Y-105279849D01*
X144171767Y-105279846D01*
X144176749Y-105277523D01*
X144283787Y-105202574D01*
X144359789Y-105149357D01*
X144359792Y-105149355D01*
X144364300Y-105146198D01*
X144526198Y-104984300D01*
X144530472Y-104978197D01*
X144627395Y-104839776D01*
X144657523Y-104796749D01*
X144659846Y-104791767D01*
X144659849Y-104791762D01*
X144751961Y-104594225D01*
X144751961Y-104594224D01*
X144754284Y-104589243D01*
X144758387Y-104573933D01*
X144812119Y-104373402D01*
X144812119Y-104373400D01*
X144813543Y-104368087D01*
X144833498Y-104140000D01*
X144813543Y-103911913D01*
X144812119Y-103906598D01*
X144755707Y-103696067D01*
X144755706Y-103696065D01*
X144754284Y-103690757D01*
X144747917Y-103677103D01*
X144659849Y-103488238D01*
X144659846Y-103488233D01*
X144657523Y-103483251D01*
X144654362Y-103478736D01*
X144650263Y-103472881D01*
X144627578Y-103405606D01*
X144644866Y-103336747D01*
X144664384Y-103311520D01*
X145771405Y-102204499D01*
X145833717Y-102170473D01*
X145904532Y-102175538D01*
G37*
%TD.AperFunction*%
%TA.AperFunction,NonConductor*%
G36*
X147462012Y-103680280D02*
G01*
X147474665Y-103692923D01*
X147481323Y-103700595D01*
X147521977Y-103747445D01*
X147526108Y-103750832D01*
X147696127Y-103890240D01*
X147696133Y-103890244D01*
X147700255Y-103893624D01*
X147900333Y-104007515D01*
X147949638Y-104058596D01*
X147964000Y-104117016D01*
X147964000Y-104741406D01*
X147943998Y-104809527D01*
X147927095Y-104830501D01*
X144768000Y-107989595D01*
X144705688Y-108023621D01*
X144678905Y-108026500D01*
X144573594Y-108026500D01*
X144505473Y-108006498D01*
X144458980Y-107952842D01*
X144448876Y-107882568D01*
X144478370Y-107817988D01*
X144484499Y-107811405D01*
X147012253Y-105283652D01*
X147020539Y-105276112D01*
X147027018Y-105272000D01*
X147036565Y-105261834D01*
X147073643Y-105222349D01*
X147076398Y-105219507D01*
X147096135Y-105199770D01*
X147098615Y-105196573D01*
X147106320Y-105187551D01*
X147131159Y-105161100D01*
X147136586Y-105155321D01*
X147140405Y-105148375D01*
X147140407Y-105148372D01*
X147146348Y-105137566D01*
X147157199Y-105121047D01*
X147164758Y-105111301D01*
X147169614Y-105105041D01*
X147172759Y-105097772D01*
X147172762Y-105097768D01*
X147187174Y-105064463D01*
X147192391Y-105053813D01*
X147213695Y-105015060D01*
X147218733Y-104995437D01*
X147225137Y-104976734D01*
X147230033Y-104965420D01*
X147230033Y-104965419D01*
X147233181Y-104958145D01*
X147234420Y-104950322D01*
X147234423Y-104950312D01*
X147240099Y-104914476D01*
X147242505Y-104902856D01*
X147251528Y-104867711D01*
X147251528Y-104867710D01*
X147253500Y-104860030D01*
X147253500Y-104839776D01*
X147255051Y-104820065D01*
X147256980Y-104807886D01*
X147258220Y-104800057D01*
X147254059Y-104756038D01*
X147253500Y-104744181D01*
X147253500Y-103775504D01*
X147273502Y-103707383D01*
X147327158Y-103660890D01*
X147397432Y-103650786D01*
X147462012Y-103680280D01*
G37*
%TD.AperFunction*%
%TA.AperFunction,NonConductor*%
G36*
X129912517Y-105408230D02*
G01*
X129963248Y-105439152D01*
X132335500Y-107811405D01*
X132369526Y-107873717D01*
X132364461Y-107944533D01*
X132321914Y-108001368D01*
X132255394Y-108026179D01*
X132246405Y-108026500D01*
X129336643Y-108026500D01*
X129268522Y-108006498D01*
X129222029Y-107952842D01*
X129210643Y-107900500D01*
X129210643Y-105551314D01*
X129230645Y-105483193D01*
X129284301Y-105436700D01*
X129347624Y-105425793D01*
X129544524Y-105443019D01*
X129544525Y-105443019D01*
X129550000Y-105443498D01*
X129778087Y-105423543D01*
X129783398Y-105422120D01*
X129783409Y-105422118D01*
X129841541Y-105406541D01*
X129912517Y-105408230D01*
G37*
%TD.AperFunction*%
%TA.AperFunction,NonConductor*%
G36*
X117311027Y-104128502D02*
G01*
X117332001Y-104145405D01*
X117708843Y-104522247D01*
X117716387Y-104530537D01*
X117720500Y-104537018D01*
X117726277Y-104542443D01*
X117770167Y-104583658D01*
X117773009Y-104586413D01*
X117792731Y-104606135D01*
X117795873Y-104608572D01*
X117795933Y-104608619D01*
X117804945Y-104616317D01*
X117830536Y-104640347D01*
X117837179Y-104646586D01*
X117844122Y-104650403D01*
X117854931Y-104656345D01*
X117871453Y-104667198D01*
X117887459Y-104679614D01*
X117894737Y-104682764D01*
X117894738Y-104682764D01*
X117928037Y-104697174D01*
X117938687Y-104702391D01*
X117977440Y-104723695D01*
X117985115Y-104725666D01*
X117985116Y-104725666D01*
X117997062Y-104728733D01*
X118015767Y-104735137D01*
X118034355Y-104743181D01*
X118042178Y-104744420D01*
X118042188Y-104744423D01*
X118078024Y-104750099D01*
X118089644Y-104752505D01*
X118121186Y-104760603D01*
X118132470Y-104763500D01*
X118152724Y-104763500D01*
X118172434Y-104765051D01*
X118192443Y-104768220D01*
X118200335Y-104767474D01*
X118236461Y-104764059D01*
X118248319Y-104763500D01*
X120710606Y-104763500D01*
X120778727Y-104783502D01*
X120813819Y-104817229D01*
X120919551Y-104968229D01*
X120923802Y-104974300D01*
X121085700Y-105136198D01*
X121090208Y-105139355D01*
X121090211Y-105139357D01*
X121146622Y-105178856D01*
X121273251Y-105267523D01*
X121278233Y-105269846D01*
X121278238Y-105269849D01*
X121429698Y-105340475D01*
X121480757Y-105364284D01*
X121486065Y-105365706D01*
X121486067Y-105365707D01*
X121696598Y-105422119D01*
X121696600Y-105422119D01*
X121701913Y-105423543D01*
X121930000Y-105443498D01*
X122092375Y-105429292D01*
X122161980Y-105443281D01*
X122212973Y-105492681D01*
X122229357Y-105554813D01*
X122229357Y-107900500D01*
X122209355Y-107968621D01*
X122155699Y-108015114D01*
X122103357Y-108026500D01*
X120064595Y-108026500D01*
X119996474Y-108006498D01*
X119975500Y-107989595D01*
X116309500Y-104323595D01*
X116275474Y-104261283D01*
X116280539Y-104190468D01*
X116323086Y-104133632D01*
X116389606Y-104108821D01*
X116398595Y-104108500D01*
X117242906Y-104108500D01*
X117311027Y-104128502D01*
G37*
%TD.AperFunction*%
%TA.AperFunction,NonConductor*%
G36*
X123842193Y-77998502D02*
G01*
X123888686Y-78052158D01*
X123900072Y-78104500D01*
X123900072Y-83888500D01*
X125811405Y-83888500D01*
X125879526Y-83908502D01*
X125926019Y-83962158D01*
X125936123Y-84032432D01*
X125906629Y-84097012D01*
X125900500Y-84103595D01*
X123453595Y-86550500D01*
X123391283Y-86584526D01*
X123320468Y-86579461D01*
X123263632Y-86536914D01*
X123238821Y-86470394D01*
X123238500Y-86461405D01*
X123238500Y-85501866D01*
X123231745Y-85439684D01*
X123180615Y-85303295D01*
X123093261Y-85186739D01*
X122976705Y-85099385D01*
X122840316Y-85048255D01*
X122778134Y-85041500D01*
X121081866Y-85041500D01*
X121019684Y-85048255D01*
X120883295Y-85099385D01*
X120766739Y-85186739D01*
X120679385Y-85303295D01*
X120628255Y-85439684D01*
X120621500Y-85501866D01*
X120621500Y-85590500D01*
X120601498Y-85658621D01*
X120547842Y-85705114D01*
X120495500Y-85716500D01*
X118311267Y-85716500D01*
X118300084Y-85715973D01*
X118292591Y-85714298D01*
X118284665Y-85714547D01*
X118284664Y-85714547D01*
X118224514Y-85716438D01*
X118220555Y-85716500D01*
X118192644Y-85716500D01*
X118188710Y-85716997D01*
X118188709Y-85716997D01*
X118188644Y-85717005D01*
X118176807Y-85717938D01*
X118144549Y-85718952D01*
X118140530Y-85719078D01*
X118132611Y-85719327D01*
X118113157Y-85724979D01*
X118093800Y-85728987D01*
X118081570Y-85730532D01*
X118081569Y-85730532D01*
X118073703Y-85731526D01*
X118066332Y-85734445D01*
X118066330Y-85734445D01*
X118032588Y-85747804D01*
X118021358Y-85751649D01*
X117986517Y-85761771D01*
X117986516Y-85761771D01*
X117978907Y-85763982D01*
X117972088Y-85768015D01*
X117972083Y-85768017D01*
X117961472Y-85774293D01*
X117943724Y-85782988D01*
X117924883Y-85790448D01*
X117918467Y-85795110D01*
X117918466Y-85795110D01*
X117889113Y-85816436D01*
X117879193Y-85822952D01*
X117847965Y-85841420D01*
X117847962Y-85841422D01*
X117841138Y-85845458D01*
X117826817Y-85859779D01*
X117811784Y-85872619D01*
X117795393Y-85884528D01*
X117790343Y-85890632D01*
X117790338Y-85890637D01*
X117767207Y-85918598D01*
X117759217Y-85927379D01*
X117308708Y-86377887D01*
X117246396Y-86411912D01*
X117197193Y-86412780D01*
X117089895Y-86393378D01*
X117089894Y-86393378D01*
X117085808Y-86392639D01*
X117068086Y-86391803D01*
X117063144Y-86391570D01*
X117063137Y-86391570D01*
X117061656Y-86391500D01*
X116649610Y-86391500D01*
X116582691Y-86397178D01*
X116483091Y-86405629D01*
X116483087Y-86405630D01*
X116477780Y-86406080D01*
X116472625Y-86407418D01*
X116472619Y-86407419D01*
X116259797Y-86462657D01*
X116259793Y-86462658D01*
X116254628Y-86463999D01*
X116249762Y-86466191D01*
X116249759Y-86466192D01*
X116177827Y-86498595D01*
X116044425Y-86558688D01*
X115853181Y-86687441D01*
X115686365Y-86846576D01*
X115548746Y-87031542D01*
X115546330Y-87036293D01*
X115546328Y-87036297D01*
X115508893Y-87109927D01*
X115444260Y-87237051D01*
X115442678Y-87242145D01*
X115442677Y-87242148D01*
X115403329Y-87368868D01*
X115375893Y-87457227D01*
X115375192Y-87462516D01*
X115347562Y-87670989D01*
X115345602Y-87685774D01*
X115345802Y-87691103D01*
X115345802Y-87691105D01*
X115349606Y-87792434D01*
X115354251Y-87916158D01*
X115355346Y-87921377D01*
X115375100Y-88015524D01*
X115401593Y-88141791D01*
X115403551Y-88146750D01*
X115403552Y-88146752D01*
X115437713Y-88233251D01*
X115486276Y-88356221D01*
X115489043Y-88360780D01*
X115489044Y-88360783D01*
X115537574Y-88440757D01*
X115605877Y-88553317D01*
X115609374Y-88557347D01*
X115748443Y-88717610D01*
X115756977Y-88727445D01*
X115761108Y-88730832D01*
X115931127Y-88870240D01*
X115931133Y-88870244D01*
X115935255Y-88873624D01*
X115966750Y-88891552D01*
X116016055Y-88942632D01*
X116029917Y-89012262D01*
X116003934Y-89078333D01*
X115974784Y-89105573D01*
X115853181Y-89187441D01*
X115849324Y-89191120D01*
X115849322Y-89191122D01*
X115838938Y-89201028D01*
X115686365Y-89346576D01*
X115548746Y-89531542D01*
X115546330Y-89536293D01*
X115546328Y-89536297D01*
X115523085Y-89582014D01*
X115444260Y-89737051D01*
X115442678Y-89742145D01*
X115442677Y-89742148D01*
X115402732Y-89870793D01*
X115375893Y-89957227D01*
X115375192Y-89962516D01*
X115354400Y-90119394D01*
X115345602Y-90185774D01*
X115345802Y-90191103D01*
X115345802Y-90191105D01*
X115346455Y-90208500D01*
X115354251Y-90416158D01*
X115401593Y-90641791D01*
X115403551Y-90646750D01*
X115403552Y-90646752D01*
X115457459Y-90783251D01*
X115486276Y-90856221D01*
X115489043Y-90860780D01*
X115489044Y-90860783D01*
X115564891Y-90985775D01*
X115605877Y-91053317D01*
X115609374Y-91057347D01*
X115734822Y-91201913D01*
X115756977Y-91227445D01*
X115781553Y-91247596D01*
X115931127Y-91370240D01*
X115931133Y-91370244D01*
X115935255Y-91373624D01*
X115966750Y-91391552D01*
X116016055Y-91442632D01*
X116029917Y-91512262D01*
X116003934Y-91578333D01*
X115974784Y-91605573D01*
X115853181Y-91687441D01*
X115849324Y-91691120D01*
X115849322Y-91691122D01*
X115806952Y-91731541D01*
X115686365Y-91846576D01*
X115683182Y-91850854D01*
X115645571Y-91901405D01*
X115548746Y-92031542D01*
X115546330Y-92036293D01*
X115546328Y-92036297D01*
X115530098Y-92068220D01*
X115444260Y-92237051D01*
X115442678Y-92242145D01*
X115442677Y-92242148D01*
X115399367Y-92381629D01*
X115375893Y-92457227D01*
X115375192Y-92462516D01*
X115346498Y-92679017D01*
X115345602Y-92685774D01*
X115345802Y-92691103D01*
X115345802Y-92691105D01*
X115347310Y-92731283D01*
X115354251Y-92916158D01*
X115401593Y-93141791D01*
X115403551Y-93146750D01*
X115403552Y-93146752D01*
X115418355Y-93184234D01*
X115486276Y-93356221D01*
X115605877Y-93553317D01*
X115609374Y-93557347D01*
X115695938Y-93657103D01*
X115756977Y-93727445D01*
X115768140Y-93736598D01*
X115931127Y-93870240D01*
X115931133Y-93870244D01*
X115935255Y-93873624D01*
X115966750Y-93891552D01*
X116016055Y-93942632D01*
X116029917Y-94012262D01*
X116003934Y-94078333D01*
X115974784Y-94105573D01*
X115853181Y-94187441D01*
X115849324Y-94191120D01*
X115849322Y-94191122D01*
X115831538Y-94208087D01*
X115686365Y-94346576D01*
X115683182Y-94350854D01*
X115664936Y-94375378D01*
X115548746Y-94531542D01*
X115546330Y-94536293D01*
X115546328Y-94536297D01*
X115508292Y-94611110D01*
X115444260Y-94737051D01*
X115442678Y-94742145D01*
X115442677Y-94742148D01*
X115401972Y-94873238D01*
X115375893Y-94957227D01*
X115375192Y-94962516D01*
X115349030Y-95159912D01*
X115345602Y-95185774D01*
X115345802Y-95191103D01*
X115345802Y-95191105D01*
X115348915Y-95274034D01*
X115354251Y-95416158D01*
X115401593Y-95641791D01*
X115409191Y-95661028D01*
X115411765Y-95667547D01*
X115418185Y-95738253D01*
X115383669Y-95802926D01*
X114677747Y-96508848D01*
X114669461Y-96516388D01*
X114662982Y-96520500D01*
X114657557Y-96526277D01*
X114616357Y-96570151D01*
X114613602Y-96572993D01*
X114593865Y-96592730D01*
X114591385Y-96595927D01*
X114583682Y-96604947D01*
X114553414Y-96637179D01*
X114549595Y-96644125D01*
X114549593Y-96644128D01*
X114543652Y-96654934D01*
X114532801Y-96671453D01*
X114520386Y-96687459D01*
X114517241Y-96694728D01*
X114517238Y-96694732D01*
X114502826Y-96728037D01*
X114497609Y-96738687D01*
X114476305Y-96777440D01*
X114474334Y-96785115D01*
X114474334Y-96785116D01*
X114471267Y-96797062D01*
X114464863Y-96815766D01*
X114456819Y-96834355D01*
X114455580Y-96842178D01*
X114455577Y-96842188D01*
X114449901Y-96878024D01*
X114447495Y-96889644D01*
X114436500Y-96932470D01*
X114436500Y-96952724D01*
X114434949Y-96972434D01*
X114431780Y-96992443D01*
X114432526Y-97000335D01*
X114435941Y-97036461D01*
X114436500Y-97048319D01*
X114436500Y-103901233D01*
X114435973Y-103912416D01*
X114434298Y-103919909D01*
X114434547Y-103927835D01*
X114434547Y-103927836D01*
X114436438Y-103987986D01*
X114436500Y-103991945D01*
X114436500Y-104019856D01*
X114436997Y-104023790D01*
X114436997Y-104023791D01*
X114437005Y-104023856D01*
X114437938Y-104035693D01*
X114439327Y-104079889D01*
X114444978Y-104099339D01*
X114448987Y-104118700D01*
X114451526Y-104138797D01*
X114454445Y-104146168D01*
X114454445Y-104146170D01*
X114467804Y-104179912D01*
X114471649Y-104191142D01*
X114483982Y-104233593D01*
X114488015Y-104240412D01*
X114488017Y-104240417D01*
X114494293Y-104251028D01*
X114502988Y-104268776D01*
X114510448Y-104287617D01*
X114515110Y-104294033D01*
X114515110Y-104294034D01*
X114536436Y-104323387D01*
X114542952Y-104333307D01*
X114565458Y-104371362D01*
X114579779Y-104385683D01*
X114592619Y-104400716D01*
X114604528Y-104417107D01*
X114610634Y-104422158D01*
X114638605Y-104445298D01*
X114647384Y-104453288D01*
X119246343Y-109052247D01*
X119253887Y-109060537D01*
X119258000Y-109067018D01*
X119263777Y-109072443D01*
X119307667Y-109113658D01*
X119310509Y-109116413D01*
X119330230Y-109136134D01*
X119333425Y-109138612D01*
X119342447Y-109146318D01*
X119374679Y-109176586D01*
X119381628Y-109180406D01*
X119392432Y-109186346D01*
X119408956Y-109197199D01*
X119424959Y-109209613D01*
X119465543Y-109227176D01*
X119476173Y-109232383D01*
X119514940Y-109253695D01*
X119522617Y-109255666D01*
X119522622Y-109255668D01*
X119534558Y-109258732D01*
X119553266Y-109265137D01*
X119571855Y-109273181D01*
X119579680Y-109274420D01*
X119579682Y-109274421D01*
X119615519Y-109280097D01*
X119627140Y-109282504D01*
X119658959Y-109290673D01*
X119669970Y-109293500D01*
X119690231Y-109293500D01*
X119709940Y-109295051D01*
X119729943Y-109298219D01*
X119737835Y-109297473D01*
X119743062Y-109296979D01*
X119773954Y-109294059D01*
X119785811Y-109293500D01*
X144914733Y-109293500D01*
X144925916Y-109294027D01*
X144933409Y-109295702D01*
X144941335Y-109295453D01*
X144941336Y-109295453D01*
X145001486Y-109293562D01*
X145005445Y-109293500D01*
X145033356Y-109293500D01*
X145037291Y-109293003D01*
X145037356Y-109292995D01*
X145049193Y-109292062D01*
X145081451Y-109291048D01*
X145085470Y-109290922D01*
X145093389Y-109290673D01*
X145112843Y-109285021D01*
X145132200Y-109281013D01*
X145144430Y-109279468D01*
X145144431Y-109279468D01*
X145152297Y-109278474D01*
X145159668Y-109275555D01*
X145159670Y-109275555D01*
X145193412Y-109262196D01*
X145204642Y-109258351D01*
X145239483Y-109248229D01*
X145239484Y-109248229D01*
X145247093Y-109246018D01*
X145253912Y-109241985D01*
X145253917Y-109241983D01*
X145264528Y-109235707D01*
X145282276Y-109227012D01*
X145301117Y-109219552D01*
X145321487Y-109204753D01*
X145336887Y-109193564D01*
X145346807Y-109187048D01*
X145378035Y-109168580D01*
X145378038Y-109168578D01*
X145384862Y-109164542D01*
X145399183Y-109150221D01*
X145414217Y-109137380D01*
X145415932Y-109136134D01*
X145430607Y-109125472D01*
X145458798Y-109091395D01*
X145466788Y-109082616D01*
X148989747Y-105559657D01*
X148998037Y-105552113D01*
X149004518Y-105548000D01*
X149051159Y-105498332D01*
X149053913Y-105495491D01*
X149073635Y-105475769D01*
X149076112Y-105472576D01*
X149083817Y-105463555D01*
X149108659Y-105437100D01*
X149114086Y-105431321D01*
X149117907Y-105424371D01*
X149123846Y-105413568D01*
X149134702Y-105397041D01*
X149142257Y-105387302D01*
X149142258Y-105387300D01*
X149147114Y-105381040D01*
X149164674Y-105340460D01*
X149169891Y-105329812D01*
X149187375Y-105298009D01*
X149187376Y-105298007D01*
X149191195Y-105291060D01*
X149196233Y-105271437D01*
X149202637Y-105252734D01*
X149207533Y-105241420D01*
X149207533Y-105241419D01*
X149210681Y-105234145D01*
X149211920Y-105226322D01*
X149211923Y-105226312D01*
X149217599Y-105190476D01*
X149220005Y-105178856D01*
X149229028Y-105143711D01*
X149229028Y-105143710D01*
X149231000Y-105136030D01*
X149231000Y-105115776D01*
X149232551Y-105096065D01*
X149233062Y-105092842D01*
X149235720Y-105076057D01*
X149231559Y-105032038D01*
X149231000Y-105020181D01*
X149231000Y-104112378D01*
X149251002Y-104044257D01*
X149305250Y-103997496D01*
X149380710Y-103963504D01*
X149380714Y-103963502D01*
X149385575Y-103961312D01*
X149576819Y-103832559D01*
X149743635Y-103673424D01*
X149881254Y-103488458D01*
X149883902Y-103483251D01*
X149939193Y-103374501D01*
X149985740Y-103282949D01*
X150054107Y-103062773D01*
X150061680Y-103005634D01*
X150083698Y-102839511D01*
X150083698Y-102839506D01*
X150084398Y-102834226D01*
X150075749Y-102603842D01*
X150073328Y-102592301D01*
X150029502Y-102383428D01*
X150028407Y-102378209D01*
X150018235Y-102352452D01*
X150011815Y-102281747D01*
X150046331Y-102217074D01*
X151072253Y-101191152D01*
X151080539Y-101183612D01*
X151087018Y-101179500D01*
X151133644Y-101129848D01*
X151136398Y-101127007D01*
X151156135Y-101107270D01*
X151158615Y-101104073D01*
X151166320Y-101095051D01*
X151191159Y-101068600D01*
X151196586Y-101062821D01*
X151200405Y-101055875D01*
X151200407Y-101055872D01*
X151206348Y-101045066D01*
X151217199Y-101028547D01*
X151224758Y-101018801D01*
X151229614Y-101012541D01*
X151232759Y-101005272D01*
X151232762Y-101005268D01*
X151247174Y-100971963D01*
X151252391Y-100961313D01*
X151273695Y-100922560D01*
X151278733Y-100902937D01*
X151285137Y-100884234D01*
X151290033Y-100872920D01*
X151290033Y-100872919D01*
X151293181Y-100865645D01*
X151294420Y-100857822D01*
X151294423Y-100857812D01*
X151300099Y-100821976D01*
X151302505Y-100810356D01*
X151311528Y-100775211D01*
X151311528Y-100775210D01*
X151313500Y-100767530D01*
X151313500Y-100747276D01*
X151315051Y-100727565D01*
X151316980Y-100715386D01*
X151318220Y-100707557D01*
X151314059Y-100663538D01*
X151313500Y-100651681D01*
X151313500Y-97588763D01*
X151314027Y-97577579D01*
X151315701Y-97570091D01*
X151313562Y-97502032D01*
X151313500Y-97498075D01*
X151313500Y-97470144D01*
X151312994Y-97466138D01*
X151312061Y-97454292D01*
X151310922Y-97418037D01*
X151310673Y-97410110D01*
X151305022Y-97390658D01*
X151301014Y-97371306D01*
X151299468Y-97359068D01*
X151299467Y-97359066D01*
X151298474Y-97351203D01*
X151282194Y-97310086D01*
X151278359Y-97298885D01*
X151266018Y-97256406D01*
X151261985Y-97249587D01*
X151261983Y-97249582D01*
X151255707Y-97238971D01*
X151247010Y-97221221D01*
X151239552Y-97202383D01*
X151213571Y-97166623D01*
X151207053Y-97156701D01*
X151188578Y-97125460D01*
X151188574Y-97125455D01*
X151184542Y-97118637D01*
X151170218Y-97104313D01*
X151157376Y-97089278D01*
X151145472Y-97072893D01*
X151111406Y-97044711D01*
X151102627Y-97036722D01*
X150193652Y-96127747D01*
X150186112Y-96119461D01*
X150182000Y-96112982D01*
X150132348Y-96066356D01*
X150129507Y-96063602D01*
X150109770Y-96043865D01*
X150106573Y-96041385D01*
X150097551Y-96033680D01*
X150071100Y-96008841D01*
X150065321Y-96003414D01*
X150058375Y-95999595D01*
X150058372Y-95999593D01*
X150047566Y-95993652D01*
X150031047Y-95982801D01*
X150021307Y-95975246D01*
X150021306Y-95975245D01*
X150015042Y-95970387D01*
X150015672Y-95969575D01*
X149972097Y-95922904D01*
X149959393Y-95853053D01*
X149972372Y-95809242D01*
X149975583Y-95802926D01*
X149985740Y-95782949D01*
X150054107Y-95562773D01*
X150072328Y-95425298D01*
X150083698Y-95339511D01*
X150083698Y-95339506D01*
X150084398Y-95334226D01*
X150081191Y-95248787D01*
X150078626Y-95180489D01*
X150075749Y-95103842D01*
X150054770Y-95003856D01*
X150029504Y-94883435D01*
X150029502Y-94883430D01*
X150028407Y-94878209D01*
X150018234Y-94852449D01*
X150011816Y-94781743D01*
X150046331Y-94717073D01*
X151529747Y-93233657D01*
X151538037Y-93226113D01*
X151544518Y-93222000D01*
X151591159Y-93172332D01*
X151593913Y-93169491D01*
X151613634Y-93149770D01*
X151616112Y-93146575D01*
X151623818Y-93137553D01*
X151648658Y-93111101D01*
X151654086Y-93105321D01*
X151663846Y-93087568D01*
X151674699Y-93071045D01*
X151682253Y-93061306D01*
X151687113Y-93055041D01*
X151704676Y-93014457D01*
X151709883Y-93003827D01*
X151731195Y-92965060D01*
X151733166Y-92957383D01*
X151733168Y-92957378D01*
X151736232Y-92945442D01*
X151742638Y-92926730D01*
X151747534Y-92915417D01*
X151750681Y-92908145D01*
X151752382Y-92897409D01*
X151757597Y-92864481D01*
X151760004Y-92852860D01*
X151769028Y-92817711D01*
X151769028Y-92817710D01*
X151771000Y-92810030D01*
X151771000Y-92789769D01*
X151772551Y-92770058D01*
X151774479Y-92757885D01*
X151775719Y-92750057D01*
X151771559Y-92706046D01*
X151771000Y-92694189D01*
X151771000Y-86996267D01*
X151771527Y-86985084D01*
X151773202Y-86977591D01*
X151771062Y-86909514D01*
X151771000Y-86905555D01*
X151771000Y-86877644D01*
X151770495Y-86873644D01*
X151769562Y-86861801D01*
X151769084Y-86846576D01*
X151768173Y-86817611D01*
X151762521Y-86798157D01*
X151758513Y-86778800D01*
X151756968Y-86766570D01*
X151756968Y-86766569D01*
X151755974Y-86758703D01*
X151753055Y-86751330D01*
X151739696Y-86717588D01*
X151735851Y-86706358D01*
X151725729Y-86671517D01*
X151725729Y-86671516D01*
X151723518Y-86663907D01*
X151719485Y-86657088D01*
X151719483Y-86657083D01*
X151713207Y-86646472D01*
X151704512Y-86628724D01*
X151697052Y-86609883D01*
X151674950Y-86579461D01*
X151671064Y-86574113D01*
X151664548Y-86564193D01*
X151646080Y-86532965D01*
X151646078Y-86532962D01*
X151642042Y-86526138D01*
X151627721Y-86511817D01*
X151614880Y-86496783D01*
X151607631Y-86486806D01*
X151602972Y-86480393D01*
X151568895Y-86452202D01*
X151560116Y-86444212D01*
X149023652Y-83907747D01*
X149016112Y-83899461D01*
X149012000Y-83892982D01*
X149004165Y-83885624D01*
X148962349Y-83846357D01*
X148959507Y-83843602D01*
X148939770Y-83823865D01*
X148936573Y-83821385D01*
X148927551Y-83813680D01*
X148901100Y-83788841D01*
X148895321Y-83783414D01*
X148888375Y-83779595D01*
X148888372Y-83779593D01*
X148877566Y-83773652D01*
X148861047Y-83762801D01*
X148860583Y-83762441D01*
X148845041Y-83750386D01*
X148837772Y-83747241D01*
X148837768Y-83747238D01*
X148804463Y-83732826D01*
X148793813Y-83727609D01*
X148755060Y-83706305D01*
X148735437Y-83701267D01*
X148716734Y-83694863D01*
X148705420Y-83689967D01*
X148705419Y-83689967D01*
X148698145Y-83686819D01*
X148690322Y-83685580D01*
X148690312Y-83685577D01*
X148654476Y-83679901D01*
X148642856Y-83677495D01*
X148607711Y-83668472D01*
X148607710Y-83668472D01*
X148600030Y-83666500D01*
X148579776Y-83666500D01*
X148560065Y-83664949D01*
X148547886Y-83663020D01*
X148540057Y-83661780D01*
X148532165Y-83662526D01*
X148496039Y-83665941D01*
X148484181Y-83666500D01*
X140485929Y-83666500D01*
X140417808Y-83646498D01*
X140371315Y-83592842D01*
X140359929Y-83540500D01*
X140359929Y-80752655D01*
X151274858Y-80752655D01*
X151310104Y-81011638D01*
X151311412Y-81016124D01*
X151311412Y-81016126D01*
X151331098Y-81083664D01*
X151383243Y-81262567D01*
X151492668Y-81499928D01*
X151495231Y-81503837D01*
X151633410Y-81714596D01*
X151633414Y-81714601D01*
X151635976Y-81718509D01*
X151810018Y-81913506D01*
X152010970Y-82080637D01*
X152014973Y-82083066D01*
X152230422Y-82213804D01*
X152230426Y-82213806D01*
X152234419Y-82216229D01*
X152475455Y-82317303D01*
X152728783Y-82381641D01*
X152733434Y-82382109D01*
X152733438Y-82382110D01*
X152926308Y-82401531D01*
X152945867Y-82403500D01*
X153101354Y-82403500D01*
X153103679Y-82403327D01*
X153103685Y-82403327D01*
X153291000Y-82389407D01*
X153291004Y-82389406D01*
X153295652Y-82389061D01*
X153300200Y-82388032D01*
X153300206Y-82388031D01*
X153486601Y-82345853D01*
X153550577Y-82331377D01*
X153586769Y-82317303D01*
X153789824Y-82238340D01*
X153789827Y-82238339D01*
X153794177Y-82236647D01*
X154021098Y-82106951D01*
X154226357Y-81945138D01*
X154405443Y-81754763D01*
X154554424Y-81540009D01*
X154670025Y-81305593D01*
X154749707Y-81056665D01*
X154791721Y-80798693D01*
X154795142Y-80537345D01*
X154759896Y-80278362D01*
X154745473Y-80228877D01*
X154688068Y-80031932D01*
X154686757Y-80027433D01*
X154577332Y-79790072D01*
X154544519Y-79740024D01*
X154436590Y-79575404D01*
X154436586Y-79575399D01*
X154434024Y-79571491D01*
X154259982Y-79376494D01*
X154059030Y-79209363D01*
X154011844Y-79180730D01*
X153839578Y-79076196D01*
X153839574Y-79076194D01*
X153835581Y-79073771D01*
X153594545Y-78972697D01*
X153341217Y-78908359D01*
X153336566Y-78907891D01*
X153336562Y-78907890D01*
X153127271Y-78886816D01*
X153124133Y-78886500D01*
X152968646Y-78886500D01*
X152966321Y-78886673D01*
X152966315Y-78886673D01*
X152779000Y-78900593D01*
X152778996Y-78900594D01*
X152774348Y-78900939D01*
X152769800Y-78901968D01*
X152769794Y-78901969D01*
X152583399Y-78944147D01*
X152519423Y-78958623D01*
X152515071Y-78960315D01*
X152515069Y-78960316D01*
X152280176Y-79051660D01*
X152280173Y-79051661D01*
X152275823Y-79053353D01*
X152048902Y-79183049D01*
X151843643Y-79344862D01*
X151664557Y-79535237D01*
X151515576Y-79749991D01*
X151399975Y-79984407D01*
X151320293Y-80233335D01*
X151278279Y-80491307D01*
X151274858Y-80752655D01*
X140359929Y-80752655D01*
X140359929Y-78104500D01*
X140379931Y-78036379D01*
X140433587Y-77989886D01*
X140485929Y-77978500D01*
X155575500Y-77978500D01*
X155643621Y-77998502D01*
X155690114Y-78052158D01*
X155701500Y-78104500D01*
X155701500Y-87989071D01*
X155681498Y-88057192D01*
X155627842Y-88103685D01*
X155575500Y-88115071D01*
X153278000Y-88115071D01*
X153278000Y-104924928D01*
X155575500Y-104924928D01*
X155643621Y-104944930D01*
X155690114Y-104998586D01*
X155701500Y-105050928D01*
X155701500Y-112395500D01*
X155681498Y-112463621D01*
X155627842Y-112510114D01*
X155575500Y-112521500D01*
X135068072Y-112521500D01*
X134999951Y-112501498D01*
X134953458Y-112447842D01*
X134942072Y-112395500D01*
X134942072Y-109962655D01*
X151274858Y-109962655D01*
X151310104Y-110221638D01*
X151311412Y-110226124D01*
X151311412Y-110226126D01*
X151331098Y-110293664D01*
X151383243Y-110472567D01*
X151492668Y-110709928D01*
X151495231Y-110713837D01*
X151633410Y-110924596D01*
X151633414Y-110924601D01*
X151635976Y-110928509D01*
X151810018Y-111123506D01*
X152010970Y-111290637D01*
X152014973Y-111293066D01*
X152230422Y-111423804D01*
X152230426Y-111423806D01*
X152234419Y-111426229D01*
X152475455Y-111527303D01*
X152728783Y-111591641D01*
X152733434Y-111592109D01*
X152733438Y-111592110D01*
X152926308Y-111611531D01*
X152945867Y-111613500D01*
X153101354Y-111613500D01*
X153103679Y-111613327D01*
X153103685Y-111613327D01*
X153291000Y-111599407D01*
X153291004Y-111599406D01*
X153295652Y-111599061D01*
X153300200Y-111598032D01*
X153300206Y-111598031D01*
X153486601Y-111555853D01*
X153550577Y-111541377D01*
X153586769Y-111527303D01*
X153789824Y-111448340D01*
X153789827Y-111448339D01*
X153794177Y-111446647D01*
X154021098Y-111316951D01*
X154226357Y-111155138D01*
X154405443Y-110964763D01*
X154554424Y-110750009D01*
X154670025Y-110515593D01*
X154749707Y-110266665D01*
X154791721Y-110008693D01*
X154795142Y-109747345D01*
X154759896Y-109488362D01*
X154745473Y-109438877D01*
X154702524Y-109291528D01*
X154686757Y-109237433D01*
X154679859Y-109222469D01*
X154643318Y-109143207D01*
X154577332Y-109000072D01*
X154544519Y-108950024D01*
X154436590Y-108785404D01*
X154436586Y-108785399D01*
X154434024Y-108781491D01*
X154259982Y-108586494D01*
X154059030Y-108419363D01*
X154011844Y-108390730D01*
X153839578Y-108286196D01*
X153839574Y-108286194D01*
X153835581Y-108283771D01*
X153594545Y-108182697D01*
X153341217Y-108118359D01*
X153336566Y-108117891D01*
X153336562Y-108117890D01*
X153127271Y-108096816D01*
X153124133Y-108096500D01*
X152968646Y-108096500D01*
X152966321Y-108096673D01*
X152966315Y-108096673D01*
X152779000Y-108110593D01*
X152778996Y-108110594D01*
X152774348Y-108110939D01*
X152769800Y-108111968D01*
X152769794Y-108111969D01*
X152583399Y-108154147D01*
X152519423Y-108168623D01*
X152515071Y-108170315D01*
X152515069Y-108170316D01*
X152280176Y-108261660D01*
X152280173Y-108261661D01*
X152275823Y-108263353D01*
X152048902Y-108393049D01*
X151843643Y-108554862D01*
X151664557Y-108745237D01*
X151515576Y-108959991D01*
X151513510Y-108964181D01*
X151513508Y-108964184D01*
X151406880Y-109180406D01*
X151399975Y-109194407D01*
X151398553Y-109198850D01*
X151398552Y-109198852D01*
X151366745Y-109298219D01*
X151320293Y-109443335D01*
X151278279Y-109701307D01*
X151274858Y-109962655D01*
X134942072Y-109962655D01*
X134942072Y-109729000D01*
X131817929Y-109729000D01*
X131817929Y-112395500D01*
X131797927Y-112463621D01*
X131744271Y-112510114D01*
X131691929Y-112521500D01*
X109854500Y-112521500D01*
X109786379Y-112501498D01*
X109739886Y-112447842D01*
X109728500Y-112395500D01*
X109728500Y-109962655D01*
X110634858Y-109962655D01*
X110670104Y-110221638D01*
X110671412Y-110226124D01*
X110671412Y-110226126D01*
X110691098Y-110293664D01*
X110743243Y-110472567D01*
X110852668Y-110709928D01*
X110855231Y-110713837D01*
X110993410Y-110924596D01*
X110993414Y-110924601D01*
X110995976Y-110928509D01*
X111170018Y-111123506D01*
X111370970Y-111290637D01*
X111374973Y-111293066D01*
X111590422Y-111423804D01*
X111590426Y-111423806D01*
X111594419Y-111426229D01*
X111835455Y-111527303D01*
X112088783Y-111591641D01*
X112093434Y-111592109D01*
X112093438Y-111592110D01*
X112286308Y-111611531D01*
X112305867Y-111613500D01*
X112461354Y-111613500D01*
X112463679Y-111613327D01*
X112463685Y-111613327D01*
X112651000Y-111599407D01*
X112651004Y-111599406D01*
X112655652Y-111599061D01*
X112660200Y-111598032D01*
X112660206Y-111598031D01*
X112846601Y-111555853D01*
X112910577Y-111541377D01*
X112946769Y-111527303D01*
X113149824Y-111448340D01*
X113149827Y-111448339D01*
X113154177Y-111446647D01*
X113381098Y-111316951D01*
X113586357Y-111155138D01*
X113765443Y-110964763D01*
X113914424Y-110750009D01*
X114030025Y-110515593D01*
X114109707Y-110266665D01*
X114151721Y-110008693D01*
X114155142Y-109747345D01*
X114119896Y-109488362D01*
X114105473Y-109438877D01*
X114062524Y-109291528D01*
X114046757Y-109237433D01*
X114039859Y-109222469D01*
X114003318Y-109143207D01*
X113937332Y-109000072D01*
X113904519Y-108950024D01*
X113796590Y-108785404D01*
X113796586Y-108785399D01*
X113794024Y-108781491D01*
X113619982Y-108586494D01*
X113419030Y-108419363D01*
X113371844Y-108390730D01*
X113199578Y-108286196D01*
X113199574Y-108286194D01*
X113195581Y-108283771D01*
X112954545Y-108182697D01*
X112701217Y-108118359D01*
X112696566Y-108117891D01*
X112696562Y-108117890D01*
X112487271Y-108096816D01*
X112484133Y-108096500D01*
X112328646Y-108096500D01*
X112326321Y-108096673D01*
X112326315Y-108096673D01*
X112139000Y-108110593D01*
X112138996Y-108110594D01*
X112134348Y-108110939D01*
X112129800Y-108111968D01*
X112129794Y-108111969D01*
X111943399Y-108154147D01*
X111879423Y-108168623D01*
X111875071Y-108170315D01*
X111875069Y-108170316D01*
X111640176Y-108261660D01*
X111640173Y-108261661D01*
X111635823Y-108263353D01*
X111408902Y-108393049D01*
X111203643Y-108554862D01*
X111024557Y-108745237D01*
X110875576Y-108959991D01*
X110873510Y-108964181D01*
X110873508Y-108964184D01*
X110766880Y-109180406D01*
X110759975Y-109194407D01*
X110758553Y-109198850D01*
X110758552Y-109198852D01*
X110726745Y-109298219D01*
X110680293Y-109443335D01*
X110638279Y-109701307D01*
X110634858Y-109962655D01*
X109728500Y-109962655D01*
X109728500Y-106895214D01*
X109748502Y-106827093D01*
X109802158Y-106780600D01*
X109854500Y-106769214D01*
X113513500Y-106769214D01*
X113513500Y-84930785D01*
X109854500Y-84930785D01*
X109786379Y-84910783D01*
X109739886Y-84857127D01*
X109728500Y-84804785D01*
X109728500Y-80752655D01*
X110634858Y-80752655D01*
X110670104Y-81011638D01*
X110671412Y-81016124D01*
X110671412Y-81016126D01*
X110691098Y-81083664D01*
X110743243Y-81262567D01*
X110852668Y-81499928D01*
X110855231Y-81503837D01*
X110993410Y-81714596D01*
X110993414Y-81714601D01*
X110995976Y-81718509D01*
X111170018Y-81913506D01*
X111370970Y-82080637D01*
X111374973Y-82083066D01*
X111590422Y-82213804D01*
X111590426Y-82213806D01*
X111594419Y-82216229D01*
X111835455Y-82317303D01*
X112088783Y-82381641D01*
X112093434Y-82382109D01*
X112093438Y-82382110D01*
X112286308Y-82401531D01*
X112305867Y-82403500D01*
X112461354Y-82403500D01*
X112463679Y-82403327D01*
X112463685Y-82403327D01*
X112651000Y-82389407D01*
X112651004Y-82389406D01*
X112655652Y-82389061D01*
X112660200Y-82388032D01*
X112660206Y-82388031D01*
X112846601Y-82345853D01*
X112910577Y-82331377D01*
X112946769Y-82317303D01*
X113149824Y-82238340D01*
X113149827Y-82238339D01*
X113154177Y-82236647D01*
X113381098Y-82106951D01*
X113586357Y-81945138D01*
X113765443Y-81754763D01*
X113914424Y-81540009D01*
X114030025Y-81305593D01*
X114109707Y-81056665D01*
X114151721Y-80798693D01*
X114155142Y-80537345D01*
X114119896Y-80278362D01*
X114105473Y-80228877D01*
X114048068Y-80031932D01*
X114046757Y-80027433D01*
X113937332Y-79790072D01*
X113904519Y-79740024D01*
X113796590Y-79575404D01*
X113796586Y-79575399D01*
X113794024Y-79571491D01*
X113619982Y-79376494D01*
X113419030Y-79209363D01*
X113371844Y-79180730D01*
X113199578Y-79076196D01*
X113199574Y-79076194D01*
X113195581Y-79073771D01*
X112954545Y-78972697D01*
X112701217Y-78908359D01*
X112696566Y-78907891D01*
X112696562Y-78907890D01*
X112487271Y-78886816D01*
X112484133Y-78886500D01*
X112328646Y-78886500D01*
X112326321Y-78886673D01*
X112326315Y-78886673D01*
X112139000Y-78900593D01*
X112138996Y-78900594D01*
X112134348Y-78900939D01*
X112129800Y-78901968D01*
X112129794Y-78901969D01*
X111943399Y-78944147D01*
X111879423Y-78958623D01*
X111875071Y-78960315D01*
X111875069Y-78960316D01*
X111640176Y-79051660D01*
X111640173Y-79051661D01*
X111635823Y-79053353D01*
X111408902Y-79183049D01*
X111203643Y-79344862D01*
X111024557Y-79535237D01*
X110875576Y-79749991D01*
X110759975Y-79984407D01*
X110680293Y-80233335D01*
X110638279Y-80491307D01*
X110634858Y-80752655D01*
X109728500Y-80752655D01*
X109728500Y-78104500D01*
X109748502Y-78036379D01*
X109802158Y-77989886D01*
X109854500Y-77978500D01*
X123774072Y-77978500D01*
X123842193Y-77998502D01*
G37*
%TD.AperFunction*%
M02*
