%TF.GenerationSoftware,KiCad,Pcbnew,(6.0.6)*%
%TF.CreationDate,2022-12-02T11:51:27+05:30*%
%TF.ProjectId,exp3,65787033-2e6b-4696-9361-645f70636258,rev?*%
%TF.SameCoordinates,Original*%
%TF.FileFunction,Legend,Top*%
%TF.FilePolarity,Positive*%
%FSLAX46Y46*%
G04 Gerber Fmt 4.6, Leading zero omitted, Abs format (unit mm)*
G04 Created by KiCad (PCBNEW (6.0.6)) date 2022-12-02 11:51:27*
%MOMM*%
%LPD*%
G01*
G04 APERTURE LIST*
%ADD10C,0.250000*%
%ADD11C,0.150000*%
%ADD12C,0.120000*%
G04 APERTURE END LIST*
D10*
X138450000Y-88294761D02*
X138450000Y-88770952D01*
X137973809Y-88580476D02*
X138450000Y-88770952D01*
X138926190Y-88580476D01*
X138164285Y-89151904D02*
X138450000Y-88770952D01*
X138735714Y-89151904D01*
D11*
%TO.C,H4*%
X148463095Y-111577380D02*
X148463095Y-110577380D01*
X148463095Y-111053571D02*
X149034523Y-111053571D01*
X149034523Y-111577380D02*
X149034523Y-110577380D01*
X149939285Y-110910714D02*
X149939285Y-111577380D01*
X149701190Y-110529761D02*
X149463095Y-111244047D01*
X150082142Y-111244047D01*
%TO.C,H1*%
X115443095Y-111577380D02*
X115443095Y-110577380D01*
X115443095Y-111053571D02*
X116014523Y-111053571D01*
X116014523Y-111577380D02*
X116014523Y-110577380D01*
X117014523Y-111577380D02*
X116443095Y-111577380D01*
X116728809Y-111577380D02*
X116728809Y-110577380D01*
X116633571Y-110720238D01*
X116538333Y-110815476D01*
X116443095Y-110863095D01*
%TO.C,H2*%
X148463095Y-79827380D02*
X148463095Y-78827380D01*
X148463095Y-79303571D02*
X149034523Y-79303571D01*
X149034523Y-79827380D02*
X149034523Y-78827380D01*
X149463095Y-78922619D02*
X149510714Y-78875000D01*
X149605952Y-78827380D01*
X149844047Y-78827380D01*
X149939285Y-78875000D01*
X149986904Y-78922619D01*
X150034523Y-79017857D01*
X150034523Y-79113095D01*
X149986904Y-79255952D01*
X149415476Y-79827380D01*
X150034523Y-79827380D01*
%TO.C,U1*%
X138948095Y-86022380D02*
X138948095Y-86831904D01*
X138995714Y-86927142D01*
X139043333Y-86974761D01*
X139138571Y-87022380D01*
X139329047Y-87022380D01*
X139424285Y-86974761D01*
X139471904Y-86927142D01*
X139519523Y-86831904D01*
X139519523Y-86022380D01*
X140519523Y-87022380D02*
X139948095Y-87022380D01*
X140233809Y-87022380D02*
X140233809Y-86022380D01*
X140138571Y-86165238D01*
X140043333Y-86260476D01*
X139948095Y-86308095D01*
%TO.C,H3*%
X115443095Y-79827380D02*
X115443095Y-78827380D01*
X115443095Y-79303571D02*
X116014523Y-79303571D01*
X116014523Y-79827380D02*
X116014523Y-78827380D01*
X116395476Y-78827380D02*
X117014523Y-78827380D01*
X116681190Y-79208333D01*
X116824047Y-79208333D01*
X116919285Y-79255952D01*
X116966904Y-79303571D01*
X117014523Y-79398809D01*
X117014523Y-79636904D01*
X116966904Y-79732142D01*
X116919285Y-79779761D01*
X116824047Y-79827380D01*
X116538333Y-79827380D01*
X116443095Y-79779761D01*
X116395476Y-79732142D01*
%TO.C,U2*%
X124978095Y-83472380D02*
X124978095Y-84281904D01*
X125025714Y-84377142D01*
X125073333Y-84424761D01*
X125168571Y-84472380D01*
X125359047Y-84472380D01*
X125454285Y-84424761D01*
X125501904Y-84377142D01*
X125549523Y-84281904D01*
X125549523Y-83472380D01*
X125978095Y-83567619D02*
X126025714Y-83520000D01*
X126120952Y-83472380D01*
X126359047Y-83472380D01*
X126454285Y-83520000D01*
X126501904Y-83567619D01*
X126549523Y-83662857D01*
X126549523Y-83758095D01*
X126501904Y-83900952D01*
X125930476Y-84472380D01*
X126549523Y-84472380D01*
D12*
%TO.C,J1*%
X111822500Y-102430000D02*
X115242500Y-102430000D01*
X116242500Y-94080000D02*
X116242500Y-93920000D01*
X110022500Y-105360000D02*
X110022500Y-85140000D01*
X116242500Y-86360000D02*
X116242500Y-85140000D01*
X115242500Y-98070000D02*
X111822500Y-98070000D01*
X111822500Y-97430000D02*
X115242500Y-97430000D01*
X111822500Y-89930000D02*
X115242500Y-89930000D01*
X116242500Y-96580000D02*
X116242500Y-96420000D01*
X115242500Y-99930000D02*
X115242500Y-100250000D01*
X111742500Y-100250000D02*
X111822500Y-99930000D01*
X110022500Y-85140000D02*
X118442500Y-85140000D01*
X118932500Y-103050000D02*
X118932500Y-102450000D01*
X115242500Y-95570000D02*
X111822500Y-95570000D01*
X118442500Y-104140000D02*
X118442500Y-105360000D01*
X118332500Y-102750000D02*
X118932500Y-103050000D01*
X115242500Y-90570000D02*
X111822500Y-90570000D01*
X111742500Y-97750000D02*
X111822500Y-97430000D01*
X111742500Y-92750000D02*
X111822500Y-92430000D01*
X111822500Y-103070000D02*
X111742500Y-102750000D01*
X115242500Y-93070000D02*
X111822500Y-93070000D01*
X111822500Y-92430000D02*
X115242500Y-92430000D01*
X115242500Y-92750000D02*
X115242500Y-93070000D01*
X111822500Y-88070000D02*
X111742500Y-87750000D01*
X111822500Y-99930000D02*
X115242500Y-99930000D01*
X115242500Y-103070000D02*
X111822500Y-103070000D01*
X118442500Y-105360000D02*
X110022500Y-105360000D01*
X111242500Y-85140000D02*
X111242500Y-86360000D01*
X111242500Y-86360000D02*
X116242500Y-86360000D01*
X115242500Y-88070000D02*
X111822500Y-88070000D01*
X116242500Y-91580000D02*
X116242500Y-91420000D01*
X116242500Y-104140000D02*
X116242500Y-105360000D01*
X115242500Y-95250000D02*
X115242500Y-95570000D01*
X116242500Y-104140000D02*
X118442500Y-104140000D01*
X116242500Y-101580000D02*
X116242500Y-101420000D01*
X118442500Y-85140000D02*
X118442500Y-86360000D01*
X111822500Y-93070000D02*
X111742500Y-92750000D01*
X115242500Y-102430000D02*
X115242500Y-102750000D01*
X111742500Y-95250000D02*
X111822500Y-94930000D01*
X118932500Y-102450000D02*
X118332500Y-102750000D01*
X116242500Y-99080000D02*
X116242500Y-98920000D01*
X111242500Y-104140000D02*
X116242500Y-104140000D01*
X115242500Y-97430000D02*
X115242500Y-97750000D01*
X111822500Y-94930000D02*
X115242500Y-94930000D01*
X111822500Y-90570000D02*
X111742500Y-90250000D01*
X115242500Y-102750000D02*
X115242500Y-103070000D01*
X115242500Y-90250000D02*
X115242500Y-90570000D01*
X111822500Y-87430000D02*
X115242500Y-87430000D01*
X115242500Y-97750000D02*
X115242500Y-98070000D01*
X115242500Y-104140000D02*
X115242500Y-86360000D01*
X115242500Y-100570000D02*
X111822500Y-100570000D01*
X115242500Y-89930000D02*
X115242500Y-90250000D01*
X111822500Y-98070000D02*
X111742500Y-97750000D01*
X111822500Y-100570000D02*
X111742500Y-100250000D01*
X111742500Y-90250000D02*
X111822500Y-89930000D01*
X111822500Y-95570000D02*
X111742500Y-95250000D01*
X116242500Y-89080000D02*
X116242500Y-88920000D01*
X115242500Y-87750000D02*
X115242500Y-88070000D01*
X111742500Y-102750000D02*
X111822500Y-102430000D01*
X118442500Y-86360000D02*
X116242500Y-86360000D01*
X115242500Y-100250000D02*
X115242500Y-100570000D01*
X111742500Y-87750000D02*
X111822500Y-87430000D01*
X115242500Y-94930000D02*
X115242500Y-95250000D01*
X115242500Y-92430000D02*
X115242500Y-92750000D01*
X115242500Y-87430000D02*
X115242500Y-87750000D01*
X111242500Y-105360000D02*
X111242500Y-104140000D01*
%TO.C,J2*%
X150187500Y-100590000D02*
X150187500Y-100270000D01*
X149187500Y-101440000D02*
X149187500Y-101600000D01*
X150187500Y-98090000D02*
X150187500Y-97770000D01*
X150187500Y-100270000D02*
X150187500Y-99950000D01*
X149187500Y-88880000D02*
X146987500Y-88880000D01*
X146497500Y-90570000D02*
X147097500Y-90270000D01*
X150187500Y-97450000D02*
X153607500Y-97450000D01*
X150187500Y-94950000D02*
X153607500Y-94950000D01*
X153607500Y-103090000D02*
X150187500Y-103090000D01*
X153607500Y-95590000D02*
X150187500Y-95590000D01*
X150187500Y-95590000D02*
X150187500Y-95270000D01*
X153687500Y-102770000D02*
X153607500Y-103090000D01*
X150187500Y-92770000D02*
X150187500Y-92450000D01*
X146987500Y-88880000D02*
X146987500Y-87660000D01*
X153607500Y-92450000D02*
X153687500Y-92770000D01*
X153687500Y-97770000D02*
X153607500Y-98090000D01*
X149187500Y-93940000D02*
X149187500Y-94100000D01*
X153687500Y-100270000D02*
X153607500Y-100590000D01*
X150187500Y-89950000D02*
X153607500Y-89950000D01*
X150187500Y-92450000D02*
X153607500Y-92450000D01*
X150187500Y-90270000D02*
X150187500Y-89950000D01*
X153687500Y-95270000D02*
X153607500Y-95590000D01*
X149187500Y-104160000D02*
X149187500Y-105380000D01*
X153607500Y-97450000D02*
X153687500Y-97770000D01*
X146987500Y-87660000D02*
X155407500Y-87660000D01*
X153607500Y-90590000D02*
X150187500Y-90590000D01*
X150187500Y-93090000D02*
X150187500Y-92770000D01*
X150187500Y-102770000D02*
X150187500Y-102450000D01*
X154187500Y-104160000D02*
X149187500Y-104160000D01*
X150187500Y-102450000D02*
X153607500Y-102450000D01*
X154187500Y-88880000D02*
X149187500Y-88880000D01*
X153607500Y-89950000D02*
X153687500Y-90270000D01*
X150187500Y-97770000D02*
X150187500Y-97450000D01*
X150187500Y-88880000D02*
X150187500Y-104160000D01*
X149187500Y-98940000D02*
X149187500Y-99100000D01*
X146987500Y-104160000D02*
X149187500Y-104160000D01*
X150187500Y-99950000D02*
X153607500Y-99950000D01*
X153607500Y-99950000D02*
X153687500Y-100270000D01*
X150187500Y-103090000D02*
X150187500Y-102770000D01*
X150187500Y-90590000D02*
X150187500Y-90270000D01*
X149187500Y-91440000D02*
X149187500Y-91600000D01*
X154187500Y-105380000D02*
X154187500Y-104160000D01*
X155407500Y-87660000D02*
X155407500Y-105380000D01*
X146987500Y-105380000D02*
X146987500Y-104160000D01*
X149187500Y-96440000D02*
X149187500Y-96600000D01*
X153687500Y-90270000D02*
X153607500Y-90590000D01*
X153607500Y-100590000D02*
X150187500Y-100590000D01*
X155407500Y-105380000D02*
X146987500Y-105380000D01*
X153607500Y-94950000D02*
X153687500Y-95270000D01*
X153607500Y-98090000D02*
X150187500Y-98090000D01*
X153607500Y-93090000D02*
X150187500Y-93090000D01*
X154187500Y-87660000D02*
X154187500Y-88880000D01*
X147097500Y-90270000D02*
X146497500Y-89970000D01*
X153607500Y-102450000D02*
X153687500Y-102770000D01*
X153687500Y-92770000D02*
X153607500Y-93090000D01*
X146497500Y-89970000D02*
X146497500Y-90570000D01*
X150187500Y-95270000D02*
X150187500Y-94950000D01*
X149187500Y-88880000D02*
X149187500Y-87660000D01*
%TO.C,U1*%
X137060000Y-87570000D02*
X137060000Y-105470000D01*
X142360000Y-105470000D02*
X142360000Y-87570000D01*
X134570000Y-87510000D02*
X134570000Y-105530000D01*
X134570000Y-105530000D02*
X144850000Y-105530000D01*
X138710000Y-87570000D02*
X137060000Y-87570000D01*
X137060000Y-105470000D02*
X142360000Y-105470000D01*
X144850000Y-105530000D02*
X144850000Y-87510000D01*
X144850000Y-87510000D02*
X134570000Y-87510000D01*
X142360000Y-87570000D02*
X140710000Y-87570000D01*
X138710000Y-87570000D02*
G75*
G03*
X140710000Y-87570000I1000000J0D01*
G01*
%TO.C,U2*%
X120600000Y-105520000D02*
X130880000Y-105520000D01*
X130880000Y-84960000D02*
X120600000Y-84960000D01*
X123090000Y-85020000D02*
X123090000Y-105460000D01*
X128390000Y-85020000D02*
X126740000Y-85020000D01*
X128390000Y-105460000D02*
X128390000Y-85020000D01*
X120600000Y-84960000D02*
X120600000Y-105520000D01*
X130880000Y-105520000D02*
X130880000Y-84960000D01*
X124740000Y-85020000D02*
X123090000Y-85020000D01*
X123090000Y-105460000D02*
X128390000Y-105460000D01*
X124740000Y-85020000D02*
G75*
G03*
X126740000Y-85020000I1000000J0D01*
G01*
%TD*%
M02*
