%TF.GenerationSoftware,KiCad,Pcbnew,(6.0.6)*%
%TF.CreationDate,2022-10-11T00:14:44+05:30*%
%TF.ProjectId,exp3,65787033-2e6b-4696-9361-645f70636258,rev?*%
%TF.SameCoordinates,Original*%
%TF.FileFunction,Copper,L1,Top*%
%TF.FilePolarity,Positive*%
%FSLAX46Y46*%
G04 Gerber Fmt 4.6, Leading zero omitted, Abs format (unit mm)*
G04 Created by KiCad (PCBNEW (6.0.6)) date 2022-10-11 00:14:44*
%MOMM*%
%LPD*%
G01*
G04 APERTURE LIST*
G04 Aperture macros list*
%AMRoundRect*
0 Rectangle with rounded corners*
0 $1 Rounding radius*
0 $2 $3 $4 $5 $6 $7 $8 $9 X,Y pos of 4 corners*
0 Add a 4 corners polygon primitive as box body*
4,1,4,$2,$3,$4,$5,$6,$7,$8,$9,$2,$3,0*
0 Add four circle primitives for the rounded corners*
1,1,$1+$1,$2,$3*
1,1,$1+$1,$4,$5*
1,1,$1+$1,$6,$7*
1,1,$1+$1,$8,$9*
0 Add four rect primitives between the rounded corners*
20,1,$1+$1,$2,$3,$4,$5,0*
20,1,$1+$1,$4,$5,$6,$7,0*
20,1,$1+$1,$6,$7,$8,$9,0*
20,1,$1+$1,$8,$9,$2,$3,0*%
G04 Aperture macros list end*
%TA.AperFunction,ComponentPad*%
%ADD10O,1.600000X1.600000*%
%TD*%
%TA.AperFunction,ComponentPad*%
%ADD11R,1.600000X1.600000*%
%TD*%
%TA.AperFunction,ComponentPad*%
%ADD12O,1.950000X1.700000*%
%TD*%
%TA.AperFunction,ComponentPad*%
%ADD13RoundRect,0.250000X-0.725000X0.600000X-0.725000X-0.600000X0.725000X-0.600000X0.725000X0.600000X0*%
%TD*%
%TA.AperFunction,ComponentPad*%
%ADD14RoundRect,0.250000X0.725000X-0.600000X0.725000X0.600000X-0.725000X0.600000X-0.725000X-0.600000X0*%
%TD*%
%TA.AperFunction,Conductor*%
%ADD15C,0.508000*%
%TD*%
G04 APERTURE END LIST*
D10*
%TO.P,U2,16,B4*%
%TO.N,Net-(U1-Pad3)*%
X143510000Y-86360000D03*
%TO.P,U2,15,S4*%
%TO.N,S3*%
X143510000Y-88900000D03*
%TO.P,U2,14,C4*%
%TO.N,CO*%
X143510000Y-91440000D03*
%TO.P,U2,13,C0*%
%TO.N,Cin*%
X143510000Y-93980000D03*
%TO.P,U2,12,GND*%
%TO.N,GND*%
X143510000Y-96520000D03*
%TO.P,U2,11,B1*%
%TO.N,Net-(U1-Pad11)*%
X143510000Y-99060000D03*
%TO.P,U2,10,A1*%
%TO.N,A0*%
X143510000Y-101600000D03*
%TO.P,U2,9,S1*%
%TO.N,S0*%
X143510000Y-104140000D03*
%TO.P,U2,8,A2*%
%TO.N,A1*%
X135890000Y-104140000D03*
%TO.P,U2,7,B2*%
%TO.N,Net-(U1-Pad8)*%
X135890000Y-101600000D03*
%TO.P,U2,6,S2*%
%TO.N,S1*%
X135890000Y-99060000D03*
%TO.P,U2,5,VCC*%
%TO.N,VCC*%
X135890000Y-96520000D03*
%TO.P,U2,4,B3*%
%TO.N,Net-(U1-Pad6)*%
X135890000Y-93980000D03*
%TO.P,U2,3,A3*%
%TO.N,A2*%
X135890000Y-91440000D03*
%TO.P,U2,2,S3*%
%TO.N,S2*%
X135890000Y-88900000D03*
D11*
%TO.P,U2,1,A4*%
%TO.N,A3*%
X135890000Y-86360000D03*
%TD*%
%TO.P,U1,1*%
%TO.N,Cin*%
X124470000Y-87625000D03*
D10*
%TO.P,U1,2*%
%TO.N,GND*%
X124470000Y-90165000D03*
%TO.P,U1,3*%
%TO.N,Net-(U1-Pad3)*%
X124470000Y-92705000D03*
%TO.P,U1,4*%
%TO.N,Cin*%
X124470000Y-95245000D03*
%TO.P,U1,5*%
%TO.N,GND*%
X124470000Y-97785000D03*
%TO.P,U1,6*%
%TO.N,Net-(U1-Pad6)*%
X124470000Y-100325000D03*
%TO.P,U1,7,GND*%
%TO.N,GND*%
X124470000Y-102865000D03*
%TO.P,U1,8*%
%TO.N,Net-(U1-Pad8)*%
X132090000Y-102865000D03*
%TO.P,U1,9*%
%TO.N,Cin*%
X132090000Y-100325000D03*
%TO.P,U1,10*%
%TO.N,VCC*%
X132090000Y-97785000D03*
%TO.P,U1,11*%
%TO.N,Net-(U1-Pad11)*%
X132090000Y-95245000D03*
%TO.P,U1,12*%
%TO.N,Cin*%
X132090000Y-92705000D03*
%TO.P,U1,13*%
%TO.N,VCC*%
X132090000Y-90165000D03*
%TO.P,U1,14,VCC*%
X132090000Y-87625000D03*
%TD*%
D12*
%TO.P,J2,6,Pin_6*%
%TO.N,GND*%
X148597500Y-102770000D03*
%TO.P,J2,5,Pin_5*%
%TO.N,S0*%
X148597500Y-100270000D03*
%TO.P,J2,4,Pin_4*%
%TO.N,S1*%
X148597500Y-97770000D03*
%TO.P,J2,3,Pin_3*%
%TO.N,S2*%
X148597500Y-95270000D03*
%TO.P,J2,2,Pin_2*%
%TO.N,S3*%
X148597500Y-92770000D03*
D13*
%TO.P,J2,1,Pin_1*%
%TO.N,CO*%
X148597500Y-90270000D03*
%TD*%
D12*
%TO.P,J1,7,Pin_7*%
%TO.N,VCC*%
X119372500Y-87750000D03*
%TO.P,J1,6,Pin_6*%
%TO.N,GND*%
X119372500Y-90250000D03*
%TO.P,J1,5,Pin_5*%
%TO.N,A3*%
X119372500Y-92750000D03*
%TO.P,J1,4,Pin_4*%
%TO.N,A2*%
X119372500Y-95250000D03*
%TO.P,J1,3,Pin_3*%
%TO.N,A1*%
X119372500Y-97750000D03*
%TO.P,J1,2,Pin_2*%
%TO.N,A0*%
X119372500Y-100250000D03*
D14*
%TO.P,J1,1,Pin_1*%
%TO.N,Cin*%
X119372500Y-102750000D03*
%TD*%
D15*
%TO.N,S2*%
X135890000Y-88900000D02*
X137640000Y-88900000D01*
X146053500Y-92726000D02*
X148597500Y-95270000D01*
X137640000Y-88900000D02*
X141466000Y-92726000D01*
X141466000Y-92726000D02*
X146053500Y-92726000D01*
%TO.N,S1*%
X146050000Y-95260000D02*
X148560000Y-97770000D01*
X139690000Y-95260000D02*
X146050000Y-95260000D01*
X135890000Y-99060000D02*
X139690000Y-95260000D01*
%TO.N,Net-(U1-Pad11)*%
X140450000Y-100320000D02*
X141710000Y-99060000D01*
X134960000Y-100320000D02*
X140450000Y-100320000D01*
X133990000Y-99350000D02*
X134960000Y-100320000D01*
X133990000Y-97145000D02*
X133990000Y-99350000D01*
X132090000Y-95245000D02*
X133990000Y-97145000D01*
X141710000Y-99060000D02*
X143510000Y-99060000D01*
%TO.N,GND*%
X145870000Y-98880000D02*
X143510000Y-96520000D01*
X148530000Y-102770000D02*
X145870000Y-100110000D01*
X145870000Y-100110000D02*
X145870000Y-98880000D01*
%TO.N,S0*%
X150050000Y-100270000D02*
X148597500Y-100270000D01*
X150900000Y-103200000D02*
X150900000Y-101120000D01*
X150900000Y-101120000D02*
X150050000Y-100270000D01*
X149960000Y-104140000D02*
X150900000Y-103200000D01*
X143510000Y-104140000D02*
X149960000Y-104140000D01*
%TO.N,A1*%
X132800000Y-107230000D02*
X135890000Y-104140000D01*
X117840000Y-107230000D02*
X132800000Y-107230000D01*
X115890000Y-105280000D02*
X117840000Y-107230000D01*
X115890000Y-100130000D02*
X115890000Y-105280000D01*
X118270000Y-97750000D02*
X115890000Y-100130000D01*
X119372500Y-97750000D02*
X118270000Y-97750000D01*
%TO.N,A0*%
X142230000Y-102880000D02*
X143510000Y-101600000D01*
X134590000Y-102880000D02*
X142230000Y-102880000D01*
X118790000Y-105690000D02*
X131780000Y-105690000D01*
X117590000Y-104490000D02*
X118790000Y-105690000D01*
X117590000Y-102032500D02*
X117590000Y-104490000D01*
X119372500Y-100250000D02*
X117590000Y-102032500D01*
X131780000Y-105690000D02*
X134590000Y-102880000D01*
%TO.N,Cin*%
X122170000Y-97545000D02*
X124470000Y-95245000D01*
X122170000Y-99952500D02*
X122170000Y-97545000D01*
X119372500Y-102750000D02*
X122170000Y-99952500D01*
%TO.N,Net-(U1-Pad3)*%
X142256000Y-87614000D02*
X143510000Y-86360000D01*
X135116000Y-87614000D02*
X142256000Y-87614000D01*
X133851000Y-88879000D02*
X135116000Y-87614000D01*
X128296000Y-88879000D02*
X133851000Y-88879000D01*
X124470000Y-92705000D02*
X128296000Y-88879000D01*
%TO.N,GND*%
X124385000Y-90250000D02*
X124470000Y-90165000D01*
%TO.N,A3*%
X134090000Y-84530000D02*
X135890000Y-86330000D01*
X117570000Y-86700000D02*
X119740000Y-84530000D01*
X117570000Y-91470000D02*
X117570000Y-86700000D01*
X118850000Y-92750000D02*
X117570000Y-91470000D01*
X119372500Y-92750000D02*
X118850000Y-92750000D01*
X119740000Y-84530000D02*
X134090000Y-84530000D01*
%TO.N,Net-(U1-Pad8)*%
X133355000Y-101600000D02*
X135890000Y-101600000D01*
X132090000Y-102865000D02*
X133355000Y-101600000D01*
%TO.N,Cin*%
X141718736Y-93980000D02*
X143510000Y-93980000D01*
X140443736Y-92705000D02*
X141718736Y-93980000D01*
X132090000Y-92705000D02*
X140443736Y-92705000D01*
%TO.N,S3*%
X151200000Y-91780000D02*
X150210000Y-92770000D01*
X150210000Y-92770000D02*
X148597500Y-92770000D01*
X151200000Y-90046899D02*
X151200000Y-91780000D01*
X150053101Y-88900000D02*
X151200000Y-90046899D01*
X143510000Y-88900000D02*
X150053101Y-88900000D01*
%TO.N,CO*%
X147427500Y-91440000D02*
X148597500Y-90270000D01*
X143510000Y-91440000D02*
X147427500Y-91440000D01*
%TO.N,Net-(U1-Pad6)*%
X130815000Y-93980000D02*
X135890000Y-93980000D01*
X124470000Y-100325000D02*
X130815000Y-93980000D01*
%TO.N,A2*%
X130920000Y-91440000D02*
X135890000Y-91440000D01*
X128369000Y-93991000D02*
X130920000Y-91440000D01*
X120631500Y-93991000D02*
X128369000Y-93991000D01*
X119372500Y-95250000D02*
X120631500Y-93991000D01*
%TO.N,GND*%
X119372500Y-90250000D02*
X124385000Y-90250000D01*
%TO.N,VCC*%
X130045000Y-85580000D02*
X132090000Y-87625000D01*
X121580000Y-85580000D02*
X130045000Y-85580000D01*
X119410000Y-87750000D02*
X121580000Y-85580000D01*
X119372500Y-87750000D02*
X119410000Y-87750000D01*
%TD*%
%TA.AperFunction,NonConductor*%
G36*
X120553093Y-85312502D02*
G01*
X120599586Y-85366158D01*
X120609690Y-85436432D01*
X120580196Y-85501012D01*
X120574067Y-85507595D01*
X119725284Y-86356378D01*
X119662972Y-86390404D01*
X119625825Y-86392287D01*
X119625808Y-86392639D01*
X119621669Y-86392444D01*
X119621662Y-86392443D01*
X119603144Y-86391570D01*
X119603137Y-86391570D01*
X119601656Y-86391500D01*
X119261028Y-86391500D01*
X119192907Y-86371498D01*
X119146414Y-86317842D01*
X119136310Y-86247568D01*
X119165804Y-86182988D01*
X119171933Y-86176405D01*
X120018933Y-85329405D01*
X120081245Y-85295379D01*
X120108028Y-85292500D01*
X120484972Y-85292500D01*
X120553093Y-85312502D01*
G37*
%TD.AperFunction*%
%TA.AperFunction,NonConductor*%
G36*
X133790093Y-85312502D02*
G01*
X133811067Y-85329405D01*
X134544595Y-86062933D01*
X134578621Y-86125245D01*
X134581500Y-86152028D01*
X134581500Y-87017973D01*
X134561498Y-87086094D01*
X134544599Y-87107064D01*
X133572065Y-88079597D01*
X133509755Y-88113621D01*
X133482972Y-88116500D01*
X133477168Y-88116500D01*
X133409047Y-88096498D01*
X133362554Y-88042842D01*
X133352450Y-87972568D01*
X133355461Y-87957888D01*
X133372633Y-87893802D01*
X133383543Y-87853087D01*
X133403498Y-87625000D01*
X133383543Y-87396913D01*
X133377243Y-87373401D01*
X133325707Y-87181067D01*
X133325706Y-87181065D01*
X133324284Y-87175757D01*
X133321961Y-87170775D01*
X133229849Y-86973238D01*
X133229846Y-86973233D01*
X133227523Y-86968251D01*
X133096198Y-86780700D01*
X132934300Y-86618802D01*
X132929792Y-86615645D01*
X132929789Y-86615643D01*
X132806831Y-86529547D01*
X132746749Y-86487477D01*
X132741767Y-86485154D01*
X132741762Y-86485151D01*
X132544225Y-86393039D01*
X132544224Y-86393039D01*
X132539243Y-86390716D01*
X132533935Y-86389294D01*
X132533933Y-86389293D01*
X132323402Y-86332881D01*
X132323400Y-86332881D01*
X132318087Y-86331457D01*
X132090000Y-86311502D01*
X132084525Y-86311981D01*
X131932289Y-86325300D01*
X131862684Y-86311311D01*
X131832212Y-86288874D01*
X131050933Y-85507595D01*
X131016907Y-85445283D01*
X131021972Y-85374468D01*
X131064519Y-85317632D01*
X131131039Y-85292821D01*
X131140028Y-85292500D01*
X133721972Y-85292500D01*
X133790093Y-85312502D01*
G37*
%TD.AperFunction*%
%TA.AperFunction,NonConductor*%
G36*
X123212334Y-86362502D02*
G01*
X123258827Y-86416158D01*
X123268931Y-86486432D01*
X123245039Y-86544065D01*
X123219385Y-86578295D01*
X123168255Y-86714684D01*
X123161500Y-86776866D01*
X123161500Y-88473134D01*
X123168255Y-88535316D01*
X123219385Y-88671705D01*
X123306739Y-88788261D01*
X123423295Y-88875615D01*
X123559684Y-88926745D01*
X123570474Y-88927917D01*
X123572606Y-88928803D01*
X123575222Y-88929425D01*
X123575121Y-88929848D01*
X123636035Y-88955155D01*
X123676463Y-89013517D01*
X123678922Y-89084471D01*
X123642629Y-89145490D01*
X123633969Y-89152489D01*
X123630207Y-89155646D01*
X123625700Y-89158802D01*
X123463802Y-89320700D01*
X123460645Y-89325208D01*
X123460643Y-89325211D01*
X123384629Y-89433771D01*
X123329172Y-89478099D01*
X123281416Y-89487500D01*
X120692030Y-89487500D01*
X120623909Y-89467498D01*
X120596864Y-89444080D01*
X120587919Y-89433771D01*
X120514569Y-89349243D01*
X120451523Y-89276588D01*
X120451521Y-89276586D01*
X120448023Y-89272555D01*
X120406470Y-89238484D01*
X120273873Y-89129760D01*
X120273867Y-89129756D01*
X120269745Y-89126376D01*
X120238250Y-89108448D01*
X120188945Y-89057368D01*
X120175083Y-88987738D01*
X120201066Y-88921667D01*
X120230216Y-88894427D01*
X120261116Y-88873624D01*
X120351819Y-88812559D01*
X120384817Y-88781081D01*
X120425036Y-88742713D01*
X120518635Y-88653424D01*
X120656254Y-88468458D01*
X120665559Y-88450158D01*
X120725662Y-88331943D01*
X120760740Y-88262949D01*
X120763149Y-88255193D01*
X120827524Y-88047871D01*
X120829107Y-88042773D01*
X120838412Y-87972568D01*
X120858698Y-87819511D01*
X120858698Y-87819506D01*
X120859398Y-87814226D01*
X120850749Y-87583842D01*
X120830717Y-87488369D01*
X120836304Y-87417594D01*
X120864937Y-87373401D01*
X121858933Y-86379405D01*
X121921245Y-86345379D01*
X121948028Y-86342500D01*
X123144213Y-86342500D01*
X123212334Y-86362502D01*
G37*
%TD.AperFunction*%
%TA.AperFunction,NonConductor*%
G36*
X129745093Y-86362502D02*
G01*
X129766067Y-86379405D01*
X130753874Y-87367212D01*
X130787900Y-87429524D01*
X130790300Y-87467289D01*
X130779189Y-87594284D01*
X130776502Y-87625000D01*
X130796457Y-87853087D01*
X130807367Y-87893802D01*
X130824539Y-87957888D01*
X130822849Y-88028865D01*
X130783055Y-88087661D01*
X130717791Y-88115609D01*
X130702832Y-88116500D01*
X128363376Y-88116500D01*
X128344426Y-88115067D01*
X128330027Y-88112876D01*
X128330021Y-88112876D01*
X128322792Y-88111776D01*
X128315500Y-88112369D01*
X128315497Y-88112369D01*
X128269817Y-88116085D01*
X128259602Y-88116500D01*
X128251475Y-88116500D01*
X128247839Y-88116924D01*
X128247837Y-88116924D01*
X128244385Y-88117327D01*
X128223076Y-88119811D01*
X128218756Y-88120238D01*
X128145574Y-88126191D01*
X128138612Y-88128447D01*
X128132624Y-88129643D01*
X128126667Y-88131051D01*
X128119393Y-88131899D01*
X128112511Y-88134397D01*
X128112507Y-88134398D01*
X128050393Y-88156945D01*
X128046289Y-88158355D01*
X127976425Y-88180987D01*
X127970162Y-88184787D01*
X127964620Y-88187325D01*
X127959144Y-88190067D01*
X127952259Y-88192566D01*
X127946135Y-88196581D01*
X127890868Y-88232815D01*
X127887200Y-88235130D01*
X127824419Y-88273227D01*
X127820212Y-88276943D01*
X127820208Y-88276946D01*
X127815995Y-88280668D01*
X127815969Y-88280638D01*
X127813041Y-88283236D01*
X127809687Y-88286040D01*
X127803565Y-88290054D01*
X127798532Y-88295367D01*
X127749995Y-88346604D01*
X127747617Y-88349046D01*
X125986484Y-90110178D01*
X125924172Y-90144204D01*
X125853356Y-90139139D01*
X125796521Y-90096592D01*
X125771868Y-90032065D01*
X125764022Y-89942393D01*
X125763543Y-89936913D01*
X125762119Y-89931598D01*
X125705707Y-89721067D01*
X125705706Y-89721065D01*
X125704284Y-89715757D01*
X125696659Y-89699405D01*
X125609849Y-89513238D01*
X125609846Y-89513233D01*
X125607523Y-89508251D01*
X125476198Y-89320700D01*
X125314300Y-89158802D01*
X125309789Y-89155643D01*
X125305576Y-89152108D01*
X125306527Y-89150974D01*
X125266529Y-89100929D01*
X125259224Y-89030310D01*
X125291258Y-88966951D01*
X125352462Y-88930970D01*
X125369517Y-88927918D01*
X125380316Y-88926745D01*
X125516705Y-88875615D01*
X125633261Y-88788261D01*
X125720615Y-88671705D01*
X125771745Y-88535316D01*
X125778500Y-88473134D01*
X125778500Y-86776866D01*
X125771745Y-86714684D01*
X125720615Y-86578295D01*
X125694961Y-86544065D01*
X125670113Y-86477559D01*
X125685166Y-86408176D01*
X125735340Y-86357946D01*
X125795787Y-86342500D01*
X129676972Y-86342500D01*
X129745093Y-86362502D01*
G37*
%TD.AperFunction*%
%TA.AperFunction,NonConductor*%
G36*
X147056121Y-89682502D02*
G01*
X147102614Y-89736158D01*
X147114000Y-89788500D01*
X147114000Y-90551500D01*
X147093998Y-90619621D01*
X147040342Y-90666114D01*
X146988000Y-90677500D01*
X144639067Y-90677500D01*
X144570946Y-90657498D01*
X144535855Y-90623772D01*
X144519359Y-90600214D01*
X144519357Y-90600212D01*
X144516198Y-90595700D01*
X144354300Y-90433802D01*
X144349792Y-90430645D01*
X144349789Y-90430643D01*
X144252809Y-90362737D01*
X144166749Y-90302477D01*
X144161767Y-90300154D01*
X144161762Y-90300151D01*
X144127543Y-90284195D01*
X144074258Y-90237278D01*
X144054797Y-90169001D01*
X144075339Y-90101041D01*
X144127543Y-90055805D01*
X144161762Y-90039849D01*
X144161767Y-90039846D01*
X144166749Y-90037523D01*
X144271611Y-89964098D01*
X144349789Y-89909357D01*
X144349792Y-89909355D01*
X144354300Y-89906198D01*
X144516198Y-89744300D01*
X144528085Y-89727324D01*
X144535855Y-89716228D01*
X144591312Y-89671900D01*
X144639067Y-89662500D01*
X146988000Y-89662500D01*
X147056121Y-89682502D01*
G37*
%TD.AperFunction*%
%TA.AperFunction,NonConductor*%
G36*
X134599073Y-89313431D02*
G01*
X134655909Y-89355978D01*
X134669236Y-89378237D01*
X134750151Y-89551762D01*
X134750154Y-89551767D01*
X134752477Y-89556749D01*
X134812111Y-89641915D01*
X134864146Y-89716228D01*
X134883802Y-89744300D01*
X135045700Y-89906198D01*
X135050208Y-89909355D01*
X135050211Y-89909357D01*
X135128389Y-89964098D01*
X135233251Y-90037523D01*
X135238233Y-90039846D01*
X135238238Y-90039849D01*
X135272457Y-90055805D01*
X135325742Y-90102722D01*
X135345203Y-90170999D01*
X135324661Y-90238959D01*
X135272457Y-90284195D01*
X135238238Y-90300151D01*
X135238233Y-90300154D01*
X135233251Y-90302477D01*
X135147191Y-90362737D01*
X135050211Y-90430643D01*
X135050208Y-90430645D01*
X135045700Y-90433802D01*
X134883802Y-90595700D01*
X134880643Y-90600212D01*
X134880641Y-90600214D01*
X134864145Y-90623772D01*
X134808688Y-90668100D01*
X134760933Y-90677500D01*
X133471541Y-90677500D01*
X133403420Y-90657498D01*
X133356927Y-90603842D01*
X133346823Y-90533568D01*
X133349834Y-90518888D01*
X133372633Y-90433802D01*
X133383543Y-90393087D01*
X133403498Y-90165000D01*
X133383543Y-89936913D01*
X133382119Y-89931598D01*
X133346887Y-89800111D01*
X133348577Y-89729135D01*
X133388371Y-89670339D01*
X133453635Y-89642391D01*
X133468594Y-89641500D01*
X133783624Y-89641500D01*
X133802574Y-89642933D01*
X133816973Y-89645124D01*
X133816979Y-89645124D01*
X133824208Y-89646224D01*
X133831500Y-89645631D01*
X133831503Y-89645631D01*
X133877183Y-89641915D01*
X133887398Y-89641500D01*
X133895525Y-89641500D01*
X133899161Y-89641076D01*
X133899163Y-89641076D01*
X133902615Y-89640673D01*
X133923924Y-89638189D01*
X133928244Y-89637762D01*
X134001426Y-89631809D01*
X134008388Y-89629553D01*
X134014376Y-89628357D01*
X134020333Y-89626949D01*
X134027607Y-89626101D01*
X134034489Y-89623603D01*
X134034493Y-89623602D01*
X134096607Y-89601055D01*
X134100711Y-89599645D01*
X134170575Y-89577013D01*
X134176838Y-89573213D01*
X134182380Y-89570675D01*
X134187856Y-89567933D01*
X134194741Y-89565434D01*
X134256132Y-89525185D01*
X134259800Y-89522870D01*
X134322581Y-89484773D01*
X134326786Y-89481059D01*
X134326789Y-89481057D01*
X134331005Y-89477333D01*
X134331031Y-89477362D01*
X134333962Y-89474762D01*
X134337316Y-89471958D01*
X134343435Y-89467946D01*
X134396989Y-89411413D01*
X134399366Y-89408972D01*
X134465946Y-89342392D01*
X134528258Y-89308366D01*
X134599073Y-89313431D01*
G37*
%TD.AperFunction*%
%TA.AperFunction,NonConductor*%
G36*
X137340093Y-89682502D02*
G01*
X137361067Y-89699405D01*
X139389067Y-91727405D01*
X139423093Y-91789717D01*
X139418028Y-91860532D01*
X139375481Y-91917368D01*
X139308961Y-91942179D01*
X139299972Y-91942500D01*
X137274221Y-91942500D01*
X137206100Y-91922498D01*
X137159607Y-91868842D01*
X137149503Y-91798568D01*
X137152514Y-91783889D01*
X137182119Y-91673402D01*
X137182119Y-91673400D01*
X137183543Y-91668087D01*
X137203498Y-91440000D01*
X137183543Y-91211913D01*
X137182119Y-91206598D01*
X137125707Y-90996067D01*
X137125706Y-90996065D01*
X137124284Y-90990757D01*
X137121961Y-90985775D01*
X137029849Y-90788238D01*
X137029846Y-90788233D01*
X137027523Y-90783251D01*
X136939470Y-90657498D01*
X136899357Y-90600211D01*
X136899355Y-90600208D01*
X136896198Y-90595700D01*
X136734300Y-90433802D01*
X136729792Y-90430645D01*
X136729789Y-90430643D01*
X136632809Y-90362737D01*
X136546749Y-90302477D01*
X136541767Y-90300154D01*
X136541762Y-90300151D01*
X136507543Y-90284195D01*
X136454258Y-90237278D01*
X136434797Y-90169001D01*
X136455339Y-90101041D01*
X136507543Y-90055805D01*
X136541762Y-90039849D01*
X136541767Y-90039846D01*
X136546749Y-90037523D01*
X136651611Y-89964098D01*
X136729789Y-89909357D01*
X136729792Y-89909355D01*
X136734300Y-89906198D01*
X136896198Y-89744300D01*
X136908085Y-89727324D01*
X136915855Y-89716228D01*
X136971312Y-89671900D01*
X137019067Y-89662500D01*
X137271972Y-89662500D01*
X137340093Y-89682502D01*
G37*
%TD.AperFunction*%
%TA.AperFunction,NonConductor*%
G36*
X142199527Y-88396502D02*
G01*
X142246020Y-88450158D01*
X142256124Y-88520432D01*
X142253113Y-88535111D01*
X142216457Y-88671913D01*
X142196502Y-88900000D01*
X142216457Y-89128087D01*
X142217881Y-89133400D01*
X142217881Y-89133402D01*
X142269277Y-89325211D01*
X142275716Y-89349243D01*
X142278039Y-89354224D01*
X142278039Y-89354225D01*
X142370151Y-89551762D01*
X142370154Y-89551767D01*
X142372477Y-89556749D01*
X142432111Y-89641915D01*
X142484146Y-89716228D01*
X142503802Y-89744300D01*
X142665700Y-89906198D01*
X142670208Y-89909355D01*
X142670211Y-89909357D01*
X142748389Y-89964098D01*
X142853251Y-90037523D01*
X142858233Y-90039846D01*
X142858238Y-90039849D01*
X142892457Y-90055805D01*
X142945742Y-90102722D01*
X142965203Y-90170999D01*
X142944661Y-90238959D01*
X142892457Y-90284195D01*
X142858238Y-90300151D01*
X142858233Y-90300154D01*
X142853251Y-90302477D01*
X142767191Y-90362737D01*
X142670211Y-90430643D01*
X142670208Y-90430645D01*
X142665700Y-90433802D01*
X142503802Y-90595700D01*
X142500645Y-90600208D01*
X142500643Y-90600211D01*
X142460530Y-90657498D01*
X142372477Y-90783251D01*
X142370154Y-90788233D01*
X142370151Y-90788238D01*
X142278039Y-90985775D01*
X142275716Y-90990757D01*
X142274294Y-90996065D01*
X142274293Y-90996067D01*
X142217881Y-91206598D01*
X142216457Y-91211913D01*
X142196502Y-91440000D01*
X142216457Y-91668087D01*
X142217881Y-91673400D01*
X142217881Y-91673402D01*
X142253113Y-91804889D01*
X142251423Y-91875865D01*
X142211629Y-91934661D01*
X142146365Y-91962609D01*
X142131406Y-91963500D01*
X141834027Y-91963500D01*
X141765906Y-91943498D01*
X141744932Y-91926595D01*
X138409933Y-88591595D01*
X138375907Y-88529283D01*
X138380972Y-88458467D01*
X138423519Y-88401632D01*
X138490039Y-88376821D01*
X138499028Y-88376500D01*
X142131406Y-88376500D01*
X142199527Y-88396502D01*
G37*
%TD.AperFunction*%
%TA.AperFunction,NonConductor*%
G36*
X150289512Y-90215203D02*
G01*
X150296095Y-90221332D01*
X150400595Y-90325832D01*
X150434621Y-90388144D01*
X150437500Y-90414927D01*
X150437500Y-91411972D01*
X150417498Y-91480093D01*
X150400595Y-91501067D01*
X149971253Y-91930409D01*
X149908941Y-91964435D01*
X149838126Y-91959370D01*
X149786994Y-91923895D01*
X149673023Y-91792555D01*
X149637380Y-91763330D01*
X149597386Y-91704671D01*
X149595454Y-91633701D01*
X149632198Y-91572952D01*
X149650968Y-91558752D01*
X149790620Y-91472332D01*
X149796848Y-91468478D01*
X149921805Y-91343303D01*
X149943025Y-91308878D01*
X150010775Y-91198968D01*
X150010776Y-91198966D01*
X150014615Y-91192738D01*
X150070297Y-91024861D01*
X150071564Y-91012500D01*
X150080672Y-90923598D01*
X150081000Y-90920400D01*
X150081000Y-90310427D01*
X150101002Y-90242306D01*
X150154658Y-90195813D01*
X150224932Y-90185709D01*
X150289512Y-90215203D01*
G37*
%TD.AperFunction*%
%TA.AperFunction,NonConductor*%
G36*
X123482933Y-91032502D02*
G01*
X123503907Y-91049405D01*
X123625700Y-91171198D01*
X123630208Y-91174355D01*
X123630211Y-91174357D01*
X123676256Y-91206598D01*
X123813251Y-91302523D01*
X123818233Y-91304846D01*
X123818238Y-91304849D01*
X123852457Y-91320805D01*
X123905742Y-91367722D01*
X123925203Y-91435999D01*
X123904661Y-91503959D01*
X123852457Y-91549195D01*
X123818238Y-91565151D01*
X123818233Y-91565154D01*
X123813251Y-91567477D01*
X123754736Y-91608450D01*
X123630211Y-91695643D01*
X123630208Y-91695645D01*
X123625700Y-91698802D01*
X123463802Y-91860700D01*
X123460645Y-91865208D01*
X123460643Y-91865211D01*
X123420530Y-91922498D01*
X123332477Y-92048251D01*
X123330154Y-92053233D01*
X123330151Y-92053238D01*
X123238039Y-92250775D01*
X123235716Y-92255757D01*
X123234294Y-92261065D01*
X123234293Y-92261067D01*
X123209593Y-92353248D01*
X123176457Y-92476913D01*
X123156502Y-92705000D01*
X123176457Y-92933087D01*
X123177881Y-92938400D01*
X123177881Y-92938402D01*
X123213113Y-93069889D01*
X123211423Y-93140865D01*
X123171629Y-93199661D01*
X123106365Y-93227609D01*
X123091406Y-93228500D01*
X120942495Y-93228500D01*
X120874374Y-93208498D01*
X120827881Y-93154842D01*
X120817777Y-93084568D01*
X120822163Y-93065135D01*
X120829107Y-93042773D01*
X120843021Y-92937792D01*
X120858698Y-92819511D01*
X120858698Y-92819506D01*
X120859398Y-92814226D01*
X120850749Y-92583842D01*
X120803407Y-92358209D01*
X120798756Y-92346432D01*
X120720685Y-92148744D01*
X120720684Y-92148742D01*
X120718724Y-92143779D01*
X120701218Y-92114929D01*
X120601890Y-91951243D01*
X120599123Y-91946683D01*
X120537671Y-91875865D01*
X120451523Y-91776588D01*
X120451521Y-91776586D01*
X120448023Y-91772555D01*
X120354222Y-91695643D01*
X120273873Y-91629760D01*
X120273867Y-91629756D01*
X120269745Y-91626376D01*
X120238250Y-91608448D01*
X120188945Y-91557368D01*
X120175083Y-91487738D01*
X120201066Y-91421667D01*
X120230216Y-91394427D01*
X120315408Y-91337072D01*
X120351819Y-91312559D01*
X120362340Y-91302523D01*
X120477423Y-91192738D01*
X120518635Y-91153424D01*
X120585699Y-91063287D01*
X120642409Y-91020574D01*
X120686788Y-91012500D01*
X123414812Y-91012500D01*
X123482933Y-91032502D01*
G37*
%TD.AperFunction*%
%TA.AperFunction,NonConductor*%
G36*
X130779527Y-89661502D02*
G01*
X130826020Y-89715158D01*
X130836124Y-89785432D01*
X130833113Y-89800111D01*
X130797881Y-89931598D01*
X130796457Y-89936913D01*
X130776502Y-90165000D01*
X130796457Y-90393087D01*
X130797880Y-90398398D01*
X130797882Y-90398409D01*
X130835471Y-90538689D01*
X130833782Y-90609666D01*
X130793988Y-90668462D01*
X130745243Y-90692683D01*
X130743393Y-90692899D01*
X130736515Y-90695395D01*
X130736509Y-90695397D01*
X130674393Y-90717945D01*
X130670289Y-90719355D01*
X130600425Y-90741987D01*
X130594162Y-90745787D01*
X130588620Y-90748325D01*
X130583144Y-90751067D01*
X130576259Y-90753566D01*
X130570135Y-90757581D01*
X130514868Y-90793815D01*
X130511200Y-90796130D01*
X130448419Y-90834227D01*
X130444214Y-90837941D01*
X130444211Y-90837943D01*
X130439995Y-90841667D01*
X130439969Y-90841638D01*
X130437038Y-90844238D01*
X130433684Y-90847042D01*
X130427565Y-90851054D01*
X130422533Y-90856366D01*
X130374012Y-90907586D01*
X130371634Y-90910028D01*
X128090067Y-93191595D01*
X128027755Y-93225621D01*
X128000972Y-93228500D01*
X125848594Y-93228500D01*
X125780473Y-93208498D01*
X125733980Y-93154842D01*
X125723876Y-93084568D01*
X125726887Y-93069889D01*
X125762119Y-92938402D01*
X125762119Y-92938400D01*
X125763543Y-92933087D01*
X125783498Y-92705000D01*
X125769700Y-92547289D01*
X125783689Y-92477684D01*
X125806126Y-92447212D01*
X128574933Y-89678405D01*
X128637245Y-89644379D01*
X128664028Y-89641500D01*
X130711406Y-89641500D01*
X130779527Y-89661502D01*
G37*
%TD.AperFunction*%
%TA.AperFunction,NonConductor*%
G36*
X130715196Y-92827308D02*
G01*
X130772032Y-92869855D01*
X130795249Y-92923481D01*
X130795979Y-92927619D01*
X130796457Y-92933087D01*
X130831662Y-93064473D01*
X130829972Y-93135448D01*
X130790178Y-93194244D01*
X130720172Y-93222668D01*
X130686127Y-93225438D01*
X130664574Y-93227191D01*
X130657612Y-93229446D01*
X130651624Y-93230643D01*
X130645667Y-93232051D01*
X130638393Y-93232899D01*
X130631511Y-93235397D01*
X130631507Y-93235398D01*
X130569393Y-93257945D01*
X130565289Y-93259355D01*
X130495425Y-93281987D01*
X130495424Y-93281988D01*
X130494784Y-93280011D01*
X130434749Y-93288701D01*
X130370140Y-93259269D01*
X130331700Y-93199580D01*
X130331632Y-93128583D01*
X130363467Y-93074871D01*
X130582069Y-92856269D01*
X130644381Y-92822243D01*
X130715196Y-92827308D01*
G37*
%TD.AperFunction*%
%TA.AperFunction,NonConductor*%
G36*
X145753593Y-93508502D02*
G01*
X145774567Y-93525405D01*
X147107902Y-94858740D01*
X147141928Y-94921052D01*
X147141870Y-94974081D01*
X147140893Y-94977227D01*
X147140193Y-94982512D01*
X147140191Y-94982519D01*
X147139865Y-94984982D01*
X147139439Y-94985944D01*
X147139047Y-94987725D01*
X147138684Y-94987645D01*
X147111087Y-95049885D01*
X147051788Y-95088926D01*
X146980796Y-95089710D01*
X146925862Y-95057524D01*
X146636810Y-94768472D01*
X146624423Y-94754059D01*
X146616572Y-94743391D01*
X146611454Y-94736436D01*
X146570945Y-94702021D01*
X146563429Y-94695091D01*
X146557685Y-94689347D01*
X146554811Y-94687073D01*
X146554804Y-94687067D01*
X146535289Y-94671628D01*
X146531885Y-94668837D01*
X146481528Y-94626055D01*
X146481524Y-94626052D01*
X146475949Y-94621316D01*
X146469432Y-94617988D01*
X146464368Y-94614611D01*
X146459144Y-94611384D01*
X146453400Y-94606840D01*
X146427109Y-94594552D01*
X146386918Y-94575768D01*
X146382967Y-94573837D01*
X146324117Y-94543787D01*
X146317596Y-94540457D01*
X146310481Y-94538716D01*
X146304735Y-94536579D01*
X146298952Y-94534655D01*
X146292321Y-94531556D01*
X146220443Y-94516606D01*
X146216171Y-94515639D01*
X146144888Y-94498196D01*
X146139289Y-94497849D01*
X146139285Y-94497848D01*
X146133670Y-94497500D01*
X146133672Y-94497461D01*
X146129771Y-94497228D01*
X146125412Y-94496839D01*
X146118244Y-94495348D01*
X146110927Y-94495546D01*
X146040423Y-94497454D01*
X146037014Y-94497500D01*
X144890201Y-94497500D01*
X144822080Y-94477498D01*
X144775587Y-94423842D01*
X144765483Y-94353568D01*
X144768495Y-94338888D01*
X144802118Y-94213409D01*
X144802120Y-94213398D01*
X144803543Y-94208087D01*
X144823498Y-93980000D01*
X144803543Y-93751913D01*
X144775461Y-93647110D01*
X144777151Y-93576135D01*
X144816945Y-93517339D01*
X144882209Y-93489391D01*
X144897168Y-93488500D01*
X145685472Y-93488500D01*
X145753593Y-93508502D01*
G37*
%TD.AperFunction*%
%TA.AperFunction,NonConductor*%
G36*
X134829054Y-94762502D02*
G01*
X134864145Y-94796228D01*
X134880641Y-94819786D01*
X134883802Y-94824300D01*
X135045700Y-94986198D01*
X135050208Y-94989355D01*
X135050211Y-94989357D01*
X135128389Y-95044098D01*
X135233251Y-95117523D01*
X135238233Y-95119846D01*
X135238238Y-95119849D01*
X135272457Y-95135805D01*
X135325742Y-95182722D01*
X135345203Y-95250999D01*
X135324661Y-95318959D01*
X135272457Y-95364195D01*
X135238238Y-95380151D01*
X135238233Y-95380154D01*
X135233251Y-95382477D01*
X135150420Y-95440476D01*
X135050211Y-95510643D01*
X135050208Y-95510645D01*
X135045700Y-95513802D01*
X134883802Y-95675700D01*
X134880645Y-95680208D01*
X134880643Y-95680211D01*
X134826278Y-95757852D01*
X134752477Y-95863251D01*
X134750154Y-95868233D01*
X134750151Y-95868238D01*
X134678218Y-96022500D01*
X134655716Y-96070757D01*
X134654294Y-96076065D01*
X134654293Y-96076067D01*
X134606520Y-96254357D01*
X134596457Y-96291913D01*
X134595978Y-96297393D01*
X134589339Y-96373272D01*
X134563475Y-96439390D01*
X134505972Y-96481029D01*
X134435085Y-96484970D01*
X134374723Y-96451385D01*
X133426126Y-95502788D01*
X133392100Y-95440476D01*
X133389700Y-95402711D01*
X133403019Y-95250475D01*
X133403498Y-95245000D01*
X133383543Y-95016913D01*
X133382119Y-95011598D01*
X133352514Y-94901111D01*
X133354204Y-94830135D01*
X133393998Y-94771339D01*
X133459262Y-94743391D01*
X133474221Y-94742500D01*
X134760933Y-94742500D01*
X134829054Y-94762502D01*
G37*
%TD.AperFunction*%
%TA.AperFunction,NonConductor*%
G36*
X140143829Y-93487502D02*
G01*
X140164803Y-93504405D01*
X140942803Y-94282405D01*
X140976829Y-94344717D01*
X140971764Y-94415532D01*
X140929217Y-94472368D01*
X140862697Y-94497179D01*
X140853708Y-94497500D01*
X139757376Y-94497500D01*
X139738426Y-94496067D01*
X139724027Y-94493876D01*
X139724023Y-94493876D01*
X139716793Y-94492776D01*
X139709501Y-94493369D01*
X139709498Y-94493369D01*
X139663814Y-94497085D01*
X139653600Y-94497500D01*
X139645475Y-94497500D01*
X139641840Y-94497924D01*
X139641837Y-94497924D01*
X139628065Y-94499530D01*
X139617110Y-94500807D01*
X139612739Y-94501240D01*
X139539574Y-94507190D01*
X139532617Y-94509444D01*
X139526663Y-94510633D01*
X139520665Y-94512051D01*
X139513393Y-94512899D01*
X139444383Y-94537948D01*
X139440270Y-94539360D01*
X139405816Y-94550522D01*
X139377386Y-94559732D01*
X139377384Y-94559733D01*
X139370426Y-94561987D01*
X139364173Y-94565782D01*
X139358613Y-94568327D01*
X139353139Y-94571069D01*
X139346259Y-94573566D01*
X139340134Y-94577582D01*
X139284876Y-94613810D01*
X139281158Y-94616156D01*
X139218420Y-94654227D01*
X139209995Y-94661667D01*
X139209970Y-94661638D01*
X139207044Y-94664234D01*
X139203690Y-94667039D01*
X139197565Y-94671054D01*
X139192530Y-94676369D01*
X139192529Y-94676370D01*
X139144012Y-94727586D01*
X139141634Y-94730028D01*
X137406484Y-96465178D01*
X137344172Y-96499204D01*
X137273357Y-96494139D01*
X137216521Y-96451592D01*
X137191868Y-96387065D01*
X137184022Y-96297393D01*
X137183543Y-96291913D01*
X137173480Y-96254357D01*
X137125707Y-96076067D01*
X137125706Y-96076065D01*
X137124284Y-96070757D01*
X137101782Y-96022500D01*
X137029849Y-95868238D01*
X137029846Y-95868233D01*
X137027523Y-95863251D01*
X136953722Y-95757852D01*
X136899357Y-95680211D01*
X136899355Y-95680208D01*
X136896198Y-95675700D01*
X136734300Y-95513802D01*
X136729792Y-95510645D01*
X136729789Y-95510643D01*
X136629580Y-95440476D01*
X136546749Y-95382477D01*
X136541767Y-95380154D01*
X136541762Y-95380151D01*
X136507543Y-95364195D01*
X136454258Y-95317278D01*
X136434797Y-95249001D01*
X136455339Y-95181041D01*
X136507543Y-95135805D01*
X136541762Y-95119849D01*
X136541767Y-95119846D01*
X136546749Y-95117523D01*
X136651611Y-95044098D01*
X136729789Y-94989357D01*
X136729792Y-94989355D01*
X136734300Y-94986198D01*
X136896198Y-94824300D01*
X136915855Y-94796228D01*
X136986671Y-94695091D01*
X137027523Y-94636749D01*
X137029846Y-94631767D01*
X137029849Y-94631762D01*
X137121961Y-94434225D01*
X137121961Y-94434224D01*
X137124284Y-94429243D01*
X137145289Y-94350854D01*
X137182119Y-94213402D01*
X137182119Y-94213400D01*
X137183543Y-94208087D01*
X137203498Y-93980000D01*
X137183543Y-93751913D01*
X137149834Y-93626110D01*
X137151524Y-93555135D01*
X137191318Y-93496339D01*
X137256582Y-93468391D01*
X137271541Y-93467500D01*
X140075708Y-93467500D01*
X140143829Y-93487502D01*
G37*
%TD.AperFunction*%
%TA.AperFunction,NonConductor*%
G36*
X128813860Y-94711731D02*
G01*
X128852300Y-94771420D01*
X128852368Y-94842417D01*
X128820533Y-94896129D01*
X125986484Y-97730178D01*
X125924172Y-97764204D01*
X125853357Y-97759139D01*
X125796521Y-97716592D01*
X125771868Y-97652065D01*
X125764022Y-97562393D01*
X125763543Y-97556913D01*
X125758258Y-97537188D01*
X125705707Y-97341067D01*
X125705706Y-97341065D01*
X125704284Y-97335757D01*
X125674033Y-97270883D01*
X125609849Y-97133238D01*
X125609846Y-97133233D01*
X125607523Y-97128251D01*
X125517328Y-96999440D01*
X125479357Y-96945211D01*
X125479355Y-96945208D01*
X125476198Y-96940700D01*
X125314300Y-96778802D01*
X125309792Y-96775645D01*
X125309789Y-96775643D01*
X125179567Y-96684461D01*
X125126749Y-96647477D01*
X125121767Y-96645154D01*
X125121762Y-96645151D01*
X125087543Y-96629195D01*
X125034258Y-96582278D01*
X125014797Y-96514001D01*
X125035339Y-96446041D01*
X125087543Y-96400805D01*
X125121762Y-96384849D01*
X125121767Y-96384846D01*
X125126749Y-96382523D01*
X125263754Y-96286591D01*
X125309789Y-96254357D01*
X125309792Y-96254355D01*
X125314300Y-96251198D01*
X125476198Y-96089300D01*
X125492671Y-96065775D01*
X125543810Y-95992740D01*
X125607523Y-95901749D01*
X125609846Y-95896767D01*
X125609849Y-95896762D01*
X125701961Y-95699225D01*
X125701961Y-95699224D01*
X125704284Y-95694243D01*
X125752634Y-95513802D01*
X125762119Y-95478402D01*
X125762119Y-95478400D01*
X125763543Y-95473087D01*
X125783498Y-95245000D01*
X125763543Y-95016913D01*
X125735461Y-94912110D01*
X125737151Y-94841135D01*
X125776945Y-94782339D01*
X125842209Y-94754391D01*
X125857168Y-94753500D01*
X128301624Y-94753500D01*
X128320574Y-94754933D01*
X128334973Y-94757124D01*
X128334979Y-94757124D01*
X128342208Y-94758224D01*
X128349500Y-94757631D01*
X128349503Y-94757631D01*
X128395183Y-94753915D01*
X128405398Y-94753500D01*
X128413525Y-94753500D01*
X128417161Y-94753076D01*
X128417163Y-94753076D01*
X128420615Y-94752673D01*
X128441924Y-94750189D01*
X128446244Y-94749762D01*
X128519426Y-94743809D01*
X128526388Y-94741553D01*
X128532376Y-94740357D01*
X128538333Y-94738949D01*
X128545607Y-94738101D01*
X128552489Y-94735603D01*
X128552493Y-94735602D01*
X128614607Y-94713055D01*
X128618711Y-94711645D01*
X128688575Y-94689013D01*
X128688576Y-94689012D01*
X128689216Y-94690989D01*
X128749251Y-94682299D01*
X128813860Y-94711731D01*
G37*
%TD.AperFunction*%
%TA.AperFunction,NonConductor*%
G36*
X134961012Y-97441964D02*
G01*
X134967595Y-97448093D01*
X135045700Y-97526198D01*
X135050208Y-97529355D01*
X135050211Y-97529357D01*
X135120570Y-97578623D01*
X135233251Y-97657523D01*
X135238233Y-97659846D01*
X135238238Y-97659849D01*
X135272457Y-97675805D01*
X135325742Y-97722722D01*
X135345203Y-97790999D01*
X135324661Y-97858959D01*
X135272457Y-97904195D01*
X135238238Y-97920151D01*
X135238233Y-97920154D01*
X135233251Y-97922477D01*
X135134573Y-97991572D01*
X135050211Y-98050643D01*
X135050208Y-98050645D01*
X135045700Y-98053802D01*
X134967595Y-98131907D01*
X134905283Y-98165933D01*
X134834468Y-98160868D01*
X134777632Y-98118321D01*
X134752821Y-98051801D01*
X134752500Y-98042812D01*
X134752500Y-97537188D01*
X134772502Y-97469067D01*
X134826158Y-97422574D01*
X134896432Y-97412470D01*
X134961012Y-97441964D01*
G37*
%TD.AperFunction*%
%TA.AperFunction,NonConductor*%
G36*
X133145532Y-98684132D02*
G01*
X133202368Y-98726679D01*
X133227179Y-98793199D01*
X133227500Y-98802188D01*
X133227500Y-99282624D01*
X133226067Y-99301574D01*
X133222776Y-99323207D01*
X133219549Y-99322716D01*
X133201729Y-99376329D01*
X133146467Y-99420901D01*
X133075880Y-99428519D01*
X133009105Y-99393607D01*
X132934300Y-99318802D01*
X132929792Y-99315645D01*
X132929789Y-99315643D01*
X132851611Y-99260902D01*
X132746749Y-99187477D01*
X132741767Y-99185154D01*
X132741762Y-99185151D01*
X132707543Y-99169195D01*
X132654258Y-99122278D01*
X132634797Y-99054001D01*
X132655339Y-98986041D01*
X132707543Y-98940805D01*
X132741762Y-98924849D01*
X132741767Y-98924846D01*
X132746749Y-98922523D01*
X132899538Y-98815539D01*
X132929789Y-98794357D01*
X132929792Y-98794355D01*
X132934300Y-98791198D01*
X133012405Y-98713093D01*
X133074717Y-98679067D01*
X133145532Y-98684132D01*
G37*
%TD.AperFunction*%
%TA.AperFunction,NonConductor*%
G36*
X142192561Y-96042502D02*
G01*
X142239054Y-96096158D01*
X142249158Y-96166432D01*
X142246146Y-96181112D01*
X142217882Y-96286591D01*
X142217881Y-96286598D01*
X142216457Y-96291913D01*
X142196502Y-96520000D01*
X142216457Y-96748087D01*
X142217881Y-96753400D01*
X142217881Y-96753402D01*
X142269277Y-96945211D01*
X142275716Y-96969243D01*
X142278039Y-96974224D01*
X142278039Y-96974225D01*
X142370151Y-97171762D01*
X142370154Y-97171767D01*
X142372477Y-97176749D01*
X142503802Y-97364300D01*
X142665700Y-97526198D01*
X142670208Y-97529355D01*
X142670211Y-97529357D01*
X142740570Y-97578623D01*
X142853251Y-97657523D01*
X142858233Y-97659846D01*
X142858238Y-97659849D01*
X142892457Y-97675805D01*
X142945742Y-97722722D01*
X142965203Y-97790999D01*
X142944661Y-97858959D01*
X142892457Y-97904195D01*
X142858238Y-97920151D01*
X142858233Y-97920154D01*
X142853251Y-97922477D01*
X142754573Y-97991572D01*
X142670211Y-98050643D01*
X142670208Y-98050645D01*
X142665700Y-98053802D01*
X142503802Y-98215700D01*
X142500643Y-98220212D01*
X142500641Y-98220214D01*
X142484145Y-98243772D01*
X142428688Y-98288100D01*
X142380933Y-98297500D01*
X141777376Y-98297500D01*
X141758426Y-98296067D01*
X141744027Y-98293876D01*
X141744021Y-98293876D01*
X141736792Y-98292776D01*
X141729500Y-98293369D01*
X141729497Y-98293369D01*
X141683817Y-98297085D01*
X141673602Y-98297500D01*
X141665475Y-98297500D01*
X141661839Y-98297924D01*
X141661837Y-98297924D01*
X141658385Y-98298327D01*
X141637076Y-98300811D01*
X141632756Y-98301238D01*
X141559574Y-98307191D01*
X141552612Y-98309447D01*
X141546624Y-98310643D01*
X141540667Y-98312051D01*
X141533393Y-98312899D01*
X141526511Y-98315397D01*
X141526507Y-98315398D01*
X141464393Y-98337945D01*
X141460289Y-98339355D01*
X141390425Y-98361987D01*
X141384162Y-98365787D01*
X141378620Y-98368325D01*
X141373144Y-98371067D01*
X141366259Y-98373566D01*
X141360135Y-98377581D01*
X141304868Y-98413815D01*
X141301200Y-98416130D01*
X141238419Y-98454227D01*
X141234212Y-98457943D01*
X141234208Y-98457946D01*
X141229995Y-98461668D01*
X141229969Y-98461638D01*
X141227041Y-98464236D01*
X141223687Y-98467040D01*
X141217565Y-98471054D01*
X141212532Y-98476367D01*
X141163995Y-98527604D01*
X141161617Y-98530046D01*
X140171067Y-99520595D01*
X140108755Y-99554621D01*
X140081972Y-99557500D01*
X137275560Y-99557500D01*
X137207439Y-99537498D01*
X137160946Y-99483842D01*
X137150842Y-99413568D01*
X137153854Y-99398888D01*
X137182118Y-99293409D01*
X137182120Y-99293398D01*
X137183543Y-99288087D01*
X137203498Y-99060000D01*
X137194864Y-98961312D01*
X137189700Y-98902289D01*
X137203689Y-98832684D01*
X137226126Y-98802212D01*
X139968933Y-96059405D01*
X140031245Y-96025379D01*
X140058028Y-96022500D01*
X142124440Y-96022500D01*
X142192561Y-96042502D01*
G37*
%TD.AperFunction*%
%TA.AperFunction,NonConductor*%
G36*
X123150953Y-94773502D02*
G01*
X123197446Y-94827158D01*
X123207550Y-94897432D01*
X123204540Y-94912105D01*
X123176457Y-95016913D01*
X123156502Y-95245000D01*
X123156981Y-95250475D01*
X123170300Y-95402712D01*
X123156311Y-95472317D01*
X123133875Y-95502788D01*
X122405830Y-96230832D01*
X121678472Y-96958190D01*
X121664059Y-96970577D01*
X121646436Y-96983546D01*
X121641692Y-96989129D01*
X121641693Y-96989129D01*
X121612021Y-97024055D01*
X121605091Y-97031571D01*
X121599347Y-97037315D01*
X121597073Y-97040189D01*
X121597067Y-97040196D01*
X121581628Y-97059711D01*
X121578837Y-97063115D01*
X121536055Y-97113472D01*
X121536052Y-97113476D01*
X121531316Y-97119051D01*
X121527988Y-97125568D01*
X121524611Y-97130632D01*
X121521384Y-97135856D01*
X121516840Y-97141600D01*
X121513741Y-97148231D01*
X121485768Y-97208082D01*
X121483837Y-97212033D01*
X121466851Y-97245298D01*
X121450457Y-97277404D01*
X121448716Y-97284519D01*
X121446579Y-97290265D01*
X121444655Y-97296048D01*
X121441556Y-97302679D01*
X121429678Y-97359789D01*
X121426608Y-97374547D01*
X121425639Y-97378829D01*
X121408196Y-97450112D01*
X121407500Y-97461330D01*
X121407461Y-97461328D01*
X121407228Y-97465229D01*
X121406839Y-97469588D01*
X121405348Y-97476756D01*
X121407374Y-97551598D01*
X121407454Y-97554559D01*
X121407500Y-97557968D01*
X121407500Y-99584472D01*
X121387498Y-99652593D01*
X121370595Y-99673567D01*
X121034359Y-100009803D01*
X120972047Y-100043829D01*
X120901232Y-100038764D01*
X120844396Y-99996217D01*
X120821949Y-99946581D01*
X120820467Y-99939515D01*
X120819463Y-99934732D01*
X120804503Y-99863430D01*
X120804501Y-99863424D01*
X120803407Y-99858209D01*
X120779247Y-99797033D01*
X120720685Y-99648744D01*
X120720684Y-99648742D01*
X120718724Y-99643779D01*
X120714406Y-99636662D01*
X120601890Y-99451243D01*
X120599123Y-99446683D01*
X120529610Y-99366576D01*
X120451523Y-99276588D01*
X120451521Y-99276586D01*
X120448023Y-99272555D01*
X120368611Y-99207441D01*
X120273873Y-99129760D01*
X120273867Y-99129756D01*
X120269745Y-99126376D01*
X120238250Y-99108448D01*
X120188945Y-99057368D01*
X120175083Y-98987738D01*
X120201066Y-98921667D01*
X120230216Y-98894427D01*
X120312338Y-98839139D01*
X120351819Y-98812559D01*
X120357189Y-98807437D01*
X120441844Y-98726679D01*
X120518635Y-98653424D01*
X120656254Y-98468458D01*
X120659707Y-98461668D01*
X120725819Y-98331634D01*
X120760740Y-98262949D01*
X120771303Y-98228933D01*
X120827524Y-98047871D01*
X120829107Y-98042773D01*
X120842546Y-97941377D01*
X120858698Y-97819511D01*
X120858698Y-97819506D01*
X120859398Y-97814226D01*
X120850749Y-97583842D01*
X120803407Y-97358209D01*
X120776660Y-97290481D01*
X120720685Y-97148744D01*
X120720684Y-97148742D01*
X120718724Y-97143779D01*
X120709302Y-97128251D01*
X120601890Y-96951243D01*
X120599123Y-96946683D01*
X120590550Y-96936803D01*
X120451523Y-96776588D01*
X120451521Y-96776586D01*
X120448023Y-96772555D01*
X120378410Y-96715476D01*
X120273873Y-96629760D01*
X120273867Y-96629756D01*
X120269745Y-96626376D01*
X120238250Y-96608448D01*
X120188945Y-96557368D01*
X120175083Y-96487738D01*
X120201066Y-96421667D01*
X120230216Y-96394427D01*
X120266142Y-96370240D01*
X120351819Y-96312559D01*
X120379041Y-96286591D01*
X120445269Y-96223412D01*
X120518635Y-96153424D01*
X120656254Y-95968458D01*
X120760740Y-95762949D01*
X120796821Y-95646752D01*
X120827524Y-95547871D01*
X120829107Y-95542773D01*
X120842665Y-95440476D01*
X120858698Y-95319511D01*
X120858698Y-95319506D01*
X120859398Y-95314226D01*
X120850749Y-95083842D01*
X120824213Y-94957372D01*
X120829800Y-94886598D01*
X120858433Y-94842405D01*
X120910433Y-94790405D01*
X120972745Y-94756379D01*
X120999528Y-94753500D01*
X123082832Y-94753500D01*
X123150953Y-94773502D01*
G37*
%TD.AperFunction*%
%TA.AperFunction,NonConductor*%
G36*
X145750093Y-96042502D02*
G01*
X145771067Y-96059405D01*
X147102524Y-97390862D01*
X147136550Y-97453174D01*
X147138337Y-97496512D01*
X147116689Y-97659849D01*
X147110602Y-97705774D01*
X147110802Y-97711103D01*
X147110802Y-97711105D01*
X147113371Y-97779525D01*
X147119251Y-97936158D01*
X147166593Y-98161791D01*
X147168551Y-98166750D01*
X147168552Y-98166752D01*
X147248414Y-98368973D01*
X147251276Y-98376221D01*
X147254043Y-98380780D01*
X147254044Y-98380783D01*
X147312046Y-98476367D01*
X147370877Y-98573317D01*
X147374374Y-98577347D01*
X147483751Y-98703393D01*
X147521977Y-98747445D01*
X147526108Y-98750832D01*
X147696127Y-98890240D01*
X147696133Y-98890244D01*
X147700255Y-98893624D01*
X147731750Y-98911552D01*
X147781055Y-98962632D01*
X147794917Y-99032262D01*
X147768934Y-99098333D01*
X147739784Y-99125573D01*
X147618181Y-99207441D01*
X147614324Y-99211120D01*
X147614322Y-99211122D01*
X147575635Y-99248028D01*
X147451365Y-99366576D01*
X147448182Y-99370854D01*
X147440421Y-99381285D01*
X147313746Y-99551542D01*
X147311330Y-99556293D01*
X147311328Y-99556297D01*
X147265496Y-99646442D01*
X147209260Y-99757051D01*
X147207678Y-99762145D01*
X147207677Y-99762148D01*
X147152603Y-99939515D01*
X147140893Y-99977227D01*
X147140192Y-99982516D01*
X147136354Y-100011473D01*
X147107574Y-100076375D01*
X147048275Y-100115415D01*
X146977283Y-100116198D01*
X146922351Y-100084013D01*
X146669405Y-99831067D01*
X146635379Y-99768755D01*
X146632500Y-99741972D01*
X146632500Y-98947376D01*
X146633933Y-98928426D01*
X146636124Y-98914027D01*
X146636124Y-98914021D01*
X146637224Y-98906792D01*
X146636368Y-98896262D01*
X146632915Y-98853817D01*
X146632500Y-98843602D01*
X146632500Y-98835475D01*
X146629189Y-98807076D01*
X146628760Y-98802736D01*
X146628718Y-98802212D01*
X146622809Y-98729574D01*
X146620553Y-98722612D01*
X146619357Y-98716624D01*
X146617949Y-98710667D01*
X146617101Y-98703393D01*
X146614603Y-98696511D01*
X146614602Y-98696507D01*
X146592055Y-98634393D01*
X146590645Y-98630289D01*
X146568013Y-98560425D01*
X146564213Y-98554162D01*
X146561675Y-98548620D01*
X146558933Y-98543144D01*
X146556434Y-98536259D01*
X146516185Y-98474868D01*
X146513870Y-98471200D01*
X146475773Y-98408419D01*
X146468333Y-98399995D01*
X146468362Y-98399969D01*
X146465762Y-98397038D01*
X146462958Y-98393684D01*
X146458946Y-98387565D01*
X146402413Y-98334011D01*
X146399972Y-98331634D01*
X144846126Y-96777788D01*
X144812100Y-96715476D01*
X144809700Y-96677711D01*
X144823019Y-96525475D01*
X144823498Y-96520000D01*
X144803543Y-96291913D01*
X144802119Y-96286598D01*
X144802118Y-96286591D01*
X144773854Y-96181112D01*
X144775543Y-96110135D01*
X144815336Y-96051339D01*
X144880601Y-96023391D01*
X144895560Y-96022500D01*
X145681972Y-96022500D01*
X145750093Y-96042502D01*
G37*
%TD.AperFunction*%
%TA.AperFunction,NonConductor*%
G36*
X133586766Y-100027342D02*
G01*
X133601962Y-100040300D01*
X134184067Y-100622405D01*
X134218093Y-100684717D01*
X134213028Y-100755532D01*
X134170481Y-100812368D01*
X134103961Y-100837179D01*
X134094972Y-100837500D01*
X133471541Y-100837500D01*
X133403420Y-100817498D01*
X133356927Y-100763842D01*
X133346823Y-100693568D01*
X133349834Y-100678888D01*
X133355333Y-100658366D01*
X133383543Y-100553087D01*
X133403498Y-100325000D01*
X133400811Y-100294284D01*
X133387346Y-100140376D01*
X133401335Y-100070772D01*
X133450735Y-100019779D01*
X133519861Y-100003589D01*
X133586766Y-100027342D01*
G37*
%TD.AperFunction*%
%TA.AperFunction,NonConductor*%
G36*
X118390002Y-98812502D02*
G01*
X118425860Y-98833123D01*
X118458432Y-98859830D01*
X118475255Y-98873624D01*
X118506750Y-98891552D01*
X118556055Y-98942632D01*
X118569917Y-99012262D01*
X118543934Y-99078333D01*
X118514784Y-99105573D01*
X118393181Y-99187441D01*
X118389324Y-99191120D01*
X118389322Y-99191122D01*
X118368357Y-99211122D01*
X118226365Y-99346576D01*
X118223182Y-99350854D01*
X118208302Y-99370854D01*
X118088746Y-99531542D01*
X118086330Y-99536293D01*
X118086328Y-99536297D01*
X118062158Y-99583837D01*
X117984260Y-99737051D01*
X117982678Y-99742145D01*
X117982677Y-99742148D01*
X117945018Y-99863430D01*
X117915893Y-99957227D01*
X117915192Y-99962516D01*
X117889744Y-100154525D01*
X117885602Y-100185774D01*
X117885802Y-100191103D01*
X117885802Y-100191105D01*
X117887135Y-100226617D01*
X117894251Y-100416158D01*
X117918677Y-100532569D01*
X117920787Y-100542626D01*
X117915200Y-100613402D01*
X117886567Y-100657595D01*
X117098472Y-101445690D01*
X117084059Y-101458077D01*
X117066436Y-101471046D01*
X117061692Y-101476629D01*
X117061693Y-101476629D01*
X117032021Y-101511555D01*
X117025091Y-101519071D01*
X117019347Y-101524815D01*
X117017073Y-101527689D01*
X117017067Y-101527696D01*
X117001628Y-101547211D01*
X116998837Y-101550615D01*
X116956055Y-101600972D01*
X116956052Y-101600976D01*
X116951316Y-101606551D01*
X116947988Y-101613068D01*
X116944611Y-101618132D01*
X116941384Y-101623356D01*
X116936840Y-101629100D01*
X116933741Y-101635731D01*
X116905768Y-101695582D01*
X116903837Y-101699533D01*
X116890717Y-101725227D01*
X116841924Y-101776799D01*
X116772994Y-101793806D01*
X116705812Y-101770846D01*
X116661709Y-101715210D01*
X116652500Y-101667926D01*
X116652500Y-100498028D01*
X116672502Y-100429907D01*
X116689405Y-100408933D01*
X118256875Y-98841463D01*
X118319187Y-98807437D01*
X118390002Y-98812502D01*
G37*
%TD.AperFunction*%
%TA.AperFunction,NonConductor*%
G36*
X142449054Y-99842502D02*
G01*
X142484145Y-99876228D01*
X142500641Y-99899786D01*
X142503802Y-99904300D01*
X142665700Y-100066198D01*
X142670208Y-100069355D01*
X142670211Y-100069357D01*
X142726483Y-100108759D01*
X142853251Y-100197523D01*
X142858233Y-100199846D01*
X142858238Y-100199849D01*
X142892457Y-100215805D01*
X142945742Y-100262722D01*
X142965203Y-100330999D01*
X142944661Y-100398959D01*
X142892457Y-100444195D01*
X142858238Y-100460151D01*
X142858233Y-100460154D01*
X142853251Y-100462477D01*
X142773535Y-100518295D01*
X142670211Y-100590643D01*
X142670208Y-100590645D01*
X142665700Y-100593802D01*
X142503802Y-100755700D01*
X142500645Y-100760208D01*
X142500643Y-100760211D01*
X142449832Y-100832777D01*
X142372477Y-100943251D01*
X142370154Y-100948233D01*
X142370151Y-100948238D01*
X142294097Y-101111339D01*
X142275716Y-101150757D01*
X142274294Y-101156065D01*
X142274293Y-101156067D01*
X142227002Y-101332559D01*
X142216457Y-101371913D01*
X142196502Y-101600000D01*
X142196981Y-101605475D01*
X142210300Y-101757711D01*
X142196311Y-101827316D01*
X142173874Y-101857788D01*
X141951067Y-102080595D01*
X141888755Y-102114621D01*
X141861972Y-102117500D01*
X137270201Y-102117500D01*
X137202080Y-102097498D01*
X137155587Y-102043842D01*
X137145483Y-101973568D01*
X137148495Y-101958888D01*
X137182118Y-101833409D01*
X137182120Y-101833398D01*
X137183543Y-101828087D01*
X137203498Y-101600000D01*
X137183543Y-101371913D01*
X137182119Y-101366598D01*
X137182118Y-101366591D01*
X137148495Y-101241112D01*
X137150184Y-101170135D01*
X137189978Y-101111339D01*
X137255242Y-101083391D01*
X137270201Y-101082500D01*
X140382624Y-101082500D01*
X140401574Y-101083933D01*
X140415973Y-101086124D01*
X140415979Y-101086124D01*
X140423208Y-101087224D01*
X140430500Y-101086631D01*
X140430503Y-101086631D01*
X140476183Y-101082915D01*
X140486398Y-101082500D01*
X140494525Y-101082500D01*
X140498161Y-101082076D01*
X140498163Y-101082076D01*
X140501615Y-101081673D01*
X140522924Y-101079189D01*
X140527244Y-101078762D01*
X140600426Y-101072809D01*
X140607388Y-101070553D01*
X140613376Y-101069357D01*
X140619333Y-101067949D01*
X140626607Y-101067101D01*
X140633489Y-101064603D01*
X140633493Y-101064602D01*
X140695607Y-101042055D01*
X140699711Y-101040645D01*
X140769575Y-101018013D01*
X140775838Y-101014213D01*
X140781380Y-101011675D01*
X140786856Y-101008933D01*
X140793741Y-101006434D01*
X140799865Y-101002419D01*
X140855132Y-100966185D01*
X140858800Y-100963870D01*
X140921581Y-100925773D01*
X140925786Y-100922059D01*
X140925789Y-100922057D01*
X140930005Y-100918333D01*
X140930031Y-100918362D01*
X140932962Y-100915762D01*
X140936316Y-100912958D01*
X140942435Y-100908946D01*
X140995989Y-100852413D01*
X140998366Y-100849972D01*
X141988933Y-99859405D01*
X142051245Y-99825379D01*
X142078028Y-99822500D01*
X142380933Y-99822500D01*
X142449054Y-99842502D01*
G37*
%TD.AperFunction*%
%TA.AperFunction,NonConductor*%
G36*
X149855636Y-101168377D02*
G01*
X149897930Y-101196268D01*
X150100595Y-101398933D01*
X150134621Y-101461245D01*
X150137500Y-101488028D01*
X150137500Y-102032589D01*
X150117498Y-102100710D01*
X150063842Y-102147203D01*
X149993568Y-102157307D01*
X149928988Y-102127813D01*
X149903781Y-102097955D01*
X149826890Y-101971243D01*
X149824123Y-101966683D01*
X149673023Y-101792555D01*
X149578694Y-101715210D01*
X149498873Y-101649760D01*
X149498867Y-101649756D01*
X149494745Y-101646376D01*
X149463250Y-101628448D01*
X149413945Y-101577368D01*
X149400083Y-101507738D01*
X149426066Y-101441667D01*
X149455216Y-101414427D01*
X149478230Y-101398933D01*
X149576819Y-101332559D01*
X149721864Y-101194192D01*
X149784959Y-101161646D01*
X149855636Y-101168377D01*
G37*
%TD.AperFunction*%
%TA.AperFunction,NonConductor*%
G36*
X145026484Y-99114822D02*
G01*
X145070595Y-99158933D01*
X145104621Y-99221245D01*
X145107500Y-99248028D01*
X145107500Y-100042624D01*
X145106067Y-100061574D01*
X145103876Y-100075973D01*
X145103876Y-100075979D01*
X145102776Y-100083208D01*
X145103369Y-100090500D01*
X145103369Y-100090503D01*
X145107085Y-100136183D01*
X145107500Y-100146398D01*
X145107500Y-100154525D01*
X145110811Y-100182924D01*
X145111238Y-100187244D01*
X145117191Y-100260426D01*
X145119447Y-100267388D01*
X145120643Y-100273376D01*
X145122051Y-100279333D01*
X145122899Y-100286607D01*
X145125397Y-100293489D01*
X145125398Y-100293493D01*
X145147945Y-100355607D01*
X145149355Y-100359711D01*
X145171987Y-100429575D01*
X145175787Y-100435838D01*
X145178325Y-100441380D01*
X145181067Y-100446856D01*
X145183566Y-100453741D01*
X145187581Y-100459865D01*
X145223815Y-100515132D01*
X145226130Y-100518800D01*
X145264227Y-100581581D01*
X145267941Y-100585786D01*
X145267943Y-100585789D01*
X145271667Y-100590005D01*
X145271638Y-100590031D01*
X145274238Y-100592962D01*
X145277042Y-100596316D01*
X145281054Y-100602435D01*
X145286366Y-100607467D01*
X145337586Y-100655988D01*
X145340028Y-100658366D01*
X147099013Y-102417351D01*
X147133039Y-102479663D01*
X147134826Y-102523001D01*
X147118159Y-102648759D01*
X147110602Y-102705774D01*
X147119251Y-102936158D01*
X147166593Y-103161791D01*
X147168553Y-103166755D01*
X147168554Y-103166757D01*
X147183743Y-103205219D01*
X147190161Y-103275925D01*
X147157333Y-103338876D01*
X147095683Y-103374086D01*
X147066551Y-103377500D01*
X144639067Y-103377500D01*
X144570946Y-103357498D01*
X144535855Y-103323772D01*
X144519359Y-103300214D01*
X144519357Y-103300212D01*
X144516198Y-103295700D01*
X144354300Y-103133802D01*
X144349792Y-103130645D01*
X144349789Y-103130643D01*
X144271611Y-103075902D01*
X144166749Y-103002477D01*
X144161767Y-103000154D01*
X144161762Y-103000151D01*
X144127543Y-102984195D01*
X144074258Y-102937278D01*
X144054797Y-102869001D01*
X144075339Y-102801041D01*
X144127543Y-102755805D01*
X144161762Y-102739849D01*
X144161767Y-102739846D01*
X144166749Y-102737523D01*
X144293517Y-102648759D01*
X144349789Y-102609357D01*
X144349792Y-102609355D01*
X144354300Y-102606198D01*
X144516198Y-102444300D01*
X144647523Y-102256749D01*
X144649846Y-102251767D01*
X144649849Y-102251762D01*
X144741961Y-102054225D01*
X144741961Y-102054224D01*
X144744284Y-102049243D01*
X144748747Y-102032589D01*
X144802119Y-101833402D01*
X144802119Y-101833400D01*
X144803543Y-101828087D01*
X144823498Y-101600000D01*
X144803543Y-101371913D01*
X144792998Y-101332559D01*
X144745707Y-101156067D01*
X144745706Y-101156065D01*
X144744284Y-101150757D01*
X144725903Y-101111339D01*
X144649849Y-100948238D01*
X144649846Y-100948233D01*
X144647523Y-100943251D01*
X144570168Y-100832777D01*
X144519357Y-100760211D01*
X144519355Y-100760208D01*
X144516198Y-100755700D01*
X144354300Y-100593802D01*
X144349792Y-100590645D01*
X144349789Y-100590643D01*
X144246465Y-100518295D01*
X144166749Y-100462477D01*
X144161767Y-100460154D01*
X144161762Y-100460151D01*
X144127543Y-100444195D01*
X144074258Y-100397278D01*
X144054797Y-100329001D01*
X144075339Y-100261041D01*
X144127543Y-100215805D01*
X144161762Y-100199849D01*
X144161767Y-100199846D01*
X144166749Y-100197523D01*
X144293517Y-100108759D01*
X144349789Y-100069357D01*
X144349792Y-100069355D01*
X144354300Y-100066198D01*
X144516198Y-99904300D01*
X144521213Y-99897139D01*
X144619303Y-99757051D01*
X144647523Y-99716749D01*
X144649846Y-99711767D01*
X144649849Y-99711762D01*
X144741961Y-99514225D01*
X144741961Y-99514224D01*
X144744284Y-99509243D01*
X144750724Y-99485211D01*
X144802119Y-99293402D01*
X144802119Y-99293400D01*
X144803543Y-99288087D01*
X144810599Y-99207441D01*
X144811868Y-99192935D01*
X144837732Y-99126817D01*
X144895235Y-99085177D01*
X144966123Y-99081237D01*
X145026484Y-99114822D01*
G37*
%TD.AperFunction*%
%TA.AperFunction,NonConductor*%
G36*
X130706643Y-95270861D02*
G01*
X130763479Y-95313408D01*
X130788132Y-95377935D01*
X130788806Y-95385634D01*
X130796457Y-95473087D01*
X130797881Y-95478400D01*
X130797881Y-95478402D01*
X130807367Y-95513802D01*
X130855716Y-95694243D01*
X130858039Y-95699224D01*
X130858039Y-95699225D01*
X130950151Y-95896762D01*
X130950154Y-95896767D01*
X130952477Y-95901749D01*
X131016190Y-95992740D01*
X131067330Y-96065775D01*
X131083802Y-96089300D01*
X131245700Y-96251198D01*
X131250208Y-96254355D01*
X131250211Y-96254357D01*
X131296246Y-96286591D01*
X131433251Y-96382523D01*
X131438233Y-96384846D01*
X131438238Y-96384849D01*
X131472457Y-96400805D01*
X131525742Y-96447722D01*
X131545203Y-96515999D01*
X131524661Y-96583959D01*
X131472457Y-96629195D01*
X131438238Y-96645151D01*
X131438233Y-96645154D01*
X131433251Y-96647477D01*
X131380433Y-96684461D01*
X131250211Y-96775643D01*
X131250208Y-96775645D01*
X131245700Y-96778802D01*
X131083802Y-96940700D01*
X131080645Y-96945208D01*
X131080643Y-96945211D01*
X131042672Y-96999440D01*
X130952477Y-97128251D01*
X130950154Y-97133233D01*
X130950151Y-97133238D01*
X130885967Y-97270883D01*
X130855716Y-97335757D01*
X130854294Y-97341065D01*
X130854293Y-97341067D01*
X130801742Y-97537188D01*
X130796457Y-97556913D01*
X130776502Y-97785000D01*
X130796457Y-98013087D01*
X130797881Y-98018400D01*
X130797881Y-98018402D01*
X130824655Y-98118321D01*
X130855716Y-98234243D01*
X130858039Y-98239224D01*
X130858039Y-98239225D01*
X130950151Y-98436762D01*
X130950154Y-98436767D01*
X130952477Y-98441749D01*
X131083802Y-98629300D01*
X131245700Y-98791198D01*
X131250208Y-98794355D01*
X131250211Y-98794357D01*
X131280462Y-98815539D01*
X131433251Y-98922523D01*
X131438233Y-98924846D01*
X131438238Y-98924849D01*
X131472457Y-98940805D01*
X131525742Y-98987722D01*
X131545203Y-99055999D01*
X131524661Y-99123959D01*
X131472457Y-99169195D01*
X131438238Y-99185151D01*
X131438233Y-99185154D01*
X131433251Y-99187477D01*
X131328389Y-99260902D01*
X131250211Y-99315643D01*
X131250208Y-99315645D01*
X131245700Y-99318802D01*
X131083802Y-99480700D01*
X131080645Y-99485208D01*
X131080643Y-99485211D01*
X131064549Y-99508196D01*
X130952477Y-99668251D01*
X130950154Y-99673233D01*
X130950151Y-99673238D01*
X130861464Y-99863430D01*
X130855716Y-99875757D01*
X130854294Y-99881065D01*
X130854293Y-99881067D01*
X130797930Y-100091414D01*
X130796457Y-100096913D01*
X130776502Y-100325000D01*
X130796457Y-100553087D01*
X130797880Y-100558399D01*
X130797881Y-100558402D01*
X130839809Y-100714876D01*
X130855716Y-100774243D01*
X130858039Y-100779224D01*
X130858039Y-100779225D01*
X130950151Y-100976762D01*
X130950154Y-100976767D01*
X130952477Y-100981749D01*
X131016238Y-101072809D01*
X131078443Y-101161646D01*
X131083802Y-101169300D01*
X131245700Y-101331198D01*
X131250208Y-101334355D01*
X131250211Y-101334357D01*
X131296246Y-101366591D01*
X131433251Y-101462523D01*
X131438233Y-101464846D01*
X131438238Y-101464849D01*
X131472457Y-101480805D01*
X131525742Y-101527722D01*
X131545203Y-101595999D01*
X131524661Y-101663959D01*
X131472457Y-101709195D01*
X131438238Y-101725151D01*
X131438233Y-101725154D01*
X131433251Y-101727477D01*
X131379800Y-101764904D01*
X131250211Y-101855643D01*
X131250208Y-101855645D01*
X131245700Y-101858802D01*
X131083802Y-102020700D01*
X131080645Y-102025208D01*
X131080643Y-102025211D01*
X131067534Y-102043933D01*
X130952477Y-102208251D01*
X130950154Y-102213233D01*
X130950151Y-102213238D01*
X130888786Y-102344838D01*
X130855716Y-102415757D01*
X130854294Y-102421065D01*
X130854293Y-102421067D01*
X130797881Y-102631598D01*
X130796457Y-102636913D01*
X130776502Y-102865000D01*
X130796457Y-103093087D01*
X130797881Y-103098400D01*
X130797881Y-103098402D01*
X130845449Y-103275925D01*
X130855716Y-103314243D01*
X130858039Y-103319224D01*
X130858039Y-103319225D01*
X130950151Y-103516762D01*
X130950154Y-103516767D01*
X130952477Y-103521749D01*
X130963094Y-103536911D01*
X131053337Y-103665791D01*
X131083802Y-103709300D01*
X131245700Y-103871198D01*
X131250208Y-103874355D01*
X131250211Y-103874357D01*
X131296246Y-103906591D01*
X131433251Y-104002523D01*
X131438233Y-104004846D01*
X131438238Y-104004849D01*
X131635775Y-104096961D01*
X131640757Y-104099284D01*
X131646065Y-104100706D01*
X131646067Y-104100707D01*
X131856598Y-104157119D01*
X131856600Y-104157119D01*
X131861913Y-104158543D01*
X131867389Y-104159022D01*
X131867394Y-104159023D01*
X131902174Y-104162065D01*
X131934077Y-104164857D01*
X132000194Y-104190719D01*
X132041834Y-104248222D01*
X132045775Y-104319109D01*
X132012190Y-104379472D01*
X131501067Y-104890595D01*
X131438755Y-104924621D01*
X131411972Y-104927500D01*
X119158028Y-104927500D01*
X119089907Y-104907498D01*
X119068932Y-104890595D01*
X118501606Y-104323268D01*
X118467581Y-104260956D01*
X118472646Y-104190140D01*
X118515193Y-104133305D01*
X118581713Y-104108494D01*
X118595656Y-104108352D01*
X118597100Y-104108500D01*
X120147900Y-104108500D01*
X120151146Y-104108163D01*
X120151150Y-104108163D01*
X120246808Y-104098238D01*
X120246812Y-104098237D01*
X120253666Y-104097526D01*
X120260202Y-104095345D01*
X120260204Y-104095345D01*
X120414498Y-104043868D01*
X120421446Y-104041550D01*
X120571848Y-103948478D01*
X120696805Y-103823303D01*
X120732254Y-103765795D01*
X120785775Y-103678968D01*
X120785776Y-103678966D01*
X120789615Y-103672738D01*
X120845297Y-103504861D01*
X120856000Y-103400400D01*
X120856000Y-102397028D01*
X120876002Y-102328907D01*
X120892905Y-102307933D01*
X122661528Y-100539310D01*
X122675941Y-100526923D01*
X122693564Y-100513954D01*
X122727979Y-100473445D01*
X122734909Y-100465929D01*
X122740653Y-100460185D01*
X122742927Y-100457311D01*
X122742933Y-100457304D01*
X122758372Y-100437789D01*
X122761163Y-100434385D01*
X122803945Y-100384028D01*
X122803948Y-100384024D01*
X122808684Y-100378449D01*
X122812011Y-100371934D01*
X122815392Y-100366864D01*
X122818617Y-100361642D01*
X122823160Y-100355900D01*
X122854246Y-100289388D01*
X122856152Y-100285488D01*
X122886213Y-100226617D01*
X122889543Y-100220096D01*
X122891284Y-100212979D01*
X122893411Y-100207261D01*
X122895342Y-100201455D01*
X122898443Y-100194821D01*
X122900470Y-100185080D01*
X122913389Y-100122969D01*
X122914359Y-100118681D01*
X122915159Y-100115415D01*
X122927905Y-100063322D01*
X122931787Y-100056629D01*
X122931710Y-100056389D01*
X122931915Y-100045594D01*
X122932500Y-100036175D01*
X122932539Y-100036177D01*
X122932772Y-100032271D01*
X122933161Y-100027912D01*
X122934652Y-100020744D01*
X122932546Y-99942924D01*
X122932500Y-99939515D01*
X122932500Y-98059693D01*
X122952502Y-97991572D01*
X123006158Y-97945079D01*
X123076432Y-97934975D01*
X123141012Y-97964469D01*
X123180207Y-98027082D01*
X123235716Y-98234243D01*
X123238039Y-98239224D01*
X123238039Y-98239225D01*
X123330151Y-98436762D01*
X123330154Y-98436767D01*
X123332477Y-98441749D01*
X123463802Y-98629300D01*
X123625700Y-98791198D01*
X123630208Y-98794355D01*
X123630211Y-98794357D01*
X123660462Y-98815539D01*
X123813251Y-98922523D01*
X123818233Y-98924846D01*
X123818238Y-98924849D01*
X123852457Y-98940805D01*
X123905742Y-98987722D01*
X123925203Y-99055999D01*
X123904661Y-99123959D01*
X123852457Y-99169195D01*
X123818238Y-99185151D01*
X123818233Y-99185154D01*
X123813251Y-99187477D01*
X123708389Y-99260902D01*
X123630211Y-99315643D01*
X123630208Y-99315645D01*
X123625700Y-99318802D01*
X123463802Y-99480700D01*
X123460645Y-99485208D01*
X123460643Y-99485211D01*
X123444549Y-99508196D01*
X123332477Y-99668251D01*
X123330154Y-99673233D01*
X123330151Y-99673238D01*
X123241464Y-99863430D01*
X123235716Y-99875757D01*
X123234294Y-99881065D01*
X123234293Y-99881067D01*
X123228068Y-99904300D01*
X123179960Y-100083842D01*
X123179381Y-100086002D01*
X123176082Y-100091414D01*
X123175815Y-100104251D01*
X123156502Y-100325000D01*
X123176457Y-100553087D01*
X123177880Y-100558399D01*
X123177881Y-100558402D01*
X123219809Y-100714876D01*
X123235716Y-100774243D01*
X123238039Y-100779224D01*
X123238039Y-100779225D01*
X123330151Y-100976762D01*
X123330154Y-100976767D01*
X123332477Y-100981749D01*
X123396238Y-101072809D01*
X123458443Y-101161646D01*
X123463802Y-101169300D01*
X123625700Y-101331198D01*
X123630208Y-101334355D01*
X123630211Y-101334357D01*
X123676246Y-101366591D01*
X123813251Y-101462523D01*
X123818233Y-101464846D01*
X123818238Y-101464849D01*
X123852457Y-101480805D01*
X123905742Y-101527722D01*
X123925203Y-101595999D01*
X123904661Y-101663959D01*
X123852457Y-101709195D01*
X123818238Y-101725151D01*
X123818233Y-101725154D01*
X123813251Y-101727477D01*
X123759800Y-101764904D01*
X123630211Y-101855643D01*
X123630208Y-101855645D01*
X123625700Y-101858802D01*
X123463802Y-102020700D01*
X123460645Y-102025208D01*
X123460643Y-102025211D01*
X123447534Y-102043933D01*
X123332477Y-102208251D01*
X123330154Y-102213233D01*
X123330151Y-102213238D01*
X123268786Y-102344838D01*
X123235716Y-102415757D01*
X123234294Y-102421065D01*
X123234293Y-102421067D01*
X123177881Y-102631598D01*
X123176457Y-102636913D01*
X123156502Y-102865000D01*
X123176457Y-103093087D01*
X123177881Y-103098400D01*
X123177881Y-103098402D01*
X123225449Y-103275925D01*
X123235716Y-103314243D01*
X123238039Y-103319224D01*
X123238039Y-103319225D01*
X123330151Y-103516762D01*
X123330154Y-103516767D01*
X123332477Y-103521749D01*
X123343094Y-103536911D01*
X123433337Y-103665791D01*
X123463802Y-103709300D01*
X123625700Y-103871198D01*
X123630208Y-103874355D01*
X123630211Y-103874357D01*
X123676246Y-103906591D01*
X123813251Y-104002523D01*
X123818233Y-104004846D01*
X123818238Y-104004849D01*
X124015775Y-104096961D01*
X124020757Y-104099284D01*
X124026065Y-104100706D01*
X124026067Y-104100707D01*
X124236598Y-104157119D01*
X124236600Y-104157119D01*
X124241913Y-104158543D01*
X124470000Y-104178498D01*
X124698087Y-104158543D01*
X124703400Y-104157119D01*
X124703402Y-104157119D01*
X124913933Y-104100707D01*
X124913935Y-104100706D01*
X124919243Y-104099284D01*
X124924225Y-104096961D01*
X125121762Y-104004849D01*
X125121767Y-104004846D01*
X125126749Y-104002523D01*
X125263754Y-103906591D01*
X125309789Y-103874357D01*
X125309792Y-103874355D01*
X125314300Y-103871198D01*
X125476198Y-103709300D01*
X125506664Y-103665791D01*
X125596906Y-103536911D01*
X125607523Y-103521749D01*
X125609846Y-103516767D01*
X125609849Y-103516762D01*
X125701961Y-103319225D01*
X125701961Y-103319224D01*
X125704284Y-103314243D01*
X125714552Y-103275925D01*
X125762119Y-103098402D01*
X125762119Y-103098400D01*
X125763543Y-103093087D01*
X125783498Y-102865000D01*
X125763543Y-102636913D01*
X125762119Y-102631598D01*
X125705707Y-102421067D01*
X125705706Y-102421065D01*
X125704284Y-102415757D01*
X125671214Y-102344838D01*
X125609849Y-102213238D01*
X125609846Y-102213233D01*
X125607523Y-102208251D01*
X125492466Y-102043933D01*
X125479357Y-102025211D01*
X125479355Y-102025208D01*
X125476198Y-102020700D01*
X125314300Y-101858802D01*
X125309792Y-101855645D01*
X125309789Y-101855643D01*
X125180200Y-101764904D01*
X125126749Y-101727477D01*
X125121767Y-101725154D01*
X125121762Y-101725151D01*
X125087543Y-101709195D01*
X125034258Y-101662278D01*
X125014797Y-101594001D01*
X125035339Y-101526041D01*
X125087543Y-101480805D01*
X125121762Y-101464849D01*
X125121767Y-101464846D01*
X125126749Y-101462523D01*
X125263754Y-101366591D01*
X125309789Y-101334357D01*
X125309792Y-101334355D01*
X125314300Y-101331198D01*
X125476198Y-101169300D01*
X125481558Y-101161646D01*
X125543762Y-101072809D01*
X125607523Y-100981749D01*
X125609846Y-100976767D01*
X125609849Y-100976762D01*
X125701961Y-100779225D01*
X125701961Y-100779224D01*
X125704284Y-100774243D01*
X125720192Y-100714876D01*
X125762119Y-100558402D01*
X125762120Y-100558399D01*
X125763543Y-100553087D01*
X125783498Y-100325000D01*
X125777210Y-100253133D01*
X125769700Y-100167289D01*
X125783689Y-100097684D01*
X125806126Y-100067212D01*
X130573516Y-95299822D01*
X130635828Y-95265796D01*
X130706643Y-95270861D01*
G37*
%TD.AperFunction*%
%TA.AperFunction,NonConductor*%
G36*
X134505034Y-104147470D02*
G01*
X134561870Y-104190017D01*
X134586522Y-104254543D01*
X134590299Y-104297710D01*
X134576311Y-104367315D01*
X134553874Y-104397788D01*
X132521067Y-106430595D01*
X132458755Y-106464621D01*
X132431972Y-106467500D01*
X132386737Y-106467500D01*
X132318616Y-106447498D01*
X132272123Y-106393842D01*
X132262019Y-106323568D01*
X132295264Y-106254847D01*
X132298636Y-106251288D01*
X132325989Y-106222413D01*
X132328366Y-106219972D01*
X134371907Y-104176431D01*
X134434219Y-104142405D01*
X134505034Y-104147470D01*
G37*
%TD.AperFunction*%
%TA.AperFunction,NonConductor*%
G36*
X158183621Y-77998502D02*
G01*
X158230114Y-78052158D01*
X158241500Y-78104500D01*
X158241500Y-112395500D01*
X158221498Y-112463621D01*
X158167842Y-112510114D01*
X158115500Y-112521500D01*
X107314500Y-112521500D01*
X107246379Y-112501498D01*
X107199886Y-112447842D01*
X107188500Y-112395500D01*
X107188500Y-109327655D01*
X108729858Y-109327655D01*
X108765104Y-109586638D01*
X108766412Y-109591124D01*
X108766412Y-109591126D01*
X108786098Y-109658664D01*
X108838243Y-109837567D01*
X108947668Y-110074928D01*
X108950231Y-110078837D01*
X109088410Y-110289596D01*
X109088414Y-110289601D01*
X109090976Y-110293509D01*
X109265018Y-110488506D01*
X109465970Y-110655637D01*
X109469973Y-110658066D01*
X109685422Y-110788804D01*
X109685426Y-110788806D01*
X109689419Y-110791229D01*
X109930455Y-110892303D01*
X110183783Y-110956641D01*
X110188434Y-110957109D01*
X110188438Y-110957110D01*
X110381308Y-110976531D01*
X110400867Y-110978500D01*
X110556354Y-110978500D01*
X110558679Y-110978327D01*
X110558685Y-110978327D01*
X110746000Y-110964407D01*
X110746004Y-110964406D01*
X110750652Y-110964061D01*
X110755200Y-110963032D01*
X110755206Y-110963031D01*
X110941601Y-110920853D01*
X111005577Y-110906377D01*
X111041769Y-110892303D01*
X111244824Y-110813340D01*
X111244827Y-110813339D01*
X111249177Y-110811647D01*
X111476098Y-110681951D01*
X111681357Y-110520138D01*
X111860443Y-110329763D01*
X112009424Y-110115009D01*
X112125025Y-109880593D01*
X112204707Y-109631665D01*
X112246721Y-109373693D01*
X112247324Y-109327655D01*
X153179858Y-109327655D01*
X153215104Y-109586638D01*
X153216412Y-109591124D01*
X153216412Y-109591126D01*
X153236098Y-109658664D01*
X153288243Y-109837567D01*
X153397668Y-110074928D01*
X153400231Y-110078837D01*
X153538410Y-110289596D01*
X153538414Y-110289601D01*
X153540976Y-110293509D01*
X153715018Y-110488506D01*
X153915970Y-110655637D01*
X153919973Y-110658066D01*
X154135422Y-110788804D01*
X154135426Y-110788806D01*
X154139419Y-110791229D01*
X154380455Y-110892303D01*
X154633783Y-110956641D01*
X154638434Y-110957109D01*
X154638438Y-110957110D01*
X154831308Y-110976531D01*
X154850867Y-110978500D01*
X155006354Y-110978500D01*
X155008679Y-110978327D01*
X155008685Y-110978327D01*
X155196000Y-110964407D01*
X155196004Y-110964406D01*
X155200652Y-110964061D01*
X155205200Y-110963032D01*
X155205206Y-110963031D01*
X155391601Y-110920853D01*
X155455577Y-110906377D01*
X155491769Y-110892303D01*
X155694824Y-110813340D01*
X155694827Y-110813339D01*
X155699177Y-110811647D01*
X155926098Y-110681951D01*
X156131357Y-110520138D01*
X156310443Y-110329763D01*
X156459424Y-110115009D01*
X156575025Y-109880593D01*
X156654707Y-109631665D01*
X156696721Y-109373693D01*
X156700142Y-109112345D01*
X156664896Y-108853362D01*
X156650473Y-108803877D01*
X156593068Y-108606932D01*
X156591757Y-108602433D01*
X156482332Y-108365072D01*
X156449519Y-108315024D01*
X156341590Y-108150404D01*
X156341586Y-108150399D01*
X156339024Y-108146491D01*
X156164982Y-107951494D01*
X155964030Y-107784363D01*
X155913275Y-107753564D01*
X155744578Y-107651196D01*
X155744574Y-107651194D01*
X155740581Y-107648771D01*
X155499545Y-107547697D01*
X155246217Y-107483359D01*
X155241566Y-107482891D01*
X155241562Y-107482890D01*
X155032271Y-107461816D01*
X155029133Y-107461500D01*
X154873646Y-107461500D01*
X154871321Y-107461673D01*
X154871315Y-107461673D01*
X154684000Y-107475593D01*
X154683996Y-107475594D01*
X154679348Y-107475939D01*
X154674800Y-107476968D01*
X154674794Y-107476969D01*
X154488399Y-107519147D01*
X154424423Y-107533623D01*
X154420071Y-107535315D01*
X154420069Y-107535316D01*
X154185176Y-107626660D01*
X154185173Y-107626661D01*
X154180823Y-107628353D01*
X153953902Y-107758049D01*
X153748643Y-107919862D01*
X153569557Y-108110237D01*
X153420576Y-108324991D01*
X153304975Y-108559407D01*
X153225293Y-108808335D01*
X153183279Y-109066307D01*
X153179858Y-109327655D01*
X112247324Y-109327655D01*
X112250142Y-109112345D01*
X112214896Y-108853362D01*
X112200473Y-108803877D01*
X112143068Y-108606932D01*
X112141757Y-108602433D01*
X112032332Y-108365072D01*
X111999519Y-108315024D01*
X111891590Y-108150404D01*
X111891586Y-108150399D01*
X111889024Y-108146491D01*
X111714982Y-107951494D01*
X111514030Y-107784363D01*
X111463275Y-107753564D01*
X111294578Y-107651196D01*
X111294574Y-107651194D01*
X111290581Y-107648771D01*
X111049545Y-107547697D01*
X110796217Y-107483359D01*
X110791566Y-107482891D01*
X110791562Y-107482890D01*
X110582271Y-107461816D01*
X110579133Y-107461500D01*
X110423646Y-107461500D01*
X110421321Y-107461673D01*
X110421315Y-107461673D01*
X110234000Y-107475593D01*
X110233996Y-107475594D01*
X110229348Y-107475939D01*
X110224800Y-107476968D01*
X110224794Y-107476969D01*
X110038399Y-107519147D01*
X109974423Y-107533623D01*
X109970071Y-107535315D01*
X109970069Y-107535316D01*
X109735176Y-107626660D01*
X109735173Y-107626661D01*
X109730823Y-107628353D01*
X109503902Y-107758049D01*
X109298643Y-107919862D01*
X109119557Y-108110237D01*
X108970576Y-108324991D01*
X108854975Y-108559407D01*
X108775293Y-108808335D01*
X108733279Y-109066307D01*
X108729858Y-109327655D01*
X107188500Y-109327655D01*
X107188500Y-105253208D01*
X115122776Y-105253208D01*
X115123369Y-105260500D01*
X115123369Y-105260503D01*
X115127085Y-105306183D01*
X115127500Y-105316398D01*
X115127500Y-105324525D01*
X115130811Y-105352924D01*
X115131238Y-105357244D01*
X115137191Y-105430426D01*
X115139447Y-105437388D01*
X115140643Y-105443376D01*
X115142051Y-105449333D01*
X115142899Y-105456607D01*
X115145397Y-105463489D01*
X115145398Y-105463493D01*
X115167945Y-105525607D01*
X115169355Y-105529711D01*
X115191987Y-105599575D01*
X115195787Y-105605838D01*
X115198325Y-105611380D01*
X115201067Y-105616856D01*
X115203566Y-105623741D01*
X115207581Y-105629865D01*
X115243815Y-105685132D01*
X115246130Y-105688800D01*
X115284227Y-105751581D01*
X115287941Y-105755786D01*
X115287943Y-105755789D01*
X115291667Y-105760005D01*
X115291638Y-105760031D01*
X115294238Y-105762962D01*
X115297042Y-105766316D01*
X115301054Y-105772435D01*
X115306366Y-105777467D01*
X115357586Y-105825988D01*
X115360028Y-105828366D01*
X117253190Y-107721528D01*
X117265577Y-107735941D01*
X117278546Y-107753564D01*
X117284129Y-107758307D01*
X117319055Y-107787979D01*
X117326571Y-107794909D01*
X117332315Y-107800653D01*
X117335189Y-107802927D01*
X117335196Y-107802933D01*
X117354711Y-107818372D01*
X117358115Y-107821163D01*
X117408472Y-107863945D01*
X117408476Y-107863948D01*
X117414051Y-107868684D01*
X117420566Y-107872011D01*
X117425636Y-107875392D01*
X117430858Y-107878617D01*
X117436600Y-107883160D01*
X117503112Y-107914246D01*
X117507006Y-107916149D01*
X117572404Y-107949543D01*
X117579521Y-107951284D01*
X117585239Y-107953411D01*
X117591045Y-107955342D01*
X117597679Y-107958443D01*
X117604847Y-107959934D01*
X117604850Y-107959935D01*
X117649867Y-107969299D01*
X117669539Y-107973391D01*
X117673797Y-107974354D01*
X117745112Y-107991804D01*
X117750718Y-107992152D01*
X117750719Y-107992152D01*
X117756330Y-107992500D01*
X117756328Y-107992539D01*
X117760229Y-107992772D01*
X117764588Y-107993161D01*
X117771756Y-107994652D01*
X117779073Y-107994454D01*
X117849576Y-107992546D01*
X117852985Y-107992500D01*
X132732624Y-107992500D01*
X132751574Y-107993933D01*
X132765973Y-107996124D01*
X132765979Y-107996124D01*
X132773208Y-107997224D01*
X132780500Y-107996631D01*
X132780503Y-107996631D01*
X132826183Y-107992915D01*
X132836398Y-107992500D01*
X132844525Y-107992500D01*
X132848161Y-107992076D01*
X132848163Y-107992076D01*
X132851615Y-107991673D01*
X132872924Y-107989189D01*
X132877244Y-107988762D01*
X132950426Y-107982809D01*
X132957388Y-107980553D01*
X132963376Y-107979357D01*
X132969333Y-107977949D01*
X132976607Y-107977101D01*
X132983489Y-107974603D01*
X132983493Y-107974602D01*
X133045607Y-107952055D01*
X133049711Y-107950645D01*
X133119575Y-107928013D01*
X133125838Y-107924213D01*
X133131380Y-107921675D01*
X133136856Y-107918933D01*
X133143741Y-107916434D01*
X133205132Y-107876185D01*
X133208800Y-107873870D01*
X133271581Y-107835773D01*
X133275786Y-107832059D01*
X133275789Y-107832057D01*
X133280005Y-107828333D01*
X133280031Y-107828362D01*
X133282962Y-107825762D01*
X133286316Y-107822958D01*
X133292435Y-107818946D01*
X133345989Y-107762413D01*
X133348366Y-107759972D01*
X135632212Y-105476126D01*
X135694524Y-105442100D01*
X135732289Y-105439700D01*
X135884525Y-105453019D01*
X135890000Y-105453498D01*
X136118087Y-105433543D01*
X136123400Y-105432119D01*
X136123402Y-105432119D01*
X136333933Y-105375707D01*
X136333935Y-105375706D01*
X136339243Y-105374284D01*
X136375743Y-105357264D01*
X136541762Y-105279849D01*
X136541767Y-105279846D01*
X136546749Y-105277523D01*
X136651611Y-105204098D01*
X136729789Y-105149357D01*
X136729792Y-105149355D01*
X136734300Y-105146198D01*
X136896198Y-104984300D01*
X136906208Y-104970005D01*
X136997051Y-104840267D01*
X137027523Y-104796749D01*
X137029846Y-104791767D01*
X137029849Y-104791762D01*
X137121961Y-104594225D01*
X137121961Y-104594224D01*
X137124284Y-104589243D01*
X137142494Y-104521285D01*
X137182119Y-104373402D01*
X137182119Y-104373400D01*
X137183543Y-104368087D01*
X137203498Y-104140000D01*
X137183543Y-103911913D01*
X137182120Y-103906602D01*
X137182118Y-103906591D01*
X137153854Y-103801112D01*
X137155543Y-103730135D01*
X137195336Y-103671339D01*
X137260601Y-103643391D01*
X137275560Y-103642500D01*
X142124440Y-103642500D01*
X142192561Y-103662502D01*
X142239054Y-103716158D01*
X142249158Y-103786432D01*
X142246146Y-103801112D01*
X142217882Y-103906591D01*
X142217880Y-103906602D01*
X142216457Y-103911913D01*
X142196502Y-104140000D01*
X142216457Y-104368087D01*
X142217881Y-104373400D01*
X142217881Y-104373402D01*
X142257507Y-104521285D01*
X142275716Y-104589243D01*
X142278039Y-104594224D01*
X142278039Y-104594225D01*
X142370151Y-104791762D01*
X142370154Y-104791767D01*
X142372477Y-104796749D01*
X142402949Y-104840267D01*
X142493793Y-104970005D01*
X142503802Y-104984300D01*
X142665700Y-105146198D01*
X142670208Y-105149355D01*
X142670211Y-105149357D01*
X142748389Y-105204098D01*
X142853251Y-105277523D01*
X142858233Y-105279846D01*
X142858238Y-105279849D01*
X143024257Y-105357264D01*
X143060757Y-105374284D01*
X143066065Y-105375706D01*
X143066067Y-105375707D01*
X143276598Y-105432119D01*
X143276600Y-105432119D01*
X143281913Y-105433543D01*
X143510000Y-105453498D01*
X143738087Y-105433543D01*
X143743400Y-105432119D01*
X143743402Y-105432119D01*
X143953933Y-105375707D01*
X143953935Y-105375706D01*
X143959243Y-105374284D01*
X143995743Y-105357264D01*
X144161762Y-105279849D01*
X144161767Y-105279846D01*
X144166749Y-105277523D01*
X144271611Y-105204098D01*
X144349789Y-105149357D01*
X144349792Y-105149355D01*
X144354300Y-105146198D01*
X144516198Y-104984300D01*
X144523691Y-104973599D01*
X144535855Y-104956228D01*
X144591312Y-104911900D01*
X144639067Y-104902500D01*
X149892624Y-104902500D01*
X149911574Y-104903933D01*
X149925973Y-104906124D01*
X149925979Y-104906124D01*
X149933208Y-104907224D01*
X149940500Y-104906631D01*
X149940503Y-104906631D01*
X149986183Y-104902915D01*
X149996398Y-104902500D01*
X150004525Y-104902500D01*
X150008161Y-104902076D01*
X150008163Y-104902076D01*
X150011615Y-104901673D01*
X150032924Y-104899189D01*
X150037244Y-104898762D01*
X150110426Y-104892809D01*
X150117388Y-104890553D01*
X150123376Y-104889357D01*
X150129333Y-104887949D01*
X150136607Y-104887101D01*
X150143489Y-104884603D01*
X150143493Y-104884602D01*
X150205607Y-104862055D01*
X150209711Y-104860645D01*
X150279575Y-104838013D01*
X150285838Y-104834213D01*
X150291380Y-104831675D01*
X150296856Y-104828933D01*
X150303741Y-104826434D01*
X150349019Y-104796749D01*
X150365132Y-104786185D01*
X150368800Y-104783870D01*
X150431581Y-104745773D01*
X150435786Y-104742059D01*
X150435789Y-104742057D01*
X150440005Y-104738333D01*
X150440031Y-104738362D01*
X150442962Y-104735762D01*
X150446316Y-104732958D01*
X150452435Y-104728946D01*
X150505989Y-104672413D01*
X150508366Y-104669972D01*
X151391528Y-103786810D01*
X151405941Y-103774423D01*
X151417665Y-103765795D01*
X151423564Y-103761454D01*
X151457979Y-103720945D01*
X151464909Y-103713429D01*
X151470653Y-103707685D01*
X151472927Y-103704811D01*
X151472933Y-103704804D01*
X151488372Y-103685289D01*
X151491163Y-103681885D01*
X151533945Y-103631528D01*
X151533948Y-103631524D01*
X151538684Y-103625949D01*
X151542012Y-103619432D01*
X151545389Y-103614368D01*
X151548616Y-103609144D01*
X151553160Y-103603400D01*
X151584242Y-103536896D01*
X151586147Y-103532999D01*
X151619543Y-103467596D01*
X151621284Y-103460482D01*
X151623416Y-103454748D01*
X151625344Y-103448952D01*
X151628444Y-103442320D01*
X151643395Y-103370440D01*
X151644365Y-103366156D01*
X151660469Y-103300342D01*
X151661804Y-103294888D01*
X151662500Y-103283670D01*
X151662537Y-103283672D01*
X151662773Y-103279773D01*
X151663163Y-103275402D01*
X151664652Y-103268243D01*
X151662546Y-103190423D01*
X151662500Y-103187014D01*
X151662500Y-101187376D01*
X151663933Y-101168426D01*
X151666124Y-101154027D01*
X151666124Y-101154023D01*
X151667224Y-101146793D01*
X151664341Y-101111339D01*
X151662915Y-101093814D01*
X151662500Y-101083600D01*
X151662500Y-101075475D01*
X151661706Y-101068660D01*
X151659193Y-101047114D01*
X151658760Y-101042735D01*
X151653403Y-100976868D01*
X151652810Y-100969574D01*
X151650556Y-100962617D01*
X151649367Y-100956663D01*
X151647949Y-100950665D01*
X151647101Y-100943393D01*
X151622052Y-100874383D01*
X151620635Y-100870256D01*
X151614462Y-100851199D01*
X151609478Y-100835816D01*
X151600268Y-100807386D01*
X151600267Y-100807384D01*
X151598013Y-100800426D01*
X151594218Y-100794173D01*
X151591673Y-100788613D01*
X151588931Y-100783139D01*
X151586434Y-100776259D01*
X151546190Y-100714876D01*
X151543844Y-100711158D01*
X151511808Y-100658366D01*
X151505773Y-100648420D01*
X151498333Y-100639995D01*
X151498362Y-100639970D01*
X151495766Y-100637044D01*
X151492961Y-100633690D01*
X151488946Y-100627565D01*
X151432413Y-100574011D01*
X151429972Y-100571634D01*
X150636810Y-99778472D01*
X150624423Y-99764059D01*
X150615795Y-99752335D01*
X150611454Y-99746436D01*
X150570945Y-99712021D01*
X150563429Y-99705091D01*
X150557685Y-99699347D01*
X150554811Y-99697073D01*
X150554804Y-99697067D01*
X150535289Y-99681628D01*
X150531885Y-99678837D01*
X150481528Y-99636055D01*
X150481524Y-99636052D01*
X150475949Y-99631316D01*
X150469432Y-99627988D01*
X150464368Y-99624611D01*
X150459144Y-99621384D01*
X150453400Y-99616840D01*
X150412360Y-99597659D01*
X150386918Y-99585768D01*
X150382967Y-99583837D01*
X150327623Y-99555577D01*
X150317596Y-99550457D01*
X150310481Y-99548716D01*
X150304735Y-99546579D01*
X150298952Y-99544655D01*
X150292321Y-99541556D01*
X150220443Y-99526606D01*
X150216171Y-99525639D01*
X150144888Y-99508196D01*
X150139289Y-99507849D01*
X150139285Y-99507848D01*
X150133670Y-99507500D01*
X150133672Y-99507461D01*
X150129771Y-99507228D01*
X150125412Y-99506839D01*
X150118244Y-99505348D01*
X150110927Y-99505546D01*
X150040423Y-99507454D01*
X150037014Y-99507500D01*
X149917030Y-99507500D01*
X149848909Y-99487498D01*
X149821864Y-99464080D01*
X149784396Y-99420901D01*
X149737255Y-99366576D01*
X149676523Y-99296588D01*
X149676521Y-99296586D01*
X149673023Y-99292555D01*
X149631470Y-99258484D01*
X149498873Y-99149760D01*
X149498867Y-99149756D01*
X149494745Y-99146376D01*
X149463250Y-99128448D01*
X149413945Y-99077368D01*
X149400083Y-99007738D01*
X149426066Y-98941667D01*
X149455216Y-98914427D01*
X149491142Y-98890240D01*
X149576819Y-98832559D01*
X149597785Y-98812559D01*
X149684775Y-98729574D01*
X149743635Y-98673424D01*
X149758516Y-98653424D01*
X149878068Y-98492740D01*
X149881254Y-98488458D01*
X149887402Y-98476367D01*
X149946701Y-98359733D01*
X149985740Y-98282949D01*
X149991951Y-98262949D01*
X150052524Y-98067871D01*
X150054107Y-98062773D01*
X150067136Y-97964469D01*
X150083698Y-97839511D01*
X150083698Y-97839506D01*
X150084398Y-97834226D01*
X150082345Y-97779525D01*
X150075949Y-97609173D01*
X150075749Y-97603842D01*
X150028407Y-97378209D01*
X150020509Y-97358209D01*
X149945685Y-97168744D01*
X149945684Y-97168742D01*
X149943724Y-97163779D01*
X149930266Y-97141600D01*
X149834356Y-96983546D01*
X149824123Y-96966683D01*
X149798195Y-96936803D01*
X149676523Y-96796588D01*
X149676521Y-96796586D01*
X149673023Y-96792555D01*
X149604343Y-96736241D01*
X149498873Y-96649760D01*
X149498867Y-96649756D01*
X149494745Y-96646376D01*
X149463250Y-96628448D01*
X149413945Y-96577368D01*
X149400083Y-96507738D01*
X149426066Y-96441667D01*
X149455216Y-96414427D01*
X149499150Y-96384849D01*
X149576819Y-96332559D01*
X149597785Y-96312559D01*
X149683456Y-96230832D01*
X149743635Y-96173424D01*
X149758516Y-96153424D01*
X149878068Y-95992740D01*
X149881254Y-95988458D01*
X149889246Y-95972740D01*
X149983322Y-95787704D01*
X149985740Y-95782949D01*
X149991951Y-95762949D01*
X150052524Y-95567871D01*
X150054107Y-95562773D01*
X150060081Y-95517699D01*
X150083698Y-95339511D01*
X150083698Y-95339506D01*
X150084398Y-95334226D01*
X150083617Y-95313408D01*
X150076350Y-95119849D01*
X150075749Y-95103842D01*
X150056395Y-95011598D01*
X150029502Y-94883428D01*
X150028407Y-94878209D01*
X149995845Y-94795757D01*
X149945685Y-94668744D01*
X149945684Y-94668742D01*
X149943724Y-94663779D01*
X149940185Y-94657946D01*
X149841954Y-94496067D01*
X149824123Y-94466683D01*
X149820626Y-94462653D01*
X149676523Y-94296588D01*
X149676521Y-94296586D01*
X149673023Y-94292555D01*
X149549317Y-94191122D01*
X149498873Y-94149760D01*
X149498867Y-94149756D01*
X149494745Y-94146376D01*
X149463250Y-94128448D01*
X149413945Y-94077368D01*
X149400083Y-94007738D01*
X149426066Y-93941667D01*
X149455216Y-93914427D01*
X149489196Y-93891550D01*
X149576819Y-93832559D01*
X149743635Y-93673424D01*
X149810699Y-93583287D01*
X149867409Y-93540574D01*
X149911788Y-93532500D01*
X150142624Y-93532500D01*
X150161574Y-93533933D01*
X150175973Y-93536124D01*
X150175979Y-93536124D01*
X150183208Y-93537224D01*
X150190500Y-93536631D01*
X150190503Y-93536631D01*
X150236183Y-93532915D01*
X150246398Y-93532500D01*
X150254525Y-93532500D01*
X150258161Y-93532076D01*
X150258163Y-93532076D01*
X150261615Y-93531673D01*
X150282924Y-93529189D01*
X150287244Y-93528762D01*
X150360426Y-93522809D01*
X150367388Y-93520553D01*
X150373376Y-93519357D01*
X150379333Y-93517949D01*
X150386607Y-93517101D01*
X150393489Y-93514603D01*
X150393493Y-93514602D01*
X150455607Y-93492055D01*
X150459711Y-93490645D01*
X150529575Y-93468013D01*
X150535838Y-93464213D01*
X150541380Y-93461675D01*
X150546856Y-93458933D01*
X150553741Y-93456434D01*
X150615132Y-93416185D01*
X150618800Y-93413870D01*
X150681581Y-93375773D01*
X150685786Y-93372059D01*
X150685789Y-93372057D01*
X150690005Y-93368333D01*
X150690031Y-93368362D01*
X150692962Y-93365762D01*
X150696316Y-93362958D01*
X150702435Y-93358946D01*
X150755989Y-93302413D01*
X150758366Y-93299972D01*
X151691528Y-92366810D01*
X151705941Y-92354423D01*
X151707538Y-92353248D01*
X151723564Y-92341454D01*
X151757979Y-92300945D01*
X151764909Y-92293429D01*
X151770653Y-92287685D01*
X151772927Y-92284811D01*
X151772933Y-92284804D01*
X151788372Y-92265289D01*
X151791163Y-92261885D01*
X151833945Y-92211528D01*
X151833948Y-92211524D01*
X151838684Y-92205949D01*
X151842011Y-92199434D01*
X151845392Y-92194364D01*
X151848617Y-92189142D01*
X151853160Y-92183400D01*
X151884246Y-92116888D01*
X151886152Y-92112988D01*
X151916213Y-92054117D01*
X151919543Y-92047596D01*
X151921284Y-92040479D01*
X151923411Y-92034761D01*
X151925342Y-92028955D01*
X151928443Y-92022321D01*
X151943391Y-91950461D01*
X151944359Y-91946181D01*
X151945223Y-91942653D01*
X151961804Y-91874888D01*
X151962500Y-91863670D01*
X151962539Y-91863672D01*
X151962772Y-91859771D01*
X151963161Y-91855412D01*
X151964652Y-91848244D01*
X151962546Y-91770424D01*
X151962500Y-91767015D01*
X151962500Y-90114275D01*
X151963933Y-90095325D01*
X151966124Y-90080926D01*
X151966124Y-90080920D01*
X151967224Y-90073691D01*
X151962915Y-90020716D01*
X151962500Y-90010501D01*
X151962500Y-90002374D01*
X151959189Y-89973975D01*
X151958760Y-89969635D01*
X151956099Y-89936913D01*
X151952809Y-89896473D01*
X151950553Y-89889511D01*
X151949357Y-89883523D01*
X151947949Y-89877566D01*
X151947101Y-89870292D01*
X151944603Y-89863410D01*
X151944602Y-89863406D01*
X151922055Y-89801292D01*
X151920645Y-89797188D01*
X151898013Y-89727324D01*
X151894213Y-89721061D01*
X151891675Y-89715519D01*
X151888933Y-89710043D01*
X151886434Y-89703158D01*
X151872892Y-89682502D01*
X151846185Y-89641767D01*
X151843870Y-89638099D01*
X151805773Y-89575318D01*
X151802057Y-89571111D01*
X151802054Y-89571107D01*
X151798332Y-89566894D01*
X151798362Y-89566868D01*
X151795764Y-89563940D01*
X151792960Y-89560586D01*
X151788946Y-89554464D01*
X151732395Y-89500893D01*
X151729954Y-89498516D01*
X150639911Y-88408472D01*
X150627524Y-88394059D01*
X150618896Y-88382335D01*
X150614555Y-88376436D01*
X150580871Y-88347819D01*
X150574046Y-88342021D01*
X150566530Y-88335091D01*
X150560786Y-88329347D01*
X150557912Y-88327073D01*
X150557905Y-88327067D01*
X150538390Y-88311628D01*
X150534986Y-88308837D01*
X150484629Y-88266055D01*
X150484625Y-88266052D01*
X150479050Y-88261316D01*
X150472533Y-88257988D01*
X150467469Y-88254611D01*
X150462245Y-88251384D01*
X150456501Y-88246840D01*
X150426493Y-88232815D01*
X150390019Y-88215768D01*
X150386068Y-88213837D01*
X150327218Y-88183787D01*
X150320697Y-88180457D01*
X150313582Y-88178716D01*
X150307836Y-88176579D01*
X150302053Y-88174655D01*
X150295422Y-88171556D01*
X150223544Y-88156606D01*
X150219272Y-88155639D01*
X150147989Y-88138196D01*
X150142390Y-88137849D01*
X150142386Y-88137848D01*
X150136771Y-88137500D01*
X150136773Y-88137461D01*
X150132872Y-88137228D01*
X150128513Y-88136839D01*
X150121345Y-88135348D01*
X150114028Y-88135546D01*
X150043524Y-88137454D01*
X150040115Y-88137500D01*
X144639067Y-88137500D01*
X144570946Y-88117498D01*
X144535855Y-88083772D01*
X144519359Y-88060214D01*
X144519357Y-88060212D01*
X144516198Y-88055700D01*
X144354300Y-87893802D01*
X144349792Y-87890645D01*
X144349789Y-87890643D01*
X144240654Y-87814226D01*
X144166749Y-87762477D01*
X144161767Y-87760154D01*
X144161762Y-87760151D01*
X144127543Y-87744195D01*
X144074258Y-87697278D01*
X144054797Y-87629001D01*
X144075339Y-87561041D01*
X144127543Y-87515805D01*
X144161762Y-87499849D01*
X144161767Y-87499846D01*
X144166749Y-87497523D01*
X144293517Y-87408759D01*
X144349789Y-87369357D01*
X144349792Y-87369355D01*
X144354300Y-87366198D01*
X144516198Y-87204300D01*
X144647523Y-87016749D01*
X144649846Y-87011767D01*
X144649849Y-87011762D01*
X144741961Y-86814225D01*
X144741961Y-86814224D01*
X144744284Y-86809243D01*
X144750724Y-86785211D01*
X144802119Y-86593402D01*
X144802119Y-86593400D01*
X144803543Y-86588087D01*
X144823498Y-86360000D01*
X144803543Y-86131913D01*
X144801756Y-86125245D01*
X144745707Y-85916067D01*
X144745706Y-85916065D01*
X144744284Y-85910757D01*
X144741961Y-85905775D01*
X144649849Y-85708238D01*
X144649846Y-85708233D01*
X144647523Y-85703251D01*
X144516198Y-85515700D01*
X144354300Y-85353802D01*
X144349792Y-85350645D01*
X144349789Y-85350643D01*
X144266752Y-85292500D01*
X144166749Y-85222477D01*
X144161767Y-85220154D01*
X144161762Y-85220151D01*
X143964225Y-85128039D01*
X143964224Y-85128039D01*
X143959243Y-85125716D01*
X143953935Y-85124294D01*
X143953933Y-85124293D01*
X143743402Y-85067881D01*
X143743400Y-85067881D01*
X143738087Y-85066457D01*
X143510000Y-85046502D01*
X143281913Y-85066457D01*
X143276600Y-85067881D01*
X143276598Y-85067881D01*
X143066067Y-85124293D01*
X143066065Y-85124294D01*
X143060757Y-85125716D01*
X143055776Y-85128039D01*
X143055775Y-85128039D01*
X142858238Y-85220151D01*
X142858233Y-85220154D01*
X142853251Y-85222477D01*
X142753248Y-85292500D01*
X142670211Y-85350643D01*
X142670208Y-85350645D01*
X142665700Y-85353802D01*
X142503802Y-85515700D01*
X142372477Y-85703251D01*
X142370154Y-85708233D01*
X142370151Y-85708238D01*
X142278039Y-85905775D01*
X142275716Y-85910757D01*
X142274294Y-85916065D01*
X142274293Y-85916067D01*
X142218244Y-86125245D01*
X142216457Y-86131913D01*
X142196502Y-86360000D01*
X142196981Y-86365475D01*
X142210300Y-86517711D01*
X142196311Y-86587316D01*
X142173874Y-86617788D01*
X141977067Y-86814595D01*
X141914755Y-86848621D01*
X141887972Y-86851500D01*
X137324500Y-86851500D01*
X137256379Y-86831498D01*
X137209886Y-86777842D01*
X137198500Y-86725500D01*
X137198500Y-85511866D01*
X137191745Y-85449684D01*
X137140615Y-85313295D01*
X137053261Y-85196739D01*
X136936705Y-85109385D01*
X136800316Y-85058255D01*
X136738134Y-85051500D01*
X135742028Y-85051500D01*
X135673907Y-85031498D01*
X135652933Y-85014595D01*
X134676810Y-84038472D01*
X134664423Y-84024059D01*
X134655795Y-84012335D01*
X134651454Y-84006436D01*
X134610945Y-83972021D01*
X134603429Y-83965091D01*
X134597685Y-83959347D01*
X134594811Y-83957073D01*
X134594804Y-83957067D01*
X134575289Y-83941628D01*
X134571885Y-83938837D01*
X134521528Y-83896055D01*
X134521524Y-83896052D01*
X134515949Y-83891316D01*
X134509432Y-83887988D01*
X134504368Y-83884611D01*
X134499144Y-83881384D01*
X134493400Y-83876840D01*
X134467109Y-83864552D01*
X134426918Y-83845768D01*
X134422967Y-83843837D01*
X134364117Y-83813787D01*
X134357596Y-83810457D01*
X134350481Y-83808716D01*
X134344735Y-83806579D01*
X134338952Y-83804655D01*
X134332321Y-83801556D01*
X134260443Y-83786606D01*
X134256171Y-83785639D01*
X134184888Y-83768196D01*
X134179289Y-83767849D01*
X134179285Y-83767848D01*
X134173670Y-83767500D01*
X134173672Y-83767461D01*
X134169771Y-83767228D01*
X134165412Y-83766839D01*
X134158244Y-83765348D01*
X134150927Y-83765546D01*
X134080423Y-83767454D01*
X134077014Y-83767500D01*
X119807368Y-83767500D01*
X119788420Y-83766067D01*
X119781033Y-83764943D01*
X119774024Y-83763877D01*
X119774022Y-83763877D01*
X119766792Y-83762777D01*
X119759500Y-83763370D01*
X119759497Y-83763370D01*
X119713825Y-83767085D01*
X119703611Y-83767500D01*
X119695475Y-83767500D01*
X119691840Y-83767924D01*
X119691837Y-83767924D01*
X119678065Y-83769530D01*
X119667084Y-83770810D01*
X119662713Y-83771243D01*
X119651701Y-83772138D01*
X119596872Y-83776597D01*
X119596869Y-83776598D01*
X119589573Y-83777191D01*
X119582611Y-83779446D01*
X119576607Y-83780646D01*
X119570660Y-83782052D01*
X119563393Y-83782899D01*
X119511995Y-83801556D01*
X119494388Y-83807947D01*
X119490227Y-83809375D01*
X119427387Y-83829732D01*
X119427382Y-83829734D01*
X119420425Y-83831988D01*
X119414173Y-83835782D01*
X119408598Y-83838334D01*
X119403135Y-83841070D01*
X119396259Y-83843566D01*
X119390140Y-83847578D01*
X119334863Y-83883819D01*
X119331159Y-83886156D01*
X119268419Y-83924228D01*
X119259994Y-83931668D01*
X119259969Y-83931640D01*
X119257044Y-83934234D01*
X119253690Y-83937039D01*
X119247565Y-83941054D01*
X119242530Y-83946369D01*
X119242529Y-83946370D01*
X119194012Y-83997586D01*
X119191634Y-84000028D01*
X117078472Y-86113190D01*
X117064059Y-86125577D01*
X117046436Y-86138546D01*
X117041692Y-86144129D01*
X117041693Y-86144129D01*
X117012021Y-86179055D01*
X117005091Y-86186571D01*
X116999347Y-86192315D01*
X116997073Y-86195189D01*
X116997067Y-86195196D01*
X116981628Y-86214711D01*
X116978837Y-86218115D01*
X116936055Y-86268472D01*
X116936052Y-86268476D01*
X116931316Y-86274051D01*
X116927988Y-86280568D01*
X116924611Y-86285632D01*
X116921384Y-86290856D01*
X116916840Y-86296600D01*
X116913741Y-86303231D01*
X116885768Y-86363082D01*
X116883837Y-86367033D01*
X116850457Y-86432404D01*
X116848716Y-86439519D01*
X116846579Y-86445265D01*
X116844655Y-86451048D01*
X116841556Y-86457679D01*
X116840066Y-86464843D01*
X116826608Y-86529547D01*
X116825639Y-86533829D01*
X116808196Y-86605112D01*
X116807500Y-86616330D01*
X116807461Y-86616328D01*
X116807228Y-86620229D01*
X116806839Y-86624588D01*
X116805348Y-86631756D01*
X116805546Y-86639073D01*
X116807454Y-86709577D01*
X116807500Y-86712986D01*
X116807500Y-91402624D01*
X116806067Y-91421574D01*
X116803876Y-91435973D01*
X116803876Y-91435979D01*
X116802776Y-91443208D01*
X116803369Y-91450500D01*
X116803369Y-91450503D01*
X116807085Y-91496183D01*
X116807500Y-91506398D01*
X116807500Y-91514525D01*
X116810811Y-91542924D01*
X116811238Y-91547244D01*
X116817191Y-91620426D01*
X116819447Y-91627388D01*
X116820643Y-91633376D01*
X116822051Y-91639333D01*
X116822899Y-91646607D01*
X116825397Y-91653489D01*
X116825398Y-91653493D01*
X116847945Y-91715607D01*
X116849355Y-91719711D01*
X116871987Y-91789575D01*
X116875787Y-91795838D01*
X116878325Y-91801380D01*
X116881067Y-91806856D01*
X116883566Y-91813741D01*
X116887581Y-91819865D01*
X116923815Y-91875132D01*
X116926130Y-91878800D01*
X116964227Y-91941581D01*
X116967941Y-91945786D01*
X116967943Y-91945789D01*
X116971667Y-91950005D01*
X116971638Y-91950031D01*
X116974238Y-91952962D01*
X116977042Y-91956316D01*
X116981054Y-91962435D01*
X116986366Y-91967467D01*
X117037586Y-92015988D01*
X117040028Y-92018366D01*
X117857992Y-92836330D01*
X117892018Y-92898642D01*
X117893958Y-92910070D01*
X117894051Y-92910826D01*
X117894251Y-92916158D01*
X117941593Y-93141791D01*
X117943551Y-93146750D01*
X117943552Y-93146752D01*
X118004547Y-93301199D01*
X118026276Y-93356221D01*
X118029043Y-93360780D01*
X118029044Y-93360783D01*
X118095481Y-93470267D01*
X118145877Y-93553317D01*
X118149374Y-93557347D01*
X118253293Y-93677103D01*
X118296977Y-93727445D01*
X118326818Y-93751913D01*
X118471127Y-93870240D01*
X118471133Y-93870244D01*
X118475255Y-93873624D01*
X118506750Y-93891552D01*
X118556055Y-93942632D01*
X118569917Y-94012262D01*
X118543934Y-94078333D01*
X118514784Y-94105573D01*
X118393181Y-94187441D01*
X118389324Y-94191120D01*
X118389322Y-94191122D01*
X118319964Y-94257287D01*
X118226365Y-94346576D01*
X118088746Y-94531542D01*
X118086330Y-94536293D01*
X118086328Y-94536297D01*
X118046919Y-94613810D01*
X117984260Y-94737051D01*
X117982678Y-94742145D01*
X117982677Y-94742148D01*
X117967693Y-94790405D01*
X117915893Y-94957227D01*
X117915192Y-94962516D01*
X117892225Y-95135805D01*
X117885602Y-95185774D01*
X117894251Y-95416158D01*
X117941593Y-95641791D01*
X118026276Y-95856221D01*
X118029043Y-95860780D01*
X118029044Y-95860783D01*
X118109118Y-95992740D01*
X118145877Y-96053317D01*
X118149374Y-96057347D01*
X118253293Y-96177103D01*
X118296977Y-96227445D01*
X118301108Y-96230832D01*
X118471127Y-96370240D01*
X118471133Y-96370244D01*
X118475255Y-96373624D01*
X118506750Y-96391552D01*
X118556055Y-96442632D01*
X118569917Y-96512262D01*
X118543934Y-96578333D01*
X118514784Y-96605573D01*
X118393181Y-96687441D01*
X118389324Y-96691120D01*
X118389322Y-96691122D01*
X118335352Y-96742607D01*
X118226365Y-96846576D01*
X118223186Y-96850849D01*
X118223177Y-96850859D01*
X118138788Y-96964283D01*
X118080690Y-97007510D01*
X118024387Y-97027947D01*
X118020227Y-97029375D01*
X117957391Y-97049731D01*
X117957389Y-97049732D01*
X117950425Y-97051988D01*
X117944168Y-97055785D01*
X117938587Y-97058340D01*
X117933134Y-97061071D01*
X117926259Y-97063566D01*
X117864835Y-97103837D01*
X117861155Y-97106158D01*
X117803225Y-97141310D01*
X117803220Y-97141314D01*
X117798419Y-97144227D01*
X117789995Y-97151668D01*
X117789969Y-97151638D01*
X117787041Y-97154236D01*
X117783687Y-97157040D01*
X117777565Y-97161054D01*
X117772532Y-97166367D01*
X117723995Y-97217604D01*
X117721617Y-97220046D01*
X115398472Y-99543190D01*
X115384059Y-99555577D01*
X115366436Y-99568546D01*
X115361692Y-99574129D01*
X115361693Y-99574129D01*
X115332021Y-99609055D01*
X115325091Y-99616571D01*
X115319347Y-99622315D01*
X115317073Y-99625189D01*
X115317067Y-99625196D01*
X115301628Y-99644711D01*
X115298837Y-99648115D01*
X115256055Y-99698472D01*
X115256052Y-99698476D01*
X115251316Y-99704051D01*
X115247988Y-99710568D01*
X115244611Y-99715632D01*
X115241384Y-99720856D01*
X115236840Y-99726600D01*
X115233741Y-99733231D01*
X115205768Y-99793082D01*
X115203837Y-99797033D01*
X115170457Y-99862404D01*
X115168716Y-99869519D01*
X115166579Y-99875265D01*
X115164655Y-99881048D01*
X115161556Y-99887679D01*
X115147091Y-99957227D01*
X115146608Y-99959547D01*
X115145639Y-99963829D01*
X115128196Y-100035112D01*
X115127500Y-100046330D01*
X115127461Y-100046328D01*
X115127228Y-100050229D01*
X115126839Y-100054588D01*
X115125348Y-100061756D01*
X115125546Y-100069073D01*
X115127454Y-100139577D01*
X115127500Y-100142986D01*
X115127500Y-105212624D01*
X115126067Y-105231574D01*
X115123876Y-105245973D01*
X115123876Y-105245979D01*
X115122776Y-105253208D01*
X107188500Y-105253208D01*
X107188500Y-81387655D01*
X108729858Y-81387655D01*
X108765104Y-81646638D01*
X108766412Y-81651124D01*
X108766412Y-81651126D01*
X108786098Y-81718664D01*
X108838243Y-81897567D01*
X108947668Y-82134928D01*
X108950231Y-82138837D01*
X109088410Y-82349596D01*
X109088414Y-82349601D01*
X109090976Y-82353509D01*
X109265018Y-82548506D01*
X109465970Y-82715637D01*
X109469973Y-82718066D01*
X109685422Y-82848804D01*
X109685426Y-82848806D01*
X109689419Y-82851229D01*
X109930455Y-82952303D01*
X110183783Y-83016641D01*
X110188434Y-83017109D01*
X110188438Y-83017110D01*
X110381308Y-83036531D01*
X110400867Y-83038500D01*
X110556354Y-83038500D01*
X110558679Y-83038327D01*
X110558685Y-83038327D01*
X110746000Y-83024407D01*
X110746004Y-83024406D01*
X110750652Y-83024061D01*
X110755200Y-83023032D01*
X110755206Y-83023031D01*
X110941601Y-82980853D01*
X111005577Y-82966377D01*
X111041769Y-82952303D01*
X111244824Y-82873340D01*
X111244827Y-82873339D01*
X111249177Y-82871647D01*
X111476098Y-82741951D01*
X111681357Y-82580138D01*
X111860443Y-82389763D01*
X112009424Y-82175009D01*
X112125025Y-81940593D01*
X112204707Y-81691665D01*
X112246721Y-81433693D01*
X112247324Y-81387655D01*
X153179858Y-81387655D01*
X153215104Y-81646638D01*
X153216412Y-81651124D01*
X153216412Y-81651126D01*
X153236098Y-81718664D01*
X153288243Y-81897567D01*
X153397668Y-82134928D01*
X153400231Y-82138837D01*
X153538410Y-82349596D01*
X153538414Y-82349601D01*
X153540976Y-82353509D01*
X153715018Y-82548506D01*
X153915970Y-82715637D01*
X153919973Y-82718066D01*
X154135422Y-82848804D01*
X154135426Y-82848806D01*
X154139419Y-82851229D01*
X154380455Y-82952303D01*
X154633783Y-83016641D01*
X154638434Y-83017109D01*
X154638438Y-83017110D01*
X154831308Y-83036531D01*
X154850867Y-83038500D01*
X155006354Y-83038500D01*
X155008679Y-83038327D01*
X155008685Y-83038327D01*
X155196000Y-83024407D01*
X155196004Y-83024406D01*
X155200652Y-83024061D01*
X155205200Y-83023032D01*
X155205206Y-83023031D01*
X155391601Y-82980853D01*
X155455577Y-82966377D01*
X155491769Y-82952303D01*
X155694824Y-82873340D01*
X155694827Y-82873339D01*
X155699177Y-82871647D01*
X155926098Y-82741951D01*
X156131357Y-82580138D01*
X156310443Y-82389763D01*
X156459424Y-82175009D01*
X156575025Y-81940593D01*
X156654707Y-81691665D01*
X156696721Y-81433693D01*
X156700142Y-81172345D01*
X156664896Y-80913362D01*
X156650473Y-80863877D01*
X156593068Y-80666932D01*
X156591757Y-80662433D01*
X156482332Y-80425072D01*
X156449519Y-80375024D01*
X156341590Y-80210404D01*
X156341586Y-80210399D01*
X156339024Y-80206491D01*
X156164982Y-80011494D01*
X155964030Y-79844363D01*
X155916844Y-79815730D01*
X155744578Y-79711196D01*
X155744574Y-79711194D01*
X155740581Y-79708771D01*
X155499545Y-79607697D01*
X155246217Y-79543359D01*
X155241566Y-79542891D01*
X155241562Y-79542890D01*
X155032271Y-79521816D01*
X155029133Y-79521500D01*
X154873646Y-79521500D01*
X154871321Y-79521673D01*
X154871315Y-79521673D01*
X154684000Y-79535593D01*
X154683996Y-79535594D01*
X154679348Y-79535939D01*
X154674800Y-79536968D01*
X154674794Y-79536969D01*
X154488399Y-79579147D01*
X154424423Y-79593623D01*
X154420071Y-79595315D01*
X154420069Y-79595316D01*
X154185176Y-79686660D01*
X154185173Y-79686661D01*
X154180823Y-79688353D01*
X153953902Y-79818049D01*
X153748643Y-79979862D01*
X153569557Y-80170237D01*
X153420576Y-80384991D01*
X153304975Y-80619407D01*
X153225293Y-80868335D01*
X153183279Y-81126307D01*
X153179858Y-81387655D01*
X112247324Y-81387655D01*
X112250142Y-81172345D01*
X112214896Y-80913362D01*
X112200473Y-80863877D01*
X112143068Y-80666932D01*
X112141757Y-80662433D01*
X112032332Y-80425072D01*
X111999519Y-80375024D01*
X111891590Y-80210404D01*
X111891586Y-80210399D01*
X111889024Y-80206491D01*
X111714982Y-80011494D01*
X111514030Y-79844363D01*
X111466844Y-79815730D01*
X111294578Y-79711196D01*
X111294574Y-79711194D01*
X111290581Y-79708771D01*
X111049545Y-79607697D01*
X110796217Y-79543359D01*
X110791566Y-79542891D01*
X110791562Y-79542890D01*
X110582271Y-79521816D01*
X110579133Y-79521500D01*
X110423646Y-79521500D01*
X110421321Y-79521673D01*
X110421315Y-79521673D01*
X110234000Y-79535593D01*
X110233996Y-79535594D01*
X110229348Y-79535939D01*
X110224800Y-79536968D01*
X110224794Y-79536969D01*
X110038399Y-79579147D01*
X109974423Y-79593623D01*
X109970071Y-79595315D01*
X109970069Y-79595316D01*
X109735176Y-79686660D01*
X109735173Y-79686661D01*
X109730823Y-79688353D01*
X109503902Y-79818049D01*
X109298643Y-79979862D01*
X109119557Y-80170237D01*
X108970576Y-80384991D01*
X108854975Y-80619407D01*
X108775293Y-80868335D01*
X108733279Y-81126307D01*
X108729858Y-81387655D01*
X107188500Y-81387655D01*
X107188500Y-78104500D01*
X107208502Y-78036379D01*
X107262158Y-77989886D01*
X107314500Y-77978500D01*
X158115500Y-77978500D01*
X158183621Y-77998502D01*
G37*
%TD.AperFunction*%
M02*
