M48
; DRILL file {KiCad (6.0.6)} date Thu Nov 10 14:52:40 2022
; FORMAT={-:-/ absolute / inch / decimal}
; #@! TF.CreationDate,2022-11-10T14:52:40+05:30
; #@! TF.GenerationSoftware,Kicad,Pcbnew,(6.0.6)
; #@! TF.FileFunction,Plated,1,2,PTH
FMAT,2
INCH
; #@! TA.AperFunction,Plated,PTH,ComponentDrill
T1C0.0315
; #@! TA.AperFunction,Plated,PTH,ComponentDrill
T2C0.0374
%
G90
G05
T1
X4.8004Y-3.3996
X4.8004Y-3.4996
X4.8004Y-3.5996
X4.8004Y-3.6996
X4.8004Y-3.7996
X4.8004Y-3.8996
X4.8004Y-3.9996
X4.8004Y-4.0996
X5.1004Y-3.3996
X5.1004Y-3.4996
X5.1004Y-3.5996
X5.1004Y-3.6996
X5.1004Y-3.7996
X5.1004Y-3.8996
X5.1004Y-3.9996
X5.1004Y-4.0996
X5.3504Y-3.5
X5.3504Y-3.6
X5.3504Y-3.7
X5.3504Y-3.8
X5.3504Y-3.9
X5.3504Y-4.0
X5.3504Y-4.1
X5.6504Y-3.5
X5.6504Y-3.6
X5.6504Y-3.7
X5.6504Y-3.8
X5.6504Y-3.9
X5.6504Y-4.0
X5.6504Y-4.1
T2
X4.5997Y-3.4547
X4.5997Y-3.5531
X4.5997Y-3.6516
X4.5997Y-3.75
X4.5997Y-3.8484
X4.5997Y-3.9469
X4.5997Y-4.0453
X5.8503Y-3.5539
X5.8503Y-3.6524
X5.8503Y-3.7508
X5.8503Y-3.8492
X5.8503Y-3.9476
X5.8503Y-4.0461
T0
M30
