%TF.GenerationSoftware,KiCad,Pcbnew,(6.0.6)*%
%TF.CreationDate,2022-12-02T11:51:26+05:30*%
%TF.ProjectId,exp3,65787033-2e6b-4696-9361-645f70636258,rev?*%
%TF.SameCoordinates,Original*%
%TF.FileFunction,Copper,L1,Top*%
%TF.FilePolarity,Positive*%
%FSLAX46Y46*%
G04 Gerber Fmt 4.6, Leading zero omitted, Abs format (unit mm)*
G04 Created by KiCad (PCBNEW (6.0.6)) date 2022-12-02 11:51:26*
%MOMM*%
%LPD*%
G01*
G04 APERTURE LIST*
G04 Aperture macros list*
%AMRoundRect*
0 Rectangle with rounded corners*
0 $1 Rounding radius*
0 $2 $3 $4 $5 $6 $7 $8 $9 X,Y pos of 4 corners*
0 Add a 4 corners polygon primitive as box body*
4,1,4,$2,$3,$4,$5,$6,$7,$8,$9,$2,$3,0*
0 Add four circle primitives for the rounded corners*
1,1,$1+$1,$2,$3*
1,1,$1+$1,$4,$5*
1,1,$1+$1,$6,$7*
1,1,$1+$1,$8,$9*
0 Add four rect primitives between the rounded corners*
20,1,$1+$1,$2,$3,$4,$5,0*
20,1,$1+$1,$4,$5,$6,$7,0*
20,1,$1+$1,$6,$7,$8,$9,0*
20,1,$1+$1,$8,$9,$2,$3,0*%
G04 Aperture macros list end*
%TA.AperFunction,ComponentPad*%
%ADD10RoundRect,0.250000X0.725000X-0.600000X0.725000X0.600000X-0.725000X0.600000X-0.725000X-0.600000X0*%
%TD*%
%TA.AperFunction,ComponentPad*%
%ADD11O,1.950000X1.700000*%
%TD*%
%TA.AperFunction,ComponentPad*%
%ADD12RoundRect,0.250000X-0.725000X0.600000X-0.725000X-0.600000X0.725000X-0.600000X0.725000X0.600000X0*%
%TD*%
%TA.AperFunction,ComponentPad*%
%ADD13R,1.600000X1.600000*%
%TD*%
%TA.AperFunction,ComponentPad*%
%ADD14O,1.600000X1.600000*%
%TD*%
G04 APERTURE END LIST*
D10*
%TO.P,J1,1,Pin_1*%
%TO.N,A1*%
X116832500Y-102750000D03*
D11*
%TO.P,J1,2,Pin_2*%
%TO.N,A0*%
X116832500Y-100250000D03*
%TO.P,J1,3,Pin_3*%
%TO.N,VCC*%
X116832500Y-97750000D03*
%TO.P,J1,4,Pin_4*%
%TO.N,GND*%
X116832500Y-95250000D03*
%TO.P,J1,5,Pin_5*%
%TO.N,Cin*%
X116832500Y-92750000D03*
%TO.P,J1,6,Pin_6*%
%TO.N,A2*%
X116832500Y-90250000D03*
%TO.P,J1,7,Pin_7*%
%TO.N,A3*%
X116832500Y-87750000D03*
%TD*%
D12*
%TO.P,J2,1,Pin_1*%
%TO.N,S3*%
X148597500Y-90270000D03*
D11*
%TO.P,J2,2,Pin_2*%
%TO.N,S2*%
X148597500Y-92770000D03*
%TO.P,J2,3,Pin_3*%
%TO.N,CO*%
X148597500Y-95270000D03*
%TO.P,J2,4,Pin_4*%
%TO.N,S1*%
X148597500Y-97770000D03*
%TO.P,J2,5,Pin_5*%
%TO.N,S0*%
X148597500Y-100270000D03*
%TO.P,J2,6,Pin_6*%
%TO.N,GND*%
X148597500Y-102770000D03*
%TD*%
D13*
%TO.P,U1,1*%
%TO.N,Cin*%
X135900000Y-88900000D03*
D14*
%TO.P,U1,2*%
%TO.N,GND*%
X135900000Y-91440000D03*
%TO.P,U1,3*%
%TO.N,Net-(U1-Pad3)*%
X135900000Y-93980000D03*
%TO.P,U1,4*%
%TO.N,GND*%
X135900000Y-96520000D03*
%TO.P,U1,5*%
%TO.N,Cin*%
X135900000Y-99060000D03*
%TO.P,U1,6*%
%TO.N,Net-(U1-Pad6)*%
X135900000Y-101600000D03*
%TO.P,U1,7,GND*%
%TO.N,GND*%
X135900000Y-104140000D03*
%TO.P,U1,8*%
%TO.N,Net-(U1-Pad8)*%
X143520000Y-104140000D03*
%TO.P,U1,9*%
%TO.N,Cin*%
X143520000Y-101600000D03*
%TO.P,U1,10*%
%TO.N,VCC*%
X143520000Y-99060000D03*
%TO.P,U1,11*%
%TO.N,Net-(U1-Pad11)*%
X143520000Y-96520000D03*
%TO.P,U1,12*%
%TO.N,Cin*%
X143520000Y-93980000D03*
%TO.P,U1,13*%
%TO.N,VCC*%
X143520000Y-91440000D03*
%TO.P,U1,14,VCC*%
X143520000Y-88900000D03*
%TD*%
D13*
%TO.P,U2,1,A4*%
%TO.N,A3*%
X121930000Y-86350000D03*
D14*
%TO.P,U2,2,S3*%
%TO.N,S2*%
X121930000Y-88890000D03*
%TO.P,U2,3,A3*%
%TO.N,A2*%
X121930000Y-91430000D03*
%TO.P,U2,4,B3*%
%TO.N,Net-(U1-Pad6)*%
X121930000Y-93970000D03*
%TO.P,U2,5,VCC*%
%TO.N,VCC*%
X121930000Y-96510000D03*
%TO.P,U2,6,S2*%
%TO.N,S1*%
X121930000Y-99050000D03*
%TO.P,U2,7,B2*%
%TO.N,Net-(U1-Pad8)*%
X121930000Y-101590000D03*
%TO.P,U2,8,A2*%
%TO.N,A1*%
X121930000Y-104130000D03*
%TO.P,U2,9,S1*%
%TO.N,S0*%
X129550000Y-104130000D03*
%TO.P,U2,10,A1*%
%TO.N,A0*%
X129550000Y-101590000D03*
%TO.P,U2,11,B1*%
%TO.N,Net-(U1-Pad11)*%
X129550000Y-99050000D03*
%TO.P,U2,12,GND*%
%TO.N,GND*%
X129550000Y-96510000D03*
%TO.P,U2,13,C0*%
%TO.N,Cin*%
X129550000Y-93970000D03*
%TO.P,U2,14,C4*%
%TO.N,CO*%
X129550000Y-91430000D03*
%TO.P,U2,15,S4*%
%TO.N,S3*%
X129550000Y-88890000D03*
%TO.P,U2,16,B4*%
%TO.N,Net-(U1-Pad3)*%
X129550000Y-86350000D03*
%TD*%
M02*
